G04 #@! TF.GenerationSoftware,KiCad,Pcbnew,(5.1.6-0-10_14)*
G04 #@! TF.CreationDate,2021-10-17T11:27:40-07:00*
G04 #@! TF.ProjectId,TimTime,54696d54-696d-4652-9e6b-696361645f70,rev?*
G04 #@! TF.SameCoordinates,Original*
G04 #@! TF.FileFunction,Copper,L3,Inr*
G04 #@! TF.FilePolarity,Positive*
%FSLAX46Y46*%
G04 Gerber Fmt 4.6, Leading zero omitted, Abs format (unit mm)*
G04 Created by KiCad (PCBNEW (5.1.6-0-10_14)) date 2021-10-17 11:27:40*
%MOMM*%
%LPD*%
G01*
G04 APERTURE LIST*
G04 #@! TA.AperFunction,ViaPad*
%ADD10O,1.308000X2.616000*%
G04 #@! TD*
G04 #@! TA.AperFunction,ViaPad*
%ADD11O,2.616000X1.308000*%
G04 #@! TD*
G04 #@! TA.AperFunction,ViaPad*
%ADD12C,0.650000*%
G04 #@! TD*
G04 #@! TA.AperFunction,ViaPad*
%ADD13O,2.216000X1.108000*%
G04 #@! TD*
G04 #@! TA.AperFunction,ViaPad*
%ADD14R,1.700000X1.700000*%
G04 #@! TD*
G04 #@! TA.AperFunction,ViaPad*
%ADD15O,1.700000X1.700000*%
G04 #@! TD*
G04 #@! TA.AperFunction,ViaPad*
%ADD16C,6.400000*%
G04 #@! TD*
G04 #@! TA.AperFunction,ViaPad*
%ADD17C,0.800000*%
G04 #@! TD*
G04 #@! TA.AperFunction,ViaPad*
%ADD18C,0.450000*%
G04 #@! TD*
G04 #@! TA.AperFunction,ViaPad*
%ADD19C,0.500000*%
G04 #@! TD*
G04 #@! TA.AperFunction,Conductor*
%ADD20C,0.200000*%
G04 #@! TD*
G04 #@! TA.AperFunction,Conductor*
%ADD21C,0.254000*%
G04 #@! TD*
G04 APERTURE END LIST*
D10*
G04 #@! TO.N,GND*
G04 #@! TO.C,J2*
X164084000Y-105203000D03*
D11*
G04 #@! TO.N,Net-(J2-Pad2)*
X159084000Y-110203000D03*
G04 #@! TO.N,Net-(J2-Pad3)*
X159084000Y-100203000D03*
G04 #@! TD*
D12*
G04 #@! TO.N,GND*
G04 #@! TO.C,J1*
X116412000Y-108458000D03*
G04 #@! TO.N,VBUS*
X116412000Y-107608000D03*
G04 #@! TO.N,CC1*
X116412000Y-106758000D03*
G04 #@! TO.N,USB_D+*
X116412000Y-105908000D03*
G04 #@! TO.N,USB_D-*
X116412000Y-105058000D03*
G04 #@! TO.N,Net-(J1-PadA8)*
X116412000Y-104208000D03*
G04 #@! TO.N,VBUS*
X116412000Y-103358000D03*
G04 #@! TO.N,GND*
X116412000Y-102508000D03*
X115062000Y-102508000D03*
G04 #@! TO.N,VBUS*
X115062000Y-103358000D03*
G04 #@! TO.N,CC2*
X115062000Y-104208000D03*
G04 #@! TO.N,USB_D+*
X115062000Y-105058000D03*
G04 #@! TO.N,USB_D-*
X115062000Y-105908000D03*
G04 #@! TO.N,Net-(J1-PadB8)*
X115062000Y-106758000D03*
G04 #@! TO.N,VBUS*
X115062000Y-107608000D03*
G04 #@! TO.N,GND*
X115062000Y-108458000D03*
D13*
G04 #@! TO.N,Net-(J1-PadP1)*
X115432000Y-109808000D03*
X115432000Y-101158000D03*
X112052000Y-101158000D03*
X112052000Y-109808000D03*
G04 #@! TD*
D14*
G04 #@! TO.N,GND*
G04 #@! TO.C,J3*
X133858000Y-91186000D03*
D15*
G04 #@! TO.N,+2V8*
X136398000Y-91186000D03*
G04 #@! TO.N,MON_SCL*
X138938000Y-91186000D03*
G04 #@! TO.N,MON_SDA*
X141478000Y-91186000D03*
G04 #@! TD*
D14*
G04 #@! TO.N,+2V8*
G04 #@! TO.C,J4*
X149733000Y-119634000D03*
D15*
G04 #@! TO.N,SWCLK*
X147193000Y-119634000D03*
G04 #@! TO.N,GND*
X144653000Y-119634000D03*
G04 #@! TO.N,SWDIO*
X142113000Y-119634000D03*
G04 #@! TO.N,NRST*
X139573000Y-119634000D03*
G04 #@! TO.N,SWO*
X137033000Y-119634000D03*
G04 #@! TD*
D14*
G04 #@! TO.N,GND*
G04 #@! TO.C,J5*
X119634000Y-96393000D03*
D15*
G04 #@! TO.N,+BATT*
X119634000Y-93853000D03*
G04 #@! TD*
G04 #@! TO.N,OSC*
G04 #@! TO.C,J6*
X155067000Y-91567000D03*
D14*
G04 #@! TO.N,GND*
X157607000Y-91567000D03*
G04 #@! TD*
D16*
G04 #@! TO.N,GND*
G04 #@! TO.C,H1*
X114173000Y-92964000D03*
D17*
X116573000Y-92964000D03*
X115870056Y-94661056D03*
X114173000Y-95364000D03*
X112475944Y-94661056D03*
X111773000Y-92964000D03*
X112475944Y-91266944D03*
X114173000Y-90564000D03*
X115870056Y-91266944D03*
G04 #@! TD*
G04 #@! TO.N,GND*
G04 #@! TO.C,H2*
X166416056Y-91266944D03*
X164719000Y-90564000D03*
X163021944Y-91266944D03*
X162319000Y-92964000D03*
X163021944Y-94661056D03*
X164719000Y-95364000D03*
X166416056Y-94661056D03*
X167119000Y-92964000D03*
D16*
X164719000Y-92964000D03*
G04 #@! TD*
G04 #@! TO.N,GND*
G04 #@! TO.C,H3*
X164719000Y-117602000D03*
D17*
X167119000Y-117602000D03*
X166416056Y-119299056D03*
X164719000Y-120002000D03*
X163021944Y-119299056D03*
X162319000Y-117602000D03*
X163021944Y-115904944D03*
X164719000Y-115202000D03*
X166416056Y-115904944D03*
G04 #@! TD*
G04 #@! TO.N,GND*
G04 #@! TO.C,H4*
X115870056Y-115904944D03*
X114173000Y-115202000D03*
X112475944Y-115904944D03*
X111773000Y-117602000D03*
X112475944Y-119299056D03*
X114173000Y-120002000D03*
X115870056Y-119299056D03*
X116573000Y-117602000D03*
D16*
X114173000Y-117602000D03*
G04 #@! TD*
D17*
G04 #@! TO.N,+2V8*
X131572000Y-98171000D03*
X148336000Y-96520000D03*
X157607000Y-94107000D03*
X157480000Y-116459000D03*
X134239000Y-110998000D03*
X130429000Y-103124000D03*
X131826000Y-107569000D03*
X144907000Y-110363000D03*
D18*
X153924000Y-106105000D03*
D17*
X129159000Y-93255000D03*
D19*
X161925000Y-105029000D03*
D17*
G04 #@! TO.N,GND*
X147955000Y-108839000D03*
X144653000Y-112141000D03*
X136906000Y-115951000D03*
X134239000Y-115189000D03*
X129921000Y-109220000D03*
X123063000Y-108966000D03*
X116332000Y-97917000D03*
X114808000Y-113030000D03*
X124841000Y-98679000D03*
X127254000Y-98679000D03*
X129667000Y-98552000D03*
X130937000Y-96266000D03*
X132207000Y-97155000D03*
X146558000Y-96520000D03*
X144780000Y-96520000D03*
X149860000Y-100076000D03*
X117729000Y-102489000D03*
D18*
X125222000Y-104394000D03*
D17*
X141478000Y-110236000D03*
X136144000Y-97282000D03*
D18*
X146494500Y-103441500D03*
X147066000Y-102108000D03*
X148590000Y-101727000D03*
X150495000Y-101727000D03*
X152527000Y-101727000D03*
X154432000Y-101727000D03*
X155829000Y-102997000D03*
X155829000Y-104394000D03*
X155829000Y-105664000D03*
X154432000Y-106680000D03*
X153035000Y-106680000D03*
X151257000Y-106680000D03*
X149352000Y-106680000D03*
X147828000Y-106680000D03*
X145796000Y-105791000D03*
X146685000Y-106172000D03*
X145161000Y-103672500D03*
X144780000Y-105791000D03*
D17*
X120523000Y-100076000D03*
D18*
X133731000Y-106680000D03*
X152527000Y-116459000D03*
X143129000Y-94234000D03*
D17*
X121539000Y-102743000D03*
X120142000Y-102743000D03*
X117983000Y-110109000D03*
D19*
X131064000Y-114173000D03*
X125603000Y-116078000D03*
X122047000Y-113538000D03*
X162560000Y-100330000D03*
X122301000Y-97155000D03*
D18*
G04 #@! TO.N,MON_SCL*
X137922000Y-98552000D03*
G04 #@! TO.N,MON_SDA*
X137160000Y-98552000D03*
X137160000Y-94615000D03*
G04 #@! TO.N,Net-(C3-Pad1)*
X153670000Y-102870000D03*
X153515000Y-100838000D03*
D19*
G04 #@! TO.N,VAA*
X145161000Y-102870000D03*
X145161000Y-100838000D03*
D17*
G04 #@! TO.N,+BATT*
X138684000Y-93980000D03*
D18*
G04 #@! TO.N,TC_OUT*
X145796000Y-93091000D03*
X138885990Y-99162500D03*
G04 #@! TO.N,STAT1*
X117983000Y-104140000D03*
X130810000Y-104013000D03*
G04 #@! TO.N,STAT2*
X117983000Y-106045000D03*
D19*
X129667000Y-106426000D03*
G04 #@! TO.N,USB_D+*
X131941834Y-106183166D03*
G04 #@! TO.N,USB_D-*
X132472166Y-105652834D03*
G04 #@! TO.N,SWCLK*
X136779000Y-117348000D03*
D18*
X136413500Y-109966500D03*
G04 #@! TO.N,SWDIO*
X139827000Y-106934000D03*
D17*
G04 #@! TO.N,NRST*
X138938000Y-104394000D03*
D18*
G04 #@! TO.N,SWO*
X137413500Y-109982500D03*
G04 #@! TO.N,OSC*
X139446000Y-102362000D03*
G04 #@! TO.N,TCVC*
X149733000Y-98552000D03*
X141351000Y-101854000D03*
G04 #@! TO.N,TC_IN*
X146177000Y-101219000D03*
X151892000Y-110236000D03*
G04 #@! TO.N,BTN_A*
X157353000Y-106934000D03*
X141224000Y-113030000D03*
D19*
G04 #@! TO.N,BTN_PWR*
X136906000Y-101727000D03*
X134493000Y-95123000D03*
G04 #@! TD*
D20*
G04 #@! TO.N,+2V8*
X153699001Y-106329999D02*
X153699001Y-107598001D01*
X153924000Y-106105000D02*
X153699001Y-106329999D01*
G04 #@! TD*
D21*
G04 #@! TO.N,+2V8*
G36*
X132556815Y-89884815D02*
G01*
X132477463Y-89981506D01*
X132418498Y-90091820D01*
X132382188Y-90211518D01*
X132369928Y-90336000D01*
X132369928Y-92036000D01*
X132382188Y-92160482D01*
X132418498Y-92280180D01*
X132477463Y-92390494D01*
X132556815Y-92487185D01*
X132653506Y-92566537D01*
X132763820Y-92625502D01*
X132883518Y-92661812D01*
X133008000Y-92674072D01*
X134708000Y-92674072D01*
X134832482Y-92661812D01*
X134952180Y-92625502D01*
X135062494Y-92566537D01*
X135159185Y-92487185D01*
X135238537Y-92390494D01*
X135297502Y-92280180D01*
X135321966Y-92199534D01*
X135397731Y-92283588D01*
X135631080Y-92457641D01*
X135893901Y-92582825D01*
X136041110Y-92627476D01*
X136271000Y-92506155D01*
X136271000Y-91313000D01*
X136251000Y-91313000D01*
X136251000Y-91059000D01*
X136271000Y-91059000D01*
X136271000Y-91039000D01*
X136525000Y-91039000D01*
X136525000Y-91059000D01*
X136545000Y-91059000D01*
X136545000Y-91313000D01*
X136525000Y-91313000D01*
X136525000Y-92506155D01*
X136754890Y-92627476D01*
X136902099Y-92582825D01*
X137164920Y-92457641D01*
X137398269Y-92283588D01*
X137593178Y-92067355D01*
X137662805Y-91950466D01*
X137784525Y-92132632D01*
X137991368Y-92339475D01*
X138234589Y-92501990D01*
X138504842Y-92613932D01*
X138791740Y-92671000D01*
X139084260Y-92671000D01*
X139371158Y-92613932D01*
X139641411Y-92501990D01*
X139884632Y-92339475D01*
X140091475Y-92132632D01*
X140208000Y-91958240D01*
X140324525Y-92132632D01*
X140531368Y-92339475D01*
X140774589Y-92501990D01*
X141044842Y-92613932D01*
X141331740Y-92671000D01*
X141624260Y-92671000D01*
X141911158Y-92613932D01*
X142181411Y-92501990D01*
X142424632Y-92339475D01*
X142631475Y-92132632D01*
X142793990Y-91889411D01*
X142905932Y-91619158D01*
X142945400Y-91420740D01*
X153582000Y-91420740D01*
X153582000Y-91713260D01*
X153639068Y-92000158D01*
X153751010Y-92270411D01*
X153913525Y-92513632D01*
X154120368Y-92720475D01*
X154363589Y-92882990D01*
X154633842Y-92994932D01*
X154920740Y-93052000D01*
X155213260Y-93052000D01*
X155500158Y-92994932D01*
X155770411Y-92882990D01*
X156013632Y-92720475D01*
X156145487Y-92588620D01*
X156167498Y-92661180D01*
X156226463Y-92771494D01*
X156305815Y-92868185D01*
X156402506Y-92947537D01*
X156512820Y-93006502D01*
X156632518Y-93042812D01*
X156757000Y-93055072D01*
X158457000Y-93055072D01*
X158581482Y-93042812D01*
X158701180Y-93006502D01*
X158811494Y-92947537D01*
X158908185Y-92868185D01*
X158987537Y-92771494D01*
X159046502Y-92661180D01*
X159082812Y-92541482D01*
X159095072Y-92417000D01*
X159095072Y-90717000D01*
X159082812Y-90592518D01*
X159046502Y-90472820D01*
X158987537Y-90362506D01*
X158908185Y-90265815D01*
X158811494Y-90186463D01*
X158701180Y-90127498D01*
X158581482Y-90091188D01*
X158457000Y-90078928D01*
X156757000Y-90078928D01*
X156632518Y-90091188D01*
X156512820Y-90127498D01*
X156402506Y-90186463D01*
X156305815Y-90265815D01*
X156226463Y-90362506D01*
X156167498Y-90472820D01*
X156145487Y-90545380D01*
X156013632Y-90413525D01*
X155770411Y-90251010D01*
X155500158Y-90139068D01*
X155213260Y-90082000D01*
X154920740Y-90082000D01*
X154633842Y-90139068D01*
X154363589Y-90251010D01*
X154120368Y-90413525D01*
X153913525Y-90620368D01*
X153751010Y-90863589D01*
X153639068Y-91133842D01*
X153582000Y-91420740D01*
X142945400Y-91420740D01*
X142963000Y-91332260D01*
X142963000Y-91039740D01*
X142905932Y-90752842D01*
X142793990Y-90482589D01*
X142631475Y-90239368D01*
X142424632Y-90032525D01*
X142181411Y-89870010D01*
X142046190Y-89814000D01*
X162530490Y-89814000D01*
X162274330Y-89985161D01*
X161740161Y-90519330D01*
X161320467Y-91147446D01*
X161031377Y-91845372D01*
X160884000Y-92586285D01*
X160884000Y-93341715D01*
X161031377Y-94082628D01*
X161320467Y-94780554D01*
X161740161Y-95408670D01*
X162274330Y-95942839D01*
X162902446Y-96362533D01*
X163600372Y-96651623D01*
X164341285Y-96799000D01*
X165096715Y-96799000D01*
X165837628Y-96651623D01*
X166535554Y-96362533D01*
X167163670Y-95942839D01*
X167697839Y-95408670D01*
X167869000Y-95152509D01*
X167869001Y-115413492D01*
X167697839Y-115157330D01*
X167163670Y-114623161D01*
X166535554Y-114203467D01*
X165837628Y-113914377D01*
X165096715Y-113767000D01*
X164341285Y-113767000D01*
X163600372Y-113914377D01*
X162902446Y-114203467D01*
X162274330Y-114623161D01*
X161740161Y-115157330D01*
X161320467Y-115785446D01*
X161031377Y-116483372D01*
X160884000Y-117224285D01*
X160884000Y-117979715D01*
X161031377Y-118720628D01*
X161320467Y-119418554D01*
X161740161Y-120046670D01*
X162274330Y-120580839D01*
X162530490Y-120752000D01*
X151159770Y-120752000D01*
X151172502Y-120728180D01*
X151208812Y-120608482D01*
X151221072Y-120484000D01*
X151218000Y-119919750D01*
X151059250Y-119761000D01*
X149860000Y-119761000D01*
X149860000Y-119781000D01*
X149606000Y-119781000D01*
X149606000Y-119761000D01*
X149586000Y-119761000D01*
X149586000Y-119507000D01*
X149606000Y-119507000D01*
X149606000Y-118307750D01*
X149860000Y-118307750D01*
X149860000Y-119507000D01*
X151059250Y-119507000D01*
X151218000Y-119348250D01*
X151221072Y-118784000D01*
X151208812Y-118659518D01*
X151172502Y-118539820D01*
X151113537Y-118429506D01*
X151034185Y-118332815D01*
X150937494Y-118253463D01*
X150827180Y-118194498D01*
X150707482Y-118158188D01*
X150583000Y-118145928D01*
X150018750Y-118149000D01*
X149860000Y-118307750D01*
X149606000Y-118307750D01*
X149447250Y-118149000D01*
X148883000Y-118145928D01*
X148758518Y-118158188D01*
X148638820Y-118194498D01*
X148528506Y-118253463D01*
X148431815Y-118332815D01*
X148352463Y-118429506D01*
X148293498Y-118539820D01*
X148271487Y-118612380D01*
X148139632Y-118480525D01*
X147896411Y-118318010D01*
X147626158Y-118206068D01*
X147339260Y-118149000D01*
X147046740Y-118149000D01*
X146759842Y-118206068D01*
X146489589Y-118318010D01*
X146246368Y-118480525D01*
X146039525Y-118687368D01*
X145923000Y-118861760D01*
X145806475Y-118687368D01*
X145599632Y-118480525D01*
X145356411Y-118318010D01*
X145086158Y-118206068D01*
X144799260Y-118149000D01*
X144506740Y-118149000D01*
X144219842Y-118206068D01*
X143949589Y-118318010D01*
X143706368Y-118480525D01*
X143499525Y-118687368D01*
X143383000Y-118861760D01*
X143266475Y-118687368D01*
X143059632Y-118480525D01*
X142816411Y-118318010D01*
X142546158Y-118206068D01*
X142259260Y-118149000D01*
X141966740Y-118149000D01*
X141679842Y-118206068D01*
X141409589Y-118318010D01*
X141166368Y-118480525D01*
X140959525Y-118687368D01*
X140843000Y-118861760D01*
X140726475Y-118687368D01*
X140519632Y-118480525D01*
X140276411Y-118318010D01*
X140006158Y-118206068D01*
X139719260Y-118149000D01*
X139426740Y-118149000D01*
X139139842Y-118206068D01*
X138869589Y-118318010D01*
X138626368Y-118480525D01*
X138419525Y-118687368D01*
X138303000Y-118861760D01*
X138186475Y-118687368D01*
X137979632Y-118480525D01*
X137736411Y-118318010D01*
X137466158Y-118206068D01*
X137179260Y-118149000D01*
X137157832Y-118149000D01*
X137198205Y-118132277D01*
X137343155Y-118035424D01*
X137466424Y-117912155D01*
X137563277Y-117767205D01*
X137629990Y-117606145D01*
X137664000Y-117435165D01*
X137664000Y-117260835D01*
X137629990Y-117089855D01*
X137563277Y-116928795D01*
X137483735Y-116809753D01*
X137565774Y-116754937D01*
X137709937Y-116610774D01*
X137823205Y-116441256D01*
X137850940Y-116374297D01*
X151667000Y-116374297D01*
X151667000Y-116543703D01*
X151700049Y-116709853D01*
X151764878Y-116866363D01*
X151858995Y-117007218D01*
X151978782Y-117127005D01*
X152119637Y-117221122D01*
X152276147Y-117285951D01*
X152442297Y-117319000D01*
X152611703Y-117319000D01*
X152777853Y-117285951D01*
X152934363Y-117221122D01*
X153075218Y-117127005D01*
X153195005Y-117007218D01*
X153289122Y-116866363D01*
X153353951Y-116709853D01*
X153387000Y-116543703D01*
X153387000Y-116374297D01*
X153353951Y-116208147D01*
X153289122Y-116051637D01*
X153195005Y-115910782D01*
X153075218Y-115790995D01*
X152934363Y-115696878D01*
X152777853Y-115632049D01*
X152611703Y-115599000D01*
X152442297Y-115599000D01*
X152276147Y-115632049D01*
X152119637Y-115696878D01*
X151978782Y-115790995D01*
X151858995Y-115910782D01*
X151764878Y-116051637D01*
X151700049Y-116208147D01*
X151667000Y-116374297D01*
X137850940Y-116374297D01*
X137901226Y-116252898D01*
X137941000Y-116052939D01*
X137941000Y-115849061D01*
X137901226Y-115649102D01*
X137823205Y-115460744D01*
X137709937Y-115291226D01*
X137565774Y-115147063D01*
X137396256Y-115033795D01*
X137207898Y-114955774D01*
X137007939Y-114916000D01*
X136804061Y-114916000D01*
X136604102Y-114955774D01*
X136415744Y-115033795D01*
X136246226Y-115147063D01*
X136102063Y-115291226D01*
X135988795Y-115460744D01*
X135910774Y-115649102D01*
X135871000Y-115849061D01*
X135871000Y-116052939D01*
X135910774Y-116252898D01*
X135988795Y-116441256D01*
X136102063Y-116610774D01*
X136183355Y-116692066D01*
X136091576Y-116783845D01*
X135994723Y-116928795D01*
X135928010Y-117089855D01*
X135894000Y-117260835D01*
X135894000Y-117435165D01*
X135928010Y-117606145D01*
X135994723Y-117767205D01*
X136091576Y-117912155D01*
X136214845Y-118035424D01*
X136359795Y-118132277D01*
X136520855Y-118198990D01*
X136585761Y-118211901D01*
X136329589Y-118318010D01*
X136086368Y-118480525D01*
X135879525Y-118687368D01*
X135717010Y-118930589D01*
X135605068Y-119200842D01*
X135548000Y-119487740D01*
X135548000Y-119780260D01*
X135605068Y-120067158D01*
X135717010Y-120337411D01*
X135879525Y-120580632D01*
X136050893Y-120752000D01*
X128651000Y-120752000D01*
X128651000Y-115087061D01*
X133204000Y-115087061D01*
X133204000Y-115290939D01*
X133243774Y-115490898D01*
X133321795Y-115679256D01*
X133435063Y-115848774D01*
X133579226Y-115992937D01*
X133748744Y-116106205D01*
X133937102Y-116184226D01*
X134137061Y-116224000D01*
X134340939Y-116224000D01*
X134540898Y-116184226D01*
X134729256Y-116106205D01*
X134898774Y-115992937D01*
X135042937Y-115848774D01*
X135156205Y-115679256D01*
X135234226Y-115490898D01*
X135274000Y-115290939D01*
X135274000Y-115087061D01*
X135234226Y-114887102D01*
X135156205Y-114698744D01*
X135042937Y-114529226D01*
X134898774Y-114385063D01*
X134729256Y-114271795D01*
X134540898Y-114193774D01*
X134340939Y-114154000D01*
X134137061Y-114154000D01*
X133937102Y-114193774D01*
X133748744Y-114271795D01*
X133579226Y-114385063D01*
X133435063Y-114529226D01*
X133321795Y-114698744D01*
X133243774Y-114887102D01*
X133204000Y-115087061D01*
X128651000Y-115087061D01*
X128651000Y-114085835D01*
X130179000Y-114085835D01*
X130179000Y-114260165D01*
X130213010Y-114431145D01*
X130279723Y-114592205D01*
X130376576Y-114737155D01*
X130499845Y-114860424D01*
X130644795Y-114957277D01*
X130805855Y-115023990D01*
X130976835Y-115058000D01*
X131151165Y-115058000D01*
X131322145Y-115023990D01*
X131483205Y-114957277D01*
X131628155Y-114860424D01*
X131751424Y-114737155D01*
X131848277Y-114592205D01*
X131914990Y-114431145D01*
X131949000Y-114260165D01*
X131949000Y-114085835D01*
X131914990Y-113914855D01*
X131848277Y-113753795D01*
X131751424Y-113608845D01*
X131628155Y-113485576D01*
X131483205Y-113388723D01*
X131322145Y-113322010D01*
X131151165Y-113288000D01*
X130976835Y-113288000D01*
X130805855Y-113322010D01*
X130644795Y-113388723D01*
X130499845Y-113485576D01*
X130376576Y-113608845D01*
X130279723Y-113753795D01*
X130213010Y-113914855D01*
X130179000Y-114085835D01*
X128651000Y-114085835D01*
X128651000Y-112945297D01*
X140364000Y-112945297D01*
X140364000Y-113114703D01*
X140397049Y-113280853D01*
X140461878Y-113437363D01*
X140555995Y-113578218D01*
X140675782Y-113698005D01*
X140816637Y-113792122D01*
X140973147Y-113856951D01*
X141139297Y-113890000D01*
X141308703Y-113890000D01*
X141474853Y-113856951D01*
X141631363Y-113792122D01*
X141772218Y-113698005D01*
X141892005Y-113578218D01*
X141986122Y-113437363D01*
X142050951Y-113280853D01*
X142084000Y-113114703D01*
X142084000Y-112945297D01*
X142050951Y-112779147D01*
X141986122Y-112622637D01*
X141892005Y-112481782D01*
X141772218Y-112361995D01*
X141631363Y-112267878D01*
X141474853Y-112203049D01*
X141308703Y-112170000D01*
X141139297Y-112170000D01*
X140973147Y-112203049D01*
X140816637Y-112267878D01*
X140675782Y-112361995D01*
X140555995Y-112481782D01*
X140461878Y-112622637D01*
X140397049Y-112779147D01*
X140364000Y-112945297D01*
X128651000Y-112945297D01*
X128651000Y-112039061D01*
X143618000Y-112039061D01*
X143618000Y-112242939D01*
X143657774Y-112442898D01*
X143735795Y-112631256D01*
X143849063Y-112800774D01*
X143993226Y-112944937D01*
X144162744Y-113058205D01*
X144351102Y-113136226D01*
X144551061Y-113176000D01*
X144754939Y-113176000D01*
X144954898Y-113136226D01*
X145143256Y-113058205D01*
X145312774Y-112944937D01*
X145456937Y-112800774D01*
X145570205Y-112631256D01*
X145648226Y-112442898D01*
X145688000Y-112242939D01*
X145688000Y-112039061D01*
X145648226Y-111839102D01*
X145570205Y-111650744D01*
X145456937Y-111481226D01*
X145312774Y-111337063D01*
X145143256Y-111223795D01*
X144954898Y-111145774D01*
X144754939Y-111106000D01*
X144551061Y-111106000D01*
X144351102Y-111145774D01*
X144162744Y-111223795D01*
X143993226Y-111337063D01*
X143849063Y-111481226D01*
X143735795Y-111650744D01*
X143657774Y-111839102D01*
X143618000Y-112039061D01*
X128651000Y-112039061D01*
X128651000Y-109118061D01*
X128886000Y-109118061D01*
X128886000Y-109321939D01*
X128925774Y-109521898D01*
X129003795Y-109710256D01*
X129117063Y-109879774D01*
X129261226Y-110023937D01*
X129430744Y-110137205D01*
X129619102Y-110215226D01*
X129819061Y-110255000D01*
X130022939Y-110255000D01*
X130222898Y-110215226D01*
X130411256Y-110137205D01*
X130580774Y-110023937D01*
X130722914Y-109881797D01*
X135553500Y-109881797D01*
X135553500Y-110051203D01*
X135586549Y-110217353D01*
X135651378Y-110373863D01*
X135745495Y-110514718D01*
X135865282Y-110634505D01*
X136006137Y-110728622D01*
X136162647Y-110793451D01*
X136328797Y-110826500D01*
X136498203Y-110826500D01*
X136664353Y-110793451D01*
X136820863Y-110728622D01*
X136901527Y-110674723D01*
X137006137Y-110744622D01*
X137162647Y-110809451D01*
X137328797Y-110842500D01*
X137498203Y-110842500D01*
X137664353Y-110809451D01*
X137820863Y-110744622D01*
X137961718Y-110650505D01*
X138081505Y-110530718D01*
X138175622Y-110389863D01*
X138240451Y-110233353D01*
X138260201Y-110134061D01*
X140443000Y-110134061D01*
X140443000Y-110337939D01*
X140482774Y-110537898D01*
X140560795Y-110726256D01*
X140674063Y-110895774D01*
X140818226Y-111039937D01*
X140987744Y-111153205D01*
X141176102Y-111231226D01*
X141376061Y-111271000D01*
X141579939Y-111271000D01*
X141779898Y-111231226D01*
X141968256Y-111153205D01*
X142137774Y-111039937D01*
X142281937Y-110895774D01*
X142395205Y-110726256D01*
X142473226Y-110537898D01*
X142513000Y-110337939D01*
X142513000Y-110151297D01*
X151032000Y-110151297D01*
X151032000Y-110320703D01*
X151065049Y-110486853D01*
X151129878Y-110643363D01*
X151223995Y-110784218D01*
X151343782Y-110904005D01*
X151484637Y-110998122D01*
X151641147Y-111062951D01*
X151807297Y-111096000D01*
X151976703Y-111096000D01*
X152142853Y-111062951D01*
X152299363Y-110998122D01*
X152440218Y-110904005D01*
X152560005Y-110784218D01*
X152654122Y-110643363D01*
X152718951Y-110486853D01*
X152752000Y-110320703D01*
X152752000Y-110203000D01*
X157134764Y-110203000D01*
X157159652Y-110455688D01*
X157233358Y-110698665D01*
X157353051Y-110922595D01*
X157514130Y-111118870D01*
X157710405Y-111279949D01*
X157934335Y-111399642D01*
X158177312Y-111473348D01*
X158366686Y-111492000D01*
X159801314Y-111492000D01*
X159990688Y-111473348D01*
X160233665Y-111399642D01*
X160457595Y-111279949D01*
X160653870Y-111118870D01*
X160814949Y-110922595D01*
X160934642Y-110698665D01*
X161008348Y-110455688D01*
X161033236Y-110203000D01*
X161021256Y-110081363D01*
X162849000Y-110081363D01*
X162849000Y-110324637D01*
X162896460Y-110563236D01*
X162989557Y-110787992D01*
X163124713Y-110990267D01*
X163296733Y-111162287D01*
X163499008Y-111297443D01*
X163723764Y-111390540D01*
X163962363Y-111438000D01*
X164205637Y-111438000D01*
X164444236Y-111390540D01*
X164668992Y-111297443D01*
X164871267Y-111162287D01*
X165043287Y-110990267D01*
X165178443Y-110787992D01*
X165271540Y-110563236D01*
X165319000Y-110324637D01*
X165319000Y-110081363D01*
X165349000Y-110081363D01*
X165349000Y-110324637D01*
X165396460Y-110563236D01*
X165489557Y-110787992D01*
X165624713Y-110990267D01*
X165796733Y-111162287D01*
X165999008Y-111297443D01*
X166223764Y-111390540D01*
X166462363Y-111438000D01*
X166705637Y-111438000D01*
X166944236Y-111390540D01*
X167168992Y-111297443D01*
X167371267Y-111162287D01*
X167543287Y-110990267D01*
X167678443Y-110787992D01*
X167771540Y-110563236D01*
X167819000Y-110324637D01*
X167819000Y-110081363D01*
X167771540Y-109842764D01*
X167678443Y-109618008D01*
X167543287Y-109415733D01*
X167371267Y-109243713D01*
X167168992Y-109108557D01*
X166944236Y-109015460D01*
X166705637Y-108968000D01*
X166462363Y-108968000D01*
X166223764Y-109015460D01*
X165999008Y-109108557D01*
X165796733Y-109243713D01*
X165624713Y-109415733D01*
X165489557Y-109618008D01*
X165396460Y-109842764D01*
X165349000Y-110081363D01*
X165319000Y-110081363D01*
X165271540Y-109842764D01*
X165178443Y-109618008D01*
X165043287Y-109415733D01*
X164871267Y-109243713D01*
X164668992Y-109108557D01*
X164444236Y-109015460D01*
X164205637Y-108968000D01*
X163962363Y-108968000D01*
X163723764Y-109015460D01*
X163499008Y-109108557D01*
X163296733Y-109243713D01*
X163124713Y-109415733D01*
X162989557Y-109618008D01*
X162896460Y-109842764D01*
X162849000Y-110081363D01*
X161021256Y-110081363D01*
X161008348Y-109950312D01*
X160934642Y-109707335D01*
X160814949Y-109483405D01*
X160653870Y-109287130D01*
X160457595Y-109126051D01*
X160233665Y-109006358D01*
X159990688Y-108932652D01*
X159801314Y-108914000D01*
X158366686Y-108914000D01*
X158177312Y-108932652D01*
X157934335Y-109006358D01*
X157710405Y-109126051D01*
X157514130Y-109287130D01*
X157353051Y-109483405D01*
X157233358Y-109707335D01*
X157159652Y-109950312D01*
X157134764Y-110203000D01*
X152752000Y-110203000D01*
X152752000Y-110151297D01*
X152718951Y-109985147D01*
X152654122Y-109828637D01*
X152560005Y-109687782D01*
X152440218Y-109567995D01*
X152299363Y-109473878D01*
X152142853Y-109409049D01*
X151976703Y-109376000D01*
X151807297Y-109376000D01*
X151641147Y-109409049D01*
X151484637Y-109473878D01*
X151343782Y-109567995D01*
X151223995Y-109687782D01*
X151129878Y-109828637D01*
X151065049Y-109985147D01*
X151032000Y-110151297D01*
X142513000Y-110151297D01*
X142513000Y-110134061D01*
X142473226Y-109934102D01*
X142395205Y-109745744D01*
X142281937Y-109576226D01*
X142137774Y-109432063D01*
X141968256Y-109318795D01*
X141779898Y-109240774D01*
X141579939Y-109201000D01*
X141376061Y-109201000D01*
X141176102Y-109240774D01*
X140987744Y-109318795D01*
X140818226Y-109432063D01*
X140674063Y-109576226D01*
X140560795Y-109745744D01*
X140482774Y-109934102D01*
X140443000Y-110134061D01*
X138260201Y-110134061D01*
X138273500Y-110067203D01*
X138273500Y-109897797D01*
X138240451Y-109731647D01*
X138175622Y-109575137D01*
X138081505Y-109434282D01*
X137961718Y-109314495D01*
X137820863Y-109220378D01*
X137664353Y-109155549D01*
X137498203Y-109122500D01*
X137328797Y-109122500D01*
X137162647Y-109155549D01*
X137006137Y-109220378D01*
X136925473Y-109274277D01*
X136820863Y-109204378D01*
X136664353Y-109139549D01*
X136498203Y-109106500D01*
X136328797Y-109106500D01*
X136162647Y-109139549D01*
X136006137Y-109204378D01*
X135865282Y-109298495D01*
X135745495Y-109418282D01*
X135651378Y-109559137D01*
X135586549Y-109715647D01*
X135553500Y-109881797D01*
X130722914Y-109881797D01*
X130724937Y-109879774D01*
X130838205Y-109710256D01*
X130916226Y-109521898D01*
X130956000Y-109321939D01*
X130956000Y-109118061D01*
X130916226Y-108918102D01*
X130841236Y-108737061D01*
X146920000Y-108737061D01*
X146920000Y-108940939D01*
X146959774Y-109140898D01*
X147037795Y-109329256D01*
X147151063Y-109498774D01*
X147295226Y-109642937D01*
X147464744Y-109756205D01*
X147653102Y-109834226D01*
X147853061Y-109874000D01*
X148056939Y-109874000D01*
X148256898Y-109834226D01*
X148445256Y-109756205D01*
X148614774Y-109642937D01*
X148758937Y-109498774D01*
X148872205Y-109329256D01*
X148950226Y-109140898D01*
X148990000Y-108940939D01*
X148990000Y-108737061D01*
X148950226Y-108537102D01*
X148872205Y-108348744D01*
X148758937Y-108179226D01*
X148614774Y-108035063D01*
X148445256Y-107921795D01*
X148256898Y-107843774D01*
X148056939Y-107804000D01*
X147853061Y-107804000D01*
X147653102Y-107843774D01*
X147464744Y-107921795D01*
X147295226Y-108035063D01*
X147151063Y-108179226D01*
X147037795Y-108348744D01*
X146959774Y-108537102D01*
X146920000Y-108737061D01*
X130841236Y-108737061D01*
X130838205Y-108729744D01*
X130724937Y-108560226D01*
X130580774Y-108416063D01*
X130411256Y-108302795D01*
X130222898Y-108224774D01*
X130022939Y-108185000D01*
X129819061Y-108185000D01*
X129619102Y-108224774D01*
X129430744Y-108302795D01*
X129261226Y-108416063D01*
X129117063Y-108560226D01*
X129003795Y-108729744D01*
X128925774Y-108918102D01*
X128886000Y-109118061D01*
X128651000Y-109118061D01*
X128651000Y-106338835D01*
X128782000Y-106338835D01*
X128782000Y-106513165D01*
X128816010Y-106684145D01*
X128882723Y-106845205D01*
X128979576Y-106990155D01*
X129102845Y-107113424D01*
X129247795Y-107210277D01*
X129408855Y-107276990D01*
X129579835Y-107311000D01*
X129754165Y-107311000D01*
X129925145Y-107276990D01*
X130086205Y-107210277D01*
X130231155Y-107113424D01*
X130354424Y-106990155D01*
X130451277Y-106845205D01*
X130517990Y-106684145D01*
X130552000Y-106513165D01*
X130552000Y-106338835D01*
X130517990Y-106167855D01*
X130488228Y-106096001D01*
X131056834Y-106096001D01*
X131056834Y-106270331D01*
X131090844Y-106441311D01*
X131157557Y-106602371D01*
X131254410Y-106747321D01*
X131377679Y-106870590D01*
X131522629Y-106967443D01*
X131683689Y-107034156D01*
X131854669Y-107068166D01*
X132028999Y-107068166D01*
X132199979Y-107034156D01*
X132361039Y-106967443D01*
X132505989Y-106870590D01*
X132629258Y-106747321D01*
X132726111Y-106602371D01*
X132774514Y-106485514D01*
X132891371Y-106437111D01*
X132904339Y-106428446D01*
X132904049Y-106429147D01*
X132871000Y-106595297D01*
X132871000Y-106764703D01*
X132904049Y-106930853D01*
X132968878Y-107087363D01*
X133062995Y-107228218D01*
X133182782Y-107348005D01*
X133323637Y-107442122D01*
X133480147Y-107506951D01*
X133646297Y-107540000D01*
X133815703Y-107540000D01*
X133981853Y-107506951D01*
X134138363Y-107442122D01*
X134279218Y-107348005D01*
X134399005Y-107228218D01*
X134493122Y-107087363D01*
X134557951Y-106930853D01*
X134574173Y-106849297D01*
X138967000Y-106849297D01*
X138967000Y-107018703D01*
X139000049Y-107184853D01*
X139064878Y-107341363D01*
X139158995Y-107482218D01*
X139278782Y-107602005D01*
X139419637Y-107696122D01*
X139576147Y-107760951D01*
X139742297Y-107794000D01*
X139911703Y-107794000D01*
X140077853Y-107760951D01*
X140234363Y-107696122D01*
X140375218Y-107602005D01*
X140495005Y-107482218D01*
X140589122Y-107341363D01*
X140653951Y-107184853D01*
X140687000Y-107018703D01*
X140687000Y-106849297D01*
X140653951Y-106683147D01*
X140589122Y-106526637D01*
X140495005Y-106385782D01*
X140375218Y-106265995D01*
X140234363Y-106171878D01*
X140077853Y-106107049D01*
X139911703Y-106074000D01*
X139742297Y-106074000D01*
X139576147Y-106107049D01*
X139419637Y-106171878D01*
X139278782Y-106265995D01*
X139158995Y-106385782D01*
X139064878Y-106526637D01*
X139000049Y-106683147D01*
X138967000Y-106849297D01*
X134574173Y-106849297D01*
X134591000Y-106764703D01*
X134591000Y-106595297D01*
X134557951Y-106429147D01*
X134493122Y-106272637D01*
X134399005Y-106131782D01*
X134279218Y-106011995D01*
X134138363Y-105917878D01*
X133981853Y-105853049D01*
X133815703Y-105820000D01*
X133646297Y-105820000D01*
X133480147Y-105853049D01*
X133323637Y-105917878D01*
X133319021Y-105920963D01*
X133323156Y-105910979D01*
X133357166Y-105739999D01*
X133357166Y-105565669D01*
X133323156Y-105394689D01*
X133256443Y-105233629D01*
X133159590Y-105088679D01*
X133036321Y-104965410D01*
X132891371Y-104868557D01*
X132730311Y-104801844D01*
X132559331Y-104767834D01*
X132385001Y-104767834D01*
X132214021Y-104801844D01*
X132052961Y-104868557D01*
X131908011Y-104965410D01*
X131784742Y-105088679D01*
X131687889Y-105233629D01*
X131639486Y-105350486D01*
X131522629Y-105398889D01*
X131377679Y-105495742D01*
X131254410Y-105619011D01*
X131157557Y-105763961D01*
X131090844Y-105925021D01*
X131056834Y-106096001D01*
X130488228Y-106096001D01*
X130451277Y-106006795D01*
X130354424Y-105861845D01*
X130231155Y-105738576D01*
X130086205Y-105641723D01*
X129925145Y-105575010D01*
X129754165Y-105541000D01*
X129579835Y-105541000D01*
X129408855Y-105575010D01*
X129247795Y-105641723D01*
X129102845Y-105738576D01*
X128979576Y-105861845D01*
X128882723Y-106006795D01*
X128816010Y-106167855D01*
X128782000Y-106338835D01*
X128651000Y-106338835D01*
X128651000Y-103928297D01*
X129950000Y-103928297D01*
X129950000Y-104097703D01*
X129983049Y-104263853D01*
X130047878Y-104420363D01*
X130141995Y-104561218D01*
X130261782Y-104681005D01*
X130402637Y-104775122D01*
X130559147Y-104839951D01*
X130725297Y-104873000D01*
X130894703Y-104873000D01*
X131060853Y-104839951D01*
X131217363Y-104775122D01*
X131358218Y-104681005D01*
X131478005Y-104561218D01*
X131572122Y-104420363D01*
X131625266Y-104292061D01*
X137903000Y-104292061D01*
X137903000Y-104495939D01*
X137942774Y-104695898D01*
X138020795Y-104884256D01*
X138134063Y-105053774D01*
X138278226Y-105197937D01*
X138447744Y-105311205D01*
X138636102Y-105389226D01*
X138836061Y-105429000D01*
X139039939Y-105429000D01*
X139239898Y-105389226D01*
X139428256Y-105311205D01*
X139597774Y-105197937D01*
X139741937Y-105053774D01*
X139855205Y-104884256D01*
X139900460Y-104775000D01*
X142113000Y-104775000D01*
X142113000Y-105791000D01*
X142115440Y-105815776D01*
X142122667Y-105839601D01*
X142134403Y-105861557D01*
X142150197Y-105880803D01*
X142169443Y-105896597D01*
X142191399Y-105908333D01*
X142215224Y-105915560D01*
X142240000Y-105918000D01*
X143928413Y-105918000D01*
X143953049Y-106041853D01*
X144017878Y-106198363D01*
X144111995Y-106339218D01*
X144231782Y-106459005D01*
X144372637Y-106553122D01*
X144529147Y-106617951D01*
X144695297Y-106651000D01*
X144864703Y-106651000D01*
X145030853Y-106617951D01*
X145187363Y-106553122D01*
X145288000Y-106485878D01*
X145388637Y-106553122D01*
X145545147Y-106617951D01*
X145711297Y-106651000D01*
X145880703Y-106651000D01*
X145960181Y-106635191D01*
X146016995Y-106720218D01*
X146136782Y-106840005D01*
X146277637Y-106934122D01*
X146434147Y-106998951D01*
X146600297Y-107032000D01*
X146769703Y-107032000D01*
X146935853Y-106998951D01*
X147015578Y-106965928D01*
X147065878Y-107087363D01*
X147159995Y-107228218D01*
X147279782Y-107348005D01*
X147420637Y-107442122D01*
X147577147Y-107506951D01*
X147743297Y-107540000D01*
X147912703Y-107540000D01*
X148078853Y-107506951D01*
X148235363Y-107442122D01*
X148376218Y-107348005D01*
X148496005Y-107228218D01*
X148590000Y-107087546D01*
X148683995Y-107228218D01*
X148803782Y-107348005D01*
X148944637Y-107442122D01*
X149101147Y-107506951D01*
X149267297Y-107540000D01*
X149436703Y-107540000D01*
X149602853Y-107506951D01*
X149759363Y-107442122D01*
X149900218Y-107348005D01*
X150020005Y-107228218D01*
X150114122Y-107087363D01*
X150178951Y-106930853D01*
X150212000Y-106764703D01*
X150212000Y-106680000D01*
X150397000Y-106680000D01*
X150397000Y-106764703D01*
X150430049Y-106930853D01*
X150494878Y-107087363D01*
X150588995Y-107228218D01*
X150708782Y-107348005D01*
X150849637Y-107442122D01*
X151006147Y-107506951D01*
X151172297Y-107540000D01*
X151341703Y-107540000D01*
X151507853Y-107506951D01*
X151664363Y-107442122D01*
X151805218Y-107348005D01*
X151925005Y-107228218D01*
X152019122Y-107087363D01*
X152083951Y-106930853D01*
X152117000Y-106764703D01*
X152117000Y-106680000D01*
X152175000Y-106680000D01*
X152175000Y-106764703D01*
X152208049Y-106930853D01*
X152272878Y-107087363D01*
X152366995Y-107228218D01*
X152486782Y-107348005D01*
X152627637Y-107442122D01*
X152784147Y-107506951D01*
X152950297Y-107540000D01*
X153119703Y-107540000D01*
X153285853Y-107506951D01*
X153442363Y-107442122D01*
X153583218Y-107348005D01*
X153703005Y-107228218D01*
X153733500Y-107182579D01*
X153763995Y-107228218D01*
X153883782Y-107348005D01*
X154024637Y-107442122D01*
X154181147Y-107506951D01*
X154347297Y-107540000D01*
X154516703Y-107540000D01*
X154682853Y-107506951D01*
X154839363Y-107442122D01*
X154980218Y-107348005D01*
X155100005Y-107228218D01*
X155194122Y-107087363D01*
X155258951Y-106930853D01*
X155275173Y-106849297D01*
X156493000Y-106849297D01*
X156493000Y-107018703D01*
X156526049Y-107184853D01*
X156590878Y-107341363D01*
X156684995Y-107482218D01*
X156804782Y-107602005D01*
X156945637Y-107696122D01*
X157102147Y-107760951D01*
X157268297Y-107794000D01*
X157437703Y-107794000D01*
X157603853Y-107760951D01*
X157760363Y-107696122D01*
X157901218Y-107602005D01*
X158021005Y-107482218D01*
X158115122Y-107341363D01*
X158179951Y-107184853D01*
X158213000Y-107018703D01*
X158213000Y-106849297D01*
X158179951Y-106683147D01*
X158115122Y-106526637D01*
X158021005Y-106385782D01*
X157901218Y-106265995D01*
X157760363Y-106171878D01*
X157603853Y-106107049D01*
X157437703Y-106074000D01*
X157268297Y-106074000D01*
X157102147Y-106107049D01*
X156945637Y-106171878D01*
X156804782Y-106265995D01*
X156684995Y-106385782D01*
X156590878Y-106526637D01*
X156526049Y-106683147D01*
X156493000Y-106849297D01*
X155275173Y-106849297D01*
X155292000Y-106764703D01*
X155292000Y-106599784D01*
X155571237Y-106488089D01*
X155578147Y-106490951D01*
X155744297Y-106524000D01*
X155913703Y-106524000D01*
X156079853Y-106490951D01*
X156236363Y-106426122D01*
X156377218Y-106332005D01*
X156497005Y-106212218D01*
X156591122Y-106071363D01*
X156655951Y-105914853D01*
X156689000Y-105748703D01*
X156689000Y-105579297D01*
X156655951Y-105413147D01*
X156591122Y-105256637D01*
X156497005Y-105115782D01*
X156462586Y-105081363D01*
X157849000Y-105081363D01*
X157849000Y-105324637D01*
X157896460Y-105563236D01*
X157989557Y-105787992D01*
X158124713Y-105990267D01*
X158296733Y-106162287D01*
X158499008Y-106297443D01*
X158723764Y-106390540D01*
X158962363Y-106438000D01*
X159205637Y-106438000D01*
X159444236Y-106390540D01*
X159668992Y-106297443D01*
X159871267Y-106162287D01*
X160043287Y-105990267D01*
X160178443Y-105787992D01*
X160271540Y-105563236D01*
X160319000Y-105324637D01*
X160319000Y-105081363D01*
X160271540Y-104842764D01*
X160178443Y-104618008D01*
X160090029Y-104485686D01*
X162795000Y-104485686D01*
X162795000Y-105920313D01*
X162813652Y-106109687D01*
X162887358Y-106352664D01*
X163007051Y-106576594D01*
X163168130Y-106772870D01*
X163364405Y-106933949D01*
X163588335Y-107053642D01*
X163831312Y-107127348D01*
X164084000Y-107152236D01*
X164336687Y-107127348D01*
X164579664Y-107053642D01*
X164803594Y-106933949D01*
X164999870Y-106772870D01*
X165160949Y-106576595D01*
X165280642Y-106352665D01*
X165354348Y-106109688D01*
X165373000Y-105920314D01*
X165373000Y-104485686D01*
X165354348Y-104296312D01*
X165280642Y-104053335D01*
X165160949Y-103829405D01*
X164999870Y-103633130D01*
X164803595Y-103472051D01*
X164579665Y-103352358D01*
X164336688Y-103278652D01*
X164084000Y-103253764D01*
X163831313Y-103278652D01*
X163588336Y-103352358D01*
X163364406Y-103472051D01*
X163168131Y-103633130D01*
X163007052Y-103829405D01*
X162887358Y-104053335D01*
X162813652Y-104296312D01*
X162795000Y-104485686D01*
X160090029Y-104485686D01*
X160043287Y-104415733D01*
X159871267Y-104243713D01*
X159668992Y-104108557D01*
X159444236Y-104015460D01*
X159205637Y-103968000D01*
X158962363Y-103968000D01*
X158723764Y-104015460D01*
X158499008Y-104108557D01*
X158296733Y-104243713D01*
X158124713Y-104415733D01*
X157989557Y-104618008D01*
X157896460Y-104842764D01*
X157849000Y-105081363D01*
X156462586Y-105081363D01*
X156410223Y-105029000D01*
X156497005Y-104942218D01*
X156591122Y-104801363D01*
X156655951Y-104644853D01*
X156689000Y-104478703D01*
X156689000Y-104309297D01*
X156655951Y-104143147D01*
X156591122Y-103986637D01*
X156497005Y-103845782D01*
X156377218Y-103725995D01*
X156331579Y-103695500D01*
X156377218Y-103665005D01*
X156497005Y-103545218D01*
X156591122Y-103404363D01*
X156655951Y-103247853D01*
X156689000Y-103081703D01*
X156689000Y-102912297D01*
X156655951Y-102746147D01*
X156591122Y-102589637D01*
X156497005Y-102448782D01*
X156377218Y-102328995D01*
X156236363Y-102234878D01*
X156079853Y-102170049D01*
X155913703Y-102137000D01*
X155744297Y-102137000D01*
X155578147Y-102170049D01*
X155531014Y-102189572D01*
X155259969Y-101972736D01*
X155292000Y-101811703D01*
X155292000Y-101642297D01*
X155258951Y-101476147D01*
X155194122Y-101319637D01*
X155100005Y-101178782D01*
X154980218Y-101058995D01*
X154839363Y-100964878D01*
X154682853Y-100900049D01*
X154516703Y-100867000D01*
X154375000Y-100867000D01*
X154375000Y-100753297D01*
X154341951Y-100587147D01*
X154277122Y-100430637D01*
X154183005Y-100289782D01*
X154096223Y-100203000D01*
X157134764Y-100203000D01*
X157159652Y-100455688D01*
X157233358Y-100698665D01*
X157353051Y-100922595D01*
X157514130Y-101118870D01*
X157710405Y-101279949D01*
X157934335Y-101399642D01*
X158177312Y-101473348D01*
X158366686Y-101492000D01*
X159801314Y-101492000D01*
X159990688Y-101473348D01*
X160233665Y-101399642D01*
X160457595Y-101279949D01*
X160653870Y-101118870D01*
X160814949Y-100922595D01*
X160934642Y-100698665D01*
X161008348Y-100455688D01*
X161029312Y-100242835D01*
X161675000Y-100242835D01*
X161675000Y-100417165D01*
X161709010Y-100588145D01*
X161775723Y-100749205D01*
X161872576Y-100894155D01*
X161995845Y-101017424D01*
X162140795Y-101114277D01*
X162301855Y-101180990D01*
X162472835Y-101215000D01*
X162647165Y-101215000D01*
X162818145Y-101180990D01*
X162979205Y-101114277D01*
X163124155Y-101017424D01*
X163138013Y-101003567D01*
X163296733Y-101162287D01*
X163499008Y-101297443D01*
X163723764Y-101390540D01*
X163962363Y-101438000D01*
X164205637Y-101438000D01*
X164444236Y-101390540D01*
X164668992Y-101297443D01*
X164871267Y-101162287D01*
X165043287Y-100990267D01*
X165178443Y-100787992D01*
X165271540Y-100563236D01*
X165319000Y-100324637D01*
X165319000Y-100081363D01*
X165349000Y-100081363D01*
X165349000Y-100324637D01*
X165396460Y-100563236D01*
X165489557Y-100787992D01*
X165624713Y-100990267D01*
X165796733Y-101162287D01*
X165999008Y-101297443D01*
X166223764Y-101390540D01*
X166462363Y-101438000D01*
X166705637Y-101438000D01*
X166944236Y-101390540D01*
X167168992Y-101297443D01*
X167371267Y-101162287D01*
X167543287Y-100990267D01*
X167678443Y-100787992D01*
X167771540Y-100563236D01*
X167819000Y-100324637D01*
X167819000Y-100081363D01*
X167771540Y-99842764D01*
X167678443Y-99618008D01*
X167543287Y-99415733D01*
X167371267Y-99243713D01*
X167168992Y-99108557D01*
X166944236Y-99015460D01*
X166705637Y-98968000D01*
X166462363Y-98968000D01*
X166223764Y-99015460D01*
X165999008Y-99108557D01*
X165796733Y-99243713D01*
X165624713Y-99415733D01*
X165489557Y-99618008D01*
X165396460Y-99842764D01*
X165349000Y-100081363D01*
X165319000Y-100081363D01*
X165271540Y-99842764D01*
X165178443Y-99618008D01*
X165043287Y-99415733D01*
X164871267Y-99243713D01*
X164668992Y-99108557D01*
X164444236Y-99015460D01*
X164205637Y-98968000D01*
X163962363Y-98968000D01*
X163723764Y-99015460D01*
X163499008Y-99108557D01*
X163296733Y-99243713D01*
X163124713Y-99415733D01*
X163019753Y-99572816D01*
X162979205Y-99545723D01*
X162818145Y-99479010D01*
X162647165Y-99445000D01*
X162472835Y-99445000D01*
X162301855Y-99479010D01*
X162140795Y-99545723D01*
X161995845Y-99642576D01*
X161872576Y-99765845D01*
X161775723Y-99910795D01*
X161709010Y-100071855D01*
X161675000Y-100242835D01*
X161029312Y-100242835D01*
X161033236Y-100203000D01*
X161008348Y-99950312D01*
X160934642Y-99707335D01*
X160814949Y-99483405D01*
X160653870Y-99287130D01*
X160457595Y-99126051D01*
X160233665Y-99006358D01*
X159990688Y-98932652D01*
X159801314Y-98914000D01*
X158366686Y-98914000D01*
X158177312Y-98932652D01*
X157934335Y-99006358D01*
X157710405Y-99126051D01*
X157514130Y-99287130D01*
X157353051Y-99483405D01*
X157233358Y-99707335D01*
X157159652Y-99950312D01*
X157134764Y-100203000D01*
X154096223Y-100203000D01*
X154063218Y-100169995D01*
X153922363Y-100075878D01*
X153765853Y-100011049D01*
X153599703Y-99978000D01*
X153430297Y-99978000D01*
X153264147Y-100011049D01*
X153107637Y-100075878D01*
X152966782Y-100169995D01*
X152846995Y-100289782D01*
X152752878Y-100430637D01*
X152688049Y-100587147D01*
X152655000Y-100753297D01*
X152655000Y-100875612D01*
X152611703Y-100867000D01*
X152442297Y-100867000D01*
X152276147Y-100900049D01*
X152119637Y-100964878D01*
X151978782Y-101058995D01*
X151858995Y-101178782D01*
X151764878Y-101319637D01*
X151700049Y-101476147D01*
X151667000Y-101642297D01*
X151667000Y-101811703D01*
X151675413Y-101854000D01*
X151346587Y-101854000D01*
X151355000Y-101811703D01*
X151355000Y-101642297D01*
X151321951Y-101476147D01*
X151257122Y-101319637D01*
X151163005Y-101178782D01*
X151043218Y-101058995D01*
X150902363Y-100964878D01*
X150745853Y-100900049D01*
X150579703Y-100867000D01*
X150532711Y-100867000D01*
X150663937Y-100735774D01*
X150777205Y-100566256D01*
X150855226Y-100377898D01*
X150895000Y-100177939D01*
X150895000Y-99974061D01*
X150855226Y-99774102D01*
X150777205Y-99585744D01*
X150663937Y-99416226D01*
X150519774Y-99272063D01*
X150350256Y-99158795D01*
X150344721Y-99156502D01*
X150401005Y-99100218D01*
X150495122Y-98959363D01*
X150559951Y-98802853D01*
X150593000Y-98636703D01*
X150593000Y-98467297D01*
X150559951Y-98301147D01*
X150495122Y-98144637D01*
X150401005Y-98003782D01*
X150281218Y-97883995D01*
X150140363Y-97789878D01*
X149983853Y-97725049D01*
X149817703Y-97692000D01*
X149648297Y-97692000D01*
X149482147Y-97725049D01*
X149325637Y-97789878D01*
X149184782Y-97883995D01*
X149064995Y-98003782D01*
X148970878Y-98144637D01*
X148906049Y-98301147D01*
X148873000Y-98467297D01*
X148873000Y-98636703D01*
X148906049Y-98802853D01*
X148970878Y-98959363D01*
X149064995Y-99100218D01*
X149184782Y-99220005D01*
X149231459Y-99251194D01*
X149200226Y-99272063D01*
X149056063Y-99416226D01*
X148942795Y-99585744D01*
X148864774Y-99774102D01*
X148825000Y-99974061D01*
X148825000Y-100177939D01*
X148864774Y-100377898D01*
X148942795Y-100566256D01*
X149056063Y-100735774D01*
X149200226Y-100879937D01*
X149369744Y-100993205D01*
X149558102Y-101071226D01*
X149758061Y-101111000D01*
X149894777Y-101111000D01*
X149826995Y-101178782D01*
X149732878Y-101319637D01*
X149668049Y-101476147D01*
X149635000Y-101642297D01*
X149635000Y-101811703D01*
X149643413Y-101854000D01*
X149441587Y-101854000D01*
X149450000Y-101811703D01*
X149450000Y-101642297D01*
X149416951Y-101476147D01*
X149352122Y-101319637D01*
X149258005Y-101178782D01*
X149138218Y-101058995D01*
X148997363Y-100964878D01*
X148840853Y-100900049D01*
X148674703Y-100867000D01*
X148505297Y-100867000D01*
X148339147Y-100900049D01*
X148182637Y-100964878D01*
X148041782Y-101058995D01*
X147921995Y-101178782D01*
X147827878Y-101319637D01*
X147763049Y-101476147D01*
X147743567Y-101574092D01*
X147734005Y-101559782D01*
X147614218Y-101439995D01*
X147473363Y-101345878D01*
X147316853Y-101281049D01*
X147150703Y-101248000D01*
X147037000Y-101248000D01*
X147037000Y-101134297D01*
X147003951Y-100968147D01*
X146939122Y-100811637D01*
X146845005Y-100670782D01*
X146725218Y-100550995D01*
X146584363Y-100456878D01*
X146427853Y-100392049D01*
X146261703Y-100359000D01*
X146092297Y-100359000D01*
X145927258Y-100391828D01*
X145848424Y-100273845D01*
X145725155Y-100150576D01*
X145580205Y-100053723D01*
X145419145Y-99987010D01*
X145248165Y-99953000D01*
X145073835Y-99953000D01*
X144902855Y-99987010D01*
X144741795Y-100053723D01*
X144596845Y-100150576D01*
X144473576Y-100273845D01*
X144376723Y-100418795D01*
X144310010Y-100579855D01*
X144276000Y-100750835D01*
X144276000Y-100925165D01*
X144310010Y-101096145D01*
X144376723Y-101257205D01*
X144473576Y-101402155D01*
X144596845Y-101525424D01*
X144741795Y-101622277D01*
X144902855Y-101688990D01*
X145073835Y-101723000D01*
X145248165Y-101723000D01*
X145419145Y-101688990D01*
X145448578Y-101676798D01*
X145508995Y-101767218D01*
X145628782Y-101887005D01*
X145769637Y-101981122D01*
X145926147Y-102045951D01*
X146092297Y-102079000D01*
X146206000Y-102079000D01*
X146206000Y-102192703D01*
X146239049Y-102358853D01*
X146303878Y-102515363D01*
X146355311Y-102592338D01*
X146243647Y-102614549D01*
X146087137Y-102679378D01*
X146032661Y-102715778D01*
X146011990Y-102611855D01*
X145945277Y-102450795D01*
X145848424Y-102305845D01*
X145725155Y-102182576D01*
X145580205Y-102085723D01*
X145419145Y-102019010D01*
X145248165Y-101985000D01*
X145073835Y-101985000D01*
X144902855Y-102019010D01*
X144741795Y-102085723D01*
X144596845Y-102182576D01*
X144473576Y-102305845D01*
X144376723Y-102450795D01*
X144310010Y-102611855D01*
X144276000Y-102782835D01*
X144276000Y-102957165D01*
X144310010Y-103128145D01*
X144376723Y-103289205D01*
X144384245Y-103300463D01*
X144334049Y-103421647D01*
X144301000Y-103587797D01*
X144301000Y-103757203D01*
X144308842Y-103796629D01*
X144293403Y-103815443D01*
X144281667Y-103837399D01*
X144274440Y-103861224D01*
X144272000Y-103886000D01*
X144272000Y-104648000D01*
X142240000Y-104648000D01*
X142215224Y-104650440D01*
X142191399Y-104657667D01*
X142169443Y-104669403D01*
X142150197Y-104685197D01*
X142134403Y-104704443D01*
X142122667Y-104726399D01*
X142115440Y-104750224D01*
X142113000Y-104775000D01*
X139900460Y-104775000D01*
X139933226Y-104695898D01*
X139973000Y-104495939D01*
X139973000Y-104292061D01*
X139933226Y-104092102D01*
X139855205Y-103903744D01*
X139741937Y-103734226D01*
X139597774Y-103590063D01*
X139428256Y-103476795D01*
X139239898Y-103398774D01*
X139039939Y-103359000D01*
X138836061Y-103359000D01*
X138636102Y-103398774D01*
X138447744Y-103476795D01*
X138278226Y-103590063D01*
X138134063Y-103734226D01*
X138020795Y-103903744D01*
X137942774Y-104092102D01*
X137903000Y-104292061D01*
X131625266Y-104292061D01*
X131636951Y-104263853D01*
X131670000Y-104097703D01*
X131670000Y-103928297D01*
X131636951Y-103762147D01*
X131572122Y-103605637D01*
X131478005Y-103464782D01*
X131358218Y-103344995D01*
X131217363Y-103250878D01*
X131060853Y-103186049D01*
X130894703Y-103153000D01*
X130725297Y-103153000D01*
X130559147Y-103186049D01*
X130402637Y-103250878D01*
X130261782Y-103344995D01*
X130141995Y-103464782D01*
X130047878Y-103605637D01*
X129983049Y-103762147D01*
X129950000Y-103928297D01*
X128651000Y-103928297D01*
X128651000Y-101639835D01*
X136021000Y-101639835D01*
X136021000Y-101814165D01*
X136055010Y-101985145D01*
X136121723Y-102146205D01*
X136218576Y-102291155D01*
X136341845Y-102414424D01*
X136486795Y-102511277D01*
X136647855Y-102577990D01*
X136818835Y-102612000D01*
X136993165Y-102612000D01*
X137164145Y-102577990D01*
X137325205Y-102511277D01*
X137470155Y-102414424D01*
X137593424Y-102291155D01*
X137602683Y-102277297D01*
X138586000Y-102277297D01*
X138586000Y-102446703D01*
X138619049Y-102612853D01*
X138683878Y-102769363D01*
X138777995Y-102910218D01*
X138897782Y-103030005D01*
X139038637Y-103124122D01*
X139195147Y-103188951D01*
X139361297Y-103222000D01*
X139530703Y-103222000D01*
X139696853Y-103188951D01*
X139853363Y-103124122D01*
X139994218Y-103030005D01*
X140114005Y-102910218D01*
X140208122Y-102769363D01*
X140272951Y-102612853D01*
X140306000Y-102446703D01*
X140306000Y-102277297D01*
X140272951Y-102111147D01*
X140208122Y-101954637D01*
X140114005Y-101813782D01*
X140069520Y-101769297D01*
X140491000Y-101769297D01*
X140491000Y-101938703D01*
X140524049Y-102104853D01*
X140588878Y-102261363D01*
X140682995Y-102402218D01*
X140802782Y-102522005D01*
X140943637Y-102616122D01*
X141100147Y-102680951D01*
X141266297Y-102714000D01*
X141435703Y-102714000D01*
X141601853Y-102680951D01*
X141758363Y-102616122D01*
X141899218Y-102522005D01*
X142019005Y-102402218D01*
X142113122Y-102261363D01*
X142177951Y-102104853D01*
X142211000Y-101938703D01*
X142211000Y-101769297D01*
X142177951Y-101603147D01*
X142113122Y-101446637D01*
X142019005Y-101305782D01*
X141899218Y-101185995D01*
X141758363Y-101091878D01*
X141601853Y-101027049D01*
X141435703Y-100994000D01*
X141266297Y-100994000D01*
X141100147Y-101027049D01*
X140943637Y-101091878D01*
X140802782Y-101185995D01*
X140682995Y-101305782D01*
X140588878Y-101446637D01*
X140524049Y-101603147D01*
X140491000Y-101769297D01*
X140069520Y-101769297D01*
X139994218Y-101693995D01*
X139853363Y-101599878D01*
X139696853Y-101535049D01*
X139530703Y-101502000D01*
X139361297Y-101502000D01*
X139195147Y-101535049D01*
X139038637Y-101599878D01*
X138897782Y-101693995D01*
X138777995Y-101813782D01*
X138683878Y-101954637D01*
X138619049Y-102111147D01*
X138586000Y-102277297D01*
X137602683Y-102277297D01*
X137690277Y-102146205D01*
X137756990Y-101985145D01*
X137791000Y-101814165D01*
X137791000Y-101639835D01*
X137756990Y-101468855D01*
X137690277Y-101307795D01*
X137593424Y-101162845D01*
X137470155Y-101039576D01*
X137325205Y-100942723D01*
X137164145Y-100876010D01*
X136993165Y-100842000D01*
X136818835Y-100842000D01*
X136647855Y-100876010D01*
X136486795Y-100942723D01*
X136341845Y-101039576D01*
X136218576Y-101162845D01*
X136121723Y-101307795D01*
X136055010Y-101468855D01*
X136021000Y-101639835D01*
X128651000Y-101639835D01*
X128651000Y-98749459D01*
X128671774Y-98853898D01*
X128749795Y-99042256D01*
X128863063Y-99211774D01*
X129007226Y-99355937D01*
X129176744Y-99469205D01*
X129365102Y-99547226D01*
X129565061Y-99587000D01*
X129768939Y-99587000D01*
X129968898Y-99547226D01*
X130157256Y-99469205D01*
X130326774Y-99355937D01*
X130470937Y-99211774D01*
X130584205Y-99042256D01*
X130662226Y-98853898D01*
X130702000Y-98653939D01*
X130702000Y-98450061D01*
X130662226Y-98250102D01*
X130584205Y-98061744D01*
X130470937Y-97892226D01*
X130326774Y-97748063D01*
X130157256Y-97634795D01*
X129968898Y-97556774D01*
X129768939Y-97517000D01*
X129565061Y-97517000D01*
X129365102Y-97556774D01*
X129176744Y-97634795D01*
X129007226Y-97748063D01*
X128863063Y-97892226D01*
X128749795Y-98061744D01*
X128671774Y-98250102D01*
X128651000Y-98354541D01*
X128651000Y-96164061D01*
X129902000Y-96164061D01*
X129902000Y-96367939D01*
X129941774Y-96567898D01*
X130019795Y-96756256D01*
X130133063Y-96925774D01*
X130277226Y-97069937D01*
X130446744Y-97183205D01*
X130635102Y-97261226D01*
X130835061Y-97301000D01*
X131038939Y-97301000D01*
X131175366Y-97273863D01*
X131211774Y-97456898D01*
X131289795Y-97645256D01*
X131403063Y-97814774D01*
X131547226Y-97958937D01*
X131716744Y-98072205D01*
X131905102Y-98150226D01*
X132105061Y-98190000D01*
X132308939Y-98190000D01*
X132508898Y-98150226D01*
X132697256Y-98072205D01*
X132866774Y-97958937D01*
X133010937Y-97814774D01*
X133124205Y-97645256D01*
X133202226Y-97456898D01*
X133242000Y-97256939D01*
X133242000Y-97180061D01*
X135109000Y-97180061D01*
X135109000Y-97383939D01*
X135148774Y-97583898D01*
X135226795Y-97772256D01*
X135340063Y-97941774D01*
X135484226Y-98085937D01*
X135653744Y-98199205D01*
X135842102Y-98277226D01*
X136042061Y-98317000D01*
X136245939Y-98317000D01*
X136333714Y-98299541D01*
X136333049Y-98301147D01*
X136300000Y-98467297D01*
X136300000Y-98636703D01*
X136333049Y-98802853D01*
X136397878Y-98959363D01*
X136491995Y-99100218D01*
X136611782Y-99220005D01*
X136752637Y-99314122D01*
X136909147Y-99378951D01*
X137075297Y-99412000D01*
X137244703Y-99412000D01*
X137410853Y-99378951D01*
X137541000Y-99325042D01*
X137671147Y-99378951D01*
X137837297Y-99412000D01*
X138006703Y-99412000D01*
X138056788Y-99402038D01*
X138059039Y-99413353D01*
X138123868Y-99569863D01*
X138217985Y-99710718D01*
X138337772Y-99830505D01*
X138478627Y-99924622D01*
X138635137Y-99989451D01*
X138801287Y-100022500D01*
X138970693Y-100022500D01*
X139136843Y-99989451D01*
X139293353Y-99924622D01*
X139434208Y-99830505D01*
X139553995Y-99710718D01*
X139648112Y-99569863D01*
X139712941Y-99413353D01*
X139745990Y-99247203D01*
X139745990Y-99077797D01*
X139712941Y-98911647D01*
X139648112Y-98755137D01*
X139553995Y-98614282D01*
X139434208Y-98494495D01*
X139293353Y-98400378D01*
X139136843Y-98335549D01*
X138970693Y-98302500D01*
X138801287Y-98302500D01*
X138751202Y-98312462D01*
X138748951Y-98301147D01*
X138684122Y-98144637D01*
X138590005Y-98003782D01*
X138470218Y-97883995D01*
X138329363Y-97789878D01*
X138172853Y-97725049D01*
X138006703Y-97692000D01*
X137837297Y-97692000D01*
X137671147Y-97725049D01*
X137541000Y-97778958D01*
X137410853Y-97725049D01*
X137244703Y-97692000D01*
X137094448Y-97692000D01*
X137139226Y-97583898D01*
X137179000Y-97383939D01*
X137179000Y-97180061D01*
X137139226Y-96980102D01*
X137061205Y-96791744D01*
X136947937Y-96622226D01*
X136803774Y-96478063D01*
X136713975Y-96418061D01*
X143745000Y-96418061D01*
X143745000Y-96621939D01*
X143784774Y-96821898D01*
X143862795Y-97010256D01*
X143976063Y-97179774D01*
X144120226Y-97323937D01*
X144289744Y-97437205D01*
X144478102Y-97515226D01*
X144678061Y-97555000D01*
X144881939Y-97555000D01*
X145081898Y-97515226D01*
X145270256Y-97437205D01*
X145439774Y-97323937D01*
X145583937Y-97179774D01*
X145669000Y-97052468D01*
X145754063Y-97179774D01*
X145898226Y-97323937D01*
X146067744Y-97437205D01*
X146256102Y-97515226D01*
X146456061Y-97555000D01*
X146659939Y-97555000D01*
X146859898Y-97515226D01*
X147048256Y-97437205D01*
X147217774Y-97323937D01*
X147361937Y-97179774D01*
X147475205Y-97010256D01*
X147553226Y-96821898D01*
X147593000Y-96621939D01*
X147593000Y-96418061D01*
X147553226Y-96218102D01*
X147475205Y-96029744D01*
X147361937Y-95860226D01*
X147217774Y-95716063D01*
X147048256Y-95602795D01*
X146859898Y-95524774D01*
X146659939Y-95485000D01*
X146456061Y-95485000D01*
X146256102Y-95524774D01*
X146067744Y-95602795D01*
X145898226Y-95716063D01*
X145754063Y-95860226D01*
X145669000Y-95987532D01*
X145583937Y-95860226D01*
X145439774Y-95716063D01*
X145270256Y-95602795D01*
X145081898Y-95524774D01*
X144881939Y-95485000D01*
X144678061Y-95485000D01*
X144478102Y-95524774D01*
X144289744Y-95602795D01*
X144120226Y-95716063D01*
X143976063Y-95860226D01*
X143862795Y-96029744D01*
X143784774Y-96218102D01*
X143745000Y-96418061D01*
X136713975Y-96418061D01*
X136634256Y-96364795D01*
X136445898Y-96286774D01*
X136245939Y-96247000D01*
X136042061Y-96247000D01*
X135842102Y-96286774D01*
X135653744Y-96364795D01*
X135484226Y-96478063D01*
X135340063Y-96622226D01*
X135226795Y-96791744D01*
X135148774Y-96980102D01*
X135109000Y-97180061D01*
X133242000Y-97180061D01*
X133242000Y-97053061D01*
X133202226Y-96853102D01*
X133124205Y-96664744D01*
X133010937Y-96495226D01*
X132866774Y-96351063D01*
X132697256Y-96237795D01*
X132508898Y-96159774D01*
X132308939Y-96120000D01*
X132105061Y-96120000D01*
X131968634Y-96147137D01*
X131932226Y-95964102D01*
X131854205Y-95775744D01*
X131740937Y-95606226D01*
X131596774Y-95462063D01*
X131427256Y-95348795D01*
X131238898Y-95270774D01*
X131038939Y-95231000D01*
X130835061Y-95231000D01*
X130635102Y-95270774D01*
X130446744Y-95348795D01*
X130277226Y-95462063D01*
X130133063Y-95606226D01*
X130019795Y-95775744D01*
X129941774Y-95964102D01*
X129902000Y-96164061D01*
X128651000Y-96164061D01*
X128651000Y-95035835D01*
X133608000Y-95035835D01*
X133608000Y-95210165D01*
X133642010Y-95381145D01*
X133708723Y-95542205D01*
X133805576Y-95687155D01*
X133928845Y-95810424D01*
X134073795Y-95907277D01*
X134234855Y-95973990D01*
X134405835Y-96008000D01*
X134580165Y-96008000D01*
X134751145Y-95973990D01*
X134912205Y-95907277D01*
X135057155Y-95810424D01*
X135180424Y-95687155D01*
X135277277Y-95542205D01*
X135343990Y-95381145D01*
X135378000Y-95210165D01*
X135378000Y-95035835D01*
X135343990Y-94864855D01*
X135277277Y-94703795D01*
X135180424Y-94558845D01*
X135151876Y-94530297D01*
X136300000Y-94530297D01*
X136300000Y-94699703D01*
X136333049Y-94865853D01*
X136397878Y-95022363D01*
X136491995Y-95163218D01*
X136611782Y-95283005D01*
X136752637Y-95377122D01*
X136909147Y-95441951D01*
X137075297Y-95475000D01*
X137244703Y-95475000D01*
X137410853Y-95441951D01*
X137567363Y-95377122D01*
X137708218Y-95283005D01*
X137828005Y-95163218D01*
X137922122Y-95022363D01*
X137986951Y-94865853D01*
X138006726Y-94766437D01*
X138024226Y-94783937D01*
X138193744Y-94897205D01*
X138382102Y-94975226D01*
X138582061Y-95015000D01*
X138785939Y-95015000D01*
X138985898Y-94975226D01*
X139174256Y-94897205D01*
X139343774Y-94783937D01*
X139487937Y-94639774D01*
X139601205Y-94470256D01*
X139679226Y-94281898D01*
X139705601Y-94149297D01*
X142269000Y-94149297D01*
X142269000Y-94318703D01*
X142302049Y-94484853D01*
X142366878Y-94641363D01*
X142460995Y-94782218D01*
X142580782Y-94902005D01*
X142721637Y-94996122D01*
X142878147Y-95060951D01*
X143044297Y-95094000D01*
X143213703Y-95094000D01*
X143379853Y-95060951D01*
X143536363Y-94996122D01*
X143677218Y-94902005D01*
X143797005Y-94782218D01*
X143891122Y-94641363D01*
X143955951Y-94484853D01*
X143989000Y-94318703D01*
X143989000Y-94149297D01*
X143955951Y-93983147D01*
X143891122Y-93826637D01*
X143797005Y-93685782D01*
X143677218Y-93565995D01*
X143536363Y-93471878D01*
X143379853Y-93407049D01*
X143213703Y-93374000D01*
X143044297Y-93374000D01*
X142878147Y-93407049D01*
X142721637Y-93471878D01*
X142580782Y-93565995D01*
X142460995Y-93685782D01*
X142366878Y-93826637D01*
X142302049Y-93983147D01*
X142269000Y-94149297D01*
X139705601Y-94149297D01*
X139719000Y-94081939D01*
X139719000Y-93878061D01*
X139679226Y-93678102D01*
X139601205Y-93489744D01*
X139487937Y-93320226D01*
X139343774Y-93176063D01*
X139174256Y-93062795D01*
X139037859Y-93006297D01*
X144936000Y-93006297D01*
X144936000Y-93175703D01*
X144969049Y-93341853D01*
X145033878Y-93498363D01*
X145127995Y-93639218D01*
X145247782Y-93759005D01*
X145388637Y-93853122D01*
X145545147Y-93917951D01*
X145711297Y-93951000D01*
X145880703Y-93951000D01*
X146046853Y-93917951D01*
X146203363Y-93853122D01*
X146344218Y-93759005D01*
X146464005Y-93639218D01*
X146558122Y-93498363D01*
X146622951Y-93341853D01*
X146656000Y-93175703D01*
X146656000Y-93006297D01*
X146622951Y-92840147D01*
X146558122Y-92683637D01*
X146464005Y-92542782D01*
X146344218Y-92422995D01*
X146203363Y-92328878D01*
X146046853Y-92264049D01*
X145880703Y-92231000D01*
X145711297Y-92231000D01*
X145545147Y-92264049D01*
X145388637Y-92328878D01*
X145247782Y-92422995D01*
X145127995Y-92542782D01*
X145033878Y-92683637D01*
X144969049Y-92840147D01*
X144936000Y-93006297D01*
X139037859Y-93006297D01*
X138985898Y-92984774D01*
X138785939Y-92945000D01*
X138582061Y-92945000D01*
X138382102Y-92984774D01*
X138193744Y-93062795D01*
X138024226Y-93176063D01*
X137880063Y-93320226D01*
X137766795Y-93489744D01*
X137688774Y-93678102D01*
X137649000Y-93878061D01*
X137649000Y-93907427D01*
X137567363Y-93852878D01*
X137410853Y-93788049D01*
X137244703Y-93755000D01*
X137075297Y-93755000D01*
X136909147Y-93788049D01*
X136752637Y-93852878D01*
X136611782Y-93946995D01*
X136491995Y-94066782D01*
X136397878Y-94207637D01*
X136333049Y-94364147D01*
X136300000Y-94530297D01*
X135151876Y-94530297D01*
X135057155Y-94435576D01*
X134912205Y-94338723D01*
X134751145Y-94272010D01*
X134580165Y-94238000D01*
X134405835Y-94238000D01*
X134234855Y-94272010D01*
X134073795Y-94338723D01*
X133928845Y-94435576D01*
X133805576Y-94558845D01*
X133708723Y-94703795D01*
X133642010Y-94864855D01*
X133608000Y-95035835D01*
X128651000Y-95035835D01*
X128651000Y-89814000D01*
X132643104Y-89814000D01*
X132556815Y-89884815D01*
G37*
X132556815Y-89884815D02*
X132477463Y-89981506D01*
X132418498Y-90091820D01*
X132382188Y-90211518D01*
X132369928Y-90336000D01*
X132369928Y-92036000D01*
X132382188Y-92160482D01*
X132418498Y-92280180D01*
X132477463Y-92390494D01*
X132556815Y-92487185D01*
X132653506Y-92566537D01*
X132763820Y-92625502D01*
X132883518Y-92661812D01*
X133008000Y-92674072D01*
X134708000Y-92674072D01*
X134832482Y-92661812D01*
X134952180Y-92625502D01*
X135062494Y-92566537D01*
X135159185Y-92487185D01*
X135238537Y-92390494D01*
X135297502Y-92280180D01*
X135321966Y-92199534D01*
X135397731Y-92283588D01*
X135631080Y-92457641D01*
X135893901Y-92582825D01*
X136041110Y-92627476D01*
X136271000Y-92506155D01*
X136271000Y-91313000D01*
X136251000Y-91313000D01*
X136251000Y-91059000D01*
X136271000Y-91059000D01*
X136271000Y-91039000D01*
X136525000Y-91039000D01*
X136525000Y-91059000D01*
X136545000Y-91059000D01*
X136545000Y-91313000D01*
X136525000Y-91313000D01*
X136525000Y-92506155D01*
X136754890Y-92627476D01*
X136902099Y-92582825D01*
X137164920Y-92457641D01*
X137398269Y-92283588D01*
X137593178Y-92067355D01*
X137662805Y-91950466D01*
X137784525Y-92132632D01*
X137991368Y-92339475D01*
X138234589Y-92501990D01*
X138504842Y-92613932D01*
X138791740Y-92671000D01*
X139084260Y-92671000D01*
X139371158Y-92613932D01*
X139641411Y-92501990D01*
X139884632Y-92339475D01*
X140091475Y-92132632D01*
X140208000Y-91958240D01*
X140324525Y-92132632D01*
X140531368Y-92339475D01*
X140774589Y-92501990D01*
X141044842Y-92613932D01*
X141331740Y-92671000D01*
X141624260Y-92671000D01*
X141911158Y-92613932D01*
X142181411Y-92501990D01*
X142424632Y-92339475D01*
X142631475Y-92132632D01*
X142793990Y-91889411D01*
X142905932Y-91619158D01*
X142945400Y-91420740D01*
X153582000Y-91420740D01*
X153582000Y-91713260D01*
X153639068Y-92000158D01*
X153751010Y-92270411D01*
X153913525Y-92513632D01*
X154120368Y-92720475D01*
X154363589Y-92882990D01*
X154633842Y-92994932D01*
X154920740Y-93052000D01*
X155213260Y-93052000D01*
X155500158Y-92994932D01*
X155770411Y-92882990D01*
X156013632Y-92720475D01*
X156145487Y-92588620D01*
X156167498Y-92661180D01*
X156226463Y-92771494D01*
X156305815Y-92868185D01*
X156402506Y-92947537D01*
X156512820Y-93006502D01*
X156632518Y-93042812D01*
X156757000Y-93055072D01*
X158457000Y-93055072D01*
X158581482Y-93042812D01*
X158701180Y-93006502D01*
X158811494Y-92947537D01*
X158908185Y-92868185D01*
X158987537Y-92771494D01*
X159046502Y-92661180D01*
X159082812Y-92541482D01*
X159095072Y-92417000D01*
X159095072Y-90717000D01*
X159082812Y-90592518D01*
X159046502Y-90472820D01*
X158987537Y-90362506D01*
X158908185Y-90265815D01*
X158811494Y-90186463D01*
X158701180Y-90127498D01*
X158581482Y-90091188D01*
X158457000Y-90078928D01*
X156757000Y-90078928D01*
X156632518Y-90091188D01*
X156512820Y-90127498D01*
X156402506Y-90186463D01*
X156305815Y-90265815D01*
X156226463Y-90362506D01*
X156167498Y-90472820D01*
X156145487Y-90545380D01*
X156013632Y-90413525D01*
X155770411Y-90251010D01*
X155500158Y-90139068D01*
X155213260Y-90082000D01*
X154920740Y-90082000D01*
X154633842Y-90139068D01*
X154363589Y-90251010D01*
X154120368Y-90413525D01*
X153913525Y-90620368D01*
X153751010Y-90863589D01*
X153639068Y-91133842D01*
X153582000Y-91420740D01*
X142945400Y-91420740D01*
X142963000Y-91332260D01*
X142963000Y-91039740D01*
X142905932Y-90752842D01*
X142793990Y-90482589D01*
X142631475Y-90239368D01*
X142424632Y-90032525D01*
X142181411Y-89870010D01*
X142046190Y-89814000D01*
X162530490Y-89814000D01*
X162274330Y-89985161D01*
X161740161Y-90519330D01*
X161320467Y-91147446D01*
X161031377Y-91845372D01*
X160884000Y-92586285D01*
X160884000Y-93341715D01*
X161031377Y-94082628D01*
X161320467Y-94780554D01*
X161740161Y-95408670D01*
X162274330Y-95942839D01*
X162902446Y-96362533D01*
X163600372Y-96651623D01*
X164341285Y-96799000D01*
X165096715Y-96799000D01*
X165837628Y-96651623D01*
X166535554Y-96362533D01*
X167163670Y-95942839D01*
X167697839Y-95408670D01*
X167869000Y-95152509D01*
X167869001Y-115413492D01*
X167697839Y-115157330D01*
X167163670Y-114623161D01*
X166535554Y-114203467D01*
X165837628Y-113914377D01*
X165096715Y-113767000D01*
X164341285Y-113767000D01*
X163600372Y-113914377D01*
X162902446Y-114203467D01*
X162274330Y-114623161D01*
X161740161Y-115157330D01*
X161320467Y-115785446D01*
X161031377Y-116483372D01*
X160884000Y-117224285D01*
X160884000Y-117979715D01*
X161031377Y-118720628D01*
X161320467Y-119418554D01*
X161740161Y-120046670D01*
X162274330Y-120580839D01*
X162530490Y-120752000D01*
X151159770Y-120752000D01*
X151172502Y-120728180D01*
X151208812Y-120608482D01*
X151221072Y-120484000D01*
X151218000Y-119919750D01*
X151059250Y-119761000D01*
X149860000Y-119761000D01*
X149860000Y-119781000D01*
X149606000Y-119781000D01*
X149606000Y-119761000D01*
X149586000Y-119761000D01*
X149586000Y-119507000D01*
X149606000Y-119507000D01*
X149606000Y-118307750D01*
X149860000Y-118307750D01*
X149860000Y-119507000D01*
X151059250Y-119507000D01*
X151218000Y-119348250D01*
X151221072Y-118784000D01*
X151208812Y-118659518D01*
X151172502Y-118539820D01*
X151113537Y-118429506D01*
X151034185Y-118332815D01*
X150937494Y-118253463D01*
X150827180Y-118194498D01*
X150707482Y-118158188D01*
X150583000Y-118145928D01*
X150018750Y-118149000D01*
X149860000Y-118307750D01*
X149606000Y-118307750D01*
X149447250Y-118149000D01*
X148883000Y-118145928D01*
X148758518Y-118158188D01*
X148638820Y-118194498D01*
X148528506Y-118253463D01*
X148431815Y-118332815D01*
X148352463Y-118429506D01*
X148293498Y-118539820D01*
X148271487Y-118612380D01*
X148139632Y-118480525D01*
X147896411Y-118318010D01*
X147626158Y-118206068D01*
X147339260Y-118149000D01*
X147046740Y-118149000D01*
X146759842Y-118206068D01*
X146489589Y-118318010D01*
X146246368Y-118480525D01*
X146039525Y-118687368D01*
X145923000Y-118861760D01*
X145806475Y-118687368D01*
X145599632Y-118480525D01*
X145356411Y-118318010D01*
X145086158Y-118206068D01*
X144799260Y-118149000D01*
X144506740Y-118149000D01*
X144219842Y-118206068D01*
X143949589Y-118318010D01*
X143706368Y-118480525D01*
X143499525Y-118687368D01*
X143383000Y-118861760D01*
X143266475Y-118687368D01*
X143059632Y-118480525D01*
X142816411Y-118318010D01*
X142546158Y-118206068D01*
X142259260Y-118149000D01*
X141966740Y-118149000D01*
X141679842Y-118206068D01*
X141409589Y-118318010D01*
X141166368Y-118480525D01*
X140959525Y-118687368D01*
X140843000Y-118861760D01*
X140726475Y-118687368D01*
X140519632Y-118480525D01*
X140276411Y-118318010D01*
X140006158Y-118206068D01*
X139719260Y-118149000D01*
X139426740Y-118149000D01*
X139139842Y-118206068D01*
X138869589Y-118318010D01*
X138626368Y-118480525D01*
X138419525Y-118687368D01*
X138303000Y-118861760D01*
X138186475Y-118687368D01*
X137979632Y-118480525D01*
X137736411Y-118318010D01*
X137466158Y-118206068D01*
X137179260Y-118149000D01*
X137157832Y-118149000D01*
X137198205Y-118132277D01*
X137343155Y-118035424D01*
X137466424Y-117912155D01*
X137563277Y-117767205D01*
X137629990Y-117606145D01*
X137664000Y-117435165D01*
X137664000Y-117260835D01*
X137629990Y-117089855D01*
X137563277Y-116928795D01*
X137483735Y-116809753D01*
X137565774Y-116754937D01*
X137709937Y-116610774D01*
X137823205Y-116441256D01*
X137850940Y-116374297D01*
X151667000Y-116374297D01*
X151667000Y-116543703D01*
X151700049Y-116709853D01*
X151764878Y-116866363D01*
X151858995Y-117007218D01*
X151978782Y-117127005D01*
X152119637Y-117221122D01*
X152276147Y-117285951D01*
X152442297Y-117319000D01*
X152611703Y-117319000D01*
X152777853Y-117285951D01*
X152934363Y-117221122D01*
X153075218Y-117127005D01*
X153195005Y-117007218D01*
X153289122Y-116866363D01*
X153353951Y-116709853D01*
X153387000Y-116543703D01*
X153387000Y-116374297D01*
X153353951Y-116208147D01*
X153289122Y-116051637D01*
X153195005Y-115910782D01*
X153075218Y-115790995D01*
X152934363Y-115696878D01*
X152777853Y-115632049D01*
X152611703Y-115599000D01*
X152442297Y-115599000D01*
X152276147Y-115632049D01*
X152119637Y-115696878D01*
X151978782Y-115790995D01*
X151858995Y-115910782D01*
X151764878Y-116051637D01*
X151700049Y-116208147D01*
X151667000Y-116374297D01*
X137850940Y-116374297D01*
X137901226Y-116252898D01*
X137941000Y-116052939D01*
X137941000Y-115849061D01*
X137901226Y-115649102D01*
X137823205Y-115460744D01*
X137709937Y-115291226D01*
X137565774Y-115147063D01*
X137396256Y-115033795D01*
X137207898Y-114955774D01*
X137007939Y-114916000D01*
X136804061Y-114916000D01*
X136604102Y-114955774D01*
X136415744Y-115033795D01*
X136246226Y-115147063D01*
X136102063Y-115291226D01*
X135988795Y-115460744D01*
X135910774Y-115649102D01*
X135871000Y-115849061D01*
X135871000Y-116052939D01*
X135910774Y-116252898D01*
X135988795Y-116441256D01*
X136102063Y-116610774D01*
X136183355Y-116692066D01*
X136091576Y-116783845D01*
X135994723Y-116928795D01*
X135928010Y-117089855D01*
X135894000Y-117260835D01*
X135894000Y-117435165D01*
X135928010Y-117606145D01*
X135994723Y-117767205D01*
X136091576Y-117912155D01*
X136214845Y-118035424D01*
X136359795Y-118132277D01*
X136520855Y-118198990D01*
X136585761Y-118211901D01*
X136329589Y-118318010D01*
X136086368Y-118480525D01*
X135879525Y-118687368D01*
X135717010Y-118930589D01*
X135605068Y-119200842D01*
X135548000Y-119487740D01*
X135548000Y-119780260D01*
X135605068Y-120067158D01*
X135717010Y-120337411D01*
X135879525Y-120580632D01*
X136050893Y-120752000D01*
X128651000Y-120752000D01*
X128651000Y-115087061D01*
X133204000Y-115087061D01*
X133204000Y-115290939D01*
X133243774Y-115490898D01*
X133321795Y-115679256D01*
X133435063Y-115848774D01*
X133579226Y-115992937D01*
X133748744Y-116106205D01*
X133937102Y-116184226D01*
X134137061Y-116224000D01*
X134340939Y-116224000D01*
X134540898Y-116184226D01*
X134729256Y-116106205D01*
X134898774Y-115992937D01*
X135042937Y-115848774D01*
X135156205Y-115679256D01*
X135234226Y-115490898D01*
X135274000Y-115290939D01*
X135274000Y-115087061D01*
X135234226Y-114887102D01*
X135156205Y-114698744D01*
X135042937Y-114529226D01*
X134898774Y-114385063D01*
X134729256Y-114271795D01*
X134540898Y-114193774D01*
X134340939Y-114154000D01*
X134137061Y-114154000D01*
X133937102Y-114193774D01*
X133748744Y-114271795D01*
X133579226Y-114385063D01*
X133435063Y-114529226D01*
X133321795Y-114698744D01*
X133243774Y-114887102D01*
X133204000Y-115087061D01*
X128651000Y-115087061D01*
X128651000Y-114085835D01*
X130179000Y-114085835D01*
X130179000Y-114260165D01*
X130213010Y-114431145D01*
X130279723Y-114592205D01*
X130376576Y-114737155D01*
X130499845Y-114860424D01*
X130644795Y-114957277D01*
X130805855Y-115023990D01*
X130976835Y-115058000D01*
X131151165Y-115058000D01*
X131322145Y-115023990D01*
X131483205Y-114957277D01*
X131628155Y-114860424D01*
X131751424Y-114737155D01*
X131848277Y-114592205D01*
X131914990Y-114431145D01*
X131949000Y-114260165D01*
X131949000Y-114085835D01*
X131914990Y-113914855D01*
X131848277Y-113753795D01*
X131751424Y-113608845D01*
X131628155Y-113485576D01*
X131483205Y-113388723D01*
X131322145Y-113322010D01*
X131151165Y-113288000D01*
X130976835Y-113288000D01*
X130805855Y-113322010D01*
X130644795Y-113388723D01*
X130499845Y-113485576D01*
X130376576Y-113608845D01*
X130279723Y-113753795D01*
X130213010Y-113914855D01*
X130179000Y-114085835D01*
X128651000Y-114085835D01*
X128651000Y-112945297D01*
X140364000Y-112945297D01*
X140364000Y-113114703D01*
X140397049Y-113280853D01*
X140461878Y-113437363D01*
X140555995Y-113578218D01*
X140675782Y-113698005D01*
X140816637Y-113792122D01*
X140973147Y-113856951D01*
X141139297Y-113890000D01*
X141308703Y-113890000D01*
X141474853Y-113856951D01*
X141631363Y-113792122D01*
X141772218Y-113698005D01*
X141892005Y-113578218D01*
X141986122Y-113437363D01*
X142050951Y-113280853D01*
X142084000Y-113114703D01*
X142084000Y-112945297D01*
X142050951Y-112779147D01*
X141986122Y-112622637D01*
X141892005Y-112481782D01*
X141772218Y-112361995D01*
X141631363Y-112267878D01*
X141474853Y-112203049D01*
X141308703Y-112170000D01*
X141139297Y-112170000D01*
X140973147Y-112203049D01*
X140816637Y-112267878D01*
X140675782Y-112361995D01*
X140555995Y-112481782D01*
X140461878Y-112622637D01*
X140397049Y-112779147D01*
X140364000Y-112945297D01*
X128651000Y-112945297D01*
X128651000Y-112039061D01*
X143618000Y-112039061D01*
X143618000Y-112242939D01*
X143657774Y-112442898D01*
X143735795Y-112631256D01*
X143849063Y-112800774D01*
X143993226Y-112944937D01*
X144162744Y-113058205D01*
X144351102Y-113136226D01*
X144551061Y-113176000D01*
X144754939Y-113176000D01*
X144954898Y-113136226D01*
X145143256Y-113058205D01*
X145312774Y-112944937D01*
X145456937Y-112800774D01*
X145570205Y-112631256D01*
X145648226Y-112442898D01*
X145688000Y-112242939D01*
X145688000Y-112039061D01*
X145648226Y-111839102D01*
X145570205Y-111650744D01*
X145456937Y-111481226D01*
X145312774Y-111337063D01*
X145143256Y-111223795D01*
X144954898Y-111145774D01*
X144754939Y-111106000D01*
X144551061Y-111106000D01*
X144351102Y-111145774D01*
X144162744Y-111223795D01*
X143993226Y-111337063D01*
X143849063Y-111481226D01*
X143735795Y-111650744D01*
X143657774Y-111839102D01*
X143618000Y-112039061D01*
X128651000Y-112039061D01*
X128651000Y-109118061D01*
X128886000Y-109118061D01*
X128886000Y-109321939D01*
X128925774Y-109521898D01*
X129003795Y-109710256D01*
X129117063Y-109879774D01*
X129261226Y-110023937D01*
X129430744Y-110137205D01*
X129619102Y-110215226D01*
X129819061Y-110255000D01*
X130022939Y-110255000D01*
X130222898Y-110215226D01*
X130411256Y-110137205D01*
X130580774Y-110023937D01*
X130722914Y-109881797D01*
X135553500Y-109881797D01*
X135553500Y-110051203D01*
X135586549Y-110217353D01*
X135651378Y-110373863D01*
X135745495Y-110514718D01*
X135865282Y-110634505D01*
X136006137Y-110728622D01*
X136162647Y-110793451D01*
X136328797Y-110826500D01*
X136498203Y-110826500D01*
X136664353Y-110793451D01*
X136820863Y-110728622D01*
X136901527Y-110674723D01*
X137006137Y-110744622D01*
X137162647Y-110809451D01*
X137328797Y-110842500D01*
X137498203Y-110842500D01*
X137664353Y-110809451D01*
X137820863Y-110744622D01*
X137961718Y-110650505D01*
X138081505Y-110530718D01*
X138175622Y-110389863D01*
X138240451Y-110233353D01*
X138260201Y-110134061D01*
X140443000Y-110134061D01*
X140443000Y-110337939D01*
X140482774Y-110537898D01*
X140560795Y-110726256D01*
X140674063Y-110895774D01*
X140818226Y-111039937D01*
X140987744Y-111153205D01*
X141176102Y-111231226D01*
X141376061Y-111271000D01*
X141579939Y-111271000D01*
X141779898Y-111231226D01*
X141968256Y-111153205D01*
X142137774Y-111039937D01*
X142281937Y-110895774D01*
X142395205Y-110726256D01*
X142473226Y-110537898D01*
X142513000Y-110337939D01*
X142513000Y-110151297D01*
X151032000Y-110151297D01*
X151032000Y-110320703D01*
X151065049Y-110486853D01*
X151129878Y-110643363D01*
X151223995Y-110784218D01*
X151343782Y-110904005D01*
X151484637Y-110998122D01*
X151641147Y-111062951D01*
X151807297Y-111096000D01*
X151976703Y-111096000D01*
X152142853Y-111062951D01*
X152299363Y-110998122D01*
X152440218Y-110904005D01*
X152560005Y-110784218D01*
X152654122Y-110643363D01*
X152718951Y-110486853D01*
X152752000Y-110320703D01*
X152752000Y-110203000D01*
X157134764Y-110203000D01*
X157159652Y-110455688D01*
X157233358Y-110698665D01*
X157353051Y-110922595D01*
X157514130Y-111118870D01*
X157710405Y-111279949D01*
X157934335Y-111399642D01*
X158177312Y-111473348D01*
X158366686Y-111492000D01*
X159801314Y-111492000D01*
X159990688Y-111473348D01*
X160233665Y-111399642D01*
X160457595Y-111279949D01*
X160653870Y-111118870D01*
X160814949Y-110922595D01*
X160934642Y-110698665D01*
X161008348Y-110455688D01*
X161033236Y-110203000D01*
X161021256Y-110081363D01*
X162849000Y-110081363D01*
X162849000Y-110324637D01*
X162896460Y-110563236D01*
X162989557Y-110787992D01*
X163124713Y-110990267D01*
X163296733Y-111162287D01*
X163499008Y-111297443D01*
X163723764Y-111390540D01*
X163962363Y-111438000D01*
X164205637Y-111438000D01*
X164444236Y-111390540D01*
X164668992Y-111297443D01*
X164871267Y-111162287D01*
X165043287Y-110990267D01*
X165178443Y-110787992D01*
X165271540Y-110563236D01*
X165319000Y-110324637D01*
X165319000Y-110081363D01*
X165349000Y-110081363D01*
X165349000Y-110324637D01*
X165396460Y-110563236D01*
X165489557Y-110787992D01*
X165624713Y-110990267D01*
X165796733Y-111162287D01*
X165999008Y-111297443D01*
X166223764Y-111390540D01*
X166462363Y-111438000D01*
X166705637Y-111438000D01*
X166944236Y-111390540D01*
X167168992Y-111297443D01*
X167371267Y-111162287D01*
X167543287Y-110990267D01*
X167678443Y-110787992D01*
X167771540Y-110563236D01*
X167819000Y-110324637D01*
X167819000Y-110081363D01*
X167771540Y-109842764D01*
X167678443Y-109618008D01*
X167543287Y-109415733D01*
X167371267Y-109243713D01*
X167168992Y-109108557D01*
X166944236Y-109015460D01*
X166705637Y-108968000D01*
X166462363Y-108968000D01*
X166223764Y-109015460D01*
X165999008Y-109108557D01*
X165796733Y-109243713D01*
X165624713Y-109415733D01*
X165489557Y-109618008D01*
X165396460Y-109842764D01*
X165349000Y-110081363D01*
X165319000Y-110081363D01*
X165271540Y-109842764D01*
X165178443Y-109618008D01*
X165043287Y-109415733D01*
X164871267Y-109243713D01*
X164668992Y-109108557D01*
X164444236Y-109015460D01*
X164205637Y-108968000D01*
X163962363Y-108968000D01*
X163723764Y-109015460D01*
X163499008Y-109108557D01*
X163296733Y-109243713D01*
X163124713Y-109415733D01*
X162989557Y-109618008D01*
X162896460Y-109842764D01*
X162849000Y-110081363D01*
X161021256Y-110081363D01*
X161008348Y-109950312D01*
X160934642Y-109707335D01*
X160814949Y-109483405D01*
X160653870Y-109287130D01*
X160457595Y-109126051D01*
X160233665Y-109006358D01*
X159990688Y-108932652D01*
X159801314Y-108914000D01*
X158366686Y-108914000D01*
X158177312Y-108932652D01*
X157934335Y-109006358D01*
X157710405Y-109126051D01*
X157514130Y-109287130D01*
X157353051Y-109483405D01*
X157233358Y-109707335D01*
X157159652Y-109950312D01*
X157134764Y-110203000D01*
X152752000Y-110203000D01*
X152752000Y-110151297D01*
X152718951Y-109985147D01*
X152654122Y-109828637D01*
X152560005Y-109687782D01*
X152440218Y-109567995D01*
X152299363Y-109473878D01*
X152142853Y-109409049D01*
X151976703Y-109376000D01*
X151807297Y-109376000D01*
X151641147Y-109409049D01*
X151484637Y-109473878D01*
X151343782Y-109567995D01*
X151223995Y-109687782D01*
X151129878Y-109828637D01*
X151065049Y-109985147D01*
X151032000Y-110151297D01*
X142513000Y-110151297D01*
X142513000Y-110134061D01*
X142473226Y-109934102D01*
X142395205Y-109745744D01*
X142281937Y-109576226D01*
X142137774Y-109432063D01*
X141968256Y-109318795D01*
X141779898Y-109240774D01*
X141579939Y-109201000D01*
X141376061Y-109201000D01*
X141176102Y-109240774D01*
X140987744Y-109318795D01*
X140818226Y-109432063D01*
X140674063Y-109576226D01*
X140560795Y-109745744D01*
X140482774Y-109934102D01*
X140443000Y-110134061D01*
X138260201Y-110134061D01*
X138273500Y-110067203D01*
X138273500Y-109897797D01*
X138240451Y-109731647D01*
X138175622Y-109575137D01*
X138081505Y-109434282D01*
X137961718Y-109314495D01*
X137820863Y-109220378D01*
X137664353Y-109155549D01*
X137498203Y-109122500D01*
X137328797Y-109122500D01*
X137162647Y-109155549D01*
X137006137Y-109220378D01*
X136925473Y-109274277D01*
X136820863Y-109204378D01*
X136664353Y-109139549D01*
X136498203Y-109106500D01*
X136328797Y-109106500D01*
X136162647Y-109139549D01*
X136006137Y-109204378D01*
X135865282Y-109298495D01*
X135745495Y-109418282D01*
X135651378Y-109559137D01*
X135586549Y-109715647D01*
X135553500Y-109881797D01*
X130722914Y-109881797D01*
X130724937Y-109879774D01*
X130838205Y-109710256D01*
X130916226Y-109521898D01*
X130956000Y-109321939D01*
X130956000Y-109118061D01*
X130916226Y-108918102D01*
X130841236Y-108737061D01*
X146920000Y-108737061D01*
X146920000Y-108940939D01*
X146959774Y-109140898D01*
X147037795Y-109329256D01*
X147151063Y-109498774D01*
X147295226Y-109642937D01*
X147464744Y-109756205D01*
X147653102Y-109834226D01*
X147853061Y-109874000D01*
X148056939Y-109874000D01*
X148256898Y-109834226D01*
X148445256Y-109756205D01*
X148614774Y-109642937D01*
X148758937Y-109498774D01*
X148872205Y-109329256D01*
X148950226Y-109140898D01*
X148990000Y-108940939D01*
X148990000Y-108737061D01*
X148950226Y-108537102D01*
X148872205Y-108348744D01*
X148758937Y-108179226D01*
X148614774Y-108035063D01*
X148445256Y-107921795D01*
X148256898Y-107843774D01*
X148056939Y-107804000D01*
X147853061Y-107804000D01*
X147653102Y-107843774D01*
X147464744Y-107921795D01*
X147295226Y-108035063D01*
X147151063Y-108179226D01*
X147037795Y-108348744D01*
X146959774Y-108537102D01*
X146920000Y-108737061D01*
X130841236Y-108737061D01*
X130838205Y-108729744D01*
X130724937Y-108560226D01*
X130580774Y-108416063D01*
X130411256Y-108302795D01*
X130222898Y-108224774D01*
X130022939Y-108185000D01*
X129819061Y-108185000D01*
X129619102Y-108224774D01*
X129430744Y-108302795D01*
X129261226Y-108416063D01*
X129117063Y-108560226D01*
X129003795Y-108729744D01*
X128925774Y-108918102D01*
X128886000Y-109118061D01*
X128651000Y-109118061D01*
X128651000Y-106338835D01*
X128782000Y-106338835D01*
X128782000Y-106513165D01*
X128816010Y-106684145D01*
X128882723Y-106845205D01*
X128979576Y-106990155D01*
X129102845Y-107113424D01*
X129247795Y-107210277D01*
X129408855Y-107276990D01*
X129579835Y-107311000D01*
X129754165Y-107311000D01*
X129925145Y-107276990D01*
X130086205Y-107210277D01*
X130231155Y-107113424D01*
X130354424Y-106990155D01*
X130451277Y-106845205D01*
X130517990Y-106684145D01*
X130552000Y-106513165D01*
X130552000Y-106338835D01*
X130517990Y-106167855D01*
X130488228Y-106096001D01*
X131056834Y-106096001D01*
X131056834Y-106270331D01*
X131090844Y-106441311D01*
X131157557Y-106602371D01*
X131254410Y-106747321D01*
X131377679Y-106870590D01*
X131522629Y-106967443D01*
X131683689Y-107034156D01*
X131854669Y-107068166D01*
X132028999Y-107068166D01*
X132199979Y-107034156D01*
X132361039Y-106967443D01*
X132505989Y-106870590D01*
X132629258Y-106747321D01*
X132726111Y-106602371D01*
X132774514Y-106485514D01*
X132891371Y-106437111D01*
X132904339Y-106428446D01*
X132904049Y-106429147D01*
X132871000Y-106595297D01*
X132871000Y-106764703D01*
X132904049Y-106930853D01*
X132968878Y-107087363D01*
X133062995Y-107228218D01*
X133182782Y-107348005D01*
X133323637Y-107442122D01*
X133480147Y-107506951D01*
X133646297Y-107540000D01*
X133815703Y-107540000D01*
X133981853Y-107506951D01*
X134138363Y-107442122D01*
X134279218Y-107348005D01*
X134399005Y-107228218D01*
X134493122Y-107087363D01*
X134557951Y-106930853D01*
X134574173Y-106849297D01*
X138967000Y-106849297D01*
X138967000Y-107018703D01*
X139000049Y-107184853D01*
X139064878Y-107341363D01*
X139158995Y-107482218D01*
X139278782Y-107602005D01*
X139419637Y-107696122D01*
X139576147Y-107760951D01*
X139742297Y-107794000D01*
X139911703Y-107794000D01*
X140077853Y-107760951D01*
X140234363Y-107696122D01*
X140375218Y-107602005D01*
X140495005Y-107482218D01*
X140589122Y-107341363D01*
X140653951Y-107184853D01*
X140687000Y-107018703D01*
X140687000Y-106849297D01*
X140653951Y-106683147D01*
X140589122Y-106526637D01*
X140495005Y-106385782D01*
X140375218Y-106265995D01*
X140234363Y-106171878D01*
X140077853Y-106107049D01*
X139911703Y-106074000D01*
X139742297Y-106074000D01*
X139576147Y-106107049D01*
X139419637Y-106171878D01*
X139278782Y-106265995D01*
X139158995Y-106385782D01*
X139064878Y-106526637D01*
X139000049Y-106683147D01*
X138967000Y-106849297D01*
X134574173Y-106849297D01*
X134591000Y-106764703D01*
X134591000Y-106595297D01*
X134557951Y-106429147D01*
X134493122Y-106272637D01*
X134399005Y-106131782D01*
X134279218Y-106011995D01*
X134138363Y-105917878D01*
X133981853Y-105853049D01*
X133815703Y-105820000D01*
X133646297Y-105820000D01*
X133480147Y-105853049D01*
X133323637Y-105917878D01*
X133319021Y-105920963D01*
X133323156Y-105910979D01*
X133357166Y-105739999D01*
X133357166Y-105565669D01*
X133323156Y-105394689D01*
X133256443Y-105233629D01*
X133159590Y-105088679D01*
X133036321Y-104965410D01*
X132891371Y-104868557D01*
X132730311Y-104801844D01*
X132559331Y-104767834D01*
X132385001Y-104767834D01*
X132214021Y-104801844D01*
X132052961Y-104868557D01*
X131908011Y-104965410D01*
X131784742Y-105088679D01*
X131687889Y-105233629D01*
X131639486Y-105350486D01*
X131522629Y-105398889D01*
X131377679Y-105495742D01*
X131254410Y-105619011D01*
X131157557Y-105763961D01*
X131090844Y-105925021D01*
X131056834Y-106096001D01*
X130488228Y-106096001D01*
X130451277Y-106006795D01*
X130354424Y-105861845D01*
X130231155Y-105738576D01*
X130086205Y-105641723D01*
X129925145Y-105575010D01*
X129754165Y-105541000D01*
X129579835Y-105541000D01*
X129408855Y-105575010D01*
X129247795Y-105641723D01*
X129102845Y-105738576D01*
X128979576Y-105861845D01*
X128882723Y-106006795D01*
X128816010Y-106167855D01*
X128782000Y-106338835D01*
X128651000Y-106338835D01*
X128651000Y-103928297D01*
X129950000Y-103928297D01*
X129950000Y-104097703D01*
X129983049Y-104263853D01*
X130047878Y-104420363D01*
X130141995Y-104561218D01*
X130261782Y-104681005D01*
X130402637Y-104775122D01*
X130559147Y-104839951D01*
X130725297Y-104873000D01*
X130894703Y-104873000D01*
X131060853Y-104839951D01*
X131217363Y-104775122D01*
X131358218Y-104681005D01*
X131478005Y-104561218D01*
X131572122Y-104420363D01*
X131625266Y-104292061D01*
X137903000Y-104292061D01*
X137903000Y-104495939D01*
X137942774Y-104695898D01*
X138020795Y-104884256D01*
X138134063Y-105053774D01*
X138278226Y-105197937D01*
X138447744Y-105311205D01*
X138636102Y-105389226D01*
X138836061Y-105429000D01*
X139039939Y-105429000D01*
X139239898Y-105389226D01*
X139428256Y-105311205D01*
X139597774Y-105197937D01*
X139741937Y-105053774D01*
X139855205Y-104884256D01*
X139900460Y-104775000D01*
X142113000Y-104775000D01*
X142113000Y-105791000D01*
X142115440Y-105815776D01*
X142122667Y-105839601D01*
X142134403Y-105861557D01*
X142150197Y-105880803D01*
X142169443Y-105896597D01*
X142191399Y-105908333D01*
X142215224Y-105915560D01*
X142240000Y-105918000D01*
X143928413Y-105918000D01*
X143953049Y-106041853D01*
X144017878Y-106198363D01*
X144111995Y-106339218D01*
X144231782Y-106459005D01*
X144372637Y-106553122D01*
X144529147Y-106617951D01*
X144695297Y-106651000D01*
X144864703Y-106651000D01*
X145030853Y-106617951D01*
X145187363Y-106553122D01*
X145288000Y-106485878D01*
X145388637Y-106553122D01*
X145545147Y-106617951D01*
X145711297Y-106651000D01*
X145880703Y-106651000D01*
X145960181Y-106635191D01*
X146016995Y-106720218D01*
X146136782Y-106840005D01*
X146277637Y-106934122D01*
X146434147Y-106998951D01*
X146600297Y-107032000D01*
X146769703Y-107032000D01*
X146935853Y-106998951D01*
X147015578Y-106965928D01*
X147065878Y-107087363D01*
X147159995Y-107228218D01*
X147279782Y-107348005D01*
X147420637Y-107442122D01*
X147577147Y-107506951D01*
X147743297Y-107540000D01*
X147912703Y-107540000D01*
X148078853Y-107506951D01*
X148235363Y-107442122D01*
X148376218Y-107348005D01*
X148496005Y-107228218D01*
X148590000Y-107087546D01*
X148683995Y-107228218D01*
X148803782Y-107348005D01*
X148944637Y-107442122D01*
X149101147Y-107506951D01*
X149267297Y-107540000D01*
X149436703Y-107540000D01*
X149602853Y-107506951D01*
X149759363Y-107442122D01*
X149900218Y-107348005D01*
X150020005Y-107228218D01*
X150114122Y-107087363D01*
X150178951Y-106930853D01*
X150212000Y-106764703D01*
X150212000Y-106680000D01*
X150397000Y-106680000D01*
X150397000Y-106764703D01*
X150430049Y-106930853D01*
X150494878Y-107087363D01*
X150588995Y-107228218D01*
X150708782Y-107348005D01*
X150849637Y-107442122D01*
X151006147Y-107506951D01*
X151172297Y-107540000D01*
X151341703Y-107540000D01*
X151507853Y-107506951D01*
X151664363Y-107442122D01*
X151805218Y-107348005D01*
X151925005Y-107228218D01*
X152019122Y-107087363D01*
X152083951Y-106930853D01*
X152117000Y-106764703D01*
X152117000Y-106680000D01*
X152175000Y-106680000D01*
X152175000Y-106764703D01*
X152208049Y-106930853D01*
X152272878Y-107087363D01*
X152366995Y-107228218D01*
X152486782Y-107348005D01*
X152627637Y-107442122D01*
X152784147Y-107506951D01*
X152950297Y-107540000D01*
X153119703Y-107540000D01*
X153285853Y-107506951D01*
X153442363Y-107442122D01*
X153583218Y-107348005D01*
X153703005Y-107228218D01*
X153733500Y-107182579D01*
X153763995Y-107228218D01*
X153883782Y-107348005D01*
X154024637Y-107442122D01*
X154181147Y-107506951D01*
X154347297Y-107540000D01*
X154516703Y-107540000D01*
X154682853Y-107506951D01*
X154839363Y-107442122D01*
X154980218Y-107348005D01*
X155100005Y-107228218D01*
X155194122Y-107087363D01*
X155258951Y-106930853D01*
X155275173Y-106849297D01*
X156493000Y-106849297D01*
X156493000Y-107018703D01*
X156526049Y-107184853D01*
X156590878Y-107341363D01*
X156684995Y-107482218D01*
X156804782Y-107602005D01*
X156945637Y-107696122D01*
X157102147Y-107760951D01*
X157268297Y-107794000D01*
X157437703Y-107794000D01*
X157603853Y-107760951D01*
X157760363Y-107696122D01*
X157901218Y-107602005D01*
X158021005Y-107482218D01*
X158115122Y-107341363D01*
X158179951Y-107184853D01*
X158213000Y-107018703D01*
X158213000Y-106849297D01*
X158179951Y-106683147D01*
X158115122Y-106526637D01*
X158021005Y-106385782D01*
X157901218Y-106265995D01*
X157760363Y-106171878D01*
X157603853Y-106107049D01*
X157437703Y-106074000D01*
X157268297Y-106074000D01*
X157102147Y-106107049D01*
X156945637Y-106171878D01*
X156804782Y-106265995D01*
X156684995Y-106385782D01*
X156590878Y-106526637D01*
X156526049Y-106683147D01*
X156493000Y-106849297D01*
X155275173Y-106849297D01*
X155292000Y-106764703D01*
X155292000Y-106599784D01*
X155571237Y-106488089D01*
X155578147Y-106490951D01*
X155744297Y-106524000D01*
X155913703Y-106524000D01*
X156079853Y-106490951D01*
X156236363Y-106426122D01*
X156377218Y-106332005D01*
X156497005Y-106212218D01*
X156591122Y-106071363D01*
X156655951Y-105914853D01*
X156689000Y-105748703D01*
X156689000Y-105579297D01*
X156655951Y-105413147D01*
X156591122Y-105256637D01*
X156497005Y-105115782D01*
X156462586Y-105081363D01*
X157849000Y-105081363D01*
X157849000Y-105324637D01*
X157896460Y-105563236D01*
X157989557Y-105787992D01*
X158124713Y-105990267D01*
X158296733Y-106162287D01*
X158499008Y-106297443D01*
X158723764Y-106390540D01*
X158962363Y-106438000D01*
X159205637Y-106438000D01*
X159444236Y-106390540D01*
X159668992Y-106297443D01*
X159871267Y-106162287D01*
X160043287Y-105990267D01*
X160178443Y-105787992D01*
X160271540Y-105563236D01*
X160319000Y-105324637D01*
X160319000Y-105081363D01*
X160271540Y-104842764D01*
X160178443Y-104618008D01*
X160090029Y-104485686D01*
X162795000Y-104485686D01*
X162795000Y-105920313D01*
X162813652Y-106109687D01*
X162887358Y-106352664D01*
X163007051Y-106576594D01*
X163168130Y-106772870D01*
X163364405Y-106933949D01*
X163588335Y-107053642D01*
X163831312Y-107127348D01*
X164084000Y-107152236D01*
X164336687Y-107127348D01*
X164579664Y-107053642D01*
X164803594Y-106933949D01*
X164999870Y-106772870D01*
X165160949Y-106576595D01*
X165280642Y-106352665D01*
X165354348Y-106109688D01*
X165373000Y-105920314D01*
X165373000Y-104485686D01*
X165354348Y-104296312D01*
X165280642Y-104053335D01*
X165160949Y-103829405D01*
X164999870Y-103633130D01*
X164803595Y-103472051D01*
X164579665Y-103352358D01*
X164336688Y-103278652D01*
X164084000Y-103253764D01*
X163831313Y-103278652D01*
X163588336Y-103352358D01*
X163364406Y-103472051D01*
X163168131Y-103633130D01*
X163007052Y-103829405D01*
X162887358Y-104053335D01*
X162813652Y-104296312D01*
X162795000Y-104485686D01*
X160090029Y-104485686D01*
X160043287Y-104415733D01*
X159871267Y-104243713D01*
X159668992Y-104108557D01*
X159444236Y-104015460D01*
X159205637Y-103968000D01*
X158962363Y-103968000D01*
X158723764Y-104015460D01*
X158499008Y-104108557D01*
X158296733Y-104243713D01*
X158124713Y-104415733D01*
X157989557Y-104618008D01*
X157896460Y-104842764D01*
X157849000Y-105081363D01*
X156462586Y-105081363D01*
X156410223Y-105029000D01*
X156497005Y-104942218D01*
X156591122Y-104801363D01*
X156655951Y-104644853D01*
X156689000Y-104478703D01*
X156689000Y-104309297D01*
X156655951Y-104143147D01*
X156591122Y-103986637D01*
X156497005Y-103845782D01*
X156377218Y-103725995D01*
X156331579Y-103695500D01*
X156377218Y-103665005D01*
X156497005Y-103545218D01*
X156591122Y-103404363D01*
X156655951Y-103247853D01*
X156689000Y-103081703D01*
X156689000Y-102912297D01*
X156655951Y-102746147D01*
X156591122Y-102589637D01*
X156497005Y-102448782D01*
X156377218Y-102328995D01*
X156236363Y-102234878D01*
X156079853Y-102170049D01*
X155913703Y-102137000D01*
X155744297Y-102137000D01*
X155578147Y-102170049D01*
X155531014Y-102189572D01*
X155259969Y-101972736D01*
X155292000Y-101811703D01*
X155292000Y-101642297D01*
X155258951Y-101476147D01*
X155194122Y-101319637D01*
X155100005Y-101178782D01*
X154980218Y-101058995D01*
X154839363Y-100964878D01*
X154682853Y-100900049D01*
X154516703Y-100867000D01*
X154375000Y-100867000D01*
X154375000Y-100753297D01*
X154341951Y-100587147D01*
X154277122Y-100430637D01*
X154183005Y-100289782D01*
X154096223Y-100203000D01*
X157134764Y-100203000D01*
X157159652Y-100455688D01*
X157233358Y-100698665D01*
X157353051Y-100922595D01*
X157514130Y-101118870D01*
X157710405Y-101279949D01*
X157934335Y-101399642D01*
X158177312Y-101473348D01*
X158366686Y-101492000D01*
X159801314Y-101492000D01*
X159990688Y-101473348D01*
X160233665Y-101399642D01*
X160457595Y-101279949D01*
X160653870Y-101118870D01*
X160814949Y-100922595D01*
X160934642Y-100698665D01*
X161008348Y-100455688D01*
X161029312Y-100242835D01*
X161675000Y-100242835D01*
X161675000Y-100417165D01*
X161709010Y-100588145D01*
X161775723Y-100749205D01*
X161872576Y-100894155D01*
X161995845Y-101017424D01*
X162140795Y-101114277D01*
X162301855Y-101180990D01*
X162472835Y-101215000D01*
X162647165Y-101215000D01*
X162818145Y-101180990D01*
X162979205Y-101114277D01*
X163124155Y-101017424D01*
X163138013Y-101003567D01*
X163296733Y-101162287D01*
X163499008Y-101297443D01*
X163723764Y-101390540D01*
X163962363Y-101438000D01*
X164205637Y-101438000D01*
X164444236Y-101390540D01*
X164668992Y-101297443D01*
X164871267Y-101162287D01*
X165043287Y-100990267D01*
X165178443Y-100787992D01*
X165271540Y-100563236D01*
X165319000Y-100324637D01*
X165319000Y-100081363D01*
X165349000Y-100081363D01*
X165349000Y-100324637D01*
X165396460Y-100563236D01*
X165489557Y-100787992D01*
X165624713Y-100990267D01*
X165796733Y-101162287D01*
X165999008Y-101297443D01*
X166223764Y-101390540D01*
X166462363Y-101438000D01*
X166705637Y-101438000D01*
X166944236Y-101390540D01*
X167168992Y-101297443D01*
X167371267Y-101162287D01*
X167543287Y-100990267D01*
X167678443Y-100787992D01*
X167771540Y-100563236D01*
X167819000Y-100324637D01*
X167819000Y-100081363D01*
X167771540Y-99842764D01*
X167678443Y-99618008D01*
X167543287Y-99415733D01*
X167371267Y-99243713D01*
X167168992Y-99108557D01*
X166944236Y-99015460D01*
X166705637Y-98968000D01*
X166462363Y-98968000D01*
X166223764Y-99015460D01*
X165999008Y-99108557D01*
X165796733Y-99243713D01*
X165624713Y-99415733D01*
X165489557Y-99618008D01*
X165396460Y-99842764D01*
X165349000Y-100081363D01*
X165319000Y-100081363D01*
X165271540Y-99842764D01*
X165178443Y-99618008D01*
X165043287Y-99415733D01*
X164871267Y-99243713D01*
X164668992Y-99108557D01*
X164444236Y-99015460D01*
X164205637Y-98968000D01*
X163962363Y-98968000D01*
X163723764Y-99015460D01*
X163499008Y-99108557D01*
X163296733Y-99243713D01*
X163124713Y-99415733D01*
X163019753Y-99572816D01*
X162979205Y-99545723D01*
X162818145Y-99479010D01*
X162647165Y-99445000D01*
X162472835Y-99445000D01*
X162301855Y-99479010D01*
X162140795Y-99545723D01*
X161995845Y-99642576D01*
X161872576Y-99765845D01*
X161775723Y-99910795D01*
X161709010Y-100071855D01*
X161675000Y-100242835D01*
X161029312Y-100242835D01*
X161033236Y-100203000D01*
X161008348Y-99950312D01*
X160934642Y-99707335D01*
X160814949Y-99483405D01*
X160653870Y-99287130D01*
X160457595Y-99126051D01*
X160233665Y-99006358D01*
X159990688Y-98932652D01*
X159801314Y-98914000D01*
X158366686Y-98914000D01*
X158177312Y-98932652D01*
X157934335Y-99006358D01*
X157710405Y-99126051D01*
X157514130Y-99287130D01*
X157353051Y-99483405D01*
X157233358Y-99707335D01*
X157159652Y-99950312D01*
X157134764Y-100203000D01*
X154096223Y-100203000D01*
X154063218Y-100169995D01*
X153922363Y-100075878D01*
X153765853Y-100011049D01*
X153599703Y-99978000D01*
X153430297Y-99978000D01*
X153264147Y-100011049D01*
X153107637Y-100075878D01*
X152966782Y-100169995D01*
X152846995Y-100289782D01*
X152752878Y-100430637D01*
X152688049Y-100587147D01*
X152655000Y-100753297D01*
X152655000Y-100875612D01*
X152611703Y-100867000D01*
X152442297Y-100867000D01*
X152276147Y-100900049D01*
X152119637Y-100964878D01*
X151978782Y-101058995D01*
X151858995Y-101178782D01*
X151764878Y-101319637D01*
X151700049Y-101476147D01*
X151667000Y-101642297D01*
X151667000Y-101811703D01*
X151675413Y-101854000D01*
X151346587Y-101854000D01*
X151355000Y-101811703D01*
X151355000Y-101642297D01*
X151321951Y-101476147D01*
X151257122Y-101319637D01*
X151163005Y-101178782D01*
X151043218Y-101058995D01*
X150902363Y-100964878D01*
X150745853Y-100900049D01*
X150579703Y-100867000D01*
X150532711Y-100867000D01*
X150663937Y-100735774D01*
X150777205Y-100566256D01*
X150855226Y-100377898D01*
X150895000Y-100177939D01*
X150895000Y-99974061D01*
X150855226Y-99774102D01*
X150777205Y-99585744D01*
X150663937Y-99416226D01*
X150519774Y-99272063D01*
X150350256Y-99158795D01*
X150344721Y-99156502D01*
X150401005Y-99100218D01*
X150495122Y-98959363D01*
X150559951Y-98802853D01*
X150593000Y-98636703D01*
X150593000Y-98467297D01*
X150559951Y-98301147D01*
X150495122Y-98144637D01*
X150401005Y-98003782D01*
X150281218Y-97883995D01*
X150140363Y-97789878D01*
X149983853Y-97725049D01*
X149817703Y-97692000D01*
X149648297Y-97692000D01*
X149482147Y-97725049D01*
X149325637Y-97789878D01*
X149184782Y-97883995D01*
X149064995Y-98003782D01*
X148970878Y-98144637D01*
X148906049Y-98301147D01*
X148873000Y-98467297D01*
X148873000Y-98636703D01*
X148906049Y-98802853D01*
X148970878Y-98959363D01*
X149064995Y-99100218D01*
X149184782Y-99220005D01*
X149231459Y-99251194D01*
X149200226Y-99272063D01*
X149056063Y-99416226D01*
X148942795Y-99585744D01*
X148864774Y-99774102D01*
X148825000Y-99974061D01*
X148825000Y-100177939D01*
X148864774Y-100377898D01*
X148942795Y-100566256D01*
X149056063Y-100735774D01*
X149200226Y-100879937D01*
X149369744Y-100993205D01*
X149558102Y-101071226D01*
X149758061Y-101111000D01*
X149894777Y-101111000D01*
X149826995Y-101178782D01*
X149732878Y-101319637D01*
X149668049Y-101476147D01*
X149635000Y-101642297D01*
X149635000Y-101811703D01*
X149643413Y-101854000D01*
X149441587Y-101854000D01*
X149450000Y-101811703D01*
X149450000Y-101642297D01*
X149416951Y-101476147D01*
X149352122Y-101319637D01*
X149258005Y-101178782D01*
X149138218Y-101058995D01*
X148997363Y-100964878D01*
X148840853Y-100900049D01*
X148674703Y-100867000D01*
X148505297Y-100867000D01*
X148339147Y-100900049D01*
X148182637Y-100964878D01*
X148041782Y-101058995D01*
X147921995Y-101178782D01*
X147827878Y-101319637D01*
X147763049Y-101476147D01*
X147743567Y-101574092D01*
X147734005Y-101559782D01*
X147614218Y-101439995D01*
X147473363Y-101345878D01*
X147316853Y-101281049D01*
X147150703Y-101248000D01*
X147037000Y-101248000D01*
X147037000Y-101134297D01*
X147003951Y-100968147D01*
X146939122Y-100811637D01*
X146845005Y-100670782D01*
X146725218Y-100550995D01*
X146584363Y-100456878D01*
X146427853Y-100392049D01*
X146261703Y-100359000D01*
X146092297Y-100359000D01*
X145927258Y-100391828D01*
X145848424Y-100273845D01*
X145725155Y-100150576D01*
X145580205Y-100053723D01*
X145419145Y-99987010D01*
X145248165Y-99953000D01*
X145073835Y-99953000D01*
X144902855Y-99987010D01*
X144741795Y-100053723D01*
X144596845Y-100150576D01*
X144473576Y-100273845D01*
X144376723Y-100418795D01*
X144310010Y-100579855D01*
X144276000Y-100750835D01*
X144276000Y-100925165D01*
X144310010Y-101096145D01*
X144376723Y-101257205D01*
X144473576Y-101402155D01*
X144596845Y-101525424D01*
X144741795Y-101622277D01*
X144902855Y-101688990D01*
X145073835Y-101723000D01*
X145248165Y-101723000D01*
X145419145Y-101688990D01*
X145448578Y-101676798D01*
X145508995Y-101767218D01*
X145628782Y-101887005D01*
X145769637Y-101981122D01*
X145926147Y-102045951D01*
X146092297Y-102079000D01*
X146206000Y-102079000D01*
X146206000Y-102192703D01*
X146239049Y-102358853D01*
X146303878Y-102515363D01*
X146355311Y-102592338D01*
X146243647Y-102614549D01*
X146087137Y-102679378D01*
X146032661Y-102715778D01*
X146011990Y-102611855D01*
X145945277Y-102450795D01*
X145848424Y-102305845D01*
X145725155Y-102182576D01*
X145580205Y-102085723D01*
X145419145Y-102019010D01*
X145248165Y-101985000D01*
X145073835Y-101985000D01*
X144902855Y-102019010D01*
X144741795Y-102085723D01*
X144596845Y-102182576D01*
X144473576Y-102305845D01*
X144376723Y-102450795D01*
X144310010Y-102611855D01*
X144276000Y-102782835D01*
X144276000Y-102957165D01*
X144310010Y-103128145D01*
X144376723Y-103289205D01*
X144384245Y-103300463D01*
X144334049Y-103421647D01*
X144301000Y-103587797D01*
X144301000Y-103757203D01*
X144308842Y-103796629D01*
X144293403Y-103815443D01*
X144281667Y-103837399D01*
X144274440Y-103861224D01*
X144272000Y-103886000D01*
X144272000Y-104648000D01*
X142240000Y-104648000D01*
X142215224Y-104650440D01*
X142191399Y-104657667D01*
X142169443Y-104669403D01*
X142150197Y-104685197D01*
X142134403Y-104704443D01*
X142122667Y-104726399D01*
X142115440Y-104750224D01*
X142113000Y-104775000D01*
X139900460Y-104775000D01*
X139933226Y-104695898D01*
X139973000Y-104495939D01*
X139973000Y-104292061D01*
X139933226Y-104092102D01*
X139855205Y-103903744D01*
X139741937Y-103734226D01*
X139597774Y-103590063D01*
X139428256Y-103476795D01*
X139239898Y-103398774D01*
X139039939Y-103359000D01*
X138836061Y-103359000D01*
X138636102Y-103398774D01*
X138447744Y-103476795D01*
X138278226Y-103590063D01*
X138134063Y-103734226D01*
X138020795Y-103903744D01*
X137942774Y-104092102D01*
X137903000Y-104292061D01*
X131625266Y-104292061D01*
X131636951Y-104263853D01*
X131670000Y-104097703D01*
X131670000Y-103928297D01*
X131636951Y-103762147D01*
X131572122Y-103605637D01*
X131478005Y-103464782D01*
X131358218Y-103344995D01*
X131217363Y-103250878D01*
X131060853Y-103186049D01*
X130894703Y-103153000D01*
X130725297Y-103153000D01*
X130559147Y-103186049D01*
X130402637Y-103250878D01*
X130261782Y-103344995D01*
X130141995Y-103464782D01*
X130047878Y-103605637D01*
X129983049Y-103762147D01*
X129950000Y-103928297D01*
X128651000Y-103928297D01*
X128651000Y-101639835D01*
X136021000Y-101639835D01*
X136021000Y-101814165D01*
X136055010Y-101985145D01*
X136121723Y-102146205D01*
X136218576Y-102291155D01*
X136341845Y-102414424D01*
X136486795Y-102511277D01*
X136647855Y-102577990D01*
X136818835Y-102612000D01*
X136993165Y-102612000D01*
X137164145Y-102577990D01*
X137325205Y-102511277D01*
X137470155Y-102414424D01*
X137593424Y-102291155D01*
X137602683Y-102277297D01*
X138586000Y-102277297D01*
X138586000Y-102446703D01*
X138619049Y-102612853D01*
X138683878Y-102769363D01*
X138777995Y-102910218D01*
X138897782Y-103030005D01*
X139038637Y-103124122D01*
X139195147Y-103188951D01*
X139361297Y-103222000D01*
X139530703Y-103222000D01*
X139696853Y-103188951D01*
X139853363Y-103124122D01*
X139994218Y-103030005D01*
X140114005Y-102910218D01*
X140208122Y-102769363D01*
X140272951Y-102612853D01*
X140306000Y-102446703D01*
X140306000Y-102277297D01*
X140272951Y-102111147D01*
X140208122Y-101954637D01*
X140114005Y-101813782D01*
X140069520Y-101769297D01*
X140491000Y-101769297D01*
X140491000Y-101938703D01*
X140524049Y-102104853D01*
X140588878Y-102261363D01*
X140682995Y-102402218D01*
X140802782Y-102522005D01*
X140943637Y-102616122D01*
X141100147Y-102680951D01*
X141266297Y-102714000D01*
X141435703Y-102714000D01*
X141601853Y-102680951D01*
X141758363Y-102616122D01*
X141899218Y-102522005D01*
X142019005Y-102402218D01*
X142113122Y-102261363D01*
X142177951Y-102104853D01*
X142211000Y-101938703D01*
X142211000Y-101769297D01*
X142177951Y-101603147D01*
X142113122Y-101446637D01*
X142019005Y-101305782D01*
X141899218Y-101185995D01*
X141758363Y-101091878D01*
X141601853Y-101027049D01*
X141435703Y-100994000D01*
X141266297Y-100994000D01*
X141100147Y-101027049D01*
X140943637Y-101091878D01*
X140802782Y-101185995D01*
X140682995Y-101305782D01*
X140588878Y-101446637D01*
X140524049Y-101603147D01*
X140491000Y-101769297D01*
X140069520Y-101769297D01*
X139994218Y-101693995D01*
X139853363Y-101599878D01*
X139696853Y-101535049D01*
X139530703Y-101502000D01*
X139361297Y-101502000D01*
X139195147Y-101535049D01*
X139038637Y-101599878D01*
X138897782Y-101693995D01*
X138777995Y-101813782D01*
X138683878Y-101954637D01*
X138619049Y-102111147D01*
X138586000Y-102277297D01*
X137602683Y-102277297D01*
X137690277Y-102146205D01*
X137756990Y-101985145D01*
X137791000Y-101814165D01*
X137791000Y-101639835D01*
X137756990Y-101468855D01*
X137690277Y-101307795D01*
X137593424Y-101162845D01*
X137470155Y-101039576D01*
X137325205Y-100942723D01*
X137164145Y-100876010D01*
X136993165Y-100842000D01*
X136818835Y-100842000D01*
X136647855Y-100876010D01*
X136486795Y-100942723D01*
X136341845Y-101039576D01*
X136218576Y-101162845D01*
X136121723Y-101307795D01*
X136055010Y-101468855D01*
X136021000Y-101639835D01*
X128651000Y-101639835D01*
X128651000Y-98749459D01*
X128671774Y-98853898D01*
X128749795Y-99042256D01*
X128863063Y-99211774D01*
X129007226Y-99355937D01*
X129176744Y-99469205D01*
X129365102Y-99547226D01*
X129565061Y-99587000D01*
X129768939Y-99587000D01*
X129968898Y-99547226D01*
X130157256Y-99469205D01*
X130326774Y-99355937D01*
X130470937Y-99211774D01*
X130584205Y-99042256D01*
X130662226Y-98853898D01*
X130702000Y-98653939D01*
X130702000Y-98450061D01*
X130662226Y-98250102D01*
X130584205Y-98061744D01*
X130470937Y-97892226D01*
X130326774Y-97748063D01*
X130157256Y-97634795D01*
X129968898Y-97556774D01*
X129768939Y-97517000D01*
X129565061Y-97517000D01*
X129365102Y-97556774D01*
X129176744Y-97634795D01*
X129007226Y-97748063D01*
X128863063Y-97892226D01*
X128749795Y-98061744D01*
X128671774Y-98250102D01*
X128651000Y-98354541D01*
X128651000Y-96164061D01*
X129902000Y-96164061D01*
X129902000Y-96367939D01*
X129941774Y-96567898D01*
X130019795Y-96756256D01*
X130133063Y-96925774D01*
X130277226Y-97069937D01*
X130446744Y-97183205D01*
X130635102Y-97261226D01*
X130835061Y-97301000D01*
X131038939Y-97301000D01*
X131175366Y-97273863D01*
X131211774Y-97456898D01*
X131289795Y-97645256D01*
X131403063Y-97814774D01*
X131547226Y-97958937D01*
X131716744Y-98072205D01*
X131905102Y-98150226D01*
X132105061Y-98190000D01*
X132308939Y-98190000D01*
X132508898Y-98150226D01*
X132697256Y-98072205D01*
X132866774Y-97958937D01*
X133010937Y-97814774D01*
X133124205Y-97645256D01*
X133202226Y-97456898D01*
X133242000Y-97256939D01*
X133242000Y-97180061D01*
X135109000Y-97180061D01*
X135109000Y-97383939D01*
X135148774Y-97583898D01*
X135226795Y-97772256D01*
X135340063Y-97941774D01*
X135484226Y-98085937D01*
X135653744Y-98199205D01*
X135842102Y-98277226D01*
X136042061Y-98317000D01*
X136245939Y-98317000D01*
X136333714Y-98299541D01*
X136333049Y-98301147D01*
X136300000Y-98467297D01*
X136300000Y-98636703D01*
X136333049Y-98802853D01*
X136397878Y-98959363D01*
X136491995Y-99100218D01*
X136611782Y-99220005D01*
X136752637Y-99314122D01*
X136909147Y-99378951D01*
X137075297Y-99412000D01*
X137244703Y-99412000D01*
X137410853Y-99378951D01*
X137541000Y-99325042D01*
X137671147Y-99378951D01*
X137837297Y-99412000D01*
X138006703Y-99412000D01*
X138056788Y-99402038D01*
X138059039Y-99413353D01*
X138123868Y-99569863D01*
X138217985Y-99710718D01*
X138337772Y-99830505D01*
X138478627Y-99924622D01*
X138635137Y-99989451D01*
X138801287Y-100022500D01*
X138970693Y-100022500D01*
X139136843Y-99989451D01*
X139293353Y-99924622D01*
X139434208Y-99830505D01*
X139553995Y-99710718D01*
X139648112Y-99569863D01*
X139712941Y-99413353D01*
X139745990Y-99247203D01*
X139745990Y-99077797D01*
X139712941Y-98911647D01*
X139648112Y-98755137D01*
X139553995Y-98614282D01*
X139434208Y-98494495D01*
X139293353Y-98400378D01*
X139136843Y-98335549D01*
X138970693Y-98302500D01*
X138801287Y-98302500D01*
X138751202Y-98312462D01*
X138748951Y-98301147D01*
X138684122Y-98144637D01*
X138590005Y-98003782D01*
X138470218Y-97883995D01*
X138329363Y-97789878D01*
X138172853Y-97725049D01*
X138006703Y-97692000D01*
X137837297Y-97692000D01*
X137671147Y-97725049D01*
X137541000Y-97778958D01*
X137410853Y-97725049D01*
X137244703Y-97692000D01*
X137094448Y-97692000D01*
X137139226Y-97583898D01*
X137179000Y-97383939D01*
X137179000Y-97180061D01*
X137139226Y-96980102D01*
X137061205Y-96791744D01*
X136947937Y-96622226D01*
X136803774Y-96478063D01*
X136713975Y-96418061D01*
X143745000Y-96418061D01*
X143745000Y-96621939D01*
X143784774Y-96821898D01*
X143862795Y-97010256D01*
X143976063Y-97179774D01*
X144120226Y-97323937D01*
X144289744Y-97437205D01*
X144478102Y-97515226D01*
X144678061Y-97555000D01*
X144881939Y-97555000D01*
X145081898Y-97515226D01*
X145270256Y-97437205D01*
X145439774Y-97323937D01*
X145583937Y-97179774D01*
X145669000Y-97052468D01*
X145754063Y-97179774D01*
X145898226Y-97323937D01*
X146067744Y-97437205D01*
X146256102Y-97515226D01*
X146456061Y-97555000D01*
X146659939Y-97555000D01*
X146859898Y-97515226D01*
X147048256Y-97437205D01*
X147217774Y-97323937D01*
X147361937Y-97179774D01*
X147475205Y-97010256D01*
X147553226Y-96821898D01*
X147593000Y-96621939D01*
X147593000Y-96418061D01*
X147553226Y-96218102D01*
X147475205Y-96029744D01*
X147361937Y-95860226D01*
X147217774Y-95716063D01*
X147048256Y-95602795D01*
X146859898Y-95524774D01*
X146659939Y-95485000D01*
X146456061Y-95485000D01*
X146256102Y-95524774D01*
X146067744Y-95602795D01*
X145898226Y-95716063D01*
X145754063Y-95860226D01*
X145669000Y-95987532D01*
X145583937Y-95860226D01*
X145439774Y-95716063D01*
X145270256Y-95602795D01*
X145081898Y-95524774D01*
X144881939Y-95485000D01*
X144678061Y-95485000D01*
X144478102Y-95524774D01*
X144289744Y-95602795D01*
X144120226Y-95716063D01*
X143976063Y-95860226D01*
X143862795Y-96029744D01*
X143784774Y-96218102D01*
X143745000Y-96418061D01*
X136713975Y-96418061D01*
X136634256Y-96364795D01*
X136445898Y-96286774D01*
X136245939Y-96247000D01*
X136042061Y-96247000D01*
X135842102Y-96286774D01*
X135653744Y-96364795D01*
X135484226Y-96478063D01*
X135340063Y-96622226D01*
X135226795Y-96791744D01*
X135148774Y-96980102D01*
X135109000Y-97180061D01*
X133242000Y-97180061D01*
X133242000Y-97053061D01*
X133202226Y-96853102D01*
X133124205Y-96664744D01*
X133010937Y-96495226D01*
X132866774Y-96351063D01*
X132697256Y-96237795D01*
X132508898Y-96159774D01*
X132308939Y-96120000D01*
X132105061Y-96120000D01*
X131968634Y-96147137D01*
X131932226Y-95964102D01*
X131854205Y-95775744D01*
X131740937Y-95606226D01*
X131596774Y-95462063D01*
X131427256Y-95348795D01*
X131238898Y-95270774D01*
X131038939Y-95231000D01*
X130835061Y-95231000D01*
X130635102Y-95270774D01*
X130446744Y-95348795D01*
X130277226Y-95462063D01*
X130133063Y-95606226D01*
X130019795Y-95775744D01*
X129941774Y-95964102D01*
X129902000Y-96164061D01*
X128651000Y-96164061D01*
X128651000Y-95035835D01*
X133608000Y-95035835D01*
X133608000Y-95210165D01*
X133642010Y-95381145D01*
X133708723Y-95542205D01*
X133805576Y-95687155D01*
X133928845Y-95810424D01*
X134073795Y-95907277D01*
X134234855Y-95973990D01*
X134405835Y-96008000D01*
X134580165Y-96008000D01*
X134751145Y-95973990D01*
X134912205Y-95907277D01*
X135057155Y-95810424D01*
X135180424Y-95687155D01*
X135277277Y-95542205D01*
X135343990Y-95381145D01*
X135378000Y-95210165D01*
X135378000Y-95035835D01*
X135343990Y-94864855D01*
X135277277Y-94703795D01*
X135180424Y-94558845D01*
X135151876Y-94530297D01*
X136300000Y-94530297D01*
X136300000Y-94699703D01*
X136333049Y-94865853D01*
X136397878Y-95022363D01*
X136491995Y-95163218D01*
X136611782Y-95283005D01*
X136752637Y-95377122D01*
X136909147Y-95441951D01*
X137075297Y-95475000D01*
X137244703Y-95475000D01*
X137410853Y-95441951D01*
X137567363Y-95377122D01*
X137708218Y-95283005D01*
X137828005Y-95163218D01*
X137922122Y-95022363D01*
X137986951Y-94865853D01*
X138006726Y-94766437D01*
X138024226Y-94783937D01*
X138193744Y-94897205D01*
X138382102Y-94975226D01*
X138582061Y-95015000D01*
X138785939Y-95015000D01*
X138985898Y-94975226D01*
X139174256Y-94897205D01*
X139343774Y-94783937D01*
X139487937Y-94639774D01*
X139601205Y-94470256D01*
X139679226Y-94281898D01*
X139705601Y-94149297D01*
X142269000Y-94149297D01*
X142269000Y-94318703D01*
X142302049Y-94484853D01*
X142366878Y-94641363D01*
X142460995Y-94782218D01*
X142580782Y-94902005D01*
X142721637Y-94996122D01*
X142878147Y-95060951D01*
X143044297Y-95094000D01*
X143213703Y-95094000D01*
X143379853Y-95060951D01*
X143536363Y-94996122D01*
X143677218Y-94902005D01*
X143797005Y-94782218D01*
X143891122Y-94641363D01*
X143955951Y-94484853D01*
X143989000Y-94318703D01*
X143989000Y-94149297D01*
X143955951Y-93983147D01*
X143891122Y-93826637D01*
X143797005Y-93685782D01*
X143677218Y-93565995D01*
X143536363Y-93471878D01*
X143379853Y-93407049D01*
X143213703Y-93374000D01*
X143044297Y-93374000D01*
X142878147Y-93407049D01*
X142721637Y-93471878D01*
X142580782Y-93565995D01*
X142460995Y-93685782D01*
X142366878Y-93826637D01*
X142302049Y-93983147D01*
X142269000Y-94149297D01*
X139705601Y-94149297D01*
X139719000Y-94081939D01*
X139719000Y-93878061D01*
X139679226Y-93678102D01*
X139601205Y-93489744D01*
X139487937Y-93320226D01*
X139343774Y-93176063D01*
X139174256Y-93062795D01*
X139037859Y-93006297D01*
X144936000Y-93006297D01*
X144936000Y-93175703D01*
X144969049Y-93341853D01*
X145033878Y-93498363D01*
X145127995Y-93639218D01*
X145247782Y-93759005D01*
X145388637Y-93853122D01*
X145545147Y-93917951D01*
X145711297Y-93951000D01*
X145880703Y-93951000D01*
X146046853Y-93917951D01*
X146203363Y-93853122D01*
X146344218Y-93759005D01*
X146464005Y-93639218D01*
X146558122Y-93498363D01*
X146622951Y-93341853D01*
X146656000Y-93175703D01*
X146656000Y-93006297D01*
X146622951Y-92840147D01*
X146558122Y-92683637D01*
X146464005Y-92542782D01*
X146344218Y-92422995D01*
X146203363Y-92328878D01*
X146046853Y-92264049D01*
X145880703Y-92231000D01*
X145711297Y-92231000D01*
X145545147Y-92264049D01*
X145388637Y-92328878D01*
X145247782Y-92422995D01*
X145127995Y-92542782D01*
X145033878Y-92683637D01*
X144969049Y-92840147D01*
X144936000Y-93006297D01*
X139037859Y-93006297D01*
X138985898Y-92984774D01*
X138785939Y-92945000D01*
X138582061Y-92945000D01*
X138382102Y-92984774D01*
X138193744Y-93062795D01*
X138024226Y-93176063D01*
X137880063Y-93320226D01*
X137766795Y-93489744D01*
X137688774Y-93678102D01*
X137649000Y-93878061D01*
X137649000Y-93907427D01*
X137567363Y-93852878D01*
X137410853Y-93788049D01*
X137244703Y-93755000D01*
X137075297Y-93755000D01*
X136909147Y-93788049D01*
X136752637Y-93852878D01*
X136611782Y-93946995D01*
X136491995Y-94066782D01*
X136397878Y-94207637D01*
X136333049Y-94364147D01*
X136300000Y-94530297D01*
X135151876Y-94530297D01*
X135057155Y-94435576D01*
X134912205Y-94338723D01*
X134751145Y-94272010D01*
X134580165Y-94238000D01*
X134405835Y-94238000D01*
X134234855Y-94272010D01*
X134073795Y-94338723D01*
X133928845Y-94435576D01*
X133805576Y-94558845D01*
X133708723Y-94703795D01*
X133642010Y-94864855D01*
X133608000Y-95035835D01*
X128651000Y-95035835D01*
X128651000Y-89814000D01*
X132643104Y-89814000D01*
X132556815Y-89884815D01*
G04 #@! TD*
M02*
