%FSLAX45Y45*%
G04 Gerber Fmt 4.5, Leading zero omitted, Abs format (unit mm)*
G04 Created by KiCad (PCBNEW (5.1.6-0-10_14)) date 2021-10-17 11:27:43*
%MOMM*%
%LPD*%
G01*
G04 APERTURE LIST*
%TA.AperFunction,Profile*%
%ADD10C,0.050000*%
%TD*%
%ADD11C,0.200000*%
%ADD12C,0.300000*%
G04 APERTURE END LIST*
D10*
X11379200Y-8915400D02*
X16510000Y-8915400D01*
X11036300Y-11798300D02*
X11036300Y-9258300D01*
X16510000Y-12141200D02*
X11379200Y-12141200D01*
X16852900Y-9258300D02*
X16852900Y-11798300D01*
X16510000Y-8915400D02*
G75*
G02*
X16852900Y-9258300I0J-342900D01*
G01*
X11036300Y-9258300D02*
G75*
G02*
X11379200Y-8915400I342900J0D01*
G01*
X11379200Y-12141200D02*
G75*
G02*
X11036300Y-11798300I0J342900D01*
G01*
X16852900Y-11798300D02*
G75*
G02*
X16510000Y-12141200I-342900J0D01*
G01*
D11*
X15848400Y-10460300D02*
X15968400Y-10580300D01*
X15968400Y-10460300D02*
X15848400Y-10580300D01*
X16348400Y-9960300D02*
X16468400Y-10080300D01*
X16468400Y-9960300D02*
X16348400Y-10080300D01*
X16348400Y-10960300D02*
X16468400Y-11080300D01*
X16468400Y-10960300D02*
X16348400Y-11080300D01*
X16598400Y-9960300D02*
X16718400Y-10080300D01*
X16718400Y-9960300D02*
X16598400Y-10080300D01*
X16598400Y-10960300D02*
X16718400Y-11080300D01*
X16718400Y-10960300D02*
X16598400Y-11080300D01*
D12*
X11320228Y-12609414D02*
X11320228Y-12309414D01*
X11391657Y-12309414D01*
X11434514Y-12323700D01*
X11463086Y-12352271D01*
X11477371Y-12380843D01*
X11491657Y-12437986D01*
X11491657Y-12480843D01*
X11477371Y-12537986D01*
X11463086Y-12566557D01*
X11434514Y-12595129D01*
X11391657Y-12609414D01*
X11320228Y-12609414D01*
X11620228Y-12609414D02*
X11620228Y-12409414D01*
X11620228Y-12466557D02*
X11634514Y-12437986D01*
X11648800Y-12423700D01*
X11677371Y-12409414D01*
X11705943Y-12409414D01*
X11805943Y-12609414D02*
X11805943Y-12409414D01*
X11805943Y-12309414D02*
X11791657Y-12323700D01*
X11805943Y-12337986D01*
X11820228Y-12323700D01*
X11805943Y-12309414D01*
X11805943Y-12337986D01*
X11991657Y-12609414D02*
X11963086Y-12595129D01*
X11948800Y-12566557D01*
X11948800Y-12309414D01*
X12148800Y-12609414D02*
X12120228Y-12595129D01*
X12105943Y-12566557D01*
X12105943Y-12309414D01*
X12491657Y-12609414D02*
X12491657Y-12309414D01*
X12591657Y-12523700D01*
X12691657Y-12309414D01*
X12691657Y-12609414D01*
X12963086Y-12609414D02*
X12963086Y-12452271D01*
X12948800Y-12423700D01*
X12920228Y-12409414D01*
X12863086Y-12409414D01*
X12834514Y-12423700D01*
X12963086Y-12595129D02*
X12934514Y-12609414D01*
X12863086Y-12609414D01*
X12834514Y-12595129D01*
X12820228Y-12566557D01*
X12820228Y-12537986D01*
X12834514Y-12509414D01*
X12863086Y-12495129D01*
X12934514Y-12495129D01*
X12963086Y-12480843D01*
X13105943Y-12409414D02*
X13105943Y-12709414D01*
X13105943Y-12423700D02*
X13134514Y-12409414D01*
X13191657Y-12409414D01*
X13220228Y-12423700D01*
X13234514Y-12437986D01*
X13248800Y-12466557D01*
X13248800Y-12552271D01*
X13234514Y-12580843D01*
X13220228Y-12595129D01*
X13191657Y-12609414D01*
X13134514Y-12609414D01*
X13105943Y-12595129D01*
X13377371Y-12580843D02*
X13391657Y-12595129D01*
X13377371Y-12609414D01*
X13363086Y-12595129D01*
X13377371Y-12580843D01*
X13377371Y-12609414D01*
X13377371Y-12423700D02*
X13391657Y-12437986D01*
X13377371Y-12452271D01*
X13363086Y-12437986D01*
X13377371Y-12423700D01*
X13377371Y-12452271D01*
X10913800Y-13043700D02*
X11033800Y-13163700D01*
X11033800Y-13043700D02*
X10913800Y-13163700D01*
X11477371Y-13239414D02*
X11305943Y-13239414D01*
X11391657Y-13239414D02*
X11391657Y-12939414D01*
X11363086Y-12982271D01*
X11334514Y-13010843D01*
X11305943Y-13025129D01*
X11605943Y-13210843D02*
X11620228Y-13225129D01*
X11605943Y-13239414D01*
X11591657Y-13225129D01*
X11605943Y-13210843D01*
X11605943Y-13239414D01*
X11734514Y-12967986D02*
X11748800Y-12953700D01*
X11777371Y-12939414D01*
X11848800Y-12939414D01*
X11877371Y-12953700D01*
X11891657Y-12967986D01*
X11905943Y-12996557D01*
X11905943Y-13025129D01*
X11891657Y-13067986D01*
X11720228Y-13239414D01*
X11905943Y-13239414D01*
X12091657Y-12939414D02*
X12120228Y-12939414D01*
X12148800Y-12953700D01*
X12163086Y-12967986D01*
X12177371Y-12996557D01*
X12191657Y-13053700D01*
X12191657Y-13125129D01*
X12177371Y-13182271D01*
X12163086Y-13210843D01*
X12148800Y-13225129D01*
X12120228Y-13239414D01*
X12091657Y-13239414D01*
X12063086Y-13225129D01*
X12048800Y-13210843D01*
X12034514Y-13182271D01*
X12020228Y-13125129D01*
X12020228Y-13053700D01*
X12034514Y-12996557D01*
X12048800Y-12967986D01*
X12063086Y-12953700D01*
X12091657Y-12939414D01*
X12320228Y-13239414D02*
X12320228Y-13039414D01*
X12320228Y-13067986D02*
X12334514Y-13053700D01*
X12363086Y-13039414D01*
X12405943Y-13039414D01*
X12434514Y-13053700D01*
X12448800Y-13082271D01*
X12448800Y-13239414D01*
X12448800Y-13082271D02*
X12463086Y-13053700D01*
X12491657Y-13039414D01*
X12534514Y-13039414D01*
X12563086Y-13053700D01*
X12577371Y-13082271D01*
X12577371Y-13239414D01*
X12720228Y-13239414D02*
X12720228Y-13039414D01*
X12720228Y-13067986D02*
X12734514Y-13053700D01*
X12763086Y-13039414D01*
X12805943Y-13039414D01*
X12834514Y-13053700D01*
X12848800Y-13082271D01*
X12848800Y-13239414D01*
X12848800Y-13082271D02*
X12863086Y-13053700D01*
X12891657Y-13039414D01*
X12934514Y-13039414D01*
X12963086Y-13053700D01*
X12977371Y-13082271D01*
X12977371Y-13239414D01*
X13563086Y-12925129D02*
X13305943Y-13310843D01*
X13948800Y-12939414D02*
X13977371Y-12939414D01*
X14005943Y-12953700D01*
X14020228Y-12967986D01*
X14034514Y-12996557D01*
X14048800Y-13053700D01*
X14048800Y-13125129D01*
X14034514Y-13182271D01*
X14020228Y-13210843D01*
X14005943Y-13225129D01*
X13977371Y-13239414D01*
X13948800Y-13239414D01*
X13920228Y-13225129D01*
X13905943Y-13210843D01*
X13891657Y-13182271D01*
X13877371Y-13125129D01*
X13877371Y-13053700D01*
X13891657Y-12996557D01*
X13905943Y-12967986D01*
X13920228Y-12953700D01*
X13948800Y-12939414D01*
X14177371Y-13210843D02*
X14191657Y-13225129D01*
X14177371Y-13239414D01*
X14163086Y-13225129D01*
X14177371Y-13210843D01*
X14177371Y-13239414D01*
X14377371Y-12939414D02*
X14405943Y-12939414D01*
X14434514Y-12953700D01*
X14448800Y-12967986D01*
X14463086Y-12996557D01*
X14477371Y-13053700D01*
X14477371Y-13125129D01*
X14463086Y-13182271D01*
X14448800Y-13210843D01*
X14434514Y-13225129D01*
X14405943Y-13239414D01*
X14377371Y-13239414D01*
X14348800Y-13225129D01*
X14334514Y-13210843D01*
X14320228Y-13182271D01*
X14305943Y-13125129D01*
X14305943Y-13053700D01*
X14320228Y-12996557D01*
X14334514Y-12967986D01*
X14348800Y-12953700D01*
X14377371Y-12939414D01*
X14734514Y-13039414D02*
X14734514Y-13239414D01*
X14663086Y-12925129D02*
X14591657Y-13139414D01*
X14777371Y-13139414D01*
X14863086Y-12939414D02*
X15063086Y-12939414D01*
X14934514Y-13239414D01*
X15163086Y-12939414D02*
X15163086Y-12996557D01*
X15277371Y-12939414D02*
X15277371Y-12996557D01*
X15720228Y-13353700D02*
X15705943Y-13339414D01*
X15677371Y-13296557D01*
X15663086Y-13267986D01*
X15648800Y-13225129D01*
X15634514Y-13153700D01*
X15634514Y-13096557D01*
X15648800Y-13025129D01*
X15663086Y-12982271D01*
X15677371Y-12953700D01*
X15705943Y-12910843D01*
X15720228Y-12896557D01*
X15977371Y-12939414D02*
X15834514Y-12939414D01*
X15820228Y-13082271D01*
X15834514Y-13067986D01*
X15863086Y-13053700D01*
X15934514Y-13053700D01*
X15963086Y-13067986D01*
X15977371Y-13082271D01*
X15991657Y-13110843D01*
X15991657Y-13182271D01*
X15977371Y-13210843D01*
X15963086Y-13225129D01*
X15934514Y-13239414D01*
X15863086Y-13239414D01*
X15834514Y-13225129D01*
X15820228Y-13210843D01*
X16348800Y-13239414D02*
X16348800Y-12939414D01*
X16477371Y-13239414D02*
X16477371Y-13082271D01*
X16463086Y-13053700D01*
X16434514Y-13039414D01*
X16391657Y-13039414D01*
X16363086Y-13053700D01*
X16348800Y-13067986D01*
X16663086Y-13239414D02*
X16634514Y-13225129D01*
X16620228Y-13210843D01*
X16605943Y-13182271D01*
X16605943Y-13096557D01*
X16620228Y-13067986D01*
X16634514Y-13053700D01*
X16663086Y-13039414D01*
X16705943Y-13039414D01*
X16734514Y-13053700D01*
X16748800Y-13067986D01*
X16763086Y-13096557D01*
X16763086Y-13182271D01*
X16748800Y-13210843D01*
X16734514Y-13225129D01*
X16705943Y-13239414D01*
X16663086Y-13239414D01*
X16934514Y-13239414D02*
X16905943Y-13225129D01*
X16891657Y-13196557D01*
X16891657Y-12939414D01*
X17163086Y-13225129D02*
X17134514Y-13239414D01*
X17077371Y-13239414D01*
X17048800Y-13225129D01*
X17034514Y-13196557D01*
X17034514Y-13082271D01*
X17048800Y-13053700D01*
X17077371Y-13039414D01*
X17134514Y-13039414D01*
X17163086Y-13053700D01*
X17177371Y-13082271D01*
X17177371Y-13110843D01*
X17034514Y-13139414D01*
X17291657Y-13225129D02*
X17320228Y-13239414D01*
X17377371Y-13239414D01*
X17405943Y-13225129D01*
X17420228Y-13196557D01*
X17420228Y-13182271D01*
X17405943Y-13153700D01*
X17377371Y-13139414D01*
X17334514Y-13139414D01*
X17305943Y-13125129D01*
X17291657Y-13096557D01*
X17291657Y-13082271D01*
X17305943Y-13053700D01*
X17334514Y-13039414D01*
X17377371Y-13039414D01*
X17405943Y-13053700D01*
X17520228Y-13353700D02*
X17534514Y-13339414D01*
X17563086Y-13296557D01*
X17577371Y-13267986D01*
X17591657Y-13225129D01*
X17605943Y-13153700D01*
X17605943Y-13096557D01*
X17591657Y-13025129D01*
X17577371Y-12982271D01*
X17563086Y-12953700D01*
X17534514Y-12910843D01*
X17520228Y-12896557D01*
X18063086Y-13353700D02*
X18048800Y-13339414D01*
X18020228Y-13296557D01*
X18005943Y-13267986D01*
X17991657Y-13225129D01*
X17977371Y-13153700D01*
X17977371Y-13096557D01*
X17991657Y-13025129D01*
X18005943Y-12982271D01*
X18020228Y-12953700D01*
X18048800Y-12910843D01*
X18063086Y-12896557D01*
X18177371Y-13039414D02*
X18177371Y-13239414D01*
X18177371Y-13067986D02*
X18191657Y-13053700D01*
X18220228Y-13039414D01*
X18263086Y-13039414D01*
X18291657Y-13053700D01*
X18305943Y-13082271D01*
X18305943Y-13239414D01*
X18491657Y-13239414D02*
X18463086Y-13225129D01*
X18448800Y-13210843D01*
X18434514Y-13182271D01*
X18434514Y-13096557D01*
X18448800Y-13067986D01*
X18463086Y-13053700D01*
X18491657Y-13039414D01*
X18534514Y-13039414D01*
X18563086Y-13053700D01*
X18577371Y-13067986D01*
X18591657Y-13096557D01*
X18591657Y-13182271D01*
X18577371Y-13210843D01*
X18563086Y-13225129D01*
X18534514Y-13239414D01*
X18491657Y-13239414D01*
X18677371Y-13039414D02*
X18791657Y-13039414D01*
X18720228Y-12939414D02*
X18720228Y-13196557D01*
X18734514Y-13225129D01*
X18763086Y-13239414D01*
X18791657Y-13239414D01*
X19120228Y-13039414D02*
X19120228Y-13339414D01*
X19120228Y-13053700D02*
X19148800Y-13039414D01*
X19205943Y-13039414D01*
X19234514Y-13053700D01*
X19248800Y-13067986D01*
X19263086Y-13096557D01*
X19263086Y-13182271D01*
X19248800Y-13210843D01*
X19234514Y-13225129D01*
X19205943Y-13239414D01*
X19148800Y-13239414D01*
X19120228Y-13225129D01*
X19434514Y-13239414D02*
X19405943Y-13225129D01*
X19391657Y-13196557D01*
X19391657Y-12939414D01*
X19677371Y-13239414D02*
X19677371Y-13082271D01*
X19663086Y-13053700D01*
X19634514Y-13039414D01*
X19577371Y-13039414D01*
X19548800Y-13053700D01*
X19677371Y-13225129D02*
X19648800Y-13239414D01*
X19577371Y-13239414D01*
X19548800Y-13225129D01*
X19534514Y-13196557D01*
X19534514Y-13167986D01*
X19548800Y-13139414D01*
X19577371Y-13125129D01*
X19648800Y-13125129D01*
X19677371Y-13110843D01*
X19777371Y-13039414D02*
X19891657Y-13039414D01*
X19820228Y-12939414D02*
X19820228Y-13196557D01*
X19834514Y-13225129D01*
X19863086Y-13239414D01*
X19891657Y-13239414D01*
X20105943Y-13225129D02*
X20077371Y-13239414D01*
X20020228Y-13239414D01*
X19991657Y-13225129D01*
X19977371Y-13196557D01*
X19977371Y-13082271D01*
X19991657Y-13053700D01*
X20020228Y-13039414D01*
X20077371Y-13039414D01*
X20105943Y-13053700D01*
X20120228Y-13082271D01*
X20120228Y-13110843D01*
X19977371Y-13139414D01*
X20377371Y-13239414D02*
X20377371Y-12939414D01*
X20377371Y-13225129D02*
X20348800Y-13239414D01*
X20291657Y-13239414D01*
X20263086Y-13225129D01*
X20248800Y-13210843D01*
X20234514Y-13182271D01*
X20234514Y-13096557D01*
X20248800Y-13067986D01*
X20263086Y-13053700D01*
X20291657Y-13039414D01*
X20348800Y-13039414D01*
X20377371Y-13053700D01*
X20491657Y-13353700D02*
X20505943Y-13339414D01*
X20534514Y-13296557D01*
X20548800Y-13267986D01*
X20563086Y-13225129D01*
X20577371Y-13153700D01*
X20577371Y-13096557D01*
X20563086Y-13025129D01*
X20548800Y-12982271D01*
X20534514Y-12953700D01*
X20505943Y-12910843D01*
X20491657Y-12896557D01*
M02*
