G04 #@! TF.GenerationSoftware,KiCad,Pcbnew,(5.1.6-0-10_14)*
G04 #@! TF.CreationDate,2021-10-17T11:27:40-07:00*
G04 #@! TF.ProjectId,TimTime,54696d54-696d-4652-9e6b-696361645f70,rev?*
G04 #@! TF.SameCoordinates,Original*
G04 #@! TF.FileFunction,Copper,L4,Bot*
G04 #@! TF.FilePolarity,Positive*
%FSLAX46Y46*%
G04 Gerber Fmt 4.6, Leading zero omitted, Abs format (unit mm)*
G04 Created by KiCad (PCBNEW (5.1.6-0-10_14)) date 2021-10-17 11:27:40*
%MOMM*%
%LPD*%
G01*
G04 APERTURE LIST*
G04 #@! TA.AperFunction,ComponentPad*
%ADD10O,1.308000X2.616000*%
G04 #@! TD*
G04 #@! TA.AperFunction,ComponentPad*
%ADD11O,2.616000X1.308000*%
G04 #@! TD*
G04 #@! TA.AperFunction,ComponentPad*
%ADD12C,0.650000*%
G04 #@! TD*
G04 #@! TA.AperFunction,ComponentPad*
%ADD13O,2.216000X1.108000*%
G04 #@! TD*
G04 #@! TA.AperFunction,ComponentPad*
%ADD14R,1.700000X1.700000*%
G04 #@! TD*
G04 #@! TA.AperFunction,ComponentPad*
%ADD15O,1.700000X1.700000*%
G04 #@! TD*
G04 #@! TA.AperFunction,ComponentPad*
%ADD16C,6.400000*%
G04 #@! TD*
G04 #@! TA.AperFunction,ComponentPad*
%ADD17C,0.800000*%
G04 #@! TD*
G04 #@! TA.AperFunction,ViaPad*
%ADD18C,0.800000*%
G04 #@! TD*
G04 #@! TA.AperFunction,ViaPad*
%ADD19C,0.450000*%
G04 #@! TD*
G04 #@! TA.AperFunction,ViaPad*
%ADD20C,0.500000*%
G04 #@! TD*
G04 #@! TA.AperFunction,Conductor*
%ADD21C,0.500000*%
G04 #@! TD*
G04 #@! TA.AperFunction,Conductor*
%ADD22C,0.200000*%
G04 #@! TD*
G04 #@! TA.AperFunction,Conductor*
%ADD23C,0.300000*%
G04 #@! TD*
G04 #@! TA.AperFunction,Conductor*
%ADD24C,0.250000*%
G04 #@! TD*
G04 APERTURE END LIST*
D10*
G04 #@! TO.P,J2,1*
G04 #@! TO.N,GND*
X164084000Y-105203000D03*
D11*
G04 #@! TO.P,J2,2*
G04 #@! TO.N,Net-(J2-Pad2)*
X159084000Y-110203000D03*
G04 #@! TO.P,J2,3*
G04 #@! TO.N,Net-(J2-Pad3)*
X159084000Y-100203000D03*
G04 #@! TD*
D12*
G04 #@! TO.P,J1,A1*
G04 #@! TO.N,GND*
X116412000Y-108458000D03*
G04 #@! TO.P,J1,A4*
G04 #@! TO.N,VBUS*
X116412000Y-107608000D03*
G04 #@! TO.P,J1,A5*
G04 #@! TO.N,CC1*
X116412000Y-106758000D03*
G04 #@! TO.P,J1,A6*
G04 #@! TO.N,USB_D+*
X116412000Y-105908000D03*
G04 #@! TO.P,J1,A7*
G04 #@! TO.N,USB_D-*
X116412000Y-105058000D03*
G04 #@! TO.P,J1,A8*
G04 #@! TO.N,Net-(J1-PadA8)*
X116412000Y-104208000D03*
G04 #@! TO.P,J1,A9*
G04 #@! TO.N,VBUS*
X116412000Y-103358000D03*
G04 #@! TO.P,J1,A12*
G04 #@! TO.N,GND*
X116412000Y-102508000D03*
G04 #@! TO.P,J1,B1*
X115062000Y-102508000D03*
G04 #@! TO.P,J1,B4*
G04 #@! TO.N,VBUS*
X115062000Y-103358000D03*
G04 #@! TO.P,J1,B5*
G04 #@! TO.N,CC2*
X115062000Y-104208000D03*
G04 #@! TO.P,J1,B6*
G04 #@! TO.N,USB_D+*
X115062000Y-105058000D03*
G04 #@! TO.P,J1,B7*
G04 #@! TO.N,USB_D-*
X115062000Y-105908000D03*
G04 #@! TO.P,J1,B8*
G04 #@! TO.N,Net-(J1-PadB8)*
X115062000Y-106758000D03*
G04 #@! TO.P,J1,B9*
G04 #@! TO.N,VBUS*
X115062000Y-107608000D03*
G04 #@! TO.P,J1,B12*
G04 #@! TO.N,GND*
X115062000Y-108458000D03*
D13*
G04 #@! TO.P,J1,P1*
G04 #@! TO.N,Net-(J1-PadP1)*
X115432000Y-109808000D03*
G04 #@! TO.P,J1,P2*
X115432000Y-101158000D03*
G04 #@! TO.P,J1,P3*
X112052000Y-101158000D03*
G04 #@! TO.P,J1,P4*
X112052000Y-109808000D03*
G04 #@! TD*
D14*
G04 #@! TO.P,J3,1*
G04 #@! TO.N,GND*
X133858000Y-91186000D03*
D15*
G04 #@! TO.P,J3,2*
G04 #@! TO.N,+2V8*
X136398000Y-91186000D03*
G04 #@! TO.P,J3,3*
G04 #@! TO.N,MON_SCL*
X138938000Y-91186000D03*
G04 #@! TO.P,J3,4*
G04 #@! TO.N,MON_SDA*
X141478000Y-91186000D03*
G04 #@! TD*
D14*
G04 #@! TO.P,J4,1*
G04 #@! TO.N,+2V8*
X149733000Y-119634000D03*
D15*
G04 #@! TO.P,J4,2*
G04 #@! TO.N,SWCLK*
X147193000Y-119634000D03*
G04 #@! TO.P,J4,3*
G04 #@! TO.N,GND*
X144653000Y-119634000D03*
G04 #@! TO.P,J4,4*
G04 #@! TO.N,SWDIO*
X142113000Y-119634000D03*
G04 #@! TO.P,J4,5*
G04 #@! TO.N,NRST*
X139573000Y-119634000D03*
G04 #@! TO.P,J4,6*
G04 #@! TO.N,SWO*
X137033000Y-119634000D03*
G04 #@! TD*
D14*
G04 #@! TO.P,J5,1*
G04 #@! TO.N,GND*
X119634000Y-96393000D03*
D15*
G04 #@! TO.P,J5,2*
G04 #@! TO.N,+BATT*
X119634000Y-93853000D03*
G04 #@! TD*
G04 #@! TO.P,J6,2*
G04 #@! TO.N,OSC*
X155067000Y-91567000D03*
D14*
G04 #@! TO.P,J6,1*
G04 #@! TO.N,GND*
X157607000Y-91567000D03*
G04 #@! TD*
D16*
G04 #@! TO.P,H1,1*
G04 #@! TO.N,GND*
X114173000Y-92964000D03*
D17*
X116573000Y-92964000D03*
X115870056Y-94661056D03*
X114173000Y-95364000D03*
X112475944Y-94661056D03*
X111773000Y-92964000D03*
X112475944Y-91266944D03*
X114173000Y-90564000D03*
X115870056Y-91266944D03*
G04 #@! TD*
G04 #@! TO.P,H2,1*
G04 #@! TO.N,GND*
X166416056Y-91266944D03*
X164719000Y-90564000D03*
X163021944Y-91266944D03*
X162319000Y-92964000D03*
X163021944Y-94661056D03*
X164719000Y-95364000D03*
X166416056Y-94661056D03*
X167119000Y-92964000D03*
D16*
X164719000Y-92964000D03*
G04 #@! TD*
G04 #@! TO.P,H3,1*
G04 #@! TO.N,GND*
X164719000Y-117602000D03*
D17*
X167119000Y-117602000D03*
X166416056Y-119299056D03*
X164719000Y-120002000D03*
X163021944Y-119299056D03*
X162319000Y-117602000D03*
X163021944Y-115904944D03*
X164719000Y-115202000D03*
X166416056Y-115904944D03*
G04 #@! TD*
G04 #@! TO.P,H4,1*
G04 #@! TO.N,GND*
X115870056Y-115904944D03*
X114173000Y-115202000D03*
X112475944Y-115904944D03*
X111773000Y-117602000D03*
X112475944Y-119299056D03*
X114173000Y-120002000D03*
X115870056Y-119299056D03*
X116573000Y-117602000D03*
D16*
X114173000Y-117602000D03*
G04 #@! TD*
D18*
G04 #@! TO.N,+2V8*
X131572000Y-98171000D03*
X148336000Y-96520000D03*
X157607000Y-94107000D03*
X157480000Y-116459000D03*
X134239000Y-110998000D03*
X130429000Y-103124000D03*
X131826000Y-107569000D03*
X144907000Y-110363000D03*
D19*
X153924000Y-106105000D03*
D18*
X129159000Y-93255000D03*
D20*
X161925000Y-105029000D03*
D18*
G04 #@! TO.N,GND*
X147955000Y-108839000D03*
X144653000Y-112141000D03*
X136906000Y-115951000D03*
X134239000Y-115189000D03*
X129921000Y-109220000D03*
X123063000Y-108966000D03*
X116332000Y-97917000D03*
X114808000Y-113030000D03*
X124841000Y-98679000D03*
X127254000Y-98679000D03*
X129667000Y-98552000D03*
X130937000Y-96266000D03*
X132207000Y-97155000D03*
X146558000Y-96520000D03*
X144780000Y-96520000D03*
X149860000Y-100076000D03*
X117729000Y-102489000D03*
D19*
X125222000Y-104394000D03*
D18*
X141478000Y-110236000D03*
X136144000Y-97282000D03*
D19*
X146494500Y-103441500D03*
X147066000Y-102108000D03*
X148590000Y-101727000D03*
X150495000Y-101727000D03*
X152527000Y-101727000D03*
X154432000Y-101727000D03*
X155829000Y-102997000D03*
X155829000Y-104394000D03*
X155829000Y-105664000D03*
X154432000Y-106680000D03*
X153035000Y-106680000D03*
X151257000Y-106680000D03*
X149352000Y-106680000D03*
X147828000Y-106680000D03*
X145796000Y-105791000D03*
X146685000Y-106172000D03*
X145161000Y-103672500D03*
X144780000Y-105791000D03*
D18*
X120523000Y-100076000D03*
D19*
X133731000Y-106680000D03*
X152527000Y-116459000D03*
X143129000Y-94234000D03*
D18*
X121539000Y-102743000D03*
X120142000Y-102743000D03*
X117983000Y-110109000D03*
D20*
X131064000Y-114173000D03*
X125603000Y-116078000D03*
X122047000Y-113538000D03*
X162560000Y-100330000D03*
X122301000Y-97155000D03*
D19*
G04 #@! TO.N,MON_SCL*
X137922000Y-98552000D03*
G04 #@! TO.N,MON_SDA*
X137160000Y-98552000D03*
X137160000Y-94615000D03*
G04 #@! TO.N,Net-(C3-Pad1)*
X153670000Y-102870000D03*
X153515000Y-100838000D03*
D20*
G04 #@! TO.N,VAA*
X145161000Y-102870000D03*
X145161000Y-100838000D03*
D18*
G04 #@! TO.N,+BATT*
X138684000Y-93980000D03*
D19*
G04 #@! TO.N,TC_OUT*
X145796000Y-93091000D03*
X138885990Y-99162500D03*
G04 #@! TO.N,STAT1*
X117983000Y-104140000D03*
X130810000Y-104013000D03*
G04 #@! TO.N,STAT2*
X117983000Y-106045000D03*
D20*
X129667000Y-106426000D03*
G04 #@! TO.N,USB_D+*
X131941834Y-106183166D03*
G04 #@! TO.N,USB_D-*
X132472166Y-105652834D03*
G04 #@! TO.N,SWCLK*
X136779000Y-117348000D03*
D19*
X136413500Y-109966500D03*
G04 #@! TO.N,SWDIO*
X139827000Y-106934000D03*
D18*
G04 #@! TO.N,NRST*
X138938000Y-104394000D03*
D19*
G04 #@! TO.N,SWO*
X137413500Y-109982500D03*
G04 #@! TO.N,OSC*
X139446000Y-102362000D03*
G04 #@! TO.N,TCVC*
X149733000Y-98552000D03*
X141351000Y-101854000D03*
G04 #@! TO.N,TC_IN*
X146177000Y-101219000D03*
X151892000Y-110236000D03*
G04 #@! TO.N,BTN_A*
X157353000Y-106934000D03*
X141224000Y-113030000D03*
D20*
G04 #@! TO.N,BTN_PWR*
X136906000Y-101727000D03*
X134493000Y-95123000D03*
G04 #@! TD*
D21*
G04 #@! TO.N,GND*
X116412000Y-108538000D02*
X117983000Y-110109000D01*
X116412000Y-108458000D02*
X116412000Y-108538000D01*
X115062000Y-108458000D02*
X116412000Y-108458000D01*
D22*
G04 #@! TO.N,MON_SCL*
X139384001Y-91632001D02*
X138938000Y-91186000D01*
X139384001Y-97089999D02*
X139384001Y-91632001D01*
X137922000Y-98552000D02*
X139384001Y-97089999D01*
G04 #@! TO.N,MON_SDA*
X137160000Y-98552000D02*
X137160000Y-94615000D01*
G04 #@! TO.N,Net-(C3-Pad1)*
X153543000Y-100838000D02*
X153515000Y-100838000D01*
X153670000Y-100965000D02*
X153543000Y-100838000D01*
X153670000Y-102870000D02*
X153670000Y-100965000D01*
G04 #@! TO.N,VAA*
X145161000Y-102870000D02*
X145161000Y-100838000D01*
D23*
G04 #@! TO.N,+BATT*
X138658999Y-94005001D02*
X119786001Y-94005001D01*
X119786001Y-94005001D02*
X119634000Y-93853000D01*
X138684000Y-93980000D02*
X138658999Y-94005001D01*
D22*
G04 #@! TO.N,VBUS*
X116412000Y-107608000D02*
X115062000Y-107608000D01*
X114602381Y-103358000D02*
X115062000Y-103358000D01*
X114436999Y-107058001D02*
X114436999Y-103523382D01*
X114761999Y-107383001D02*
X114436999Y-107058001D01*
X114876001Y-107383001D02*
X114761999Y-107383001D01*
X114436999Y-103523382D02*
X114602381Y-103358000D01*
X115062000Y-107569000D02*
X114876001Y-107383001D01*
X115062000Y-107608000D02*
X115062000Y-107569000D01*
G04 #@! TO.N,TC_OUT*
X139954000Y-98933000D02*
X145796000Y-93091000D01*
X139115490Y-98933000D02*
X138885990Y-99162500D01*
X139954000Y-98933000D02*
X139115490Y-98933000D01*
G04 #@! TO.N,STAT1*
X118254001Y-103868999D02*
X130665999Y-103868999D01*
X130665999Y-103868999D02*
X130810000Y-104013000D01*
X117983000Y-104140000D02*
X118254001Y-103868999D01*
G04 #@! TO.N,STAT2*
X117983000Y-106573002D02*
X118535999Y-107126001D01*
X117983000Y-106045000D02*
X117983000Y-106573002D01*
D24*
X129728999Y-106487999D02*
X129667000Y-106426000D01*
D22*
X128966999Y-107126001D02*
X118535999Y-107126001D01*
X129667000Y-106426000D02*
X128966999Y-107126001D01*
G04 #@! TO.N,USB_D+*
X115102381Y-105058000D02*
X115062000Y-105058000D01*
X115952381Y-105908000D02*
X115102381Y-105058000D01*
X116412000Y-105908000D02*
X115952381Y-105908000D01*
X125660393Y-105368992D02*
X125681885Y-105347500D01*
X117026010Y-105368992D02*
X125660393Y-105368992D01*
X116412000Y-105908000D02*
X116636999Y-105683001D01*
X131318301Y-105347500D02*
X131941834Y-105971033D01*
X116636999Y-105683001D02*
X116712001Y-105683001D01*
X125681885Y-105347500D02*
X131318301Y-105347500D01*
X116712001Y-105683001D02*
X117026010Y-105368992D01*
X131941834Y-105971033D02*
X131941834Y-106183166D01*
G04 #@! TO.N,USB_D-*
X125495502Y-104897500D02*
X131504699Y-104897500D01*
X125474001Y-104919001D02*
X125495502Y-104897500D01*
X116412000Y-105058000D02*
X116625603Y-105058000D01*
X131504699Y-104897500D02*
X132260033Y-105652834D01*
X116625603Y-105058000D02*
X116764602Y-104919001D01*
X132260033Y-105652834D02*
X132472166Y-105652834D01*
X116764602Y-104919001D02*
X125474001Y-104919001D01*
G04 #@! TO.N,Net-(J1-PadP1)*
X112052000Y-101158000D02*
X115432000Y-101158000D01*
D24*
G04 #@! TO.N,SWCLK*
X136017000Y-116586000D02*
X136017000Y-110363000D01*
X136779000Y-117348000D02*
X136017000Y-116586000D01*
X136017000Y-110363000D02*
X136413500Y-109966500D01*
D22*
G04 #@! TO.N,SWDIO*
X139827000Y-117348000D02*
X142113000Y-119634000D01*
X139827000Y-106934000D02*
X139827000Y-117348000D01*
D24*
G04 #@! TO.N,NRST*
X138938000Y-118999000D02*
X139573000Y-119634000D01*
X138938000Y-104394000D02*
X138938000Y-118999000D01*
G04 #@! TO.N,SWO*
X137922000Y-110491000D02*
X137413500Y-109982500D01*
X137922000Y-118745000D02*
X137922000Y-110491000D01*
X137033000Y-119634000D02*
X137922000Y-118745000D01*
D23*
G04 #@! TO.N,OSC*
X139446000Y-100743998D02*
X145066998Y-95123000D01*
X139446000Y-102362000D02*
X139446000Y-100743998D01*
X151511000Y-95123000D02*
X155067000Y-91567000D01*
X145066998Y-95123000D02*
X151511000Y-95123000D01*
G04 #@! TO.N,TCVC*
X141732000Y-101854000D02*
X145034000Y-98552000D01*
X145034000Y-98552000D02*
X149733000Y-98552000D01*
X141351000Y-101854000D02*
X141732000Y-101854000D01*
G04 #@! TO.N,TC_IN*
X148070001Y-99325999D02*
X153427999Y-99325999D01*
X146177000Y-101219000D02*
X148070001Y-99325999D01*
X156404001Y-102302001D02*
X156404001Y-106231999D01*
X153427999Y-99325999D02*
X156404001Y-102302001D01*
X152400000Y-110236000D02*
X151892000Y-110236000D01*
X156404001Y-106231999D02*
X152400000Y-110236000D01*
D22*
G04 #@! TO.N,BTN_A*
X141734990Y-113540990D02*
X141224000Y-113030000D01*
X150746010Y-113540990D02*
X141734990Y-113540990D01*
X157353000Y-106934000D02*
X150746010Y-113540990D01*
G04 #@! TO.N,BTN_PWR*
X136906000Y-101727000D02*
X134493000Y-99314000D01*
X134493000Y-99314000D02*
X134493000Y-95123000D01*
G04 #@! TD*
M02*
