M48
; DRILL file {KiCad (5.1.6-0-10_14)} date Sunday, October 17, 2021 at 11:27:43 AM
; FORMAT={-:-/ absolute / metric / decimal}
; #@! TF.CreationDate,2021-10-17T11:27:43-07:00
; #@! TF.GenerationSoftware,Kicad,Pcbnew,(5.1.6-0-10_14)
; #@! TF.FileFunction,Plated,1,4,PTH
FMAT,2
METRIC
T1C0.200
T2C0.300
T3C0.400
T4C0.500
T5C0.600
T6C0.800
T7C1.000
T8C3.200
%
G90
G05
T1
X117.983Y-104.14
X117.983Y-106.045
X125.222Y-104.394
X130.81Y-104.013
X133.731Y-106.68
X136.413Y-109.966
X137.16Y-94.615
X137.16Y-98.552
X137.413Y-109.983
X137.922Y-98.552
X138.886Y-99.162
X139.446Y-102.362
X139.827Y-106.934
X141.224Y-113.03
X141.351Y-101.854
X143.129Y-94.234
X144.78Y-105.791
X145.161Y-103.672
X145.796Y-93.091
X145.796Y-105.791
X146.177Y-101.219
X146.494Y-103.441
X146.685Y-106.172
X147.066Y-102.108
X147.828Y-106.68
X148.59Y-101.727
X149.352Y-106.68
X149.733Y-98.552
X150.495Y-101.727
X151.257Y-106.68
X151.892Y-110.236
X152.527Y-101.727
X152.527Y-116.459
X153.035Y-106.68
X153.515Y-100.838
X153.67Y-102.87
X153.924Y-106.105
X154.432Y-101.727
X154.432Y-106.68
X155.829Y-102.997
X155.829Y-104.394
X155.829Y-105.664
X157.353Y-106.934
T2
X122.047Y-113.538
X122.301Y-97.155
X125.603Y-116.078
X129.667Y-106.426
X131.064Y-114.173
X131.942Y-106.183
X132.472Y-105.653
X134.493Y-95.123
X136.779Y-117.348
X136.906Y-101.727
X145.161Y-100.838
X145.161Y-102.87
X161.925Y-105.029
X162.56Y-100.33
T3
X114.808Y-113.03
X116.332Y-97.917
X117.729Y-102.489
X117.983Y-110.109
X120.142Y-102.743
X120.523Y-100.076
X121.539Y-102.743
X123.063Y-108.966
X124.841Y-98.679
X127.254Y-98.679
X129.159Y-93.255
X129.667Y-98.552
X129.921Y-109.22
X130.429Y-103.124
X130.937Y-96.266
X131.572Y-98.171
X131.826Y-107.569
X132.207Y-97.155
X134.239Y-110.998
X134.239Y-115.189
X136.144Y-97.282
X136.906Y-115.951
X138.684Y-93.98
X138.938Y-104.394
X141.478Y-110.236
X144.653Y-112.141
X144.78Y-96.52
X144.907Y-110.363
X146.558Y-96.52
X147.955Y-108.839
X148.336Y-96.52
X149.86Y-100.076
X157.48Y-116.459
X157.607Y-94.107
X115.062Y-102.508
X115.062Y-103.358
X115.062Y-104.208
X115.062Y-105.058
X115.062Y-105.908
X115.062Y-106.758
X115.062Y-107.608
X115.062Y-108.458
X116.412Y-102.508
X116.412Y-103.358
X116.412Y-104.208
X116.412Y-105.058
X116.412Y-105.908
X116.412Y-106.758
X116.412Y-107.608
X116.412Y-108.458
T4
X162.319Y-92.964
X163.022Y-91.267
X163.022Y-94.661
X164.719Y-90.564
X164.719Y-95.364
X166.416Y-91.267
X166.416Y-94.661
X167.119Y-92.964
X111.773Y-92.964
X112.476Y-91.267
X112.476Y-94.661
X114.173Y-90.564
X114.173Y-95.364
X115.87Y-91.267
X115.87Y-94.661
X116.573Y-92.964
X111.773Y-117.602
X112.476Y-115.905
X112.476Y-119.299
X114.173Y-115.202
X114.173Y-120.002
X115.87Y-115.905
X115.87Y-119.299
X116.573Y-117.602
X162.319Y-117.602
X163.022Y-115.905
X163.022Y-119.299
X164.719Y-115.202
X164.719Y-120.002
X166.416Y-115.905
X166.416Y-119.299
X167.119Y-117.602
T7
X155.067Y-91.567
X157.607Y-91.567
X133.858Y-91.186
X136.398Y-91.186
X138.938Y-91.186
X141.478Y-91.186
X137.033Y-119.634
X139.573Y-119.634
X142.113Y-119.634
X144.653Y-119.634
X147.193Y-119.634
X149.733Y-119.634
X119.634Y-93.853
X119.634Y-96.393
T8
X164.719Y-92.964
X114.173Y-92.964
X114.173Y-117.602
X164.719Y-117.602
T5
X111.652Y-101.158G85X112.452Y-101.158
G05
X111.652Y-109.808G85X112.452Y-109.808
G05
X114.682Y-101.158G85X116.182Y-101.158
G05
X114.682Y-109.808G85X116.182Y-109.808
G05
T6
X159.434Y-100.203G85X158.734Y-100.203
G05
X159.434Y-110.203G85X158.734Y-110.203
G05
X164.084Y-105.553G85X164.084Y-104.853
G05
T0
M30
