G04 #@! TF.GenerationSoftware,KiCad,Pcbnew,(5.1.6-0-10_14)*
G04 #@! TF.CreationDate,2021-10-17T11:27:40-07:00*
G04 #@! TF.ProjectId,TimTime,54696d54-696d-4652-9e6b-696361645f70,rev?*
G04 #@! TF.SameCoordinates,Original*
G04 #@! TF.FileFunction,Copper,L2,Inr*
G04 #@! TF.FilePolarity,Positive*
%FSLAX46Y46*%
G04 Gerber Fmt 4.6, Leading zero omitted, Abs format (unit mm)*
G04 Created by KiCad (PCBNEW (5.1.6-0-10_14)) date 2021-10-17 11:27:40*
%MOMM*%
%LPD*%
G01*
G04 APERTURE LIST*
G04 #@! TA.AperFunction,ViaPad*
%ADD10O,1.308000X2.616000*%
G04 #@! TD*
G04 #@! TA.AperFunction,ViaPad*
%ADD11O,2.616000X1.308000*%
G04 #@! TD*
G04 #@! TA.AperFunction,ViaPad*
%ADD12C,0.650000*%
G04 #@! TD*
G04 #@! TA.AperFunction,ViaPad*
%ADD13O,2.216000X1.108000*%
G04 #@! TD*
G04 #@! TA.AperFunction,ViaPad*
%ADD14R,1.700000X1.700000*%
G04 #@! TD*
G04 #@! TA.AperFunction,ViaPad*
%ADD15O,1.700000X1.700000*%
G04 #@! TD*
G04 #@! TA.AperFunction,ViaPad*
%ADD16C,6.400000*%
G04 #@! TD*
G04 #@! TA.AperFunction,ViaPad*
%ADD17C,0.800000*%
G04 #@! TD*
G04 #@! TA.AperFunction,ViaPad*
%ADD18C,0.450000*%
G04 #@! TD*
G04 #@! TA.AperFunction,ViaPad*
%ADD19C,0.500000*%
G04 #@! TD*
G04 #@! TA.AperFunction,Conductor*
%ADD20C,0.200000*%
G04 #@! TD*
G04 #@! TA.AperFunction,Conductor*
%ADD21C,0.254000*%
G04 #@! TD*
G04 APERTURE END LIST*
D10*
G04 #@! TO.N,GND*
G04 #@! TO.C,J2*
X164084000Y-105203000D03*
D11*
G04 #@! TO.N,Net-(J2-Pad2)*
X159084000Y-110203000D03*
G04 #@! TO.N,Net-(J2-Pad3)*
X159084000Y-100203000D03*
G04 #@! TD*
D12*
G04 #@! TO.N,GND*
G04 #@! TO.C,J1*
X116412000Y-108458000D03*
G04 #@! TO.N,VBUS*
X116412000Y-107608000D03*
G04 #@! TO.N,CC1*
X116412000Y-106758000D03*
G04 #@! TO.N,USB_D+*
X116412000Y-105908000D03*
G04 #@! TO.N,USB_D-*
X116412000Y-105058000D03*
G04 #@! TO.N,Net-(J1-PadA8)*
X116412000Y-104208000D03*
G04 #@! TO.N,VBUS*
X116412000Y-103358000D03*
G04 #@! TO.N,GND*
X116412000Y-102508000D03*
X115062000Y-102508000D03*
G04 #@! TO.N,VBUS*
X115062000Y-103358000D03*
G04 #@! TO.N,CC2*
X115062000Y-104208000D03*
G04 #@! TO.N,USB_D+*
X115062000Y-105058000D03*
G04 #@! TO.N,USB_D-*
X115062000Y-105908000D03*
G04 #@! TO.N,Net-(J1-PadB8)*
X115062000Y-106758000D03*
G04 #@! TO.N,VBUS*
X115062000Y-107608000D03*
G04 #@! TO.N,GND*
X115062000Y-108458000D03*
D13*
G04 #@! TO.N,Net-(J1-PadP1)*
X115432000Y-109808000D03*
X115432000Y-101158000D03*
X112052000Y-101158000D03*
X112052000Y-109808000D03*
G04 #@! TD*
D14*
G04 #@! TO.N,GND*
G04 #@! TO.C,J3*
X133858000Y-91186000D03*
D15*
G04 #@! TO.N,+2V8*
X136398000Y-91186000D03*
G04 #@! TO.N,MON_SCL*
X138938000Y-91186000D03*
G04 #@! TO.N,MON_SDA*
X141478000Y-91186000D03*
G04 #@! TD*
D14*
G04 #@! TO.N,+2V8*
G04 #@! TO.C,J4*
X149733000Y-119634000D03*
D15*
G04 #@! TO.N,SWCLK*
X147193000Y-119634000D03*
G04 #@! TO.N,GND*
X144653000Y-119634000D03*
G04 #@! TO.N,SWDIO*
X142113000Y-119634000D03*
G04 #@! TO.N,NRST*
X139573000Y-119634000D03*
G04 #@! TO.N,SWO*
X137033000Y-119634000D03*
G04 #@! TD*
D14*
G04 #@! TO.N,GND*
G04 #@! TO.C,J5*
X119634000Y-96393000D03*
D15*
G04 #@! TO.N,+BATT*
X119634000Y-93853000D03*
G04 #@! TD*
G04 #@! TO.N,OSC*
G04 #@! TO.C,J6*
X155067000Y-91567000D03*
D14*
G04 #@! TO.N,GND*
X157607000Y-91567000D03*
G04 #@! TD*
D16*
G04 #@! TO.N,GND*
G04 #@! TO.C,H1*
X114173000Y-92964000D03*
D17*
X116573000Y-92964000D03*
X115870056Y-94661056D03*
X114173000Y-95364000D03*
X112475944Y-94661056D03*
X111773000Y-92964000D03*
X112475944Y-91266944D03*
X114173000Y-90564000D03*
X115870056Y-91266944D03*
G04 #@! TD*
G04 #@! TO.N,GND*
G04 #@! TO.C,H2*
X166416056Y-91266944D03*
X164719000Y-90564000D03*
X163021944Y-91266944D03*
X162319000Y-92964000D03*
X163021944Y-94661056D03*
X164719000Y-95364000D03*
X166416056Y-94661056D03*
X167119000Y-92964000D03*
D16*
X164719000Y-92964000D03*
G04 #@! TD*
G04 #@! TO.N,GND*
G04 #@! TO.C,H3*
X164719000Y-117602000D03*
D17*
X167119000Y-117602000D03*
X166416056Y-119299056D03*
X164719000Y-120002000D03*
X163021944Y-119299056D03*
X162319000Y-117602000D03*
X163021944Y-115904944D03*
X164719000Y-115202000D03*
X166416056Y-115904944D03*
G04 #@! TD*
G04 #@! TO.N,GND*
G04 #@! TO.C,H4*
X115870056Y-115904944D03*
X114173000Y-115202000D03*
X112475944Y-115904944D03*
X111773000Y-117602000D03*
X112475944Y-119299056D03*
X114173000Y-120002000D03*
X115870056Y-119299056D03*
X116573000Y-117602000D03*
D16*
X114173000Y-117602000D03*
G04 #@! TD*
D17*
G04 #@! TO.N,+2V8*
X131572000Y-98171000D03*
X148336000Y-96520000D03*
X157607000Y-94107000D03*
X157480000Y-116459000D03*
X134239000Y-110998000D03*
X130429000Y-103124000D03*
X131826000Y-107569000D03*
X144907000Y-110363000D03*
D18*
X153924000Y-106105000D03*
D17*
X129159000Y-93255000D03*
D19*
X161925000Y-105029000D03*
D17*
G04 #@! TO.N,GND*
X147955000Y-108839000D03*
X144653000Y-112141000D03*
X136906000Y-115951000D03*
X134239000Y-115189000D03*
X129921000Y-109220000D03*
X123063000Y-108966000D03*
X116332000Y-97917000D03*
X114808000Y-113030000D03*
X124841000Y-98679000D03*
X127254000Y-98679000D03*
X129667000Y-98552000D03*
X130937000Y-96266000D03*
X132207000Y-97155000D03*
X146558000Y-96520000D03*
X144780000Y-96520000D03*
X149860000Y-100076000D03*
X117729000Y-102489000D03*
D18*
X125222000Y-104394000D03*
D17*
X141478000Y-110236000D03*
X136144000Y-97282000D03*
D18*
X146494500Y-103441500D03*
X147066000Y-102108000D03*
X148590000Y-101727000D03*
X150495000Y-101727000D03*
X152527000Y-101727000D03*
X154432000Y-101727000D03*
X155829000Y-102997000D03*
X155829000Y-104394000D03*
X155829000Y-105664000D03*
X154432000Y-106680000D03*
X153035000Y-106680000D03*
X151257000Y-106680000D03*
X149352000Y-106680000D03*
X147828000Y-106680000D03*
X145796000Y-105791000D03*
X146685000Y-106172000D03*
X145161000Y-103672500D03*
X144780000Y-105791000D03*
D17*
X120523000Y-100076000D03*
D18*
X133731000Y-106680000D03*
X152527000Y-116459000D03*
X143129000Y-94234000D03*
D17*
X121539000Y-102743000D03*
X120142000Y-102743000D03*
X117983000Y-110109000D03*
D19*
X131064000Y-114173000D03*
X125603000Y-116078000D03*
X122047000Y-113538000D03*
X162560000Y-100330000D03*
X122301000Y-97155000D03*
D18*
G04 #@! TO.N,MON_SCL*
X137922000Y-98552000D03*
G04 #@! TO.N,MON_SDA*
X137160000Y-98552000D03*
X137160000Y-94615000D03*
G04 #@! TO.N,Net-(C3-Pad1)*
X153670000Y-102870000D03*
X153515000Y-100838000D03*
D19*
G04 #@! TO.N,VAA*
X145161000Y-102870000D03*
X145161000Y-100838000D03*
D17*
G04 #@! TO.N,+BATT*
X138684000Y-93980000D03*
D18*
G04 #@! TO.N,TC_OUT*
X145796000Y-93091000D03*
X138885990Y-99162500D03*
G04 #@! TO.N,STAT1*
X117983000Y-104140000D03*
X130810000Y-104013000D03*
G04 #@! TO.N,STAT2*
X117983000Y-106045000D03*
D19*
X129667000Y-106426000D03*
G04 #@! TO.N,USB_D+*
X131941834Y-106183166D03*
G04 #@! TO.N,USB_D-*
X132472166Y-105652834D03*
G04 #@! TO.N,SWCLK*
X136779000Y-117348000D03*
D18*
X136413500Y-109966500D03*
G04 #@! TO.N,SWDIO*
X139827000Y-106934000D03*
D17*
G04 #@! TO.N,NRST*
X138938000Y-104394000D03*
D18*
G04 #@! TO.N,SWO*
X137413500Y-109982500D03*
G04 #@! TO.N,OSC*
X139446000Y-102362000D03*
G04 #@! TO.N,TCVC*
X149733000Y-98552000D03*
X141351000Y-101854000D03*
G04 #@! TO.N,TC_IN*
X146177000Y-101219000D03*
X151892000Y-110236000D03*
G04 #@! TO.N,BTN_A*
X157353000Y-106934000D03*
X141224000Y-113030000D03*
D19*
G04 #@! TO.N,BTN_PWR*
X136906000Y-101727000D03*
X134493000Y-95123000D03*
G04 #@! TD*
D20*
G04 #@! TO.N,GND*
X115062000Y-102508000D02*
X116412000Y-102508000D01*
G04 #@! TD*
D21*
G04 #@! TO.N,GND*
G36*
X132556815Y-89884815D02*
G01*
X132477463Y-89981506D01*
X132418498Y-90091820D01*
X132382188Y-90211518D01*
X132369928Y-90336000D01*
X132373000Y-90900250D01*
X132531750Y-91059000D01*
X133731000Y-91059000D01*
X133731000Y-91039000D01*
X133985000Y-91039000D01*
X133985000Y-91059000D01*
X134005000Y-91059000D01*
X134005000Y-91313000D01*
X133985000Y-91313000D01*
X133985000Y-92512250D01*
X134143750Y-92671000D01*
X134708000Y-92674072D01*
X134832482Y-92661812D01*
X134952180Y-92625502D01*
X135062494Y-92566537D01*
X135159185Y-92487185D01*
X135238537Y-92390494D01*
X135297502Y-92280180D01*
X135319513Y-92207620D01*
X135451368Y-92339475D01*
X135694589Y-92501990D01*
X135964842Y-92613932D01*
X136251740Y-92671000D01*
X136544260Y-92671000D01*
X136831158Y-92613932D01*
X137101411Y-92501990D01*
X137344632Y-92339475D01*
X137551475Y-92132632D01*
X137668000Y-91958240D01*
X137784525Y-92132632D01*
X137991368Y-92339475D01*
X138234589Y-92501990D01*
X138504842Y-92613932D01*
X138791740Y-92671000D01*
X139084260Y-92671000D01*
X139371158Y-92613932D01*
X139641411Y-92501990D01*
X139884632Y-92339475D01*
X140091475Y-92132632D01*
X140208000Y-91958240D01*
X140324525Y-92132632D01*
X140531368Y-92339475D01*
X140774589Y-92501990D01*
X141044842Y-92613932D01*
X141331740Y-92671000D01*
X141624260Y-92671000D01*
X141911158Y-92613932D01*
X142181411Y-92501990D01*
X142424632Y-92339475D01*
X142631475Y-92132632D01*
X142793990Y-91889411D01*
X142905932Y-91619158D01*
X142945400Y-91420740D01*
X153582000Y-91420740D01*
X153582000Y-91713260D01*
X153639068Y-92000158D01*
X153751010Y-92270411D01*
X153913525Y-92513632D01*
X154120368Y-92720475D01*
X154363589Y-92882990D01*
X154633842Y-92994932D01*
X154920740Y-93052000D01*
X155213260Y-93052000D01*
X155500158Y-92994932D01*
X155770411Y-92882990D01*
X156013632Y-92720475D01*
X156145487Y-92588620D01*
X156167498Y-92661180D01*
X156226463Y-92771494D01*
X156305815Y-92868185D01*
X156402506Y-92947537D01*
X156512820Y-93006502D01*
X156632518Y-93042812D01*
X156757000Y-93055072D01*
X157321250Y-93052000D01*
X157480000Y-92893250D01*
X157480000Y-91694000D01*
X157734000Y-91694000D01*
X157734000Y-92893250D01*
X157892750Y-93052000D01*
X158457000Y-93055072D01*
X158581482Y-93042812D01*
X158701180Y-93006502D01*
X158811494Y-92947537D01*
X158821049Y-92939695D01*
X160865520Y-92939695D01*
X160934822Y-93691938D01*
X161149548Y-94416208D01*
X161501445Y-95084670D01*
X161528452Y-95125088D01*
X162018119Y-95485276D01*
X164539395Y-92964000D01*
X162018119Y-90442724D01*
X161528452Y-90802912D01*
X161168151Y-91466882D01*
X160944306Y-92188385D01*
X160865520Y-92939695D01*
X158821049Y-92939695D01*
X158908185Y-92868185D01*
X158987537Y-92771494D01*
X159046502Y-92661180D01*
X159082812Y-92541482D01*
X159095072Y-92417000D01*
X159092000Y-91852750D01*
X158933250Y-91694000D01*
X157734000Y-91694000D01*
X157480000Y-91694000D01*
X157460000Y-91694000D01*
X157460000Y-91440000D01*
X157480000Y-91440000D01*
X157480000Y-90240750D01*
X157734000Y-90240750D01*
X157734000Y-91440000D01*
X158933250Y-91440000D01*
X159092000Y-91281250D01*
X159095072Y-90717000D01*
X159082812Y-90592518D01*
X159046502Y-90472820D01*
X158987537Y-90362506D01*
X158908185Y-90265815D01*
X158811494Y-90186463D01*
X158701180Y-90127498D01*
X158581482Y-90091188D01*
X158457000Y-90078928D01*
X157892750Y-90082000D01*
X157734000Y-90240750D01*
X157480000Y-90240750D01*
X157321250Y-90082000D01*
X156757000Y-90078928D01*
X156632518Y-90091188D01*
X156512820Y-90127498D01*
X156402506Y-90186463D01*
X156305815Y-90265815D01*
X156226463Y-90362506D01*
X156167498Y-90472820D01*
X156145487Y-90545380D01*
X156013632Y-90413525D01*
X155770411Y-90251010D01*
X155500158Y-90139068D01*
X155213260Y-90082000D01*
X154920740Y-90082000D01*
X154633842Y-90139068D01*
X154363589Y-90251010D01*
X154120368Y-90413525D01*
X153913525Y-90620368D01*
X153751010Y-90863589D01*
X153639068Y-91133842D01*
X153582000Y-91420740D01*
X142945400Y-91420740D01*
X142963000Y-91332260D01*
X142963000Y-91039740D01*
X142905932Y-90752842D01*
X142793990Y-90482589D01*
X142631475Y-90239368D01*
X142424632Y-90032525D01*
X142181411Y-89870010D01*
X142046190Y-89814000D01*
X162528086Y-89814000D01*
X162197724Y-90263119D01*
X164719000Y-92784395D01*
X164733143Y-92770253D01*
X164912748Y-92949858D01*
X164898605Y-92964000D01*
X167419881Y-95485276D01*
X167869000Y-95154914D01*
X167869001Y-115411086D01*
X167419881Y-115080724D01*
X164898605Y-117602000D01*
X164912748Y-117616143D01*
X164733143Y-117795748D01*
X164719000Y-117781605D01*
X162197724Y-120302881D01*
X162528086Y-120752000D01*
X151159770Y-120752000D01*
X151172502Y-120728180D01*
X151208812Y-120608482D01*
X151221072Y-120484000D01*
X151221072Y-118784000D01*
X151208812Y-118659518D01*
X151172502Y-118539820D01*
X151113537Y-118429506D01*
X151034185Y-118332815D01*
X150937494Y-118253463D01*
X150827180Y-118194498D01*
X150707482Y-118158188D01*
X150583000Y-118145928D01*
X148883000Y-118145928D01*
X148758518Y-118158188D01*
X148638820Y-118194498D01*
X148528506Y-118253463D01*
X148431815Y-118332815D01*
X148352463Y-118429506D01*
X148293498Y-118539820D01*
X148271487Y-118612380D01*
X148139632Y-118480525D01*
X147896411Y-118318010D01*
X147626158Y-118206068D01*
X147339260Y-118149000D01*
X147046740Y-118149000D01*
X146759842Y-118206068D01*
X146489589Y-118318010D01*
X146246368Y-118480525D01*
X146039525Y-118687368D01*
X145917805Y-118869534D01*
X145848178Y-118752645D01*
X145653269Y-118536412D01*
X145419920Y-118362359D01*
X145157099Y-118237175D01*
X145009890Y-118192524D01*
X144780000Y-118313845D01*
X144780000Y-119507000D01*
X144800000Y-119507000D01*
X144800000Y-119761000D01*
X144780000Y-119761000D01*
X144780000Y-119781000D01*
X144526000Y-119781000D01*
X144526000Y-119761000D01*
X144506000Y-119761000D01*
X144506000Y-119507000D01*
X144526000Y-119507000D01*
X144526000Y-118313845D01*
X144296110Y-118192524D01*
X144148901Y-118237175D01*
X143886080Y-118362359D01*
X143652731Y-118536412D01*
X143457822Y-118752645D01*
X143388195Y-118869534D01*
X143266475Y-118687368D01*
X143059632Y-118480525D01*
X142816411Y-118318010D01*
X142546158Y-118206068D01*
X142259260Y-118149000D01*
X141966740Y-118149000D01*
X141679842Y-118206068D01*
X141409589Y-118318010D01*
X141166368Y-118480525D01*
X140959525Y-118687368D01*
X140843000Y-118861760D01*
X140726475Y-118687368D01*
X140519632Y-118480525D01*
X140276411Y-118318010D01*
X140006158Y-118206068D01*
X139719260Y-118149000D01*
X139426740Y-118149000D01*
X139139842Y-118206068D01*
X138869589Y-118318010D01*
X138626368Y-118480525D01*
X138419525Y-118687368D01*
X138303000Y-118861760D01*
X138186475Y-118687368D01*
X137979632Y-118480525D01*
X137736411Y-118318010D01*
X137466158Y-118206068D01*
X137179260Y-118149000D01*
X137157832Y-118149000D01*
X137198205Y-118132277D01*
X137343155Y-118035424D01*
X137466424Y-117912155D01*
X137563277Y-117767205D01*
X137629990Y-117606145D01*
X137635649Y-117577695D01*
X160865520Y-117577695D01*
X160934822Y-118329938D01*
X161149548Y-119054208D01*
X161501445Y-119722670D01*
X161528452Y-119763088D01*
X162018119Y-120123276D01*
X164539395Y-117602000D01*
X162018119Y-115080724D01*
X161528452Y-115440912D01*
X161168151Y-116104882D01*
X160944306Y-116826385D01*
X160865520Y-117577695D01*
X137635649Y-117577695D01*
X137664000Y-117435165D01*
X137664000Y-117260835D01*
X137629990Y-117089855D01*
X137563277Y-116928795D01*
X137466424Y-116783845D01*
X137343155Y-116660576D01*
X137198205Y-116563723D01*
X137037145Y-116497010D01*
X136866165Y-116463000D01*
X136691835Y-116463000D01*
X136520855Y-116497010D01*
X136359795Y-116563723D01*
X136214845Y-116660576D01*
X136091576Y-116783845D01*
X135994723Y-116928795D01*
X135928010Y-117089855D01*
X135894000Y-117260835D01*
X135894000Y-117435165D01*
X135928010Y-117606145D01*
X135994723Y-117767205D01*
X136091576Y-117912155D01*
X136214845Y-118035424D01*
X136359795Y-118132277D01*
X136520855Y-118198990D01*
X136585761Y-118211901D01*
X136329589Y-118318010D01*
X136086368Y-118480525D01*
X135879525Y-118687368D01*
X135717010Y-118930589D01*
X135605068Y-119200842D01*
X135548000Y-119487740D01*
X135548000Y-119780260D01*
X135605068Y-120067158D01*
X135717010Y-120337411D01*
X135879525Y-120580632D01*
X136050893Y-120752000D01*
X116363914Y-120752000D01*
X116694276Y-120302881D01*
X114173000Y-117781605D01*
X114158858Y-117795748D01*
X113979253Y-117616143D01*
X113993395Y-117602000D01*
X114352605Y-117602000D01*
X116873881Y-120123276D01*
X117363548Y-119763088D01*
X117723849Y-119099118D01*
X117947694Y-118377615D01*
X118026480Y-117626305D01*
X117957178Y-116874062D01*
X117803902Y-116357061D01*
X156445000Y-116357061D01*
X156445000Y-116560939D01*
X156484774Y-116760898D01*
X156562795Y-116949256D01*
X156676063Y-117118774D01*
X156820226Y-117262937D01*
X156989744Y-117376205D01*
X157178102Y-117454226D01*
X157378061Y-117494000D01*
X157581939Y-117494000D01*
X157781898Y-117454226D01*
X157970256Y-117376205D01*
X158139774Y-117262937D01*
X158283937Y-117118774D01*
X158397205Y-116949256D01*
X158475226Y-116760898D01*
X158515000Y-116560939D01*
X158515000Y-116357061D01*
X158475226Y-116157102D01*
X158397205Y-115968744D01*
X158283937Y-115799226D01*
X158139774Y-115655063D01*
X157970256Y-115541795D01*
X157781898Y-115463774D01*
X157581939Y-115424000D01*
X157378061Y-115424000D01*
X157178102Y-115463774D01*
X156989744Y-115541795D01*
X156820226Y-115655063D01*
X156676063Y-115799226D01*
X156562795Y-115968744D01*
X156484774Y-116157102D01*
X156445000Y-116357061D01*
X117803902Y-116357061D01*
X117742452Y-116149792D01*
X117390555Y-115481330D01*
X117363548Y-115440912D01*
X116873881Y-115080724D01*
X114352605Y-117602000D01*
X113993395Y-117602000D01*
X111472119Y-115080724D01*
X111023000Y-115411086D01*
X111023000Y-114901119D01*
X111651724Y-114901119D01*
X114173000Y-117422395D01*
X116694276Y-114901119D01*
X162197724Y-114901119D01*
X164719000Y-117422395D01*
X167240276Y-114901119D01*
X166880088Y-114411452D01*
X166216118Y-114051151D01*
X165494615Y-113827306D01*
X164743305Y-113748520D01*
X163991062Y-113817822D01*
X163266792Y-114032548D01*
X162598330Y-114384445D01*
X162557912Y-114411452D01*
X162197724Y-114901119D01*
X116694276Y-114901119D01*
X116334088Y-114411452D01*
X115670118Y-114051151D01*
X114948615Y-113827306D01*
X114197305Y-113748520D01*
X113445062Y-113817822D01*
X112720792Y-114032548D01*
X112052330Y-114384445D01*
X112011912Y-114411452D01*
X111651724Y-114901119D01*
X111023000Y-114901119D01*
X111023000Y-112945297D01*
X140364000Y-112945297D01*
X140364000Y-113114703D01*
X140397049Y-113280853D01*
X140461878Y-113437363D01*
X140555995Y-113578218D01*
X140675782Y-113698005D01*
X140816637Y-113792122D01*
X140973147Y-113856951D01*
X141139297Y-113890000D01*
X141308703Y-113890000D01*
X141474853Y-113856951D01*
X141631363Y-113792122D01*
X141772218Y-113698005D01*
X141892005Y-113578218D01*
X141986122Y-113437363D01*
X142050951Y-113280853D01*
X142084000Y-113114703D01*
X142084000Y-112945297D01*
X142050951Y-112779147D01*
X141986122Y-112622637D01*
X141892005Y-112481782D01*
X141772218Y-112361995D01*
X141631363Y-112267878D01*
X141474853Y-112203049D01*
X141308703Y-112170000D01*
X141139297Y-112170000D01*
X140973147Y-112203049D01*
X140816637Y-112267878D01*
X140675782Y-112361995D01*
X140555995Y-112481782D01*
X140461878Y-112622637D01*
X140397049Y-112779147D01*
X140364000Y-112945297D01*
X111023000Y-112945297D01*
X111023000Y-110902300D01*
X111040788Y-110911808D01*
X111264915Y-110979796D01*
X111439589Y-110997000D01*
X112664411Y-110997000D01*
X112839085Y-110979796D01*
X113063212Y-110911808D01*
X113269769Y-110801401D01*
X113450818Y-110652818D01*
X113599401Y-110471769D01*
X113709808Y-110265212D01*
X113742000Y-110159089D01*
X113774192Y-110265212D01*
X113884599Y-110471769D01*
X114033182Y-110652818D01*
X114214231Y-110801401D01*
X114420788Y-110911808D01*
X114644915Y-110979796D01*
X114819589Y-110997000D01*
X116044411Y-110997000D01*
X116219085Y-110979796D01*
X116443212Y-110911808D01*
X116472672Y-110896061D01*
X133204000Y-110896061D01*
X133204000Y-111099939D01*
X133243774Y-111299898D01*
X133321795Y-111488256D01*
X133435063Y-111657774D01*
X133579226Y-111801937D01*
X133748744Y-111915205D01*
X133937102Y-111993226D01*
X134137061Y-112033000D01*
X134340939Y-112033000D01*
X134540898Y-111993226D01*
X134729256Y-111915205D01*
X134898774Y-111801937D01*
X135042937Y-111657774D01*
X135156205Y-111488256D01*
X135234226Y-111299898D01*
X135274000Y-111099939D01*
X135274000Y-110896061D01*
X135234226Y-110696102D01*
X135156205Y-110507744D01*
X135042937Y-110338226D01*
X134898774Y-110194063D01*
X134729256Y-110080795D01*
X134540898Y-110002774D01*
X134340939Y-109963000D01*
X134137061Y-109963000D01*
X133937102Y-110002774D01*
X133748744Y-110080795D01*
X133579226Y-110194063D01*
X133435063Y-110338226D01*
X133321795Y-110507744D01*
X133243774Y-110696102D01*
X133204000Y-110896061D01*
X116472672Y-110896061D01*
X116649769Y-110801401D01*
X116830818Y-110652818D01*
X116979401Y-110471769D01*
X117089808Y-110265212D01*
X117157796Y-110041085D01*
X117173484Y-109881797D01*
X135553500Y-109881797D01*
X135553500Y-110051203D01*
X135586549Y-110217353D01*
X135651378Y-110373863D01*
X135745495Y-110514718D01*
X135865282Y-110634505D01*
X136006137Y-110728622D01*
X136162647Y-110793451D01*
X136328797Y-110826500D01*
X136498203Y-110826500D01*
X136664353Y-110793451D01*
X136820863Y-110728622D01*
X136901527Y-110674723D01*
X137006137Y-110744622D01*
X137162647Y-110809451D01*
X137328797Y-110842500D01*
X137498203Y-110842500D01*
X137664353Y-110809451D01*
X137820863Y-110744622D01*
X137961718Y-110650505D01*
X138081505Y-110530718D01*
X138175622Y-110389863D01*
X138228973Y-110261061D01*
X143872000Y-110261061D01*
X143872000Y-110464939D01*
X143911774Y-110664898D01*
X143989795Y-110853256D01*
X144103063Y-111022774D01*
X144247226Y-111166937D01*
X144416744Y-111280205D01*
X144605102Y-111358226D01*
X144805061Y-111398000D01*
X145008939Y-111398000D01*
X145208898Y-111358226D01*
X145397256Y-111280205D01*
X145566774Y-111166937D01*
X145710937Y-111022774D01*
X145824205Y-110853256D01*
X145902226Y-110664898D01*
X145942000Y-110464939D01*
X145942000Y-110261061D01*
X145920167Y-110151297D01*
X151032000Y-110151297D01*
X151032000Y-110320703D01*
X151065049Y-110486853D01*
X151129878Y-110643363D01*
X151223995Y-110784218D01*
X151343782Y-110904005D01*
X151484637Y-110998122D01*
X151641147Y-111062951D01*
X151807297Y-111096000D01*
X151976703Y-111096000D01*
X152142853Y-111062951D01*
X152299363Y-110998122D01*
X152440218Y-110904005D01*
X152560005Y-110784218D01*
X152654122Y-110643363D01*
X152718951Y-110486853D01*
X152752000Y-110320703D01*
X152752000Y-110203000D01*
X157134764Y-110203000D01*
X157159652Y-110455688D01*
X157233358Y-110698665D01*
X157353051Y-110922595D01*
X157514130Y-111118870D01*
X157710405Y-111279949D01*
X157934335Y-111399642D01*
X158177312Y-111473348D01*
X158366686Y-111492000D01*
X159801314Y-111492000D01*
X159990688Y-111473348D01*
X160233665Y-111399642D01*
X160457595Y-111279949D01*
X160653870Y-111118870D01*
X160814949Y-110922595D01*
X160934642Y-110698665D01*
X161008348Y-110455688D01*
X161033236Y-110203000D01*
X161021256Y-110081363D01*
X162849000Y-110081363D01*
X162849000Y-110324637D01*
X162896460Y-110563236D01*
X162989557Y-110787992D01*
X163124713Y-110990267D01*
X163296733Y-111162287D01*
X163499008Y-111297443D01*
X163723764Y-111390540D01*
X163962363Y-111438000D01*
X164205637Y-111438000D01*
X164444236Y-111390540D01*
X164668992Y-111297443D01*
X164871267Y-111162287D01*
X165043287Y-110990267D01*
X165178443Y-110787992D01*
X165271540Y-110563236D01*
X165319000Y-110324637D01*
X165319000Y-110081363D01*
X165349000Y-110081363D01*
X165349000Y-110324637D01*
X165396460Y-110563236D01*
X165489557Y-110787992D01*
X165624713Y-110990267D01*
X165796733Y-111162287D01*
X165999008Y-111297443D01*
X166223764Y-111390540D01*
X166462363Y-111438000D01*
X166705637Y-111438000D01*
X166944236Y-111390540D01*
X167168992Y-111297443D01*
X167371267Y-111162287D01*
X167543287Y-110990267D01*
X167678443Y-110787992D01*
X167771540Y-110563236D01*
X167819000Y-110324637D01*
X167819000Y-110081363D01*
X167771540Y-109842764D01*
X167678443Y-109618008D01*
X167543287Y-109415733D01*
X167371267Y-109243713D01*
X167168992Y-109108557D01*
X166944236Y-109015460D01*
X166705637Y-108968000D01*
X166462363Y-108968000D01*
X166223764Y-109015460D01*
X165999008Y-109108557D01*
X165796733Y-109243713D01*
X165624713Y-109415733D01*
X165489557Y-109618008D01*
X165396460Y-109842764D01*
X165349000Y-110081363D01*
X165319000Y-110081363D01*
X165271540Y-109842764D01*
X165178443Y-109618008D01*
X165043287Y-109415733D01*
X164871267Y-109243713D01*
X164668992Y-109108557D01*
X164444236Y-109015460D01*
X164205637Y-108968000D01*
X163962363Y-108968000D01*
X163723764Y-109015460D01*
X163499008Y-109108557D01*
X163296733Y-109243713D01*
X163124713Y-109415733D01*
X162989557Y-109618008D01*
X162896460Y-109842764D01*
X162849000Y-110081363D01*
X161021256Y-110081363D01*
X161008348Y-109950312D01*
X160934642Y-109707335D01*
X160814949Y-109483405D01*
X160653870Y-109287130D01*
X160457595Y-109126051D01*
X160233665Y-109006358D01*
X159990688Y-108932652D01*
X159801314Y-108914000D01*
X158366686Y-108914000D01*
X158177312Y-108932652D01*
X157934335Y-109006358D01*
X157710405Y-109126051D01*
X157514130Y-109287130D01*
X157353051Y-109483405D01*
X157233358Y-109707335D01*
X157159652Y-109950312D01*
X157134764Y-110203000D01*
X152752000Y-110203000D01*
X152752000Y-110151297D01*
X152718951Y-109985147D01*
X152654122Y-109828637D01*
X152560005Y-109687782D01*
X152440218Y-109567995D01*
X152299363Y-109473878D01*
X152142853Y-109409049D01*
X151976703Y-109376000D01*
X151807297Y-109376000D01*
X151641147Y-109409049D01*
X151484637Y-109473878D01*
X151343782Y-109567995D01*
X151223995Y-109687782D01*
X151129878Y-109828637D01*
X151065049Y-109985147D01*
X151032000Y-110151297D01*
X145920167Y-110151297D01*
X145902226Y-110061102D01*
X145824205Y-109872744D01*
X145710937Y-109703226D01*
X145566774Y-109559063D01*
X145397256Y-109445795D01*
X145208898Y-109367774D01*
X145008939Y-109328000D01*
X144805061Y-109328000D01*
X144605102Y-109367774D01*
X144416744Y-109445795D01*
X144247226Y-109559063D01*
X144103063Y-109703226D01*
X143989795Y-109872744D01*
X143911774Y-110061102D01*
X143872000Y-110261061D01*
X138228973Y-110261061D01*
X138240451Y-110233353D01*
X138273500Y-110067203D01*
X138273500Y-109897797D01*
X138240451Y-109731647D01*
X138175622Y-109575137D01*
X138081505Y-109434282D01*
X137961718Y-109314495D01*
X137820863Y-109220378D01*
X137664353Y-109155549D01*
X137498203Y-109122500D01*
X137328797Y-109122500D01*
X137162647Y-109155549D01*
X137006137Y-109220378D01*
X136925473Y-109274277D01*
X136820863Y-109204378D01*
X136664353Y-109139549D01*
X136498203Y-109106500D01*
X136328797Y-109106500D01*
X136162647Y-109139549D01*
X136006137Y-109204378D01*
X135865282Y-109298495D01*
X135745495Y-109418282D01*
X135651378Y-109559137D01*
X135586549Y-109715647D01*
X135553500Y-109881797D01*
X117173484Y-109881797D01*
X117180753Y-109808000D01*
X117157796Y-109574915D01*
X117089808Y-109350788D01*
X116979401Y-109144231D01*
X116830818Y-108963182D01*
X116649769Y-108814599D01*
X116519207Y-108744812D01*
X116412000Y-108637605D01*
X116397858Y-108651748D01*
X116313281Y-108567171D01*
X116317448Y-108568000D01*
X116506552Y-108568000D01*
X116669244Y-108535639D01*
X117064536Y-108930931D01*
X117260270Y-108917323D01*
X117333581Y-108743008D01*
X117371475Y-108557740D01*
X117372497Y-108368639D01*
X117336608Y-108182972D01*
X117275247Y-108032538D01*
X117335108Y-107888022D01*
X117372000Y-107702552D01*
X117372000Y-107513448D01*
X117362774Y-107467061D01*
X130791000Y-107467061D01*
X130791000Y-107670939D01*
X130830774Y-107870898D01*
X130908795Y-108059256D01*
X131022063Y-108228774D01*
X131166226Y-108372937D01*
X131335744Y-108486205D01*
X131524102Y-108564226D01*
X131724061Y-108604000D01*
X131927939Y-108604000D01*
X132127898Y-108564226D01*
X132316256Y-108486205D01*
X132485774Y-108372937D01*
X132629937Y-108228774D01*
X132743205Y-108059256D01*
X132821226Y-107870898D01*
X132861000Y-107670939D01*
X132861000Y-107467061D01*
X132821226Y-107267102D01*
X132743205Y-107078744D01*
X132629937Y-106909226D01*
X132570008Y-106849297D01*
X138967000Y-106849297D01*
X138967000Y-107018703D01*
X139000049Y-107184853D01*
X139064878Y-107341363D01*
X139158995Y-107482218D01*
X139278782Y-107602005D01*
X139419637Y-107696122D01*
X139576147Y-107760951D01*
X139742297Y-107794000D01*
X139911703Y-107794000D01*
X140077853Y-107760951D01*
X140234363Y-107696122D01*
X140375218Y-107602005D01*
X140495005Y-107482218D01*
X140589122Y-107341363D01*
X140653951Y-107184853D01*
X140687000Y-107018703D01*
X140687000Y-106849297D01*
X140653951Y-106683147D01*
X140589122Y-106526637D01*
X140495005Y-106385782D01*
X140375218Y-106265995D01*
X140234363Y-106171878D01*
X140077853Y-106107049D01*
X139911703Y-106074000D01*
X139742297Y-106074000D01*
X139576147Y-106107049D01*
X139419637Y-106171878D01*
X139278782Y-106265995D01*
X139158995Y-106385782D01*
X139064878Y-106526637D01*
X139000049Y-106683147D01*
X138967000Y-106849297D01*
X132570008Y-106849297D01*
X132548645Y-106827934D01*
X132629258Y-106747321D01*
X132726111Y-106602371D01*
X132774514Y-106485514D01*
X132891371Y-106437111D01*
X133036321Y-106340258D01*
X133159590Y-106216989D01*
X133256443Y-106072039D01*
X133323156Y-105910979D01*
X133357166Y-105739999D01*
X133357166Y-105565669D01*
X133323156Y-105394689D01*
X133256443Y-105233629D01*
X133159590Y-105088679D01*
X133036321Y-104965410D01*
X132891371Y-104868557D01*
X132730311Y-104801844D01*
X132559331Y-104767834D01*
X132385001Y-104767834D01*
X132214021Y-104801844D01*
X132052961Y-104868557D01*
X131908011Y-104965410D01*
X131784742Y-105088679D01*
X131687889Y-105233629D01*
X131639486Y-105350486D01*
X131522629Y-105398889D01*
X131377679Y-105495742D01*
X131254410Y-105619011D01*
X131157557Y-105763961D01*
X131090844Y-105925021D01*
X131056834Y-106096001D01*
X131056834Y-106270331D01*
X131090844Y-106441311D01*
X131157557Y-106602371D01*
X131235387Y-106718851D01*
X131166226Y-106765063D01*
X131022063Y-106909226D01*
X130908795Y-107078744D01*
X130830774Y-107267102D01*
X130791000Y-107467061D01*
X117362774Y-107467061D01*
X117335108Y-107327978D01*
X117275056Y-107183000D01*
X117335108Y-107038022D01*
X117372000Y-106852552D01*
X117372000Y-106663448D01*
X117368716Y-106646939D01*
X117434782Y-106713005D01*
X117575637Y-106807122D01*
X117732147Y-106871951D01*
X117898297Y-106905000D01*
X118067703Y-106905000D01*
X118233853Y-106871951D01*
X118390363Y-106807122D01*
X118531218Y-106713005D01*
X118651005Y-106593218D01*
X118745122Y-106452363D01*
X118792147Y-106338835D01*
X128782000Y-106338835D01*
X128782000Y-106513165D01*
X128816010Y-106684145D01*
X128882723Y-106845205D01*
X128979576Y-106990155D01*
X129102845Y-107113424D01*
X129247795Y-107210277D01*
X129408855Y-107276990D01*
X129579835Y-107311000D01*
X129754165Y-107311000D01*
X129925145Y-107276990D01*
X130086205Y-107210277D01*
X130231155Y-107113424D01*
X130354424Y-106990155D01*
X130451277Y-106845205D01*
X130517990Y-106684145D01*
X130552000Y-106513165D01*
X130552000Y-106338835D01*
X130517990Y-106167855D01*
X130451277Y-106006795D01*
X130354424Y-105861845D01*
X130231155Y-105738576D01*
X130086205Y-105641723D01*
X129925145Y-105575010D01*
X129754165Y-105541000D01*
X129579835Y-105541000D01*
X129408855Y-105575010D01*
X129247795Y-105641723D01*
X129102845Y-105738576D01*
X128979576Y-105861845D01*
X128882723Y-106006795D01*
X128816010Y-106167855D01*
X128782000Y-106338835D01*
X118792147Y-106338835D01*
X118809951Y-106295853D01*
X118843000Y-106129703D01*
X118843000Y-105960297D01*
X118809951Y-105794147D01*
X118745122Y-105637637D01*
X118651005Y-105496782D01*
X118531218Y-105376995D01*
X118390363Y-105282878D01*
X118233853Y-105218049D01*
X118067703Y-105185000D01*
X117898297Y-105185000D01*
X117732147Y-105218049D01*
X117575637Y-105282878D01*
X117434782Y-105376995D01*
X117314995Y-105496782D01*
X117293864Y-105528406D01*
X117275056Y-105483000D01*
X117335108Y-105338022D01*
X117372000Y-105152552D01*
X117372000Y-104963448D01*
X117335108Y-104777978D01*
X117275056Y-104633000D01*
X117276221Y-104630188D01*
X117314995Y-104688218D01*
X117434782Y-104808005D01*
X117575637Y-104902122D01*
X117732147Y-104966951D01*
X117898297Y-105000000D01*
X118067703Y-105000000D01*
X118233853Y-104966951D01*
X118390363Y-104902122D01*
X118531218Y-104808005D01*
X118651005Y-104688218D01*
X118745122Y-104547363D01*
X118809951Y-104390853D01*
X118843000Y-104224703D01*
X118843000Y-104055297D01*
X118809951Y-103889147D01*
X118745122Y-103732637D01*
X118651005Y-103591782D01*
X118531218Y-103471995D01*
X118390363Y-103377878D01*
X118233853Y-103313049D01*
X118067703Y-103280000D01*
X117898297Y-103280000D01*
X117732147Y-103313049D01*
X117575637Y-103377878D01*
X117434782Y-103471995D01*
X117351583Y-103555194D01*
X117372000Y-103452552D01*
X117372000Y-103263448D01*
X117335108Y-103077978D01*
X117311947Y-103022061D01*
X129394000Y-103022061D01*
X129394000Y-103225939D01*
X129433774Y-103425898D01*
X129511795Y-103614256D01*
X129625063Y-103783774D01*
X129769226Y-103927937D01*
X129938744Y-104041205D01*
X129950000Y-104045867D01*
X129950000Y-104097703D01*
X129983049Y-104263853D01*
X130047878Y-104420363D01*
X130141995Y-104561218D01*
X130261782Y-104681005D01*
X130402637Y-104775122D01*
X130559147Y-104839951D01*
X130725297Y-104873000D01*
X130894703Y-104873000D01*
X131060853Y-104839951D01*
X131217363Y-104775122D01*
X131358218Y-104681005D01*
X131478005Y-104561218D01*
X131572122Y-104420363D01*
X131625266Y-104292061D01*
X137903000Y-104292061D01*
X137903000Y-104495939D01*
X137942774Y-104695898D01*
X138020795Y-104884256D01*
X138134063Y-105053774D01*
X138278226Y-105197937D01*
X138447744Y-105311205D01*
X138636102Y-105389226D01*
X138836061Y-105429000D01*
X139039939Y-105429000D01*
X139239898Y-105389226D01*
X139428256Y-105311205D01*
X139597774Y-105197937D01*
X139741937Y-105053774D01*
X139855205Y-104884256D01*
X139900460Y-104775000D01*
X142113000Y-104775000D01*
X142113000Y-105791000D01*
X142115440Y-105815776D01*
X142122667Y-105839601D01*
X142134403Y-105861557D01*
X142150197Y-105880803D01*
X142169443Y-105896597D01*
X142191399Y-105908333D01*
X142215224Y-105915560D01*
X142240000Y-105918000D01*
X144399000Y-105918000D01*
X144423776Y-105915560D01*
X144447601Y-105908333D01*
X144469557Y-105896597D01*
X144488803Y-105880803D01*
X144504597Y-105861557D01*
X144516333Y-105839601D01*
X144523560Y-105815776D01*
X144526000Y-105791000D01*
X146378394Y-105791000D01*
X147230197Y-106642803D01*
X147249443Y-106658597D01*
X147271399Y-106670333D01*
X147295224Y-106677560D01*
X147320000Y-106680000D01*
X153282777Y-106680000D01*
X153375782Y-106773005D01*
X153516637Y-106867122D01*
X153673147Y-106931951D01*
X153839297Y-106965000D01*
X154008703Y-106965000D01*
X154174853Y-106931951D01*
X154331363Y-106867122D01*
X154358039Y-106849297D01*
X156493000Y-106849297D01*
X156493000Y-107018703D01*
X156526049Y-107184853D01*
X156590878Y-107341363D01*
X156684995Y-107482218D01*
X156804782Y-107602005D01*
X156945637Y-107696122D01*
X157102147Y-107760951D01*
X157268297Y-107794000D01*
X157437703Y-107794000D01*
X157603853Y-107760951D01*
X157760363Y-107696122D01*
X157901218Y-107602005D01*
X158021005Y-107482218D01*
X158115122Y-107341363D01*
X158179951Y-107184853D01*
X158213000Y-107018703D01*
X158213000Y-106849297D01*
X158179951Y-106683147D01*
X158115122Y-106526637D01*
X158021005Y-106385782D01*
X157901218Y-106265995D01*
X157760363Y-106171878D01*
X157603853Y-106107049D01*
X157437703Y-106074000D01*
X157268297Y-106074000D01*
X157102147Y-106107049D01*
X156945637Y-106171878D01*
X156804782Y-106265995D01*
X156684995Y-106385782D01*
X156590878Y-106526637D01*
X156526049Y-106683147D01*
X156493000Y-106849297D01*
X154358039Y-106849297D01*
X154472218Y-106773005D01*
X154565223Y-106680000D01*
X155067000Y-106680000D01*
X155090256Y-106677853D01*
X155114167Y-106670917D01*
X155749167Y-106416917D01*
X155772557Y-106404597D01*
X155791803Y-106388803D01*
X155807597Y-106369557D01*
X155819333Y-106347601D01*
X155826560Y-106323776D01*
X155829000Y-106299000D01*
X155829000Y-105081363D01*
X157849000Y-105081363D01*
X157849000Y-105324637D01*
X157896460Y-105563236D01*
X157989557Y-105787992D01*
X158124713Y-105990267D01*
X158296733Y-106162287D01*
X158499008Y-106297443D01*
X158723764Y-106390540D01*
X158962363Y-106438000D01*
X159205637Y-106438000D01*
X159444236Y-106390540D01*
X159668992Y-106297443D01*
X159871267Y-106162287D01*
X160043287Y-105990267D01*
X160178443Y-105787992D01*
X160271540Y-105563236D01*
X160319000Y-105324637D01*
X160319000Y-105081363D01*
X160291247Y-104941835D01*
X161040000Y-104941835D01*
X161040000Y-105116165D01*
X161074010Y-105287145D01*
X161140723Y-105448205D01*
X161237576Y-105593155D01*
X161360845Y-105716424D01*
X161505795Y-105813277D01*
X161666855Y-105879990D01*
X161837835Y-105914000D01*
X162012165Y-105914000D01*
X162183145Y-105879990D01*
X162344205Y-105813277D01*
X162489155Y-105716424D01*
X162612424Y-105593155D01*
X162709277Y-105448205D01*
X162758238Y-105330000D01*
X162795000Y-105330000D01*
X162795000Y-105984000D01*
X162844544Y-106233031D01*
X162941720Y-106467612D01*
X163082793Y-106678727D01*
X163262342Y-106858264D01*
X163473467Y-106999323D01*
X163708054Y-107096483D01*
X163757901Y-107104068D01*
X163957000Y-106980092D01*
X163957000Y-105330000D01*
X164211000Y-105330000D01*
X164211000Y-106980092D01*
X164410099Y-107104068D01*
X164459946Y-107096483D01*
X164694533Y-106999323D01*
X164905658Y-106858264D01*
X165085207Y-106678727D01*
X165226280Y-106467612D01*
X165323456Y-106233031D01*
X165373000Y-105984000D01*
X165373000Y-105330000D01*
X164211000Y-105330000D01*
X163957000Y-105330000D01*
X162795000Y-105330000D01*
X162758238Y-105330000D01*
X162775990Y-105287145D01*
X162810000Y-105116165D01*
X162810000Y-105076000D01*
X163957000Y-105076000D01*
X163957000Y-103425908D01*
X164211000Y-103425908D01*
X164211000Y-105076000D01*
X165373000Y-105076000D01*
X165373000Y-104422000D01*
X165323456Y-104172969D01*
X165226280Y-103938388D01*
X165085207Y-103727273D01*
X164905658Y-103547736D01*
X164694533Y-103406677D01*
X164459946Y-103309517D01*
X164410099Y-103301932D01*
X164211000Y-103425908D01*
X163957000Y-103425908D01*
X163757901Y-103301932D01*
X163708054Y-103309517D01*
X163473467Y-103406677D01*
X163262342Y-103547736D01*
X163082793Y-103727273D01*
X162941720Y-103938388D01*
X162844544Y-104172969D01*
X162795000Y-104422000D01*
X162795000Y-104866425D01*
X162775990Y-104770855D01*
X162709277Y-104609795D01*
X162612424Y-104464845D01*
X162489155Y-104341576D01*
X162344205Y-104244723D01*
X162183145Y-104178010D01*
X162012165Y-104144000D01*
X161837835Y-104144000D01*
X161666855Y-104178010D01*
X161505795Y-104244723D01*
X161360845Y-104341576D01*
X161237576Y-104464845D01*
X161140723Y-104609795D01*
X161074010Y-104770855D01*
X161040000Y-104941835D01*
X160291247Y-104941835D01*
X160271540Y-104842764D01*
X160178443Y-104618008D01*
X160043287Y-104415733D01*
X159871267Y-104243713D01*
X159668992Y-104108557D01*
X159444236Y-104015460D01*
X159205637Y-103968000D01*
X158962363Y-103968000D01*
X158723764Y-104015460D01*
X158499008Y-104108557D01*
X158296733Y-104243713D01*
X158124713Y-104415733D01*
X157989557Y-104618008D01*
X157896460Y-104842764D01*
X157849000Y-105081363D01*
X155829000Y-105081363D01*
X155829000Y-102489000D01*
X155828223Y-102474975D01*
X155823062Y-102450620D01*
X155813248Y-102427739D01*
X155799159Y-102407213D01*
X155781336Y-102389830D01*
X155146336Y-101881830D01*
X155115601Y-101863667D01*
X155091776Y-101856440D01*
X155067000Y-101854000D01*
X147447000Y-101854000D01*
X147422354Y-101856414D01*
X147398522Y-101863617D01*
X147376553Y-101875330D01*
X146614553Y-102383330D01*
X146595197Y-102399197D01*
X146579403Y-102418443D01*
X146567667Y-102440399D01*
X146560440Y-102464224D01*
X146558000Y-102489000D01*
X146558000Y-103452394D01*
X146251394Y-103759000D01*
X144399000Y-103759000D01*
X144374224Y-103761440D01*
X144350399Y-103768667D01*
X144328443Y-103780403D01*
X144309197Y-103796197D01*
X144293403Y-103815443D01*
X144281667Y-103837399D01*
X144274440Y-103861224D01*
X144272000Y-103886000D01*
X144272000Y-104648000D01*
X142240000Y-104648000D01*
X142215224Y-104650440D01*
X142191399Y-104657667D01*
X142169443Y-104669403D01*
X142150197Y-104685197D01*
X142134403Y-104704443D01*
X142122667Y-104726399D01*
X142115440Y-104750224D01*
X142113000Y-104775000D01*
X139900460Y-104775000D01*
X139933226Y-104695898D01*
X139973000Y-104495939D01*
X139973000Y-104292061D01*
X139933226Y-104092102D01*
X139855205Y-103903744D01*
X139741937Y-103734226D01*
X139597774Y-103590063D01*
X139428256Y-103476795D01*
X139239898Y-103398774D01*
X139039939Y-103359000D01*
X138836061Y-103359000D01*
X138636102Y-103398774D01*
X138447744Y-103476795D01*
X138278226Y-103590063D01*
X138134063Y-103734226D01*
X138020795Y-103903744D01*
X137942774Y-104092102D01*
X137903000Y-104292061D01*
X131625266Y-104292061D01*
X131636951Y-104263853D01*
X131670000Y-104097703D01*
X131670000Y-103928297D01*
X131636951Y-103762147D01*
X131572122Y-103605637D01*
X131478005Y-103464782D01*
X131426697Y-103413474D01*
X131464000Y-103225939D01*
X131464000Y-103022061D01*
X131424226Y-102822102D01*
X131346205Y-102633744D01*
X131232937Y-102464226D01*
X131088774Y-102320063D01*
X130919256Y-102206795D01*
X130730898Y-102128774D01*
X130530939Y-102089000D01*
X130327061Y-102089000D01*
X130127102Y-102128774D01*
X129938744Y-102206795D01*
X129769226Y-102320063D01*
X129625063Y-102464226D01*
X129511795Y-102633744D01*
X129433774Y-102822102D01*
X129394000Y-103022061D01*
X117311947Y-103022061D01*
X117274882Y-102932580D01*
X117333581Y-102793008D01*
X117371475Y-102607740D01*
X117372497Y-102418639D01*
X117336608Y-102232972D01*
X117265187Y-102057874D01*
X117260270Y-102048677D01*
X117064536Y-102035069D01*
X116669244Y-102430361D01*
X116506552Y-102398000D01*
X116317448Y-102398000D01*
X116313281Y-102398829D01*
X116397858Y-102314253D01*
X116412000Y-102328395D01*
X116519207Y-102221188D01*
X116649769Y-102151401D01*
X116830818Y-102002818D01*
X116979401Y-101821769D01*
X117076646Y-101639835D01*
X136021000Y-101639835D01*
X136021000Y-101814165D01*
X136055010Y-101985145D01*
X136121723Y-102146205D01*
X136218576Y-102291155D01*
X136341845Y-102414424D01*
X136486795Y-102511277D01*
X136647855Y-102577990D01*
X136818835Y-102612000D01*
X136993165Y-102612000D01*
X137164145Y-102577990D01*
X137325205Y-102511277D01*
X137470155Y-102414424D01*
X137593424Y-102291155D01*
X137602683Y-102277297D01*
X138586000Y-102277297D01*
X138586000Y-102446703D01*
X138619049Y-102612853D01*
X138683878Y-102769363D01*
X138777995Y-102910218D01*
X138897782Y-103030005D01*
X139038637Y-103124122D01*
X139195147Y-103188951D01*
X139361297Y-103222000D01*
X139530703Y-103222000D01*
X139696853Y-103188951D01*
X139853363Y-103124122D01*
X139994218Y-103030005D01*
X140114005Y-102910218D01*
X140199120Y-102782835D01*
X144276000Y-102782835D01*
X144276000Y-102957165D01*
X144310010Y-103128145D01*
X144376723Y-103289205D01*
X144473576Y-103434155D01*
X144596845Y-103557424D01*
X144741795Y-103654277D01*
X144902855Y-103720990D01*
X145073835Y-103755000D01*
X145248165Y-103755000D01*
X145419145Y-103720990D01*
X145580205Y-103654277D01*
X145725155Y-103557424D01*
X145848424Y-103434155D01*
X145945277Y-103289205D01*
X146011990Y-103128145D01*
X146046000Y-102957165D01*
X146046000Y-102782835D01*
X146011990Y-102611855D01*
X145945277Y-102450795D01*
X145848424Y-102305845D01*
X145725155Y-102182576D01*
X145580205Y-102085723D01*
X145419145Y-102019010D01*
X145248165Y-101985000D01*
X145073835Y-101985000D01*
X144902855Y-102019010D01*
X144741795Y-102085723D01*
X144596845Y-102182576D01*
X144473576Y-102305845D01*
X144376723Y-102450795D01*
X144310010Y-102611855D01*
X144276000Y-102782835D01*
X140199120Y-102782835D01*
X140208122Y-102769363D01*
X140272951Y-102612853D01*
X140306000Y-102446703D01*
X140306000Y-102277297D01*
X140272951Y-102111147D01*
X140208122Y-101954637D01*
X140114005Y-101813782D01*
X140069520Y-101769297D01*
X140491000Y-101769297D01*
X140491000Y-101938703D01*
X140524049Y-102104853D01*
X140588878Y-102261363D01*
X140682995Y-102402218D01*
X140802782Y-102522005D01*
X140943637Y-102616122D01*
X141100147Y-102680951D01*
X141266297Y-102714000D01*
X141435703Y-102714000D01*
X141601853Y-102680951D01*
X141758363Y-102616122D01*
X141899218Y-102522005D01*
X142019005Y-102402218D01*
X142113122Y-102261363D01*
X142177951Y-102104853D01*
X142211000Y-101938703D01*
X142211000Y-101769297D01*
X142177951Y-101603147D01*
X142113122Y-101446637D01*
X142019005Y-101305782D01*
X141899218Y-101185995D01*
X141758363Y-101091878D01*
X141601853Y-101027049D01*
X141435703Y-100994000D01*
X141266297Y-100994000D01*
X141100147Y-101027049D01*
X140943637Y-101091878D01*
X140802782Y-101185995D01*
X140682995Y-101305782D01*
X140588878Y-101446637D01*
X140524049Y-101603147D01*
X140491000Y-101769297D01*
X140069520Y-101769297D01*
X139994218Y-101693995D01*
X139853363Y-101599878D01*
X139696853Y-101535049D01*
X139530703Y-101502000D01*
X139361297Y-101502000D01*
X139195147Y-101535049D01*
X139038637Y-101599878D01*
X138897782Y-101693995D01*
X138777995Y-101813782D01*
X138683878Y-101954637D01*
X138619049Y-102111147D01*
X138586000Y-102277297D01*
X137602683Y-102277297D01*
X137690277Y-102146205D01*
X137756990Y-101985145D01*
X137791000Y-101814165D01*
X137791000Y-101639835D01*
X137756990Y-101468855D01*
X137690277Y-101307795D01*
X137593424Y-101162845D01*
X137470155Y-101039576D01*
X137325205Y-100942723D01*
X137164145Y-100876010D01*
X136993165Y-100842000D01*
X136818835Y-100842000D01*
X136647855Y-100876010D01*
X136486795Y-100942723D01*
X136341845Y-101039576D01*
X136218576Y-101162845D01*
X136121723Y-101307795D01*
X136055010Y-101468855D01*
X136021000Y-101639835D01*
X117076646Y-101639835D01*
X117089808Y-101615212D01*
X117157796Y-101391085D01*
X117180753Y-101158000D01*
X117157796Y-100924915D01*
X117104990Y-100750835D01*
X144276000Y-100750835D01*
X144276000Y-100925165D01*
X144310010Y-101096145D01*
X144376723Y-101257205D01*
X144473576Y-101402155D01*
X144596845Y-101525424D01*
X144741795Y-101622277D01*
X144902855Y-101688990D01*
X145073835Y-101723000D01*
X145248165Y-101723000D01*
X145419145Y-101688990D01*
X145448578Y-101676798D01*
X145508995Y-101767218D01*
X145628782Y-101887005D01*
X145769637Y-101981122D01*
X145926147Y-102045951D01*
X146092297Y-102079000D01*
X146261703Y-102079000D01*
X146427853Y-102045951D01*
X146584363Y-101981122D01*
X146725218Y-101887005D01*
X146845005Y-101767218D01*
X146939122Y-101626363D01*
X147003951Y-101469853D01*
X147037000Y-101303703D01*
X147037000Y-101134297D01*
X147003951Y-100968147D01*
X146939122Y-100811637D01*
X146900141Y-100753297D01*
X152655000Y-100753297D01*
X152655000Y-100922703D01*
X152688049Y-101088853D01*
X152752878Y-101245363D01*
X152846995Y-101386218D01*
X152966782Y-101506005D01*
X153107637Y-101600122D01*
X153264147Y-101664951D01*
X153430297Y-101698000D01*
X153599703Y-101698000D01*
X153765853Y-101664951D01*
X153922363Y-101600122D01*
X154063218Y-101506005D01*
X154183005Y-101386218D01*
X154277122Y-101245363D01*
X154341951Y-101088853D01*
X154375000Y-100922703D01*
X154375000Y-100753297D01*
X154341951Y-100587147D01*
X154277122Y-100430637D01*
X154183005Y-100289782D01*
X154096223Y-100203000D01*
X157134764Y-100203000D01*
X157159652Y-100455688D01*
X157233358Y-100698665D01*
X157353051Y-100922595D01*
X157514130Y-101118870D01*
X157710405Y-101279949D01*
X157934335Y-101399642D01*
X158177312Y-101473348D01*
X158366686Y-101492000D01*
X159801314Y-101492000D01*
X159990688Y-101473348D01*
X160233665Y-101399642D01*
X160457595Y-101279949D01*
X160653870Y-101118870D01*
X160814949Y-100922595D01*
X160934642Y-100698665D01*
X161008348Y-100455688D01*
X161033236Y-100203000D01*
X161021256Y-100081363D01*
X162849000Y-100081363D01*
X162849000Y-100324637D01*
X162896460Y-100563236D01*
X162989557Y-100787992D01*
X163124713Y-100990267D01*
X163296733Y-101162287D01*
X163499008Y-101297443D01*
X163723764Y-101390540D01*
X163962363Y-101438000D01*
X164205637Y-101438000D01*
X164444236Y-101390540D01*
X164668992Y-101297443D01*
X164871267Y-101162287D01*
X165043287Y-100990267D01*
X165178443Y-100787992D01*
X165271540Y-100563236D01*
X165319000Y-100324637D01*
X165319000Y-100081363D01*
X165349000Y-100081363D01*
X165349000Y-100324637D01*
X165396460Y-100563236D01*
X165489557Y-100787992D01*
X165624713Y-100990267D01*
X165796733Y-101162287D01*
X165999008Y-101297443D01*
X166223764Y-101390540D01*
X166462363Y-101438000D01*
X166705637Y-101438000D01*
X166944236Y-101390540D01*
X167168992Y-101297443D01*
X167371267Y-101162287D01*
X167543287Y-100990267D01*
X167678443Y-100787992D01*
X167771540Y-100563236D01*
X167819000Y-100324637D01*
X167819000Y-100081363D01*
X167771540Y-99842764D01*
X167678443Y-99618008D01*
X167543287Y-99415733D01*
X167371267Y-99243713D01*
X167168992Y-99108557D01*
X166944236Y-99015460D01*
X166705637Y-98968000D01*
X166462363Y-98968000D01*
X166223764Y-99015460D01*
X165999008Y-99108557D01*
X165796733Y-99243713D01*
X165624713Y-99415733D01*
X165489557Y-99618008D01*
X165396460Y-99842764D01*
X165349000Y-100081363D01*
X165319000Y-100081363D01*
X165271540Y-99842764D01*
X165178443Y-99618008D01*
X165043287Y-99415733D01*
X164871267Y-99243713D01*
X164668992Y-99108557D01*
X164444236Y-99015460D01*
X164205637Y-98968000D01*
X163962363Y-98968000D01*
X163723764Y-99015460D01*
X163499008Y-99108557D01*
X163296733Y-99243713D01*
X163124713Y-99415733D01*
X162989557Y-99618008D01*
X162896460Y-99842764D01*
X162849000Y-100081363D01*
X161021256Y-100081363D01*
X161008348Y-99950312D01*
X160934642Y-99707335D01*
X160814949Y-99483405D01*
X160653870Y-99287130D01*
X160457595Y-99126051D01*
X160233665Y-99006358D01*
X159990688Y-98932652D01*
X159801314Y-98914000D01*
X158366686Y-98914000D01*
X158177312Y-98932652D01*
X157934335Y-99006358D01*
X157710405Y-99126051D01*
X157514130Y-99287130D01*
X157353051Y-99483405D01*
X157233358Y-99707335D01*
X157159652Y-99950312D01*
X157134764Y-100203000D01*
X154096223Y-100203000D01*
X154063218Y-100169995D01*
X153922363Y-100075878D01*
X153765853Y-100011049D01*
X153599703Y-99978000D01*
X153430297Y-99978000D01*
X153264147Y-100011049D01*
X153107637Y-100075878D01*
X152966782Y-100169995D01*
X152846995Y-100289782D01*
X152752878Y-100430637D01*
X152688049Y-100587147D01*
X152655000Y-100753297D01*
X146900141Y-100753297D01*
X146845005Y-100670782D01*
X146725218Y-100550995D01*
X146584363Y-100456878D01*
X146427853Y-100392049D01*
X146261703Y-100359000D01*
X146092297Y-100359000D01*
X145927258Y-100391828D01*
X145848424Y-100273845D01*
X145725155Y-100150576D01*
X145580205Y-100053723D01*
X145419145Y-99987010D01*
X145248165Y-99953000D01*
X145073835Y-99953000D01*
X144902855Y-99987010D01*
X144741795Y-100053723D01*
X144596845Y-100150576D01*
X144473576Y-100273845D01*
X144376723Y-100418795D01*
X144310010Y-100579855D01*
X144276000Y-100750835D01*
X117104990Y-100750835D01*
X117089808Y-100700788D01*
X116979401Y-100494231D01*
X116830818Y-100313182D01*
X116649769Y-100164599D01*
X116443212Y-100054192D01*
X116219085Y-99986204D01*
X116044411Y-99969000D01*
X114819589Y-99969000D01*
X114644915Y-99986204D01*
X114420788Y-100054192D01*
X114214231Y-100164599D01*
X114033182Y-100313182D01*
X113884599Y-100494231D01*
X113774192Y-100700788D01*
X113742000Y-100806911D01*
X113709808Y-100700788D01*
X113599401Y-100494231D01*
X113450818Y-100313182D01*
X113269769Y-100164599D01*
X113063212Y-100054192D01*
X112839085Y-99986204D01*
X112664411Y-99969000D01*
X111439589Y-99969000D01*
X111264915Y-99986204D01*
X111040788Y-100054192D01*
X111023000Y-100063700D01*
X111023000Y-98069061D01*
X130537000Y-98069061D01*
X130537000Y-98272939D01*
X130576774Y-98472898D01*
X130654795Y-98661256D01*
X130768063Y-98830774D01*
X130912226Y-98974937D01*
X131081744Y-99088205D01*
X131270102Y-99166226D01*
X131470061Y-99206000D01*
X131673939Y-99206000D01*
X131873898Y-99166226D01*
X132062256Y-99088205D01*
X132231774Y-98974937D01*
X132375937Y-98830774D01*
X132489205Y-98661256D01*
X132567226Y-98472898D01*
X132568340Y-98467297D01*
X136300000Y-98467297D01*
X136300000Y-98636703D01*
X136333049Y-98802853D01*
X136397878Y-98959363D01*
X136491995Y-99100218D01*
X136611782Y-99220005D01*
X136752637Y-99314122D01*
X136909147Y-99378951D01*
X137075297Y-99412000D01*
X137244703Y-99412000D01*
X137410853Y-99378951D01*
X137541000Y-99325042D01*
X137671147Y-99378951D01*
X137837297Y-99412000D01*
X138006703Y-99412000D01*
X138056788Y-99402038D01*
X138059039Y-99413353D01*
X138123868Y-99569863D01*
X138217985Y-99710718D01*
X138337772Y-99830505D01*
X138478627Y-99924622D01*
X138635137Y-99989451D01*
X138801287Y-100022500D01*
X138970693Y-100022500D01*
X139136843Y-99989451D01*
X139293353Y-99924622D01*
X139434208Y-99830505D01*
X139553995Y-99710718D01*
X139648112Y-99569863D01*
X139712941Y-99413353D01*
X139745990Y-99247203D01*
X139745990Y-99077797D01*
X139712941Y-98911647D01*
X139648112Y-98755137D01*
X139553995Y-98614282D01*
X139434208Y-98494495D01*
X139393504Y-98467297D01*
X148873000Y-98467297D01*
X148873000Y-98636703D01*
X148906049Y-98802853D01*
X148970878Y-98959363D01*
X149064995Y-99100218D01*
X149184782Y-99220005D01*
X149325637Y-99314122D01*
X149482147Y-99378951D01*
X149648297Y-99412000D01*
X149817703Y-99412000D01*
X149983853Y-99378951D01*
X150140363Y-99314122D01*
X150281218Y-99220005D01*
X150401005Y-99100218D01*
X150495122Y-98959363D01*
X150559951Y-98802853D01*
X150593000Y-98636703D01*
X150593000Y-98467297D01*
X150559951Y-98301147D01*
X150495122Y-98144637D01*
X150401005Y-98003782D01*
X150281218Y-97883995D01*
X150140363Y-97789878D01*
X149983853Y-97725049D01*
X149817703Y-97692000D01*
X149648297Y-97692000D01*
X149482147Y-97725049D01*
X149325637Y-97789878D01*
X149184782Y-97883995D01*
X149064995Y-98003782D01*
X148970878Y-98144637D01*
X148906049Y-98301147D01*
X148873000Y-98467297D01*
X139393504Y-98467297D01*
X139293353Y-98400378D01*
X139136843Y-98335549D01*
X138970693Y-98302500D01*
X138801287Y-98302500D01*
X138751202Y-98312462D01*
X138748951Y-98301147D01*
X138684122Y-98144637D01*
X138590005Y-98003782D01*
X138470218Y-97883995D01*
X138329363Y-97789878D01*
X138172853Y-97725049D01*
X138006703Y-97692000D01*
X137837297Y-97692000D01*
X137671147Y-97725049D01*
X137541000Y-97778958D01*
X137410853Y-97725049D01*
X137244703Y-97692000D01*
X137075297Y-97692000D01*
X136909147Y-97725049D01*
X136752637Y-97789878D01*
X136611782Y-97883995D01*
X136491995Y-98003782D01*
X136397878Y-98144637D01*
X136333049Y-98301147D01*
X136300000Y-98467297D01*
X132568340Y-98467297D01*
X132607000Y-98272939D01*
X132607000Y-98069061D01*
X132567226Y-97869102D01*
X132489205Y-97680744D01*
X132375937Y-97511226D01*
X132231774Y-97367063D01*
X132062256Y-97253795D01*
X131873898Y-97175774D01*
X131673939Y-97136000D01*
X131470061Y-97136000D01*
X131270102Y-97175774D01*
X131081744Y-97253795D01*
X130912226Y-97367063D01*
X130768063Y-97511226D01*
X130654795Y-97680744D01*
X130576774Y-97869102D01*
X130537000Y-98069061D01*
X111023000Y-98069061D01*
X111023000Y-97243000D01*
X118145928Y-97243000D01*
X118158188Y-97367482D01*
X118194498Y-97487180D01*
X118253463Y-97597494D01*
X118332815Y-97694185D01*
X118429506Y-97773537D01*
X118539820Y-97832502D01*
X118659518Y-97868812D01*
X118784000Y-97881072D01*
X119348250Y-97878000D01*
X119507000Y-97719250D01*
X119507000Y-96520000D01*
X119761000Y-96520000D01*
X119761000Y-97719250D01*
X119919750Y-97878000D01*
X120484000Y-97881072D01*
X120608482Y-97868812D01*
X120728180Y-97832502D01*
X120838494Y-97773537D01*
X120935185Y-97694185D01*
X121014537Y-97597494D01*
X121073502Y-97487180D01*
X121109812Y-97367482D01*
X121122072Y-97243000D01*
X121119000Y-96678750D01*
X120960250Y-96520000D01*
X119761000Y-96520000D01*
X119507000Y-96520000D01*
X118307750Y-96520000D01*
X118149000Y-96678750D01*
X118145928Y-97243000D01*
X111023000Y-97243000D01*
X111023000Y-95664881D01*
X111651724Y-95664881D01*
X112011912Y-96154548D01*
X112675882Y-96514849D01*
X113397385Y-96738694D01*
X114148695Y-96817480D01*
X114900938Y-96748178D01*
X115625208Y-96533452D01*
X115844404Y-96418061D01*
X147301000Y-96418061D01*
X147301000Y-96621939D01*
X147340774Y-96821898D01*
X147418795Y-97010256D01*
X147532063Y-97179774D01*
X147676226Y-97323937D01*
X147845744Y-97437205D01*
X148034102Y-97515226D01*
X148234061Y-97555000D01*
X148437939Y-97555000D01*
X148637898Y-97515226D01*
X148826256Y-97437205D01*
X148995774Y-97323937D01*
X149139937Y-97179774D01*
X149253205Y-97010256D01*
X149331226Y-96821898D01*
X149371000Y-96621939D01*
X149371000Y-96418061D01*
X149331226Y-96218102D01*
X149253205Y-96029744D01*
X149139937Y-95860226D01*
X148995774Y-95716063D01*
X148919175Y-95664881D01*
X162197724Y-95664881D01*
X162557912Y-96154548D01*
X163221882Y-96514849D01*
X163943385Y-96738694D01*
X164694695Y-96817480D01*
X165446938Y-96748178D01*
X166171208Y-96533452D01*
X166839670Y-96181555D01*
X166880088Y-96154548D01*
X167240276Y-95664881D01*
X164719000Y-93143605D01*
X162197724Y-95664881D01*
X148919175Y-95664881D01*
X148826256Y-95602795D01*
X148637898Y-95524774D01*
X148437939Y-95485000D01*
X148234061Y-95485000D01*
X148034102Y-95524774D01*
X147845744Y-95602795D01*
X147676226Y-95716063D01*
X147532063Y-95860226D01*
X147418795Y-96029744D01*
X147340774Y-96218102D01*
X147301000Y-96418061D01*
X115844404Y-96418061D01*
X116293670Y-96181555D01*
X116334088Y-96154548D01*
X116694276Y-95664881D01*
X116572395Y-95543000D01*
X118145928Y-95543000D01*
X118149000Y-96107250D01*
X118307750Y-96266000D01*
X119507000Y-96266000D01*
X119507000Y-96246000D01*
X119761000Y-96246000D01*
X119761000Y-96266000D01*
X120960250Y-96266000D01*
X121119000Y-96107250D01*
X121122072Y-95543000D01*
X121109812Y-95418518D01*
X121073502Y-95298820D01*
X121014537Y-95188506D01*
X120935185Y-95091815D01*
X120866973Y-95035835D01*
X133608000Y-95035835D01*
X133608000Y-95210165D01*
X133642010Y-95381145D01*
X133708723Y-95542205D01*
X133805576Y-95687155D01*
X133928845Y-95810424D01*
X134073795Y-95907277D01*
X134234855Y-95973990D01*
X134405835Y-96008000D01*
X134580165Y-96008000D01*
X134751145Y-95973990D01*
X134912205Y-95907277D01*
X135057155Y-95810424D01*
X135180424Y-95687155D01*
X135277277Y-95542205D01*
X135343990Y-95381145D01*
X135378000Y-95210165D01*
X135378000Y-95035835D01*
X135343990Y-94864855D01*
X135277277Y-94703795D01*
X135180424Y-94558845D01*
X135151876Y-94530297D01*
X136300000Y-94530297D01*
X136300000Y-94699703D01*
X136333049Y-94865853D01*
X136397878Y-95022363D01*
X136491995Y-95163218D01*
X136611782Y-95283005D01*
X136752637Y-95377122D01*
X136909147Y-95441951D01*
X137075297Y-95475000D01*
X137244703Y-95475000D01*
X137410853Y-95441951D01*
X137567363Y-95377122D01*
X137708218Y-95283005D01*
X137828005Y-95163218D01*
X137922122Y-95022363D01*
X137986951Y-94865853D01*
X138006726Y-94766437D01*
X138024226Y-94783937D01*
X138193744Y-94897205D01*
X138382102Y-94975226D01*
X138582061Y-95015000D01*
X138785939Y-95015000D01*
X138985898Y-94975226D01*
X139174256Y-94897205D01*
X139343774Y-94783937D01*
X139487937Y-94639774D01*
X139601205Y-94470256D01*
X139679226Y-94281898D01*
X139719000Y-94081939D01*
X139719000Y-94005061D01*
X156572000Y-94005061D01*
X156572000Y-94208939D01*
X156611774Y-94408898D01*
X156689795Y-94597256D01*
X156803063Y-94766774D01*
X156947226Y-94910937D01*
X157116744Y-95024205D01*
X157305102Y-95102226D01*
X157505061Y-95142000D01*
X157708939Y-95142000D01*
X157908898Y-95102226D01*
X158097256Y-95024205D01*
X158266774Y-94910937D01*
X158410937Y-94766774D01*
X158524205Y-94597256D01*
X158602226Y-94408898D01*
X158642000Y-94208939D01*
X158642000Y-94005061D01*
X158602226Y-93805102D01*
X158524205Y-93616744D01*
X158410937Y-93447226D01*
X158266774Y-93303063D01*
X158097256Y-93189795D01*
X157908898Y-93111774D01*
X157708939Y-93072000D01*
X157505061Y-93072000D01*
X157305102Y-93111774D01*
X157116744Y-93189795D01*
X156947226Y-93303063D01*
X156803063Y-93447226D01*
X156689795Y-93616744D01*
X156611774Y-93805102D01*
X156572000Y-94005061D01*
X139719000Y-94005061D01*
X139719000Y-93878061D01*
X139679226Y-93678102D01*
X139601205Y-93489744D01*
X139487937Y-93320226D01*
X139343774Y-93176063D01*
X139174256Y-93062795D01*
X139037859Y-93006297D01*
X144936000Y-93006297D01*
X144936000Y-93175703D01*
X144969049Y-93341853D01*
X145033878Y-93498363D01*
X145127995Y-93639218D01*
X145247782Y-93759005D01*
X145388637Y-93853122D01*
X145545147Y-93917951D01*
X145711297Y-93951000D01*
X145880703Y-93951000D01*
X146046853Y-93917951D01*
X146203363Y-93853122D01*
X146344218Y-93759005D01*
X146464005Y-93639218D01*
X146558122Y-93498363D01*
X146622951Y-93341853D01*
X146656000Y-93175703D01*
X146656000Y-93006297D01*
X146622951Y-92840147D01*
X146558122Y-92683637D01*
X146464005Y-92542782D01*
X146344218Y-92422995D01*
X146203363Y-92328878D01*
X146046853Y-92264049D01*
X145880703Y-92231000D01*
X145711297Y-92231000D01*
X145545147Y-92264049D01*
X145388637Y-92328878D01*
X145247782Y-92422995D01*
X145127995Y-92542782D01*
X145033878Y-92683637D01*
X144969049Y-92840147D01*
X144936000Y-93006297D01*
X139037859Y-93006297D01*
X138985898Y-92984774D01*
X138785939Y-92945000D01*
X138582061Y-92945000D01*
X138382102Y-92984774D01*
X138193744Y-93062795D01*
X138024226Y-93176063D01*
X137880063Y-93320226D01*
X137766795Y-93489744D01*
X137688774Y-93678102D01*
X137649000Y-93878061D01*
X137649000Y-93907427D01*
X137567363Y-93852878D01*
X137410853Y-93788049D01*
X137244703Y-93755000D01*
X137075297Y-93755000D01*
X136909147Y-93788049D01*
X136752637Y-93852878D01*
X136611782Y-93946995D01*
X136491995Y-94066782D01*
X136397878Y-94207637D01*
X136333049Y-94364147D01*
X136300000Y-94530297D01*
X135151876Y-94530297D01*
X135057155Y-94435576D01*
X134912205Y-94338723D01*
X134751145Y-94272010D01*
X134580165Y-94238000D01*
X134405835Y-94238000D01*
X134234855Y-94272010D01*
X134073795Y-94338723D01*
X133928845Y-94435576D01*
X133805576Y-94558845D01*
X133708723Y-94703795D01*
X133642010Y-94864855D01*
X133608000Y-95035835D01*
X120866973Y-95035835D01*
X120838494Y-95012463D01*
X120728180Y-94953498D01*
X120655620Y-94931487D01*
X120787475Y-94799632D01*
X120949990Y-94556411D01*
X121061932Y-94286158D01*
X121119000Y-93999260D01*
X121119000Y-93706740D01*
X121061932Y-93419842D01*
X120951429Y-93153061D01*
X128124000Y-93153061D01*
X128124000Y-93356939D01*
X128163774Y-93556898D01*
X128241795Y-93745256D01*
X128355063Y-93914774D01*
X128499226Y-94058937D01*
X128668744Y-94172205D01*
X128857102Y-94250226D01*
X129057061Y-94290000D01*
X129260939Y-94290000D01*
X129460898Y-94250226D01*
X129649256Y-94172205D01*
X129818774Y-94058937D01*
X129962937Y-93914774D01*
X130076205Y-93745256D01*
X130154226Y-93556898D01*
X130194000Y-93356939D01*
X130194000Y-93153061D01*
X130154226Y-92953102D01*
X130076205Y-92764744D01*
X129962937Y-92595226D01*
X129818774Y-92451063D01*
X129649256Y-92337795D01*
X129460898Y-92259774D01*
X129260939Y-92220000D01*
X129057061Y-92220000D01*
X128857102Y-92259774D01*
X128668744Y-92337795D01*
X128499226Y-92451063D01*
X128355063Y-92595226D01*
X128241795Y-92764744D01*
X128163774Y-92953102D01*
X128124000Y-93153061D01*
X120951429Y-93153061D01*
X120949990Y-93149589D01*
X120787475Y-92906368D01*
X120580632Y-92699525D01*
X120337411Y-92537010D01*
X120067158Y-92425068D01*
X119780260Y-92368000D01*
X119487740Y-92368000D01*
X119200842Y-92425068D01*
X118930589Y-92537010D01*
X118687368Y-92699525D01*
X118480525Y-92906368D01*
X118318010Y-93149589D01*
X118206068Y-93419842D01*
X118149000Y-93706740D01*
X118149000Y-93999260D01*
X118206068Y-94286158D01*
X118318010Y-94556411D01*
X118480525Y-94799632D01*
X118612380Y-94931487D01*
X118539820Y-94953498D01*
X118429506Y-95012463D01*
X118332815Y-95091815D01*
X118253463Y-95188506D01*
X118194498Y-95298820D01*
X118158188Y-95418518D01*
X118145928Y-95543000D01*
X116572395Y-95543000D01*
X114173000Y-93143605D01*
X111651724Y-95664881D01*
X111023000Y-95664881D01*
X111023000Y-95154914D01*
X111472119Y-95485276D01*
X113993395Y-92964000D01*
X114352605Y-92964000D01*
X116873881Y-95485276D01*
X117363548Y-95125088D01*
X117723849Y-94461118D01*
X117947694Y-93739615D01*
X118026480Y-92988305D01*
X117957178Y-92236062D01*
X117897866Y-92036000D01*
X132369928Y-92036000D01*
X132382188Y-92160482D01*
X132418498Y-92280180D01*
X132477463Y-92390494D01*
X132556815Y-92487185D01*
X132653506Y-92566537D01*
X132763820Y-92625502D01*
X132883518Y-92661812D01*
X133008000Y-92674072D01*
X133572250Y-92671000D01*
X133731000Y-92512250D01*
X133731000Y-91313000D01*
X132531750Y-91313000D01*
X132373000Y-91471750D01*
X132369928Y-92036000D01*
X117897866Y-92036000D01*
X117742452Y-91511792D01*
X117390555Y-90843330D01*
X117363548Y-90802912D01*
X116873881Y-90442724D01*
X114352605Y-92964000D01*
X113993395Y-92964000D01*
X113979253Y-92949858D01*
X114158858Y-92770253D01*
X114173000Y-92784395D01*
X116694276Y-90263119D01*
X116363914Y-89814000D01*
X132643104Y-89814000D01*
X132556815Y-89884815D01*
G37*
X132556815Y-89884815D02*
X132477463Y-89981506D01*
X132418498Y-90091820D01*
X132382188Y-90211518D01*
X132369928Y-90336000D01*
X132373000Y-90900250D01*
X132531750Y-91059000D01*
X133731000Y-91059000D01*
X133731000Y-91039000D01*
X133985000Y-91039000D01*
X133985000Y-91059000D01*
X134005000Y-91059000D01*
X134005000Y-91313000D01*
X133985000Y-91313000D01*
X133985000Y-92512250D01*
X134143750Y-92671000D01*
X134708000Y-92674072D01*
X134832482Y-92661812D01*
X134952180Y-92625502D01*
X135062494Y-92566537D01*
X135159185Y-92487185D01*
X135238537Y-92390494D01*
X135297502Y-92280180D01*
X135319513Y-92207620D01*
X135451368Y-92339475D01*
X135694589Y-92501990D01*
X135964842Y-92613932D01*
X136251740Y-92671000D01*
X136544260Y-92671000D01*
X136831158Y-92613932D01*
X137101411Y-92501990D01*
X137344632Y-92339475D01*
X137551475Y-92132632D01*
X137668000Y-91958240D01*
X137784525Y-92132632D01*
X137991368Y-92339475D01*
X138234589Y-92501990D01*
X138504842Y-92613932D01*
X138791740Y-92671000D01*
X139084260Y-92671000D01*
X139371158Y-92613932D01*
X139641411Y-92501990D01*
X139884632Y-92339475D01*
X140091475Y-92132632D01*
X140208000Y-91958240D01*
X140324525Y-92132632D01*
X140531368Y-92339475D01*
X140774589Y-92501990D01*
X141044842Y-92613932D01*
X141331740Y-92671000D01*
X141624260Y-92671000D01*
X141911158Y-92613932D01*
X142181411Y-92501990D01*
X142424632Y-92339475D01*
X142631475Y-92132632D01*
X142793990Y-91889411D01*
X142905932Y-91619158D01*
X142945400Y-91420740D01*
X153582000Y-91420740D01*
X153582000Y-91713260D01*
X153639068Y-92000158D01*
X153751010Y-92270411D01*
X153913525Y-92513632D01*
X154120368Y-92720475D01*
X154363589Y-92882990D01*
X154633842Y-92994932D01*
X154920740Y-93052000D01*
X155213260Y-93052000D01*
X155500158Y-92994932D01*
X155770411Y-92882990D01*
X156013632Y-92720475D01*
X156145487Y-92588620D01*
X156167498Y-92661180D01*
X156226463Y-92771494D01*
X156305815Y-92868185D01*
X156402506Y-92947537D01*
X156512820Y-93006502D01*
X156632518Y-93042812D01*
X156757000Y-93055072D01*
X157321250Y-93052000D01*
X157480000Y-92893250D01*
X157480000Y-91694000D01*
X157734000Y-91694000D01*
X157734000Y-92893250D01*
X157892750Y-93052000D01*
X158457000Y-93055072D01*
X158581482Y-93042812D01*
X158701180Y-93006502D01*
X158811494Y-92947537D01*
X158821049Y-92939695D01*
X160865520Y-92939695D01*
X160934822Y-93691938D01*
X161149548Y-94416208D01*
X161501445Y-95084670D01*
X161528452Y-95125088D01*
X162018119Y-95485276D01*
X164539395Y-92964000D01*
X162018119Y-90442724D01*
X161528452Y-90802912D01*
X161168151Y-91466882D01*
X160944306Y-92188385D01*
X160865520Y-92939695D01*
X158821049Y-92939695D01*
X158908185Y-92868185D01*
X158987537Y-92771494D01*
X159046502Y-92661180D01*
X159082812Y-92541482D01*
X159095072Y-92417000D01*
X159092000Y-91852750D01*
X158933250Y-91694000D01*
X157734000Y-91694000D01*
X157480000Y-91694000D01*
X157460000Y-91694000D01*
X157460000Y-91440000D01*
X157480000Y-91440000D01*
X157480000Y-90240750D01*
X157734000Y-90240750D01*
X157734000Y-91440000D01*
X158933250Y-91440000D01*
X159092000Y-91281250D01*
X159095072Y-90717000D01*
X159082812Y-90592518D01*
X159046502Y-90472820D01*
X158987537Y-90362506D01*
X158908185Y-90265815D01*
X158811494Y-90186463D01*
X158701180Y-90127498D01*
X158581482Y-90091188D01*
X158457000Y-90078928D01*
X157892750Y-90082000D01*
X157734000Y-90240750D01*
X157480000Y-90240750D01*
X157321250Y-90082000D01*
X156757000Y-90078928D01*
X156632518Y-90091188D01*
X156512820Y-90127498D01*
X156402506Y-90186463D01*
X156305815Y-90265815D01*
X156226463Y-90362506D01*
X156167498Y-90472820D01*
X156145487Y-90545380D01*
X156013632Y-90413525D01*
X155770411Y-90251010D01*
X155500158Y-90139068D01*
X155213260Y-90082000D01*
X154920740Y-90082000D01*
X154633842Y-90139068D01*
X154363589Y-90251010D01*
X154120368Y-90413525D01*
X153913525Y-90620368D01*
X153751010Y-90863589D01*
X153639068Y-91133842D01*
X153582000Y-91420740D01*
X142945400Y-91420740D01*
X142963000Y-91332260D01*
X142963000Y-91039740D01*
X142905932Y-90752842D01*
X142793990Y-90482589D01*
X142631475Y-90239368D01*
X142424632Y-90032525D01*
X142181411Y-89870010D01*
X142046190Y-89814000D01*
X162528086Y-89814000D01*
X162197724Y-90263119D01*
X164719000Y-92784395D01*
X164733143Y-92770253D01*
X164912748Y-92949858D01*
X164898605Y-92964000D01*
X167419881Y-95485276D01*
X167869000Y-95154914D01*
X167869001Y-115411086D01*
X167419881Y-115080724D01*
X164898605Y-117602000D01*
X164912748Y-117616143D01*
X164733143Y-117795748D01*
X164719000Y-117781605D01*
X162197724Y-120302881D01*
X162528086Y-120752000D01*
X151159770Y-120752000D01*
X151172502Y-120728180D01*
X151208812Y-120608482D01*
X151221072Y-120484000D01*
X151221072Y-118784000D01*
X151208812Y-118659518D01*
X151172502Y-118539820D01*
X151113537Y-118429506D01*
X151034185Y-118332815D01*
X150937494Y-118253463D01*
X150827180Y-118194498D01*
X150707482Y-118158188D01*
X150583000Y-118145928D01*
X148883000Y-118145928D01*
X148758518Y-118158188D01*
X148638820Y-118194498D01*
X148528506Y-118253463D01*
X148431815Y-118332815D01*
X148352463Y-118429506D01*
X148293498Y-118539820D01*
X148271487Y-118612380D01*
X148139632Y-118480525D01*
X147896411Y-118318010D01*
X147626158Y-118206068D01*
X147339260Y-118149000D01*
X147046740Y-118149000D01*
X146759842Y-118206068D01*
X146489589Y-118318010D01*
X146246368Y-118480525D01*
X146039525Y-118687368D01*
X145917805Y-118869534D01*
X145848178Y-118752645D01*
X145653269Y-118536412D01*
X145419920Y-118362359D01*
X145157099Y-118237175D01*
X145009890Y-118192524D01*
X144780000Y-118313845D01*
X144780000Y-119507000D01*
X144800000Y-119507000D01*
X144800000Y-119761000D01*
X144780000Y-119761000D01*
X144780000Y-119781000D01*
X144526000Y-119781000D01*
X144526000Y-119761000D01*
X144506000Y-119761000D01*
X144506000Y-119507000D01*
X144526000Y-119507000D01*
X144526000Y-118313845D01*
X144296110Y-118192524D01*
X144148901Y-118237175D01*
X143886080Y-118362359D01*
X143652731Y-118536412D01*
X143457822Y-118752645D01*
X143388195Y-118869534D01*
X143266475Y-118687368D01*
X143059632Y-118480525D01*
X142816411Y-118318010D01*
X142546158Y-118206068D01*
X142259260Y-118149000D01*
X141966740Y-118149000D01*
X141679842Y-118206068D01*
X141409589Y-118318010D01*
X141166368Y-118480525D01*
X140959525Y-118687368D01*
X140843000Y-118861760D01*
X140726475Y-118687368D01*
X140519632Y-118480525D01*
X140276411Y-118318010D01*
X140006158Y-118206068D01*
X139719260Y-118149000D01*
X139426740Y-118149000D01*
X139139842Y-118206068D01*
X138869589Y-118318010D01*
X138626368Y-118480525D01*
X138419525Y-118687368D01*
X138303000Y-118861760D01*
X138186475Y-118687368D01*
X137979632Y-118480525D01*
X137736411Y-118318010D01*
X137466158Y-118206068D01*
X137179260Y-118149000D01*
X137157832Y-118149000D01*
X137198205Y-118132277D01*
X137343155Y-118035424D01*
X137466424Y-117912155D01*
X137563277Y-117767205D01*
X137629990Y-117606145D01*
X137635649Y-117577695D01*
X160865520Y-117577695D01*
X160934822Y-118329938D01*
X161149548Y-119054208D01*
X161501445Y-119722670D01*
X161528452Y-119763088D01*
X162018119Y-120123276D01*
X164539395Y-117602000D01*
X162018119Y-115080724D01*
X161528452Y-115440912D01*
X161168151Y-116104882D01*
X160944306Y-116826385D01*
X160865520Y-117577695D01*
X137635649Y-117577695D01*
X137664000Y-117435165D01*
X137664000Y-117260835D01*
X137629990Y-117089855D01*
X137563277Y-116928795D01*
X137466424Y-116783845D01*
X137343155Y-116660576D01*
X137198205Y-116563723D01*
X137037145Y-116497010D01*
X136866165Y-116463000D01*
X136691835Y-116463000D01*
X136520855Y-116497010D01*
X136359795Y-116563723D01*
X136214845Y-116660576D01*
X136091576Y-116783845D01*
X135994723Y-116928795D01*
X135928010Y-117089855D01*
X135894000Y-117260835D01*
X135894000Y-117435165D01*
X135928010Y-117606145D01*
X135994723Y-117767205D01*
X136091576Y-117912155D01*
X136214845Y-118035424D01*
X136359795Y-118132277D01*
X136520855Y-118198990D01*
X136585761Y-118211901D01*
X136329589Y-118318010D01*
X136086368Y-118480525D01*
X135879525Y-118687368D01*
X135717010Y-118930589D01*
X135605068Y-119200842D01*
X135548000Y-119487740D01*
X135548000Y-119780260D01*
X135605068Y-120067158D01*
X135717010Y-120337411D01*
X135879525Y-120580632D01*
X136050893Y-120752000D01*
X116363914Y-120752000D01*
X116694276Y-120302881D01*
X114173000Y-117781605D01*
X114158858Y-117795748D01*
X113979253Y-117616143D01*
X113993395Y-117602000D01*
X114352605Y-117602000D01*
X116873881Y-120123276D01*
X117363548Y-119763088D01*
X117723849Y-119099118D01*
X117947694Y-118377615D01*
X118026480Y-117626305D01*
X117957178Y-116874062D01*
X117803902Y-116357061D01*
X156445000Y-116357061D01*
X156445000Y-116560939D01*
X156484774Y-116760898D01*
X156562795Y-116949256D01*
X156676063Y-117118774D01*
X156820226Y-117262937D01*
X156989744Y-117376205D01*
X157178102Y-117454226D01*
X157378061Y-117494000D01*
X157581939Y-117494000D01*
X157781898Y-117454226D01*
X157970256Y-117376205D01*
X158139774Y-117262937D01*
X158283937Y-117118774D01*
X158397205Y-116949256D01*
X158475226Y-116760898D01*
X158515000Y-116560939D01*
X158515000Y-116357061D01*
X158475226Y-116157102D01*
X158397205Y-115968744D01*
X158283937Y-115799226D01*
X158139774Y-115655063D01*
X157970256Y-115541795D01*
X157781898Y-115463774D01*
X157581939Y-115424000D01*
X157378061Y-115424000D01*
X157178102Y-115463774D01*
X156989744Y-115541795D01*
X156820226Y-115655063D01*
X156676063Y-115799226D01*
X156562795Y-115968744D01*
X156484774Y-116157102D01*
X156445000Y-116357061D01*
X117803902Y-116357061D01*
X117742452Y-116149792D01*
X117390555Y-115481330D01*
X117363548Y-115440912D01*
X116873881Y-115080724D01*
X114352605Y-117602000D01*
X113993395Y-117602000D01*
X111472119Y-115080724D01*
X111023000Y-115411086D01*
X111023000Y-114901119D01*
X111651724Y-114901119D01*
X114173000Y-117422395D01*
X116694276Y-114901119D01*
X162197724Y-114901119D01*
X164719000Y-117422395D01*
X167240276Y-114901119D01*
X166880088Y-114411452D01*
X166216118Y-114051151D01*
X165494615Y-113827306D01*
X164743305Y-113748520D01*
X163991062Y-113817822D01*
X163266792Y-114032548D01*
X162598330Y-114384445D01*
X162557912Y-114411452D01*
X162197724Y-114901119D01*
X116694276Y-114901119D01*
X116334088Y-114411452D01*
X115670118Y-114051151D01*
X114948615Y-113827306D01*
X114197305Y-113748520D01*
X113445062Y-113817822D01*
X112720792Y-114032548D01*
X112052330Y-114384445D01*
X112011912Y-114411452D01*
X111651724Y-114901119D01*
X111023000Y-114901119D01*
X111023000Y-112945297D01*
X140364000Y-112945297D01*
X140364000Y-113114703D01*
X140397049Y-113280853D01*
X140461878Y-113437363D01*
X140555995Y-113578218D01*
X140675782Y-113698005D01*
X140816637Y-113792122D01*
X140973147Y-113856951D01*
X141139297Y-113890000D01*
X141308703Y-113890000D01*
X141474853Y-113856951D01*
X141631363Y-113792122D01*
X141772218Y-113698005D01*
X141892005Y-113578218D01*
X141986122Y-113437363D01*
X142050951Y-113280853D01*
X142084000Y-113114703D01*
X142084000Y-112945297D01*
X142050951Y-112779147D01*
X141986122Y-112622637D01*
X141892005Y-112481782D01*
X141772218Y-112361995D01*
X141631363Y-112267878D01*
X141474853Y-112203049D01*
X141308703Y-112170000D01*
X141139297Y-112170000D01*
X140973147Y-112203049D01*
X140816637Y-112267878D01*
X140675782Y-112361995D01*
X140555995Y-112481782D01*
X140461878Y-112622637D01*
X140397049Y-112779147D01*
X140364000Y-112945297D01*
X111023000Y-112945297D01*
X111023000Y-110902300D01*
X111040788Y-110911808D01*
X111264915Y-110979796D01*
X111439589Y-110997000D01*
X112664411Y-110997000D01*
X112839085Y-110979796D01*
X113063212Y-110911808D01*
X113269769Y-110801401D01*
X113450818Y-110652818D01*
X113599401Y-110471769D01*
X113709808Y-110265212D01*
X113742000Y-110159089D01*
X113774192Y-110265212D01*
X113884599Y-110471769D01*
X114033182Y-110652818D01*
X114214231Y-110801401D01*
X114420788Y-110911808D01*
X114644915Y-110979796D01*
X114819589Y-110997000D01*
X116044411Y-110997000D01*
X116219085Y-110979796D01*
X116443212Y-110911808D01*
X116472672Y-110896061D01*
X133204000Y-110896061D01*
X133204000Y-111099939D01*
X133243774Y-111299898D01*
X133321795Y-111488256D01*
X133435063Y-111657774D01*
X133579226Y-111801937D01*
X133748744Y-111915205D01*
X133937102Y-111993226D01*
X134137061Y-112033000D01*
X134340939Y-112033000D01*
X134540898Y-111993226D01*
X134729256Y-111915205D01*
X134898774Y-111801937D01*
X135042937Y-111657774D01*
X135156205Y-111488256D01*
X135234226Y-111299898D01*
X135274000Y-111099939D01*
X135274000Y-110896061D01*
X135234226Y-110696102D01*
X135156205Y-110507744D01*
X135042937Y-110338226D01*
X134898774Y-110194063D01*
X134729256Y-110080795D01*
X134540898Y-110002774D01*
X134340939Y-109963000D01*
X134137061Y-109963000D01*
X133937102Y-110002774D01*
X133748744Y-110080795D01*
X133579226Y-110194063D01*
X133435063Y-110338226D01*
X133321795Y-110507744D01*
X133243774Y-110696102D01*
X133204000Y-110896061D01*
X116472672Y-110896061D01*
X116649769Y-110801401D01*
X116830818Y-110652818D01*
X116979401Y-110471769D01*
X117089808Y-110265212D01*
X117157796Y-110041085D01*
X117173484Y-109881797D01*
X135553500Y-109881797D01*
X135553500Y-110051203D01*
X135586549Y-110217353D01*
X135651378Y-110373863D01*
X135745495Y-110514718D01*
X135865282Y-110634505D01*
X136006137Y-110728622D01*
X136162647Y-110793451D01*
X136328797Y-110826500D01*
X136498203Y-110826500D01*
X136664353Y-110793451D01*
X136820863Y-110728622D01*
X136901527Y-110674723D01*
X137006137Y-110744622D01*
X137162647Y-110809451D01*
X137328797Y-110842500D01*
X137498203Y-110842500D01*
X137664353Y-110809451D01*
X137820863Y-110744622D01*
X137961718Y-110650505D01*
X138081505Y-110530718D01*
X138175622Y-110389863D01*
X138228973Y-110261061D01*
X143872000Y-110261061D01*
X143872000Y-110464939D01*
X143911774Y-110664898D01*
X143989795Y-110853256D01*
X144103063Y-111022774D01*
X144247226Y-111166937D01*
X144416744Y-111280205D01*
X144605102Y-111358226D01*
X144805061Y-111398000D01*
X145008939Y-111398000D01*
X145208898Y-111358226D01*
X145397256Y-111280205D01*
X145566774Y-111166937D01*
X145710937Y-111022774D01*
X145824205Y-110853256D01*
X145902226Y-110664898D01*
X145942000Y-110464939D01*
X145942000Y-110261061D01*
X145920167Y-110151297D01*
X151032000Y-110151297D01*
X151032000Y-110320703D01*
X151065049Y-110486853D01*
X151129878Y-110643363D01*
X151223995Y-110784218D01*
X151343782Y-110904005D01*
X151484637Y-110998122D01*
X151641147Y-111062951D01*
X151807297Y-111096000D01*
X151976703Y-111096000D01*
X152142853Y-111062951D01*
X152299363Y-110998122D01*
X152440218Y-110904005D01*
X152560005Y-110784218D01*
X152654122Y-110643363D01*
X152718951Y-110486853D01*
X152752000Y-110320703D01*
X152752000Y-110203000D01*
X157134764Y-110203000D01*
X157159652Y-110455688D01*
X157233358Y-110698665D01*
X157353051Y-110922595D01*
X157514130Y-111118870D01*
X157710405Y-111279949D01*
X157934335Y-111399642D01*
X158177312Y-111473348D01*
X158366686Y-111492000D01*
X159801314Y-111492000D01*
X159990688Y-111473348D01*
X160233665Y-111399642D01*
X160457595Y-111279949D01*
X160653870Y-111118870D01*
X160814949Y-110922595D01*
X160934642Y-110698665D01*
X161008348Y-110455688D01*
X161033236Y-110203000D01*
X161021256Y-110081363D01*
X162849000Y-110081363D01*
X162849000Y-110324637D01*
X162896460Y-110563236D01*
X162989557Y-110787992D01*
X163124713Y-110990267D01*
X163296733Y-111162287D01*
X163499008Y-111297443D01*
X163723764Y-111390540D01*
X163962363Y-111438000D01*
X164205637Y-111438000D01*
X164444236Y-111390540D01*
X164668992Y-111297443D01*
X164871267Y-111162287D01*
X165043287Y-110990267D01*
X165178443Y-110787992D01*
X165271540Y-110563236D01*
X165319000Y-110324637D01*
X165319000Y-110081363D01*
X165349000Y-110081363D01*
X165349000Y-110324637D01*
X165396460Y-110563236D01*
X165489557Y-110787992D01*
X165624713Y-110990267D01*
X165796733Y-111162287D01*
X165999008Y-111297443D01*
X166223764Y-111390540D01*
X166462363Y-111438000D01*
X166705637Y-111438000D01*
X166944236Y-111390540D01*
X167168992Y-111297443D01*
X167371267Y-111162287D01*
X167543287Y-110990267D01*
X167678443Y-110787992D01*
X167771540Y-110563236D01*
X167819000Y-110324637D01*
X167819000Y-110081363D01*
X167771540Y-109842764D01*
X167678443Y-109618008D01*
X167543287Y-109415733D01*
X167371267Y-109243713D01*
X167168992Y-109108557D01*
X166944236Y-109015460D01*
X166705637Y-108968000D01*
X166462363Y-108968000D01*
X166223764Y-109015460D01*
X165999008Y-109108557D01*
X165796733Y-109243713D01*
X165624713Y-109415733D01*
X165489557Y-109618008D01*
X165396460Y-109842764D01*
X165349000Y-110081363D01*
X165319000Y-110081363D01*
X165271540Y-109842764D01*
X165178443Y-109618008D01*
X165043287Y-109415733D01*
X164871267Y-109243713D01*
X164668992Y-109108557D01*
X164444236Y-109015460D01*
X164205637Y-108968000D01*
X163962363Y-108968000D01*
X163723764Y-109015460D01*
X163499008Y-109108557D01*
X163296733Y-109243713D01*
X163124713Y-109415733D01*
X162989557Y-109618008D01*
X162896460Y-109842764D01*
X162849000Y-110081363D01*
X161021256Y-110081363D01*
X161008348Y-109950312D01*
X160934642Y-109707335D01*
X160814949Y-109483405D01*
X160653870Y-109287130D01*
X160457595Y-109126051D01*
X160233665Y-109006358D01*
X159990688Y-108932652D01*
X159801314Y-108914000D01*
X158366686Y-108914000D01*
X158177312Y-108932652D01*
X157934335Y-109006358D01*
X157710405Y-109126051D01*
X157514130Y-109287130D01*
X157353051Y-109483405D01*
X157233358Y-109707335D01*
X157159652Y-109950312D01*
X157134764Y-110203000D01*
X152752000Y-110203000D01*
X152752000Y-110151297D01*
X152718951Y-109985147D01*
X152654122Y-109828637D01*
X152560005Y-109687782D01*
X152440218Y-109567995D01*
X152299363Y-109473878D01*
X152142853Y-109409049D01*
X151976703Y-109376000D01*
X151807297Y-109376000D01*
X151641147Y-109409049D01*
X151484637Y-109473878D01*
X151343782Y-109567995D01*
X151223995Y-109687782D01*
X151129878Y-109828637D01*
X151065049Y-109985147D01*
X151032000Y-110151297D01*
X145920167Y-110151297D01*
X145902226Y-110061102D01*
X145824205Y-109872744D01*
X145710937Y-109703226D01*
X145566774Y-109559063D01*
X145397256Y-109445795D01*
X145208898Y-109367774D01*
X145008939Y-109328000D01*
X144805061Y-109328000D01*
X144605102Y-109367774D01*
X144416744Y-109445795D01*
X144247226Y-109559063D01*
X144103063Y-109703226D01*
X143989795Y-109872744D01*
X143911774Y-110061102D01*
X143872000Y-110261061D01*
X138228973Y-110261061D01*
X138240451Y-110233353D01*
X138273500Y-110067203D01*
X138273500Y-109897797D01*
X138240451Y-109731647D01*
X138175622Y-109575137D01*
X138081505Y-109434282D01*
X137961718Y-109314495D01*
X137820863Y-109220378D01*
X137664353Y-109155549D01*
X137498203Y-109122500D01*
X137328797Y-109122500D01*
X137162647Y-109155549D01*
X137006137Y-109220378D01*
X136925473Y-109274277D01*
X136820863Y-109204378D01*
X136664353Y-109139549D01*
X136498203Y-109106500D01*
X136328797Y-109106500D01*
X136162647Y-109139549D01*
X136006137Y-109204378D01*
X135865282Y-109298495D01*
X135745495Y-109418282D01*
X135651378Y-109559137D01*
X135586549Y-109715647D01*
X135553500Y-109881797D01*
X117173484Y-109881797D01*
X117180753Y-109808000D01*
X117157796Y-109574915D01*
X117089808Y-109350788D01*
X116979401Y-109144231D01*
X116830818Y-108963182D01*
X116649769Y-108814599D01*
X116519207Y-108744812D01*
X116412000Y-108637605D01*
X116397858Y-108651748D01*
X116313281Y-108567171D01*
X116317448Y-108568000D01*
X116506552Y-108568000D01*
X116669244Y-108535639D01*
X117064536Y-108930931D01*
X117260270Y-108917323D01*
X117333581Y-108743008D01*
X117371475Y-108557740D01*
X117372497Y-108368639D01*
X117336608Y-108182972D01*
X117275247Y-108032538D01*
X117335108Y-107888022D01*
X117372000Y-107702552D01*
X117372000Y-107513448D01*
X117362774Y-107467061D01*
X130791000Y-107467061D01*
X130791000Y-107670939D01*
X130830774Y-107870898D01*
X130908795Y-108059256D01*
X131022063Y-108228774D01*
X131166226Y-108372937D01*
X131335744Y-108486205D01*
X131524102Y-108564226D01*
X131724061Y-108604000D01*
X131927939Y-108604000D01*
X132127898Y-108564226D01*
X132316256Y-108486205D01*
X132485774Y-108372937D01*
X132629937Y-108228774D01*
X132743205Y-108059256D01*
X132821226Y-107870898D01*
X132861000Y-107670939D01*
X132861000Y-107467061D01*
X132821226Y-107267102D01*
X132743205Y-107078744D01*
X132629937Y-106909226D01*
X132570008Y-106849297D01*
X138967000Y-106849297D01*
X138967000Y-107018703D01*
X139000049Y-107184853D01*
X139064878Y-107341363D01*
X139158995Y-107482218D01*
X139278782Y-107602005D01*
X139419637Y-107696122D01*
X139576147Y-107760951D01*
X139742297Y-107794000D01*
X139911703Y-107794000D01*
X140077853Y-107760951D01*
X140234363Y-107696122D01*
X140375218Y-107602005D01*
X140495005Y-107482218D01*
X140589122Y-107341363D01*
X140653951Y-107184853D01*
X140687000Y-107018703D01*
X140687000Y-106849297D01*
X140653951Y-106683147D01*
X140589122Y-106526637D01*
X140495005Y-106385782D01*
X140375218Y-106265995D01*
X140234363Y-106171878D01*
X140077853Y-106107049D01*
X139911703Y-106074000D01*
X139742297Y-106074000D01*
X139576147Y-106107049D01*
X139419637Y-106171878D01*
X139278782Y-106265995D01*
X139158995Y-106385782D01*
X139064878Y-106526637D01*
X139000049Y-106683147D01*
X138967000Y-106849297D01*
X132570008Y-106849297D01*
X132548645Y-106827934D01*
X132629258Y-106747321D01*
X132726111Y-106602371D01*
X132774514Y-106485514D01*
X132891371Y-106437111D01*
X133036321Y-106340258D01*
X133159590Y-106216989D01*
X133256443Y-106072039D01*
X133323156Y-105910979D01*
X133357166Y-105739999D01*
X133357166Y-105565669D01*
X133323156Y-105394689D01*
X133256443Y-105233629D01*
X133159590Y-105088679D01*
X133036321Y-104965410D01*
X132891371Y-104868557D01*
X132730311Y-104801844D01*
X132559331Y-104767834D01*
X132385001Y-104767834D01*
X132214021Y-104801844D01*
X132052961Y-104868557D01*
X131908011Y-104965410D01*
X131784742Y-105088679D01*
X131687889Y-105233629D01*
X131639486Y-105350486D01*
X131522629Y-105398889D01*
X131377679Y-105495742D01*
X131254410Y-105619011D01*
X131157557Y-105763961D01*
X131090844Y-105925021D01*
X131056834Y-106096001D01*
X131056834Y-106270331D01*
X131090844Y-106441311D01*
X131157557Y-106602371D01*
X131235387Y-106718851D01*
X131166226Y-106765063D01*
X131022063Y-106909226D01*
X130908795Y-107078744D01*
X130830774Y-107267102D01*
X130791000Y-107467061D01*
X117362774Y-107467061D01*
X117335108Y-107327978D01*
X117275056Y-107183000D01*
X117335108Y-107038022D01*
X117372000Y-106852552D01*
X117372000Y-106663448D01*
X117368716Y-106646939D01*
X117434782Y-106713005D01*
X117575637Y-106807122D01*
X117732147Y-106871951D01*
X117898297Y-106905000D01*
X118067703Y-106905000D01*
X118233853Y-106871951D01*
X118390363Y-106807122D01*
X118531218Y-106713005D01*
X118651005Y-106593218D01*
X118745122Y-106452363D01*
X118792147Y-106338835D01*
X128782000Y-106338835D01*
X128782000Y-106513165D01*
X128816010Y-106684145D01*
X128882723Y-106845205D01*
X128979576Y-106990155D01*
X129102845Y-107113424D01*
X129247795Y-107210277D01*
X129408855Y-107276990D01*
X129579835Y-107311000D01*
X129754165Y-107311000D01*
X129925145Y-107276990D01*
X130086205Y-107210277D01*
X130231155Y-107113424D01*
X130354424Y-106990155D01*
X130451277Y-106845205D01*
X130517990Y-106684145D01*
X130552000Y-106513165D01*
X130552000Y-106338835D01*
X130517990Y-106167855D01*
X130451277Y-106006795D01*
X130354424Y-105861845D01*
X130231155Y-105738576D01*
X130086205Y-105641723D01*
X129925145Y-105575010D01*
X129754165Y-105541000D01*
X129579835Y-105541000D01*
X129408855Y-105575010D01*
X129247795Y-105641723D01*
X129102845Y-105738576D01*
X128979576Y-105861845D01*
X128882723Y-106006795D01*
X128816010Y-106167855D01*
X128782000Y-106338835D01*
X118792147Y-106338835D01*
X118809951Y-106295853D01*
X118843000Y-106129703D01*
X118843000Y-105960297D01*
X118809951Y-105794147D01*
X118745122Y-105637637D01*
X118651005Y-105496782D01*
X118531218Y-105376995D01*
X118390363Y-105282878D01*
X118233853Y-105218049D01*
X118067703Y-105185000D01*
X117898297Y-105185000D01*
X117732147Y-105218049D01*
X117575637Y-105282878D01*
X117434782Y-105376995D01*
X117314995Y-105496782D01*
X117293864Y-105528406D01*
X117275056Y-105483000D01*
X117335108Y-105338022D01*
X117372000Y-105152552D01*
X117372000Y-104963448D01*
X117335108Y-104777978D01*
X117275056Y-104633000D01*
X117276221Y-104630188D01*
X117314995Y-104688218D01*
X117434782Y-104808005D01*
X117575637Y-104902122D01*
X117732147Y-104966951D01*
X117898297Y-105000000D01*
X118067703Y-105000000D01*
X118233853Y-104966951D01*
X118390363Y-104902122D01*
X118531218Y-104808005D01*
X118651005Y-104688218D01*
X118745122Y-104547363D01*
X118809951Y-104390853D01*
X118843000Y-104224703D01*
X118843000Y-104055297D01*
X118809951Y-103889147D01*
X118745122Y-103732637D01*
X118651005Y-103591782D01*
X118531218Y-103471995D01*
X118390363Y-103377878D01*
X118233853Y-103313049D01*
X118067703Y-103280000D01*
X117898297Y-103280000D01*
X117732147Y-103313049D01*
X117575637Y-103377878D01*
X117434782Y-103471995D01*
X117351583Y-103555194D01*
X117372000Y-103452552D01*
X117372000Y-103263448D01*
X117335108Y-103077978D01*
X117311947Y-103022061D01*
X129394000Y-103022061D01*
X129394000Y-103225939D01*
X129433774Y-103425898D01*
X129511795Y-103614256D01*
X129625063Y-103783774D01*
X129769226Y-103927937D01*
X129938744Y-104041205D01*
X129950000Y-104045867D01*
X129950000Y-104097703D01*
X129983049Y-104263853D01*
X130047878Y-104420363D01*
X130141995Y-104561218D01*
X130261782Y-104681005D01*
X130402637Y-104775122D01*
X130559147Y-104839951D01*
X130725297Y-104873000D01*
X130894703Y-104873000D01*
X131060853Y-104839951D01*
X131217363Y-104775122D01*
X131358218Y-104681005D01*
X131478005Y-104561218D01*
X131572122Y-104420363D01*
X131625266Y-104292061D01*
X137903000Y-104292061D01*
X137903000Y-104495939D01*
X137942774Y-104695898D01*
X138020795Y-104884256D01*
X138134063Y-105053774D01*
X138278226Y-105197937D01*
X138447744Y-105311205D01*
X138636102Y-105389226D01*
X138836061Y-105429000D01*
X139039939Y-105429000D01*
X139239898Y-105389226D01*
X139428256Y-105311205D01*
X139597774Y-105197937D01*
X139741937Y-105053774D01*
X139855205Y-104884256D01*
X139900460Y-104775000D01*
X142113000Y-104775000D01*
X142113000Y-105791000D01*
X142115440Y-105815776D01*
X142122667Y-105839601D01*
X142134403Y-105861557D01*
X142150197Y-105880803D01*
X142169443Y-105896597D01*
X142191399Y-105908333D01*
X142215224Y-105915560D01*
X142240000Y-105918000D01*
X144399000Y-105918000D01*
X144423776Y-105915560D01*
X144447601Y-105908333D01*
X144469557Y-105896597D01*
X144488803Y-105880803D01*
X144504597Y-105861557D01*
X144516333Y-105839601D01*
X144523560Y-105815776D01*
X144526000Y-105791000D01*
X146378394Y-105791000D01*
X147230197Y-106642803D01*
X147249443Y-106658597D01*
X147271399Y-106670333D01*
X147295224Y-106677560D01*
X147320000Y-106680000D01*
X153282777Y-106680000D01*
X153375782Y-106773005D01*
X153516637Y-106867122D01*
X153673147Y-106931951D01*
X153839297Y-106965000D01*
X154008703Y-106965000D01*
X154174853Y-106931951D01*
X154331363Y-106867122D01*
X154358039Y-106849297D01*
X156493000Y-106849297D01*
X156493000Y-107018703D01*
X156526049Y-107184853D01*
X156590878Y-107341363D01*
X156684995Y-107482218D01*
X156804782Y-107602005D01*
X156945637Y-107696122D01*
X157102147Y-107760951D01*
X157268297Y-107794000D01*
X157437703Y-107794000D01*
X157603853Y-107760951D01*
X157760363Y-107696122D01*
X157901218Y-107602005D01*
X158021005Y-107482218D01*
X158115122Y-107341363D01*
X158179951Y-107184853D01*
X158213000Y-107018703D01*
X158213000Y-106849297D01*
X158179951Y-106683147D01*
X158115122Y-106526637D01*
X158021005Y-106385782D01*
X157901218Y-106265995D01*
X157760363Y-106171878D01*
X157603853Y-106107049D01*
X157437703Y-106074000D01*
X157268297Y-106074000D01*
X157102147Y-106107049D01*
X156945637Y-106171878D01*
X156804782Y-106265995D01*
X156684995Y-106385782D01*
X156590878Y-106526637D01*
X156526049Y-106683147D01*
X156493000Y-106849297D01*
X154358039Y-106849297D01*
X154472218Y-106773005D01*
X154565223Y-106680000D01*
X155067000Y-106680000D01*
X155090256Y-106677853D01*
X155114167Y-106670917D01*
X155749167Y-106416917D01*
X155772557Y-106404597D01*
X155791803Y-106388803D01*
X155807597Y-106369557D01*
X155819333Y-106347601D01*
X155826560Y-106323776D01*
X155829000Y-106299000D01*
X155829000Y-105081363D01*
X157849000Y-105081363D01*
X157849000Y-105324637D01*
X157896460Y-105563236D01*
X157989557Y-105787992D01*
X158124713Y-105990267D01*
X158296733Y-106162287D01*
X158499008Y-106297443D01*
X158723764Y-106390540D01*
X158962363Y-106438000D01*
X159205637Y-106438000D01*
X159444236Y-106390540D01*
X159668992Y-106297443D01*
X159871267Y-106162287D01*
X160043287Y-105990267D01*
X160178443Y-105787992D01*
X160271540Y-105563236D01*
X160319000Y-105324637D01*
X160319000Y-105081363D01*
X160291247Y-104941835D01*
X161040000Y-104941835D01*
X161040000Y-105116165D01*
X161074010Y-105287145D01*
X161140723Y-105448205D01*
X161237576Y-105593155D01*
X161360845Y-105716424D01*
X161505795Y-105813277D01*
X161666855Y-105879990D01*
X161837835Y-105914000D01*
X162012165Y-105914000D01*
X162183145Y-105879990D01*
X162344205Y-105813277D01*
X162489155Y-105716424D01*
X162612424Y-105593155D01*
X162709277Y-105448205D01*
X162758238Y-105330000D01*
X162795000Y-105330000D01*
X162795000Y-105984000D01*
X162844544Y-106233031D01*
X162941720Y-106467612D01*
X163082793Y-106678727D01*
X163262342Y-106858264D01*
X163473467Y-106999323D01*
X163708054Y-107096483D01*
X163757901Y-107104068D01*
X163957000Y-106980092D01*
X163957000Y-105330000D01*
X164211000Y-105330000D01*
X164211000Y-106980092D01*
X164410099Y-107104068D01*
X164459946Y-107096483D01*
X164694533Y-106999323D01*
X164905658Y-106858264D01*
X165085207Y-106678727D01*
X165226280Y-106467612D01*
X165323456Y-106233031D01*
X165373000Y-105984000D01*
X165373000Y-105330000D01*
X164211000Y-105330000D01*
X163957000Y-105330000D01*
X162795000Y-105330000D01*
X162758238Y-105330000D01*
X162775990Y-105287145D01*
X162810000Y-105116165D01*
X162810000Y-105076000D01*
X163957000Y-105076000D01*
X163957000Y-103425908D01*
X164211000Y-103425908D01*
X164211000Y-105076000D01*
X165373000Y-105076000D01*
X165373000Y-104422000D01*
X165323456Y-104172969D01*
X165226280Y-103938388D01*
X165085207Y-103727273D01*
X164905658Y-103547736D01*
X164694533Y-103406677D01*
X164459946Y-103309517D01*
X164410099Y-103301932D01*
X164211000Y-103425908D01*
X163957000Y-103425908D01*
X163757901Y-103301932D01*
X163708054Y-103309517D01*
X163473467Y-103406677D01*
X163262342Y-103547736D01*
X163082793Y-103727273D01*
X162941720Y-103938388D01*
X162844544Y-104172969D01*
X162795000Y-104422000D01*
X162795000Y-104866425D01*
X162775990Y-104770855D01*
X162709277Y-104609795D01*
X162612424Y-104464845D01*
X162489155Y-104341576D01*
X162344205Y-104244723D01*
X162183145Y-104178010D01*
X162012165Y-104144000D01*
X161837835Y-104144000D01*
X161666855Y-104178010D01*
X161505795Y-104244723D01*
X161360845Y-104341576D01*
X161237576Y-104464845D01*
X161140723Y-104609795D01*
X161074010Y-104770855D01*
X161040000Y-104941835D01*
X160291247Y-104941835D01*
X160271540Y-104842764D01*
X160178443Y-104618008D01*
X160043287Y-104415733D01*
X159871267Y-104243713D01*
X159668992Y-104108557D01*
X159444236Y-104015460D01*
X159205637Y-103968000D01*
X158962363Y-103968000D01*
X158723764Y-104015460D01*
X158499008Y-104108557D01*
X158296733Y-104243713D01*
X158124713Y-104415733D01*
X157989557Y-104618008D01*
X157896460Y-104842764D01*
X157849000Y-105081363D01*
X155829000Y-105081363D01*
X155829000Y-102489000D01*
X155828223Y-102474975D01*
X155823062Y-102450620D01*
X155813248Y-102427739D01*
X155799159Y-102407213D01*
X155781336Y-102389830D01*
X155146336Y-101881830D01*
X155115601Y-101863667D01*
X155091776Y-101856440D01*
X155067000Y-101854000D01*
X147447000Y-101854000D01*
X147422354Y-101856414D01*
X147398522Y-101863617D01*
X147376553Y-101875330D01*
X146614553Y-102383330D01*
X146595197Y-102399197D01*
X146579403Y-102418443D01*
X146567667Y-102440399D01*
X146560440Y-102464224D01*
X146558000Y-102489000D01*
X146558000Y-103452394D01*
X146251394Y-103759000D01*
X144399000Y-103759000D01*
X144374224Y-103761440D01*
X144350399Y-103768667D01*
X144328443Y-103780403D01*
X144309197Y-103796197D01*
X144293403Y-103815443D01*
X144281667Y-103837399D01*
X144274440Y-103861224D01*
X144272000Y-103886000D01*
X144272000Y-104648000D01*
X142240000Y-104648000D01*
X142215224Y-104650440D01*
X142191399Y-104657667D01*
X142169443Y-104669403D01*
X142150197Y-104685197D01*
X142134403Y-104704443D01*
X142122667Y-104726399D01*
X142115440Y-104750224D01*
X142113000Y-104775000D01*
X139900460Y-104775000D01*
X139933226Y-104695898D01*
X139973000Y-104495939D01*
X139973000Y-104292061D01*
X139933226Y-104092102D01*
X139855205Y-103903744D01*
X139741937Y-103734226D01*
X139597774Y-103590063D01*
X139428256Y-103476795D01*
X139239898Y-103398774D01*
X139039939Y-103359000D01*
X138836061Y-103359000D01*
X138636102Y-103398774D01*
X138447744Y-103476795D01*
X138278226Y-103590063D01*
X138134063Y-103734226D01*
X138020795Y-103903744D01*
X137942774Y-104092102D01*
X137903000Y-104292061D01*
X131625266Y-104292061D01*
X131636951Y-104263853D01*
X131670000Y-104097703D01*
X131670000Y-103928297D01*
X131636951Y-103762147D01*
X131572122Y-103605637D01*
X131478005Y-103464782D01*
X131426697Y-103413474D01*
X131464000Y-103225939D01*
X131464000Y-103022061D01*
X131424226Y-102822102D01*
X131346205Y-102633744D01*
X131232937Y-102464226D01*
X131088774Y-102320063D01*
X130919256Y-102206795D01*
X130730898Y-102128774D01*
X130530939Y-102089000D01*
X130327061Y-102089000D01*
X130127102Y-102128774D01*
X129938744Y-102206795D01*
X129769226Y-102320063D01*
X129625063Y-102464226D01*
X129511795Y-102633744D01*
X129433774Y-102822102D01*
X129394000Y-103022061D01*
X117311947Y-103022061D01*
X117274882Y-102932580D01*
X117333581Y-102793008D01*
X117371475Y-102607740D01*
X117372497Y-102418639D01*
X117336608Y-102232972D01*
X117265187Y-102057874D01*
X117260270Y-102048677D01*
X117064536Y-102035069D01*
X116669244Y-102430361D01*
X116506552Y-102398000D01*
X116317448Y-102398000D01*
X116313281Y-102398829D01*
X116397858Y-102314253D01*
X116412000Y-102328395D01*
X116519207Y-102221188D01*
X116649769Y-102151401D01*
X116830818Y-102002818D01*
X116979401Y-101821769D01*
X117076646Y-101639835D01*
X136021000Y-101639835D01*
X136021000Y-101814165D01*
X136055010Y-101985145D01*
X136121723Y-102146205D01*
X136218576Y-102291155D01*
X136341845Y-102414424D01*
X136486795Y-102511277D01*
X136647855Y-102577990D01*
X136818835Y-102612000D01*
X136993165Y-102612000D01*
X137164145Y-102577990D01*
X137325205Y-102511277D01*
X137470155Y-102414424D01*
X137593424Y-102291155D01*
X137602683Y-102277297D01*
X138586000Y-102277297D01*
X138586000Y-102446703D01*
X138619049Y-102612853D01*
X138683878Y-102769363D01*
X138777995Y-102910218D01*
X138897782Y-103030005D01*
X139038637Y-103124122D01*
X139195147Y-103188951D01*
X139361297Y-103222000D01*
X139530703Y-103222000D01*
X139696853Y-103188951D01*
X139853363Y-103124122D01*
X139994218Y-103030005D01*
X140114005Y-102910218D01*
X140199120Y-102782835D01*
X144276000Y-102782835D01*
X144276000Y-102957165D01*
X144310010Y-103128145D01*
X144376723Y-103289205D01*
X144473576Y-103434155D01*
X144596845Y-103557424D01*
X144741795Y-103654277D01*
X144902855Y-103720990D01*
X145073835Y-103755000D01*
X145248165Y-103755000D01*
X145419145Y-103720990D01*
X145580205Y-103654277D01*
X145725155Y-103557424D01*
X145848424Y-103434155D01*
X145945277Y-103289205D01*
X146011990Y-103128145D01*
X146046000Y-102957165D01*
X146046000Y-102782835D01*
X146011990Y-102611855D01*
X145945277Y-102450795D01*
X145848424Y-102305845D01*
X145725155Y-102182576D01*
X145580205Y-102085723D01*
X145419145Y-102019010D01*
X145248165Y-101985000D01*
X145073835Y-101985000D01*
X144902855Y-102019010D01*
X144741795Y-102085723D01*
X144596845Y-102182576D01*
X144473576Y-102305845D01*
X144376723Y-102450795D01*
X144310010Y-102611855D01*
X144276000Y-102782835D01*
X140199120Y-102782835D01*
X140208122Y-102769363D01*
X140272951Y-102612853D01*
X140306000Y-102446703D01*
X140306000Y-102277297D01*
X140272951Y-102111147D01*
X140208122Y-101954637D01*
X140114005Y-101813782D01*
X140069520Y-101769297D01*
X140491000Y-101769297D01*
X140491000Y-101938703D01*
X140524049Y-102104853D01*
X140588878Y-102261363D01*
X140682995Y-102402218D01*
X140802782Y-102522005D01*
X140943637Y-102616122D01*
X141100147Y-102680951D01*
X141266297Y-102714000D01*
X141435703Y-102714000D01*
X141601853Y-102680951D01*
X141758363Y-102616122D01*
X141899218Y-102522005D01*
X142019005Y-102402218D01*
X142113122Y-102261363D01*
X142177951Y-102104853D01*
X142211000Y-101938703D01*
X142211000Y-101769297D01*
X142177951Y-101603147D01*
X142113122Y-101446637D01*
X142019005Y-101305782D01*
X141899218Y-101185995D01*
X141758363Y-101091878D01*
X141601853Y-101027049D01*
X141435703Y-100994000D01*
X141266297Y-100994000D01*
X141100147Y-101027049D01*
X140943637Y-101091878D01*
X140802782Y-101185995D01*
X140682995Y-101305782D01*
X140588878Y-101446637D01*
X140524049Y-101603147D01*
X140491000Y-101769297D01*
X140069520Y-101769297D01*
X139994218Y-101693995D01*
X139853363Y-101599878D01*
X139696853Y-101535049D01*
X139530703Y-101502000D01*
X139361297Y-101502000D01*
X139195147Y-101535049D01*
X139038637Y-101599878D01*
X138897782Y-101693995D01*
X138777995Y-101813782D01*
X138683878Y-101954637D01*
X138619049Y-102111147D01*
X138586000Y-102277297D01*
X137602683Y-102277297D01*
X137690277Y-102146205D01*
X137756990Y-101985145D01*
X137791000Y-101814165D01*
X137791000Y-101639835D01*
X137756990Y-101468855D01*
X137690277Y-101307795D01*
X137593424Y-101162845D01*
X137470155Y-101039576D01*
X137325205Y-100942723D01*
X137164145Y-100876010D01*
X136993165Y-100842000D01*
X136818835Y-100842000D01*
X136647855Y-100876010D01*
X136486795Y-100942723D01*
X136341845Y-101039576D01*
X136218576Y-101162845D01*
X136121723Y-101307795D01*
X136055010Y-101468855D01*
X136021000Y-101639835D01*
X117076646Y-101639835D01*
X117089808Y-101615212D01*
X117157796Y-101391085D01*
X117180753Y-101158000D01*
X117157796Y-100924915D01*
X117104990Y-100750835D01*
X144276000Y-100750835D01*
X144276000Y-100925165D01*
X144310010Y-101096145D01*
X144376723Y-101257205D01*
X144473576Y-101402155D01*
X144596845Y-101525424D01*
X144741795Y-101622277D01*
X144902855Y-101688990D01*
X145073835Y-101723000D01*
X145248165Y-101723000D01*
X145419145Y-101688990D01*
X145448578Y-101676798D01*
X145508995Y-101767218D01*
X145628782Y-101887005D01*
X145769637Y-101981122D01*
X145926147Y-102045951D01*
X146092297Y-102079000D01*
X146261703Y-102079000D01*
X146427853Y-102045951D01*
X146584363Y-101981122D01*
X146725218Y-101887005D01*
X146845005Y-101767218D01*
X146939122Y-101626363D01*
X147003951Y-101469853D01*
X147037000Y-101303703D01*
X147037000Y-101134297D01*
X147003951Y-100968147D01*
X146939122Y-100811637D01*
X146900141Y-100753297D01*
X152655000Y-100753297D01*
X152655000Y-100922703D01*
X152688049Y-101088853D01*
X152752878Y-101245363D01*
X152846995Y-101386218D01*
X152966782Y-101506005D01*
X153107637Y-101600122D01*
X153264147Y-101664951D01*
X153430297Y-101698000D01*
X153599703Y-101698000D01*
X153765853Y-101664951D01*
X153922363Y-101600122D01*
X154063218Y-101506005D01*
X154183005Y-101386218D01*
X154277122Y-101245363D01*
X154341951Y-101088853D01*
X154375000Y-100922703D01*
X154375000Y-100753297D01*
X154341951Y-100587147D01*
X154277122Y-100430637D01*
X154183005Y-100289782D01*
X154096223Y-100203000D01*
X157134764Y-100203000D01*
X157159652Y-100455688D01*
X157233358Y-100698665D01*
X157353051Y-100922595D01*
X157514130Y-101118870D01*
X157710405Y-101279949D01*
X157934335Y-101399642D01*
X158177312Y-101473348D01*
X158366686Y-101492000D01*
X159801314Y-101492000D01*
X159990688Y-101473348D01*
X160233665Y-101399642D01*
X160457595Y-101279949D01*
X160653870Y-101118870D01*
X160814949Y-100922595D01*
X160934642Y-100698665D01*
X161008348Y-100455688D01*
X161033236Y-100203000D01*
X161021256Y-100081363D01*
X162849000Y-100081363D01*
X162849000Y-100324637D01*
X162896460Y-100563236D01*
X162989557Y-100787992D01*
X163124713Y-100990267D01*
X163296733Y-101162287D01*
X163499008Y-101297443D01*
X163723764Y-101390540D01*
X163962363Y-101438000D01*
X164205637Y-101438000D01*
X164444236Y-101390540D01*
X164668992Y-101297443D01*
X164871267Y-101162287D01*
X165043287Y-100990267D01*
X165178443Y-100787992D01*
X165271540Y-100563236D01*
X165319000Y-100324637D01*
X165319000Y-100081363D01*
X165349000Y-100081363D01*
X165349000Y-100324637D01*
X165396460Y-100563236D01*
X165489557Y-100787992D01*
X165624713Y-100990267D01*
X165796733Y-101162287D01*
X165999008Y-101297443D01*
X166223764Y-101390540D01*
X166462363Y-101438000D01*
X166705637Y-101438000D01*
X166944236Y-101390540D01*
X167168992Y-101297443D01*
X167371267Y-101162287D01*
X167543287Y-100990267D01*
X167678443Y-100787992D01*
X167771540Y-100563236D01*
X167819000Y-100324637D01*
X167819000Y-100081363D01*
X167771540Y-99842764D01*
X167678443Y-99618008D01*
X167543287Y-99415733D01*
X167371267Y-99243713D01*
X167168992Y-99108557D01*
X166944236Y-99015460D01*
X166705637Y-98968000D01*
X166462363Y-98968000D01*
X166223764Y-99015460D01*
X165999008Y-99108557D01*
X165796733Y-99243713D01*
X165624713Y-99415733D01*
X165489557Y-99618008D01*
X165396460Y-99842764D01*
X165349000Y-100081363D01*
X165319000Y-100081363D01*
X165271540Y-99842764D01*
X165178443Y-99618008D01*
X165043287Y-99415733D01*
X164871267Y-99243713D01*
X164668992Y-99108557D01*
X164444236Y-99015460D01*
X164205637Y-98968000D01*
X163962363Y-98968000D01*
X163723764Y-99015460D01*
X163499008Y-99108557D01*
X163296733Y-99243713D01*
X163124713Y-99415733D01*
X162989557Y-99618008D01*
X162896460Y-99842764D01*
X162849000Y-100081363D01*
X161021256Y-100081363D01*
X161008348Y-99950312D01*
X160934642Y-99707335D01*
X160814949Y-99483405D01*
X160653870Y-99287130D01*
X160457595Y-99126051D01*
X160233665Y-99006358D01*
X159990688Y-98932652D01*
X159801314Y-98914000D01*
X158366686Y-98914000D01*
X158177312Y-98932652D01*
X157934335Y-99006358D01*
X157710405Y-99126051D01*
X157514130Y-99287130D01*
X157353051Y-99483405D01*
X157233358Y-99707335D01*
X157159652Y-99950312D01*
X157134764Y-100203000D01*
X154096223Y-100203000D01*
X154063218Y-100169995D01*
X153922363Y-100075878D01*
X153765853Y-100011049D01*
X153599703Y-99978000D01*
X153430297Y-99978000D01*
X153264147Y-100011049D01*
X153107637Y-100075878D01*
X152966782Y-100169995D01*
X152846995Y-100289782D01*
X152752878Y-100430637D01*
X152688049Y-100587147D01*
X152655000Y-100753297D01*
X146900141Y-100753297D01*
X146845005Y-100670782D01*
X146725218Y-100550995D01*
X146584363Y-100456878D01*
X146427853Y-100392049D01*
X146261703Y-100359000D01*
X146092297Y-100359000D01*
X145927258Y-100391828D01*
X145848424Y-100273845D01*
X145725155Y-100150576D01*
X145580205Y-100053723D01*
X145419145Y-99987010D01*
X145248165Y-99953000D01*
X145073835Y-99953000D01*
X144902855Y-99987010D01*
X144741795Y-100053723D01*
X144596845Y-100150576D01*
X144473576Y-100273845D01*
X144376723Y-100418795D01*
X144310010Y-100579855D01*
X144276000Y-100750835D01*
X117104990Y-100750835D01*
X117089808Y-100700788D01*
X116979401Y-100494231D01*
X116830818Y-100313182D01*
X116649769Y-100164599D01*
X116443212Y-100054192D01*
X116219085Y-99986204D01*
X116044411Y-99969000D01*
X114819589Y-99969000D01*
X114644915Y-99986204D01*
X114420788Y-100054192D01*
X114214231Y-100164599D01*
X114033182Y-100313182D01*
X113884599Y-100494231D01*
X113774192Y-100700788D01*
X113742000Y-100806911D01*
X113709808Y-100700788D01*
X113599401Y-100494231D01*
X113450818Y-100313182D01*
X113269769Y-100164599D01*
X113063212Y-100054192D01*
X112839085Y-99986204D01*
X112664411Y-99969000D01*
X111439589Y-99969000D01*
X111264915Y-99986204D01*
X111040788Y-100054192D01*
X111023000Y-100063700D01*
X111023000Y-98069061D01*
X130537000Y-98069061D01*
X130537000Y-98272939D01*
X130576774Y-98472898D01*
X130654795Y-98661256D01*
X130768063Y-98830774D01*
X130912226Y-98974937D01*
X131081744Y-99088205D01*
X131270102Y-99166226D01*
X131470061Y-99206000D01*
X131673939Y-99206000D01*
X131873898Y-99166226D01*
X132062256Y-99088205D01*
X132231774Y-98974937D01*
X132375937Y-98830774D01*
X132489205Y-98661256D01*
X132567226Y-98472898D01*
X132568340Y-98467297D01*
X136300000Y-98467297D01*
X136300000Y-98636703D01*
X136333049Y-98802853D01*
X136397878Y-98959363D01*
X136491995Y-99100218D01*
X136611782Y-99220005D01*
X136752637Y-99314122D01*
X136909147Y-99378951D01*
X137075297Y-99412000D01*
X137244703Y-99412000D01*
X137410853Y-99378951D01*
X137541000Y-99325042D01*
X137671147Y-99378951D01*
X137837297Y-99412000D01*
X138006703Y-99412000D01*
X138056788Y-99402038D01*
X138059039Y-99413353D01*
X138123868Y-99569863D01*
X138217985Y-99710718D01*
X138337772Y-99830505D01*
X138478627Y-99924622D01*
X138635137Y-99989451D01*
X138801287Y-100022500D01*
X138970693Y-100022500D01*
X139136843Y-99989451D01*
X139293353Y-99924622D01*
X139434208Y-99830505D01*
X139553995Y-99710718D01*
X139648112Y-99569863D01*
X139712941Y-99413353D01*
X139745990Y-99247203D01*
X139745990Y-99077797D01*
X139712941Y-98911647D01*
X139648112Y-98755137D01*
X139553995Y-98614282D01*
X139434208Y-98494495D01*
X139393504Y-98467297D01*
X148873000Y-98467297D01*
X148873000Y-98636703D01*
X148906049Y-98802853D01*
X148970878Y-98959363D01*
X149064995Y-99100218D01*
X149184782Y-99220005D01*
X149325637Y-99314122D01*
X149482147Y-99378951D01*
X149648297Y-99412000D01*
X149817703Y-99412000D01*
X149983853Y-99378951D01*
X150140363Y-99314122D01*
X150281218Y-99220005D01*
X150401005Y-99100218D01*
X150495122Y-98959363D01*
X150559951Y-98802853D01*
X150593000Y-98636703D01*
X150593000Y-98467297D01*
X150559951Y-98301147D01*
X150495122Y-98144637D01*
X150401005Y-98003782D01*
X150281218Y-97883995D01*
X150140363Y-97789878D01*
X149983853Y-97725049D01*
X149817703Y-97692000D01*
X149648297Y-97692000D01*
X149482147Y-97725049D01*
X149325637Y-97789878D01*
X149184782Y-97883995D01*
X149064995Y-98003782D01*
X148970878Y-98144637D01*
X148906049Y-98301147D01*
X148873000Y-98467297D01*
X139393504Y-98467297D01*
X139293353Y-98400378D01*
X139136843Y-98335549D01*
X138970693Y-98302500D01*
X138801287Y-98302500D01*
X138751202Y-98312462D01*
X138748951Y-98301147D01*
X138684122Y-98144637D01*
X138590005Y-98003782D01*
X138470218Y-97883995D01*
X138329363Y-97789878D01*
X138172853Y-97725049D01*
X138006703Y-97692000D01*
X137837297Y-97692000D01*
X137671147Y-97725049D01*
X137541000Y-97778958D01*
X137410853Y-97725049D01*
X137244703Y-97692000D01*
X137075297Y-97692000D01*
X136909147Y-97725049D01*
X136752637Y-97789878D01*
X136611782Y-97883995D01*
X136491995Y-98003782D01*
X136397878Y-98144637D01*
X136333049Y-98301147D01*
X136300000Y-98467297D01*
X132568340Y-98467297D01*
X132607000Y-98272939D01*
X132607000Y-98069061D01*
X132567226Y-97869102D01*
X132489205Y-97680744D01*
X132375937Y-97511226D01*
X132231774Y-97367063D01*
X132062256Y-97253795D01*
X131873898Y-97175774D01*
X131673939Y-97136000D01*
X131470061Y-97136000D01*
X131270102Y-97175774D01*
X131081744Y-97253795D01*
X130912226Y-97367063D01*
X130768063Y-97511226D01*
X130654795Y-97680744D01*
X130576774Y-97869102D01*
X130537000Y-98069061D01*
X111023000Y-98069061D01*
X111023000Y-97243000D01*
X118145928Y-97243000D01*
X118158188Y-97367482D01*
X118194498Y-97487180D01*
X118253463Y-97597494D01*
X118332815Y-97694185D01*
X118429506Y-97773537D01*
X118539820Y-97832502D01*
X118659518Y-97868812D01*
X118784000Y-97881072D01*
X119348250Y-97878000D01*
X119507000Y-97719250D01*
X119507000Y-96520000D01*
X119761000Y-96520000D01*
X119761000Y-97719250D01*
X119919750Y-97878000D01*
X120484000Y-97881072D01*
X120608482Y-97868812D01*
X120728180Y-97832502D01*
X120838494Y-97773537D01*
X120935185Y-97694185D01*
X121014537Y-97597494D01*
X121073502Y-97487180D01*
X121109812Y-97367482D01*
X121122072Y-97243000D01*
X121119000Y-96678750D01*
X120960250Y-96520000D01*
X119761000Y-96520000D01*
X119507000Y-96520000D01*
X118307750Y-96520000D01*
X118149000Y-96678750D01*
X118145928Y-97243000D01*
X111023000Y-97243000D01*
X111023000Y-95664881D01*
X111651724Y-95664881D01*
X112011912Y-96154548D01*
X112675882Y-96514849D01*
X113397385Y-96738694D01*
X114148695Y-96817480D01*
X114900938Y-96748178D01*
X115625208Y-96533452D01*
X115844404Y-96418061D01*
X147301000Y-96418061D01*
X147301000Y-96621939D01*
X147340774Y-96821898D01*
X147418795Y-97010256D01*
X147532063Y-97179774D01*
X147676226Y-97323937D01*
X147845744Y-97437205D01*
X148034102Y-97515226D01*
X148234061Y-97555000D01*
X148437939Y-97555000D01*
X148637898Y-97515226D01*
X148826256Y-97437205D01*
X148995774Y-97323937D01*
X149139937Y-97179774D01*
X149253205Y-97010256D01*
X149331226Y-96821898D01*
X149371000Y-96621939D01*
X149371000Y-96418061D01*
X149331226Y-96218102D01*
X149253205Y-96029744D01*
X149139937Y-95860226D01*
X148995774Y-95716063D01*
X148919175Y-95664881D01*
X162197724Y-95664881D01*
X162557912Y-96154548D01*
X163221882Y-96514849D01*
X163943385Y-96738694D01*
X164694695Y-96817480D01*
X165446938Y-96748178D01*
X166171208Y-96533452D01*
X166839670Y-96181555D01*
X166880088Y-96154548D01*
X167240276Y-95664881D01*
X164719000Y-93143605D01*
X162197724Y-95664881D01*
X148919175Y-95664881D01*
X148826256Y-95602795D01*
X148637898Y-95524774D01*
X148437939Y-95485000D01*
X148234061Y-95485000D01*
X148034102Y-95524774D01*
X147845744Y-95602795D01*
X147676226Y-95716063D01*
X147532063Y-95860226D01*
X147418795Y-96029744D01*
X147340774Y-96218102D01*
X147301000Y-96418061D01*
X115844404Y-96418061D01*
X116293670Y-96181555D01*
X116334088Y-96154548D01*
X116694276Y-95664881D01*
X116572395Y-95543000D01*
X118145928Y-95543000D01*
X118149000Y-96107250D01*
X118307750Y-96266000D01*
X119507000Y-96266000D01*
X119507000Y-96246000D01*
X119761000Y-96246000D01*
X119761000Y-96266000D01*
X120960250Y-96266000D01*
X121119000Y-96107250D01*
X121122072Y-95543000D01*
X121109812Y-95418518D01*
X121073502Y-95298820D01*
X121014537Y-95188506D01*
X120935185Y-95091815D01*
X120866973Y-95035835D01*
X133608000Y-95035835D01*
X133608000Y-95210165D01*
X133642010Y-95381145D01*
X133708723Y-95542205D01*
X133805576Y-95687155D01*
X133928845Y-95810424D01*
X134073795Y-95907277D01*
X134234855Y-95973990D01*
X134405835Y-96008000D01*
X134580165Y-96008000D01*
X134751145Y-95973990D01*
X134912205Y-95907277D01*
X135057155Y-95810424D01*
X135180424Y-95687155D01*
X135277277Y-95542205D01*
X135343990Y-95381145D01*
X135378000Y-95210165D01*
X135378000Y-95035835D01*
X135343990Y-94864855D01*
X135277277Y-94703795D01*
X135180424Y-94558845D01*
X135151876Y-94530297D01*
X136300000Y-94530297D01*
X136300000Y-94699703D01*
X136333049Y-94865853D01*
X136397878Y-95022363D01*
X136491995Y-95163218D01*
X136611782Y-95283005D01*
X136752637Y-95377122D01*
X136909147Y-95441951D01*
X137075297Y-95475000D01*
X137244703Y-95475000D01*
X137410853Y-95441951D01*
X137567363Y-95377122D01*
X137708218Y-95283005D01*
X137828005Y-95163218D01*
X137922122Y-95022363D01*
X137986951Y-94865853D01*
X138006726Y-94766437D01*
X138024226Y-94783937D01*
X138193744Y-94897205D01*
X138382102Y-94975226D01*
X138582061Y-95015000D01*
X138785939Y-95015000D01*
X138985898Y-94975226D01*
X139174256Y-94897205D01*
X139343774Y-94783937D01*
X139487937Y-94639774D01*
X139601205Y-94470256D01*
X139679226Y-94281898D01*
X139719000Y-94081939D01*
X139719000Y-94005061D01*
X156572000Y-94005061D01*
X156572000Y-94208939D01*
X156611774Y-94408898D01*
X156689795Y-94597256D01*
X156803063Y-94766774D01*
X156947226Y-94910937D01*
X157116744Y-95024205D01*
X157305102Y-95102226D01*
X157505061Y-95142000D01*
X157708939Y-95142000D01*
X157908898Y-95102226D01*
X158097256Y-95024205D01*
X158266774Y-94910937D01*
X158410937Y-94766774D01*
X158524205Y-94597256D01*
X158602226Y-94408898D01*
X158642000Y-94208939D01*
X158642000Y-94005061D01*
X158602226Y-93805102D01*
X158524205Y-93616744D01*
X158410937Y-93447226D01*
X158266774Y-93303063D01*
X158097256Y-93189795D01*
X157908898Y-93111774D01*
X157708939Y-93072000D01*
X157505061Y-93072000D01*
X157305102Y-93111774D01*
X157116744Y-93189795D01*
X156947226Y-93303063D01*
X156803063Y-93447226D01*
X156689795Y-93616744D01*
X156611774Y-93805102D01*
X156572000Y-94005061D01*
X139719000Y-94005061D01*
X139719000Y-93878061D01*
X139679226Y-93678102D01*
X139601205Y-93489744D01*
X139487937Y-93320226D01*
X139343774Y-93176063D01*
X139174256Y-93062795D01*
X139037859Y-93006297D01*
X144936000Y-93006297D01*
X144936000Y-93175703D01*
X144969049Y-93341853D01*
X145033878Y-93498363D01*
X145127995Y-93639218D01*
X145247782Y-93759005D01*
X145388637Y-93853122D01*
X145545147Y-93917951D01*
X145711297Y-93951000D01*
X145880703Y-93951000D01*
X146046853Y-93917951D01*
X146203363Y-93853122D01*
X146344218Y-93759005D01*
X146464005Y-93639218D01*
X146558122Y-93498363D01*
X146622951Y-93341853D01*
X146656000Y-93175703D01*
X146656000Y-93006297D01*
X146622951Y-92840147D01*
X146558122Y-92683637D01*
X146464005Y-92542782D01*
X146344218Y-92422995D01*
X146203363Y-92328878D01*
X146046853Y-92264049D01*
X145880703Y-92231000D01*
X145711297Y-92231000D01*
X145545147Y-92264049D01*
X145388637Y-92328878D01*
X145247782Y-92422995D01*
X145127995Y-92542782D01*
X145033878Y-92683637D01*
X144969049Y-92840147D01*
X144936000Y-93006297D01*
X139037859Y-93006297D01*
X138985898Y-92984774D01*
X138785939Y-92945000D01*
X138582061Y-92945000D01*
X138382102Y-92984774D01*
X138193744Y-93062795D01*
X138024226Y-93176063D01*
X137880063Y-93320226D01*
X137766795Y-93489744D01*
X137688774Y-93678102D01*
X137649000Y-93878061D01*
X137649000Y-93907427D01*
X137567363Y-93852878D01*
X137410853Y-93788049D01*
X137244703Y-93755000D01*
X137075297Y-93755000D01*
X136909147Y-93788049D01*
X136752637Y-93852878D01*
X136611782Y-93946995D01*
X136491995Y-94066782D01*
X136397878Y-94207637D01*
X136333049Y-94364147D01*
X136300000Y-94530297D01*
X135151876Y-94530297D01*
X135057155Y-94435576D01*
X134912205Y-94338723D01*
X134751145Y-94272010D01*
X134580165Y-94238000D01*
X134405835Y-94238000D01*
X134234855Y-94272010D01*
X134073795Y-94338723D01*
X133928845Y-94435576D01*
X133805576Y-94558845D01*
X133708723Y-94703795D01*
X133642010Y-94864855D01*
X133608000Y-95035835D01*
X120866973Y-95035835D01*
X120838494Y-95012463D01*
X120728180Y-94953498D01*
X120655620Y-94931487D01*
X120787475Y-94799632D01*
X120949990Y-94556411D01*
X121061932Y-94286158D01*
X121119000Y-93999260D01*
X121119000Y-93706740D01*
X121061932Y-93419842D01*
X120951429Y-93153061D01*
X128124000Y-93153061D01*
X128124000Y-93356939D01*
X128163774Y-93556898D01*
X128241795Y-93745256D01*
X128355063Y-93914774D01*
X128499226Y-94058937D01*
X128668744Y-94172205D01*
X128857102Y-94250226D01*
X129057061Y-94290000D01*
X129260939Y-94290000D01*
X129460898Y-94250226D01*
X129649256Y-94172205D01*
X129818774Y-94058937D01*
X129962937Y-93914774D01*
X130076205Y-93745256D01*
X130154226Y-93556898D01*
X130194000Y-93356939D01*
X130194000Y-93153061D01*
X130154226Y-92953102D01*
X130076205Y-92764744D01*
X129962937Y-92595226D01*
X129818774Y-92451063D01*
X129649256Y-92337795D01*
X129460898Y-92259774D01*
X129260939Y-92220000D01*
X129057061Y-92220000D01*
X128857102Y-92259774D01*
X128668744Y-92337795D01*
X128499226Y-92451063D01*
X128355063Y-92595226D01*
X128241795Y-92764744D01*
X128163774Y-92953102D01*
X128124000Y-93153061D01*
X120951429Y-93153061D01*
X120949990Y-93149589D01*
X120787475Y-92906368D01*
X120580632Y-92699525D01*
X120337411Y-92537010D01*
X120067158Y-92425068D01*
X119780260Y-92368000D01*
X119487740Y-92368000D01*
X119200842Y-92425068D01*
X118930589Y-92537010D01*
X118687368Y-92699525D01*
X118480525Y-92906368D01*
X118318010Y-93149589D01*
X118206068Y-93419842D01*
X118149000Y-93706740D01*
X118149000Y-93999260D01*
X118206068Y-94286158D01*
X118318010Y-94556411D01*
X118480525Y-94799632D01*
X118612380Y-94931487D01*
X118539820Y-94953498D01*
X118429506Y-95012463D01*
X118332815Y-95091815D01*
X118253463Y-95188506D01*
X118194498Y-95298820D01*
X118158188Y-95418518D01*
X118145928Y-95543000D01*
X116572395Y-95543000D01*
X114173000Y-93143605D01*
X111651724Y-95664881D01*
X111023000Y-95664881D01*
X111023000Y-95154914D01*
X111472119Y-95485276D01*
X113993395Y-92964000D01*
X114352605Y-92964000D01*
X116873881Y-95485276D01*
X117363548Y-95125088D01*
X117723849Y-94461118D01*
X117947694Y-93739615D01*
X118026480Y-92988305D01*
X117957178Y-92236062D01*
X117897866Y-92036000D01*
X132369928Y-92036000D01*
X132382188Y-92160482D01*
X132418498Y-92280180D01*
X132477463Y-92390494D01*
X132556815Y-92487185D01*
X132653506Y-92566537D01*
X132763820Y-92625502D01*
X132883518Y-92661812D01*
X133008000Y-92674072D01*
X133572250Y-92671000D01*
X133731000Y-92512250D01*
X133731000Y-91313000D01*
X132531750Y-91313000D01*
X132373000Y-91471750D01*
X132369928Y-92036000D01*
X117897866Y-92036000D01*
X117742452Y-91511792D01*
X117390555Y-90843330D01*
X117363548Y-90802912D01*
X116873881Y-90442724D01*
X114352605Y-92964000D01*
X113993395Y-92964000D01*
X113979253Y-92949858D01*
X114158858Y-92770253D01*
X114173000Y-92784395D01*
X116694276Y-90263119D01*
X116363914Y-89814000D01*
X132643104Y-89814000D01*
X132556815Y-89884815D01*
G04 #@! TD*
M02*
