%FSLAX45Y45*%
G04 Gerber Fmt 4.5, Leading zero omitted, Abs format (unit mm)*
G04 Created by KiCad (PCBNEW (5.1.6-0-10_14)) date 2021-10-17 11:27:43*
%MOMM*%
%LPD*%
G01*
G04 APERTURE LIST*
%TA.AperFunction,Profile*%
%ADD10C,0.050000*%
%TD*%
%ADD11C,0.200000*%
%ADD12C,0.300000*%
G04 APERTURE END LIST*
D10*
X11379200Y-8915400D02*
X16510000Y-8915400D01*
X11036300Y-11798300D02*
X11036300Y-9258300D01*
X16510000Y-12141200D02*
X11379200Y-12141200D01*
X16852900Y-9258300D02*
X16852900Y-11798300D01*
X16510000Y-8915400D02*
G75*
G02*
X16852900Y-9258300I0J-342900D01*
G01*
X11036300Y-9258300D02*
G75*
G02*
X11379200Y-8915400I342900J0D01*
G01*
X11379200Y-12141200D02*
G75*
G02*
X11036300Y-11798300I0J342900D01*
G01*
X16852900Y-11798300D02*
G75*
G02*
X16510000Y-12141200I-342900J0D01*
G01*
D11*
X11788300Y-10404000D02*
X11808300Y-10424000D01*
X11808300Y-10404000D02*
X11788300Y-10424000D01*
X11788300Y-10594500D02*
X11808300Y-10614500D01*
X11808300Y-10594500D02*
X11788300Y-10614500D01*
X12512200Y-10429400D02*
X12532200Y-10449400D01*
X12532200Y-10429400D02*
X12512200Y-10449400D01*
X13071000Y-10391300D02*
X13091000Y-10411300D01*
X13091000Y-10391300D02*
X13071000Y-10411300D01*
X13363100Y-10658000D02*
X13383100Y-10678000D01*
X13383100Y-10658000D02*
X13363100Y-10678000D01*
X13631350Y-10986650D02*
X13651350Y-11006650D01*
X13651350Y-10986650D02*
X13631350Y-11006650D01*
X13706000Y-9451500D02*
X13726000Y-9471500D01*
X13726000Y-9451500D02*
X13706000Y-9471500D01*
X13706000Y-9845200D02*
X13726000Y-9865200D01*
X13726000Y-9845200D02*
X13706000Y-9865200D01*
X13731350Y-10988250D02*
X13751350Y-11008250D01*
X13751350Y-10988250D02*
X13731350Y-11008250D01*
X13782200Y-9845200D02*
X13802200Y-9865200D01*
X13802200Y-9845200D02*
X13782200Y-9865200D01*
X13878599Y-9906250D02*
X13898599Y-9926250D01*
X13898599Y-9906250D02*
X13878599Y-9926250D01*
X13934600Y-10226200D02*
X13954600Y-10246200D01*
X13954600Y-10226200D02*
X13934600Y-10246200D01*
X13972700Y-10683400D02*
X13992700Y-10703400D01*
X13992700Y-10683400D02*
X13972700Y-10703400D01*
X14112400Y-11293000D02*
X14132400Y-11313000D01*
X14132400Y-11293000D02*
X14112400Y-11313000D01*
X14125100Y-10175400D02*
X14145100Y-10195400D01*
X14145100Y-10175400D02*
X14125100Y-10195400D01*
X14302900Y-9413400D02*
X14322900Y-9433400D01*
X14322900Y-9413400D02*
X14302900Y-9433400D01*
X14468000Y-10569100D02*
X14488000Y-10589100D01*
X14488000Y-10569100D02*
X14468000Y-10589100D01*
X14506100Y-10357250D02*
X14526100Y-10377250D01*
X14526100Y-10357250D02*
X14506100Y-10377250D01*
X14569600Y-9299100D02*
X14589600Y-9319100D01*
X14589600Y-9299100D02*
X14569600Y-9319100D01*
X14569600Y-10569100D02*
X14589600Y-10589100D01*
X14589600Y-10569100D02*
X14569600Y-10589100D01*
X14607700Y-10111900D02*
X14627700Y-10131900D01*
X14627700Y-10111900D02*
X14607700Y-10131900D01*
X14639450Y-10334150D02*
X14659450Y-10354150D01*
X14659450Y-10334150D02*
X14639450Y-10354150D01*
X14658500Y-10607200D02*
X14678500Y-10627200D01*
X14678500Y-10607200D02*
X14658500Y-10627200D01*
X14696600Y-10200800D02*
X14716600Y-10220800D01*
X14716600Y-10200800D02*
X14696600Y-10220800D01*
X14772800Y-10658000D02*
X14792800Y-10678000D01*
X14792800Y-10658000D02*
X14772800Y-10678000D01*
X14849000Y-10162700D02*
X14869000Y-10182700D01*
X14869000Y-10162700D02*
X14849000Y-10182700D01*
X14925200Y-10658000D02*
X14945200Y-10678000D01*
X14945200Y-10658000D02*
X14925200Y-10678000D01*
X14963300Y-9845200D02*
X14983300Y-9865200D01*
X14983300Y-9845200D02*
X14963300Y-9865200D01*
X15039500Y-10162700D02*
X15059500Y-10182700D01*
X15059500Y-10162700D02*
X15039500Y-10182700D01*
X15115700Y-10658000D02*
X15135700Y-10678000D01*
X15135700Y-10658000D02*
X15115700Y-10678000D01*
X15179200Y-11013600D02*
X15199200Y-11033600D01*
X15199200Y-11013600D02*
X15179200Y-11033600D01*
X15242700Y-10162700D02*
X15262700Y-10182700D01*
X15262700Y-10162700D02*
X15242700Y-10182700D01*
X15242700Y-11635900D02*
X15262700Y-11655900D01*
X15262700Y-11635900D02*
X15242700Y-11655900D01*
X15293500Y-10658000D02*
X15313500Y-10678000D01*
X15313500Y-10658000D02*
X15293500Y-10678000D01*
X15341500Y-10073800D02*
X15361500Y-10093800D01*
X15361500Y-10073800D02*
X15341500Y-10093800D01*
X15357000Y-10277000D02*
X15377000Y-10297000D01*
X15377000Y-10277000D02*
X15357000Y-10297000D01*
X15382400Y-10600500D02*
X15402400Y-10620500D01*
X15402400Y-10600500D02*
X15382400Y-10620500D01*
X15433200Y-10162700D02*
X15453200Y-10182700D01*
X15453200Y-10162700D02*
X15433200Y-10182700D01*
X15433200Y-10658000D02*
X15453200Y-10678000D01*
X15453200Y-10658000D02*
X15433200Y-10678000D01*
X15572900Y-10289700D02*
X15592900Y-10309700D01*
X15592900Y-10289700D02*
X15572900Y-10309700D01*
X15572900Y-10429400D02*
X15592900Y-10449400D01*
X15592900Y-10429400D02*
X15572900Y-10449400D01*
X15572900Y-10556400D02*
X15592900Y-10576400D01*
X15592900Y-10556400D02*
X15572900Y-10576400D01*
X15725300Y-10683400D02*
X15745300Y-10703400D01*
X15745300Y-10683400D02*
X15725300Y-10703400D01*
X12219700Y-11353800D02*
G75*
G03*
X12219700Y-11353800I-15000J0D01*
G01*
X12245100Y-9715500D02*
G75*
G03*
X12245100Y-9715500I-15000J0D01*
G01*
X12575300Y-11607800D02*
G75*
G03*
X12575300Y-11607800I-15000J0D01*
G01*
X12981700Y-10642600D02*
G75*
G03*
X12981700Y-10642600I-15000J0D01*
G01*
X13121400Y-11417300D02*
G75*
G03*
X13121400Y-11417300I-15000J0D01*
G01*
X13209183Y-10618317D02*
G75*
G03*
X13209183Y-10618317I-15000J0D01*
G01*
X13262217Y-10565283D02*
G75*
G03*
X13262217Y-10565283I-15000J0D01*
G01*
X13464300Y-9512300D02*
G75*
G03*
X13464300Y-9512300I-15000J0D01*
G01*
X13692900Y-11734800D02*
G75*
G03*
X13692900Y-11734800I-15000J0D01*
G01*
X13705600Y-10172700D02*
G75*
G03*
X13705600Y-10172700I-15000J0D01*
G01*
X14531100Y-10083800D02*
G75*
G03*
X14531100Y-10083800I-15000J0D01*
G01*
X14531100Y-10287000D02*
G75*
G03*
X14531100Y-10287000I-15000J0D01*
G01*
X16207500Y-10502900D02*
G75*
G03*
X16207500Y-10502900I-15000J0D01*
G01*
X16271000Y-10033000D02*
G75*
G03*
X16271000Y-10033000I-15000J0D01*
G01*
X11480800Y-11283000D02*
X11480800Y-11323000D01*
X11460800Y-11303000D02*
X11500800Y-11303000D01*
X11633200Y-9771700D02*
X11633200Y-9811700D01*
X11613200Y-9791700D02*
X11653200Y-9791700D01*
X11772900Y-10228900D02*
X11772900Y-10268900D01*
X11752900Y-10248900D02*
X11792900Y-10248900D01*
X11798300Y-10990900D02*
X11798300Y-11030900D01*
X11778300Y-11010900D02*
X11818300Y-11010900D01*
X12014200Y-10254300D02*
X12014200Y-10294300D01*
X11994200Y-10274300D02*
X12034200Y-10274300D01*
X12052300Y-9987600D02*
X12052300Y-10027600D01*
X12032300Y-10007600D02*
X12072300Y-10007600D01*
X12153900Y-10254300D02*
X12153900Y-10294300D01*
X12133900Y-10274300D02*
X12173900Y-10274300D01*
X12306300Y-10876600D02*
X12306300Y-10916600D01*
X12286300Y-10896600D02*
X12326300Y-10896600D01*
X12484100Y-9847900D02*
X12484100Y-9887900D01*
X12464100Y-9867900D02*
X12504100Y-9867900D01*
X12725400Y-9847900D02*
X12725400Y-9887900D01*
X12705400Y-9867900D02*
X12745400Y-9867900D01*
X12915900Y-9305500D02*
X12915900Y-9345500D01*
X12895900Y-9325500D02*
X12935900Y-9325500D01*
X12966700Y-9835200D02*
X12966700Y-9875200D01*
X12946700Y-9855200D02*
X12986700Y-9855200D01*
X12992100Y-10902000D02*
X12992100Y-10942000D01*
X12972100Y-10922000D02*
X13012100Y-10922000D01*
X13042900Y-10292400D02*
X13042900Y-10332400D01*
X13022900Y-10312400D02*
X13062900Y-10312400D01*
X13093700Y-9606600D02*
X13093700Y-9646600D01*
X13073700Y-9626600D02*
X13113700Y-9626600D01*
X13157200Y-9797100D02*
X13157200Y-9837100D01*
X13137200Y-9817100D02*
X13177200Y-9817100D01*
X13182600Y-10736900D02*
X13182600Y-10776900D01*
X13162600Y-10756900D02*
X13202600Y-10756900D01*
X13220700Y-9695500D02*
X13220700Y-9735500D01*
X13200700Y-9715500D02*
X13240700Y-9715500D01*
X13423900Y-11079800D02*
X13423900Y-11119800D01*
X13403900Y-11099800D02*
X13443900Y-11099800D01*
X13423900Y-11498900D02*
X13423900Y-11538900D01*
X13403900Y-11518900D02*
X13443900Y-11518900D01*
X13614400Y-9708200D02*
X13614400Y-9748200D01*
X13594400Y-9728200D02*
X13634400Y-9728200D01*
X13690600Y-11575100D02*
X13690600Y-11615100D01*
X13670600Y-11595100D02*
X13710600Y-11595100D01*
X13868400Y-9378000D02*
X13868400Y-9418000D01*
X13848400Y-9398000D02*
X13888400Y-9398000D01*
X13893800Y-10419400D02*
X13893800Y-10459400D01*
X13873800Y-10439400D02*
X13913800Y-10439400D01*
X14147800Y-11003600D02*
X14147800Y-11043600D01*
X14127800Y-11023600D02*
X14167800Y-11023600D01*
X14465300Y-11194100D02*
X14465300Y-11234100D01*
X14445300Y-11214100D02*
X14485300Y-11214100D01*
X14478000Y-9632000D02*
X14478000Y-9672000D01*
X14458000Y-9652000D02*
X14498000Y-9652000D01*
X14490700Y-11016300D02*
X14490700Y-11056300D01*
X14470700Y-11036300D02*
X14510700Y-11036300D01*
X14655800Y-9632000D02*
X14655800Y-9672000D01*
X14635800Y-9652000D02*
X14675800Y-9652000D01*
X14795500Y-10863900D02*
X14795500Y-10903900D01*
X14775500Y-10883900D02*
X14815500Y-10883900D01*
X14833600Y-9632000D02*
X14833600Y-9672000D01*
X14813600Y-9652000D02*
X14853600Y-9652000D01*
X14986000Y-9987600D02*
X14986000Y-10027600D01*
X14966000Y-10007600D02*
X15006000Y-10007600D01*
X15748000Y-11625900D02*
X15748000Y-11665900D01*
X15728000Y-11645900D02*
X15768000Y-11645900D01*
X15760700Y-9390700D02*
X15760700Y-9430700D01*
X15740700Y-9410700D02*
X15780700Y-9410700D01*
X11506200Y-10230800D02*
X11506200Y-10270800D01*
X11486200Y-10250800D02*
X11526200Y-10250800D01*
X11506200Y-10315800D02*
X11506200Y-10355800D01*
X11486200Y-10335800D02*
X11526200Y-10335800D01*
X11506200Y-10400800D02*
X11506200Y-10440800D01*
X11486200Y-10420800D02*
X11526200Y-10420800D01*
X11506200Y-10485800D02*
X11506200Y-10525800D01*
X11486200Y-10505800D02*
X11526200Y-10505800D01*
X11506200Y-10570800D02*
X11506200Y-10610800D01*
X11486200Y-10590800D02*
X11526200Y-10590800D01*
X11506200Y-10655800D02*
X11506200Y-10695800D01*
X11486200Y-10675800D02*
X11526200Y-10675800D01*
X11506200Y-10740800D02*
X11506200Y-10780800D01*
X11486200Y-10760800D02*
X11526200Y-10760800D01*
X11506200Y-10825800D02*
X11506200Y-10865800D01*
X11486200Y-10845800D02*
X11526200Y-10845800D01*
X11641200Y-10230800D02*
X11641200Y-10270800D01*
X11621200Y-10250800D02*
X11661200Y-10250800D01*
X11641200Y-10315800D02*
X11641200Y-10355800D01*
X11621200Y-10335800D02*
X11661200Y-10335800D01*
X11641200Y-10400800D02*
X11641200Y-10440800D01*
X11621200Y-10420800D02*
X11661200Y-10420800D01*
X11641200Y-10485800D02*
X11641200Y-10525800D01*
X11621200Y-10505800D02*
X11661200Y-10505800D01*
X11641200Y-10570800D02*
X11641200Y-10610800D01*
X11621200Y-10590800D02*
X11661200Y-10590800D01*
X11641200Y-10655800D02*
X11641200Y-10695800D01*
X11621200Y-10675800D02*
X11661200Y-10675800D01*
X11641200Y-10740800D02*
X11641200Y-10780800D01*
X11621200Y-10760800D02*
X11661200Y-10760800D01*
X11641200Y-10825800D02*
X11641200Y-10865800D01*
X11621200Y-10845800D02*
X11661200Y-10845800D01*
X16249578Y-9314078D02*
X16249578Y-9278722D01*
X16214222Y-9278722D01*
X16214222Y-9314078D01*
X16249578Y-9314078D01*
X16319872Y-9144372D02*
X16319872Y-9109017D01*
X16284517Y-9109017D01*
X16284517Y-9144372D01*
X16319872Y-9144372D01*
X16319872Y-9483783D02*
X16319872Y-9448428D01*
X16284517Y-9448428D01*
X16284517Y-9483783D01*
X16319872Y-9483783D01*
X16489578Y-9074078D02*
X16489578Y-9038722D01*
X16454222Y-9038722D01*
X16454222Y-9074078D01*
X16489578Y-9074078D01*
X16489578Y-9554078D02*
X16489578Y-9518722D01*
X16454222Y-9518722D01*
X16454222Y-9554078D01*
X16489578Y-9554078D01*
X16659283Y-9144372D02*
X16659283Y-9109017D01*
X16623928Y-9109017D01*
X16623928Y-9144372D01*
X16659283Y-9144372D01*
X16659283Y-9483783D02*
X16659283Y-9448428D01*
X16623928Y-9448428D01*
X16623928Y-9483783D01*
X16659283Y-9483783D01*
X16729578Y-9314078D02*
X16729578Y-9278722D01*
X16694222Y-9278722D01*
X16694222Y-9314078D01*
X16729578Y-9314078D01*
X11194978Y-9314078D02*
X11194978Y-9278722D01*
X11159622Y-9278722D01*
X11159622Y-9314078D01*
X11194978Y-9314078D01*
X11265272Y-9144372D02*
X11265272Y-9109017D01*
X11229917Y-9109017D01*
X11229917Y-9144372D01*
X11265272Y-9144372D01*
X11265272Y-9483783D02*
X11265272Y-9448428D01*
X11229917Y-9448428D01*
X11229917Y-9483783D01*
X11265272Y-9483783D01*
X11434978Y-9074078D02*
X11434978Y-9038722D01*
X11399622Y-9038722D01*
X11399622Y-9074078D01*
X11434978Y-9074078D01*
X11434978Y-9554078D02*
X11434978Y-9518722D01*
X11399622Y-9518722D01*
X11399622Y-9554078D01*
X11434978Y-9554078D01*
X11604683Y-9144372D02*
X11604683Y-9109017D01*
X11569328Y-9109017D01*
X11569328Y-9144372D01*
X11604683Y-9144372D01*
X11604683Y-9483783D02*
X11604683Y-9448428D01*
X11569328Y-9448428D01*
X11569328Y-9483783D01*
X11604683Y-9483783D01*
X11674978Y-9314078D02*
X11674978Y-9278722D01*
X11639622Y-9278722D01*
X11639622Y-9314078D01*
X11674978Y-9314078D01*
X11194978Y-11777878D02*
X11194978Y-11742522D01*
X11159622Y-11742522D01*
X11159622Y-11777878D01*
X11194978Y-11777878D01*
X11265272Y-11608172D02*
X11265272Y-11572817D01*
X11229917Y-11572817D01*
X11229917Y-11608172D01*
X11265272Y-11608172D01*
X11265272Y-11947583D02*
X11265272Y-11912228D01*
X11229917Y-11912228D01*
X11229917Y-11947583D01*
X11265272Y-11947583D01*
X11434978Y-11537878D02*
X11434978Y-11502522D01*
X11399622Y-11502522D01*
X11399622Y-11537878D01*
X11434978Y-11537878D01*
X11434978Y-12017878D02*
X11434978Y-11982522D01*
X11399622Y-11982522D01*
X11399622Y-12017878D01*
X11434978Y-12017878D01*
X11604683Y-11608172D02*
X11604683Y-11572817D01*
X11569328Y-11572817D01*
X11569328Y-11608172D01*
X11604683Y-11608172D01*
X11604683Y-11947583D02*
X11604683Y-11912228D01*
X11569328Y-11912228D01*
X11569328Y-11947583D01*
X11604683Y-11947583D01*
X11674978Y-11777878D02*
X11674978Y-11742522D01*
X11639622Y-11742522D01*
X11639622Y-11777878D01*
X11674978Y-11777878D01*
X16249578Y-11777878D02*
X16249578Y-11742522D01*
X16214222Y-11742522D01*
X16214222Y-11777878D01*
X16249578Y-11777878D01*
X16319872Y-11608172D02*
X16319872Y-11572817D01*
X16284517Y-11572817D01*
X16284517Y-11608172D01*
X16319872Y-11608172D01*
X16319872Y-11947583D02*
X16319872Y-11912228D01*
X16284517Y-11912228D01*
X16284517Y-11947583D01*
X16319872Y-11947583D01*
X16489578Y-11537878D02*
X16489578Y-11502522D01*
X16454222Y-11502522D01*
X16454222Y-11537878D01*
X16489578Y-11537878D01*
X16489578Y-12017878D02*
X16489578Y-11982522D01*
X16454222Y-11982522D01*
X16454222Y-12017878D01*
X16489578Y-12017878D01*
X16659283Y-11608172D02*
X16659283Y-11572817D01*
X16623928Y-11572817D01*
X16623928Y-11608172D01*
X16659283Y-11608172D01*
X16659283Y-11947583D02*
X16659283Y-11912228D01*
X16623928Y-11912228D01*
X16623928Y-11947583D01*
X16659283Y-11947583D01*
X16729578Y-11777878D02*
X16729578Y-11742522D01*
X16694222Y-11742522D01*
X16694222Y-11777878D01*
X16729578Y-11777878D01*
X11205200Y-10145800D02*
X11235200Y-10115800D01*
X11205200Y-10085800D01*
X11175200Y-10115800D01*
X11205200Y-10145800D01*
X11165200Y-10135800D02*
X11245200Y-10135800D01*
X11165200Y-10095800D02*
X11245200Y-10095800D01*
X11245200Y-10135800D02*
G75*
G03*
X11245200Y-10095800I0J20000D01*
G01*
X11165200Y-10095800D02*
G75*
G03*
X11165200Y-10135800I0J-20000D01*
G01*
X11205200Y-11010800D02*
X11235200Y-10980800D01*
X11205200Y-10950800D01*
X11175200Y-10980800D01*
X11205200Y-11010800D01*
X11165200Y-11000800D02*
X11245200Y-11000800D01*
X11165200Y-10960800D02*
X11245200Y-10960800D01*
X11245200Y-11000800D02*
G75*
G03*
X11245200Y-10960800I0J20000D01*
G01*
X11165200Y-10960800D02*
G75*
G03*
X11165200Y-11000800I0J-20000D01*
G01*
X11543200Y-10145800D02*
X11573200Y-10115800D01*
X11543200Y-10085800D01*
X11513200Y-10115800D01*
X11543200Y-10145800D01*
X11468200Y-10135800D02*
X11618200Y-10135800D01*
X11468200Y-10095800D02*
X11618200Y-10095800D01*
X11618200Y-10135800D02*
G75*
G03*
X11618200Y-10095800I0J20000D01*
G01*
X11468200Y-10095800D02*
G75*
G03*
X11468200Y-10135800I0J-20000D01*
G01*
X11543200Y-11010800D02*
X11573200Y-10980800D01*
X11543200Y-10950800D01*
X11513200Y-10980800D01*
X11543200Y-11010800D01*
X11468200Y-11000800D02*
X11618200Y-11000800D01*
X11468200Y-10960800D02*
X11618200Y-10960800D01*
X11618200Y-11000800D02*
G75*
G03*
X11618200Y-10960800I0J20000D01*
G01*
X11468200Y-10960800D02*
G75*
G03*
X11468200Y-11000800I0J-20000D01*
G01*
X15868400Y-9980300D02*
X15948400Y-10060300D01*
X15948400Y-9980300D02*
X15868400Y-10060300D01*
X15948400Y-10020300D02*
G75*
G03*
X15948400Y-10020300I-40000J0D01*
G01*
X15943400Y-9990300D02*
X15873400Y-9990300D01*
X15943400Y-10050300D02*
X15873400Y-10050300D01*
X15873400Y-9990300D02*
G75*
G03*
X15873400Y-10050300I0J-30000D01*
G01*
X15943400Y-10050300D02*
G75*
G03*
X15943400Y-9990300I0J30000D01*
G01*
X15868400Y-10980300D02*
X15948400Y-11060300D01*
X15948400Y-10980300D02*
X15868400Y-11060300D01*
X15948400Y-11020300D02*
G75*
G03*
X15948400Y-11020300I-40000J0D01*
G01*
X15943400Y-10990300D02*
X15873400Y-10990300D01*
X15943400Y-11050300D02*
X15873400Y-11050300D01*
X15873400Y-10990300D02*
G75*
G03*
X15873400Y-11050300I0J-30000D01*
G01*
X15943400Y-11050300D02*
G75*
G03*
X15943400Y-10990300I0J30000D01*
G01*
X16368400Y-10480300D02*
X16448400Y-10560300D01*
X16448400Y-10480300D02*
X16368400Y-10560300D01*
X16448400Y-10520300D02*
G75*
G03*
X16448400Y-10520300I-40000J0D01*
G01*
X16438400Y-10555300D02*
X16438400Y-10485300D01*
X16378400Y-10555300D02*
X16378400Y-10485300D01*
X16438400Y-10485300D02*
G75*
G03*
X16378400Y-10485300I-30000J0D01*
G01*
X16378400Y-10555300D02*
G75*
G03*
X16438400Y-10555300I30000J0D01*
G01*
X15456700Y-9106700D02*
X15556700Y-9206700D01*
X15556700Y-9106700D02*
X15456700Y-9206700D01*
X15506700Y-9106700D02*
X15506700Y-9206700D01*
X15456700Y-9156700D02*
X15556700Y-9156700D01*
X15710700Y-9106700D02*
X15810700Y-9206700D01*
X15810700Y-9106700D02*
X15710700Y-9206700D01*
X15760700Y-9106700D02*
X15760700Y-9206700D01*
X15710700Y-9156700D02*
X15810700Y-9156700D01*
X13335800Y-9068600D02*
X13435800Y-9168600D01*
X13435800Y-9068600D02*
X13335800Y-9168600D01*
X13385800Y-9068600D02*
X13385800Y-9168600D01*
X13335800Y-9118600D02*
X13435800Y-9118600D01*
X13589800Y-9068600D02*
X13689800Y-9168600D01*
X13689800Y-9068600D02*
X13589800Y-9168600D01*
X13639800Y-9068600D02*
X13639800Y-9168600D01*
X13589800Y-9118600D02*
X13689800Y-9118600D01*
X13843800Y-9068600D02*
X13943800Y-9168600D01*
X13943800Y-9068600D02*
X13843800Y-9168600D01*
X13893800Y-9068600D02*
X13893800Y-9168600D01*
X13843800Y-9118600D02*
X13943800Y-9118600D01*
X14097800Y-9068600D02*
X14197800Y-9168600D01*
X14197800Y-9068600D02*
X14097800Y-9168600D01*
X14147800Y-9068600D02*
X14147800Y-9168600D01*
X14097800Y-9118600D02*
X14197800Y-9118600D01*
X13653300Y-11913400D02*
X13753300Y-12013400D01*
X13753300Y-11913400D02*
X13653300Y-12013400D01*
X13703300Y-11913400D02*
X13703300Y-12013400D01*
X13653300Y-11963400D02*
X13753300Y-11963400D01*
X13907300Y-11913400D02*
X14007300Y-12013400D01*
X14007300Y-11913400D02*
X13907300Y-12013400D01*
X13957300Y-11913400D02*
X13957300Y-12013400D01*
X13907300Y-11963400D02*
X14007300Y-11963400D01*
X14161300Y-11913400D02*
X14261300Y-12013400D01*
X14261300Y-11913400D02*
X14161300Y-12013400D01*
X14211300Y-11913400D02*
X14211300Y-12013400D01*
X14161300Y-11963400D02*
X14261300Y-11963400D01*
X14415300Y-11913400D02*
X14515300Y-12013400D01*
X14515300Y-11913400D02*
X14415300Y-12013400D01*
X14465300Y-11913400D02*
X14465300Y-12013400D01*
X14415300Y-11963400D02*
X14515300Y-11963400D01*
X14669300Y-11913400D02*
X14769300Y-12013400D01*
X14769300Y-11913400D02*
X14669300Y-12013400D01*
X14719300Y-11913400D02*
X14719300Y-12013400D01*
X14669300Y-11963400D02*
X14769300Y-11963400D01*
X14923300Y-11913400D02*
X15023300Y-12013400D01*
X15023300Y-11913400D02*
X14923300Y-12013400D01*
X14973300Y-11913400D02*
X14973300Y-12013400D01*
X14923300Y-11963400D02*
X15023300Y-11963400D01*
X11913400Y-9335300D02*
X12013400Y-9435300D01*
X12013400Y-9335300D02*
X11913400Y-9435300D01*
X11963400Y-9335300D02*
X11963400Y-9435300D01*
X11913400Y-9385300D02*
X12013400Y-9385300D01*
X11913400Y-9589300D02*
X12013400Y-9689300D01*
X12013400Y-9589300D02*
X11913400Y-9689300D01*
X11963400Y-9589300D02*
X11963400Y-9689300D01*
X11913400Y-9639300D02*
X12013400Y-9639300D01*
X16311900Y-9136400D02*
X16631900Y-9456400D01*
X16631900Y-9136400D02*
X16311900Y-9456400D01*
X16585038Y-9409538D02*
X16585038Y-9183262D01*
X16358762Y-9183262D01*
X16358762Y-9409538D01*
X16585038Y-9409538D01*
X11257300Y-9136400D02*
X11577300Y-9456400D01*
X11577300Y-9136400D02*
X11257300Y-9456400D01*
X11530438Y-9409538D02*
X11530438Y-9183262D01*
X11304162Y-9183262D01*
X11304162Y-9409538D01*
X11530438Y-9409538D01*
X11257300Y-11600200D02*
X11577300Y-11920200D01*
X11577300Y-11600200D02*
X11257300Y-11920200D01*
X11530438Y-11873338D02*
X11530438Y-11647062D01*
X11304162Y-11647062D01*
X11304162Y-11873338D01*
X11530438Y-11873338D01*
X16311900Y-11600200D02*
X16631900Y-11920200D01*
X16631900Y-11600200D02*
X16311900Y-11920200D01*
X16585038Y-11873338D02*
X16585038Y-11647062D01*
X16358762Y-11647062D01*
X16358762Y-11873338D01*
X16585038Y-11873338D01*
D12*
X11320228Y-12609414D02*
X11320228Y-12309414D01*
X11391657Y-12309414D01*
X11434514Y-12323700D01*
X11463086Y-12352271D01*
X11477371Y-12380843D01*
X11491657Y-12437986D01*
X11491657Y-12480843D01*
X11477371Y-12537986D01*
X11463086Y-12566557D01*
X11434514Y-12595129D01*
X11391657Y-12609414D01*
X11320228Y-12609414D01*
X11620228Y-12609414D02*
X11620228Y-12409414D01*
X11620228Y-12466557D02*
X11634514Y-12437986D01*
X11648800Y-12423700D01*
X11677371Y-12409414D01*
X11705943Y-12409414D01*
X11805943Y-12609414D02*
X11805943Y-12409414D01*
X11805943Y-12309414D02*
X11791657Y-12323700D01*
X11805943Y-12337986D01*
X11820228Y-12323700D01*
X11805943Y-12309414D01*
X11805943Y-12337986D01*
X11991657Y-12609414D02*
X11963086Y-12595129D01*
X11948800Y-12566557D01*
X11948800Y-12309414D01*
X12148800Y-12609414D02*
X12120228Y-12595129D01*
X12105943Y-12566557D01*
X12105943Y-12309414D01*
X12491657Y-12609414D02*
X12491657Y-12309414D01*
X12591657Y-12523700D01*
X12691657Y-12309414D01*
X12691657Y-12609414D01*
X12963086Y-12609414D02*
X12963086Y-12452271D01*
X12948800Y-12423700D01*
X12920228Y-12409414D01*
X12863086Y-12409414D01*
X12834514Y-12423700D01*
X12963086Y-12595129D02*
X12934514Y-12609414D01*
X12863086Y-12609414D01*
X12834514Y-12595129D01*
X12820228Y-12566557D01*
X12820228Y-12537986D01*
X12834514Y-12509414D01*
X12863086Y-12495129D01*
X12934514Y-12495129D01*
X12963086Y-12480843D01*
X13105943Y-12409414D02*
X13105943Y-12709414D01*
X13105943Y-12423700D02*
X13134514Y-12409414D01*
X13191657Y-12409414D01*
X13220228Y-12423700D01*
X13234514Y-12437986D01*
X13248800Y-12466557D01*
X13248800Y-12552271D01*
X13234514Y-12580843D01*
X13220228Y-12595129D01*
X13191657Y-12609414D01*
X13134514Y-12609414D01*
X13105943Y-12595129D01*
X13377371Y-12580843D02*
X13391657Y-12595129D01*
X13377371Y-12609414D01*
X13363086Y-12595129D01*
X13377371Y-12580843D01*
X13377371Y-12609414D01*
X13377371Y-12423700D02*
X13391657Y-12437986D01*
X13377371Y-12452271D01*
X13363086Y-12437986D01*
X13377371Y-12423700D01*
X13377371Y-12452271D01*
X11013800Y-13093700D02*
X11033800Y-13113700D01*
X11033800Y-13093700D02*
X11013800Y-13113700D01*
X11377371Y-12939414D02*
X11405943Y-12939414D01*
X11434514Y-12953700D01*
X11448800Y-12967986D01*
X11463086Y-12996557D01*
X11477371Y-13053700D01*
X11477371Y-13125129D01*
X11463086Y-13182271D01*
X11448800Y-13210843D01*
X11434514Y-13225129D01*
X11405943Y-13239414D01*
X11377371Y-13239414D01*
X11348800Y-13225129D01*
X11334514Y-13210843D01*
X11320228Y-13182271D01*
X11305943Y-13125129D01*
X11305943Y-13053700D01*
X11320228Y-12996557D01*
X11334514Y-12967986D01*
X11348800Y-12953700D01*
X11377371Y-12939414D01*
X11605943Y-13210843D02*
X11620228Y-13225129D01*
X11605943Y-13239414D01*
X11591657Y-13225129D01*
X11605943Y-13210843D01*
X11605943Y-13239414D01*
X11734514Y-12967986D02*
X11748800Y-12953700D01*
X11777371Y-12939414D01*
X11848800Y-12939414D01*
X11877371Y-12953700D01*
X11891657Y-12967986D01*
X11905943Y-12996557D01*
X11905943Y-13025129D01*
X11891657Y-13067986D01*
X11720228Y-13239414D01*
X11905943Y-13239414D01*
X12091657Y-12939414D02*
X12120228Y-12939414D01*
X12148800Y-12953700D01*
X12163086Y-12967986D01*
X12177371Y-12996557D01*
X12191657Y-13053700D01*
X12191657Y-13125129D01*
X12177371Y-13182271D01*
X12163086Y-13210843D01*
X12148800Y-13225129D01*
X12120228Y-13239414D01*
X12091657Y-13239414D01*
X12063086Y-13225129D01*
X12048800Y-13210843D01*
X12034514Y-13182271D01*
X12020228Y-13125129D01*
X12020228Y-13053700D01*
X12034514Y-12996557D01*
X12048800Y-12967986D01*
X12063086Y-12953700D01*
X12091657Y-12939414D01*
X12320228Y-13239414D02*
X12320228Y-13039414D01*
X12320228Y-13067986D02*
X12334514Y-13053700D01*
X12363086Y-13039414D01*
X12405943Y-13039414D01*
X12434514Y-13053700D01*
X12448800Y-13082271D01*
X12448800Y-13239414D01*
X12448800Y-13082271D02*
X12463086Y-13053700D01*
X12491657Y-13039414D01*
X12534514Y-13039414D01*
X12563086Y-13053700D01*
X12577371Y-13082271D01*
X12577371Y-13239414D01*
X12720228Y-13239414D02*
X12720228Y-13039414D01*
X12720228Y-13067986D02*
X12734514Y-13053700D01*
X12763086Y-13039414D01*
X12805943Y-13039414D01*
X12834514Y-13053700D01*
X12848800Y-13082271D01*
X12848800Y-13239414D01*
X12848800Y-13082271D02*
X12863086Y-13053700D01*
X12891657Y-13039414D01*
X12934514Y-13039414D01*
X12963086Y-13053700D01*
X12977371Y-13082271D01*
X12977371Y-13239414D01*
X13563086Y-12925129D02*
X13305943Y-13310843D01*
X13948800Y-12939414D02*
X13977371Y-12939414D01*
X14005943Y-12953700D01*
X14020228Y-12967986D01*
X14034514Y-12996557D01*
X14048800Y-13053700D01*
X14048800Y-13125129D01*
X14034514Y-13182271D01*
X14020228Y-13210843D01*
X14005943Y-13225129D01*
X13977371Y-13239414D01*
X13948800Y-13239414D01*
X13920228Y-13225129D01*
X13905943Y-13210843D01*
X13891657Y-13182271D01*
X13877371Y-13125129D01*
X13877371Y-13053700D01*
X13891657Y-12996557D01*
X13905943Y-12967986D01*
X13920228Y-12953700D01*
X13948800Y-12939414D01*
X14177371Y-13210843D02*
X14191657Y-13225129D01*
X14177371Y-13239414D01*
X14163086Y-13225129D01*
X14177371Y-13210843D01*
X14177371Y-13239414D01*
X14377371Y-12939414D02*
X14405943Y-12939414D01*
X14434514Y-12953700D01*
X14448800Y-12967986D01*
X14463086Y-12996557D01*
X14477371Y-13053700D01*
X14477371Y-13125129D01*
X14463086Y-13182271D01*
X14448800Y-13210843D01*
X14434514Y-13225129D01*
X14405943Y-13239414D01*
X14377371Y-13239414D01*
X14348800Y-13225129D01*
X14334514Y-13210843D01*
X14320228Y-13182271D01*
X14305943Y-13125129D01*
X14305943Y-13053700D01*
X14320228Y-12996557D01*
X14334514Y-12967986D01*
X14348800Y-12953700D01*
X14377371Y-12939414D01*
X14663086Y-12939414D02*
X14691657Y-12939414D01*
X14720228Y-12953700D01*
X14734514Y-12967986D01*
X14748800Y-12996557D01*
X14763086Y-13053700D01*
X14763086Y-13125129D01*
X14748800Y-13182271D01*
X14734514Y-13210843D01*
X14720228Y-13225129D01*
X14691657Y-13239414D01*
X14663086Y-13239414D01*
X14634514Y-13225129D01*
X14620228Y-13210843D01*
X14605943Y-13182271D01*
X14591657Y-13125129D01*
X14591657Y-13053700D01*
X14605943Y-12996557D01*
X14620228Y-12967986D01*
X14634514Y-12953700D01*
X14663086Y-12939414D01*
X14934514Y-13067986D02*
X14905943Y-13053700D01*
X14891657Y-13039414D01*
X14877371Y-13010843D01*
X14877371Y-12996557D01*
X14891657Y-12967986D01*
X14905943Y-12953700D01*
X14934514Y-12939414D01*
X14991657Y-12939414D01*
X15020228Y-12953700D01*
X15034514Y-12967986D01*
X15048800Y-12996557D01*
X15048800Y-13010843D01*
X15034514Y-13039414D01*
X15020228Y-13053700D01*
X14991657Y-13067986D01*
X14934514Y-13067986D01*
X14905943Y-13082271D01*
X14891657Y-13096557D01*
X14877371Y-13125129D01*
X14877371Y-13182271D01*
X14891657Y-13210843D01*
X14905943Y-13225129D01*
X14934514Y-13239414D01*
X14991657Y-13239414D01*
X15020228Y-13225129D01*
X15034514Y-13210843D01*
X15048800Y-13182271D01*
X15048800Y-13125129D01*
X15034514Y-13096557D01*
X15020228Y-13082271D01*
X14991657Y-13067986D01*
X15163086Y-12939414D02*
X15163086Y-12996557D01*
X15277371Y-12939414D02*
X15277371Y-12996557D01*
X15720228Y-13353700D02*
X15705943Y-13339414D01*
X15677371Y-13296557D01*
X15663086Y-13267986D01*
X15648800Y-13225129D01*
X15634514Y-13153700D01*
X15634514Y-13096557D01*
X15648800Y-13025129D01*
X15663086Y-12982271D01*
X15677371Y-12953700D01*
X15705943Y-12910843D01*
X15720228Y-12896557D01*
X15963086Y-13039414D02*
X15963086Y-13239414D01*
X15891657Y-12925129D02*
X15820228Y-13139414D01*
X16005943Y-13139414D01*
X16091657Y-12939414D02*
X16277371Y-12939414D01*
X16177371Y-13053700D01*
X16220228Y-13053700D01*
X16248800Y-13067986D01*
X16263086Y-13082271D01*
X16277371Y-13110843D01*
X16277371Y-13182271D01*
X16263086Y-13210843D01*
X16248800Y-13225129D01*
X16220228Y-13239414D01*
X16134514Y-13239414D01*
X16105943Y-13225129D01*
X16091657Y-13210843D01*
X16634514Y-13239414D02*
X16634514Y-12939414D01*
X16763086Y-13239414D02*
X16763086Y-13082271D01*
X16748800Y-13053700D01*
X16720228Y-13039414D01*
X16677371Y-13039414D01*
X16648800Y-13053700D01*
X16634514Y-13067986D01*
X16948800Y-13239414D02*
X16920228Y-13225129D01*
X16905943Y-13210843D01*
X16891657Y-13182271D01*
X16891657Y-13096557D01*
X16905943Y-13067986D01*
X16920228Y-13053700D01*
X16948800Y-13039414D01*
X16991657Y-13039414D01*
X17020228Y-13053700D01*
X17034514Y-13067986D01*
X17048800Y-13096557D01*
X17048800Y-13182271D01*
X17034514Y-13210843D01*
X17020228Y-13225129D01*
X16991657Y-13239414D01*
X16948800Y-13239414D01*
X17220228Y-13239414D02*
X17191657Y-13225129D01*
X17177371Y-13196557D01*
X17177371Y-12939414D01*
X17448800Y-13225129D02*
X17420228Y-13239414D01*
X17363086Y-13239414D01*
X17334514Y-13225129D01*
X17320228Y-13196557D01*
X17320228Y-13082271D01*
X17334514Y-13053700D01*
X17363086Y-13039414D01*
X17420228Y-13039414D01*
X17448800Y-13053700D01*
X17463086Y-13082271D01*
X17463086Y-13110843D01*
X17320228Y-13139414D01*
X17577371Y-13225129D02*
X17605943Y-13239414D01*
X17663086Y-13239414D01*
X17691657Y-13225129D01*
X17705943Y-13196557D01*
X17705943Y-13182271D01*
X17691657Y-13153700D01*
X17663086Y-13139414D01*
X17620228Y-13139414D01*
X17591657Y-13125129D01*
X17577371Y-13096557D01*
X17577371Y-13082271D01*
X17591657Y-13053700D01*
X17620228Y-13039414D01*
X17663086Y-13039414D01*
X17691657Y-13053700D01*
X17805943Y-13353700D02*
X17820228Y-13339414D01*
X17848800Y-13296557D01*
X17863086Y-13267986D01*
X17877371Y-13225129D01*
X17891657Y-13153700D01*
X17891657Y-13096557D01*
X17877371Y-13025129D01*
X17863086Y-12982271D01*
X17848800Y-12953700D01*
X17820228Y-12910843D01*
X17805943Y-12896557D01*
X11033800Y-13499700D02*
G75*
G03*
X11033800Y-13499700I-15000J0D01*
G01*
X11377371Y-13335414D02*
X11405943Y-13335414D01*
X11434514Y-13349700D01*
X11448800Y-13363986D01*
X11463086Y-13392557D01*
X11477371Y-13449700D01*
X11477371Y-13521129D01*
X11463086Y-13578271D01*
X11448800Y-13606843D01*
X11434514Y-13621129D01*
X11405943Y-13635414D01*
X11377371Y-13635414D01*
X11348800Y-13621129D01*
X11334514Y-13606843D01*
X11320228Y-13578271D01*
X11305943Y-13521129D01*
X11305943Y-13449700D01*
X11320228Y-13392557D01*
X11334514Y-13363986D01*
X11348800Y-13349700D01*
X11377371Y-13335414D01*
X11605943Y-13606843D02*
X11620228Y-13621129D01*
X11605943Y-13635414D01*
X11591657Y-13621129D01*
X11605943Y-13606843D01*
X11605943Y-13635414D01*
X11720228Y-13335414D02*
X11905943Y-13335414D01*
X11805943Y-13449700D01*
X11848800Y-13449700D01*
X11877371Y-13463986D01*
X11891657Y-13478271D01*
X11905943Y-13506843D01*
X11905943Y-13578271D01*
X11891657Y-13606843D01*
X11877371Y-13621129D01*
X11848800Y-13635414D01*
X11763086Y-13635414D01*
X11734514Y-13621129D01*
X11720228Y-13606843D01*
X12091657Y-13335414D02*
X12120228Y-13335414D01*
X12148800Y-13349700D01*
X12163086Y-13363986D01*
X12177371Y-13392557D01*
X12191657Y-13449700D01*
X12191657Y-13521129D01*
X12177371Y-13578271D01*
X12163086Y-13606843D01*
X12148800Y-13621129D01*
X12120228Y-13635414D01*
X12091657Y-13635414D01*
X12063086Y-13621129D01*
X12048800Y-13606843D01*
X12034514Y-13578271D01*
X12020228Y-13521129D01*
X12020228Y-13449700D01*
X12034514Y-13392557D01*
X12048800Y-13363986D01*
X12063086Y-13349700D01*
X12091657Y-13335414D01*
X12320228Y-13635414D02*
X12320228Y-13435414D01*
X12320228Y-13463986D02*
X12334514Y-13449700D01*
X12363086Y-13435414D01*
X12405943Y-13435414D01*
X12434514Y-13449700D01*
X12448800Y-13478271D01*
X12448800Y-13635414D01*
X12448800Y-13478271D02*
X12463086Y-13449700D01*
X12491657Y-13435414D01*
X12534514Y-13435414D01*
X12563086Y-13449700D01*
X12577371Y-13478271D01*
X12577371Y-13635414D01*
X12720228Y-13635414D02*
X12720228Y-13435414D01*
X12720228Y-13463986D02*
X12734514Y-13449700D01*
X12763086Y-13435414D01*
X12805943Y-13435414D01*
X12834514Y-13449700D01*
X12848800Y-13478271D01*
X12848800Y-13635414D01*
X12848800Y-13478271D02*
X12863086Y-13449700D01*
X12891657Y-13435414D01*
X12934514Y-13435414D01*
X12963086Y-13449700D01*
X12977371Y-13478271D01*
X12977371Y-13635414D01*
X13563086Y-13321129D02*
X13305943Y-13706843D01*
X13948800Y-13335414D02*
X13977371Y-13335414D01*
X14005943Y-13349700D01*
X14020228Y-13363986D01*
X14034514Y-13392557D01*
X14048800Y-13449700D01*
X14048800Y-13521129D01*
X14034514Y-13578271D01*
X14020228Y-13606843D01*
X14005943Y-13621129D01*
X13977371Y-13635414D01*
X13948800Y-13635414D01*
X13920228Y-13621129D01*
X13905943Y-13606843D01*
X13891657Y-13578271D01*
X13877371Y-13521129D01*
X13877371Y-13449700D01*
X13891657Y-13392557D01*
X13905943Y-13363986D01*
X13920228Y-13349700D01*
X13948800Y-13335414D01*
X14177371Y-13606843D02*
X14191657Y-13621129D01*
X14177371Y-13635414D01*
X14163086Y-13621129D01*
X14177371Y-13606843D01*
X14177371Y-13635414D01*
X14377371Y-13335414D02*
X14405943Y-13335414D01*
X14434514Y-13349700D01*
X14448800Y-13363986D01*
X14463086Y-13392557D01*
X14477371Y-13449700D01*
X14477371Y-13521129D01*
X14463086Y-13578271D01*
X14448800Y-13606843D01*
X14434514Y-13621129D01*
X14405943Y-13635414D01*
X14377371Y-13635414D01*
X14348800Y-13621129D01*
X14334514Y-13606843D01*
X14320228Y-13578271D01*
X14305943Y-13521129D01*
X14305943Y-13449700D01*
X14320228Y-13392557D01*
X14334514Y-13363986D01*
X14348800Y-13349700D01*
X14377371Y-13335414D01*
X14763086Y-13635414D02*
X14591657Y-13635414D01*
X14677371Y-13635414D02*
X14677371Y-13335414D01*
X14648800Y-13378271D01*
X14620228Y-13406843D01*
X14591657Y-13421129D01*
X14877371Y-13363986D02*
X14891657Y-13349700D01*
X14920228Y-13335414D01*
X14991657Y-13335414D01*
X15020228Y-13349700D01*
X15034514Y-13363986D01*
X15048800Y-13392557D01*
X15048800Y-13421129D01*
X15034514Y-13463986D01*
X14863086Y-13635414D01*
X15048800Y-13635414D01*
X15163086Y-13335414D02*
X15163086Y-13392557D01*
X15277371Y-13335414D02*
X15277371Y-13392557D01*
X15720228Y-13749700D02*
X15705943Y-13735414D01*
X15677371Y-13692557D01*
X15663086Y-13663986D01*
X15648800Y-13621129D01*
X15634514Y-13549700D01*
X15634514Y-13492557D01*
X15648800Y-13421129D01*
X15663086Y-13378271D01*
X15677371Y-13349700D01*
X15705943Y-13306843D01*
X15720228Y-13292557D01*
X15991657Y-13635414D02*
X15820228Y-13635414D01*
X15905943Y-13635414D02*
X15905943Y-13335414D01*
X15877371Y-13378271D01*
X15848800Y-13406843D01*
X15820228Y-13421129D01*
X16248800Y-13435414D02*
X16248800Y-13635414D01*
X16177371Y-13321129D02*
X16105943Y-13535414D01*
X16291657Y-13535414D01*
X16634514Y-13635414D02*
X16634514Y-13335414D01*
X16763086Y-13635414D02*
X16763086Y-13478271D01*
X16748800Y-13449700D01*
X16720228Y-13435414D01*
X16677371Y-13435414D01*
X16648800Y-13449700D01*
X16634514Y-13463986D01*
X16948800Y-13635414D02*
X16920228Y-13621129D01*
X16905943Y-13606843D01*
X16891657Y-13578271D01*
X16891657Y-13492557D01*
X16905943Y-13463986D01*
X16920228Y-13449700D01*
X16948800Y-13435414D01*
X16991657Y-13435414D01*
X17020228Y-13449700D01*
X17034514Y-13463986D01*
X17048800Y-13492557D01*
X17048800Y-13578271D01*
X17034514Y-13606843D01*
X17020228Y-13621129D01*
X16991657Y-13635414D01*
X16948800Y-13635414D01*
X17220228Y-13635414D02*
X17191657Y-13621129D01*
X17177371Y-13592557D01*
X17177371Y-13335414D01*
X17448800Y-13621129D02*
X17420228Y-13635414D01*
X17363086Y-13635414D01*
X17334514Y-13621129D01*
X17320228Y-13592557D01*
X17320228Y-13478271D01*
X17334514Y-13449700D01*
X17363086Y-13435414D01*
X17420228Y-13435414D01*
X17448800Y-13449700D01*
X17463086Y-13478271D01*
X17463086Y-13506843D01*
X17320228Y-13535414D01*
X17577371Y-13621129D02*
X17605943Y-13635414D01*
X17663086Y-13635414D01*
X17691657Y-13621129D01*
X17705943Y-13592557D01*
X17705943Y-13578271D01*
X17691657Y-13549700D01*
X17663086Y-13535414D01*
X17620228Y-13535414D01*
X17591657Y-13521129D01*
X17577371Y-13492557D01*
X17577371Y-13478271D01*
X17591657Y-13449700D01*
X17620228Y-13435414D01*
X17663086Y-13435414D01*
X17691657Y-13449700D01*
X17805943Y-13749700D02*
X17820228Y-13735414D01*
X17848800Y-13692557D01*
X17863086Y-13663986D01*
X17877371Y-13621129D01*
X17891657Y-13549700D01*
X17891657Y-13492557D01*
X17877371Y-13421129D01*
X17863086Y-13378271D01*
X17848800Y-13349700D01*
X17820228Y-13306843D01*
X17805943Y-13292557D01*
X11013800Y-13875700D02*
X11013800Y-13915700D01*
X10993800Y-13895700D02*
X11033800Y-13895700D01*
X11377371Y-13731414D02*
X11405943Y-13731414D01*
X11434514Y-13745700D01*
X11448800Y-13759986D01*
X11463086Y-13788557D01*
X11477371Y-13845700D01*
X11477371Y-13917129D01*
X11463086Y-13974271D01*
X11448800Y-14002843D01*
X11434514Y-14017129D01*
X11405943Y-14031414D01*
X11377371Y-14031414D01*
X11348800Y-14017129D01*
X11334514Y-14002843D01*
X11320228Y-13974271D01*
X11305943Y-13917129D01*
X11305943Y-13845700D01*
X11320228Y-13788557D01*
X11334514Y-13759986D01*
X11348800Y-13745700D01*
X11377371Y-13731414D01*
X11605943Y-14002843D02*
X11620228Y-14017129D01*
X11605943Y-14031414D01*
X11591657Y-14017129D01*
X11605943Y-14002843D01*
X11605943Y-14031414D01*
X11877371Y-13831414D02*
X11877371Y-14031414D01*
X11805943Y-13717129D02*
X11734514Y-13931414D01*
X11920228Y-13931414D01*
X12091657Y-13731414D02*
X12120228Y-13731414D01*
X12148800Y-13745700D01*
X12163086Y-13759986D01*
X12177371Y-13788557D01*
X12191657Y-13845700D01*
X12191657Y-13917129D01*
X12177371Y-13974271D01*
X12163086Y-14002843D01*
X12148800Y-14017129D01*
X12120228Y-14031414D01*
X12091657Y-14031414D01*
X12063086Y-14017129D01*
X12048800Y-14002843D01*
X12034514Y-13974271D01*
X12020228Y-13917129D01*
X12020228Y-13845700D01*
X12034514Y-13788557D01*
X12048800Y-13759986D01*
X12063086Y-13745700D01*
X12091657Y-13731414D01*
X12320228Y-14031414D02*
X12320228Y-13831414D01*
X12320228Y-13859986D02*
X12334514Y-13845700D01*
X12363086Y-13831414D01*
X12405943Y-13831414D01*
X12434514Y-13845700D01*
X12448800Y-13874271D01*
X12448800Y-14031414D01*
X12448800Y-13874271D02*
X12463086Y-13845700D01*
X12491657Y-13831414D01*
X12534514Y-13831414D01*
X12563086Y-13845700D01*
X12577371Y-13874271D01*
X12577371Y-14031414D01*
X12720228Y-14031414D02*
X12720228Y-13831414D01*
X12720228Y-13859986D02*
X12734514Y-13845700D01*
X12763086Y-13831414D01*
X12805943Y-13831414D01*
X12834514Y-13845700D01*
X12848800Y-13874271D01*
X12848800Y-14031414D01*
X12848800Y-13874271D02*
X12863086Y-13845700D01*
X12891657Y-13831414D01*
X12934514Y-13831414D01*
X12963086Y-13845700D01*
X12977371Y-13874271D01*
X12977371Y-14031414D01*
X13563086Y-13717129D02*
X13305943Y-14102843D01*
X13948800Y-13731414D02*
X13977371Y-13731414D01*
X14005943Y-13745700D01*
X14020228Y-13759986D01*
X14034514Y-13788557D01*
X14048800Y-13845700D01*
X14048800Y-13917129D01*
X14034514Y-13974271D01*
X14020228Y-14002843D01*
X14005943Y-14017129D01*
X13977371Y-14031414D01*
X13948800Y-14031414D01*
X13920228Y-14017129D01*
X13905943Y-14002843D01*
X13891657Y-13974271D01*
X13877371Y-13917129D01*
X13877371Y-13845700D01*
X13891657Y-13788557D01*
X13905943Y-13759986D01*
X13920228Y-13745700D01*
X13948800Y-13731414D01*
X14177371Y-14002843D02*
X14191657Y-14017129D01*
X14177371Y-14031414D01*
X14163086Y-14017129D01*
X14177371Y-14002843D01*
X14177371Y-14031414D01*
X14377371Y-13731414D02*
X14405943Y-13731414D01*
X14434514Y-13745700D01*
X14448800Y-13759986D01*
X14463086Y-13788557D01*
X14477371Y-13845700D01*
X14477371Y-13917129D01*
X14463086Y-13974271D01*
X14448800Y-14002843D01*
X14434514Y-14017129D01*
X14405943Y-14031414D01*
X14377371Y-14031414D01*
X14348800Y-14017129D01*
X14334514Y-14002843D01*
X14320228Y-13974271D01*
X14305943Y-13917129D01*
X14305943Y-13845700D01*
X14320228Y-13788557D01*
X14334514Y-13759986D01*
X14348800Y-13745700D01*
X14377371Y-13731414D01*
X14763086Y-14031414D02*
X14591657Y-14031414D01*
X14677371Y-14031414D02*
X14677371Y-13731414D01*
X14648800Y-13774271D01*
X14620228Y-13802843D01*
X14591657Y-13817129D01*
X15020228Y-13731414D02*
X14963086Y-13731414D01*
X14934514Y-13745700D01*
X14920228Y-13759986D01*
X14891657Y-13802843D01*
X14877371Y-13859986D01*
X14877371Y-13974271D01*
X14891657Y-14002843D01*
X14905943Y-14017129D01*
X14934514Y-14031414D01*
X14991657Y-14031414D01*
X15020228Y-14017129D01*
X15034514Y-14002843D01*
X15048800Y-13974271D01*
X15048800Y-13902843D01*
X15034514Y-13874271D01*
X15020228Y-13859986D01*
X14991657Y-13845700D01*
X14934514Y-13845700D01*
X14905943Y-13859986D01*
X14891657Y-13874271D01*
X14877371Y-13902843D01*
X15163086Y-13731414D02*
X15163086Y-13788557D01*
X15277371Y-13731414D02*
X15277371Y-13788557D01*
X15720228Y-14145700D02*
X15705943Y-14131414D01*
X15677371Y-14088557D01*
X15663086Y-14059986D01*
X15648800Y-14017129D01*
X15634514Y-13945700D01*
X15634514Y-13888557D01*
X15648800Y-13817129D01*
X15663086Y-13774271D01*
X15677371Y-13745700D01*
X15705943Y-13702843D01*
X15720228Y-13688557D01*
X15977371Y-13731414D02*
X15834514Y-13731414D01*
X15820228Y-13874271D01*
X15834514Y-13859986D01*
X15863086Y-13845700D01*
X15934514Y-13845700D01*
X15963086Y-13859986D01*
X15977371Y-13874271D01*
X15991657Y-13902843D01*
X15991657Y-13974271D01*
X15977371Y-14002843D01*
X15963086Y-14017129D01*
X15934514Y-14031414D01*
X15863086Y-14031414D01*
X15834514Y-14017129D01*
X15820228Y-14002843D01*
X16177371Y-13731414D02*
X16205943Y-13731414D01*
X16234514Y-13745700D01*
X16248800Y-13759986D01*
X16263086Y-13788557D01*
X16277371Y-13845700D01*
X16277371Y-13917129D01*
X16263086Y-13974271D01*
X16248800Y-14002843D01*
X16234514Y-14017129D01*
X16205943Y-14031414D01*
X16177371Y-14031414D01*
X16148800Y-14017129D01*
X16134514Y-14002843D01*
X16120228Y-13974271D01*
X16105943Y-13917129D01*
X16105943Y-13845700D01*
X16120228Y-13788557D01*
X16134514Y-13759986D01*
X16148800Y-13745700D01*
X16177371Y-13731414D01*
X16634514Y-14031414D02*
X16634514Y-13731414D01*
X16763086Y-14031414D02*
X16763086Y-13874271D01*
X16748800Y-13845700D01*
X16720228Y-13831414D01*
X16677371Y-13831414D01*
X16648800Y-13845700D01*
X16634514Y-13859986D01*
X16948800Y-14031414D02*
X16920228Y-14017129D01*
X16905943Y-14002843D01*
X16891657Y-13974271D01*
X16891657Y-13888557D01*
X16905943Y-13859986D01*
X16920228Y-13845700D01*
X16948800Y-13831414D01*
X16991657Y-13831414D01*
X17020228Y-13845700D01*
X17034514Y-13859986D01*
X17048800Y-13888557D01*
X17048800Y-13974271D01*
X17034514Y-14002843D01*
X17020228Y-14017129D01*
X16991657Y-14031414D01*
X16948800Y-14031414D01*
X17220228Y-14031414D02*
X17191657Y-14017129D01*
X17177371Y-13988557D01*
X17177371Y-13731414D01*
X17448800Y-14017129D02*
X17420228Y-14031414D01*
X17363086Y-14031414D01*
X17334514Y-14017129D01*
X17320228Y-13988557D01*
X17320228Y-13874271D01*
X17334514Y-13845700D01*
X17363086Y-13831414D01*
X17420228Y-13831414D01*
X17448800Y-13845700D01*
X17463086Y-13874271D01*
X17463086Y-13902843D01*
X17320228Y-13931414D01*
X17577371Y-14017129D02*
X17605943Y-14031414D01*
X17663086Y-14031414D01*
X17691657Y-14017129D01*
X17705943Y-13988557D01*
X17705943Y-13974271D01*
X17691657Y-13945700D01*
X17663086Y-13931414D01*
X17620228Y-13931414D01*
X17591657Y-13917129D01*
X17577371Y-13888557D01*
X17577371Y-13874271D01*
X17591657Y-13845700D01*
X17620228Y-13831414D01*
X17663086Y-13831414D01*
X17691657Y-13845700D01*
X17805943Y-14145700D02*
X17820228Y-14131414D01*
X17848800Y-14088557D01*
X17863086Y-14059986D01*
X17877371Y-14017129D01*
X17891657Y-13945700D01*
X17891657Y-13888557D01*
X17877371Y-13817129D01*
X17863086Y-13774271D01*
X17848800Y-13745700D01*
X17820228Y-13702843D01*
X17805943Y-13688557D01*
X11026478Y-14309378D02*
X11026478Y-14274022D01*
X10991122Y-14274022D01*
X10991122Y-14309378D01*
X11026478Y-14309378D01*
X11377371Y-14127414D02*
X11405943Y-14127414D01*
X11434514Y-14141700D01*
X11448800Y-14155986D01*
X11463086Y-14184557D01*
X11477371Y-14241700D01*
X11477371Y-14313129D01*
X11463086Y-14370271D01*
X11448800Y-14398843D01*
X11434514Y-14413129D01*
X11405943Y-14427414D01*
X11377371Y-14427414D01*
X11348800Y-14413129D01*
X11334514Y-14398843D01*
X11320228Y-14370271D01*
X11305943Y-14313129D01*
X11305943Y-14241700D01*
X11320228Y-14184557D01*
X11334514Y-14155986D01*
X11348800Y-14141700D01*
X11377371Y-14127414D01*
X11605943Y-14398843D02*
X11620228Y-14413129D01*
X11605943Y-14427414D01*
X11591657Y-14413129D01*
X11605943Y-14398843D01*
X11605943Y-14427414D01*
X11891657Y-14127414D02*
X11748800Y-14127414D01*
X11734514Y-14270271D01*
X11748800Y-14255986D01*
X11777371Y-14241700D01*
X11848800Y-14241700D01*
X11877371Y-14255986D01*
X11891657Y-14270271D01*
X11905943Y-14298843D01*
X11905943Y-14370271D01*
X11891657Y-14398843D01*
X11877371Y-14413129D01*
X11848800Y-14427414D01*
X11777371Y-14427414D01*
X11748800Y-14413129D01*
X11734514Y-14398843D01*
X12091657Y-14127414D02*
X12120228Y-14127414D01*
X12148800Y-14141700D01*
X12163086Y-14155986D01*
X12177371Y-14184557D01*
X12191657Y-14241700D01*
X12191657Y-14313129D01*
X12177371Y-14370271D01*
X12163086Y-14398843D01*
X12148800Y-14413129D01*
X12120228Y-14427414D01*
X12091657Y-14427414D01*
X12063086Y-14413129D01*
X12048800Y-14398843D01*
X12034514Y-14370271D01*
X12020228Y-14313129D01*
X12020228Y-14241700D01*
X12034514Y-14184557D01*
X12048800Y-14155986D01*
X12063086Y-14141700D01*
X12091657Y-14127414D01*
X12320228Y-14427414D02*
X12320228Y-14227414D01*
X12320228Y-14255986D02*
X12334514Y-14241700D01*
X12363086Y-14227414D01*
X12405943Y-14227414D01*
X12434514Y-14241700D01*
X12448800Y-14270271D01*
X12448800Y-14427414D01*
X12448800Y-14270271D02*
X12463086Y-14241700D01*
X12491657Y-14227414D01*
X12534514Y-14227414D01*
X12563086Y-14241700D01*
X12577371Y-14270271D01*
X12577371Y-14427414D01*
X12720228Y-14427414D02*
X12720228Y-14227414D01*
X12720228Y-14255986D02*
X12734514Y-14241700D01*
X12763086Y-14227414D01*
X12805943Y-14227414D01*
X12834514Y-14241700D01*
X12848800Y-14270271D01*
X12848800Y-14427414D01*
X12848800Y-14270271D02*
X12863086Y-14241700D01*
X12891657Y-14227414D01*
X12934514Y-14227414D01*
X12963086Y-14241700D01*
X12977371Y-14270271D01*
X12977371Y-14427414D01*
X13563086Y-14113129D02*
X13305943Y-14498843D01*
X13948800Y-14127414D02*
X13977371Y-14127414D01*
X14005943Y-14141700D01*
X14020228Y-14155986D01*
X14034514Y-14184557D01*
X14048800Y-14241700D01*
X14048800Y-14313129D01*
X14034514Y-14370271D01*
X14020228Y-14398843D01*
X14005943Y-14413129D01*
X13977371Y-14427414D01*
X13948800Y-14427414D01*
X13920228Y-14413129D01*
X13905943Y-14398843D01*
X13891657Y-14370271D01*
X13877371Y-14313129D01*
X13877371Y-14241700D01*
X13891657Y-14184557D01*
X13905943Y-14155986D01*
X13920228Y-14141700D01*
X13948800Y-14127414D01*
X14177371Y-14398843D02*
X14191657Y-14413129D01*
X14177371Y-14427414D01*
X14163086Y-14413129D01*
X14177371Y-14398843D01*
X14177371Y-14427414D01*
X14377371Y-14127414D02*
X14405943Y-14127414D01*
X14434514Y-14141700D01*
X14448800Y-14155986D01*
X14463086Y-14184557D01*
X14477371Y-14241700D01*
X14477371Y-14313129D01*
X14463086Y-14370271D01*
X14448800Y-14398843D01*
X14434514Y-14413129D01*
X14405943Y-14427414D01*
X14377371Y-14427414D01*
X14348800Y-14413129D01*
X14334514Y-14398843D01*
X14320228Y-14370271D01*
X14305943Y-14313129D01*
X14305943Y-14241700D01*
X14320228Y-14184557D01*
X14334514Y-14155986D01*
X14348800Y-14141700D01*
X14377371Y-14127414D01*
X14591657Y-14155986D02*
X14605943Y-14141700D01*
X14634514Y-14127414D01*
X14705943Y-14127414D01*
X14734514Y-14141700D01*
X14748800Y-14155986D01*
X14763086Y-14184557D01*
X14763086Y-14213129D01*
X14748800Y-14255986D01*
X14577371Y-14427414D01*
X14763086Y-14427414D01*
X14948800Y-14127414D02*
X14977371Y-14127414D01*
X15005943Y-14141700D01*
X15020228Y-14155986D01*
X15034514Y-14184557D01*
X15048800Y-14241700D01*
X15048800Y-14313129D01*
X15034514Y-14370271D01*
X15020228Y-14398843D01*
X15005943Y-14413129D01*
X14977371Y-14427414D01*
X14948800Y-14427414D01*
X14920228Y-14413129D01*
X14905943Y-14398843D01*
X14891657Y-14370271D01*
X14877371Y-14313129D01*
X14877371Y-14241700D01*
X14891657Y-14184557D01*
X14905943Y-14155986D01*
X14920228Y-14141700D01*
X14948800Y-14127414D01*
X15163086Y-14127414D02*
X15163086Y-14184557D01*
X15277371Y-14127414D02*
X15277371Y-14184557D01*
X15720228Y-14541700D02*
X15705943Y-14527414D01*
X15677371Y-14484557D01*
X15663086Y-14455986D01*
X15648800Y-14413129D01*
X15634514Y-14341700D01*
X15634514Y-14284557D01*
X15648800Y-14213129D01*
X15663086Y-14170271D01*
X15677371Y-14141700D01*
X15705943Y-14098843D01*
X15720228Y-14084557D01*
X15805943Y-14127414D02*
X15991657Y-14127414D01*
X15891657Y-14241700D01*
X15934514Y-14241700D01*
X15963086Y-14255986D01*
X15977371Y-14270271D01*
X15991657Y-14298843D01*
X15991657Y-14370271D01*
X15977371Y-14398843D01*
X15963086Y-14413129D01*
X15934514Y-14427414D01*
X15848800Y-14427414D01*
X15820228Y-14413129D01*
X15805943Y-14398843D01*
X16105943Y-14155986D02*
X16120228Y-14141700D01*
X16148800Y-14127414D01*
X16220228Y-14127414D01*
X16248800Y-14141700D01*
X16263086Y-14155986D01*
X16277371Y-14184557D01*
X16277371Y-14213129D01*
X16263086Y-14255986D01*
X16091657Y-14427414D01*
X16277371Y-14427414D01*
X16634514Y-14427414D02*
X16634514Y-14127414D01*
X16763086Y-14427414D02*
X16763086Y-14270271D01*
X16748800Y-14241700D01*
X16720228Y-14227414D01*
X16677371Y-14227414D01*
X16648800Y-14241700D01*
X16634514Y-14255986D01*
X16948800Y-14427414D02*
X16920228Y-14413129D01*
X16905943Y-14398843D01*
X16891657Y-14370271D01*
X16891657Y-14284557D01*
X16905943Y-14255986D01*
X16920228Y-14241700D01*
X16948800Y-14227414D01*
X16991657Y-14227414D01*
X17020228Y-14241700D01*
X17034514Y-14255986D01*
X17048800Y-14284557D01*
X17048800Y-14370271D01*
X17034514Y-14398843D01*
X17020228Y-14413129D01*
X16991657Y-14427414D01*
X16948800Y-14427414D01*
X17220228Y-14427414D02*
X17191657Y-14413129D01*
X17177371Y-14384557D01*
X17177371Y-14127414D01*
X17448800Y-14413129D02*
X17420228Y-14427414D01*
X17363086Y-14427414D01*
X17334514Y-14413129D01*
X17320228Y-14384557D01*
X17320228Y-14270271D01*
X17334514Y-14241700D01*
X17363086Y-14227414D01*
X17420228Y-14227414D01*
X17448800Y-14241700D01*
X17463086Y-14270271D01*
X17463086Y-14298843D01*
X17320228Y-14327414D01*
X17577371Y-14413129D02*
X17605943Y-14427414D01*
X17663086Y-14427414D01*
X17691657Y-14413129D01*
X17705943Y-14384557D01*
X17705943Y-14370271D01*
X17691657Y-14341700D01*
X17663086Y-14327414D01*
X17620228Y-14327414D01*
X17591657Y-14313129D01*
X17577371Y-14284557D01*
X17577371Y-14270271D01*
X17591657Y-14241700D01*
X17620228Y-14227414D01*
X17663086Y-14227414D01*
X17691657Y-14241700D01*
X17805943Y-14541700D02*
X17820228Y-14527414D01*
X17848800Y-14484557D01*
X17863086Y-14455986D01*
X17877371Y-14413129D01*
X17891657Y-14341700D01*
X17891657Y-14284557D01*
X17877371Y-14213129D01*
X17863086Y-14170271D01*
X17848800Y-14141700D01*
X17820228Y-14098843D01*
X17805943Y-14084557D01*
X11003800Y-14717700D02*
X11033800Y-14687700D01*
X11003800Y-14657700D01*
X10973800Y-14687700D01*
X11003800Y-14717700D01*
X11377371Y-14523414D02*
X11405943Y-14523414D01*
X11434514Y-14537700D01*
X11448800Y-14551986D01*
X11463086Y-14580557D01*
X11477371Y-14637700D01*
X11477371Y-14709129D01*
X11463086Y-14766271D01*
X11448800Y-14794843D01*
X11434514Y-14809129D01*
X11405943Y-14823414D01*
X11377371Y-14823414D01*
X11348800Y-14809129D01*
X11334514Y-14794843D01*
X11320228Y-14766271D01*
X11305943Y-14709129D01*
X11305943Y-14637700D01*
X11320228Y-14580557D01*
X11334514Y-14551986D01*
X11348800Y-14537700D01*
X11377371Y-14523414D01*
X11605943Y-14794843D02*
X11620228Y-14809129D01*
X11605943Y-14823414D01*
X11591657Y-14809129D01*
X11605943Y-14794843D01*
X11605943Y-14823414D01*
X11877371Y-14523414D02*
X11820228Y-14523414D01*
X11791657Y-14537700D01*
X11777371Y-14551986D01*
X11748800Y-14594843D01*
X11734514Y-14651986D01*
X11734514Y-14766271D01*
X11748800Y-14794843D01*
X11763086Y-14809129D01*
X11791657Y-14823414D01*
X11848800Y-14823414D01*
X11877371Y-14809129D01*
X11891657Y-14794843D01*
X11905943Y-14766271D01*
X11905943Y-14694843D01*
X11891657Y-14666271D01*
X11877371Y-14651986D01*
X11848800Y-14637700D01*
X11791657Y-14637700D01*
X11763086Y-14651986D01*
X11748800Y-14666271D01*
X11734514Y-14694843D01*
X12091657Y-14523414D02*
X12120228Y-14523414D01*
X12148800Y-14537700D01*
X12163086Y-14551986D01*
X12177371Y-14580557D01*
X12191657Y-14637700D01*
X12191657Y-14709129D01*
X12177371Y-14766271D01*
X12163086Y-14794843D01*
X12148800Y-14809129D01*
X12120228Y-14823414D01*
X12091657Y-14823414D01*
X12063086Y-14809129D01*
X12048800Y-14794843D01*
X12034514Y-14766271D01*
X12020228Y-14709129D01*
X12020228Y-14637700D01*
X12034514Y-14580557D01*
X12048800Y-14551986D01*
X12063086Y-14537700D01*
X12091657Y-14523414D01*
X12320228Y-14823414D02*
X12320228Y-14623414D01*
X12320228Y-14651986D02*
X12334514Y-14637700D01*
X12363086Y-14623414D01*
X12405943Y-14623414D01*
X12434514Y-14637700D01*
X12448800Y-14666271D01*
X12448800Y-14823414D01*
X12448800Y-14666271D02*
X12463086Y-14637700D01*
X12491657Y-14623414D01*
X12534514Y-14623414D01*
X12563086Y-14637700D01*
X12577371Y-14666271D01*
X12577371Y-14823414D01*
X12720228Y-14823414D02*
X12720228Y-14623414D01*
X12720228Y-14651986D02*
X12734514Y-14637700D01*
X12763086Y-14623414D01*
X12805943Y-14623414D01*
X12834514Y-14637700D01*
X12848800Y-14666271D01*
X12848800Y-14823414D01*
X12848800Y-14666271D02*
X12863086Y-14637700D01*
X12891657Y-14623414D01*
X12934514Y-14623414D01*
X12963086Y-14637700D01*
X12977371Y-14666271D01*
X12977371Y-14823414D01*
X13563086Y-14509129D02*
X13305943Y-14894843D01*
X13948800Y-14523414D02*
X13977371Y-14523414D01*
X14005943Y-14537700D01*
X14020228Y-14551986D01*
X14034514Y-14580557D01*
X14048800Y-14637700D01*
X14048800Y-14709129D01*
X14034514Y-14766271D01*
X14020228Y-14794843D01*
X14005943Y-14809129D01*
X13977371Y-14823414D01*
X13948800Y-14823414D01*
X13920228Y-14809129D01*
X13905943Y-14794843D01*
X13891657Y-14766271D01*
X13877371Y-14709129D01*
X13877371Y-14637700D01*
X13891657Y-14580557D01*
X13905943Y-14551986D01*
X13920228Y-14537700D01*
X13948800Y-14523414D01*
X14177371Y-14794843D02*
X14191657Y-14809129D01*
X14177371Y-14823414D01*
X14163086Y-14809129D01*
X14177371Y-14794843D01*
X14177371Y-14823414D01*
X14377371Y-14523414D02*
X14405943Y-14523414D01*
X14434514Y-14537700D01*
X14448800Y-14551986D01*
X14463086Y-14580557D01*
X14477371Y-14637700D01*
X14477371Y-14709129D01*
X14463086Y-14766271D01*
X14448800Y-14794843D01*
X14434514Y-14809129D01*
X14405943Y-14823414D01*
X14377371Y-14823414D01*
X14348800Y-14809129D01*
X14334514Y-14794843D01*
X14320228Y-14766271D01*
X14305943Y-14709129D01*
X14305943Y-14637700D01*
X14320228Y-14580557D01*
X14334514Y-14551986D01*
X14348800Y-14537700D01*
X14377371Y-14523414D01*
X14591657Y-14551986D02*
X14605943Y-14537700D01*
X14634514Y-14523414D01*
X14705943Y-14523414D01*
X14734514Y-14537700D01*
X14748800Y-14551986D01*
X14763086Y-14580557D01*
X14763086Y-14609129D01*
X14748800Y-14651986D01*
X14577371Y-14823414D01*
X14763086Y-14823414D01*
X15020228Y-14623414D02*
X15020228Y-14823414D01*
X14948800Y-14509129D02*
X14877371Y-14723414D01*
X15063086Y-14723414D01*
X15163086Y-14523414D02*
X15163086Y-14580557D01*
X15277371Y-14523414D02*
X15277371Y-14580557D01*
X15720228Y-14937700D02*
X15705943Y-14923414D01*
X15677371Y-14880557D01*
X15663086Y-14851986D01*
X15648800Y-14809129D01*
X15634514Y-14737700D01*
X15634514Y-14680557D01*
X15648800Y-14609129D01*
X15663086Y-14566271D01*
X15677371Y-14537700D01*
X15705943Y-14494843D01*
X15720228Y-14480557D01*
X15891657Y-14523414D02*
X15920228Y-14523414D01*
X15948800Y-14537700D01*
X15963086Y-14551986D01*
X15977371Y-14580557D01*
X15991657Y-14637700D01*
X15991657Y-14709129D01*
X15977371Y-14766271D01*
X15963086Y-14794843D01*
X15948800Y-14809129D01*
X15920228Y-14823414D01*
X15891657Y-14823414D01*
X15863086Y-14809129D01*
X15848800Y-14794843D01*
X15834514Y-14766271D01*
X15820228Y-14709129D01*
X15820228Y-14637700D01*
X15834514Y-14580557D01*
X15848800Y-14551986D01*
X15863086Y-14537700D01*
X15891657Y-14523414D01*
X16348800Y-14823414D02*
X16348800Y-14523414D01*
X16477371Y-14823414D02*
X16477371Y-14666271D01*
X16463086Y-14637700D01*
X16434514Y-14623414D01*
X16391657Y-14623414D01*
X16363086Y-14637700D01*
X16348800Y-14651986D01*
X16663086Y-14823414D02*
X16634514Y-14809129D01*
X16620228Y-14794843D01*
X16605943Y-14766271D01*
X16605943Y-14680557D01*
X16620228Y-14651986D01*
X16634514Y-14637700D01*
X16663086Y-14623414D01*
X16705943Y-14623414D01*
X16734514Y-14637700D01*
X16748800Y-14651986D01*
X16763086Y-14680557D01*
X16763086Y-14766271D01*
X16748800Y-14794843D01*
X16734514Y-14809129D01*
X16705943Y-14823414D01*
X16663086Y-14823414D01*
X16934514Y-14823414D02*
X16905943Y-14809129D01*
X16891657Y-14780557D01*
X16891657Y-14523414D01*
X17163086Y-14809129D02*
X17134514Y-14823414D01*
X17077371Y-14823414D01*
X17048800Y-14809129D01*
X17034514Y-14780557D01*
X17034514Y-14666271D01*
X17048800Y-14637700D01*
X17077371Y-14623414D01*
X17134514Y-14623414D01*
X17163086Y-14637700D01*
X17177371Y-14666271D01*
X17177371Y-14694843D01*
X17034514Y-14723414D01*
X17291657Y-14809129D02*
X17320228Y-14823414D01*
X17377371Y-14823414D01*
X17405943Y-14809129D01*
X17420228Y-14780557D01*
X17420228Y-14766271D01*
X17405943Y-14737700D01*
X17377371Y-14723414D01*
X17334514Y-14723414D01*
X17305943Y-14709129D01*
X17291657Y-14680557D01*
X17291657Y-14666271D01*
X17305943Y-14637700D01*
X17334514Y-14623414D01*
X17377371Y-14623414D01*
X17405943Y-14637700D01*
X17777371Y-14709129D02*
X18005943Y-14709129D01*
X17891657Y-14823414D02*
X17891657Y-14594843D01*
X18505943Y-14623414D02*
X18505943Y-14823414D01*
X18434514Y-14509129D02*
X18363086Y-14723414D01*
X18548800Y-14723414D01*
X18877371Y-14809129D02*
X18905943Y-14823414D01*
X18963086Y-14823414D01*
X18991657Y-14809129D01*
X19005943Y-14780557D01*
X19005943Y-14766271D01*
X18991657Y-14737700D01*
X18963086Y-14723414D01*
X18920228Y-14723414D01*
X18891657Y-14709129D01*
X18877371Y-14680557D01*
X18877371Y-14666271D01*
X18891657Y-14637700D01*
X18920228Y-14623414D01*
X18963086Y-14623414D01*
X18991657Y-14637700D01*
X19177371Y-14823414D02*
X19148800Y-14809129D01*
X19134514Y-14780557D01*
X19134514Y-14523414D01*
X19334514Y-14823414D02*
X19305943Y-14809129D01*
X19291657Y-14794843D01*
X19277371Y-14766271D01*
X19277371Y-14680557D01*
X19291657Y-14651986D01*
X19305943Y-14637700D01*
X19334514Y-14623414D01*
X19377371Y-14623414D01*
X19405943Y-14637700D01*
X19420228Y-14651986D01*
X19434514Y-14680557D01*
X19434514Y-14766271D01*
X19420228Y-14794843D01*
X19405943Y-14809129D01*
X19377371Y-14823414D01*
X19334514Y-14823414D01*
X19520228Y-14623414D02*
X19634514Y-14623414D01*
X19563086Y-14523414D02*
X19563086Y-14780557D01*
X19577371Y-14809129D01*
X19605943Y-14823414D01*
X19634514Y-14823414D01*
X19720228Y-14809129D02*
X19748800Y-14823414D01*
X19805943Y-14823414D01*
X19834514Y-14809129D01*
X19848800Y-14780557D01*
X19848800Y-14766271D01*
X19834514Y-14737700D01*
X19805943Y-14723414D01*
X19763086Y-14723414D01*
X19734514Y-14709129D01*
X19720228Y-14680557D01*
X19720228Y-14666271D01*
X19734514Y-14637700D01*
X19763086Y-14623414D01*
X19805943Y-14623414D01*
X19834514Y-14637700D01*
X19948800Y-14937700D02*
X19963086Y-14923414D01*
X19991657Y-14880557D01*
X20005943Y-14851986D01*
X20020228Y-14809129D01*
X20034514Y-14737700D01*
X20034514Y-14680557D01*
X20020228Y-14609129D01*
X20005943Y-14566271D01*
X19991657Y-14537700D01*
X19963086Y-14494843D01*
X19948800Y-14480557D01*
X10953800Y-15043700D02*
X11033800Y-15123700D01*
X11033800Y-15043700D02*
X10953800Y-15123700D01*
X11033800Y-15083700D02*
G75*
G03*
X11033800Y-15083700I-40000J0D01*
G01*
X11377371Y-14919414D02*
X11405943Y-14919414D01*
X11434514Y-14933700D01*
X11448800Y-14947986D01*
X11463086Y-14976557D01*
X11477371Y-15033700D01*
X11477371Y-15105129D01*
X11463086Y-15162271D01*
X11448800Y-15190843D01*
X11434514Y-15205129D01*
X11405943Y-15219414D01*
X11377371Y-15219414D01*
X11348800Y-15205129D01*
X11334514Y-15190843D01*
X11320228Y-15162271D01*
X11305943Y-15105129D01*
X11305943Y-15033700D01*
X11320228Y-14976557D01*
X11334514Y-14947986D01*
X11348800Y-14933700D01*
X11377371Y-14919414D01*
X11605943Y-15190843D02*
X11620228Y-15205129D01*
X11605943Y-15219414D01*
X11591657Y-15205129D01*
X11605943Y-15190843D01*
X11605943Y-15219414D01*
X11791657Y-15047986D02*
X11763086Y-15033700D01*
X11748800Y-15019414D01*
X11734514Y-14990843D01*
X11734514Y-14976557D01*
X11748800Y-14947986D01*
X11763086Y-14933700D01*
X11791657Y-14919414D01*
X11848800Y-14919414D01*
X11877371Y-14933700D01*
X11891657Y-14947986D01*
X11905943Y-14976557D01*
X11905943Y-14990843D01*
X11891657Y-15019414D01*
X11877371Y-15033700D01*
X11848800Y-15047986D01*
X11791657Y-15047986D01*
X11763086Y-15062271D01*
X11748800Y-15076557D01*
X11734514Y-15105129D01*
X11734514Y-15162271D01*
X11748800Y-15190843D01*
X11763086Y-15205129D01*
X11791657Y-15219414D01*
X11848800Y-15219414D01*
X11877371Y-15205129D01*
X11891657Y-15190843D01*
X11905943Y-15162271D01*
X11905943Y-15105129D01*
X11891657Y-15076557D01*
X11877371Y-15062271D01*
X11848800Y-15047986D01*
X12091657Y-14919414D02*
X12120228Y-14919414D01*
X12148800Y-14933700D01*
X12163086Y-14947986D01*
X12177371Y-14976557D01*
X12191657Y-15033700D01*
X12191657Y-15105129D01*
X12177371Y-15162271D01*
X12163086Y-15190843D01*
X12148800Y-15205129D01*
X12120228Y-15219414D01*
X12091657Y-15219414D01*
X12063086Y-15205129D01*
X12048800Y-15190843D01*
X12034514Y-15162271D01*
X12020228Y-15105129D01*
X12020228Y-15033700D01*
X12034514Y-14976557D01*
X12048800Y-14947986D01*
X12063086Y-14933700D01*
X12091657Y-14919414D01*
X12320228Y-15219414D02*
X12320228Y-15019414D01*
X12320228Y-15047986D02*
X12334514Y-15033700D01*
X12363086Y-15019414D01*
X12405943Y-15019414D01*
X12434514Y-15033700D01*
X12448800Y-15062271D01*
X12448800Y-15219414D01*
X12448800Y-15062271D02*
X12463086Y-15033700D01*
X12491657Y-15019414D01*
X12534514Y-15019414D01*
X12563086Y-15033700D01*
X12577371Y-15062271D01*
X12577371Y-15219414D01*
X12720228Y-15219414D02*
X12720228Y-15019414D01*
X12720228Y-15047986D02*
X12734514Y-15033700D01*
X12763086Y-15019414D01*
X12805943Y-15019414D01*
X12834514Y-15033700D01*
X12848800Y-15062271D01*
X12848800Y-15219414D01*
X12848800Y-15062271D02*
X12863086Y-15033700D01*
X12891657Y-15019414D01*
X12934514Y-15019414D01*
X12963086Y-15033700D01*
X12977371Y-15062271D01*
X12977371Y-15219414D01*
X13563086Y-14905129D02*
X13305943Y-15290843D01*
X13948800Y-14919414D02*
X13977371Y-14919414D01*
X14005943Y-14933700D01*
X14020228Y-14947986D01*
X14034514Y-14976557D01*
X14048800Y-15033700D01*
X14048800Y-15105129D01*
X14034514Y-15162271D01*
X14020228Y-15190843D01*
X14005943Y-15205129D01*
X13977371Y-15219414D01*
X13948800Y-15219414D01*
X13920228Y-15205129D01*
X13905943Y-15190843D01*
X13891657Y-15162271D01*
X13877371Y-15105129D01*
X13877371Y-15033700D01*
X13891657Y-14976557D01*
X13905943Y-14947986D01*
X13920228Y-14933700D01*
X13948800Y-14919414D01*
X14177371Y-15190843D02*
X14191657Y-15205129D01*
X14177371Y-15219414D01*
X14163086Y-15205129D01*
X14177371Y-15190843D01*
X14177371Y-15219414D01*
X14377371Y-14919414D02*
X14405943Y-14919414D01*
X14434514Y-14933700D01*
X14448800Y-14947986D01*
X14463086Y-14976557D01*
X14477371Y-15033700D01*
X14477371Y-15105129D01*
X14463086Y-15162271D01*
X14448800Y-15190843D01*
X14434514Y-15205129D01*
X14405943Y-15219414D01*
X14377371Y-15219414D01*
X14348800Y-15205129D01*
X14334514Y-15190843D01*
X14320228Y-15162271D01*
X14305943Y-15105129D01*
X14305943Y-15033700D01*
X14320228Y-14976557D01*
X14334514Y-14947986D01*
X14348800Y-14933700D01*
X14377371Y-14919414D01*
X14577371Y-14919414D02*
X14763086Y-14919414D01*
X14663086Y-15033700D01*
X14705943Y-15033700D01*
X14734514Y-15047986D01*
X14748800Y-15062271D01*
X14763086Y-15090843D01*
X14763086Y-15162271D01*
X14748800Y-15190843D01*
X14734514Y-15205129D01*
X14705943Y-15219414D01*
X14620228Y-15219414D01*
X14591657Y-15205129D01*
X14577371Y-15190843D01*
X15048800Y-15219414D02*
X14877371Y-15219414D01*
X14963086Y-15219414D02*
X14963086Y-14919414D01*
X14934514Y-14962271D01*
X14905943Y-14990843D01*
X14877371Y-15005129D01*
X15163086Y-14919414D02*
X15163086Y-14976557D01*
X15277371Y-14919414D02*
X15277371Y-14976557D01*
X15720228Y-15333700D02*
X15705943Y-15319414D01*
X15677371Y-15276557D01*
X15663086Y-15247986D01*
X15648800Y-15205129D01*
X15634514Y-15133700D01*
X15634514Y-15076557D01*
X15648800Y-15005129D01*
X15663086Y-14962271D01*
X15677371Y-14933700D01*
X15705943Y-14890843D01*
X15720228Y-14876557D01*
X15891657Y-14919414D02*
X15920228Y-14919414D01*
X15948800Y-14933700D01*
X15963086Y-14947986D01*
X15977371Y-14976557D01*
X15991657Y-15033700D01*
X15991657Y-15105129D01*
X15977371Y-15162271D01*
X15963086Y-15190843D01*
X15948800Y-15205129D01*
X15920228Y-15219414D01*
X15891657Y-15219414D01*
X15863086Y-15205129D01*
X15848800Y-15190843D01*
X15834514Y-15162271D01*
X15820228Y-15105129D01*
X15820228Y-15033700D01*
X15834514Y-14976557D01*
X15848800Y-14947986D01*
X15863086Y-14933700D01*
X15891657Y-14919414D01*
X16348800Y-15219414D02*
X16348800Y-14919414D01*
X16477371Y-15219414D02*
X16477371Y-15062271D01*
X16463086Y-15033700D01*
X16434514Y-15019414D01*
X16391657Y-15019414D01*
X16363086Y-15033700D01*
X16348800Y-15047986D01*
X16663086Y-15219414D02*
X16634514Y-15205129D01*
X16620228Y-15190843D01*
X16605943Y-15162271D01*
X16605943Y-15076557D01*
X16620228Y-15047986D01*
X16634514Y-15033700D01*
X16663086Y-15019414D01*
X16705943Y-15019414D01*
X16734514Y-15033700D01*
X16748800Y-15047986D01*
X16763086Y-15076557D01*
X16763086Y-15162271D01*
X16748800Y-15190843D01*
X16734514Y-15205129D01*
X16705943Y-15219414D01*
X16663086Y-15219414D01*
X16934514Y-15219414D02*
X16905943Y-15205129D01*
X16891657Y-15176557D01*
X16891657Y-14919414D01*
X17163086Y-15205129D02*
X17134514Y-15219414D01*
X17077371Y-15219414D01*
X17048800Y-15205129D01*
X17034514Y-15176557D01*
X17034514Y-15062271D01*
X17048800Y-15033700D01*
X17077371Y-15019414D01*
X17134514Y-15019414D01*
X17163086Y-15033700D01*
X17177371Y-15062271D01*
X17177371Y-15090843D01*
X17034514Y-15119414D01*
X17291657Y-15205129D02*
X17320228Y-15219414D01*
X17377371Y-15219414D01*
X17405943Y-15205129D01*
X17420228Y-15176557D01*
X17420228Y-15162271D01*
X17405943Y-15133700D01*
X17377371Y-15119414D01*
X17334514Y-15119414D01*
X17305943Y-15105129D01*
X17291657Y-15076557D01*
X17291657Y-15062271D01*
X17305943Y-15033700D01*
X17334514Y-15019414D01*
X17377371Y-15019414D01*
X17405943Y-15033700D01*
X17777371Y-15105129D02*
X18005943Y-15105129D01*
X17891657Y-15219414D02*
X17891657Y-14990843D01*
X18348800Y-14919414D02*
X18534514Y-14919414D01*
X18434514Y-15033700D01*
X18477371Y-15033700D01*
X18505943Y-15047986D01*
X18520228Y-15062271D01*
X18534514Y-15090843D01*
X18534514Y-15162271D01*
X18520228Y-15190843D01*
X18505943Y-15205129D01*
X18477371Y-15219414D01*
X18391657Y-15219414D01*
X18363086Y-15205129D01*
X18348800Y-15190843D01*
X18877371Y-15205129D02*
X18905943Y-15219414D01*
X18963086Y-15219414D01*
X18991657Y-15205129D01*
X19005943Y-15176557D01*
X19005943Y-15162271D01*
X18991657Y-15133700D01*
X18963086Y-15119414D01*
X18920228Y-15119414D01*
X18891657Y-15105129D01*
X18877371Y-15076557D01*
X18877371Y-15062271D01*
X18891657Y-15033700D01*
X18920228Y-15019414D01*
X18963086Y-15019414D01*
X18991657Y-15033700D01*
X19177371Y-15219414D02*
X19148800Y-15205129D01*
X19134514Y-15176557D01*
X19134514Y-14919414D01*
X19334514Y-15219414D02*
X19305943Y-15205129D01*
X19291657Y-15190843D01*
X19277371Y-15162271D01*
X19277371Y-15076557D01*
X19291657Y-15047986D01*
X19305943Y-15033700D01*
X19334514Y-15019414D01*
X19377371Y-15019414D01*
X19405943Y-15033700D01*
X19420228Y-15047986D01*
X19434514Y-15076557D01*
X19434514Y-15162271D01*
X19420228Y-15190843D01*
X19405943Y-15205129D01*
X19377371Y-15219414D01*
X19334514Y-15219414D01*
X19520228Y-15019414D02*
X19634514Y-15019414D01*
X19563086Y-14919414D02*
X19563086Y-15176557D01*
X19577371Y-15205129D01*
X19605943Y-15219414D01*
X19634514Y-15219414D01*
X19720228Y-15205129D02*
X19748800Y-15219414D01*
X19805943Y-15219414D01*
X19834514Y-15205129D01*
X19848800Y-15176557D01*
X19848800Y-15162271D01*
X19834514Y-15133700D01*
X19805943Y-15119414D01*
X19763086Y-15119414D01*
X19734514Y-15105129D01*
X19720228Y-15076557D01*
X19720228Y-15062271D01*
X19734514Y-15033700D01*
X19763086Y-15019414D01*
X19805943Y-15019414D01*
X19834514Y-15033700D01*
X19948800Y-15333700D02*
X19963086Y-15319414D01*
X19991657Y-15276557D01*
X20005943Y-15247986D01*
X20020228Y-15205129D01*
X20034514Y-15133700D01*
X20034514Y-15076557D01*
X20020228Y-15005129D01*
X20005943Y-14962271D01*
X19991657Y-14933700D01*
X19963086Y-14890843D01*
X19948800Y-14876557D01*
X10933800Y-15429700D02*
X11033800Y-15529700D01*
X11033800Y-15429700D02*
X10933800Y-15529700D01*
X10983800Y-15429700D02*
X10983800Y-15529700D01*
X10933800Y-15479700D02*
X11033800Y-15479700D01*
X11477371Y-15615414D02*
X11305943Y-15615414D01*
X11391657Y-15615414D02*
X11391657Y-15315414D01*
X11363086Y-15358271D01*
X11334514Y-15386843D01*
X11305943Y-15401129D01*
X11605943Y-15586843D02*
X11620228Y-15601129D01*
X11605943Y-15615414D01*
X11591657Y-15601129D01*
X11605943Y-15586843D01*
X11605943Y-15615414D01*
X11805943Y-15315414D02*
X11834514Y-15315414D01*
X11863086Y-15329700D01*
X11877371Y-15343986D01*
X11891657Y-15372557D01*
X11905943Y-15429700D01*
X11905943Y-15501129D01*
X11891657Y-15558271D01*
X11877371Y-15586843D01*
X11863086Y-15601129D01*
X11834514Y-15615414D01*
X11805943Y-15615414D01*
X11777371Y-15601129D01*
X11763086Y-15586843D01*
X11748800Y-15558271D01*
X11734514Y-15501129D01*
X11734514Y-15429700D01*
X11748800Y-15372557D01*
X11763086Y-15343986D01*
X11777371Y-15329700D01*
X11805943Y-15315414D01*
X12091657Y-15315414D02*
X12120228Y-15315414D01*
X12148800Y-15329700D01*
X12163086Y-15343986D01*
X12177371Y-15372557D01*
X12191657Y-15429700D01*
X12191657Y-15501129D01*
X12177371Y-15558271D01*
X12163086Y-15586843D01*
X12148800Y-15601129D01*
X12120228Y-15615414D01*
X12091657Y-15615414D01*
X12063086Y-15601129D01*
X12048800Y-15586843D01*
X12034514Y-15558271D01*
X12020228Y-15501129D01*
X12020228Y-15429700D01*
X12034514Y-15372557D01*
X12048800Y-15343986D01*
X12063086Y-15329700D01*
X12091657Y-15315414D01*
X12320228Y-15615414D02*
X12320228Y-15415414D01*
X12320228Y-15443986D02*
X12334514Y-15429700D01*
X12363086Y-15415414D01*
X12405943Y-15415414D01*
X12434514Y-15429700D01*
X12448800Y-15458271D01*
X12448800Y-15615414D01*
X12448800Y-15458271D02*
X12463086Y-15429700D01*
X12491657Y-15415414D01*
X12534514Y-15415414D01*
X12563086Y-15429700D01*
X12577371Y-15458271D01*
X12577371Y-15615414D01*
X12720228Y-15615414D02*
X12720228Y-15415414D01*
X12720228Y-15443986D02*
X12734514Y-15429700D01*
X12763086Y-15415414D01*
X12805943Y-15415414D01*
X12834514Y-15429700D01*
X12848800Y-15458271D01*
X12848800Y-15615414D01*
X12848800Y-15458271D02*
X12863086Y-15429700D01*
X12891657Y-15415414D01*
X12934514Y-15415414D01*
X12963086Y-15429700D01*
X12977371Y-15458271D01*
X12977371Y-15615414D01*
X13563086Y-15301129D02*
X13305943Y-15686843D01*
X13948800Y-15315414D02*
X13977371Y-15315414D01*
X14005943Y-15329700D01*
X14020228Y-15343986D01*
X14034514Y-15372557D01*
X14048800Y-15429700D01*
X14048800Y-15501129D01*
X14034514Y-15558271D01*
X14020228Y-15586843D01*
X14005943Y-15601129D01*
X13977371Y-15615414D01*
X13948800Y-15615414D01*
X13920228Y-15601129D01*
X13905943Y-15586843D01*
X13891657Y-15558271D01*
X13877371Y-15501129D01*
X13877371Y-15429700D01*
X13891657Y-15372557D01*
X13905943Y-15343986D01*
X13920228Y-15329700D01*
X13948800Y-15315414D01*
X14177371Y-15586843D02*
X14191657Y-15601129D01*
X14177371Y-15615414D01*
X14163086Y-15601129D01*
X14177371Y-15586843D01*
X14177371Y-15615414D01*
X14377371Y-15315414D02*
X14405943Y-15315414D01*
X14434514Y-15329700D01*
X14448800Y-15343986D01*
X14463086Y-15372557D01*
X14477371Y-15429700D01*
X14477371Y-15501129D01*
X14463086Y-15558271D01*
X14448800Y-15586843D01*
X14434514Y-15601129D01*
X14405943Y-15615414D01*
X14377371Y-15615414D01*
X14348800Y-15601129D01*
X14334514Y-15586843D01*
X14320228Y-15558271D01*
X14305943Y-15501129D01*
X14305943Y-15429700D01*
X14320228Y-15372557D01*
X14334514Y-15343986D01*
X14348800Y-15329700D01*
X14377371Y-15315414D01*
X14577371Y-15315414D02*
X14763086Y-15315414D01*
X14663086Y-15429700D01*
X14705943Y-15429700D01*
X14734514Y-15443986D01*
X14748800Y-15458271D01*
X14763086Y-15486843D01*
X14763086Y-15558271D01*
X14748800Y-15586843D01*
X14734514Y-15601129D01*
X14705943Y-15615414D01*
X14620228Y-15615414D01*
X14591657Y-15601129D01*
X14577371Y-15586843D01*
X14905943Y-15615414D02*
X14963086Y-15615414D01*
X14991657Y-15601129D01*
X15005943Y-15586843D01*
X15034514Y-15543986D01*
X15048800Y-15486843D01*
X15048800Y-15372557D01*
X15034514Y-15343986D01*
X15020228Y-15329700D01*
X14991657Y-15315414D01*
X14934514Y-15315414D01*
X14905943Y-15329700D01*
X14891657Y-15343986D01*
X14877371Y-15372557D01*
X14877371Y-15443986D01*
X14891657Y-15472557D01*
X14905943Y-15486843D01*
X14934514Y-15501129D01*
X14991657Y-15501129D01*
X15020228Y-15486843D01*
X15034514Y-15472557D01*
X15048800Y-15443986D01*
X15163086Y-15315414D02*
X15163086Y-15372557D01*
X15277371Y-15315414D02*
X15277371Y-15372557D01*
X15720228Y-15729700D02*
X15705943Y-15715414D01*
X15677371Y-15672557D01*
X15663086Y-15643986D01*
X15648800Y-15601129D01*
X15634514Y-15529700D01*
X15634514Y-15472557D01*
X15648800Y-15401129D01*
X15663086Y-15358271D01*
X15677371Y-15329700D01*
X15705943Y-15286843D01*
X15720228Y-15272557D01*
X15991657Y-15615414D02*
X15820228Y-15615414D01*
X15905943Y-15615414D02*
X15905943Y-15315414D01*
X15877371Y-15358271D01*
X15848800Y-15386843D01*
X15820228Y-15401129D01*
X16248800Y-15415414D02*
X16248800Y-15615414D01*
X16177371Y-15301129D02*
X16105943Y-15515414D01*
X16291657Y-15515414D01*
X16634514Y-15615414D02*
X16634514Y-15315414D01*
X16763086Y-15615414D02*
X16763086Y-15458271D01*
X16748800Y-15429700D01*
X16720228Y-15415414D01*
X16677371Y-15415414D01*
X16648800Y-15429700D01*
X16634514Y-15443986D01*
X16948800Y-15615414D02*
X16920228Y-15601129D01*
X16905943Y-15586843D01*
X16891657Y-15558271D01*
X16891657Y-15472557D01*
X16905943Y-15443986D01*
X16920228Y-15429700D01*
X16948800Y-15415414D01*
X16991657Y-15415414D01*
X17020228Y-15429700D01*
X17034514Y-15443986D01*
X17048800Y-15472557D01*
X17048800Y-15558271D01*
X17034514Y-15586843D01*
X17020228Y-15601129D01*
X16991657Y-15615414D01*
X16948800Y-15615414D01*
X17220228Y-15615414D02*
X17191657Y-15601129D01*
X17177371Y-15572557D01*
X17177371Y-15315414D01*
X17448800Y-15601129D02*
X17420228Y-15615414D01*
X17363086Y-15615414D01*
X17334514Y-15601129D01*
X17320228Y-15572557D01*
X17320228Y-15458271D01*
X17334514Y-15429700D01*
X17363086Y-15415414D01*
X17420228Y-15415414D01*
X17448800Y-15429700D01*
X17463086Y-15458271D01*
X17463086Y-15486843D01*
X17320228Y-15515414D01*
X17577371Y-15601129D02*
X17605943Y-15615414D01*
X17663086Y-15615414D01*
X17691657Y-15601129D01*
X17705943Y-15572557D01*
X17705943Y-15558271D01*
X17691657Y-15529700D01*
X17663086Y-15515414D01*
X17620228Y-15515414D01*
X17591657Y-15501129D01*
X17577371Y-15472557D01*
X17577371Y-15458271D01*
X17591657Y-15429700D01*
X17620228Y-15415414D01*
X17663086Y-15415414D01*
X17691657Y-15429700D01*
X17805943Y-15729700D02*
X17820228Y-15715414D01*
X17848800Y-15672557D01*
X17863086Y-15643986D01*
X17877371Y-15601129D01*
X17891657Y-15529700D01*
X17891657Y-15472557D01*
X17877371Y-15401129D01*
X17863086Y-15358271D01*
X17848800Y-15329700D01*
X17820228Y-15286843D01*
X17805943Y-15272557D01*
X10713800Y-15715700D02*
X11033800Y-16035700D01*
X11033800Y-15715700D02*
X10713800Y-16035700D01*
X10986938Y-15988838D02*
X10986938Y-15762562D01*
X10760662Y-15762562D01*
X10760662Y-15988838D01*
X10986938Y-15988838D01*
X11291657Y-15711414D02*
X11477371Y-15711414D01*
X11377371Y-15825700D01*
X11420228Y-15825700D01*
X11448800Y-15839986D01*
X11463086Y-15854271D01*
X11477371Y-15882843D01*
X11477371Y-15954271D01*
X11463086Y-15982843D01*
X11448800Y-15997129D01*
X11420228Y-16011414D01*
X11334514Y-16011414D01*
X11305943Y-15997129D01*
X11291657Y-15982843D01*
X11605943Y-15982843D02*
X11620228Y-15997129D01*
X11605943Y-16011414D01*
X11591657Y-15997129D01*
X11605943Y-15982843D01*
X11605943Y-16011414D01*
X11734514Y-15739986D02*
X11748800Y-15725700D01*
X11777371Y-15711414D01*
X11848800Y-15711414D01*
X11877371Y-15725700D01*
X11891657Y-15739986D01*
X11905943Y-15768557D01*
X11905943Y-15797129D01*
X11891657Y-15839986D01*
X11720228Y-16011414D01*
X11905943Y-16011414D01*
X12091657Y-15711414D02*
X12120228Y-15711414D01*
X12148800Y-15725700D01*
X12163086Y-15739986D01*
X12177371Y-15768557D01*
X12191657Y-15825700D01*
X12191657Y-15897129D01*
X12177371Y-15954271D01*
X12163086Y-15982843D01*
X12148800Y-15997129D01*
X12120228Y-16011414D01*
X12091657Y-16011414D01*
X12063086Y-15997129D01*
X12048800Y-15982843D01*
X12034514Y-15954271D01*
X12020228Y-15897129D01*
X12020228Y-15825700D01*
X12034514Y-15768557D01*
X12048800Y-15739986D01*
X12063086Y-15725700D01*
X12091657Y-15711414D01*
X12320228Y-16011414D02*
X12320228Y-15811414D01*
X12320228Y-15839986D02*
X12334514Y-15825700D01*
X12363086Y-15811414D01*
X12405943Y-15811414D01*
X12434514Y-15825700D01*
X12448800Y-15854271D01*
X12448800Y-16011414D01*
X12448800Y-15854271D02*
X12463086Y-15825700D01*
X12491657Y-15811414D01*
X12534514Y-15811414D01*
X12563086Y-15825700D01*
X12577371Y-15854271D01*
X12577371Y-16011414D01*
X12720228Y-16011414D02*
X12720228Y-15811414D01*
X12720228Y-15839986D02*
X12734514Y-15825700D01*
X12763086Y-15811414D01*
X12805943Y-15811414D01*
X12834514Y-15825700D01*
X12848800Y-15854271D01*
X12848800Y-16011414D01*
X12848800Y-15854271D02*
X12863086Y-15825700D01*
X12891657Y-15811414D01*
X12934514Y-15811414D01*
X12963086Y-15825700D01*
X12977371Y-15854271D01*
X12977371Y-16011414D01*
X13563086Y-15697129D02*
X13305943Y-16082843D01*
X13948800Y-15711414D02*
X13977371Y-15711414D01*
X14005943Y-15725700D01*
X14020228Y-15739986D01*
X14034514Y-15768557D01*
X14048800Y-15825700D01*
X14048800Y-15897129D01*
X14034514Y-15954271D01*
X14020228Y-15982843D01*
X14005943Y-15997129D01*
X13977371Y-16011414D01*
X13948800Y-16011414D01*
X13920228Y-15997129D01*
X13905943Y-15982843D01*
X13891657Y-15954271D01*
X13877371Y-15897129D01*
X13877371Y-15825700D01*
X13891657Y-15768557D01*
X13905943Y-15739986D01*
X13920228Y-15725700D01*
X13948800Y-15711414D01*
X14177371Y-15982843D02*
X14191657Y-15997129D01*
X14177371Y-16011414D01*
X14163086Y-15997129D01*
X14177371Y-15982843D01*
X14177371Y-16011414D01*
X14477371Y-16011414D02*
X14305943Y-16011414D01*
X14391657Y-16011414D02*
X14391657Y-15711414D01*
X14363086Y-15754271D01*
X14334514Y-15782843D01*
X14305943Y-15797129D01*
X14591657Y-15739986D02*
X14605943Y-15725700D01*
X14634514Y-15711414D01*
X14705943Y-15711414D01*
X14734514Y-15725700D01*
X14748800Y-15739986D01*
X14763086Y-15768557D01*
X14763086Y-15797129D01*
X14748800Y-15839986D01*
X14577371Y-16011414D01*
X14763086Y-16011414D01*
X15020228Y-15711414D02*
X14963086Y-15711414D01*
X14934514Y-15725700D01*
X14920228Y-15739986D01*
X14891657Y-15782843D01*
X14877371Y-15839986D01*
X14877371Y-15954271D01*
X14891657Y-15982843D01*
X14905943Y-15997129D01*
X14934514Y-16011414D01*
X14991657Y-16011414D01*
X15020228Y-15997129D01*
X15034514Y-15982843D01*
X15048800Y-15954271D01*
X15048800Y-15882843D01*
X15034514Y-15854271D01*
X15020228Y-15839986D01*
X14991657Y-15825700D01*
X14934514Y-15825700D01*
X14905943Y-15839986D01*
X14891657Y-15854271D01*
X14877371Y-15882843D01*
X15163086Y-15711414D02*
X15163086Y-15768557D01*
X15277371Y-15711414D02*
X15277371Y-15768557D01*
X15720228Y-16125700D02*
X15705943Y-16111414D01*
X15677371Y-16068557D01*
X15663086Y-16039986D01*
X15648800Y-15997129D01*
X15634514Y-15925700D01*
X15634514Y-15868557D01*
X15648800Y-15797129D01*
X15663086Y-15754271D01*
X15677371Y-15725700D01*
X15705943Y-15682843D01*
X15720228Y-15668557D01*
X15963086Y-15811414D02*
X15963086Y-16011414D01*
X15891657Y-15697129D02*
X15820228Y-15911414D01*
X16005943Y-15911414D01*
X16348800Y-16011414D02*
X16348800Y-15711414D01*
X16477371Y-16011414D02*
X16477371Y-15854271D01*
X16463086Y-15825700D01*
X16434514Y-15811414D01*
X16391657Y-15811414D01*
X16363086Y-15825700D01*
X16348800Y-15839986D01*
X16663086Y-16011414D02*
X16634514Y-15997129D01*
X16620228Y-15982843D01*
X16605943Y-15954271D01*
X16605943Y-15868557D01*
X16620228Y-15839986D01*
X16634514Y-15825700D01*
X16663086Y-15811414D01*
X16705943Y-15811414D01*
X16734514Y-15825700D01*
X16748800Y-15839986D01*
X16763086Y-15868557D01*
X16763086Y-15954271D01*
X16748800Y-15982843D01*
X16734514Y-15997129D01*
X16705943Y-16011414D01*
X16663086Y-16011414D01*
X16934514Y-16011414D02*
X16905943Y-15997129D01*
X16891657Y-15968557D01*
X16891657Y-15711414D01*
X17163086Y-15997129D02*
X17134514Y-16011414D01*
X17077371Y-16011414D01*
X17048800Y-15997129D01*
X17034514Y-15968557D01*
X17034514Y-15854271D01*
X17048800Y-15825700D01*
X17077371Y-15811414D01*
X17134514Y-15811414D01*
X17163086Y-15825700D01*
X17177371Y-15854271D01*
X17177371Y-15882843D01*
X17034514Y-15911414D01*
X17291657Y-15997129D02*
X17320228Y-16011414D01*
X17377371Y-16011414D01*
X17405943Y-15997129D01*
X17420228Y-15968557D01*
X17420228Y-15954271D01*
X17405943Y-15925700D01*
X17377371Y-15911414D01*
X17334514Y-15911414D01*
X17305943Y-15897129D01*
X17291657Y-15868557D01*
X17291657Y-15854271D01*
X17305943Y-15825700D01*
X17334514Y-15811414D01*
X17377371Y-15811414D01*
X17405943Y-15825700D01*
X17520228Y-16125700D02*
X17534514Y-16111414D01*
X17563086Y-16068557D01*
X17577371Y-16039986D01*
X17591657Y-15997129D01*
X17605943Y-15925700D01*
X17605943Y-15868557D01*
X17591657Y-15797129D01*
X17577371Y-15754271D01*
X17563086Y-15725700D01*
X17534514Y-15682843D01*
X17520228Y-15668557D01*
M02*
