G04 #@! TF.GenerationSoftware,KiCad,Pcbnew,(6.0.2-0)*
G04 #@! TF.CreationDate,2022-02-13T15:07:21-08:00*
G04 #@! TF.ProjectId,TimTime,54696d54-696d-4652-9e6b-696361645f70,rev?*
G04 #@! TF.SameCoordinates,Original*
G04 #@! TF.FileFunction,Copper,L4,Bot*
G04 #@! TF.FilePolarity,Positive*
%FSLAX46Y46*%
G04 Gerber Fmt 4.6, Leading zero omitted, Abs format (unit mm)*
G04 Created by KiCad (PCBNEW (6.0.2-0)) date 2022-02-13 15:07:21*
%MOMM*%
%LPD*%
G01*
G04 APERTURE LIST*
G04 Aperture macros list*
%AMRoundRect*
0 Rectangle with rounded corners*
0 $1 Rounding radius*
0 $2 $3 $4 $5 $6 $7 $8 $9 X,Y pos of 4 corners*
0 Add a 4 corners polygon primitive as box body*
4,1,4,$2,$3,$4,$5,$6,$7,$8,$9,$2,$3,0*
0 Add four circle primitives for the rounded corners*
1,1,$1+$1,$2,$3*
1,1,$1+$1,$4,$5*
1,1,$1+$1,$6,$7*
1,1,$1+$1,$8,$9*
0 Add four rect primitives between the rounded corners*
20,1,$1+$1,$2,$3,$4,$5,0*
20,1,$1+$1,$4,$5,$6,$7,0*
20,1,$1+$1,$6,$7,$8,$9,0*
20,1,$1+$1,$8,$9,$2,$3,0*%
G04 Aperture macros list end*
G04 #@! TA.AperFunction,SMDPad,CuDef*
%ADD10RoundRect,0.150000X-0.512500X-0.150000X0.512500X-0.150000X0.512500X0.150000X-0.512500X0.150000X0*%
G04 #@! TD*
G04 #@! TA.AperFunction,ComponentPad*
%ADD11O,2.616000X1.308000*%
G04 #@! TD*
G04 #@! TA.AperFunction,ComponentPad*
%ADD12O,1.308000X2.616000*%
G04 #@! TD*
G04 #@! TA.AperFunction,ComponentPad*
%ADD13C,0.650000*%
G04 #@! TD*
G04 #@! TA.AperFunction,ComponentPad*
%ADD14O,2.216000X1.108000*%
G04 #@! TD*
G04 #@! TA.AperFunction,ComponentPad*
%ADD15R,1.700000X1.700000*%
G04 #@! TD*
G04 #@! TA.AperFunction,ComponentPad*
%ADD16O,1.700000X1.700000*%
G04 #@! TD*
G04 #@! TA.AperFunction,ComponentPad*
%ADD17C,0.800000*%
G04 #@! TD*
G04 #@! TA.AperFunction,ComponentPad*
%ADD18C,6.400000*%
G04 #@! TD*
G04 #@! TA.AperFunction,ViaPad*
%ADD19C,0.450000*%
G04 #@! TD*
G04 #@! TA.AperFunction,ViaPad*
%ADD20C,0.800000*%
G04 #@! TD*
G04 #@! TA.AperFunction,ViaPad*
%ADD21C,0.500000*%
G04 #@! TD*
G04 #@! TA.AperFunction,Conductor*
%ADD22C,0.200000*%
G04 #@! TD*
G04 #@! TA.AperFunction,Conductor*
%ADD23C,0.300000*%
G04 #@! TD*
G04 #@! TA.AperFunction,Conductor*
%ADD24C,0.250000*%
G04 #@! TD*
G04 #@! TA.AperFunction,Conductor*
%ADD25C,0.500000*%
G04 #@! TD*
G04 APERTURE END LIST*
D10*
G04 #@! TO.P,U3,1,I/O1*
G04 #@! TO.N,USB_D+*
X118262400Y-106664800D03*
G04 #@! TO.P,U3,2,GND*
G04 #@! TO.N,GND*
X118262400Y-105714800D03*
G04 #@! TO.P,U3,3,I/O2*
G04 #@! TO.N,USB_D-*
X118262400Y-104764800D03*
G04 #@! TO.P,U3,4,I/O2*
X120537400Y-104764800D03*
G04 #@! TO.P,U3,5,VBUS*
G04 #@! TO.N,+3V3*
X120537400Y-105714800D03*
G04 #@! TO.P,U3,6,I/O1*
G04 #@! TO.N,USB_D+*
X120537400Y-106664800D03*
G04 #@! TD*
D11*
G04 #@! TO.P,J2,3*
G04 #@! TO.N,unconnected-(J2-Pad3)*
X160049200Y-100203000D03*
G04 #@! TO.P,J2,2*
G04 #@! TO.N,Net-(J2-Pad2)*
X160049200Y-110203000D03*
D12*
G04 #@! TO.P,J2,1*
G04 #@! TO.N,GND*
X165049200Y-105203000D03*
G04 #@! TD*
D13*
G04 #@! TO.P,J1,A1,GND*
G04 #@! TO.N,GND*
X116412000Y-108458000D03*
G04 #@! TO.P,J1,A4,VBUS*
G04 #@! TO.N,VBUS*
X116412000Y-107608000D03*
G04 #@! TO.P,J1,A5,CC1*
G04 #@! TO.N,CC1*
X116412000Y-106758000D03*
G04 #@! TO.P,J1,A6,DP1*
G04 #@! TO.N,USB_D+*
X116412000Y-105908000D03*
G04 #@! TO.P,J1,A7,DN1*
G04 #@! TO.N,USB_D-*
X116412000Y-105058000D03*
G04 #@! TO.P,J1,A8,SBU1*
G04 #@! TO.N,unconnected-(J1-PadA8)*
X116412000Y-104208000D03*
G04 #@! TO.P,J1,A9,VBUS*
G04 #@! TO.N,VBUS*
X116412000Y-103358000D03*
G04 #@! TO.P,J1,A12,GND*
G04 #@! TO.N,GND*
X116412000Y-102508000D03*
G04 #@! TO.P,J1,B1,GND*
X115062000Y-102508000D03*
G04 #@! TO.P,J1,B4,VBUS*
G04 #@! TO.N,VBUS*
X115062000Y-103358000D03*
G04 #@! TO.P,J1,B5,CC2*
G04 #@! TO.N,CC2*
X115062000Y-104208000D03*
G04 #@! TO.P,J1,B6,DP2*
G04 #@! TO.N,USB_D+*
X115062000Y-105058000D03*
G04 #@! TO.P,J1,B7,DN2*
G04 #@! TO.N,USB_D-*
X115062000Y-105908000D03*
G04 #@! TO.P,J1,B8,SBU2*
G04 #@! TO.N,unconnected-(J1-PadB8)*
X115062000Y-106758000D03*
G04 #@! TO.P,J1,B9,VBUS*
G04 #@! TO.N,VBUS*
X115062000Y-107608000D03*
G04 #@! TO.P,J1,B12,GND*
G04 #@! TO.N,GND*
X115062000Y-108458000D03*
D14*
G04 #@! TO.P,J1,P1,SHELL*
G04 #@! TO.N,Net-(J1-PadP1)*
X115432000Y-109808000D03*
G04 #@! TO.P,J1,P2,SHELL*
X115432000Y-101158000D03*
G04 #@! TO.P,J1,P3,SHELL*
X112052000Y-101158000D03*
G04 #@! TO.P,J1,P4,SHELL*
X112052000Y-109808000D03*
G04 #@! TD*
D15*
G04 #@! TO.P,J3,1,Pin_1*
G04 #@! TO.N,GND*
X133858000Y-91186000D03*
D16*
G04 #@! TO.P,J3,2,Pin_2*
G04 #@! TO.N,+2V8*
X136398000Y-91186000D03*
G04 #@! TO.P,J3,3,Pin_3*
G04 #@! TO.N,MON_SCL*
X138938000Y-91186000D03*
G04 #@! TO.P,J3,4,Pin_4*
G04 #@! TO.N,MON_SDA*
X141478000Y-91186000D03*
G04 #@! TD*
D15*
G04 #@! TO.P,J4,1,Pin_1*
G04 #@! TO.N,+2V8*
X149733000Y-119634000D03*
D16*
G04 #@! TO.P,J4,2,Pin_2*
G04 #@! TO.N,SWCLK*
X147193000Y-119634000D03*
G04 #@! TO.P,J4,3,Pin_3*
G04 #@! TO.N,GND*
X144653000Y-119634000D03*
G04 #@! TO.P,J4,4,Pin_4*
G04 #@! TO.N,SWDIO*
X142113000Y-119634000D03*
G04 #@! TO.P,J4,5,Pin_5*
G04 #@! TO.N,NRST*
X139573000Y-119634000D03*
G04 #@! TO.P,J4,6,Pin_6*
G04 #@! TO.N,SWO*
X137033000Y-119634000D03*
G04 #@! TD*
G04 #@! TO.P,J5,2,Pin_2*
G04 #@! TO.N,+BATT*
X112166400Y-93116400D03*
D15*
G04 #@! TO.P,J5,1,Pin_1*
G04 #@! TO.N,GND*
X112166400Y-95656400D03*
G04 #@! TD*
D16*
G04 #@! TO.P,J6,2,Pin_2*
G04 #@! TO.N,OSC*
X155067000Y-91567000D03*
D15*
G04 #@! TO.P,J6,1,Pin_1*
G04 #@! TO.N,GND*
X157607000Y-91567000D03*
G04 #@! TD*
D17*
G04 #@! TO.P,H2,1,1*
G04 #@! TO.N,GND*
X166416056Y-91266944D03*
X164719000Y-90564000D03*
X163021944Y-91266944D03*
X162319000Y-92964000D03*
X163021944Y-94661056D03*
X164719000Y-95364000D03*
X166416056Y-94661056D03*
X167119000Y-92964000D03*
D18*
X164719000Y-92964000D03*
G04 #@! TD*
G04 #@! TO.P,H3,1,1*
G04 #@! TO.N,GND*
X164719000Y-117602000D03*
D17*
X167119000Y-117602000D03*
X166416056Y-119299056D03*
X164719000Y-120002000D03*
X163021944Y-119299056D03*
X162319000Y-117602000D03*
X163021944Y-115904944D03*
X164719000Y-115202000D03*
X166416056Y-115904944D03*
G04 #@! TD*
G04 #@! TO.P,H4,1,1*
G04 #@! TO.N,GND*
X115870056Y-115904944D03*
X114173000Y-115202000D03*
X112475944Y-115904944D03*
X111773000Y-117602000D03*
X112475944Y-119299056D03*
X114173000Y-120002000D03*
X115870056Y-119299056D03*
X116573000Y-117602000D03*
D18*
X114173000Y-117602000D03*
G04 #@! TD*
D19*
G04 #@! TO.N,GND*
X149656800Y-97383600D03*
X119380000Y-106121200D03*
G04 #@! TO.N,OSC*
X139446000Y-102971600D03*
G04 #@! TO.N,TC_OUT*
X138871500Y-101650800D03*
X150164800Y-108356400D03*
G04 #@! TO.N,STAT2*
X117805200Y-107492800D03*
G04 #@! TO.N,STAT1*
X117551200Y-103936800D03*
G04 #@! TO.N,GND*
X160985200Y-112522000D03*
G04 #@! TO.N,+2V8*
X161848800Y-104648000D03*
X158089600Y-94742000D03*
G04 #@! TO.N,BTN_A*
X156108400Y-96113600D03*
G04 #@! TO.N,GND*
X152958800Y-117144800D03*
G04 #@! TO.N,+2V8*
X158089600Y-114757200D03*
G04 #@! TO.N,GND*
X143560800Y-114249200D03*
X130149600Y-110388400D03*
G04 #@! TO.N,USB_D-*
X132237076Y-105399814D03*
G04 #@! TO.N,USB_D+*
X132938967Y-105795380D03*
G04 #@! TO.N,GND*
X131114800Y-110439200D03*
G04 #@! TO.N,+3V3*
X127660400Y-105918000D03*
D20*
G04 #@! TO.N,+2V8*
X131572000Y-98171000D03*
X148336000Y-96520000D03*
X134239000Y-110998000D03*
X130429000Y-103124000D03*
X131826000Y-107569000D03*
X144907000Y-110363000D03*
D19*
X153924000Y-106105000D03*
D20*
X129159000Y-93255000D03*
G04 #@! TO.N,GND*
X147955000Y-108839000D03*
X144653000Y-112141000D03*
X136906000Y-115951000D03*
X134239000Y-115189000D03*
X123063000Y-108966000D03*
X116332000Y-97917000D03*
X114808000Y-113030000D03*
X124841000Y-98679000D03*
X127254000Y-98679000D03*
X129667000Y-98552000D03*
X130937000Y-96266000D03*
X132207000Y-97155000D03*
X146558000Y-96520000D03*
X144780000Y-96520000D03*
X149860000Y-100076000D03*
X117729000Y-102489000D03*
D19*
X125222000Y-104394000D03*
D20*
X141478000Y-110236000D03*
X136144000Y-97282000D03*
D19*
X146494500Y-103441500D03*
X147066000Y-102108000D03*
X148590000Y-101727000D03*
X150495000Y-101727000D03*
X152527000Y-101727000D03*
X154432000Y-101727000D03*
X155829000Y-102997000D03*
X155829000Y-104394000D03*
X155829000Y-105664000D03*
X154432000Y-106680000D03*
X153035000Y-106680000D03*
X151257000Y-106680000D03*
X149352000Y-106680000D03*
X147828000Y-106680000D03*
X145796000Y-105791000D03*
X146685000Y-106172000D03*
X145161000Y-103672500D03*
X144780000Y-105791000D03*
D20*
X120523000Y-100076000D03*
D19*
X133731000Y-106680000D03*
X143129000Y-94234000D03*
D20*
X121539000Y-102743000D03*
X120142000Y-102743000D03*
X117983000Y-110109000D03*
D21*
X131064000Y-114173000D03*
X125603000Y-116078000D03*
X122047000Y-113538000D03*
X122301000Y-97155000D03*
D19*
G04 #@! TO.N,MON_SCL*
X137922000Y-98552000D03*
G04 #@! TO.N,MON_SDA*
X137160000Y-98552000D03*
X137160000Y-94615000D03*
G04 #@! TO.N,Net-(C3-Pad1)*
X153670000Y-102870000D03*
X153515000Y-100838000D03*
D21*
G04 #@! TO.N,VAA*
X145161000Y-102870000D03*
X145161000Y-100838000D03*
D20*
G04 #@! TO.N,+BATT*
X138684000Y-93980000D03*
D19*
G04 #@! TO.N,STAT1*
X130810000Y-104013000D03*
D21*
G04 #@! TO.N,STAT2*
X129667000Y-106426000D03*
G04 #@! TO.N,SWCLK*
X136779000Y-117348000D03*
D19*
X136413500Y-109966500D03*
G04 #@! TO.N,SWDIO*
X139827000Y-106934000D03*
D20*
G04 #@! TO.N,NRST*
X138938000Y-104394000D03*
D19*
G04 #@! TO.N,SWO*
X137413500Y-109982500D03*
G04 #@! TO.N,TCVC*
X149733000Y-98552000D03*
X141351000Y-101854000D03*
G04 #@! TO.N,TC_IN*
X146177000Y-101219000D03*
X151892000Y-110236000D03*
G04 #@! TO.N,BTN_A*
X141224000Y-113030000D03*
D21*
G04 #@! TO.N,BTN_PWR*
X136906000Y-101727000D03*
X134493000Y-95123000D03*
G04 #@! TD*
D22*
G04 #@! TO.N,GND*
X119243536Y-106121200D02*
X119380000Y-106121200D01*
X119243536Y-106121199D02*
G75*
G02*
X118262401Y-105714799I0J1387535D01*
G01*
D23*
G04 #@! TO.N,+BATT*
X117855691Y-93116401D02*
G75*
G02*
X119634000Y-93853000I1J-2514906D01*
G01*
X117855691Y-93116400D02*
X112166400Y-93116400D01*
G04 #@! TO.N,OSC*
X139446000Y-102362000D02*
X139446000Y-102971600D01*
G04 #@! TO.N,TC_OUT*
X138871489Y-101650826D02*
G75*
G02*
X138871500Y-101650800I38J-1D01*
G01*
X138871489Y-101650826D02*
X138871489Y-103209890D01*
X150164800Y-108356400D02*
G75*
G03*
X149520420Y-108089489I-644380J-644381D01*
G01*
X143851089Y-108089489D02*
X149520420Y-108089489D01*
X143801089Y-108139489D02*
X143851089Y-108089489D01*
X138871489Y-103209890D02*
X143801089Y-108139489D01*
D24*
G04 #@! TO.N,+3V3*
X127206528Y-105730001D02*
G75*
G02*
X127660399Y-105918001I-3J-641879D01*
G01*
X120537400Y-105714800D02*
G75*
G03*
X120574096Y-105730000I36694J36691D01*
G01*
X127206528Y-105730000D02*
X120574096Y-105730000D01*
D22*
G04 #@! TO.N,USB_D+*
X132418084Y-106011137D02*
G75*
G03*
X132938967Y-105795380I2J736634D01*
G01*
X130768489Y-105876489D02*
G75*
G02*
X130835813Y-105943813I-1J-67325D01*
G01*
X129439384Y-105876489D02*
X128873362Y-106442511D01*
X123681489Y-106442511D02*
X123444000Y-106680000D01*
X120537400Y-106664800D02*
G75*
G03*
X120574096Y-106680000I36694J36691D01*
G01*
X130835813Y-105943813D02*
G75*
G03*
X130903137Y-106011137I67325J1D01*
G01*
X132418084Y-106011137D02*
X130903137Y-106011137D01*
X130768489Y-105876489D02*
X129439384Y-105876489D01*
X128873362Y-106442511D02*
X123681489Y-106442511D01*
X123444000Y-106680000D02*
X120574096Y-106680000D01*
G04 #@! TO.N,USB_D-*
X123444000Y-104780000D02*
X120574096Y-104780000D01*
X120537400Y-104764800D02*
G75*
G03*
X120574096Y-104780000I36694J36691D01*
G01*
G04 #@! TO.N,STAT2*
X119288480Y-107279520D02*
G75*
G02*
X118773577Y-107492800I-514906J514909D01*
G01*
X119288480Y-107279520D02*
X127606421Y-107279520D01*
X117805200Y-107492800D02*
X118773577Y-107492800D01*
G04 #@! TO.N,STAT1*
X117714886Y-103868999D02*
X130462351Y-103868999D01*
X117714886Y-103868999D02*
G75*
G03*
X117551200Y-103936800I-1J-231484D01*
G01*
X130810000Y-104013000D02*
G75*
G03*
X130462351Y-103868999I-347651J-347654D01*
G01*
G04 #@! TO.N,USB_D-*
X116940299Y-104764800D02*
G75*
G03*
X116903603Y-104780000I0J-51895D01*
G01*
X117699072Y-104764800D02*
G75*
G02*
X117629536Y-104695264I1J69537D01*
G01*
X117229536Y-104695264D02*
G75*
G02*
X117160000Y-104764800I-69537J1D01*
G01*
X117299072Y-104625728D02*
G75*
G03*
X117229536Y-104695264I1J-69537D01*
G01*
X117629536Y-104695264D02*
G75*
G03*
X117560000Y-104625728I-69537J-1D01*
G01*
X116412000Y-105058000D02*
X116625603Y-105058000D01*
X116625603Y-105058000D02*
X116903603Y-104780000D01*
X116940299Y-104764800D02*
X117160000Y-104764800D01*
X117960000Y-104764800D02*
X118262400Y-104764800D01*
X117299072Y-104625728D02*
X117560000Y-104625728D01*
X117699072Y-104764800D02*
X117960000Y-104764800D01*
G04 #@! TO.N,USB_D+*
X118262400Y-106664800D02*
X118239076Y-106664800D01*
X116412000Y-105908000D02*
G75*
G03*
X118239076Y-106664800I1827075J1827073D01*
G01*
G04 #@! TO.N,BTN_A*
X157734000Y-97739200D02*
G75*
G03*
X156108400Y-96113600I-1625599J1D01*
G01*
X150746010Y-113088956D02*
X141282956Y-113088956D01*
X150746010Y-113088956D02*
G75*
G03*
X157734000Y-106100966I0J6987990D01*
G01*
X141224000Y-113030000D02*
G75*
G03*
X141282956Y-113088956I58957J1D01*
G01*
X157734000Y-97739200D02*
X157734000Y-106100966D01*
G04 #@! TO.N,SWDIO*
X139827000Y-106934000D02*
X139827000Y-117348000D01*
G04 #@! TO.N,USB_D-*
X132237076Y-105399814D02*
G75*
G03*
X131075108Y-104918511I-1161971J-1161975D01*
G01*
X123444000Y-104780000D02*
X123582511Y-104918511D01*
X123582511Y-104918511D02*
X131075108Y-104918511D01*
G04 #@! TO.N,STAT2*
X129667000Y-106426000D02*
G75*
G02*
X127606421Y-107279520I-2060581J2060584D01*
G01*
G04 #@! TO.N,USB_D+*
X116412000Y-105908000D02*
G75*
G03*
X116540037Y-105854965I1J181068D01*
G01*
D25*
G04 #@! TO.N,GND*
X116412000Y-108538000D02*
X117983000Y-110109000D01*
X116412000Y-108458000D02*
X116412000Y-108538000D01*
X115062000Y-108458000D02*
X116412000Y-108458000D01*
D22*
G04 #@! TO.N,MON_SCL*
X139384001Y-91632001D02*
X138938000Y-91186000D01*
X139384001Y-97089999D02*
X139384001Y-91632001D01*
X137922000Y-98552000D02*
X139384001Y-97089999D01*
G04 #@! TO.N,MON_SDA*
X137160000Y-98552000D02*
X137160000Y-94615000D01*
G04 #@! TO.N,Net-(C3-Pad1)*
X153543000Y-100838000D02*
X153515000Y-100838000D01*
X153670000Y-100965000D02*
X153543000Y-100838000D01*
X153670000Y-102870000D02*
X153670000Y-100965000D01*
G04 #@! TO.N,VAA*
X145161000Y-102870000D02*
X145161000Y-100838000D01*
D23*
G04 #@! TO.N,+BATT*
X138658999Y-94005001D02*
X119786001Y-94005001D01*
X119786001Y-94005001D02*
X119634000Y-93853000D01*
X138684000Y-93980000D02*
X138658999Y-94005001D01*
D22*
G04 #@! TO.N,VBUS*
X116412000Y-107608000D02*
X115062000Y-107608000D01*
X114602381Y-103358000D02*
X115062000Y-103358000D01*
X114436999Y-107058001D02*
X114436999Y-103523382D01*
X114761999Y-107383001D02*
X114436999Y-107058001D01*
X114876001Y-107383001D02*
X114761999Y-107383001D01*
X114436999Y-103523382D02*
X114602381Y-103358000D01*
X115062000Y-107569000D02*
X114876001Y-107383001D01*
X115062000Y-107608000D02*
X115062000Y-107569000D01*
G04 #@! TO.N,STAT1*
X130665999Y-103868999D02*
X130810000Y-104013000D01*
D24*
G04 #@! TO.N,STAT2*
X129728999Y-106487999D02*
X129667000Y-106426000D01*
D22*
G04 #@! TO.N,USB_D+*
X115102381Y-105058000D02*
X115062000Y-105058000D01*
X115952381Y-105908000D02*
X115102381Y-105058000D01*
X116412000Y-105908000D02*
X115952381Y-105908000D01*
G04 #@! TO.N,Net-(J1-PadP1)*
X112052000Y-101158000D02*
X115432000Y-101158000D01*
D24*
G04 #@! TO.N,SWCLK*
X136017000Y-116586000D02*
X136017000Y-110363000D01*
X136779000Y-117348000D02*
X136017000Y-116586000D01*
X136017000Y-110363000D02*
X136413500Y-109966500D01*
D22*
G04 #@! TO.N,SWDIO*
X139827000Y-117348000D02*
X142113000Y-119634000D01*
D24*
G04 #@! TO.N,NRST*
X138938000Y-118999000D02*
X139573000Y-119634000D01*
X138938000Y-104394000D02*
X138938000Y-118999000D01*
G04 #@! TO.N,SWO*
X137922000Y-110491000D02*
X137413500Y-109982500D01*
X137922000Y-118745000D02*
X137922000Y-110491000D01*
X137033000Y-119634000D02*
X137922000Y-118745000D01*
D23*
G04 #@! TO.N,OSC*
X139446000Y-100743998D02*
X145066998Y-95123000D01*
X139446000Y-102362000D02*
X139446000Y-100743998D01*
X151511000Y-95123000D02*
X155067000Y-91567000D01*
X145066998Y-95123000D02*
X151511000Y-95123000D01*
G04 #@! TO.N,TCVC*
X141732000Y-101854000D02*
X145034000Y-98552000D01*
X145034000Y-98552000D02*
X149733000Y-98552000D01*
X141351000Y-101854000D02*
X141732000Y-101854000D01*
G04 #@! TO.N,TC_IN*
X148070001Y-99325999D02*
X153427999Y-99325999D01*
X146177000Y-101219000D02*
X148070001Y-99325999D01*
X156404001Y-102302001D02*
X156404001Y-106231999D01*
X153427999Y-99325999D02*
X156404001Y-102302001D01*
X152400000Y-110236000D02*
X151892000Y-110236000D01*
X156404001Y-106231999D02*
X152400000Y-110236000D01*
D22*
G04 #@! TO.N,BTN_PWR*
X136906000Y-101727000D02*
X134493000Y-99314000D01*
X134493000Y-99314000D02*
X134493000Y-95123000D01*
G04 #@! TD*
M02*
