%FSLAX45Y45*%
G04 Gerber Fmt 4.5, Leading zero omitted, Abs format (unit mm)*
G04 Created by KiCad (PCBNEW (6.0.2-0)) date 2022-02-13 15:07:27*
%MOMM*%
%LPD*%
G01*
G04 APERTURE LIST*
%TA.AperFunction,Profile*%
%ADD10C,0.050000*%
%TD*%
%ADD11C,0.200000*%
%ADD12C,0.120000*%
G04 APERTURE END LIST*
D10*
X11379200Y-8915400D02*
X16510000Y-8915400D01*
X11036300Y-11798300D02*
X11036300Y-9258300D01*
X16510000Y-12141200D02*
X11379200Y-12141200D01*
X16852900Y-9258300D02*
X16852900Y-11798300D01*
X16852900Y-9258300D02*
G75*
G03*
X16510000Y-8915400I-342900J0D01*
G01*
X11379200Y-8915400D02*
G75*
G03*
X11036300Y-9258300I0J-342900D01*
G01*
X11036300Y-11798300D02*
G75*
G03*
X11379200Y-12141200I342900J0D01*
G01*
X16510000Y-12141200D02*
G75*
G03*
X16852900Y-11798300I0J342900D01*
G01*
D11*
D12*
X15944920Y-10460300D02*
X16064920Y-10580300D01*
X16064920Y-10460300D02*
X15944920Y-10580300D01*
X16444920Y-9960300D02*
X16564920Y-10080300D01*
X16564920Y-9960300D02*
X16444920Y-10080300D01*
X16444920Y-10960300D02*
X16564920Y-11080300D01*
X16564920Y-10960300D02*
X16444920Y-11080300D01*
X16694920Y-9960300D02*
X16814920Y-10080300D01*
X16814920Y-9960300D02*
X16694920Y-10080300D01*
X16694920Y-10960300D02*
X16814920Y-11080300D01*
X16814920Y-10960300D02*
X16694920Y-11080300D01*
D11*
X11291419Y-12454176D02*
X11291419Y-12254176D01*
X11339038Y-12254176D01*
X11367609Y-12263700D01*
X11386657Y-12282748D01*
X11396181Y-12301795D01*
X11405705Y-12339890D01*
X11405705Y-12368462D01*
X11396181Y-12406557D01*
X11386657Y-12425605D01*
X11367609Y-12444652D01*
X11339038Y-12454176D01*
X11291419Y-12454176D01*
X11491419Y-12454176D02*
X11491419Y-12320843D01*
X11491419Y-12358938D02*
X11500943Y-12339890D01*
X11510467Y-12330367D01*
X11529514Y-12320843D01*
X11548562Y-12320843D01*
X11615228Y-12454176D02*
X11615228Y-12320843D01*
X11615228Y-12254176D02*
X11605705Y-12263700D01*
X11615228Y-12273224D01*
X11624752Y-12263700D01*
X11615228Y-12254176D01*
X11615228Y-12273224D01*
X11739038Y-12454176D02*
X11719990Y-12444652D01*
X11710467Y-12425605D01*
X11710467Y-12254176D01*
X11843800Y-12454176D02*
X11824752Y-12444652D01*
X11815228Y-12425605D01*
X11815228Y-12254176D01*
X12072371Y-12454176D02*
X12072371Y-12254176D01*
X12139038Y-12397033D01*
X12205705Y-12254176D01*
X12205705Y-12454176D01*
X12386657Y-12454176D02*
X12386657Y-12349414D01*
X12377133Y-12330367D01*
X12358086Y-12320843D01*
X12319990Y-12320843D01*
X12300943Y-12330367D01*
X12386657Y-12444652D02*
X12367609Y-12454176D01*
X12319990Y-12454176D01*
X12300943Y-12444652D01*
X12291419Y-12425605D01*
X12291419Y-12406557D01*
X12300943Y-12387509D01*
X12319990Y-12377986D01*
X12367609Y-12377986D01*
X12386657Y-12368462D01*
X12481895Y-12320843D02*
X12481895Y-12520843D01*
X12481895Y-12330367D02*
X12500943Y-12320843D01*
X12539038Y-12320843D01*
X12558086Y-12330367D01*
X12567609Y-12339890D01*
X12577133Y-12358938D01*
X12577133Y-12416081D01*
X12567609Y-12435128D01*
X12558086Y-12444652D01*
X12539038Y-12454176D01*
X12500943Y-12454176D01*
X12481895Y-12444652D01*
X12662848Y-12435128D02*
X12672371Y-12444652D01*
X12662848Y-12454176D01*
X12653324Y-12444652D01*
X12662848Y-12435128D01*
X12662848Y-12454176D01*
X12662848Y-12330367D02*
X12672371Y-12339890D01*
X12662848Y-12349414D01*
X12653324Y-12339890D01*
X12662848Y-12330367D01*
X12662848Y-12349414D01*
D12*
X10913800Y-12723700D02*
X11033800Y-12843700D01*
X11033800Y-12723700D02*
X10913800Y-12843700D01*
D11*
X11396181Y-12874176D02*
X11281895Y-12874176D01*
X11339038Y-12874176D02*
X11339038Y-12674176D01*
X11319990Y-12702748D01*
X11300943Y-12721795D01*
X11281895Y-12731319D01*
X11481895Y-12855128D02*
X11491419Y-12864652D01*
X11481895Y-12874176D01*
X11472371Y-12864652D01*
X11481895Y-12855128D01*
X11481895Y-12874176D01*
X11567609Y-12693224D02*
X11577133Y-12683700D01*
X11596181Y-12674176D01*
X11643800Y-12674176D01*
X11662848Y-12683700D01*
X11672371Y-12693224D01*
X11681895Y-12712271D01*
X11681895Y-12731319D01*
X11672371Y-12759890D01*
X11558086Y-12874176D01*
X11681895Y-12874176D01*
X11805705Y-12674176D02*
X11824752Y-12674176D01*
X11843800Y-12683700D01*
X11853324Y-12693224D01*
X11862848Y-12712271D01*
X11872371Y-12750367D01*
X11872371Y-12797986D01*
X11862848Y-12836081D01*
X11853324Y-12855128D01*
X11843800Y-12864652D01*
X11824752Y-12874176D01*
X11805705Y-12874176D01*
X11786657Y-12864652D01*
X11777133Y-12855128D01*
X11767609Y-12836081D01*
X11758086Y-12797986D01*
X11758086Y-12750367D01*
X11767609Y-12712271D01*
X11777133Y-12693224D01*
X11786657Y-12683700D01*
X11805705Y-12674176D01*
X11996181Y-12674176D02*
X12015228Y-12674176D01*
X12034276Y-12683700D01*
X12043800Y-12693224D01*
X12053324Y-12712271D01*
X12062848Y-12750367D01*
X12062848Y-12797986D01*
X12053324Y-12836081D01*
X12043800Y-12855128D01*
X12034276Y-12864652D01*
X12015228Y-12874176D01*
X11996181Y-12874176D01*
X11977133Y-12864652D01*
X11967609Y-12855128D01*
X11958086Y-12836081D01*
X11948562Y-12797986D01*
X11948562Y-12750367D01*
X11958086Y-12712271D01*
X11967609Y-12693224D01*
X11977133Y-12683700D01*
X11996181Y-12674176D01*
X12148562Y-12874176D02*
X12148562Y-12740843D01*
X12148562Y-12759890D02*
X12158086Y-12750367D01*
X12177133Y-12740843D01*
X12205705Y-12740843D01*
X12224752Y-12750367D01*
X12234276Y-12769414D01*
X12234276Y-12874176D01*
X12234276Y-12769414D02*
X12243800Y-12750367D01*
X12262848Y-12740843D01*
X12291419Y-12740843D01*
X12310467Y-12750367D01*
X12319990Y-12769414D01*
X12319990Y-12874176D01*
X12415228Y-12874176D02*
X12415228Y-12740843D01*
X12415228Y-12759890D02*
X12424752Y-12750367D01*
X12443800Y-12740843D01*
X12472371Y-12740843D01*
X12491419Y-12750367D01*
X12500943Y-12769414D01*
X12500943Y-12874176D01*
X12500943Y-12769414D02*
X12510467Y-12750367D01*
X12529514Y-12740843D01*
X12558086Y-12740843D01*
X12577133Y-12750367D01*
X12586657Y-12769414D01*
X12586657Y-12874176D01*
X12977133Y-12664652D02*
X12805705Y-12921795D01*
X13234276Y-12674176D02*
X13253324Y-12674176D01*
X13272371Y-12683700D01*
X13281895Y-12693224D01*
X13291419Y-12712271D01*
X13300943Y-12750367D01*
X13300943Y-12797986D01*
X13291419Y-12836081D01*
X13281895Y-12855128D01*
X13272371Y-12864652D01*
X13253324Y-12874176D01*
X13234276Y-12874176D01*
X13215228Y-12864652D01*
X13205705Y-12855128D01*
X13196181Y-12836081D01*
X13186657Y-12797986D01*
X13186657Y-12750367D01*
X13196181Y-12712271D01*
X13205705Y-12693224D01*
X13215228Y-12683700D01*
X13234276Y-12674176D01*
X13386657Y-12855128D02*
X13396181Y-12864652D01*
X13386657Y-12874176D01*
X13377133Y-12864652D01*
X13386657Y-12855128D01*
X13386657Y-12874176D01*
X13519990Y-12674176D02*
X13539038Y-12674176D01*
X13558086Y-12683700D01*
X13567609Y-12693224D01*
X13577133Y-12712271D01*
X13586657Y-12750367D01*
X13586657Y-12797986D01*
X13577133Y-12836081D01*
X13567609Y-12855128D01*
X13558086Y-12864652D01*
X13539038Y-12874176D01*
X13519990Y-12874176D01*
X13500943Y-12864652D01*
X13491419Y-12855128D01*
X13481895Y-12836081D01*
X13472371Y-12797986D01*
X13472371Y-12750367D01*
X13481895Y-12712271D01*
X13491419Y-12693224D01*
X13500943Y-12683700D01*
X13519990Y-12674176D01*
X13758086Y-12740843D02*
X13758086Y-12874176D01*
X13710467Y-12664652D02*
X13662848Y-12807509D01*
X13786657Y-12807509D01*
X13843800Y-12674176D02*
X13977133Y-12674176D01*
X13891419Y-12874176D01*
X14043800Y-12693224D02*
X14053324Y-12683700D01*
X14072371Y-12674176D01*
X14119990Y-12674176D01*
X14139038Y-12683700D01*
X14148562Y-12693224D01*
X14158086Y-12712271D01*
X14158086Y-12731319D01*
X14148562Y-12759890D01*
X14034276Y-12874176D01*
X14158086Y-12874176D01*
X14234276Y-12674176D02*
X14234276Y-12712271D01*
X14310467Y-12674176D02*
X14310467Y-12712271D01*
X14605705Y-12950367D02*
X14596181Y-12940843D01*
X14577133Y-12912271D01*
X14567609Y-12893224D01*
X14558086Y-12864652D01*
X14548562Y-12817033D01*
X14548562Y-12778938D01*
X14558086Y-12731319D01*
X14567609Y-12702748D01*
X14577133Y-12683700D01*
X14596181Y-12655128D01*
X14605705Y-12645605D01*
X14777133Y-12674176D02*
X14681895Y-12674176D01*
X14672371Y-12769414D01*
X14681895Y-12759890D01*
X14700943Y-12750367D01*
X14748562Y-12750367D01*
X14767609Y-12759890D01*
X14777133Y-12769414D01*
X14786657Y-12788462D01*
X14786657Y-12836081D01*
X14777133Y-12855128D01*
X14767609Y-12864652D01*
X14748562Y-12874176D01*
X14700943Y-12874176D01*
X14681895Y-12864652D01*
X14672371Y-12855128D01*
X15024752Y-12874176D02*
X15024752Y-12674176D01*
X15110467Y-12874176D02*
X15110467Y-12769414D01*
X15100943Y-12750367D01*
X15081895Y-12740843D01*
X15053324Y-12740843D01*
X15034276Y-12750367D01*
X15024752Y-12759890D01*
X15234276Y-12874176D02*
X15215228Y-12864652D01*
X15205705Y-12855128D01*
X15196181Y-12836081D01*
X15196181Y-12778938D01*
X15205705Y-12759890D01*
X15215228Y-12750367D01*
X15234276Y-12740843D01*
X15262848Y-12740843D01*
X15281895Y-12750367D01*
X15291419Y-12759890D01*
X15300943Y-12778938D01*
X15300943Y-12836081D01*
X15291419Y-12855128D01*
X15281895Y-12864652D01*
X15262848Y-12874176D01*
X15234276Y-12874176D01*
X15415228Y-12874176D02*
X15396181Y-12864652D01*
X15386657Y-12845605D01*
X15386657Y-12674176D01*
X15567609Y-12864652D02*
X15548562Y-12874176D01*
X15510467Y-12874176D01*
X15491419Y-12864652D01*
X15481895Y-12845605D01*
X15481895Y-12769414D01*
X15491419Y-12750367D01*
X15510467Y-12740843D01*
X15548562Y-12740843D01*
X15567609Y-12750367D01*
X15577133Y-12769414D01*
X15577133Y-12788462D01*
X15481895Y-12807509D01*
X15653324Y-12864652D02*
X15672371Y-12874176D01*
X15710467Y-12874176D01*
X15729514Y-12864652D01*
X15739038Y-12845605D01*
X15739038Y-12836081D01*
X15729514Y-12817033D01*
X15710467Y-12807509D01*
X15681895Y-12807509D01*
X15662848Y-12797986D01*
X15653324Y-12778938D01*
X15653324Y-12769414D01*
X15662848Y-12750367D01*
X15681895Y-12740843D01*
X15710467Y-12740843D01*
X15729514Y-12750367D01*
X15805705Y-12950367D02*
X15815228Y-12940843D01*
X15834276Y-12912271D01*
X15843800Y-12893224D01*
X15853324Y-12864652D01*
X15862848Y-12817033D01*
X15862848Y-12778938D01*
X15853324Y-12731319D01*
X15843800Y-12702748D01*
X15834276Y-12683700D01*
X15815228Y-12655128D01*
X15805705Y-12645605D01*
X16167609Y-12950367D02*
X16158086Y-12940843D01*
X16139038Y-12912271D01*
X16129514Y-12893224D01*
X16119990Y-12864652D01*
X16110467Y-12817033D01*
X16110467Y-12778938D01*
X16119990Y-12731319D01*
X16129514Y-12702748D01*
X16139038Y-12683700D01*
X16158086Y-12655128D01*
X16167609Y-12645605D01*
X16243800Y-12740843D02*
X16243800Y-12874176D01*
X16243800Y-12759890D02*
X16253324Y-12750367D01*
X16272371Y-12740843D01*
X16300943Y-12740843D01*
X16319990Y-12750367D01*
X16329514Y-12769414D01*
X16329514Y-12874176D01*
X16453324Y-12874176D02*
X16434276Y-12864652D01*
X16424752Y-12855128D01*
X16415228Y-12836081D01*
X16415228Y-12778938D01*
X16424752Y-12759890D01*
X16434276Y-12750367D01*
X16453324Y-12740843D01*
X16481895Y-12740843D01*
X16500943Y-12750367D01*
X16510467Y-12759890D01*
X16519990Y-12778938D01*
X16519990Y-12836081D01*
X16510467Y-12855128D01*
X16500943Y-12864652D01*
X16481895Y-12874176D01*
X16453324Y-12874176D01*
X16577133Y-12740843D02*
X16653324Y-12740843D01*
X16605705Y-12674176D02*
X16605705Y-12845605D01*
X16615228Y-12864652D01*
X16634276Y-12874176D01*
X16653324Y-12874176D01*
X16872371Y-12740843D02*
X16872371Y-12940843D01*
X16872371Y-12750367D02*
X16891419Y-12740843D01*
X16929514Y-12740843D01*
X16948562Y-12750367D01*
X16958086Y-12759890D01*
X16967610Y-12778938D01*
X16967610Y-12836081D01*
X16958086Y-12855128D01*
X16948562Y-12864652D01*
X16929514Y-12874176D01*
X16891419Y-12874176D01*
X16872371Y-12864652D01*
X17081895Y-12874176D02*
X17062848Y-12864652D01*
X17053324Y-12845605D01*
X17053324Y-12674176D01*
X17243800Y-12874176D02*
X17243800Y-12769414D01*
X17234276Y-12750367D01*
X17215229Y-12740843D01*
X17177133Y-12740843D01*
X17158086Y-12750367D01*
X17243800Y-12864652D02*
X17224752Y-12874176D01*
X17177133Y-12874176D01*
X17158086Y-12864652D01*
X17148562Y-12845605D01*
X17148562Y-12826557D01*
X17158086Y-12807509D01*
X17177133Y-12797986D01*
X17224752Y-12797986D01*
X17243800Y-12788462D01*
X17310467Y-12740843D02*
X17386657Y-12740843D01*
X17339038Y-12674176D02*
X17339038Y-12845605D01*
X17348562Y-12864652D01*
X17367610Y-12874176D01*
X17386657Y-12874176D01*
X17529514Y-12864652D02*
X17510467Y-12874176D01*
X17472371Y-12874176D01*
X17453324Y-12864652D01*
X17443800Y-12845605D01*
X17443800Y-12769414D01*
X17453324Y-12750367D01*
X17472371Y-12740843D01*
X17510467Y-12740843D01*
X17529514Y-12750367D01*
X17539038Y-12769414D01*
X17539038Y-12788462D01*
X17443800Y-12807509D01*
X17710467Y-12874176D02*
X17710467Y-12674176D01*
X17710467Y-12864652D02*
X17691419Y-12874176D01*
X17653324Y-12874176D01*
X17634276Y-12864652D01*
X17624752Y-12855128D01*
X17615229Y-12836081D01*
X17615229Y-12778938D01*
X17624752Y-12759890D01*
X17634276Y-12750367D01*
X17653324Y-12740843D01*
X17691419Y-12740843D01*
X17710467Y-12750367D01*
X17786657Y-12950367D02*
X17796181Y-12940843D01*
X17815229Y-12912271D01*
X17824752Y-12893224D01*
X17834276Y-12864652D01*
X17843800Y-12817033D01*
X17843800Y-12778938D01*
X17834276Y-12731319D01*
X17824752Y-12702748D01*
X17815229Y-12683700D01*
X17796181Y-12655128D01*
X17786657Y-12645605D01*
M02*
