%FSLAX45Y45*%
G04 Gerber Fmt 4.5, Leading zero omitted, Abs format (unit mm)*
G04 Created by KiCad (PCBNEW (6.0.2-0)) date 2022-02-13 15:07:27*
%MOMM*%
%LPD*%
G01*
G04 APERTURE LIST*
%TA.AperFunction,Profile*%
%ADD10C,0.050000*%
%TD*%
%ADD11C,0.200000*%
%ADD12C,0.020000*%
%ADD13C,0.030000*%
%ADD14C,0.040000*%
%ADD15C,0.050000*%
%ADD16C,0.060000*%
%ADD17C,0.080000*%
%ADD18C,0.100000*%
%ADD19C,0.320000*%
G04 APERTURE END LIST*
D10*
X11379200Y-8915400D02*
X16510000Y-8915400D01*
X11036300Y-11798300D02*
X11036300Y-9258300D01*
X16510000Y-12141200D02*
X11379200Y-12141200D01*
X16852900Y-9258300D02*
X16852900Y-11798300D01*
X16852900Y-9258300D02*
G75*
G03*
X16510000Y-8915400I-342900J0D01*
G01*
X11379200Y-8915400D02*
G75*
G03*
X11036300Y-9258300I0J-342900D01*
G01*
X11036300Y-11798300D02*
G75*
G03*
X11379200Y-12141200I342900J0D01*
G01*
X16510000Y-12141200D02*
G75*
G03*
X16852900Y-11798300I0J342900D01*
G01*
D11*
D12*
X11745120Y-10383680D02*
X11765120Y-10403680D01*
X11765120Y-10383680D02*
X11745120Y-10403680D01*
X11770520Y-10739280D02*
X11790520Y-10759280D01*
X11790520Y-10739280D02*
X11770520Y-10759280D01*
X11928000Y-10602120D02*
X11948000Y-10622120D01*
X11948000Y-10602120D02*
X11928000Y-10622120D01*
X12512200Y-10429400D02*
X12532200Y-10449400D01*
X12532200Y-10429400D02*
X12512200Y-10449400D01*
X12756040Y-10581800D02*
X12776040Y-10601800D01*
X12776040Y-10581800D02*
X12756040Y-10601800D01*
X13004960Y-11028840D02*
X13024960Y-11048840D01*
X13024960Y-11028840D02*
X13004960Y-11048840D01*
X13071000Y-10391300D02*
X13091000Y-10411300D01*
X13091000Y-10391300D02*
X13071000Y-10411300D01*
X13101480Y-11033920D02*
X13121480Y-11053920D01*
X13121480Y-11033920D02*
X13101480Y-11053920D01*
X13213708Y-10529981D02*
X13233708Y-10549981D01*
X13233708Y-10529981D02*
X13213708Y-10549981D01*
X13283897Y-10569538D02*
X13303897Y-10589538D01*
X13303897Y-10569538D02*
X13283897Y-10589538D01*
X13363100Y-10658000D02*
X13383100Y-10678000D01*
X13383100Y-10658000D02*
X13363100Y-10678000D01*
X13631350Y-10986650D02*
X13651350Y-11006650D01*
X13651350Y-10986650D02*
X13631350Y-11006650D01*
X13706000Y-9451500D02*
X13726000Y-9471500D01*
X13726000Y-9451500D02*
X13706000Y-9471500D01*
X13706000Y-9845200D02*
X13726000Y-9865200D01*
X13726000Y-9845200D02*
X13706000Y-9865200D01*
X13731350Y-10988250D02*
X13751350Y-11008250D01*
X13751350Y-10988250D02*
X13731350Y-11008250D01*
X13782200Y-9845200D02*
X13802200Y-9865200D01*
X13802200Y-9845200D02*
X13782200Y-9865200D01*
X13877150Y-10155080D02*
X13897150Y-10175080D01*
X13897150Y-10155080D02*
X13877150Y-10175080D01*
X13934600Y-10287160D02*
X13954600Y-10307160D01*
X13954600Y-10287160D02*
X13934600Y-10307160D01*
X13972700Y-10683400D02*
X13992700Y-10703400D01*
X13992700Y-10683400D02*
X13972700Y-10703400D01*
X14112400Y-11293000D02*
X14132400Y-11313000D01*
X14132400Y-11293000D02*
X14112400Y-11313000D01*
X14125100Y-10175400D02*
X14145100Y-10195400D01*
X14145100Y-10175400D02*
X14125100Y-10195400D01*
X14302900Y-9413400D02*
X14322900Y-9433400D01*
X14322900Y-9413400D02*
X14302900Y-9433400D01*
X14346080Y-11414920D02*
X14366080Y-11434920D01*
X14366080Y-11414920D02*
X14346080Y-11434920D01*
X14468000Y-10569100D02*
X14488000Y-10589100D01*
X14488000Y-10569100D02*
X14468000Y-10589100D01*
X14506100Y-10357250D02*
X14526100Y-10377250D01*
X14526100Y-10357250D02*
X14506100Y-10377250D01*
X14569600Y-10569100D02*
X14589600Y-10589100D01*
X14589600Y-10569100D02*
X14569600Y-10589100D01*
X14607700Y-10111900D02*
X14627700Y-10131900D01*
X14627700Y-10111900D02*
X14607700Y-10131900D01*
X14639450Y-10334150D02*
X14659450Y-10354150D01*
X14659450Y-10334150D02*
X14639450Y-10354150D01*
X14658500Y-10607200D02*
X14678500Y-10627200D01*
X14678500Y-10607200D02*
X14658500Y-10627200D01*
X14696600Y-10200800D02*
X14716600Y-10220800D01*
X14716600Y-10200800D02*
X14696600Y-10220800D01*
X14772800Y-10658000D02*
X14792800Y-10678000D01*
X14792800Y-10658000D02*
X14772800Y-10678000D01*
X14849000Y-10162700D02*
X14869000Y-10182700D01*
X14869000Y-10162700D02*
X14849000Y-10182700D01*
X14925200Y-10658000D02*
X14945200Y-10678000D01*
X14945200Y-10658000D02*
X14925200Y-10678000D01*
X14955680Y-9728360D02*
X14975680Y-9748360D01*
X14975680Y-9728360D02*
X14955680Y-9748360D01*
X14963300Y-9845200D02*
X14983300Y-9865200D01*
X14983300Y-9845200D02*
X14963300Y-9865200D01*
X15006480Y-10825640D02*
X15026480Y-10845640D01*
X15026480Y-10825640D02*
X15006480Y-10845640D01*
X15039500Y-10162700D02*
X15059500Y-10182700D01*
X15059500Y-10162700D02*
X15039500Y-10182700D01*
X15115700Y-10658000D02*
X15135700Y-10678000D01*
X15135700Y-10658000D02*
X15115700Y-10678000D01*
X15179200Y-11013600D02*
X15199200Y-11033600D01*
X15199200Y-11013600D02*
X15179200Y-11033600D01*
X15242700Y-10162700D02*
X15262700Y-10182700D01*
X15262700Y-10162700D02*
X15242700Y-10182700D01*
X15285880Y-11704480D02*
X15305880Y-11724480D01*
X15305880Y-11704480D02*
X15285880Y-11724480D01*
X15293500Y-10658000D02*
X15313500Y-10678000D01*
X15313500Y-10658000D02*
X15293500Y-10678000D01*
X15341500Y-10073800D02*
X15361500Y-10093800D01*
X15361500Y-10073800D02*
X15341500Y-10093800D01*
X15357000Y-10277000D02*
X15377000Y-10297000D01*
X15377000Y-10277000D02*
X15357000Y-10297000D01*
X15382400Y-10600500D02*
X15402400Y-10620500D01*
X15402400Y-10600500D02*
X15382400Y-10620500D01*
X15433200Y-10162700D02*
X15453200Y-10182700D01*
X15453200Y-10162700D02*
X15433200Y-10182700D01*
X15433200Y-10658000D02*
X15453200Y-10678000D01*
X15453200Y-10658000D02*
X15433200Y-10678000D01*
X15572900Y-10289700D02*
X15592900Y-10309700D01*
X15592900Y-10289700D02*
X15572900Y-10309700D01*
X15572900Y-10429400D02*
X15592900Y-10449400D01*
X15592900Y-10429400D02*
X15572900Y-10449400D01*
X15572900Y-10556400D02*
X15592900Y-10576400D01*
X15592900Y-10556400D02*
X15572900Y-10576400D01*
X15600840Y-9601360D02*
X15620840Y-9621360D01*
X15620840Y-9601360D02*
X15600840Y-9621360D01*
X15798960Y-9464200D02*
X15818960Y-9484200D01*
X15818960Y-9464200D02*
X15798960Y-9484200D01*
X15798960Y-11465720D02*
X15818960Y-11485720D01*
X15818960Y-11465720D02*
X15798960Y-11485720D01*
X16088520Y-11242200D02*
X16108520Y-11262200D01*
X16108520Y-11242200D02*
X16088520Y-11262200D01*
X16174880Y-10454800D02*
X16194880Y-10474800D01*
X16194880Y-10454800D02*
X16174880Y-10474800D01*
D13*
X12219700Y-11353800D02*
G75*
G03*
X12219700Y-11353800I-15000J0D01*
G01*
X12245100Y-9715500D02*
G75*
G03*
X12245100Y-9715500I-15000J0D01*
G01*
X12575300Y-11607800D02*
G75*
G03*
X12575300Y-11607800I-15000J0D01*
G01*
X12981700Y-10642600D02*
G75*
G03*
X12981700Y-10642600I-15000J0D01*
G01*
X13121400Y-11417300D02*
G75*
G03*
X13121400Y-11417300I-15000J0D01*
G01*
X13464300Y-9512300D02*
G75*
G03*
X13464300Y-9512300I-15000J0D01*
G01*
X13692900Y-11734800D02*
G75*
G03*
X13692900Y-11734800I-15000J0D01*
G01*
X13705600Y-10172700D02*
G75*
G03*
X13705600Y-10172700I-15000J0D01*
G01*
X14531100Y-10083800D02*
G75*
G03*
X14531100Y-10083800I-15000J0D01*
G01*
X14531100Y-10287000D02*
G75*
G03*
X14531100Y-10287000I-15000J0D01*
G01*
D14*
X11480800Y-11283000D02*
X11480800Y-11323000D01*
X11460800Y-11303000D02*
X11500800Y-11303000D01*
X11633200Y-9771700D02*
X11633200Y-9811700D01*
X11613200Y-9791700D02*
X11653200Y-9791700D01*
X11772900Y-10228900D02*
X11772900Y-10268900D01*
X11752900Y-10248900D02*
X11792900Y-10248900D01*
X11798300Y-10990900D02*
X11798300Y-11030900D01*
X11778300Y-11010900D02*
X11818300Y-11010900D01*
X12014200Y-10254300D02*
X12014200Y-10294300D01*
X11994200Y-10274300D02*
X12034200Y-10274300D01*
X12052300Y-9987600D02*
X12052300Y-10027600D01*
X12032300Y-10007600D02*
X12072300Y-10007600D01*
X12153900Y-10254300D02*
X12153900Y-10294300D01*
X12133900Y-10274300D02*
X12173900Y-10274300D01*
X12306300Y-10876600D02*
X12306300Y-10916600D01*
X12286300Y-10896600D02*
X12326300Y-10896600D01*
X12484100Y-9847900D02*
X12484100Y-9887900D01*
X12464100Y-9867900D02*
X12504100Y-9867900D01*
X12725400Y-9847900D02*
X12725400Y-9887900D01*
X12705400Y-9867900D02*
X12745400Y-9867900D01*
X12915900Y-9305500D02*
X12915900Y-9345500D01*
X12895900Y-9325500D02*
X12935900Y-9325500D01*
X12966700Y-9835200D02*
X12966700Y-9875200D01*
X12946700Y-9855200D02*
X12986700Y-9855200D01*
X13042900Y-10292400D02*
X13042900Y-10332400D01*
X13022900Y-10312400D02*
X13062900Y-10312400D01*
X13093700Y-9606600D02*
X13093700Y-9646600D01*
X13073700Y-9626600D02*
X13113700Y-9626600D01*
X13157200Y-9797100D02*
X13157200Y-9837100D01*
X13137200Y-9817100D02*
X13177200Y-9817100D01*
X13182600Y-10736900D02*
X13182600Y-10776900D01*
X13162600Y-10756900D02*
X13202600Y-10756900D01*
X13220700Y-9695500D02*
X13220700Y-9735500D01*
X13200700Y-9715500D02*
X13240700Y-9715500D01*
X13423900Y-11079800D02*
X13423900Y-11119800D01*
X13403900Y-11099800D02*
X13443900Y-11099800D01*
X13423900Y-11498900D02*
X13423900Y-11538900D01*
X13403900Y-11518900D02*
X13443900Y-11518900D01*
X13614400Y-9708200D02*
X13614400Y-9748200D01*
X13594400Y-9728200D02*
X13634400Y-9728200D01*
X13690600Y-11575100D02*
X13690600Y-11615100D01*
X13670600Y-11595100D02*
X13710600Y-11595100D01*
X13868400Y-9378000D02*
X13868400Y-9418000D01*
X13848400Y-9398000D02*
X13888400Y-9398000D01*
X13893800Y-10419400D02*
X13893800Y-10459400D01*
X13873800Y-10439400D02*
X13913800Y-10439400D01*
X14147800Y-11003600D02*
X14147800Y-11043600D01*
X14127800Y-11023600D02*
X14167800Y-11023600D01*
X14465300Y-11194100D02*
X14465300Y-11234100D01*
X14445300Y-11214100D02*
X14485300Y-11214100D01*
X14478000Y-9632000D02*
X14478000Y-9672000D01*
X14458000Y-9652000D02*
X14498000Y-9652000D01*
X14490700Y-11016300D02*
X14490700Y-11056300D01*
X14470700Y-11036300D02*
X14510700Y-11036300D01*
X14655800Y-9632000D02*
X14655800Y-9672000D01*
X14635800Y-9652000D02*
X14675800Y-9652000D01*
X14795500Y-10863900D02*
X14795500Y-10903900D01*
X14775500Y-10883900D02*
X14815500Y-10883900D01*
X14833600Y-9632000D02*
X14833600Y-9672000D01*
X14813600Y-9652000D02*
X14853600Y-9652000D01*
X14986000Y-9987600D02*
X14986000Y-10027600D01*
X14966000Y-10007600D02*
X15006000Y-10007600D01*
X11520342Y-10264942D02*
X11520342Y-10236658D01*
X11492058Y-10236658D01*
X11492058Y-10264942D01*
X11520342Y-10264942D01*
X11520342Y-10349942D02*
X11520342Y-10321658D01*
X11492058Y-10321658D01*
X11492058Y-10349942D01*
X11520342Y-10349942D01*
X11520342Y-10434942D02*
X11520342Y-10406658D01*
X11492058Y-10406658D01*
X11492058Y-10434942D01*
X11520342Y-10434942D01*
X11520342Y-10519942D02*
X11520342Y-10491658D01*
X11492058Y-10491658D01*
X11492058Y-10519942D01*
X11520342Y-10519942D01*
X11520342Y-10604942D02*
X11520342Y-10576658D01*
X11492058Y-10576658D01*
X11492058Y-10604942D01*
X11520342Y-10604942D01*
X11520342Y-10689942D02*
X11520342Y-10661658D01*
X11492058Y-10661658D01*
X11492058Y-10689942D01*
X11520342Y-10689942D01*
X11520342Y-10774942D02*
X11520342Y-10746658D01*
X11492058Y-10746658D01*
X11492058Y-10774942D01*
X11520342Y-10774942D01*
X11520342Y-10859942D02*
X11520342Y-10831658D01*
X11492058Y-10831658D01*
X11492058Y-10859942D01*
X11520342Y-10859942D01*
X11655342Y-10264942D02*
X11655342Y-10236658D01*
X11627058Y-10236658D01*
X11627058Y-10264942D01*
X11655342Y-10264942D01*
X11655342Y-10349942D02*
X11655342Y-10321658D01*
X11627058Y-10321658D01*
X11627058Y-10349942D01*
X11655342Y-10349942D01*
X11655342Y-10434942D02*
X11655342Y-10406658D01*
X11627058Y-10406658D01*
X11627058Y-10434942D01*
X11655342Y-10434942D01*
X11655342Y-10519942D02*
X11655342Y-10491658D01*
X11627058Y-10491658D01*
X11627058Y-10519942D01*
X11655342Y-10519942D01*
X11655342Y-10604942D02*
X11655342Y-10576658D01*
X11627058Y-10576658D01*
X11627058Y-10604942D01*
X11655342Y-10604942D01*
X11655342Y-10689942D02*
X11655342Y-10661658D01*
X11627058Y-10661658D01*
X11627058Y-10689942D01*
X11655342Y-10689942D01*
X11655342Y-10774942D02*
X11655342Y-10746658D01*
X11627058Y-10746658D01*
X11627058Y-10774942D01*
X11655342Y-10774942D01*
X11655342Y-10859942D02*
X11655342Y-10831658D01*
X11627058Y-10831658D01*
X11627058Y-10859942D01*
X11655342Y-10859942D01*
D15*
X11177300Y-11785200D02*
X11202300Y-11760200D01*
X11177300Y-11735200D01*
X11152300Y-11760200D01*
X11177300Y-11785200D01*
X11247594Y-11615494D02*
X11272594Y-11590494D01*
X11247594Y-11565494D01*
X11222594Y-11590494D01*
X11247594Y-11615494D01*
X11247594Y-11954906D02*
X11272594Y-11929906D01*
X11247594Y-11904906D01*
X11222594Y-11929906D01*
X11247594Y-11954906D01*
X11417300Y-11545200D02*
X11442300Y-11520200D01*
X11417300Y-11495200D01*
X11392300Y-11520200D01*
X11417300Y-11545200D01*
X11417300Y-12025200D02*
X11442300Y-12000200D01*
X11417300Y-11975200D01*
X11392300Y-12000200D01*
X11417300Y-12025200D01*
X11587006Y-11615494D02*
X11612006Y-11590494D01*
X11587006Y-11565494D01*
X11562006Y-11590494D01*
X11587006Y-11615494D01*
X11587006Y-11954906D02*
X11612006Y-11929906D01*
X11587006Y-11904906D01*
X11562006Y-11929906D01*
X11587006Y-11954906D01*
X11657300Y-11785200D02*
X11682300Y-11760200D01*
X11657300Y-11735200D01*
X11632300Y-11760200D01*
X11657300Y-11785200D01*
X16231900Y-9321400D02*
X16256900Y-9296400D01*
X16231900Y-9271400D01*
X16206900Y-9296400D01*
X16231900Y-9321400D01*
X16231900Y-11785200D02*
X16256900Y-11760200D01*
X16231900Y-11735200D01*
X16206900Y-11760200D01*
X16231900Y-11785200D01*
X16302194Y-9151694D02*
X16327194Y-9126694D01*
X16302194Y-9101694D01*
X16277194Y-9126694D01*
X16302194Y-9151694D01*
X16302194Y-9491106D02*
X16327194Y-9466106D01*
X16302194Y-9441106D01*
X16277194Y-9466106D01*
X16302194Y-9491106D01*
X16302194Y-11615494D02*
X16327194Y-11590494D01*
X16302194Y-11565494D01*
X16277194Y-11590494D01*
X16302194Y-11615494D01*
X16302194Y-11954906D02*
X16327194Y-11929906D01*
X16302194Y-11904906D01*
X16277194Y-11929906D01*
X16302194Y-11954906D01*
X16471900Y-9081400D02*
X16496900Y-9056400D01*
X16471900Y-9031400D01*
X16446900Y-9056400D01*
X16471900Y-9081400D01*
X16471900Y-9561400D02*
X16496900Y-9536400D01*
X16471900Y-9511400D01*
X16446900Y-9536400D01*
X16471900Y-9561400D01*
X16471900Y-11545200D02*
X16496900Y-11520200D01*
X16471900Y-11495200D01*
X16446900Y-11520200D01*
X16471900Y-11545200D01*
X16471900Y-12025200D02*
X16496900Y-12000200D01*
X16471900Y-11975200D01*
X16446900Y-12000200D01*
X16471900Y-12025200D01*
X16641606Y-9151694D02*
X16666606Y-9126694D01*
X16641606Y-9101694D01*
X16616606Y-9126694D01*
X16641606Y-9151694D01*
X16641606Y-9491106D02*
X16666606Y-9466106D01*
X16641606Y-9441106D01*
X16616606Y-9466106D01*
X16641606Y-9491106D01*
X16641606Y-11615494D02*
X16666606Y-11590494D01*
X16641606Y-11565494D01*
X16616606Y-11590494D01*
X16641606Y-11615494D01*
X16641606Y-11954906D02*
X16666606Y-11929906D01*
X16641606Y-11904906D01*
X16616606Y-11929906D01*
X16641606Y-11954906D01*
X16711900Y-9321400D02*
X16736900Y-9296400D01*
X16711900Y-9271400D01*
X16686900Y-9296400D01*
X16711900Y-9321400D01*
X16711900Y-11785200D02*
X16736900Y-11760200D01*
X16711900Y-11735200D01*
X16686900Y-11760200D01*
X16711900Y-11785200D01*
D16*
X11175200Y-10085800D02*
X11235200Y-10145800D01*
X11235200Y-10085800D02*
X11175200Y-10145800D01*
X11235200Y-10115800D02*
G75*
G03*
X11235200Y-10115800I-30000J0D01*
G01*
D11*
X11165200Y-10135800D02*
X11245200Y-10135800D01*
X11165200Y-10095800D02*
X11245200Y-10095800D01*
X11245200Y-10135800D02*
G75*
G03*
X11245200Y-10095800I0J20000D01*
G01*
X11165200Y-10095800D02*
G75*
G03*
X11165200Y-10135800I0J-20000D01*
G01*
D16*
X11175200Y-10950800D02*
X11235200Y-11010800D01*
X11235200Y-10950800D02*
X11175200Y-11010800D01*
X11235200Y-10980800D02*
G75*
G03*
X11235200Y-10980800I-30000J0D01*
G01*
D11*
X11165200Y-11000800D02*
X11245200Y-11000800D01*
X11165200Y-10960800D02*
X11245200Y-10960800D01*
X11245200Y-11000800D02*
G75*
G03*
X11245200Y-10960800I0J20000D01*
G01*
X11165200Y-10960800D02*
G75*
G03*
X11165200Y-11000800I0J-20000D01*
G01*
D16*
X11513200Y-10085800D02*
X11573200Y-10145800D01*
X11573200Y-10085800D02*
X11513200Y-10145800D01*
X11573200Y-10115800D02*
G75*
G03*
X11573200Y-10115800I-30000J0D01*
G01*
D11*
X11468200Y-10135800D02*
X11618200Y-10135800D01*
X11468200Y-10095800D02*
X11618200Y-10095800D01*
X11618200Y-10135800D02*
G75*
G03*
X11618200Y-10095800I0J20000D01*
G01*
X11468200Y-10095800D02*
G75*
G03*
X11468200Y-10135800I0J-20000D01*
G01*
D16*
X11513200Y-10950800D02*
X11573200Y-11010800D01*
X11573200Y-10950800D02*
X11513200Y-11010800D01*
X11573200Y-10980800D02*
G75*
G03*
X11573200Y-10980800I-30000J0D01*
G01*
D11*
X11468200Y-11000800D02*
X11618200Y-11000800D01*
X11468200Y-10960800D02*
X11618200Y-10960800D01*
X11618200Y-11000800D02*
G75*
G03*
X11618200Y-10960800I0J20000D01*
G01*
X11468200Y-10960800D02*
G75*
G03*
X11468200Y-11000800I0J-20000D01*
G01*
D17*
X15964920Y-9980300D02*
X16044920Y-10060300D01*
X16044920Y-9980300D02*
X15964920Y-10060300D01*
X16004920Y-9980300D02*
X16004920Y-10060300D01*
X15964920Y-10020300D02*
X16044920Y-10020300D01*
D11*
X16039920Y-9990300D02*
X15969920Y-9990300D01*
X16039920Y-10050300D02*
X15969920Y-10050300D01*
X15969920Y-9990300D02*
G75*
G03*
X15969920Y-10050300I0J-30000D01*
G01*
X16039920Y-10050300D02*
G75*
G03*
X16039920Y-9990300I0J30000D01*
G01*
D17*
X15964920Y-10980300D02*
X16044920Y-11060300D01*
X16044920Y-10980300D02*
X15964920Y-11060300D01*
X16004920Y-10980300D02*
X16004920Y-11060300D01*
X15964920Y-11020300D02*
X16044920Y-11020300D01*
D11*
X16039920Y-10990300D02*
X15969920Y-10990300D01*
X16039920Y-11050300D02*
X15969920Y-11050300D01*
X15969920Y-10990300D02*
G75*
G03*
X15969920Y-11050300I0J-30000D01*
G01*
X16039920Y-11050300D02*
G75*
G03*
X16039920Y-10990300I0J30000D01*
G01*
D17*
X16464920Y-10480300D02*
X16544920Y-10560300D01*
X16544920Y-10480300D02*
X16464920Y-10560300D01*
X16504920Y-10480300D02*
X16504920Y-10560300D01*
X16464920Y-10520300D02*
X16544920Y-10520300D01*
D11*
X16534920Y-10555300D02*
X16534920Y-10485300D01*
X16474920Y-10555300D02*
X16474920Y-10485300D01*
X16534920Y-10485300D02*
G75*
G03*
X16474920Y-10485300I-30000J0D01*
G01*
X16474920Y-10555300D02*
G75*
G03*
X16534920Y-10555300I30000J0D01*
G01*
D18*
X11166640Y-9261640D02*
X11266640Y-9361640D01*
X11266640Y-9261640D02*
X11166640Y-9361640D01*
X11251996Y-9346996D02*
X11251996Y-9276284D01*
X11181284Y-9276284D01*
X11181284Y-9346996D01*
X11251996Y-9346996D01*
X11166640Y-9515640D02*
X11266640Y-9615640D01*
X11266640Y-9515640D02*
X11166640Y-9615640D01*
X11251996Y-9600996D02*
X11251996Y-9530284D01*
X11181284Y-9530284D01*
X11181284Y-9600996D01*
X11251996Y-9600996D01*
X13335800Y-9068600D02*
X13435800Y-9168600D01*
X13435800Y-9068600D02*
X13335800Y-9168600D01*
X13421156Y-9153956D02*
X13421156Y-9083244D01*
X13350444Y-9083244D01*
X13350444Y-9153956D01*
X13421156Y-9153956D01*
X13589800Y-9068600D02*
X13689800Y-9168600D01*
X13689800Y-9068600D02*
X13589800Y-9168600D01*
X13675156Y-9153956D02*
X13675156Y-9083244D01*
X13604444Y-9083244D01*
X13604444Y-9153956D01*
X13675156Y-9153956D01*
X13653300Y-11913400D02*
X13753300Y-12013400D01*
X13753300Y-11913400D02*
X13653300Y-12013400D01*
X13738656Y-11998756D02*
X13738656Y-11928044D01*
X13667944Y-11928044D01*
X13667944Y-11998756D01*
X13738656Y-11998756D01*
X13843800Y-9068600D02*
X13943800Y-9168600D01*
X13943800Y-9068600D02*
X13843800Y-9168600D01*
X13929156Y-9153956D02*
X13929156Y-9083244D01*
X13858444Y-9083244D01*
X13858444Y-9153956D01*
X13929156Y-9153956D01*
X13907300Y-11913400D02*
X14007300Y-12013400D01*
X14007300Y-11913400D02*
X13907300Y-12013400D01*
X13992656Y-11998756D02*
X13992656Y-11928044D01*
X13921944Y-11928044D01*
X13921944Y-11998756D01*
X13992656Y-11998756D01*
X14097800Y-9068600D02*
X14197800Y-9168600D01*
X14197800Y-9068600D02*
X14097800Y-9168600D01*
X14183156Y-9153956D02*
X14183156Y-9083244D01*
X14112444Y-9083244D01*
X14112444Y-9153956D01*
X14183156Y-9153956D01*
X14161300Y-11913400D02*
X14261300Y-12013400D01*
X14261300Y-11913400D02*
X14161300Y-12013400D01*
X14246656Y-11998756D02*
X14246656Y-11928044D01*
X14175944Y-11928044D01*
X14175944Y-11998756D01*
X14246656Y-11998756D01*
X14415300Y-11913400D02*
X14515300Y-12013400D01*
X14515300Y-11913400D02*
X14415300Y-12013400D01*
X14500656Y-11998756D02*
X14500656Y-11928044D01*
X14429944Y-11928044D01*
X14429944Y-11998756D01*
X14500656Y-11998756D01*
X14669300Y-11913400D02*
X14769300Y-12013400D01*
X14769300Y-11913400D02*
X14669300Y-12013400D01*
X14754656Y-11998756D02*
X14754656Y-11928044D01*
X14683944Y-11928044D01*
X14683944Y-11998756D01*
X14754656Y-11998756D01*
X14923300Y-11913400D02*
X15023300Y-12013400D01*
X15023300Y-11913400D02*
X14923300Y-12013400D01*
X15008656Y-11998756D02*
X15008656Y-11928044D01*
X14937944Y-11928044D01*
X14937944Y-11998756D01*
X15008656Y-11998756D01*
X15456700Y-9106700D02*
X15556700Y-9206700D01*
X15556700Y-9106700D02*
X15456700Y-9206700D01*
X15542056Y-9192056D02*
X15542056Y-9121344D01*
X15471344Y-9121344D01*
X15471344Y-9192056D01*
X15542056Y-9192056D01*
X15710700Y-9106700D02*
X15810700Y-9206700D01*
X15810700Y-9106700D02*
X15710700Y-9206700D01*
X15796056Y-9192056D02*
X15796056Y-9121344D01*
X15725344Y-9121344D01*
X15725344Y-9192056D01*
X15796056Y-9192056D01*
D19*
X11257300Y-11600200D02*
X11577300Y-11920200D01*
X11577300Y-11600200D02*
X11257300Y-11920200D01*
X11417300Y-11920200D02*
X11577300Y-11760200D01*
X11417300Y-11600200D01*
X11257300Y-11760200D01*
X11417300Y-11920200D01*
X16311900Y-9136400D02*
X16631900Y-9456400D01*
X16631900Y-9136400D02*
X16311900Y-9456400D01*
X16471900Y-9456400D02*
X16631900Y-9296400D01*
X16471900Y-9136400D01*
X16311900Y-9296400D01*
X16471900Y-9456400D01*
X16311900Y-11600200D02*
X16631900Y-11920200D01*
X16631900Y-11600200D02*
X16311900Y-11920200D01*
X16471900Y-11920200D02*
X16631900Y-11760200D01*
X16471900Y-11600200D01*
X16311900Y-11760200D01*
X16471900Y-11920200D01*
D11*
X11291419Y-12454176D02*
X11291419Y-12254176D01*
X11339038Y-12254176D01*
X11367609Y-12263700D01*
X11386657Y-12282748D01*
X11396181Y-12301795D01*
X11405705Y-12339890D01*
X11405705Y-12368462D01*
X11396181Y-12406557D01*
X11386657Y-12425605D01*
X11367609Y-12444652D01*
X11339038Y-12454176D01*
X11291419Y-12454176D01*
X11491419Y-12454176D02*
X11491419Y-12320843D01*
X11491419Y-12358938D02*
X11500943Y-12339890D01*
X11510467Y-12330367D01*
X11529514Y-12320843D01*
X11548562Y-12320843D01*
X11615228Y-12454176D02*
X11615228Y-12320843D01*
X11615228Y-12254176D02*
X11605705Y-12263700D01*
X11615228Y-12273224D01*
X11624752Y-12263700D01*
X11615228Y-12254176D01*
X11615228Y-12273224D01*
X11739038Y-12454176D02*
X11719990Y-12444652D01*
X11710467Y-12425605D01*
X11710467Y-12254176D01*
X11843800Y-12454176D02*
X11824752Y-12444652D01*
X11815228Y-12425605D01*
X11815228Y-12254176D01*
X12072371Y-12454176D02*
X12072371Y-12254176D01*
X12139038Y-12397033D01*
X12205705Y-12254176D01*
X12205705Y-12454176D01*
X12386657Y-12454176D02*
X12386657Y-12349414D01*
X12377133Y-12330367D01*
X12358086Y-12320843D01*
X12319990Y-12320843D01*
X12300943Y-12330367D01*
X12386657Y-12444652D02*
X12367609Y-12454176D01*
X12319990Y-12454176D01*
X12300943Y-12444652D01*
X12291419Y-12425605D01*
X12291419Y-12406557D01*
X12300943Y-12387509D01*
X12319990Y-12377986D01*
X12367609Y-12377986D01*
X12386657Y-12368462D01*
X12481895Y-12320843D02*
X12481895Y-12520843D01*
X12481895Y-12330367D02*
X12500943Y-12320843D01*
X12539038Y-12320843D01*
X12558086Y-12330367D01*
X12567609Y-12339890D01*
X12577133Y-12358938D01*
X12577133Y-12416081D01*
X12567609Y-12435128D01*
X12558086Y-12444652D01*
X12539038Y-12454176D01*
X12500943Y-12454176D01*
X12481895Y-12444652D01*
X12662848Y-12435128D02*
X12672371Y-12444652D01*
X12662848Y-12454176D01*
X12653324Y-12444652D01*
X12662848Y-12435128D01*
X12662848Y-12454176D01*
X12662848Y-12330367D02*
X12672371Y-12339890D01*
X12662848Y-12349414D01*
X12653324Y-12339890D01*
X12662848Y-12330367D01*
X12662848Y-12349414D01*
D12*
X11013800Y-12773700D02*
X11033800Y-12793700D01*
X11033800Y-12773700D02*
X11013800Y-12793700D01*
D11*
X11329514Y-12674176D02*
X11348562Y-12674176D01*
X11367609Y-12683700D01*
X11377133Y-12693224D01*
X11386657Y-12712271D01*
X11396181Y-12750367D01*
X11396181Y-12797986D01*
X11386657Y-12836081D01*
X11377133Y-12855128D01*
X11367609Y-12864652D01*
X11348562Y-12874176D01*
X11329514Y-12874176D01*
X11310467Y-12864652D01*
X11300943Y-12855128D01*
X11291419Y-12836081D01*
X11281895Y-12797986D01*
X11281895Y-12750367D01*
X11291419Y-12712271D01*
X11300943Y-12693224D01*
X11310467Y-12683700D01*
X11329514Y-12674176D01*
X11481895Y-12855128D02*
X11491419Y-12864652D01*
X11481895Y-12874176D01*
X11472371Y-12864652D01*
X11481895Y-12855128D01*
X11481895Y-12874176D01*
X11567609Y-12693224D02*
X11577133Y-12683700D01*
X11596181Y-12674176D01*
X11643800Y-12674176D01*
X11662848Y-12683700D01*
X11672371Y-12693224D01*
X11681895Y-12712271D01*
X11681895Y-12731319D01*
X11672371Y-12759890D01*
X11558086Y-12874176D01*
X11681895Y-12874176D01*
X11805705Y-12674176D02*
X11824752Y-12674176D01*
X11843800Y-12683700D01*
X11853324Y-12693224D01*
X11862848Y-12712271D01*
X11872371Y-12750367D01*
X11872371Y-12797986D01*
X11862848Y-12836081D01*
X11853324Y-12855128D01*
X11843800Y-12864652D01*
X11824752Y-12874176D01*
X11805705Y-12874176D01*
X11786657Y-12864652D01*
X11777133Y-12855128D01*
X11767609Y-12836081D01*
X11758086Y-12797986D01*
X11758086Y-12750367D01*
X11767609Y-12712271D01*
X11777133Y-12693224D01*
X11786657Y-12683700D01*
X11805705Y-12674176D01*
X11996181Y-12674176D02*
X12015228Y-12674176D01*
X12034276Y-12683700D01*
X12043800Y-12693224D01*
X12053324Y-12712271D01*
X12062848Y-12750367D01*
X12062848Y-12797986D01*
X12053324Y-12836081D01*
X12043800Y-12855128D01*
X12034276Y-12864652D01*
X12015228Y-12874176D01*
X11996181Y-12874176D01*
X11977133Y-12864652D01*
X11967609Y-12855128D01*
X11958086Y-12836081D01*
X11948562Y-12797986D01*
X11948562Y-12750367D01*
X11958086Y-12712271D01*
X11967609Y-12693224D01*
X11977133Y-12683700D01*
X11996181Y-12674176D01*
X12148562Y-12874176D02*
X12148562Y-12740843D01*
X12148562Y-12759890D02*
X12158086Y-12750367D01*
X12177133Y-12740843D01*
X12205705Y-12740843D01*
X12224752Y-12750367D01*
X12234276Y-12769414D01*
X12234276Y-12874176D01*
X12234276Y-12769414D02*
X12243800Y-12750367D01*
X12262848Y-12740843D01*
X12291419Y-12740843D01*
X12310467Y-12750367D01*
X12319990Y-12769414D01*
X12319990Y-12874176D01*
X12415228Y-12874176D02*
X12415228Y-12740843D01*
X12415228Y-12759890D02*
X12424752Y-12750367D01*
X12443800Y-12740843D01*
X12472371Y-12740843D01*
X12491419Y-12750367D01*
X12500943Y-12769414D01*
X12500943Y-12874176D01*
X12500943Y-12769414D02*
X12510467Y-12750367D01*
X12529514Y-12740843D01*
X12558086Y-12740843D01*
X12577133Y-12750367D01*
X12586657Y-12769414D01*
X12586657Y-12874176D01*
X12977133Y-12664652D02*
X12805705Y-12921795D01*
X13234276Y-12674176D02*
X13253324Y-12674176D01*
X13272371Y-12683700D01*
X13281895Y-12693224D01*
X13291419Y-12712271D01*
X13300943Y-12750367D01*
X13300943Y-12797986D01*
X13291419Y-12836081D01*
X13281895Y-12855128D01*
X13272371Y-12864652D01*
X13253324Y-12874176D01*
X13234276Y-12874176D01*
X13215228Y-12864652D01*
X13205705Y-12855128D01*
X13196181Y-12836081D01*
X13186657Y-12797986D01*
X13186657Y-12750367D01*
X13196181Y-12712271D01*
X13205705Y-12693224D01*
X13215228Y-12683700D01*
X13234276Y-12674176D01*
X13386657Y-12855128D02*
X13396181Y-12864652D01*
X13386657Y-12874176D01*
X13377133Y-12864652D01*
X13386657Y-12855128D01*
X13386657Y-12874176D01*
X13519990Y-12674176D02*
X13539038Y-12674176D01*
X13558086Y-12683700D01*
X13567609Y-12693224D01*
X13577133Y-12712271D01*
X13586657Y-12750367D01*
X13586657Y-12797986D01*
X13577133Y-12836081D01*
X13567609Y-12855128D01*
X13558086Y-12864652D01*
X13539038Y-12874176D01*
X13519990Y-12874176D01*
X13500943Y-12864652D01*
X13491419Y-12855128D01*
X13481895Y-12836081D01*
X13472371Y-12797986D01*
X13472371Y-12750367D01*
X13481895Y-12712271D01*
X13491419Y-12693224D01*
X13500943Y-12683700D01*
X13519990Y-12674176D01*
X13710467Y-12674176D02*
X13729514Y-12674176D01*
X13748562Y-12683700D01*
X13758086Y-12693224D01*
X13767609Y-12712271D01*
X13777133Y-12750367D01*
X13777133Y-12797986D01*
X13767609Y-12836081D01*
X13758086Y-12855128D01*
X13748562Y-12864652D01*
X13729514Y-12874176D01*
X13710467Y-12874176D01*
X13691419Y-12864652D01*
X13681895Y-12855128D01*
X13672371Y-12836081D01*
X13662848Y-12797986D01*
X13662848Y-12750367D01*
X13672371Y-12712271D01*
X13681895Y-12693224D01*
X13691419Y-12683700D01*
X13710467Y-12674176D01*
X13843800Y-12674176D02*
X13977133Y-12674176D01*
X13891419Y-12874176D01*
X14062848Y-12874176D02*
X14100943Y-12874176D01*
X14119990Y-12864652D01*
X14129514Y-12855128D01*
X14148562Y-12826557D01*
X14158086Y-12788462D01*
X14158086Y-12712271D01*
X14148562Y-12693224D01*
X14139038Y-12683700D01*
X14119990Y-12674176D01*
X14081895Y-12674176D01*
X14062848Y-12683700D01*
X14053324Y-12693224D01*
X14043800Y-12712271D01*
X14043800Y-12759890D01*
X14053324Y-12778938D01*
X14062848Y-12788462D01*
X14081895Y-12797986D01*
X14119990Y-12797986D01*
X14139038Y-12788462D01*
X14148562Y-12778938D01*
X14158086Y-12759890D01*
X14234276Y-12674176D02*
X14234276Y-12712271D01*
X14310467Y-12674176D02*
X14310467Y-12712271D01*
X14605705Y-12950367D02*
X14596181Y-12940843D01*
X14577133Y-12912271D01*
X14567609Y-12893224D01*
X14558086Y-12864652D01*
X14548562Y-12817033D01*
X14548562Y-12778938D01*
X14558086Y-12731319D01*
X14567609Y-12702748D01*
X14577133Y-12683700D01*
X14596181Y-12655128D01*
X14605705Y-12645605D01*
X14777133Y-12674176D02*
X14681895Y-12674176D01*
X14672371Y-12769414D01*
X14681895Y-12759890D01*
X14700943Y-12750367D01*
X14748562Y-12750367D01*
X14767609Y-12759890D01*
X14777133Y-12769414D01*
X14786657Y-12788462D01*
X14786657Y-12836081D01*
X14777133Y-12855128D01*
X14767609Y-12864652D01*
X14748562Y-12874176D01*
X14700943Y-12874176D01*
X14681895Y-12864652D01*
X14672371Y-12855128D01*
X14967609Y-12674176D02*
X14872371Y-12674176D01*
X14862848Y-12769414D01*
X14872371Y-12759890D01*
X14891419Y-12750367D01*
X14939038Y-12750367D01*
X14958086Y-12759890D01*
X14967609Y-12769414D01*
X14977133Y-12788462D01*
X14977133Y-12836081D01*
X14967609Y-12855128D01*
X14958086Y-12864652D01*
X14939038Y-12874176D01*
X14891419Y-12874176D01*
X14872371Y-12864652D01*
X14862848Y-12855128D01*
X15215228Y-12874176D02*
X15215228Y-12674176D01*
X15300943Y-12874176D02*
X15300943Y-12769414D01*
X15291419Y-12750367D01*
X15272371Y-12740843D01*
X15243800Y-12740843D01*
X15224752Y-12750367D01*
X15215228Y-12759890D01*
X15424752Y-12874176D02*
X15405705Y-12864652D01*
X15396181Y-12855128D01*
X15386657Y-12836081D01*
X15386657Y-12778938D01*
X15396181Y-12759890D01*
X15405705Y-12750367D01*
X15424752Y-12740843D01*
X15453324Y-12740843D01*
X15472371Y-12750367D01*
X15481895Y-12759890D01*
X15491419Y-12778938D01*
X15491419Y-12836081D01*
X15481895Y-12855128D01*
X15472371Y-12864652D01*
X15453324Y-12874176D01*
X15424752Y-12874176D01*
X15605705Y-12874176D02*
X15586657Y-12864652D01*
X15577133Y-12845605D01*
X15577133Y-12674176D01*
X15758086Y-12864652D02*
X15739038Y-12874176D01*
X15700943Y-12874176D01*
X15681895Y-12864652D01*
X15672371Y-12845605D01*
X15672371Y-12769414D01*
X15681895Y-12750367D01*
X15700943Y-12740843D01*
X15739038Y-12740843D01*
X15758086Y-12750367D01*
X15767609Y-12769414D01*
X15767609Y-12788462D01*
X15672371Y-12807509D01*
X15843800Y-12864652D02*
X15862848Y-12874176D01*
X15900943Y-12874176D01*
X15919990Y-12864652D01*
X15929514Y-12845605D01*
X15929514Y-12836081D01*
X15919990Y-12817033D01*
X15900943Y-12807509D01*
X15872371Y-12807509D01*
X15853324Y-12797986D01*
X15843800Y-12778938D01*
X15843800Y-12769414D01*
X15853324Y-12750367D01*
X15872371Y-12740843D01*
X15900943Y-12740843D01*
X15919990Y-12750367D01*
X15996181Y-12950367D02*
X16005705Y-12940843D01*
X16024752Y-12912271D01*
X16034276Y-12893224D01*
X16043800Y-12864652D01*
X16053324Y-12817033D01*
X16053324Y-12778938D01*
X16043800Y-12731319D01*
X16034276Y-12702748D01*
X16024752Y-12683700D01*
X16005705Y-12655128D01*
X15996181Y-12645605D01*
D13*
X11033800Y-13047700D02*
G75*
G03*
X11033800Y-13047700I-15000J0D01*
G01*
D11*
X11329514Y-12938176D02*
X11348562Y-12938176D01*
X11367609Y-12947700D01*
X11377133Y-12957224D01*
X11386657Y-12976271D01*
X11396181Y-13014367D01*
X11396181Y-13061986D01*
X11386657Y-13100081D01*
X11377133Y-13119128D01*
X11367609Y-13128652D01*
X11348562Y-13138176D01*
X11329514Y-13138176D01*
X11310467Y-13128652D01*
X11300943Y-13119128D01*
X11291419Y-13100081D01*
X11281895Y-13061986D01*
X11281895Y-13014367D01*
X11291419Y-12976271D01*
X11300943Y-12957224D01*
X11310467Y-12947700D01*
X11329514Y-12938176D01*
X11481895Y-13119128D02*
X11491419Y-13128652D01*
X11481895Y-13138176D01*
X11472371Y-13128652D01*
X11481895Y-13119128D01*
X11481895Y-13138176D01*
X11558086Y-12938176D02*
X11681895Y-12938176D01*
X11615228Y-13014367D01*
X11643800Y-13014367D01*
X11662848Y-13023890D01*
X11672371Y-13033414D01*
X11681895Y-13052462D01*
X11681895Y-13100081D01*
X11672371Y-13119128D01*
X11662848Y-13128652D01*
X11643800Y-13138176D01*
X11586657Y-13138176D01*
X11567609Y-13128652D01*
X11558086Y-13119128D01*
X11805705Y-12938176D02*
X11824752Y-12938176D01*
X11843800Y-12947700D01*
X11853324Y-12957224D01*
X11862848Y-12976271D01*
X11872371Y-13014367D01*
X11872371Y-13061986D01*
X11862848Y-13100081D01*
X11853324Y-13119128D01*
X11843800Y-13128652D01*
X11824752Y-13138176D01*
X11805705Y-13138176D01*
X11786657Y-13128652D01*
X11777133Y-13119128D01*
X11767609Y-13100081D01*
X11758086Y-13061986D01*
X11758086Y-13014367D01*
X11767609Y-12976271D01*
X11777133Y-12957224D01*
X11786657Y-12947700D01*
X11805705Y-12938176D01*
X11996181Y-12938176D02*
X12015228Y-12938176D01*
X12034276Y-12947700D01*
X12043800Y-12957224D01*
X12053324Y-12976271D01*
X12062848Y-13014367D01*
X12062848Y-13061986D01*
X12053324Y-13100081D01*
X12043800Y-13119128D01*
X12034276Y-13128652D01*
X12015228Y-13138176D01*
X11996181Y-13138176D01*
X11977133Y-13128652D01*
X11967609Y-13119128D01*
X11958086Y-13100081D01*
X11948562Y-13061986D01*
X11948562Y-13014367D01*
X11958086Y-12976271D01*
X11967609Y-12957224D01*
X11977133Y-12947700D01*
X11996181Y-12938176D01*
X12148562Y-13138176D02*
X12148562Y-13004843D01*
X12148562Y-13023890D02*
X12158086Y-13014367D01*
X12177133Y-13004843D01*
X12205705Y-13004843D01*
X12224752Y-13014367D01*
X12234276Y-13033414D01*
X12234276Y-13138176D01*
X12234276Y-13033414D02*
X12243800Y-13014367D01*
X12262848Y-13004843D01*
X12291419Y-13004843D01*
X12310467Y-13014367D01*
X12319990Y-13033414D01*
X12319990Y-13138176D01*
X12415228Y-13138176D02*
X12415228Y-13004843D01*
X12415228Y-13023890D02*
X12424752Y-13014367D01*
X12443800Y-13004843D01*
X12472371Y-13004843D01*
X12491419Y-13014367D01*
X12500943Y-13033414D01*
X12500943Y-13138176D01*
X12500943Y-13033414D02*
X12510467Y-13014367D01*
X12529514Y-13004843D01*
X12558086Y-13004843D01*
X12577133Y-13014367D01*
X12586657Y-13033414D01*
X12586657Y-13138176D01*
X12977133Y-12928652D02*
X12805705Y-13185795D01*
X13234276Y-12938176D02*
X13253324Y-12938176D01*
X13272371Y-12947700D01*
X13281895Y-12957224D01*
X13291419Y-12976271D01*
X13300943Y-13014367D01*
X13300943Y-13061986D01*
X13291419Y-13100081D01*
X13281895Y-13119128D01*
X13272371Y-13128652D01*
X13253324Y-13138176D01*
X13234276Y-13138176D01*
X13215228Y-13128652D01*
X13205705Y-13119128D01*
X13196181Y-13100081D01*
X13186657Y-13061986D01*
X13186657Y-13014367D01*
X13196181Y-12976271D01*
X13205705Y-12957224D01*
X13215228Y-12947700D01*
X13234276Y-12938176D01*
X13386657Y-13119128D02*
X13396181Y-13128652D01*
X13386657Y-13138176D01*
X13377133Y-13128652D01*
X13386657Y-13119128D01*
X13386657Y-13138176D01*
X13519990Y-12938176D02*
X13539038Y-12938176D01*
X13558086Y-12947700D01*
X13567609Y-12957224D01*
X13577133Y-12976271D01*
X13586657Y-13014367D01*
X13586657Y-13061986D01*
X13577133Y-13100081D01*
X13567609Y-13119128D01*
X13558086Y-13128652D01*
X13539038Y-13138176D01*
X13519990Y-13138176D01*
X13500943Y-13128652D01*
X13491419Y-13119128D01*
X13481895Y-13100081D01*
X13472371Y-13061986D01*
X13472371Y-13014367D01*
X13481895Y-12976271D01*
X13491419Y-12957224D01*
X13500943Y-12947700D01*
X13519990Y-12938176D01*
X13777133Y-13138176D02*
X13662848Y-13138176D01*
X13719990Y-13138176D02*
X13719990Y-12938176D01*
X13700943Y-12966748D01*
X13681895Y-12985795D01*
X13662848Y-12995319D01*
X13967609Y-13138176D02*
X13853324Y-13138176D01*
X13910467Y-13138176D02*
X13910467Y-12938176D01*
X13891419Y-12966748D01*
X13872371Y-12985795D01*
X13853324Y-12995319D01*
X14081895Y-13023890D02*
X14062848Y-13014367D01*
X14053324Y-13004843D01*
X14043800Y-12985795D01*
X14043800Y-12976271D01*
X14053324Y-12957224D01*
X14062848Y-12947700D01*
X14081895Y-12938176D01*
X14119990Y-12938176D01*
X14139038Y-12947700D01*
X14148562Y-12957224D01*
X14158086Y-12976271D01*
X14158086Y-12985795D01*
X14148562Y-13004843D01*
X14139038Y-13014367D01*
X14119990Y-13023890D01*
X14081895Y-13023890D01*
X14062848Y-13033414D01*
X14053324Y-13042938D01*
X14043800Y-13061986D01*
X14043800Y-13100081D01*
X14053324Y-13119128D01*
X14062848Y-13128652D01*
X14081895Y-13138176D01*
X14119990Y-13138176D01*
X14139038Y-13128652D01*
X14148562Y-13119128D01*
X14158086Y-13100081D01*
X14158086Y-13061986D01*
X14148562Y-13042938D01*
X14139038Y-13033414D01*
X14119990Y-13023890D01*
X14234276Y-12938176D02*
X14234276Y-12976271D01*
X14310467Y-12938176D02*
X14310467Y-12976271D01*
X14605705Y-13214367D02*
X14596181Y-13204843D01*
X14577133Y-13176271D01*
X14567609Y-13157224D01*
X14558086Y-13128652D01*
X14548562Y-13081033D01*
X14548562Y-13042938D01*
X14558086Y-12995319D01*
X14567609Y-12966748D01*
X14577133Y-12947700D01*
X14596181Y-12919128D01*
X14605705Y-12909605D01*
X14786657Y-13138176D02*
X14672371Y-13138176D01*
X14729514Y-13138176D02*
X14729514Y-12938176D01*
X14710467Y-12966748D01*
X14691419Y-12985795D01*
X14672371Y-12995319D01*
X14910467Y-12938176D02*
X14929514Y-12938176D01*
X14948562Y-12947700D01*
X14958086Y-12957224D01*
X14967609Y-12976271D01*
X14977133Y-13014367D01*
X14977133Y-13061986D01*
X14967609Y-13100081D01*
X14958086Y-13119128D01*
X14948562Y-13128652D01*
X14929514Y-13138176D01*
X14910467Y-13138176D01*
X14891419Y-13128652D01*
X14881895Y-13119128D01*
X14872371Y-13100081D01*
X14862848Y-13061986D01*
X14862848Y-13014367D01*
X14872371Y-12976271D01*
X14881895Y-12957224D01*
X14891419Y-12947700D01*
X14910467Y-12938176D01*
X15215228Y-13138176D02*
X15215228Y-12938176D01*
X15300943Y-13138176D02*
X15300943Y-13033414D01*
X15291419Y-13014367D01*
X15272371Y-13004843D01*
X15243800Y-13004843D01*
X15224752Y-13014367D01*
X15215228Y-13023890D01*
X15424752Y-13138176D02*
X15405705Y-13128652D01*
X15396181Y-13119128D01*
X15386657Y-13100081D01*
X15386657Y-13042938D01*
X15396181Y-13023890D01*
X15405705Y-13014367D01*
X15424752Y-13004843D01*
X15453324Y-13004843D01*
X15472371Y-13014367D01*
X15481895Y-13023890D01*
X15491419Y-13042938D01*
X15491419Y-13100081D01*
X15481895Y-13119128D01*
X15472371Y-13128652D01*
X15453324Y-13138176D01*
X15424752Y-13138176D01*
X15605705Y-13138176D02*
X15586657Y-13128652D01*
X15577133Y-13109605D01*
X15577133Y-12938176D01*
X15758086Y-13128652D02*
X15739038Y-13138176D01*
X15700943Y-13138176D01*
X15681895Y-13128652D01*
X15672371Y-13109605D01*
X15672371Y-13033414D01*
X15681895Y-13014367D01*
X15700943Y-13004843D01*
X15739038Y-13004843D01*
X15758086Y-13014367D01*
X15767609Y-13033414D01*
X15767609Y-13052462D01*
X15672371Y-13071509D01*
X15843800Y-13128652D02*
X15862848Y-13138176D01*
X15900943Y-13138176D01*
X15919990Y-13128652D01*
X15929514Y-13109605D01*
X15929514Y-13100081D01*
X15919990Y-13081033D01*
X15900943Y-13071509D01*
X15872371Y-13071509D01*
X15853324Y-13061986D01*
X15843800Y-13042938D01*
X15843800Y-13033414D01*
X15853324Y-13014367D01*
X15872371Y-13004843D01*
X15900943Y-13004843D01*
X15919990Y-13014367D01*
X15996181Y-13214367D02*
X16005705Y-13204843D01*
X16024752Y-13176271D01*
X16034276Y-13157224D01*
X16043800Y-13128652D01*
X16053324Y-13081033D01*
X16053324Y-13042938D01*
X16043800Y-12995319D01*
X16034276Y-12966748D01*
X16024752Y-12947700D01*
X16005705Y-12919128D01*
X15996181Y-12909605D01*
D14*
X11013800Y-13291700D02*
X11013800Y-13331700D01*
X10993800Y-13311700D02*
X11033800Y-13311700D01*
D11*
X11329514Y-13202176D02*
X11348562Y-13202176D01*
X11367609Y-13211700D01*
X11377133Y-13221224D01*
X11386657Y-13240271D01*
X11396181Y-13278367D01*
X11396181Y-13325986D01*
X11386657Y-13364081D01*
X11377133Y-13383128D01*
X11367609Y-13392652D01*
X11348562Y-13402176D01*
X11329514Y-13402176D01*
X11310467Y-13392652D01*
X11300943Y-13383128D01*
X11291419Y-13364081D01*
X11281895Y-13325986D01*
X11281895Y-13278367D01*
X11291419Y-13240271D01*
X11300943Y-13221224D01*
X11310467Y-13211700D01*
X11329514Y-13202176D01*
X11481895Y-13383128D02*
X11491419Y-13392652D01*
X11481895Y-13402176D01*
X11472371Y-13392652D01*
X11481895Y-13383128D01*
X11481895Y-13402176D01*
X11662848Y-13268843D02*
X11662848Y-13402176D01*
X11615228Y-13192652D02*
X11567609Y-13335509D01*
X11691419Y-13335509D01*
X11805705Y-13202176D02*
X11824752Y-13202176D01*
X11843800Y-13211700D01*
X11853324Y-13221224D01*
X11862848Y-13240271D01*
X11872371Y-13278367D01*
X11872371Y-13325986D01*
X11862848Y-13364081D01*
X11853324Y-13383128D01*
X11843800Y-13392652D01*
X11824752Y-13402176D01*
X11805705Y-13402176D01*
X11786657Y-13392652D01*
X11777133Y-13383128D01*
X11767609Y-13364081D01*
X11758086Y-13325986D01*
X11758086Y-13278367D01*
X11767609Y-13240271D01*
X11777133Y-13221224D01*
X11786657Y-13211700D01*
X11805705Y-13202176D01*
X11996181Y-13202176D02*
X12015228Y-13202176D01*
X12034276Y-13211700D01*
X12043800Y-13221224D01*
X12053324Y-13240271D01*
X12062848Y-13278367D01*
X12062848Y-13325986D01*
X12053324Y-13364081D01*
X12043800Y-13383128D01*
X12034276Y-13392652D01*
X12015228Y-13402176D01*
X11996181Y-13402176D01*
X11977133Y-13392652D01*
X11967609Y-13383128D01*
X11958086Y-13364081D01*
X11948562Y-13325986D01*
X11948562Y-13278367D01*
X11958086Y-13240271D01*
X11967609Y-13221224D01*
X11977133Y-13211700D01*
X11996181Y-13202176D01*
X12148562Y-13402176D02*
X12148562Y-13268843D01*
X12148562Y-13287890D02*
X12158086Y-13278367D01*
X12177133Y-13268843D01*
X12205705Y-13268843D01*
X12224752Y-13278367D01*
X12234276Y-13297414D01*
X12234276Y-13402176D01*
X12234276Y-13297414D02*
X12243800Y-13278367D01*
X12262848Y-13268843D01*
X12291419Y-13268843D01*
X12310467Y-13278367D01*
X12319990Y-13297414D01*
X12319990Y-13402176D01*
X12415228Y-13402176D02*
X12415228Y-13268843D01*
X12415228Y-13287890D02*
X12424752Y-13278367D01*
X12443800Y-13268843D01*
X12472371Y-13268843D01*
X12491419Y-13278367D01*
X12500943Y-13297414D01*
X12500943Y-13402176D01*
X12500943Y-13297414D02*
X12510467Y-13278367D01*
X12529514Y-13268843D01*
X12558086Y-13268843D01*
X12577133Y-13278367D01*
X12586657Y-13297414D01*
X12586657Y-13402176D01*
X12977133Y-13192652D02*
X12805705Y-13449795D01*
X13234276Y-13202176D02*
X13253324Y-13202176D01*
X13272371Y-13211700D01*
X13281895Y-13221224D01*
X13291419Y-13240271D01*
X13300943Y-13278367D01*
X13300943Y-13325986D01*
X13291419Y-13364081D01*
X13281895Y-13383128D01*
X13272371Y-13392652D01*
X13253324Y-13402176D01*
X13234276Y-13402176D01*
X13215228Y-13392652D01*
X13205705Y-13383128D01*
X13196181Y-13364081D01*
X13186657Y-13325986D01*
X13186657Y-13278367D01*
X13196181Y-13240271D01*
X13205705Y-13221224D01*
X13215228Y-13211700D01*
X13234276Y-13202176D01*
X13386657Y-13383128D02*
X13396181Y-13392652D01*
X13386657Y-13402176D01*
X13377133Y-13392652D01*
X13386657Y-13383128D01*
X13386657Y-13402176D01*
X13519990Y-13202176D02*
X13539038Y-13202176D01*
X13558086Y-13211700D01*
X13567609Y-13221224D01*
X13577133Y-13240271D01*
X13586657Y-13278367D01*
X13586657Y-13325986D01*
X13577133Y-13364081D01*
X13567609Y-13383128D01*
X13558086Y-13392652D01*
X13539038Y-13402176D01*
X13519990Y-13402176D01*
X13500943Y-13392652D01*
X13491419Y-13383128D01*
X13481895Y-13364081D01*
X13472371Y-13325986D01*
X13472371Y-13278367D01*
X13481895Y-13240271D01*
X13491419Y-13221224D01*
X13500943Y-13211700D01*
X13519990Y-13202176D01*
X13777133Y-13402176D02*
X13662848Y-13402176D01*
X13719990Y-13402176D02*
X13719990Y-13202176D01*
X13700943Y-13230748D01*
X13681895Y-13249795D01*
X13662848Y-13259319D01*
X13958086Y-13202176D02*
X13862848Y-13202176D01*
X13853324Y-13297414D01*
X13862848Y-13287890D01*
X13881895Y-13278367D01*
X13929514Y-13278367D01*
X13948562Y-13287890D01*
X13958086Y-13297414D01*
X13967609Y-13316462D01*
X13967609Y-13364081D01*
X13958086Y-13383128D01*
X13948562Y-13392652D01*
X13929514Y-13402176D01*
X13881895Y-13402176D01*
X13862848Y-13392652D01*
X13853324Y-13383128D01*
X14034276Y-13202176D02*
X14167609Y-13202176D01*
X14081895Y-13402176D01*
X14234276Y-13202176D02*
X14234276Y-13240271D01*
X14310467Y-13202176D02*
X14310467Y-13240271D01*
X14605705Y-13478367D02*
X14596181Y-13468843D01*
X14577133Y-13440271D01*
X14567609Y-13421224D01*
X14558086Y-13392652D01*
X14548562Y-13345033D01*
X14548562Y-13306938D01*
X14558086Y-13259319D01*
X14567609Y-13230748D01*
X14577133Y-13211700D01*
X14596181Y-13183128D01*
X14605705Y-13173605D01*
X14662848Y-13202176D02*
X14786657Y-13202176D01*
X14719990Y-13278367D01*
X14748562Y-13278367D01*
X14767609Y-13287890D01*
X14777133Y-13297414D01*
X14786657Y-13316462D01*
X14786657Y-13364081D01*
X14777133Y-13383128D01*
X14767609Y-13392652D01*
X14748562Y-13402176D01*
X14691419Y-13402176D01*
X14672371Y-13392652D01*
X14662848Y-13383128D01*
X14977133Y-13402176D02*
X14862848Y-13402176D01*
X14919990Y-13402176D02*
X14919990Y-13202176D01*
X14900943Y-13230748D01*
X14881895Y-13249795D01*
X14862848Y-13259319D01*
X15215228Y-13402176D02*
X15215228Y-13202176D01*
X15300943Y-13402176D02*
X15300943Y-13297414D01*
X15291419Y-13278367D01*
X15272371Y-13268843D01*
X15243800Y-13268843D01*
X15224752Y-13278367D01*
X15215228Y-13287890D01*
X15424752Y-13402176D02*
X15405705Y-13392652D01*
X15396181Y-13383128D01*
X15386657Y-13364081D01*
X15386657Y-13306938D01*
X15396181Y-13287890D01*
X15405705Y-13278367D01*
X15424752Y-13268843D01*
X15453324Y-13268843D01*
X15472371Y-13278367D01*
X15481895Y-13287890D01*
X15491419Y-13306938D01*
X15491419Y-13364081D01*
X15481895Y-13383128D01*
X15472371Y-13392652D01*
X15453324Y-13402176D01*
X15424752Y-13402176D01*
X15605705Y-13402176D02*
X15586657Y-13392652D01*
X15577133Y-13373605D01*
X15577133Y-13202176D01*
X15758086Y-13392652D02*
X15739038Y-13402176D01*
X15700943Y-13402176D01*
X15681895Y-13392652D01*
X15672371Y-13373605D01*
X15672371Y-13297414D01*
X15681895Y-13278367D01*
X15700943Y-13268843D01*
X15739038Y-13268843D01*
X15758086Y-13278367D01*
X15767609Y-13297414D01*
X15767609Y-13316462D01*
X15672371Y-13335509D01*
X15843800Y-13392652D02*
X15862848Y-13402176D01*
X15900943Y-13402176D01*
X15919990Y-13392652D01*
X15929514Y-13373605D01*
X15929514Y-13364081D01*
X15919990Y-13345033D01*
X15900943Y-13335509D01*
X15872371Y-13335509D01*
X15853324Y-13325986D01*
X15843800Y-13306938D01*
X15843800Y-13297414D01*
X15853324Y-13278367D01*
X15872371Y-13268843D01*
X15900943Y-13268843D01*
X15919990Y-13278367D01*
X15996181Y-13478367D02*
X16005705Y-13468843D01*
X16024752Y-13440271D01*
X16034276Y-13421224D01*
X16043800Y-13392652D01*
X16053324Y-13345033D01*
X16053324Y-13306938D01*
X16043800Y-13259319D01*
X16034276Y-13230748D01*
X16024752Y-13211700D01*
X16005705Y-13183128D01*
X15996181Y-13173605D01*
D14*
X11027942Y-13589842D02*
X11027942Y-13561558D01*
X10999658Y-13561558D01*
X10999658Y-13589842D01*
X11027942Y-13589842D01*
D11*
X11329514Y-13466176D02*
X11348562Y-13466176D01*
X11367609Y-13475700D01*
X11377133Y-13485224D01*
X11386657Y-13504271D01*
X11396181Y-13542367D01*
X11396181Y-13589986D01*
X11386657Y-13628081D01*
X11377133Y-13647128D01*
X11367609Y-13656652D01*
X11348562Y-13666176D01*
X11329514Y-13666176D01*
X11310467Y-13656652D01*
X11300943Y-13647128D01*
X11291419Y-13628081D01*
X11281895Y-13589986D01*
X11281895Y-13542367D01*
X11291419Y-13504271D01*
X11300943Y-13485224D01*
X11310467Y-13475700D01*
X11329514Y-13466176D01*
X11481895Y-13647128D02*
X11491419Y-13656652D01*
X11481895Y-13666176D01*
X11472371Y-13656652D01*
X11481895Y-13647128D01*
X11481895Y-13666176D01*
X11662848Y-13532843D02*
X11662848Y-13666176D01*
X11615228Y-13456652D02*
X11567609Y-13599509D01*
X11691419Y-13599509D01*
X11805705Y-13466176D02*
X11824752Y-13466176D01*
X11843800Y-13475700D01*
X11853324Y-13485224D01*
X11862848Y-13504271D01*
X11872371Y-13542367D01*
X11872371Y-13589986D01*
X11862848Y-13628081D01*
X11853324Y-13647128D01*
X11843800Y-13656652D01*
X11824752Y-13666176D01*
X11805705Y-13666176D01*
X11786657Y-13656652D01*
X11777133Y-13647128D01*
X11767609Y-13628081D01*
X11758086Y-13589986D01*
X11758086Y-13542367D01*
X11767609Y-13504271D01*
X11777133Y-13485224D01*
X11786657Y-13475700D01*
X11805705Y-13466176D01*
X11996181Y-13466176D02*
X12015228Y-13466176D01*
X12034276Y-13475700D01*
X12043800Y-13485224D01*
X12053324Y-13504271D01*
X12062848Y-13542367D01*
X12062848Y-13589986D01*
X12053324Y-13628081D01*
X12043800Y-13647128D01*
X12034276Y-13656652D01*
X12015228Y-13666176D01*
X11996181Y-13666176D01*
X11977133Y-13656652D01*
X11967609Y-13647128D01*
X11958086Y-13628081D01*
X11948562Y-13589986D01*
X11948562Y-13542367D01*
X11958086Y-13504271D01*
X11967609Y-13485224D01*
X11977133Y-13475700D01*
X11996181Y-13466176D01*
X12148562Y-13666176D02*
X12148562Y-13532843D01*
X12148562Y-13551890D02*
X12158086Y-13542367D01*
X12177133Y-13532843D01*
X12205705Y-13532843D01*
X12224752Y-13542367D01*
X12234276Y-13561414D01*
X12234276Y-13666176D01*
X12234276Y-13561414D02*
X12243800Y-13542367D01*
X12262848Y-13532843D01*
X12291419Y-13532843D01*
X12310467Y-13542367D01*
X12319990Y-13561414D01*
X12319990Y-13666176D01*
X12415228Y-13666176D02*
X12415228Y-13532843D01*
X12415228Y-13551890D02*
X12424752Y-13542367D01*
X12443800Y-13532843D01*
X12472371Y-13532843D01*
X12491419Y-13542367D01*
X12500943Y-13561414D01*
X12500943Y-13666176D01*
X12500943Y-13561414D02*
X12510467Y-13542367D01*
X12529514Y-13532843D01*
X12558086Y-13532843D01*
X12577133Y-13542367D01*
X12586657Y-13561414D01*
X12586657Y-13666176D01*
X12977133Y-13456652D02*
X12805705Y-13713795D01*
X13234276Y-13466176D02*
X13253324Y-13466176D01*
X13272371Y-13475700D01*
X13281895Y-13485224D01*
X13291419Y-13504271D01*
X13300943Y-13542367D01*
X13300943Y-13589986D01*
X13291419Y-13628081D01*
X13281895Y-13647128D01*
X13272371Y-13656652D01*
X13253324Y-13666176D01*
X13234276Y-13666176D01*
X13215228Y-13656652D01*
X13205705Y-13647128D01*
X13196181Y-13628081D01*
X13186657Y-13589986D01*
X13186657Y-13542367D01*
X13196181Y-13504271D01*
X13205705Y-13485224D01*
X13215228Y-13475700D01*
X13234276Y-13466176D01*
X13386657Y-13647128D02*
X13396181Y-13656652D01*
X13386657Y-13666176D01*
X13377133Y-13656652D01*
X13386657Y-13647128D01*
X13386657Y-13666176D01*
X13519990Y-13466176D02*
X13539038Y-13466176D01*
X13558086Y-13475700D01*
X13567609Y-13485224D01*
X13577133Y-13504271D01*
X13586657Y-13542367D01*
X13586657Y-13589986D01*
X13577133Y-13628081D01*
X13567609Y-13647128D01*
X13558086Y-13656652D01*
X13539038Y-13666176D01*
X13519990Y-13666176D01*
X13500943Y-13656652D01*
X13491419Y-13647128D01*
X13481895Y-13628081D01*
X13472371Y-13589986D01*
X13472371Y-13542367D01*
X13481895Y-13504271D01*
X13491419Y-13485224D01*
X13500943Y-13475700D01*
X13519990Y-13466176D01*
X13777133Y-13666176D02*
X13662848Y-13666176D01*
X13719990Y-13666176D02*
X13719990Y-13466176D01*
X13700943Y-13494748D01*
X13681895Y-13513795D01*
X13662848Y-13523319D01*
X13958086Y-13466176D02*
X13862848Y-13466176D01*
X13853324Y-13561414D01*
X13862848Y-13551890D01*
X13881895Y-13542367D01*
X13929514Y-13542367D01*
X13948562Y-13551890D01*
X13958086Y-13561414D01*
X13967609Y-13580462D01*
X13967609Y-13628081D01*
X13958086Y-13647128D01*
X13948562Y-13656652D01*
X13929514Y-13666176D01*
X13881895Y-13666176D01*
X13862848Y-13656652D01*
X13853324Y-13647128D01*
X14034276Y-13466176D02*
X14167609Y-13466176D01*
X14081895Y-13666176D01*
X14234276Y-13466176D02*
X14234276Y-13504271D01*
X14310467Y-13466176D02*
X14310467Y-13504271D01*
X14605705Y-13742367D02*
X14596181Y-13732843D01*
X14577133Y-13704271D01*
X14567609Y-13685224D01*
X14558086Y-13656652D01*
X14548562Y-13609033D01*
X14548562Y-13570938D01*
X14558086Y-13523319D01*
X14567609Y-13494748D01*
X14577133Y-13475700D01*
X14596181Y-13447128D01*
X14605705Y-13437605D01*
X14786657Y-13666176D02*
X14672371Y-13666176D01*
X14729514Y-13666176D02*
X14729514Y-13466176D01*
X14710467Y-13494748D01*
X14691419Y-13513795D01*
X14672371Y-13523319D01*
X14958086Y-13466176D02*
X14919990Y-13466176D01*
X14900943Y-13475700D01*
X14891419Y-13485224D01*
X14872371Y-13513795D01*
X14862848Y-13551890D01*
X14862848Y-13628081D01*
X14872371Y-13647128D01*
X14881895Y-13656652D01*
X14900943Y-13666176D01*
X14939038Y-13666176D01*
X14958086Y-13656652D01*
X14967609Y-13647128D01*
X14977133Y-13628081D01*
X14977133Y-13580462D01*
X14967609Y-13561414D01*
X14958086Y-13551890D01*
X14939038Y-13542367D01*
X14900943Y-13542367D01*
X14881895Y-13551890D01*
X14872371Y-13561414D01*
X14862848Y-13580462D01*
X15215228Y-13666176D02*
X15215228Y-13466176D01*
X15300943Y-13666176D02*
X15300943Y-13561414D01*
X15291419Y-13542367D01*
X15272371Y-13532843D01*
X15243800Y-13532843D01*
X15224752Y-13542367D01*
X15215228Y-13551890D01*
X15424752Y-13666176D02*
X15405705Y-13656652D01*
X15396181Y-13647128D01*
X15386657Y-13628081D01*
X15386657Y-13570938D01*
X15396181Y-13551890D01*
X15405705Y-13542367D01*
X15424752Y-13532843D01*
X15453324Y-13532843D01*
X15472371Y-13542367D01*
X15481895Y-13551890D01*
X15491419Y-13570938D01*
X15491419Y-13628081D01*
X15481895Y-13647128D01*
X15472371Y-13656652D01*
X15453324Y-13666176D01*
X15424752Y-13666176D01*
X15605705Y-13666176D02*
X15586657Y-13656652D01*
X15577133Y-13637605D01*
X15577133Y-13466176D01*
X15758086Y-13656652D02*
X15739038Y-13666176D01*
X15700943Y-13666176D01*
X15681895Y-13656652D01*
X15672371Y-13637605D01*
X15672371Y-13561414D01*
X15681895Y-13542367D01*
X15700943Y-13532843D01*
X15739038Y-13532843D01*
X15758086Y-13542367D01*
X15767609Y-13561414D01*
X15767609Y-13580462D01*
X15672371Y-13599509D01*
X15843800Y-13656652D02*
X15862848Y-13666176D01*
X15900943Y-13666176D01*
X15919990Y-13656652D01*
X15929514Y-13637605D01*
X15929514Y-13628081D01*
X15919990Y-13609033D01*
X15900943Y-13599509D01*
X15872371Y-13599509D01*
X15853324Y-13589986D01*
X15843800Y-13570938D01*
X15843800Y-13561414D01*
X15853324Y-13542367D01*
X15872371Y-13532843D01*
X15900943Y-13532843D01*
X15919990Y-13542367D01*
X15996181Y-13742367D02*
X16005705Y-13732843D01*
X16024752Y-13704271D01*
X16034276Y-13685224D01*
X16043800Y-13656652D01*
X16053324Y-13609033D01*
X16053324Y-13570938D01*
X16043800Y-13523319D01*
X16034276Y-13494748D01*
X16024752Y-13475700D01*
X16005705Y-13447128D01*
X15996181Y-13437605D01*
D15*
X11008800Y-13864700D02*
X11033800Y-13839700D01*
X11008800Y-13814700D01*
X10983800Y-13839700D01*
X11008800Y-13864700D01*
D11*
X11329514Y-13730176D02*
X11348562Y-13730176D01*
X11367609Y-13739700D01*
X11377133Y-13749224D01*
X11386657Y-13768271D01*
X11396181Y-13806367D01*
X11396181Y-13853986D01*
X11386657Y-13892081D01*
X11377133Y-13911128D01*
X11367609Y-13920652D01*
X11348562Y-13930176D01*
X11329514Y-13930176D01*
X11310467Y-13920652D01*
X11300943Y-13911128D01*
X11291419Y-13892081D01*
X11281895Y-13853986D01*
X11281895Y-13806367D01*
X11291419Y-13768271D01*
X11300943Y-13749224D01*
X11310467Y-13739700D01*
X11329514Y-13730176D01*
X11481895Y-13911128D02*
X11491419Y-13920652D01*
X11481895Y-13930176D01*
X11472371Y-13920652D01*
X11481895Y-13911128D01*
X11481895Y-13930176D01*
X11672371Y-13730176D02*
X11577133Y-13730176D01*
X11567609Y-13825414D01*
X11577133Y-13815890D01*
X11596181Y-13806367D01*
X11643800Y-13806367D01*
X11662848Y-13815890D01*
X11672371Y-13825414D01*
X11681895Y-13844462D01*
X11681895Y-13892081D01*
X11672371Y-13911128D01*
X11662848Y-13920652D01*
X11643800Y-13930176D01*
X11596181Y-13930176D01*
X11577133Y-13920652D01*
X11567609Y-13911128D01*
X11805705Y-13730176D02*
X11824752Y-13730176D01*
X11843800Y-13739700D01*
X11853324Y-13749224D01*
X11862848Y-13768271D01*
X11872371Y-13806367D01*
X11872371Y-13853986D01*
X11862848Y-13892081D01*
X11853324Y-13911128D01*
X11843800Y-13920652D01*
X11824752Y-13930176D01*
X11805705Y-13930176D01*
X11786657Y-13920652D01*
X11777133Y-13911128D01*
X11767609Y-13892081D01*
X11758086Y-13853986D01*
X11758086Y-13806367D01*
X11767609Y-13768271D01*
X11777133Y-13749224D01*
X11786657Y-13739700D01*
X11805705Y-13730176D01*
X11996181Y-13730176D02*
X12015228Y-13730176D01*
X12034276Y-13739700D01*
X12043800Y-13749224D01*
X12053324Y-13768271D01*
X12062848Y-13806367D01*
X12062848Y-13853986D01*
X12053324Y-13892081D01*
X12043800Y-13911128D01*
X12034276Y-13920652D01*
X12015228Y-13930176D01*
X11996181Y-13930176D01*
X11977133Y-13920652D01*
X11967609Y-13911128D01*
X11958086Y-13892081D01*
X11948562Y-13853986D01*
X11948562Y-13806367D01*
X11958086Y-13768271D01*
X11967609Y-13749224D01*
X11977133Y-13739700D01*
X11996181Y-13730176D01*
X12148562Y-13930176D02*
X12148562Y-13796843D01*
X12148562Y-13815890D02*
X12158086Y-13806367D01*
X12177133Y-13796843D01*
X12205705Y-13796843D01*
X12224752Y-13806367D01*
X12234276Y-13825414D01*
X12234276Y-13930176D01*
X12234276Y-13825414D02*
X12243800Y-13806367D01*
X12262848Y-13796843D01*
X12291419Y-13796843D01*
X12310467Y-13806367D01*
X12319990Y-13825414D01*
X12319990Y-13930176D01*
X12415228Y-13930176D02*
X12415228Y-13796843D01*
X12415228Y-13815890D02*
X12424752Y-13806367D01*
X12443800Y-13796843D01*
X12472371Y-13796843D01*
X12491419Y-13806367D01*
X12500943Y-13825414D01*
X12500943Y-13930176D01*
X12500943Y-13825414D02*
X12510467Y-13806367D01*
X12529514Y-13796843D01*
X12558086Y-13796843D01*
X12577133Y-13806367D01*
X12586657Y-13825414D01*
X12586657Y-13930176D01*
X12977133Y-13720652D02*
X12805705Y-13977795D01*
X13234276Y-13730176D02*
X13253324Y-13730176D01*
X13272371Y-13739700D01*
X13281895Y-13749224D01*
X13291419Y-13768271D01*
X13300943Y-13806367D01*
X13300943Y-13853986D01*
X13291419Y-13892081D01*
X13281895Y-13911128D01*
X13272371Y-13920652D01*
X13253324Y-13930176D01*
X13234276Y-13930176D01*
X13215228Y-13920652D01*
X13205705Y-13911128D01*
X13196181Y-13892081D01*
X13186657Y-13853986D01*
X13186657Y-13806367D01*
X13196181Y-13768271D01*
X13205705Y-13749224D01*
X13215228Y-13739700D01*
X13234276Y-13730176D01*
X13386657Y-13911128D02*
X13396181Y-13920652D01*
X13386657Y-13930176D01*
X13377133Y-13920652D01*
X13386657Y-13911128D01*
X13386657Y-13930176D01*
X13519990Y-13730176D02*
X13539038Y-13730176D01*
X13558086Y-13739700D01*
X13567609Y-13749224D01*
X13577133Y-13768271D01*
X13586657Y-13806367D01*
X13586657Y-13853986D01*
X13577133Y-13892081D01*
X13567609Y-13911128D01*
X13558086Y-13920652D01*
X13539038Y-13930176D01*
X13519990Y-13930176D01*
X13500943Y-13920652D01*
X13491419Y-13911128D01*
X13481895Y-13892081D01*
X13472371Y-13853986D01*
X13472371Y-13806367D01*
X13481895Y-13768271D01*
X13491419Y-13749224D01*
X13500943Y-13739700D01*
X13519990Y-13730176D01*
X13777133Y-13930176D02*
X13662848Y-13930176D01*
X13719990Y-13930176D02*
X13719990Y-13730176D01*
X13700943Y-13758748D01*
X13681895Y-13777795D01*
X13662848Y-13787319D01*
X13872371Y-13930176D02*
X13910467Y-13930176D01*
X13929514Y-13920652D01*
X13939038Y-13911128D01*
X13958086Y-13882557D01*
X13967609Y-13844462D01*
X13967609Y-13768271D01*
X13958086Y-13749224D01*
X13948562Y-13739700D01*
X13929514Y-13730176D01*
X13891419Y-13730176D01*
X13872371Y-13739700D01*
X13862848Y-13749224D01*
X13853324Y-13768271D01*
X13853324Y-13815890D01*
X13862848Y-13834938D01*
X13872371Y-13844462D01*
X13891419Y-13853986D01*
X13929514Y-13853986D01*
X13948562Y-13844462D01*
X13958086Y-13834938D01*
X13967609Y-13815890D01*
X14034276Y-13730176D02*
X14167609Y-13730176D01*
X14081895Y-13930176D01*
X14234276Y-13730176D02*
X14234276Y-13768271D01*
X14310467Y-13730176D02*
X14310467Y-13768271D01*
X14605705Y-14006367D02*
X14596181Y-13996843D01*
X14577133Y-13968271D01*
X14567609Y-13949224D01*
X14558086Y-13920652D01*
X14548562Y-13873033D01*
X14548562Y-13834938D01*
X14558086Y-13787319D01*
X14567609Y-13758748D01*
X14577133Y-13739700D01*
X14596181Y-13711128D01*
X14605705Y-13701605D01*
X14672371Y-13749224D02*
X14681895Y-13739700D01*
X14700943Y-13730176D01*
X14748562Y-13730176D01*
X14767609Y-13739700D01*
X14777133Y-13749224D01*
X14786657Y-13768271D01*
X14786657Y-13787319D01*
X14777133Y-13815890D01*
X14662848Y-13930176D01*
X14786657Y-13930176D01*
X14958086Y-13796843D02*
X14958086Y-13930176D01*
X14910467Y-13720652D02*
X14862848Y-13863509D01*
X14986657Y-13863509D01*
X15215228Y-13930176D02*
X15215228Y-13730176D01*
X15300943Y-13930176D02*
X15300943Y-13825414D01*
X15291419Y-13806367D01*
X15272371Y-13796843D01*
X15243800Y-13796843D01*
X15224752Y-13806367D01*
X15215228Y-13815890D01*
X15424752Y-13930176D02*
X15405705Y-13920652D01*
X15396181Y-13911128D01*
X15386657Y-13892081D01*
X15386657Y-13834938D01*
X15396181Y-13815890D01*
X15405705Y-13806367D01*
X15424752Y-13796843D01*
X15453324Y-13796843D01*
X15472371Y-13806367D01*
X15481895Y-13815890D01*
X15491419Y-13834938D01*
X15491419Y-13892081D01*
X15481895Y-13911128D01*
X15472371Y-13920652D01*
X15453324Y-13930176D01*
X15424752Y-13930176D01*
X15605705Y-13930176D02*
X15586657Y-13920652D01*
X15577133Y-13901605D01*
X15577133Y-13730176D01*
X15758086Y-13920652D02*
X15739038Y-13930176D01*
X15700943Y-13930176D01*
X15681895Y-13920652D01*
X15672371Y-13901605D01*
X15672371Y-13825414D01*
X15681895Y-13806367D01*
X15700943Y-13796843D01*
X15739038Y-13796843D01*
X15758086Y-13806367D01*
X15767609Y-13825414D01*
X15767609Y-13844462D01*
X15672371Y-13863509D01*
X15843800Y-13920652D02*
X15862848Y-13930176D01*
X15900943Y-13930176D01*
X15919990Y-13920652D01*
X15929514Y-13901605D01*
X15929514Y-13892081D01*
X15919990Y-13873033D01*
X15900943Y-13863509D01*
X15872371Y-13863509D01*
X15853324Y-13853986D01*
X15843800Y-13834938D01*
X15843800Y-13825414D01*
X15853324Y-13806367D01*
X15872371Y-13796843D01*
X15900943Y-13796843D01*
X15919990Y-13806367D01*
X15996181Y-14006367D02*
X16005705Y-13996843D01*
X16024752Y-13968271D01*
X16034276Y-13949224D01*
X16043800Y-13920652D01*
X16053324Y-13873033D01*
X16053324Y-13834938D01*
X16043800Y-13787319D01*
X16034276Y-13758748D01*
X16024752Y-13739700D01*
X16005705Y-13711128D01*
X15996181Y-13701605D01*
D16*
X10973800Y-14073700D02*
X11033800Y-14133700D01*
X11033800Y-14073700D02*
X10973800Y-14133700D01*
X11033800Y-14103700D02*
G75*
G03*
X11033800Y-14103700I-30000J0D01*
G01*
D11*
X11329514Y-13994176D02*
X11348562Y-13994176D01*
X11367609Y-14003700D01*
X11377133Y-14013224D01*
X11386657Y-14032271D01*
X11396181Y-14070367D01*
X11396181Y-14117986D01*
X11386657Y-14156081D01*
X11377133Y-14175128D01*
X11367609Y-14184652D01*
X11348562Y-14194176D01*
X11329514Y-14194176D01*
X11310467Y-14184652D01*
X11300943Y-14175128D01*
X11291419Y-14156081D01*
X11281895Y-14117986D01*
X11281895Y-14070367D01*
X11291419Y-14032271D01*
X11300943Y-14013224D01*
X11310467Y-14003700D01*
X11329514Y-13994176D01*
X11481895Y-14175128D02*
X11491419Y-14184652D01*
X11481895Y-14194176D01*
X11472371Y-14184652D01*
X11481895Y-14175128D01*
X11481895Y-14194176D01*
X11662848Y-13994176D02*
X11624752Y-13994176D01*
X11605705Y-14003700D01*
X11596181Y-14013224D01*
X11577133Y-14041795D01*
X11567609Y-14079890D01*
X11567609Y-14156081D01*
X11577133Y-14175128D01*
X11586657Y-14184652D01*
X11605705Y-14194176D01*
X11643800Y-14194176D01*
X11662848Y-14184652D01*
X11672371Y-14175128D01*
X11681895Y-14156081D01*
X11681895Y-14108462D01*
X11672371Y-14089414D01*
X11662848Y-14079890D01*
X11643800Y-14070367D01*
X11605705Y-14070367D01*
X11586657Y-14079890D01*
X11577133Y-14089414D01*
X11567609Y-14108462D01*
X11805705Y-13994176D02*
X11824752Y-13994176D01*
X11843800Y-14003700D01*
X11853324Y-14013224D01*
X11862848Y-14032271D01*
X11872371Y-14070367D01*
X11872371Y-14117986D01*
X11862848Y-14156081D01*
X11853324Y-14175128D01*
X11843800Y-14184652D01*
X11824752Y-14194176D01*
X11805705Y-14194176D01*
X11786657Y-14184652D01*
X11777133Y-14175128D01*
X11767609Y-14156081D01*
X11758086Y-14117986D01*
X11758086Y-14070367D01*
X11767609Y-14032271D01*
X11777133Y-14013224D01*
X11786657Y-14003700D01*
X11805705Y-13994176D01*
X11996181Y-13994176D02*
X12015228Y-13994176D01*
X12034276Y-14003700D01*
X12043800Y-14013224D01*
X12053324Y-14032271D01*
X12062848Y-14070367D01*
X12062848Y-14117986D01*
X12053324Y-14156081D01*
X12043800Y-14175128D01*
X12034276Y-14184652D01*
X12015228Y-14194176D01*
X11996181Y-14194176D01*
X11977133Y-14184652D01*
X11967609Y-14175128D01*
X11958086Y-14156081D01*
X11948562Y-14117986D01*
X11948562Y-14070367D01*
X11958086Y-14032271D01*
X11967609Y-14013224D01*
X11977133Y-14003700D01*
X11996181Y-13994176D01*
X12148562Y-14194176D02*
X12148562Y-14060843D01*
X12148562Y-14079890D02*
X12158086Y-14070367D01*
X12177133Y-14060843D01*
X12205705Y-14060843D01*
X12224752Y-14070367D01*
X12234276Y-14089414D01*
X12234276Y-14194176D01*
X12234276Y-14089414D02*
X12243800Y-14070367D01*
X12262848Y-14060843D01*
X12291419Y-14060843D01*
X12310467Y-14070367D01*
X12319990Y-14089414D01*
X12319990Y-14194176D01*
X12415228Y-14194176D02*
X12415228Y-14060843D01*
X12415228Y-14079890D02*
X12424752Y-14070367D01*
X12443800Y-14060843D01*
X12472371Y-14060843D01*
X12491419Y-14070367D01*
X12500943Y-14089414D01*
X12500943Y-14194176D01*
X12500943Y-14089414D02*
X12510467Y-14070367D01*
X12529514Y-14060843D01*
X12558086Y-14060843D01*
X12577133Y-14070367D01*
X12586657Y-14089414D01*
X12586657Y-14194176D01*
X12977133Y-13984652D02*
X12805705Y-14241795D01*
X13234276Y-13994176D02*
X13253324Y-13994176D01*
X13272371Y-14003700D01*
X13281895Y-14013224D01*
X13291419Y-14032271D01*
X13300943Y-14070367D01*
X13300943Y-14117986D01*
X13291419Y-14156081D01*
X13281895Y-14175128D01*
X13272371Y-14184652D01*
X13253324Y-14194176D01*
X13234276Y-14194176D01*
X13215228Y-14184652D01*
X13205705Y-14175128D01*
X13196181Y-14156081D01*
X13186657Y-14117986D01*
X13186657Y-14070367D01*
X13196181Y-14032271D01*
X13205705Y-14013224D01*
X13215228Y-14003700D01*
X13234276Y-13994176D01*
X13386657Y-14175128D02*
X13396181Y-14184652D01*
X13386657Y-14194176D01*
X13377133Y-14184652D01*
X13386657Y-14175128D01*
X13386657Y-14194176D01*
X13519990Y-13994176D02*
X13539038Y-13994176D01*
X13558086Y-14003700D01*
X13567609Y-14013224D01*
X13577133Y-14032271D01*
X13586657Y-14070367D01*
X13586657Y-14117986D01*
X13577133Y-14156081D01*
X13567609Y-14175128D01*
X13558086Y-14184652D01*
X13539038Y-14194176D01*
X13519990Y-14194176D01*
X13500943Y-14184652D01*
X13491419Y-14175128D01*
X13481895Y-14156081D01*
X13472371Y-14117986D01*
X13472371Y-14070367D01*
X13481895Y-14032271D01*
X13491419Y-14013224D01*
X13500943Y-14003700D01*
X13519990Y-13994176D01*
X13662848Y-14013224D02*
X13672371Y-14003700D01*
X13691419Y-13994176D01*
X13739038Y-13994176D01*
X13758086Y-14003700D01*
X13767609Y-14013224D01*
X13777133Y-14032271D01*
X13777133Y-14051319D01*
X13767609Y-14079890D01*
X13653324Y-14194176D01*
X13777133Y-14194176D01*
X13843800Y-13994176D02*
X13967609Y-13994176D01*
X13900943Y-14070367D01*
X13929514Y-14070367D01*
X13948562Y-14079890D01*
X13958086Y-14089414D01*
X13967609Y-14108462D01*
X13967609Y-14156081D01*
X13958086Y-14175128D01*
X13948562Y-14184652D01*
X13929514Y-14194176D01*
X13872371Y-14194176D01*
X13853324Y-14184652D01*
X13843800Y-14175128D01*
X14139038Y-13994176D02*
X14100943Y-13994176D01*
X14081895Y-14003700D01*
X14072371Y-14013224D01*
X14053324Y-14041795D01*
X14043800Y-14079890D01*
X14043800Y-14156081D01*
X14053324Y-14175128D01*
X14062848Y-14184652D01*
X14081895Y-14194176D01*
X14119990Y-14194176D01*
X14139038Y-14184652D01*
X14148562Y-14175128D01*
X14158086Y-14156081D01*
X14158086Y-14108462D01*
X14148562Y-14089414D01*
X14139038Y-14079890D01*
X14119990Y-14070367D01*
X14081895Y-14070367D01*
X14062848Y-14079890D01*
X14053324Y-14089414D01*
X14043800Y-14108462D01*
X14234276Y-13994176D02*
X14234276Y-14032271D01*
X14310467Y-13994176D02*
X14310467Y-14032271D01*
X14605705Y-14270367D02*
X14596181Y-14260843D01*
X14577133Y-14232271D01*
X14567609Y-14213224D01*
X14558086Y-14184652D01*
X14548562Y-14137033D01*
X14548562Y-14098938D01*
X14558086Y-14051319D01*
X14567609Y-14022748D01*
X14577133Y-14003700D01*
X14596181Y-13975128D01*
X14605705Y-13965605D01*
X14719990Y-13994176D02*
X14739038Y-13994176D01*
X14758086Y-14003700D01*
X14767609Y-14013224D01*
X14777133Y-14032271D01*
X14786657Y-14070367D01*
X14786657Y-14117986D01*
X14777133Y-14156081D01*
X14767609Y-14175128D01*
X14758086Y-14184652D01*
X14739038Y-14194176D01*
X14719990Y-14194176D01*
X14700943Y-14184652D01*
X14691419Y-14175128D01*
X14681895Y-14156081D01*
X14672371Y-14117986D01*
X14672371Y-14070367D01*
X14681895Y-14032271D01*
X14691419Y-14013224D01*
X14700943Y-14003700D01*
X14719990Y-13994176D01*
X15024752Y-14194176D02*
X15024752Y-13994176D01*
X15110467Y-14194176D02*
X15110467Y-14089414D01*
X15100943Y-14070367D01*
X15081895Y-14060843D01*
X15053324Y-14060843D01*
X15034276Y-14070367D01*
X15024752Y-14079890D01*
X15234276Y-14194176D02*
X15215228Y-14184652D01*
X15205705Y-14175128D01*
X15196181Y-14156081D01*
X15196181Y-14098938D01*
X15205705Y-14079890D01*
X15215228Y-14070367D01*
X15234276Y-14060843D01*
X15262848Y-14060843D01*
X15281895Y-14070367D01*
X15291419Y-14079890D01*
X15300943Y-14098938D01*
X15300943Y-14156081D01*
X15291419Y-14175128D01*
X15281895Y-14184652D01*
X15262848Y-14194176D01*
X15234276Y-14194176D01*
X15415228Y-14194176D02*
X15396181Y-14184652D01*
X15386657Y-14165605D01*
X15386657Y-13994176D01*
X15567609Y-14184652D02*
X15548562Y-14194176D01*
X15510467Y-14194176D01*
X15491419Y-14184652D01*
X15481895Y-14165605D01*
X15481895Y-14089414D01*
X15491419Y-14070367D01*
X15510467Y-14060843D01*
X15548562Y-14060843D01*
X15567609Y-14070367D01*
X15577133Y-14089414D01*
X15577133Y-14108462D01*
X15481895Y-14127509D01*
X15653324Y-14184652D02*
X15672371Y-14194176D01*
X15710467Y-14194176D01*
X15729514Y-14184652D01*
X15739038Y-14165605D01*
X15739038Y-14156081D01*
X15729514Y-14137033D01*
X15710467Y-14127509D01*
X15681895Y-14127509D01*
X15662848Y-14117986D01*
X15653324Y-14098938D01*
X15653324Y-14089414D01*
X15662848Y-14070367D01*
X15681895Y-14060843D01*
X15710467Y-14060843D01*
X15729514Y-14070367D01*
X15977133Y-14117986D02*
X16129514Y-14117986D01*
X16053324Y-14194176D02*
X16053324Y-14041795D01*
X16462848Y-14060843D02*
X16462848Y-14194176D01*
X16415228Y-13984652D02*
X16367609Y-14127509D01*
X16491419Y-14127509D01*
X16710467Y-14184652D02*
X16729514Y-14194176D01*
X16767609Y-14194176D01*
X16786657Y-14184652D01*
X16796181Y-14165605D01*
X16796181Y-14156081D01*
X16786657Y-14137033D01*
X16767609Y-14127509D01*
X16739038Y-14127509D01*
X16719990Y-14117986D01*
X16710467Y-14098938D01*
X16710467Y-14089414D01*
X16719990Y-14070367D01*
X16739038Y-14060843D01*
X16767609Y-14060843D01*
X16786657Y-14070367D01*
X16910467Y-14194176D02*
X16891419Y-14184652D01*
X16881895Y-14165605D01*
X16881895Y-13994176D01*
X17015229Y-14194176D02*
X16996181Y-14184652D01*
X16986657Y-14175128D01*
X16977133Y-14156081D01*
X16977133Y-14098938D01*
X16986657Y-14079890D01*
X16996181Y-14070367D01*
X17015229Y-14060843D01*
X17043800Y-14060843D01*
X17062848Y-14070367D01*
X17072371Y-14079890D01*
X17081895Y-14098938D01*
X17081895Y-14156081D01*
X17072371Y-14175128D01*
X17062848Y-14184652D01*
X17043800Y-14194176D01*
X17015229Y-14194176D01*
X17139038Y-14060843D02*
X17215229Y-14060843D01*
X17167610Y-13994176D02*
X17167610Y-14165605D01*
X17177133Y-14184652D01*
X17196181Y-14194176D01*
X17215229Y-14194176D01*
X17272371Y-14184652D02*
X17291419Y-14194176D01*
X17329514Y-14194176D01*
X17348562Y-14184652D01*
X17358086Y-14165605D01*
X17358086Y-14156081D01*
X17348562Y-14137033D01*
X17329514Y-14127509D01*
X17300943Y-14127509D01*
X17281895Y-14117986D01*
X17272371Y-14098938D01*
X17272371Y-14089414D01*
X17281895Y-14070367D01*
X17300943Y-14060843D01*
X17329514Y-14060843D01*
X17348562Y-14070367D01*
X17424752Y-14270367D02*
X17434276Y-14260843D01*
X17453324Y-14232271D01*
X17462848Y-14213224D01*
X17472371Y-14184652D01*
X17481895Y-14137033D01*
X17481895Y-14098938D01*
X17472371Y-14051319D01*
X17462848Y-14022748D01*
X17453324Y-14003700D01*
X17434276Y-13975128D01*
X17424752Y-13965605D01*
D17*
X10953800Y-14327700D02*
X11033800Y-14407700D01*
X11033800Y-14327700D02*
X10953800Y-14407700D01*
X10993800Y-14327700D02*
X10993800Y-14407700D01*
X10953800Y-14367700D02*
X11033800Y-14367700D01*
D11*
X11329514Y-14258176D02*
X11348562Y-14258176D01*
X11367609Y-14267700D01*
X11377133Y-14277224D01*
X11386657Y-14296271D01*
X11396181Y-14334367D01*
X11396181Y-14381986D01*
X11386657Y-14420081D01*
X11377133Y-14439128D01*
X11367609Y-14448652D01*
X11348562Y-14458176D01*
X11329514Y-14458176D01*
X11310467Y-14448652D01*
X11300943Y-14439128D01*
X11291419Y-14420081D01*
X11281895Y-14381986D01*
X11281895Y-14334367D01*
X11291419Y-14296271D01*
X11300943Y-14277224D01*
X11310467Y-14267700D01*
X11329514Y-14258176D01*
X11481895Y-14439128D02*
X11491419Y-14448652D01*
X11481895Y-14458176D01*
X11472371Y-14448652D01*
X11481895Y-14439128D01*
X11481895Y-14458176D01*
X11605705Y-14343890D02*
X11586657Y-14334367D01*
X11577133Y-14324843D01*
X11567609Y-14305795D01*
X11567609Y-14296271D01*
X11577133Y-14277224D01*
X11586657Y-14267700D01*
X11605705Y-14258176D01*
X11643800Y-14258176D01*
X11662848Y-14267700D01*
X11672371Y-14277224D01*
X11681895Y-14296271D01*
X11681895Y-14305795D01*
X11672371Y-14324843D01*
X11662848Y-14334367D01*
X11643800Y-14343890D01*
X11605705Y-14343890D01*
X11586657Y-14353414D01*
X11577133Y-14362938D01*
X11567609Y-14381986D01*
X11567609Y-14420081D01*
X11577133Y-14439128D01*
X11586657Y-14448652D01*
X11605705Y-14458176D01*
X11643800Y-14458176D01*
X11662848Y-14448652D01*
X11672371Y-14439128D01*
X11681895Y-14420081D01*
X11681895Y-14381986D01*
X11672371Y-14362938D01*
X11662848Y-14353414D01*
X11643800Y-14343890D01*
X11805705Y-14258176D02*
X11824752Y-14258176D01*
X11843800Y-14267700D01*
X11853324Y-14277224D01*
X11862848Y-14296271D01*
X11872371Y-14334367D01*
X11872371Y-14381986D01*
X11862848Y-14420081D01*
X11853324Y-14439128D01*
X11843800Y-14448652D01*
X11824752Y-14458176D01*
X11805705Y-14458176D01*
X11786657Y-14448652D01*
X11777133Y-14439128D01*
X11767609Y-14420081D01*
X11758086Y-14381986D01*
X11758086Y-14334367D01*
X11767609Y-14296271D01*
X11777133Y-14277224D01*
X11786657Y-14267700D01*
X11805705Y-14258176D01*
X11996181Y-14258176D02*
X12015228Y-14258176D01*
X12034276Y-14267700D01*
X12043800Y-14277224D01*
X12053324Y-14296271D01*
X12062848Y-14334367D01*
X12062848Y-14381986D01*
X12053324Y-14420081D01*
X12043800Y-14439128D01*
X12034276Y-14448652D01*
X12015228Y-14458176D01*
X11996181Y-14458176D01*
X11977133Y-14448652D01*
X11967609Y-14439128D01*
X11958086Y-14420081D01*
X11948562Y-14381986D01*
X11948562Y-14334367D01*
X11958086Y-14296271D01*
X11967609Y-14277224D01*
X11977133Y-14267700D01*
X11996181Y-14258176D01*
X12148562Y-14458176D02*
X12148562Y-14324843D01*
X12148562Y-14343890D02*
X12158086Y-14334367D01*
X12177133Y-14324843D01*
X12205705Y-14324843D01*
X12224752Y-14334367D01*
X12234276Y-14353414D01*
X12234276Y-14458176D01*
X12234276Y-14353414D02*
X12243800Y-14334367D01*
X12262848Y-14324843D01*
X12291419Y-14324843D01*
X12310467Y-14334367D01*
X12319990Y-14353414D01*
X12319990Y-14458176D01*
X12415228Y-14458176D02*
X12415228Y-14324843D01*
X12415228Y-14343890D02*
X12424752Y-14334367D01*
X12443800Y-14324843D01*
X12472371Y-14324843D01*
X12491419Y-14334367D01*
X12500943Y-14353414D01*
X12500943Y-14458176D01*
X12500943Y-14353414D02*
X12510467Y-14334367D01*
X12529514Y-14324843D01*
X12558086Y-14324843D01*
X12577133Y-14334367D01*
X12586657Y-14353414D01*
X12586657Y-14458176D01*
X12977133Y-14248652D02*
X12805705Y-14505795D01*
X13234276Y-14258176D02*
X13253324Y-14258176D01*
X13272371Y-14267700D01*
X13281895Y-14277224D01*
X13291419Y-14296271D01*
X13300943Y-14334367D01*
X13300943Y-14381986D01*
X13291419Y-14420081D01*
X13281895Y-14439128D01*
X13272371Y-14448652D01*
X13253324Y-14458176D01*
X13234276Y-14458176D01*
X13215228Y-14448652D01*
X13205705Y-14439128D01*
X13196181Y-14420081D01*
X13186657Y-14381986D01*
X13186657Y-14334367D01*
X13196181Y-14296271D01*
X13205705Y-14277224D01*
X13215228Y-14267700D01*
X13234276Y-14258176D01*
X13386657Y-14439128D02*
X13396181Y-14448652D01*
X13386657Y-14458176D01*
X13377133Y-14448652D01*
X13386657Y-14439128D01*
X13386657Y-14458176D01*
X13519990Y-14258176D02*
X13539038Y-14258176D01*
X13558086Y-14267700D01*
X13567609Y-14277224D01*
X13577133Y-14296271D01*
X13586657Y-14334367D01*
X13586657Y-14381986D01*
X13577133Y-14420081D01*
X13567609Y-14439128D01*
X13558086Y-14448652D01*
X13539038Y-14458176D01*
X13519990Y-14458176D01*
X13500943Y-14448652D01*
X13491419Y-14439128D01*
X13481895Y-14420081D01*
X13472371Y-14381986D01*
X13472371Y-14334367D01*
X13481895Y-14296271D01*
X13491419Y-14277224D01*
X13500943Y-14267700D01*
X13519990Y-14258176D01*
X13653324Y-14258176D02*
X13777133Y-14258176D01*
X13710467Y-14334367D01*
X13739038Y-14334367D01*
X13758086Y-14343890D01*
X13767609Y-14353414D01*
X13777133Y-14372462D01*
X13777133Y-14420081D01*
X13767609Y-14439128D01*
X13758086Y-14448652D01*
X13739038Y-14458176D01*
X13681895Y-14458176D01*
X13662848Y-14448652D01*
X13653324Y-14439128D01*
X13967609Y-14458176D02*
X13853324Y-14458176D01*
X13910467Y-14458176D02*
X13910467Y-14258176D01*
X13891419Y-14286748D01*
X13872371Y-14305795D01*
X13853324Y-14315319D01*
X14148562Y-14258176D02*
X14053324Y-14258176D01*
X14043800Y-14353414D01*
X14053324Y-14343890D01*
X14072371Y-14334367D01*
X14119990Y-14334367D01*
X14139038Y-14343890D01*
X14148562Y-14353414D01*
X14158086Y-14372462D01*
X14158086Y-14420081D01*
X14148562Y-14439128D01*
X14139038Y-14448652D01*
X14119990Y-14458176D01*
X14072371Y-14458176D01*
X14053324Y-14448652D01*
X14043800Y-14439128D01*
X14234276Y-14258176D02*
X14234276Y-14296271D01*
X14310467Y-14258176D02*
X14310467Y-14296271D01*
X14605705Y-14534367D02*
X14596181Y-14524843D01*
X14577133Y-14496271D01*
X14567609Y-14477224D01*
X14558086Y-14448652D01*
X14548562Y-14401033D01*
X14548562Y-14362938D01*
X14558086Y-14315319D01*
X14567609Y-14286748D01*
X14577133Y-14267700D01*
X14596181Y-14239128D01*
X14605705Y-14229605D01*
X14719990Y-14258176D02*
X14739038Y-14258176D01*
X14758086Y-14267700D01*
X14767609Y-14277224D01*
X14777133Y-14296271D01*
X14786657Y-14334367D01*
X14786657Y-14381986D01*
X14777133Y-14420081D01*
X14767609Y-14439128D01*
X14758086Y-14448652D01*
X14739038Y-14458176D01*
X14719990Y-14458176D01*
X14700943Y-14448652D01*
X14691419Y-14439128D01*
X14681895Y-14420081D01*
X14672371Y-14381986D01*
X14672371Y-14334367D01*
X14681895Y-14296271D01*
X14691419Y-14277224D01*
X14700943Y-14267700D01*
X14719990Y-14258176D01*
X15024752Y-14458176D02*
X15024752Y-14258176D01*
X15110467Y-14458176D02*
X15110467Y-14353414D01*
X15100943Y-14334367D01*
X15081895Y-14324843D01*
X15053324Y-14324843D01*
X15034276Y-14334367D01*
X15024752Y-14343890D01*
X15234276Y-14458176D02*
X15215228Y-14448652D01*
X15205705Y-14439128D01*
X15196181Y-14420081D01*
X15196181Y-14362938D01*
X15205705Y-14343890D01*
X15215228Y-14334367D01*
X15234276Y-14324843D01*
X15262848Y-14324843D01*
X15281895Y-14334367D01*
X15291419Y-14343890D01*
X15300943Y-14362938D01*
X15300943Y-14420081D01*
X15291419Y-14439128D01*
X15281895Y-14448652D01*
X15262848Y-14458176D01*
X15234276Y-14458176D01*
X15415228Y-14458176D02*
X15396181Y-14448652D01*
X15386657Y-14429605D01*
X15386657Y-14258176D01*
X15567609Y-14448652D02*
X15548562Y-14458176D01*
X15510467Y-14458176D01*
X15491419Y-14448652D01*
X15481895Y-14429605D01*
X15481895Y-14353414D01*
X15491419Y-14334367D01*
X15510467Y-14324843D01*
X15548562Y-14324843D01*
X15567609Y-14334367D01*
X15577133Y-14353414D01*
X15577133Y-14372462D01*
X15481895Y-14391509D01*
X15653324Y-14448652D02*
X15672371Y-14458176D01*
X15710467Y-14458176D01*
X15729514Y-14448652D01*
X15739038Y-14429605D01*
X15739038Y-14420081D01*
X15729514Y-14401033D01*
X15710467Y-14391509D01*
X15681895Y-14391509D01*
X15662848Y-14381986D01*
X15653324Y-14362938D01*
X15653324Y-14353414D01*
X15662848Y-14334367D01*
X15681895Y-14324843D01*
X15710467Y-14324843D01*
X15729514Y-14334367D01*
X15977133Y-14381986D02*
X16129514Y-14381986D01*
X16053324Y-14458176D02*
X16053324Y-14305795D01*
X16358086Y-14258176D02*
X16481895Y-14258176D01*
X16415228Y-14334367D01*
X16443800Y-14334367D01*
X16462848Y-14343890D01*
X16472371Y-14353414D01*
X16481895Y-14372462D01*
X16481895Y-14420081D01*
X16472371Y-14439128D01*
X16462848Y-14448652D01*
X16443800Y-14458176D01*
X16386657Y-14458176D01*
X16367609Y-14448652D01*
X16358086Y-14439128D01*
X16710467Y-14448652D02*
X16729514Y-14458176D01*
X16767609Y-14458176D01*
X16786657Y-14448652D01*
X16796181Y-14429605D01*
X16796181Y-14420081D01*
X16786657Y-14401033D01*
X16767609Y-14391509D01*
X16739038Y-14391509D01*
X16719990Y-14381986D01*
X16710467Y-14362938D01*
X16710467Y-14353414D01*
X16719990Y-14334367D01*
X16739038Y-14324843D01*
X16767609Y-14324843D01*
X16786657Y-14334367D01*
X16910467Y-14458176D02*
X16891419Y-14448652D01*
X16881895Y-14429605D01*
X16881895Y-14258176D01*
X17015229Y-14458176D02*
X16996181Y-14448652D01*
X16986657Y-14439128D01*
X16977133Y-14420081D01*
X16977133Y-14362938D01*
X16986657Y-14343890D01*
X16996181Y-14334367D01*
X17015229Y-14324843D01*
X17043800Y-14324843D01*
X17062848Y-14334367D01*
X17072371Y-14343890D01*
X17081895Y-14362938D01*
X17081895Y-14420081D01*
X17072371Y-14439128D01*
X17062848Y-14448652D01*
X17043800Y-14458176D01*
X17015229Y-14458176D01*
X17139038Y-14324843D02*
X17215229Y-14324843D01*
X17167610Y-14258176D02*
X17167610Y-14429605D01*
X17177133Y-14448652D01*
X17196181Y-14458176D01*
X17215229Y-14458176D01*
X17272371Y-14448652D02*
X17291419Y-14458176D01*
X17329514Y-14458176D01*
X17348562Y-14448652D01*
X17358086Y-14429605D01*
X17358086Y-14420081D01*
X17348562Y-14401033D01*
X17329514Y-14391509D01*
X17300943Y-14391509D01*
X17281895Y-14381986D01*
X17272371Y-14362938D01*
X17272371Y-14353414D01*
X17281895Y-14334367D01*
X17300943Y-14324843D01*
X17329514Y-14324843D01*
X17348562Y-14334367D01*
X17424752Y-14534367D02*
X17434276Y-14524843D01*
X17453324Y-14496271D01*
X17462848Y-14477224D01*
X17472371Y-14448652D01*
X17481895Y-14401033D01*
X17481895Y-14362938D01*
X17472371Y-14315319D01*
X17462848Y-14286748D01*
X17453324Y-14267700D01*
X17434276Y-14239128D01*
X17424752Y-14229605D01*
D18*
X10933800Y-14581700D02*
X11033800Y-14681700D01*
X11033800Y-14581700D02*
X10933800Y-14681700D01*
X11019156Y-14667056D02*
X11019156Y-14596344D01*
X10948444Y-14596344D01*
X10948444Y-14667056D01*
X11019156Y-14667056D01*
D11*
X11396181Y-14722176D02*
X11281895Y-14722176D01*
X11339038Y-14722176D02*
X11339038Y-14522176D01*
X11319990Y-14550748D01*
X11300943Y-14569795D01*
X11281895Y-14579319D01*
X11481895Y-14703128D02*
X11491419Y-14712652D01*
X11481895Y-14722176D01*
X11472371Y-14712652D01*
X11481895Y-14703128D01*
X11481895Y-14722176D01*
X11615228Y-14522176D02*
X11634276Y-14522176D01*
X11653324Y-14531700D01*
X11662848Y-14541224D01*
X11672371Y-14560271D01*
X11681895Y-14598367D01*
X11681895Y-14645986D01*
X11672371Y-14684081D01*
X11662848Y-14703128D01*
X11653324Y-14712652D01*
X11634276Y-14722176D01*
X11615228Y-14722176D01*
X11596181Y-14712652D01*
X11586657Y-14703128D01*
X11577133Y-14684081D01*
X11567609Y-14645986D01*
X11567609Y-14598367D01*
X11577133Y-14560271D01*
X11586657Y-14541224D01*
X11596181Y-14531700D01*
X11615228Y-14522176D01*
X11805705Y-14522176D02*
X11824752Y-14522176D01*
X11843800Y-14531700D01*
X11853324Y-14541224D01*
X11862848Y-14560271D01*
X11872371Y-14598367D01*
X11872371Y-14645986D01*
X11862848Y-14684081D01*
X11853324Y-14703128D01*
X11843800Y-14712652D01*
X11824752Y-14722176D01*
X11805705Y-14722176D01*
X11786657Y-14712652D01*
X11777133Y-14703128D01*
X11767609Y-14684081D01*
X11758086Y-14645986D01*
X11758086Y-14598367D01*
X11767609Y-14560271D01*
X11777133Y-14541224D01*
X11786657Y-14531700D01*
X11805705Y-14522176D01*
X11996181Y-14522176D02*
X12015228Y-14522176D01*
X12034276Y-14531700D01*
X12043800Y-14541224D01*
X12053324Y-14560271D01*
X12062848Y-14598367D01*
X12062848Y-14645986D01*
X12053324Y-14684081D01*
X12043800Y-14703128D01*
X12034276Y-14712652D01*
X12015228Y-14722176D01*
X11996181Y-14722176D01*
X11977133Y-14712652D01*
X11967609Y-14703128D01*
X11958086Y-14684081D01*
X11948562Y-14645986D01*
X11948562Y-14598367D01*
X11958086Y-14560271D01*
X11967609Y-14541224D01*
X11977133Y-14531700D01*
X11996181Y-14522176D01*
X12148562Y-14722176D02*
X12148562Y-14588843D01*
X12148562Y-14607890D02*
X12158086Y-14598367D01*
X12177133Y-14588843D01*
X12205705Y-14588843D01*
X12224752Y-14598367D01*
X12234276Y-14617414D01*
X12234276Y-14722176D01*
X12234276Y-14617414D02*
X12243800Y-14598367D01*
X12262848Y-14588843D01*
X12291419Y-14588843D01*
X12310467Y-14598367D01*
X12319990Y-14617414D01*
X12319990Y-14722176D01*
X12415228Y-14722176D02*
X12415228Y-14588843D01*
X12415228Y-14607890D02*
X12424752Y-14598367D01*
X12443800Y-14588843D01*
X12472371Y-14588843D01*
X12491419Y-14598367D01*
X12500943Y-14617414D01*
X12500943Y-14722176D01*
X12500943Y-14617414D02*
X12510467Y-14598367D01*
X12529514Y-14588843D01*
X12558086Y-14588843D01*
X12577133Y-14598367D01*
X12586657Y-14617414D01*
X12586657Y-14722176D01*
X12977133Y-14512652D02*
X12805705Y-14769795D01*
X13234276Y-14522176D02*
X13253324Y-14522176D01*
X13272371Y-14531700D01*
X13281895Y-14541224D01*
X13291419Y-14560271D01*
X13300943Y-14598367D01*
X13300943Y-14645986D01*
X13291419Y-14684081D01*
X13281895Y-14703128D01*
X13272371Y-14712652D01*
X13253324Y-14722176D01*
X13234276Y-14722176D01*
X13215228Y-14712652D01*
X13205705Y-14703128D01*
X13196181Y-14684081D01*
X13186657Y-14645986D01*
X13186657Y-14598367D01*
X13196181Y-14560271D01*
X13205705Y-14541224D01*
X13215228Y-14531700D01*
X13234276Y-14522176D01*
X13386657Y-14703128D02*
X13396181Y-14712652D01*
X13386657Y-14722176D01*
X13377133Y-14712652D01*
X13386657Y-14703128D01*
X13386657Y-14722176D01*
X13519990Y-14522176D02*
X13539038Y-14522176D01*
X13558086Y-14531700D01*
X13567609Y-14541224D01*
X13577133Y-14560271D01*
X13586657Y-14598367D01*
X13586657Y-14645986D01*
X13577133Y-14684081D01*
X13567609Y-14703128D01*
X13558086Y-14712652D01*
X13539038Y-14722176D01*
X13519990Y-14722176D01*
X13500943Y-14712652D01*
X13491419Y-14703128D01*
X13481895Y-14684081D01*
X13472371Y-14645986D01*
X13472371Y-14598367D01*
X13481895Y-14560271D01*
X13491419Y-14541224D01*
X13500943Y-14531700D01*
X13519990Y-14522176D01*
X13653324Y-14522176D02*
X13777133Y-14522176D01*
X13710467Y-14598367D01*
X13739038Y-14598367D01*
X13758086Y-14607890D01*
X13767609Y-14617414D01*
X13777133Y-14636462D01*
X13777133Y-14684081D01*
X13767609Y-14703128D01*
X13758086Y-14712652D01*
X13739038Y-14722176D01*
X13681895Y-14722176D01*
X13662848Y-14712652D01*
X13653324Y-14703128D01*
X13872371Y-14722176D02*
X13910467Y-14722176D01*
X13929514Y-14712652D01*
X13939038Y-14703128D01*
X13958086Y-14674557D01*
X13967609Y-14636462D01*
X13967609Y-14560271D01*
X13958086Y-14541224D01*
X13948562Y-14531700D01*
X13929514Y-14522176D01*
X13891419Y-14522176D01*
X13872371Y-14531700D01*
X13862848Y-14541224D01*
X13853324Y-14560271D01*
X13853324Y-14607890D01*
X13862848Y-14626938D01*
X13872371Y-14636462D01*
X13891419Y-14645986D01*
X13929514Y-14645986D01*
X13948562Y-14636462D01*
X13958086Y-14626938D01*
X13967609Y-14607890D01*
X14139038Y-14588843D02*
X14139038Y-14722176D01*
X14091419Y-14512652D02*
X14043800Y-14655509D01*
X14167609Y-14655509D01*
X14234276Y-14522176D02*
X14234276Y-14560271D01*
X14310467Y-14522176D02*
X14310467Y-14560271D01*
X14605705Y-14798367D02*
X14596181Y-14788843D01*
X14577133Y-14760271D01*
X14567609Y-14741224D01*
X14558086Y-14712652D01*
X14548562Y-14665033D01*
X14548562Y-14626938D01*
X14558086Y-14579319D01*
X14567609Y-14550748D01*
X14577133Y-14531700D01*
X14596181Y-14503128D01*
X14605705Y-14493605D01*
X14786657Y-14722176D02*
X14672371Y-14722176D01*
X14729514Y-14722176D02*
X14729514Y-14522176D01*
X14710467Y-14550748D01*
X14691419Y-14569795D01*
X14672371Y-14579319D01*
X14958086Y-14588843D02*
X14958086Y-14722176D01*
X14910467Y-14512652D02*
X14862848Y-14655509D01*
X14986657Y-14655509D01*
X15215228Y-14722176D02*
X15215228Y-14522176D01*
X15300943Y-14722176D02*
X15300943Y-14617414D01*
X15291419Y-14598367D01*
X15272371Y-14588843D01*
X15243800Y-14588843D01*
X15224752Y-14598367D01*
X15215228Y-14607890D01*
X15424752Y-14722176D02*
X15405705Y-14712652D01*
X15396181Y-14703128D01*
X15386657Y-14684081D01*
X15386657Y-14626938D01*
X15396181Y-14607890D01*
X15405705Y-14598367D01*
X15424752Y-14588843D01*
X15453324Y-14588843D01*
X15472371Y-14598367D01*
X15481895Y-14607890D01*
X15491419Y-14626938D01*
X15491419Y-14684081D01*
X15481895Y-14703128D01*
X15472371Y-14712652D01*
X15453324Y-14722176D01*
X15424752Y-14722176D01*
X15605705Y-14722176D02*
X15586657Y-14712652D01*
X15577133Y-14693605D01*
X15577133Y-14522176D01*
X15758086Y-14712652D02*
X15739038Y-14722176D01*
X15700943Y-14722176D01*
X15681895Y-14712652D01*
X15672371Y-14693605D01*
X15672371Y-14617414D01*
X15681895Y-14598367D01*
X15700943Y-14588843D01*
X15739038Y-14588843D01*
X15758086Y-14598367D01*
X15767609Y-14617414D01*
X15767609Y-14636462D01*
X15672371Y-14655509D01*
X15843800Y-14712652D02*
X15862848Y-14722176D01*
X15900943Y-14722176D01*
X15919990Y-14712652D01*
X15929514Y-14693605D01*
X15929514Y-14684081D01*
X15919990Y-14665033D01*
X15900943Y-14655509D01*
X15872371Y-14655509D01*
X15853324Y-14645986D01*
X15843800Y-14626938D01*
X15843800Y-14617414D01*
X15853324Y-14598367D01*
X15872371Y-14588843D01*
X15900943Y-14588843D01*
X15919990Y-14598367D01*
X15996181Y-14798367D02*
X16005705Y-14788843D01*
X16024752Y-14760271D01*
X16034276Y-14741224D01*
X16043800Y-14712652D01*
X16053324Y-14665033D01*
X16053324Y-14626938D01*
X16043800Y-14579319D01*
X16034276Y-14550748D01*
X16024752Y-14531700D01*
X16005705Y-14503128D01*
X15996181Y-14493605D01*
X10833800Y-14795700D02*
X11033800Y-14995700D01*
X11033800Y-14795700D02*
X10833800Y-14995700D01*
X10933800Y-14995700D02*
X11033800Y-14895700D01*
X10933800Y-14795700D01*
X10833800Y-14895700D01*
X10933800Y-14995700D01*
X11272371Y-14786176D02*
X11396181Y-14786176D01*
X11329514Y-14862367D01*
X11358086Y-14862367D01*
X11377133Y-14871890D01*
X11386657Y-14881414D01*
X11396181Y-14900462D01*
X11396181Y-14948081D01*
X11386657Y-14967128D01*
X11377133Y-14976652D01*
X11358086Y-14986176D01*
X11300943Y-14986176D01*
X11281895Y-14976652D01*
X11272371Y-14967128D01*
X11481895Y-14967128D02*
X11491419Y-14976652D01*
X11481895Y-14986176D01*
X11472371Y-14976652D01*
X11481895Y-14967128D01*
X11481895Y-14986176D01*
X11567609Y-14805224D02*
X11577133Y-14795700D01*
X11596181Y-14786176D01*
X11643800Y-14786176D01*
X11662848Y-14795700D01*
X11672371Y-14805224D01*
X11681895Y-14824271D01*
X11681895Y-14843319D01*
X11672371Y-14871890D01*
X11558086Y-14986176D01*
X11681895Y-14986176D01*
X11805705Y-14786176D02*
X11824752Y-14786176D01*
X11843800Y-14795700D01*
X11853324Y-14805224D01*
X11862848Y-14824271D01*
X11872371Y-14862367D01*
X11872371Y-14909986D01*
X11862848Y-14948081D01*
X11853324Y-14967128D01*
X11843800Y-14976652D01*
X11824752Y-14986176D01*
X11805705Y-14986176D01*
X11786657Y-14976652D01*
X11777133Y-14967128D01*
X11767609Y-14948081D01*
X11758086Y-14909986D01*
X11758086Y-14862367D01*
X11767609Y-14824271D01*
X11777133Y-14805224D01*
X11786657Y-14795700D01*
X11805705Y-14786176D01*
X11996181Y-14786176D02*
X12015228Y-14786176D01*
X12034276Y-14795700D01*
X12043800Y-14805224D01*
X12053324Y-14824271D01*
X12062848Y-14862367D01*
X12062848Y-14909986D01*
X12053324Y-14948081D01*
X12043800Y-14967128D01*
X12034276Y-14976652D01*
X12015228Y-14986176D01*
X11996181Y-14986176D01*
X11977133Y-14976652D01*
X11967609Y-14967128D01*
X11958086Y-14948081D01*
X11948562Y-14909986D01*
X11948562Y-14862367D01*
X11958086Y-14824271D01*
X11967609Y-14805224D01*
X11977133Y-14795700D01*
X11996181Y-14786176D01*
X12148562Y-14986176D02*
X12148562Y-14852843D01*
X12148562Y-14871890D02*
X12158086Y-14862367D01*
X12177133Y-14852843D01*
X12205705Y-14852843D01*
X12224752Y-14862367D01*
X12234276Y-14881414D01*
X12234276Y-14986176D01*
X12234276Y-14881414D02*
X12243800Y-14862367D01*
X12262848Y-14852843D01*
X12291419Y-14852843D01*
X12310467Y-14862367D01*
X12319990Y-14881414D01*
X12319990Y-14986176D01*
X12415228Y-14986176D02*
X12415228Y-14852843D01*
X12415228Y-14871890D02*
X12424752Y-14862367D01*
X12443800Y-14852843D01*
X12472371Y-14852843D01*
X12491419Y-14862367D01*
X12500943Y-14881414D01*
X12500943Y-14986176D01*
X12500943Y-14881414D02*
X12510467Y-14862367D01*
X12529514Y-14852843D01*
X12558086Y-14852843D01*
X12577133Y-14862367D01*
X12586657Y-14881414D01*
X12586657Y-14986176D01*
X12977133Y-14776652D02*
X12805705Y-15033795D01*
X13234276Y-14786176D02*
X13253324Y-14786176D01*
X13272371Y-14795700D01*
X13281895Y-14805224D01*
X13291419Y-14824271D01*
X13300943Y-14862367D01*
X13300943Y-14909986D01*
X13291419Y-14948081D01*
X13281895Y-14967128D01*
X13272371Y-14976652D01*
X13253324Y-14986176D01*
X13234276Y-14986176D01*
X13215228Y-14976652D01*
X13205705Y-14967128D01*
X13196181Y-14948081D01*
X13186657Y-14909986D01*
X13186657Y-14862367D01*
X13196181Y-14824271D01*
X13205705Y-14805224D01*
X13215228Y-14795700D01*
X13234276Y-14786176D01*
X13386657Y-14967128D02*
X13396181Y-14976652D01*
X13386657Y-14986176D01*
X13377133Y-14976652D01*
X13386657Y-14967128D01*
X13386657Y-14986176D01*
X13586657Y-14986176D02*
X13472371Y-14986176D01*
X13529514Y-14986176D02*
X13529514Y-14786176D01*
X13510467Y-14814748D01*
X13491419Y-14833795D01*
X13472371Y-14843319D01*
X13662848Y-14805224D02*
X13672371Y-14795700D01*
X13691419Y-14786176D01*
X13739038Y-14786176D01*
X13758086Y-14795700D01*
X13767609Y-14805224D01*
X13777133Y-14824271D01*
X13777133Y-14843319D01*
X13767609Y-14871890D01*
X13653324Y-14986176D01*
X13777133Y-14986176D01*
X13948562Y-14786176D02*
X13910467Y-14786176D01*
X13891419Y-14795700D01*
X13881895Y-14805224D01*
X13862848Y-14833795D01*
X13853324Y-14871890D01*
X13853324Y-14948081D01*
X13862848Y-14967128D01*
X13872371Y-14976652D01*
X13891419Y-14986176D01*
X13929514Y-14986176D01*
X13948562Y-14976652D01*
X13958086Y-14967128D01*
X13967609Y-14948081D01*
X13967609Y-14900462D01*
X13958086Y-14881414D01*
X13948562Y-14871890D01*
X13929514Y-14862367D01*
X13891419Y-14862367D01*
X13872371Y-14871890D01*
X13862848Y-14881414D01*
X13853324Y-14900462D01*
X14091419Y-14786176D02*
X14110467Y-14786176D01*
X14129514Y-14795700D01*
X14139038Y-14805224D01*
X14148562Y-14824271D01*
X14158086Y-14862367D01*
X14158086Y-14909986D01*
X14148562Y-14948081D01*
X14139038Y-14967128D01*
X14129514Y-14976652D01*
X14110467Y-14986176D01*
X14091419Y-14986176D01*
X14072371Y-14976652D01*
X14062848Y-14967128D01*
X14053324Y-14948081D01*
X14043800Y-14909986D01*
X14043800Y-14862367D01*
X14053324Y-14824271D01*
X14062848Y-14805224D01*
X14072371Y-14795700D01*
X14091419Y-14786176D01*
X14234276Y-14786176D02*
X14234276Y-14824271D01*
X14310467Y-14786176D02*
X14310467Y-14824271D01*
X14605705Y-15062367D02*
X14596181Y-15052843D01*
X14577133Y-15024271D01*
X14567609Y-15005224D01*
X14558086Y-14976652D01*
X14548562Y-14929033D01*
X14548562Y-14890938D01*
X14558086Y-14843319D01*
X14567609Y-14814748D01*
X14577133Y-14795700D01*
X14596181Y-14767128D01*
X14605705Y-14757605D01*
X14662848Y-14786176D02*
X14786657Y-14786176D01*
X14719990Y-14862367D01*
X14748562Y-14862367D01*
X14767609Y-14871890D01*
X14777133Y-14881414D01*
X14786657Y-14900462D01*
X14786657Y-14948081D01*
X14777133Y-14967128D01*
X14767609Y-14976652D01*
X14748562Y-14986176D01*
X14691419Y-14986176D01*
X14672371Y-14976652D01*
X14662848Y-14967128D01*
X15024752Y-14986176D02*
X15024752Y-14786176D01*
X15110467Y-14986176D02*
X15110467Y-14881414D01*
X15100943Y-14862367D01*
X15081895Y-14852843D01*
X15053324Y-14852843D01*
X15034276Y-14862367D01*
X15024752Y-14871890D01*
X15234276Y-14986176D02*
X15215228Y-14976652D01*
X15205705Y-14967128D01*
X15196181Y-14948081D01*
X15196181Y-14890938D01*
X15205705Y-14871890D01*
X15215228Y-14862367D01*
X15234276Y-14852843D01*
X15262848Y-14852843D01*
X15281895Y-14862367D01*
X15291419Y-14871890D01*
X15300943Y-14890938D01*
X15300943Y-14948081D01*
X15291419Y-14967128D01*
X15281895Y-14976652D01*
X15262848Y-14986176D01*
X15234276Y-14986176D01*
X15415228Y-14986176D02*
X15396181Y-14976652D01*
X15386657Y-14957605D01*
X15386657Y-14786176D01*
X15567609Y-14976652D02*
X15548562Y-14986176D01*
X15510467Y-14986176D01*
X15491419Y-14976652D01*
X15481895Y-14957605D01*
X15481895Y-14881414D01*
X15491419Y-14862367D01*
X15510467Y-14852843D01*
X15548562Y-14852843D01*
X15567609Y-14862367D01*
X15577133Y-14881414D01*
X15577133Y-14900462D01*
X15481895Y-14919509D01*
X15653324Y-14976652D02*
X15672371Y-14986176D01*
X15710467Y-14986176D01*
X15729514Y-14976652D01*
X15739038Y-14957605D01*
X15739038Y-14948081D01*
X15729514Y-14929033D01*
X15710467Y-14919509D01*
X15681895Y-14919509D01*
X15662848Y-14909986D01*
X15653324Y-14890938D01*
X15653324Y-14881414D01*
X15662848Y-14862367D01*
X15681895Y-14852843D01*
X15710467Y-14852843D01*
X15729514Y-14862367D01*
X15805705Y-15062367D02*
X15815228Y-15052843D01*
X15834276Y-15024271D01*
X15843800Y-15005224D01*
X15853324Y-14976652D01*
X15862848Y-14929033D01*
X15862848Y-14890938D01*
X15853324Y-14843319D01*
X15843800Y-14814748D01*
X15834276Y-14795700D01*
X15815228Y-14767128D01*
X15805705Y-14757605D01*
M02*
