G04 #@! TF.GenerationSoftware,KiCad,Pcbnew,(6.0.2-0)*
G04 #@! TF.CreationDate,2022-02-13T15:07:21-08:00*
G04 #@! TF.ProjectId,TimTime,54696d54-696d-4652-9e6b-696361645f70,rev?*
G04 #@! TF.SameCoordinates,Original*
G04 #@! TF.FileFunction,Copper,L2,Inr*
G04 #@! TF.FilePolarity,Positive*
%FSLAX46Y46*%
G04 Gerber Fmt 4.6, Leading zero omitted, Abs format (unit mm)*
G04 Created by KiCad (PCBNEW (6.0.2-0)) date 2022-02-13 15:07:21*
%MOMM*%
%LPD*%
G01*
G04 APERTURE LIST*
G04 #@! TA.AperFunction,ComponentPad*
%ADD10O,2.616000X1.308000*%
G04 #@! TD*
G04 #@! TA.AperFunction,ComponentPad*
%ADD11O,1.308000X2.616000*%
G04 #@! TD*
G04 #@! TA.AperFunction,ComponentPad*
%ADD12C,0.650000*%
G04 #@! TD*
G04 #@! TA.AperFunction,ComponentPad*
%ADD13O,2.216000X1.108000*%
G04 #@! TD*
G04 #@! TA.AperFunction,ComponentPad*
%ADD14R,1.700000X1.700000*%
G04 #@! TD*
G04 #@! TA.AperFunction,ComponentPad*
%ADD15O,1.700000X1.700000*%
G04 #@! TD*
G04 #@! TA.AperFunction,ComponentPad*
%ADD16C,0.800000*%
G04 #@! TD*
G04 #@! TA.AperFunction,ComponentPad*
%ADD17C,6.400000*%
G04 #@! TD*
G04 #@! TA.AperFunction,ViaPad*
%ADD18C,0.450000*%
G04 #@! TD*
G04 #@! TA.AperFunction,ViaPad*
%ADD19C,0.800000*%
G04 #@! TD*
G04 #@! TA.AperFunction,ViaPad*
%ADD20C,0.500000*%
G04 #@! TD*
G04 #@! TA.AperFunction,Conductor*
%ADD21C,0.200000*%
G04 #@! TD*
G04 APERTURE END LIST*
D10*
G04 #@! TO.N,unconnected-(J2-Pad3)*
G04 #@! TO.C,J2*
X160049200Y-100203000D03*
G04 #@! TO.N,Net-(J2-Pad2)*
X160049200Y-110203000D03*
D11*
G04 #@! TO.N,GND*
X165049200Y-105203000D03*
G04 #@! TD*
D12*
G04 #@! TO.N,GND*
G04 #@! TO.C,J1*
X116412000Y-108458000D03*
G04 #@! TO.N,VBUS*
X116412000Y-107608000D03*
G04 #@! TO.N,CC1*
X116412000Y-106758000D03*
G04 #@! TO.N,USB_D+*
X116412000Y-105908000D03*
G04 #@! TO.N,USB_D-*
X116412000Y-105058000D03*
G04 #@! TO.N,unconnected-(J1-PadA8)*
X116412000Y-104208000D03*
G04 #@! TO.N,VBUS*
X116412000Y-103358000D03*
G04 #@! TO.N,GND*
X116412000Y-102508000D03*
X115062000Y-102508000D03*
G04 #@! TO.N,VBUS*
X115062000Y-103358000D03*
G04 #@! TO.N,CC2*
X115062000Y-104208000D03*
G04 #@! TO.N,USB_D+*
X115062000Y-105058000D03*
G04 #@! TO.N,USB_D-*
X115062000Y-105908000D03*
G04 #@! TO.N,unconnected-(J1-PadB8)*
X115062000Y-106758000D03*
G04 #@! TO.N,VBUS*
X115062000Y-107608000D03*
G04 #@! TO.N,GND*
X115062000Y-108458000D03*
D13*
G04 #@! TO.N,Net-(J1-PadP1)*
X115432000Y-109808000D03*
X115432000Y-101158000D03*
X112052000Y-101158000D03*
X112052000Y-109808000D03*
G04 #@! TD*
D14*
G04 #@! TO.N,GND*
G04 #@! TO.C,J3*
X133858000Y-91186000D03*
D15*
G04 #@! TO.N,+2V8*
X136398000Y-91186000D03*
G04 #@! TO.N,MON_SCL*
X138938000Y-91186000D03*
G04 #@! TO.N,MON_SDA*
X141478000Y-91186000D03*
G04 #@! TD*
D14*
G04 #@! TO.N,+2V8*
G04 #@! TO.C,J4*
X149733000Y-119634000D03*
D15*
G04 #@! TO.N,SWCLK*
X147193000Y-119634000D03*
G04 #@! TO.N,GND*
X144653000Y-119634000D03*
G04 #@! TO.N,SWDIO*
X142113000Y-119634000D03*
G04 #@! TO.N,NRST*
X139573000Y-119634000D03*
G04 #@! TO.N,SWO*
X137033000Y-119634000D03*
G04 #@! TD*
G04 #@! TO.N,+BATT*
G04 #@! TO.C,J5*
X112166400Y-93116400D03*
D14*
G04 #@! TO.N,GND*
X112166400Y-95656400D03*
G04 #@! TD*
D15*
G04 #@! TO.N,OSC*
G04 #@! TO.C,J6*
X155067000Y-91567000D03*
D14*
G04 #@! TO.N,GND*
X157607000Y-91567000D03*
G04 #@! TD*
D16*
G04 #@! TO.N,GND*
G04 #@! TO.C,H2*
X166416056Y-91266944D03*
X164719000Y-90564000D03*
X163021944Y-91266944D03*
X162319000Y-92964000D03*
X163021944Y-94661056D03*
X164719000Y-95364000D03*
X166416056Y-94661056D03*
X167119000Y-92964000D03*
D17*
X164719000Y-92964000D03*
G04 #@! TD*
G04 #@! TO.N,GND*
G04 #@! TO.C,H3*
X164719000Y-117602000D03*
D16*
X167119000Y-117602000D03*
X166416056Y-119299056D03*
X164719000Y-120002000D03*
X163021944Y-119299056D03*
X162319000Y-117602000D03*
X163021944Y-115904944D03*
X164719000Y-115202000D03*
X166416056Y-115904944D03*
G04 #@! TD*
G04 #@! TO.N,GND*
G04 #@! TO.C,H4*
X115870056Y-115904944D03*
X114173000Y-115202000D03*
X112475944Y-115904944D03*
X111773000Y-117602000D03*
X112475944Y-119299056D03*
X114173000Y-120002000D03*
X115870056Y-119299056D03*
X116573000Y-117602000D03*
D17*
X114173000Y-117602000D03*
G04 #@! TD*
D18*
G04 #@! TO.N,GND*
X149656800Y-97383600D03*
X119380000Y-106121200D03*
G04 #@! TO.N,OSC*
X139446000Y-102971600D03*
G04 #@! TO.N,TC_OUT*
X138871500Y-101650800D03*
X150164800Y-108356400D03*
G04 #@! TO.N,STAT2*
X117805200Y-107492800D03*
G04 #@! TO.N,STAT1*
X117551200Y-103936800D03*
G04 #@! TO.N,GND*
X160985200Y-112522000D03*
G04 #@! TO.N,+2V8*
X161848800Y-104648000D03*
X158089600Y-94742000D03*
G04 #@! TO.N,BTN_A*
X156108400Y-96113600D03*
G04 #@! TO.N,GND*
X152958800Y-117144800D03*
G04 #@! TO.N,+2V8*
X158089600Y-114757200D03*
G04 #@! TO.N,GND*
X143560800Y-114249200D03*
X130149600Y-110388400D03*
G04 #@! TO.N,USB_D-*
X132237076Y-105399814D03*
G04 #@! TO.N,USB_D+*
X132938967Y-105795380D03*
G04 #@! TO.N,GND*
X131114800Y-110439200D03*
G04 #@! TO.N,+3V3*
X127660400Y-105918000D03*
D19*
G04 #@! TO.N,+2V8*
X131572000Y-98171000D03*
X148336000Y-96520000D03*
X134239000Y-110998000D03*
X130429000Y-103124000D03*
X131826000Y-107569000D03*
X144907000Y-110363000D03*
D18*
X153924000Y-106105000D03*
D19*
X129159000Y-93255000D03*
G04 #@! TO.N,GND*
X147955000Y-108839000D03*
X144653000Y-112141000D03*
X136906000Y-115951000D03*
X134239000Y-115189000D03*
X123063000Y-108966000D03*
X116332000Y-97917000D03*
X114808000Y-113030000D03*
X124841000Y-98679000D03*
X127254000Y-98679000D03*
X129667000Y-98552000D03*
X130937000Y-96266000D03*
X132207000Y-97155000D03*
X146558000Y-96520000D03*
X144780000Y-96520000D03*
X149860000Y-100076000D03*
X117729000Y-102489000D03*
D18*
X125222000Y-104394000D03*
D19*
X141478000Y-110236000D03*
X136144000Y-97282000D03*
D18*
X146494500Y-103441500D03*
X147066000Y-102108000D03*
X148590000Y-101727000D03*
X150495000Y-101727000D03*
X152527000Y-101727000D03*
X154432000Y-101727000D03*
X155829000Y-102997000D03*
X155829000Y-104394000D03*
X155829000Y-105664000D03*
X154432000Y-106680000D03*
X153035000Y-106680000D03*
X151257000Y-106680000D03*
X149352000Y-106680000D03*
X147828000Y-106680000D03*
X145796000Y-105791000D03*
X146685000Y-106172000D03*
X145161000Y-103672500D03*
X144780000Y-105791000D03*
D19*
X120523000Y-100076000D03*
D18*
X133731000Y-106680000D03*
X143129000Y-94234000D03*
D19*
X121539000Y-102743000D03*
X120142000Y-102743000D03*
X117983000Y-110109000D03*
D20*
X131064000Y-114173000D03*
X125603000Y-116078000D03*
X122047000Y-113538000D03*
X122301000Y-97155000D03*
D18*
G04 #@! TO.N,MON_SCL*
X137922000Y-98552000D03*
G04 #@! TO.N,MON_SDA*
X137160000Y-98552000D03*
X137160000Y-94615000D03*
G04 #@! TO.N,Net-(C3-Pad1)*
X153670000Y-102870000D03*
X153515000Y-100838000D03*
D20*
G04 #@! TO.N,VAA*
X145161000Y-102870000D03*
X145161000Y-100838000D03*
D19*
G04 #@! TO.N,+BATT*
X138684000Y-93980000D03*
D18*
G04 #@! TO.N,STAT1*
X130810000Y-104013000D03*
D20*
G04 #@! TO.N,STAT2*
X129667000Y-106426000D03*
G04 #@! TO.N,SWCLK*
X136779000Y-117348000D03*
D18*
X136413500Y-109966500D03*
G04 #@! TO.N,SWDIO*
X139827000Y-106934000D03*
D19*
G04 #@! TO.N,NRST*
X138938000Y-104394000D03*
D18*
G04 #@! TO.N,SWO*
X137413500Y-109982500D03*
G04 #@! TO.N,TCVC*
X149733000Y-98552000D03*
X141351000Y-101854000D03*
G04 #@! TO.N,TC_IN*
X146177000Y-101219000D03*
X151892000Y-110236000D03*
G04 #@! TO.N,BTN_A*
X141224000Y-113030000D03*
D20*
G04 #@! TO.N,BTN_PWR*
X136906000Y-101727000D03*
X134493000Y-95123000D03*
G04 #@! TD*
D21*
G04 #@! TO.N,GND*
X115062000Y-102508000D02*
X116412000Y-102508000D01*
G04 #@! TD*
G04 #@! TA.AperFunction,Conductor*
G04 #@! TO.N,GND*
G36*
X132750094Y-89682002D02*
G01*
X132796587Y-89735658D01*
X132806691Y-89805932D01*
X132777197Y-89870512D01*
X132757538Y-89888826D01*
X132652276Y-89967715D01*
X132639715Y-89980276D01*
X132563214Y-90082351D01*
X132554676Y-90097946D01*
X132509522Y-90218394D01*
X132505895Y-90233649D01*
X132500369Y-90284514D01*
X132500000Y-90291328D01*
X132500000Y-90913885D01*
X132504475Y-90929124D01*
X132505865Y-90930329D01*
X132513548Y-90932000D01*
X133986000Y-90932000D01*
X134054121Y-90952002D01*
X134100614Y-91005658D01*
X134112000Y-91058000D01*
X134112000Y-92525884D01*
X134116475Y-92541123D01*
X134117865Y-92542328D01*
X134125548Y-92543999D01*
X134752669Y-92543999D01*
X134759490Y-92543629D01*
X134810352Y-92538105D01*
X134825604Y-92534479D01*
X134946054Y-92489324D01*
X134961649Y-92480786D01*
X135063724Y-92404285D01*
X135076285Y-92391724D01*
X135152786Y-92289649D01*
X135161324Y-92274054D01*
X135202225Y-92164952D01*
X135244867Y-92108188D01*
X135311428Y-92083488D01*
X135380777Y-92098696D01*
X135415444Y-92126684D01*
X135440865Y-92156031D01*
X135440869Y-92156035D01*
X135444250Y-92159938D01*
X135616126Y-92302632D01*
X135809000Y-92415338D01*
X136017692Y-92495030D01*
X136022760Y-92496061D01*
X136022763Y-92496062D01*
X136130017Y-92517883D01*
X136236597Y-92539567D01*
X136241772Y-92539757D01*
X136241774Y-92539757D01*
X136454673Y-92547564D01*
X136454677Y-92547564D01*
X136459837Y-92547753D01*
X136464957Y-92547097D01*
X136464959Y-92547097D01*
X136676288Y-92520025D01*
X136676289Y-92520025D01*
X136681416Y-92519368D01*
X136746196Y-92499933D01*
X136890429Y-92456661D01*
X136890434Y-92456659D01*
X136895384Y-92455174D01*
X137095994Y-92356896D01*
X137277860Y-92227173D01*
X137285710Y-92219351D01*
X137389173Y-92116248D01*
X137436096Y-92069489D01*
X137445249Y-92056752D01*
X137566453Y-91888077D01*
X137567776Y-91889028D01*
X137614645Y-91845857D01*
X137684580Y-91833625D01*
X137750026Y-91861144D01*
X137777875Y-91892994D01*
X137837987Y-91991088D01*
X137984250Y-92159938D01*
X138156126Y-92302632D01*
X138349000Y-92415338D01*
X138557692Y-92495030D01*
X138562760Y-92496061D01*
X138562763Y-92496062D01*
X138670017Y-92517883D01*
X138776597Y-92539567D01*
X138781772Y-92539757D01*
X138781774Y-92539757D01*
X138994673Y-92547564D01*
X138994677Y-92547564D01*
X138999837Y-92547753D01*
X139004957Y-92547097D01*
X139004959Y-92547097D01*
X139216288Y-92520025D01*
X139216289Y-92520025D01*
X139221416Y-92519368D01*
X139286196Y-92499933D01*
X139430429Y-92456661D01*
X139430434Y-92456659D01*
X139435384Y-92455174D01*
X139635994Y-92356896D01*
X139817860Y-92227173D01*
X139825710Y-92219351D01*
X139929173Y-92116248D01*
X139976096Y-92069489D01*
X139985249Y-92056752D01*
X140106453Y-91888077D01*
X140107776Y-91889028D01*
X140154645Y-91845857D01*
X140224580Y-91833625D01*
X140290026Y-91861144D01*
X140317875Y-91892994D01*
X140377987Y-91991088D01*
X140524250Y-92159938D01*
X140696126Y-92302632D01*
X140889000Y-92415338D01*
X141097692Y-92495030D01*
X141102760Y-92496061D01*
X141102763Y-92496062D01*
X141210017Y-92517883D01*
X141316597Y-92539567D01*
X141321772Y-92539757D01*
X141321774Y-92539757D01*
X141534673Y-92547564D01*
X141534677Y-92547564D01*
X141539837Y-92547753D01*
X141544957Y-92547097D01*
X141544959Y-92547097D01*
X141756288Y-92520025D01*
X141756289Y-92520025D01*
X141761416Y-92519368D01*
X141826196Y-92499933D01*
X141970429Y-92456661D01*
X141970434Y-92456659D01*
X141975384Y-92455174D01*
X142175994Y-92356896D01*
X142357860Y-92227173D01*
X142365710Y-92219351D01*
X142469173Y-92116248D01*
X142516096Y-92069489D01*
X142525249Y-92056752D01*
X142643435Y-91892277D01*
X142646453Y-91888077D01*
X142659269Y-91862147D01*
X142743136Y-91692453D01*
X142743137Y-91692451D01*
X142745430Y-91687811D01*
X142792254Y-91533695D01*
X153704251Y-91533695D01*
X153704548Y-91538848D01*
X153704548Y-91538851D01*
X153710011Y-91633590D01*
X153717110Y-91756715D01*
X153718247Y-91761761D01*
X153718248Y-91761767D01*
X153734651Y-91834548D01*
X153766222Y-91974639D01*
X153816596Y-92098696D01*
X153843500Y-92164952D01*
X153850266Y-92181616D01*
X153885245Y-92238697D01*
X153959073Y-92359173D01*
X153966987Y-92372088D01*
X154113250Y-92540938D01*
X154189846Y-92604529D01*
X154277261Y-92677102D01*
X154285126Y-92683632D01*
X154478000Y-92796338D01*
X154686692Y-92876030D01*
X154691760Y-92877061D01*
X154691763Y-92877062D01*
X154754024Y-92889729D01*
X154905597Y-92920567D01*
X154910772Y-92920757D01*
X154910774Y-92920757D01*
X155123673Y-92928564D01*
X155123677Y-92928564D01*
X155128837Y-92928753D01*
X155133957Y-92928097D01*
X155133959Y-92928097D01*
X155345288Y-92901025D01*
X155345289Y-92901025D01*
X155350416Y-92900368D01*
X155372438Y-92893761D01*
X155559429Y-92837661D01*
X155559434Y-92837659D01*
X155564384Y-92836174D01*
X155764994Y-92737896D01*
X155946860Y-92608173D01*
X155982529Y-92572629D01*
X156055479Y-92499933D01*
X156117851Y-92466017D01*
X156188658Y-92471205D01*
X156245419Y-92513851D01*
X156262401Y-92544954D01*
X156303676Y-92655054D01*
X156312214Y-92670649D01*
X156388715Y-92772724D01*
X156401276Y-92785285D01*
X156503351Y-92861786D01*
X156518946Y-92870324D01*
X156639394Y-92915478D01*
X156654649Y-92919105D01*
X156705514Y-92924631D01*
X156712328Y-92925000D01*
X157334885Y-92925000D01*
X157350124Y-92920525D01*
X157351329Y-92919135D01*
X157353000Y-92911452D01*
X157353000Y-92906884D01*
X157861000Y-92906884D01*
X157865475Y-92922123D01*
X157866865Y-92923328D01*
X157874548Y-92924999D01*
X158501669Y-92924999D01*
X158508490Y-92924629D01*
X158559352Y-92919105D01*
X158574604Y-92915479D01*
X158695054Y-92870324D01*
X158710649Y-92861786D01*
X158812724Y-92785285D01*
X158825285Y-92772724D01*
X158901786Y-92670649D01*
X158910324Y-92655054D01*
X158955478Y-92534606D01*
X158959105Y-92519351D01*
X158964631Y-92468486D01*
X158965000Y-92461672D01*
X158965000Y-91839115D01*
X158960525Y-91823876D01*
X158959135Y-91822671D01*
X158951452Y-91821000D01*
X157879115Y-91821000D01*
X157863876Y-91825475D01*
X157862671Y-91826865D01*
X157861000Y-91834548D01*
X157861000Y-92906884D01*
X157353000Y-92906884D01*
X157353000Y-91294885D01*
X157861000Y-91294885D01*
X157865475Y-91310124D01*
X157866865Y-91311329D01*
X157874548Y-91313000D01*
X158946884Y-91313000D01*
X158962123Y-91308525D01*
X158963328Y-91307135D01*
X158964999Y-91299452D01*
X158964999Y-90672331D01*
X158964629Y-90665510D01*
X158959105Y-90614648D01*
X158955479Y-90599396D01*
X158910324Y-90478946D01*
X158901786Y-90463351D01*
X158825285Y-90361276D01*
X158812724Y-90348715D01*
X158710649Y-90272214D01*
X158695054Y-90263676D01*
X158574606Y-90218522D01*
X158559351Y-90214895D01*
X158508486Y-90209369D01*
X158501672Y-90209000D01*
X157879115Y-90209000D01*
X157863876Y-90213475D01*
X157862671Y-90214865D01*
X157861000Y-90222548D01*
X157861000Y-91294885D01*
X157353000Y-91294885D01*
X157353000Y-90227116D01*
X157348525Y-90211877D01*
X157347135Y-90210672D01*
X157339452Y-90209001D01*
X156712331Y-90209001D01*
X156705510Y-90209371D01*
X156654648Y-90214895D01*
X156639396Y-90218521D01*
X156518946Y-90263676D01*
X156503351Y-90272214D01*
X156401276Y-90348715D01*
X156388715Y-90361276D01*
X156312214Y-90463351D01*
X156303676Y-90478946D01*
X156262297Y-90589322D01*
X156219655Y-90646087D01*
X156153093Y-90670786D01*
X156083744Y-90655578D01*
X156051121Y-90629891D01*
X156000151Y-90573876D01*
X156000148Y-90573873D01*
X155996670Y-90570051D01*
X155992619Y-90566852D01*
X155992615Y-90566848D01*
X155825414Y-90434800D01*
X155825410Y-90434798D01*
X155821359Y-90431598D01*
X155625789Y-90323638D01*
X155620920Y-90321914D01*
X155620916Y-90321912D01*
X155420087Y-90250795D01*
X155420083Y-90250794D01*
X155415212Y-90249069D01*
X155410119Y-90248162D01*
X155410116Y-90248161D01*
X155200373Y-90210800D01*
X155200367Y-90210799D01*
X155195284Y-90209894D01*
X155121452Y-90208992D01*
X154977081Y-90207228D01*
X154977079Y-90207228D01*
X154971911Y-90207165D01*
X154751091Y-90240955D01*
X154538756Y-90310357D01*
X154340607Y-90413507D01*
X154336474Y-90416610D01*
X154336471Y-90416612D01*
X154173178Y-90539216D01*
X154161965Y-90547635D01*
X154007629Y-90709138D01*
X154004715Y-90713410D01*
X154004714Y-90713411D01*
X153975318Y-90756504D01*
X153881743Y-90893680D01*
X153863956Y-90932000D01*
X153805469Y-91058000D01*
X153787688Y-91096305D01*
X153727989Y-91311570D01*
X153704251Y-91533695D01*
X142792254Y-91533695D01*
X142810370Y-91474069D01*
X142839529Y-91252590D01*
X142841156Y-91186000D01*
X142822852Y-90963361D01*
X142768431Y-90746702D01*
X142679354Y-90541840D01*
X142606420Y-90429101D01*
X142560822Y-90358617D01*
X142560820Y-90358614D01*
X142558014Y-90354277D01*
X142407670Y-90189051D01*
X142403619Y-90185852D01*
X142403615Y-90185848D01*
X142236414Y-90053800D01*
X142236410Y-90053798D01*
X142232359Y-90050598D01*
X142036789Y-89942638D01*
X142031920Y-89940914D01*
X142031916Y-89940912D01*
X141935509Y-89906773D01*
X141877973Y-89865179D01*
X141852057Y-89799081D01*
X141865991Y-89729465D01*
X141915350Y-89678434D01*
X141977569Y-89662000D01*
X162570086Y-89662000D01*
X162638207Y-89682002D01*
X162684700Y-89735658D01*
X162694804Y-89805932D01*
X162665310Y-89870512D01*
X162638710Y-89893673D01*
X162539265Y-89958253D01*
X162533939Y-89962123D01*
X162295165Y-90155478D01*
X162286700Y-90167733D01*
X162293034Y-90178824D01*
X167503310Y-95389100D01*
X167516386Y-95396241D01*
X167526753Y-95388784D01*
X167720877Y-95149061D01*
X167724747Y-95143735D01*
X167789327Y-95044290D01*
X167843204Y-94998053D01*
X167913525Y-94988283D01*
X167977965Y-95018083D01*
X168016064Y-95077991D01*
X168021000Y-95112914D01*
X168021000Y-99013246D01*
X168000998Y-99081367D01*
X167947342Y-99127860D01*
X167877068Y-99137964D01*
X167866061Y-99135555D01*
X167865463Y-99135314D01*
X167657863Y-99094772D01*
X167652301Y-99094500D01*
X167496354Y-99094500D01*
X167338634Y-99109548D01*
X167135666Y-99169092D01*
X167130339Y-99171836D01*
X167130338Y-99171836D01*
X166952951Y-99263196D01*
X166952948Y-99263198D01*
X166947620Y-99265942D01*
X166781280Y-99396604D01*
X166777348Y-99401135D01*
X166777345Y-99401138D01*
X166708674Y-99480275D01*
X166642648Y-99556363D01*
X166639648Y-99561549D01*
X166639645Y-99561553D01*
X166592512Y-99643026D01*
X166536727Y-99739454D01*
X166467339Y-99939271D01*
X166466478Y-99945206D01*
X166466478Y-99945208D01*
X166440885Y-100121723D01*
X166436987Y-100148604D01*
X166446767Y-100359899D01*
X166448171Y-100365724D01*
X166448171Y-100365725D01*
X166488866Y-100534582D01*
X166496325Y-100565534D01*
X166498807Y-100570992D01*
X166498808Y-100570996D01*
X166544615Y-100671742D01*
X166583874Y-100758087D01*
X166652370Y-100854649D01*
X166700281Y-100922190D01*
X166706254Y-100930611D01*
X166859050Y-101076881D01*
X167036748Y-101191620D01*
X167074660Y-101206899D01*
X167227368Y-101268442D01*
X167227371Y-101268443D01*
X167232937Y-101270686D01*
X167440537Y-101311228D01*
X167446099Y-101311500D01*
X167602046Y-101311500D01*
X167759766Y-101296452D01*
X167859532Y-101267184D01*
X167930527Y-101267201D01*
X167990244Y-101305599D01*
X168019722Y-101370187D01*
X168021000Y-101388089D01*
X168021000Y-109013246D01*
X168000998Y-109081367D01*
X167947342Y-109127860D01*
X167877068Y-109137964D01*
X167866061Y-109135555D01*
X167865463Y-109135314D01*
X167657863Y-109094772D01*
X167652301Y-109094500D01*
X167496354Y-109094500D01*
X167338634Y-109109548D01*
X167135666Y-109169092D01*
X167130339Y-109171836D01*
X167130338Y-109171836D01*
X166952951Y-109263196D01*
X166952948Y-109263198D01*
X166947620Y-109265942D01*
X166781280Y-109396604D01*
X166777348Y-109401135D01*
X166777345Y-109401138D01*
X166676492Y-109517361D01*
X166642648Y-109556363D01*
X166639648Y-109561549D01*
X166639645Y-109561553D01*
X166584448Y-109656965D01*
X166536727Y-109739454D01*
X166467339Y-109939271D01*
X166466478Y-109945206D01*
X166466478Y-109945208D01*
X166439800Y-110129206D01*
X166436987Y-110148604D01*
X166446767Y-110359899D01*
X166448171Y-110365724D01*
X166448171Y-110365725D01*
X166493784Y-110554989D01*
X166496325Y-110565534D01*
X166498807Y-110570992D01*
X166498808Y-110570996D01*
X166542253Y-110666546D01*
X166583874Y-110758087D01*
X166706254Y-110930611D01*
X166859050Y-111076881D01*
X167036748Y-111191620D01*
X167074660Y-111206899D01*
X167227368Y-111268442D01*
X167227371Y-111268443D01*
X167232937Y-111270686D01*
X167440537Y-111311228D01*
X167446099Y-111311500D01*
X167602046Y-111311500D01*
X167759766Y-111296452D01*
X167859532Y-111267184D01*
X167930527Y-111267201D01*
X167990244Y-111305599D01*
X168019722Y-111370187D01*
X168021000Y-111388089D01*
X168021000Y-115453086D01*
X168000998Y-115521207D01*
X167947342Y-115567700D01*
X167877068Y-115577804D01*
X167812488Y-115548310D01*
X167789327Y-115521710D01*
X167724747Y-115422265D01*
X167720877Y-115416939D01*
X167527522Y-115178165D01*
X167515267Y-115169700D01*
X167504176Y-115176034D01*
X162293900Y-120386310D01*
X162286759Y-120399386D01*
X162294216Y-120409753D01*
X162533935Y-120603874D01*
X162539272Y-120607751D01*
X162638711Y-120672328D01*
X162684947Y-120726204D01*
X162694717Y-120796525D01*
X162664917Y-120860965D01*
X162605008Y-120899064D01*
X162570086Y-120904000D01*
X151149919Y-120904000D01*
X151081798Y-120883998D01*
X151035305Y-120830342D01*
X151025201Y-120760068D01*
X151034839Y-120731164D01*
X151033615Y-120730705D01*
X151054433Y-120675173D01*
X151084745Y-120594316D01*
X151091500Y-120532134D01*
X151091500Y-118735866D01*
X151084745Y-118673684D01*
X151033615Y-118537295D01*
X150946261Y-118420739D01*
X150829705Y-118333385D01*
X150693316Y-118282255D01*
X150631134Y-118275500D01*
X148834866Y-118275500D01*
X148772684Y-118282255D01*
X148636295Y-118333385D01*
X148519739Y-118420739D01*
X148432385Y-118537295D01*
X148429233Y-118545703D01*
X148387919Y-118655907D01*
X148345277Y-118712671D01*
X148278716Y-118737371D01*
X148209367Y-118722163D01*
X148176743Y-118696476D01*
X148126151Y-118640875D01*
X148126142Y-118640866D01*
X148122670Y-118637051D01*
X148118619Y-118633852D01*
X148118615Y-118633848D01*
X147951414Y-118501800D01*
X147951410Y-118501798D01*
X147947359Y-118498598D01*
X147911028Y-118478542D01*
X147895136Y-118469769D01*
X147751789Y-118390638D01*
X147746920Y-118388914D01*
X147746916Y-118388912D01*
X147546087Y-118317795D01*
X147546083Y-118317794D01*
X147541212Y-118316069D01*
X147536119Y-118315162D01*
X147536116Y-118315161D01*
X147326373Y-118277800D01*
X147326367Y-118277799D01*
X147321284Y-118276894D01*
X147247452Y-118275992D01*
X147103081Y-118274228D01*
X147103079Y-118274228D01*
X147097911Y-118274165D01*
X146877091Y-118307955D01*
X146664756Y-118377357D01*
X146466607Y-118480507D01*
X146462474Y-118483610D01*
X146462471Y-118483612D01*
X146292100Y-118611530D01*
X146287965Y-118614635D01*
X146262541Y-118641240D01*
X146188013Y-118719229D01*
X146133629Y-118776138D01*
X146026204Y-118933618D01*
X146025898Y-118934066D01*
X145970987Y-118979069D01*
X145900462Y-118987240D01*
X145836715Y-118955986D01*
X145816018Y-118931502D01*
X145735426Y-118806926D01*
X145729136Y-118798757D01*
X145585806Y-118641240D01*
X145578273Y-118634215D01*
X145411139Y-118502222D01*
X145402552Y-118496517D01*
X145216117Y-118393599D01*
X145206705Y-118389369D01*
X145005959Y-118318280D01*
X144995988Y-118315646D01*
X144924837Y-118302972D01*
X144911540Y-118304432D01*
X144907000Y-118318989D01*
X144907000Y-119762000D01*
X144886998Y-119830121D01*
X144833342Y-119876614D01*
X144781000Y-119888000D01*
X144525000Y-119888000D01*
X144456879Y-119867998D01*
X144410386Y-119814342D01*
X144399000Y-119762000D01*
X144399000Y-118317102D01*
X144395082Y-118303758D01*
X144380806Y-118301771D01*
X144342324Y-118307660D01*
X144332288Y-118310051D01*
X144129868Y-118376212D01*
X144120359Y-118380209D01*
X143931463Y-118478542D01*
X143922738Y-118484036D01*
X143752433Y-118611905D01*
X143744726Y-118618748D01*
X143597590Y-118772717D01*
X143591109Y-118780722D01*
X143486498Y-118934074D01*
X143431587Y-118979076D01*
X143361062Y-118987247D01*
X143297315Y-118955993D01*
X143276618Y-118931509D01*
X143195822Y-118806617D01*
X143195820Y-118806614D01*
X143193014Y-118802277D01*
X143042670Y-118637051D01*
X143038619Y-118633852D01*
X143038615Y-118633848D01*
X142871414Y-118501800D01*
X142871410Y-118501798D01*
X142867359Y-118498598D01*
X142831028Y-118478542D01*
X142815136Y-118469769D01*
X142671789Y-118390638D01*
X142666920Y-118388914D01*
X142666916Y-118388912D01*
X142466087Y-118317795D01*
X142466083Y-118317794D01*
X142461212Y-118316069D01*
X142456119Y-118315162D01*
X142456116Y-118315161D01*
X142246373Y-118277800D01*
X142246367Y-118277799D01*
X142241284Y-118276894D01*
X142167452Y-118275992D01*
X142023081Y-118274228D01*
X142023079Y-118274228D01*
X142017911Y-118274165D01*
X141797091Y-118307955D01*
X141584756Y-118377357D01*
X141386607Y-118480507D01*
X141382474Y-118483610D01*
X141382471Y-118483612D01*
X141212100Y-118611530D01*
X141207965Y-118614635D01*
X141182541Y-118641240D01*
X141108013Y-118719229D01*
X141053629Y-118776138D01*
X140946201Y-118933621D01*
X140891293Y-118978621D01*
X140820768Y-118986792D01*
X140757021Y-118955538D01*
X140736324Y-118931054D01*
X140655822Y-118806617D01*
X140655820Y-118806614D01*
X140653014Y-118802277D01*
X140502670Y-118637051D01*
X140498619Y-118633852D01*
X140498615Y-118633848D01*
X140331414Y-118501800D01*
X140331410Y-118501798D01*
X140327359Y-118498598D01*
X140291028Y-118478542D01*
X140275136Y-118469769D01*
X140131789Y-118390638D01*
X140126920Y-118388914D01*
X140126916Y-118388912D01*
X139926087Y-118317795D01*
X139926083Y-118317794D01*
X139921212Y-118316069D01*
X139916119Y-118315162D01*
X139916116Y-118315161D01*
X139706373Y-118277800D01*
X139706367Y-118277799D01*
X139701284Y-118276894D01*
X139627452Y-118275992D01*
X139483081Y-118274228D01*
X139483079Y-118274228D01*
X139477911Y-118274165D01*
X139257091Y-118307955D01*
X139044756Y-118377357D01*
X138846607Y-118480507D01*
X138842474Y-118483610D01*
X138842471Y-118483612D01*
X138672100Y-118611530D01*
X138667965Y-118614635D01*
X138642541Y-118641240D01*
X138568013Y-118719229D01*
X138513629Y-118776138D01*
X138406201Y-118933621D01*
X138351293Y-118978621D01*
X138280768Y-118986792D01*
X138217021Y-118955538D01*
X138196324Y-118931054D01*
X138115822Y-118806617D01*
X138115820Y-118806614D01*
X138113014Y-118802277D01*
X137962670Y-118637051D01*
X137958619Y-118633852D01*
X137958615Y-118633848D01*
X137791414Y-118501800D01*
X137791410Y-118501798D01*
X137787359Y-118498598D01*
X137751028Y-118478542D01*
X137735136Y-118469769D01*
X137591789Y-118390638D01*
X137586920Y-118388914D01*
X137586916Y-118388912D01*
X137386087Y-118317795D01*
X137386083Y-118317794D01*
X137381212Y-118316069D01*
X137376119Y-118315162D01*
X137376116Y-118315161D01*
X137166373Y-118277800D01*
X137166367Y-118277799D01*
X137161284Y-118276894D01*
X137156122Y-118276831D01*
X137150961Y-118276343D01*
X137151116Y-118274707D01*
X137090238Y-118256014D01*
X137044410Y-118201789D01*
X137035173Y-118131396D01*
X137065460Y-118067184D01*
X137095142Y-118042635D01*
X137154268Y-118007389D01*
X137240490Y-117955990D01*
X137245584Y-117951139D01*
X137245588Y-117951136D01*
X137312833Y-117887099D01*
X137363721Y-117838639D01*
X137457891Y-117696902D01*
X137492687Y-117605301D01*
X161006084Y-117605301D01*
X161026080Y-117986833D01*
X161026766Y-117993371D01*
X161086535Y-118370734D01*
X161087906Y-118377184D01*
X161186788Y-118746216D01*
X161188829Y-118752498D01*
X161325740Y-119109164D01*
X161328422Y-119115189D01*
X161501872Y-119455603D01*
X161505169Y-119461313D01*
X161713253Y-119781735D01*
X161717123Y-119787061D01*
X161910478Y-120025835D01*
X161922733Y-120034300D01*
X161933824Y-120027966D01*
X164346978Y-117614812D01*
X164354592Y-117600868D01*
X164354461Y-117599035D01*
X164350210Y-117592420D01*
X161934690Y-115176900D01*
X161921614Y-115169759D01*
X161911247Y-115177216D01*
X161717123Y-115416939D01*
X161713253Y-115422265D01*
X161505169Y-115742687D01*
X161501872Y-115748397D01*
X161328422Y-116088811D01*
X161325740Y-116094836D01*
X161188829Y-116451502D01*
X161186788Y-116457784D01*
X161087906Y-116826816D01*
X161086535Y-116833266D01*
X161026766Y-117210629D01*
X161026080Y-117217167D01*
X161006084Y-117598699D01*
X161006084Y-117605301D01*
X137492687Y-117605301D01*
X137518319Y-117537825D01*
X137542001Y-117369313D01*
X137542299Y-117348000D01*
X137523331Y-117178892D01*
X137467368Y-117018189D01*
X137461383Y-117008610D01*
X137439420Y-116973464D01*
X137377192Y-116873879D01*
X137257286Y-116753132D01*
X137241039Y-116742821D01*
X137202406Y-116718304D01*
X137113608Y-116661951D01*
X136953300Y-116604868D01*
X136784329Y-116584720D01*
X136777326Y-116585456D01*
X136777325Y-116585456D01*
X136622101Y-116601770D01*
X136622097Y-116601771D01*
X136615093Y-116602507D01*
X136608422Y-116604778D01*
X136460673Y-116655075D01*
X136460670Y-116655076D01*
X136454003Y-116657346D01*
X136448005Y-116661036D01*
X136448003Y-116661037D01*
X136315065Y-116742821D01*
X136315063Y-116742823D01*
X136309066Y-116746512D01*
X136304033Y-116751441D01*
X136220477Y-116833266D01*
X136187486Y-116865573D01*
X136095304Y-117008610D01*
X136037103Y-117168516D01*
X136015775Y-117337343D01*
X136032381Y-117506699D01*
X136086094Y-117668167D01*
X136089741Y-117674189D01*
X136089742Y-117674191D01*
X136103497Y-117696902D01*
X136174246Y-117813723D01*
X136292455Y-117936132D01*
X136434846Y-118029310D01*
X136441450Y-118031766D01*
X136441452Y-118031767D01*
X136514593Y-118058968D01*
X136594341Y-118088626D01*
X136601324Y-118089558D01*
X136601325Y-118089558D01*
X136607038Y-118090320D01*
X136610515Y-118090784D01*
X136675392Y-118119620D01*
X136714380Y-118178953D01*
X136715100Y-118249946D01*
X136677325Y-118310059D01*
X136632995Y-118335442D01*
X136504756Y-118377357D01*
X136306607Y-118480507D01*
X136302474Y-118483610D01*
X136302471Y-118483612D01*
X136132100Y-118611530D01*
X136127965Y-118614635D01*
X136102541Y-118641240D01*
X136028013Y-118719229D01*
X135973629Y-118776138D01*
X135847743Y-118960680D01*
X135800915Y-119061562D01*
X135776023Y-119115189D01*
X135753688Y-119163305D01*
X135693989Y-119378570D01*
X135670251Y-119600695D01*
X135670548Y-119605848D01*
X135670548Y-119605851D01*
X135680689Y-119781735D01*
X135683110Y-119823715D01*
X135684247Y-119828761D01*
X135684248Y-119828767D01*
X135695031Y-119876614D01*
X135732222Y-120041639D01*
X135816266Y-120248616D01*
X135853685Y-120309678D01*
X135930291Y-120434688D01*
X135932987Y-120439088D01*
X136079250Y-120607938D01*
X136115667Y-120638172D01*
X136167321Y-120681056D01*
X136206956Y-120739959D01*
X136208454Y-120810939D01*
X136171339Y-120871462D01*
X136107395Y-120902311D01*
X136086836Y-120904000D01*
X116321914Y-120904000D01*
X116253793Y-120883998D01*
X116207300Y-120830342D01*
X116197196Y-120760068D01*
X116226690Y-120695488D01*
X116253289Y-120672328D01*
X116352728Y-120607751D01*
X116358065Y-120603874D01*
X116596835Y-120410522D01*
X116605300Y-120398267D01*
X116598966Y-120387176D01*
X113814922Y-117603132D01*
X114537408Y-117603132D01*
X114537539Y-117604965D01*
X114541790Y-117611580D01*
X116957310Y-120027100D01*
X116970386Y-120034241D01*
X116980753Y-120026784D01*
X117174877Y-119787061D01*
X117178747Y-119781735D01*
X117386831Y-119461313D01*
X117390128Y-119455603D01*
X117563578Y-119115189D01*
X117566260Y-119109164D01*
X117703171Y-118752498D01*
X117705212Y-118746216D01*
X117804094Y-118377184D01*
X117805465Y-118370734D01*
X117865234Y-117993371D01*
X117865920Y-117986833D01*
X117885916Y-117605301D01*
X117885916Y-117598699D01*
X117865920Y-117217167D01*
X117865234Y-117210629D01*
X117805465Y-116833266D01*
X117804094Y-116826816D01*
X117705212Y-116457784D01*
X117703171Y-116451502D01*
X117566260Y-116094836D01*
X117563578Y-116088811D01*
X117390128Y-115748397D01*
X117386831Y-115742687D01*
X117178747Y-115422265D01*
X117174877Y-115416939D01*
X116981522Y-115178165D01*
X116969267Y-115169700D01*
X116958176Y-115176034D01*
X114545022Y-117589188D01*
X114537408Y-117603132D01*
X113814922Y-117603132D01*
X111388690Y-115176900D01*
X111375614Y-115169759D01*
X111365247Y-115177216D01*
X111171123Y-115416939D01*
X111167253Y-115422265D01*
X111102673Y-115521710D01*
X111048796Y-115567947D01*
X110978475Y-115577717D01*
X110914035Y-115547917D01*
X110875936Y-115488009D01*
X110871000Y-115453086D01*
X110871000Y-114805733D01*
X111740700Y-114805733D01*
X111747034Y-114816824D01*
X114160188Y-117229978D01*
X114174132Y-117237592D01*
X114175965Y-117237461D01*
X114182580Y-117233210D01*
X116598100Y-114817690D01*
X116605241Y-114804614D01*
X116597784Y-114794247D01*
X116539308Y-114746894D01*
X157351531Y-114746894D01*
X157367589Y-114910668D01*
X157419532Y-115066815D01*
X157423181Y-115072840D01*
X157486969Y-115178165D01*
X157504779Y-115207573D01*
X157619091Y-115325947D01*
X157756789Y-115416054D01*
X157911028Y-115473415D01*
X157918009Y-115474346D01*
X157918011Y-115474347D01*
X158067161Y-115494248D01*
X158067165Y-115494248D01*
X158074142Y-115495179D01*
X158081153Y-115494541D01*
X158081157Y-115494541D01*
X158231003Y-115480904D01*
X158231004Y-115480904D01*
X158238024Y-115480265D01*
X158321672Y-115453086D01*
X158387830Y-115431590D01*
X158387833Y-115431589D01*
X158394529Y-115429413D01*
X158535879Y-115345151D01*
X158655049Y-115231668D01*
X158671058Y-115207573D01*
X158742214Y-115100475D01*
X158742215Y-115100473D01*
X158746115Y-115094603D01*
X158804551Y-114940768D01*
X158813107Y-114879889D01*
X158823529Y-114805733D01*
X162286700Y-114805733D01*
X162293034Y-114816824D01*
X164706188Y-117229978D01*
X164720132Y-117237592D01*
X164721965Y-117237461D01*
X164728580Y-117233210D01*
X167144100Y-114817690D01*
X167151241Y-114804614D01*
X167143784Y-114794247D01*
X166904065Y-114600126D01*
X166898728Y-114596249D01*
X166578315Y-114388170D01*
X166572606Y-114384873D01*
X166232189Y-114211422D01*
X166226164Y-114208740D01*
X165869498Y-114071829D01*
X165863216Y-114069788D01*
X165494184Y-113970906D01*
X165487734Y-113969535D01*
X165110371Y-113909766D01*
X165103833Y-113909080D01*
X164722301Y-113889084D01*
X164715699Y-113889084D01*
X164334167Y-113909080D01*
X164327629Y-113909766D01*
X163950266Y-113969535D01*
X163943816Y-113970906D01*
X163574784Y-114069788D01*
X163568502Y-114071829D01*
X163211836Y-114208740D01*
X163205811Y-114211422D01*
X162865397Y-114384872D01*
X162859687Y-114388169D01*
X162539265Y-114596253D01*
X162533939Y-114600123D01*
X162295165Y-114793478D01*
X162286700Y-114805733D01*
X158823529Y-114805733D01*
X158826902Y-114781734D01*
X158826903Y-114781727D01*
X158827453Y-114777810D01*
X158827741Y-114757200D01*
X158809398Y-114593666D01*
X158803598Y-114577009D01*
X158757598Y-114444917D01*
X158755280Y-114438260D01*
X158668076Y-114298705D01*
X158578737Y-114208740D01*
X158557086Y-114186937D01*
X158557082Y-114186934D01*
X158552122Y-114181939D01*
X158413180Y-114093763D01*
X158351582Y-114071829D01*
X158264789Y-114040923D01*
X158264787Y-114040922D01*
X158258155Y-114038561D01*
X158251169Y-114037728D01*
X158251165Y-114037727D01*
X158136671Y-114024075D01*
X158094753Y-114019077D01*
X158087750Y-114019813D01*
X158087749Y-114019813D01*
X158044535Y-114024355D01*
X157931095Y-114036278D01*
X157924427Y-114038548D01*
X157781982Y-114087040D01*
X157781979Y-114087041D01*
X157775315Y-114089310D01*
X157635155Y-114175537D01*
X157517582Y-114290673D01*
X157428438Y-114428997D01*
X157426027Y-114435620D01*
X157426026Y-114435623D01*
X157374566Y-114577009D01*
X157374565Y-114577014D01*
X157372156Y-114583632D01*
X157351531Y-114746894D01*
X116539308Y-114746894D01*
X116358065Y-114600126D01*
X116352728Y-114596249D01*
X116032315Y-114388170D01*
X116026606Y-114384873D01*
X115686189Y-114211422D01*
X115680164Y-114208740D01*
X115323498Y-114071829D01*
X115317216Y-114069788D01*
X114948184Y-113970906D01*
X114941734Y-113969535D01*
X114564371Y-113909766D01*
X114557833Y-113909080D01*
X114176301Y-113889084D01*
X114169699Y-113889084D01*
X113788167Y-113909080D01*
X113781629Y-113909766D01*
X113404266Y-113969535D01*
X113397816Y-113970906D01*
X113028784Y-114069788D01*
X113022502Y-114071829D01*
X112665836Y-114208740D01*
X112659811Y-114211422D01*
X112319397Y-114384872D01*
X112313687Y-114388169D01*
X111993265Y-114596253D01*
X111987939Y-114600123D01*
X111749165Y-114793478D01*
X111740700Y-114805733D01*
X110871000Y-114805733D01*
X110871000Y-113019694D01*
X140485931Y-113019694D01*
X140501989Y-113183468D01*
X140553932Y-113339615D01*
X140639179Y-113480373D01*
X140753491Y-113598747D01*
X140891189Y-113688854D01*
X141045428Y-113746215D01*
X141052409Y-113747146D01*
X141052411Y-113747147D01*
X141201561Y-113767048D01*
X141201565Y-113767048D01*
X141208542Y-113767979D01*
X141215553Y-113767341D01*
X141215557Y-113767341D01*
X141365403Y-113753704D01*
X141365404Y-113753704D01*
X141372424Y-113753065D01*
X141401062Y-113743760D01*
X141522230Y-113704390D01*
X141522233Y-113704389D01*
X141528929Y-113702213D01*
X141670279Y-113617951D01*
X141789449Y-113504468D01*
X141805458Y-113480373D01*
X141876614Y-113373275D01*
X141876615Y-113373273D01*
X141880515Y-113367403D01*
X141938951Y-113213568D01*
X141961853Y-113050610D01*
X141962141Y-113030000D01*
X141943798Y-112866466D01*
X141937998Y-112849809D01*
X141891998Y-112717717D01*
X141889680Y-112711060D01*
X141802476Y-112571505D01*
X141744499Y-112513122D01*
X141691486Y-112459737D01*
X141691482Y-112459734D01*
X141686522Y-112454739D01*
X141547580Y-112366563D01*
X141498447Y-112349068D01*
X141399189Y-112313723D01*
X141399187Y-112313722D01*
X141392555Y-112311361D01*
X141385569Y-112310528D01*
X141385565Y-112310527D01*
X141271071Y-112296875D01*
X141229153Y-112291877D01*
X141222150Y-112292613D01*
X141222149Y-112292613D01*
X141178935Y-112297155D01*
X141065495Y-112309078D01*
X141058827Y-112311348D01*
X140916382Y-112359840D01*
X140916379Y-112359841D01*
X140909715Y-112362110D01*
X140769555Y-112448337D01*
X140651982Y-112563473D01*
X140562838Y-112701797D01*
X140560427Y-112708420D01*
X140560426Y-112708423D01*
X140508966Y-112849809D01*
X140508965Y-112849814D01*
X140506556Y-112856432D01*
X140485931Y-113019694D01*
X110871000Y-113019694D01*
X110871000Y-110998000D01*
X133325496Y-110998000D01*
X133326186Y-111004565D01*
X133342187Y-111156803D01*
X133345458Y-111187928D01*
X133404473Y-111369556D01*
X133499960Y-111534944D01*
X133627747Y-111676866D01*
X133782248Y-111789118D01*
X133788276Y-111791802D01*
X133788278Y-111791803D01*
X133950681Y-111864109D01*
X133956712Y-111866794D01*
X134050112Y-111886647D01*
X134137056Y-111905128D01*
X134137061Y-111905128D01*
X134143513Y-111906500D01*
X134334487Y-111906500D01*
X134340939Y-111905128D01*
X134340944Y-111905128D01*
X134427887Y-111886647D01*
X134521288Y-111866794D01*
X134527319Y-111864109D01*
X134689722Y-111791803D01*
X134689724Y-111791802D01*
X134695752Y-111789118D01*
X134850253Y-111676866D01*
X134978040Y-111534944D01*
X135073527Y-111369556D01*
X135132542Y-111187928D01*
X135135814Y-111156803D01*
X135151814Y-111004565D01*
X135152504Y-110998000D01*
X135140550Y-110884260D01*
X135133232Y-110814635D01*
X135133232Y-110814633D01*
X135132542Y-110808072D01*
X135073527Y-110626444D01*
X134978040Y-110461056D01*
X134938258Y-110416873D01*
X134854675Y-110324045D01*
X134854674Y-110324044D01*
X134850253Y-110319134D01*
X134723643Y-110227146D01*
X134701094Y-110210763D01*
X134701093Y-110210762D01*
X134695752Y-110206882D01*
X134689724Y-110204198D01*
X134689722Y-110204197D01*
X134527319Y-110131891D01*
X134527318Y-110131891D01*
X134521288Y-110129206D01*
X134410716Y-110105703D01*
X134340944Y-110090872D01*
X134340939Y-110090872D01*
X134334487Y-110089500D01*
X134143513Y-110089500D01*
X134137061Y-110090872D01*
X134137056Y-110090872D01*
X134067284Y-110105703D01*
X133956712Y-110129206D01*
X133950682Y-110131891D01*
X133950681Y-110131891D01*
X133788278Y-110204197D01*
X133788276Y-110204198D01*
X133782248Y-110206882D01*
X133776907Y-110210762D01*
X133776906Y-110210763D01*
X133754357Y-110227146D01*
X133627747Y-110319134D01*
X133623326Y-110324044D01*
X133623325Y-110324045D01*
X133539743Y-110416873D01*
X133499960Y-110461056D01*
X133404473Y-110626444D01*
X133345458Y-110808072D01*
X133344768Y-110814633D01*
X133344768Y-110814635D01*
X133337450Y-110884260D01*
X133325496Y-110998000D01*
X110871000Y-110998000D01*
X110871000Y-110888885D01*
X110891002Y-110820764D01*
X110944658Y-110774271D01*
X111014932Y-110764167D01*
X111057698Y-110778470D01*
X111077411Y-110789307D01*
X111276025Y-110852310D01*
X111282142Y-110852996D01*
X111282146Y-110852997D01*
X111358377Y-110861548D01*
X111438188Y-110870500D01*
X112658432Y-110870500D01*
X112813373Y-110855308D01*
X113012846Y-110795083D01*
X113196824Y-110697261D01*
X113203963Y-110691439D01*
X113265941Y-110640890D01*
X113358296Y-110565567D01*
X113491115Y-110405017D01*
X113590219Y-110221728D01*
X113621589Y-110120388D01*
X113660840Y-110061228D01*
X113725845Y-110032681D01*
X113795964Y-110043810D01*
X113848935Y-110091081D01*
X113862827Y-110122072D01*
X113888101Y-110207945D01*
X113890958Y-110213410D01*
X113949701Y-110325775D01*
X113984636Y-110392601D01*
X114115200Y-110554989D01*
X114119924Y-110558953D01*
X114122157Y-110560827D01*
X114274818Y-110688925D01*
X114280221Y-110691895D01*
X114280222Y-110691896D01*
X114301124Y-110703387D01*
X114457411Y-110789307D01*
X114656025Y-110852310D01*
X114662142Y-110852996D01*
X114662146Y-110852997D01*
X114738377Y-110861548D01*
X114818188Y-110870500D01*
X116038432Y-110870500D01*
X116193373Y-110855308D01*
X116392846Y-110795083D01*
X116576824Y-110697261D01*
X116583963Y-110691439D01*
X116645941Y-110640890D01*
X116738296Y-110565567D01*
X116871115Y-110405017D01*
X116970219Y-110221728D01*
X117031835Y-110022679D01*
X117035642Y-109986462D01*
X117038823Y-109956194D01*
X135675431Y-109956194D01*
X135691489Y-110119968D01*
X135743432Y-110276115D01*
X135747081Y-110282140D01*
X135824372Y-110409761D01*
X135828679Y-110416873D01*
X135833570Y-110421938D01*
X135833571Y-110421939D01*
X135861729Y-110451097D01*
X135942991Y-110535247D01*
X136080689Y-110625354D01*
X136234928Y-110682715D01*
X136241909Y-110683646D01*
X136241911Y-110683647D01*
X136391061Y-110703548D01*
X136391065Y-110703548D01*
X136398042Y-110704479D01*
X136405053Y-110703841D01*
X136405057Y-110703841D01*
X136554903Y-110690204D01*
X136554904Y-110690204D01*
X136561924Y-110689565D01*
X136650213Y-110660878D01*
X136711730Y-110640890D01*
X136711733Y-110640889D01*
X136718429Y-110638713D01*
X136818137Y-110579275D01*
X136838257Y-110567281D01*
X136907012Y-110549581D01*
X136971768Y-110570078D01*
X137080689Y-110641354D01*
X137234928Y-110698715D01*
X137241909Y-110699646D01*
X137241911Y-110699647D01*
X137391061Y-110719548D01*
X137391065Y-110719548D01*
X137398042Y-110720479D01*
X137405053Y-110719841D01*
X137405057Y-110719841D01*
X137554903Y-110706204D01*
X137554904Y-110706204D01*
X137561924Y-110705565D01*
X137599468Y-110693366D01*
X137711730Y-110656890D01*
X137711733Y-110656889D01*
X137718429Y-110654713D01*
X137859779Y-110570451D01*
X137978949Y-110456968D01*
X137999422Y-110426154D01*
X138041382Y-110363000D01*
X143993496Y-110363000D01*
X143994186Y-110369565D01*
X144011987Y-110538929D01*
X144013458Y-110552928D01*
X144072473Y-110734556D01*
X144075776Y-110740278D01*
X144075777Y-110740279D01*
X144097827Y-110778471D01*
X144167960Y-110899944D01*
X144172378Y-110904851D01*
X144172379Y-110904852D01*
X144221193Y-110959065D01*
X144295747Y-111041866D01*
X144394843Y-111113864D01*
X144434676Y-111142804D01*
X144450248Y-111154118D01*
X144456276Y-111156802D01*
X144456278Y-111156803D01*
X144618681Y-111229109D01*
X144624712Y-111231794D01*
X144718112Y-111251647D01*
X144805056Y-111270128D01*
X144805061Y-111270128D01*
X144811513Y-111271500D01*
X145002487Y-111271500D01*
X145008939Y-111270128D01*
X145008944Y-111270128D01*
X145095887Y-111251647D01*
X145189288Y-111231794D01*
X145195319Y-111229109D01*
X145357722Y-111156803D01*
X145357724Y-111156802D01*
X145363752Y-111154118D01*
X145379325Y-111142804D01*
X145419157Y-111113864D01*
X145518253Y-111041866D01*
X145592807Y-110959065D01*
X145641621Y-110904852D01*
X145641622Y-110904851D01*
X145646040Y-110899944D01*
X145716173Y-110778471D01*
X145738223Y-110740279D01*
X145738224Y-110740278D01*
X145741527Y-110734556D01*
X145800542Y-110552928D01*
X145802014Y-110538929D01*
X145819814Y-110369565D01*
X145820504Y-110363000D01*
X145819549Y-110353909D01*
X145806073Y-110225694D01*
X151153931Y-110225694D01*
X151169989Y-110389468D01*
X151221932Y-110545615D01*
X151236973Y-110570451D01*
X151303477Y-110680260D01*
X151307179Y-110686373D01*
X151312070Y-110691438D01*
X151312071Y-110691439D01*
X151340115Y-110720479D01*
X151421491Y-110804747D01*
X151559189Y-110894854D01*
X151713428Y-110952215D01*
X151720409Y-110953146D01*
X151720411Y-110953147D01*
X151869561Y-110973048D01*
X151869565Y-110973048D01*
X151876542Y-110973979D01*
X151883553Y-110973341D01*
X151883557Y-110973341D01*
X152033403Y-110959704D01*
X152033404Y-110959704D01*
X152040424Y-110959065D01*
X152127996Y-110930611D01*
X152190230Y-110910390D01*
X152190233Y-110910389D01*
X152196929Y-110908213D01*
X152338279Y-110823951D01*
X152457449Y-110710468D01*
X152464302Y-110700154D01*
X152544614Y-110579275D01*
X152544615Y-110579273D01*
X152548515Y-110573403D01*
X152606951Y-110419568D01*
X152621884Y-110313313D01*
X152624514Y-110294599D01*
X158231319Y-110294599D01*
X158232298Y-110300296D01*
X158232298Y-110300297D01*
X158266522Y-110499469D01*
X158267501Y-110505166D01*
X158341450Y-110705613D01*
X158344402Y-110710574D01*
X158344402Y-110710575D01*
X158430509Y-110855308D01*
X158450689Y-110889228D01*
X158454495Y-110893568D01*
X158454498Y-110893572D01*
X158556074Y-111009396D01*
X158591560Y-111049860D01*
X158759345Y-111182131D01*
X158764456Y-111184820D01*
X158764459Y-111184822D01*
X158783776Y-111194985D01*
X158948425Y-111281611D01*
X158953946Y-111283325D01*
X158953950Y-111283327D01*
X159146952Y-111343256D01*
X159146957Y-111343257D01*
X159152467Y-111344968D01*
X159182918Y-111348572D01*
X159322255Y-111365064D01*
X159322261Y-111365064D01*
X159325942Y-111365500D01*
X160757396Y-111365500D01*
X160867340Y-111355397D01*
X160910201Y-111351459D01*
X160910203Y-111351459D01*
X160915956Y-111350930D01*
X161059817Y-111310357D01*
X161116028Y-111294504D01*
X161116030Y-111294503D01*
X161121587Y-111292936D01*
X161126763Y-111290384D01*
X161126767Y-111290382D01*
X161308026Y-111200995D01*
X161313207Y-111198440D01*
X161319337Y-111193863D01*
X161479773Y-111074060D01*
X161479774Y-111074059D01*
X161484397Y-111070607D01*
X161500270Y-111053436D01*
X161625505Y-110917957D01*
X161625507Y-110917954D01*
X161629424Y-110913717D01*
X161743432Y-110733025D01*
X161822603Y-110534582D01*
X161823728Y-110528925D01*
X161823730Y-110528919D01*
X161863157Y-110330703D01*
X161863157Y-110330699D01*
X161864284Y-110325035D01*
X161864362Y-110319134D01*
X161866188Y-110179635D01*
X161866594Y-110148604D01*
X163936987Y-110148604D01*
X163946767Y-110359899D01*
X163948171Y-110365724D01*
X163948171Y-110365725D01*
X163993784Y-110554989D01*
X163996325Y-110565534D01*
X163998807Y-110570992D01*
X163998808Y-110570996D01*
X164042253Y-110666546D01*
X164083874Y-110758087D01*
X164206254Y-110930611D01*
X164359050Y-111076881D01*
X164536748Y-111191620D01*
X164574660Y-111206899D01*
X164727368Y-111268442D01*
X164727371Y-111268443D01*
X164732937Y-111270686D01*
X164940537Y-111311228D01*
X164946099Y-111311500D01*
X165102046Y-111311500D01*
X165259766Y-111296452D01*
X165462734Y-111236908D01*
X165470000Y-111233166D01*
X165645449Y-111142804D01*
X165645452Y-111142802D01*
X165650780Y-111140058D01*
X165817120Y-111009396D01*
X165821052Y-111004865D01*
X165821055Y-111004862D01*
X165951821Y-110854167D01*
X165955752Y-110849637D01*
X165958752Y-110844451D01*
X165958755Y-110844447D01*
X166058667Y-110671742D01*
X166061673Y-110666546D01*
X166131061Y-110466729D01*
X166138290Y-110416873D01*
X166160552Y-110263336D01*
X166160552Y-110263333D01*
X166161413Y-110257396D01*
X166151633Y-110046101D01*
X166110899Y-109877081D01*
X166103481Y-109846299D01*
X166103480Y-109846297D01*
X166102075Y-109840466D01*
X166095524Y-109826056D01*
X166038385Y-109700387D01*
X166014526Y-109647913D01*
X165909585Y-109499973D01*
X165895612Y-109480275D01*
X165895611Y-109480274D01*
X165892146Y-109475389D01*
X165739350Y-109329119D01*
X165561652Y-109214380D01*
X165501554Y-109190160D01*
X165371032Y-109137558D01*
X165371029Y-109137557D01*
X165365463Y-109135314D01*
X165157863Y-109094772D01*
X165152301Y-109094500D01*
X164996354Y-109094500D01*
X164838634Y-109109548D01*
X164635666Y-109169092D01*
X164630339Y-109171836D01*
X164630338Y-109171836D01*
X164452951Y-109263196D01*
X164452948Y-109263198D01*
X164447620Y-109265942D01*
X164281280Y-109396604D01*
X164277348Y-109401135D01*
X164277345Y-109401138D01*
X164176492Y-109517361D01*
X164142648Y-109556363D01*
X164139648Y-109561549D01*
X164139645Y-109561553D01*
X164084448Y-109656965D01*
X164036727Y-109739454D01*
X163967339Y-109939271D01*
X163966478Y-109945206D01*
X163966478Y-109945208D01*
X163939800Y-110129206D01*
X163936987Y-110148604D01*
X161866594Y-110148604D01*
X161867081Y-110111401D01*
X161863554Y-110090872D01*
X161831878Y-109906531D01*
X161831878Y-109906530D01*
X161830899Y-109900834D01*
X161756950Y-109700387D01*
X161727357Y-109650645D01*
X161650667Y-109521740D01*
X161650665Y-109521737D01*
X161647711Y-109516772D01*
X161643905Y-109512432D01*
X161643902Y-109512428D01*
X161510647Y-109360481D01*
X161506840Y-109356140D01*
X161339055Y-109223869D01*
X161333944Y-109221180D01*
X161333941Y-109221178D01*
X161230643Y-109166830D01*
X161149975Y-109124389D01*
X161144454Y-109122675D01*
X161144450Y-109122673D01*
X160951448Y-109062744D01*
X160951443Y-109062743D01*
X160945933Y-109061032D01*
X160895560Y-109055070D01*
X160776145Y-109040936D01*
X160776139Y-109040936D01*
X160772458Y-109040500D01*
X159341004Y-109040500D01*
X159231060Y-109050603D01*
X159188199Y-109054541D01*
X159188197Y-109054541D01*
X159182444Y-109055070D01*
X159089202Y-109081367D01*
X158982372Y-109111496D01*
X158982370Y-109111497D01*
X158976813Y-109113064D01*
X158971637Y-109115616D01*
X158971633Y-109115618D01*
X158804585Y-109197997D01*
X158785193Y-109207560D01*
X158780567Y-109211014D01*
X158780566Y-109211015D01*
X158622405Y-109329119D01*
X158614003Y-109335393D01*
X158610089Y-109339627D01*
X158610087Y-109339629D01*
X158484593Y-109475389D01*
X158468976Y-109492283D01*
X158354968Y-109672975D01*
X158275797Y-109871418D01*
X158274672Y-109877075D01*
X158274670Y-109877081D01*
X158235243Y-110075297D01*
X158234116Y-110080965D01*
X158234040Y-110086740D01*
X158234040Y-110086744D01*
X158232910Y-110173072D01*
X158231319Y-110294599D01*
X152624514Y-110294599D01*
X152629302Y-110260534D01*
X152629303Y-110260527D01*
X152629853Y-110256610D01*
X152630141Y-110236000D01*
X152611798Y-110072466D01*
X152605998Y-110055809D01*
X152559998Y-109923717D01*
X152557680Y-109917060D01*
X152525809Y-109866055D01*
X152474209Y-109783479D01*
X152470476Y-109777505D01*
X152399273Y-109705803D01*
X152359486Y-109665737D01*
X152359482Y-109665734D01*
X152354522Y-109660739D01*
X152215580Y-109572563D01*
X152166447Y-109555068D01*
X152067189Y-109519723D01*
X152067187Y-109519722D01*
X152060555Y-109517361D01*
X152053569Y-109516528D01*
X152053565Y-109516527D01*
X151939071Y-109502875D01*
X151897153Y-109497877D01*
X151890150Y-109498613D01*
X151890149Y-109498613D01*
X151846935Y-109503155D01*
X151733495Y-109515078D01*
X151726827Y-109517348D01*
X151584382Y-109565840D01*
X151584379Y-109565841D01*
X151577715Y-109568110D01*
X151437555Y-109654337D01*
X151319982Y-109769473D01*
X151230838Y-109907797D01*
X151228427Y-109914420D01*
X151228426Y-109914423D01*
X151176966Y-110055809D01*
X151176965Y-110055814D01*
X151174556Y-110062432D01*
X151153931Y-110225694D01*
X145806073Y-110225694D01*
X145801232Y-110179635D01*
X145801232Y-110179633D01*
X145800542Y-110173072D01*
X145741527Y-109991444D01*
X145646040Y-109826056D01*
X145595093Y-109769473D01*
X145522675Y-109689045D01*
X145522674Y-109689044D01*
X145518253Y-109684134D01*
X145363752Y-109571882D01*
X145357724Y-109569198D01*
X145357722Y-109569197D01*
X145195319Y-109496891D01*
X145195318Y-109496891D01*
X145189288Y-109494206D01*
X145081275Y-109471247D01*
X145008944Y-109455872D01*
X145008939Y-109455872D01*
X145002487Y-109454500D01*
X144811513Y-109454500D01*
X144805061Y-109455872D01*
X144805056Y-109455872D01*
X144732725Y-109471247D01*
X144624712Y-109494206D01*
X144618682Y-109496891D01*
X144618681Y-109496891D01*
X144456278Y-109569197D01*
X144456276Y-109569198D01*
X144450248Y-109571882D01*
X144295747Y-109684134D01*
X144291326Y-109689044D01*
X144291325Y-109689045D01*
X144218908Y-109769473D01*
X144167960Y-109826056D01*
X144072473Y-109991444D01*
X144013458Y-110173072D01*
X144012768Y-110179633D01*
X144012768Y-110179635D01*
X143994451Y-110353909D01*
X143993496Y-110363000D01*
X138041382Y-110363000D01*
X138066114Y-110325775D01*
X138066115Y-110325773D01*
X138070015Y-110319903D01*
X138128451Y-110166068D01*
X138143947Y-110055809D01*
X138150802Y-110007034D01*
X138150803Y-110007027D01*
X138151353Y-110003110D01*
X138151641Y-109982500D01*
X138133298Y-109818966D01*
X138129937Y-109809313D01*
X138101620Y-109728000D01*
X138079180Y-109663560D01*
X138072812Y-109653368D01*
X137995709Y-109529979D01*
X137991976Y-109524005D01*
X137924317Y-109455872D01*
X137880986Y-109412237D01*
X137880982Y-109412234D01*
X137876022Y-109407239D01*
X137737080Y-109319063D01*
X137679641Y-109298610D01*
X137588689Y-109266223D01*
X137588687Y-109266222D01*
X137582055Y-109263861D01*
X137575069Y-109263028D01*
X137575065Y-109263027D01*
X137447762Y-109247848D01*
X137418653Y-109244377D01*
X137411650Y-109245113D01*
X137411649Y-109245113D01*
X137368435Y-109249655D01*
X137254995Y-109261578D01*
X137248327Y-109263848D01*
X137105882Y-109312340D01*
X137105879Y-109312341D01*
X137099215Y-109314610D01*
X137065433Y-109335393D01*
X136991632Y-109380795D01*
X136923131Y-109399453D01*
X136858095Y-109379862D01*
X136743032Y-109306840D01*
X136743030Y-109306839D01*
X136737080Y-109303063D01*
X136687947Y-109285568D01*
X136588689Y-109250223D01*
X136588687Y-109250222D01*
X136582055Y-109247861D01*
X136575069Y-109247028D01*
X136575065Y-109247027D01*
X136460571Y-109233375D01*
X136418653Y-109228377D01*
X136411650Y-109229113D01*
X136411649Y-109229113D01*
X136368435Y-109233655D01*
X136254995Y-109245578D01*
X136248327Y-109247848D01*
X136105882Y-109296340D01*
X136105879Y-109296341D01*
X136099215Y-109298610D01*
X135959055Y-109384837D01*
X135942409Y-109401138D01*
X135849335Y-109492283D01*
X135841482Y-109499973D01*
X135752338Y-109638297D01*
X135749927Y-109644920D01*
X135749926Y-109644923D01*
X135698466Y-109786309D01*
X135698465Y-109786314D01*
X135696056Y-109792932D01*
X135675431Y-109956194D01*
X117038823Y-109956194D01*
X117052971Y-109821582D01*
X117052971Y-109821580D01*
X117053615Y-109815453D01*
X117034730Y-109607944D01*
X117025429Y-109576340D01*
X116977641Y-109413974D01*
X116975899Y-109408055D01*
X116890331Y-109244377D01*
X116882218Y-109228858D01*
X116882217Y-109228857D01*
X116879364Y-109223399D01*
X116748800Y-109061011D01*
X116589182Y-108927075D01*
X116455378Y-108853515D01*
X116426989Y-108832199D01*
X116251385Y-108656595D01*
X116217359Y-108594283D01*
X116222424Y-108523468D01*
X116264971Y-108466632D01*
X116331491Y-108441821D01*
X116340480Y-108441500D01*
X116499604Y-108441500D01*
X116506057Y-108440128D01*
X116506061Y-108440128D01*
X116575804Y-108425303D01*
X116643076Y-108411004D01*
X116713865Y-108416406D01*
X116758366Y-108445156D01*
X117140466Y-108827256D01*
X117152846Y-108834016D01*
X117159761Y-108828840D01*
X117173876Y-108804391D01*
X117179214Y-108792402D01*
X117229245Y-108638422D01*
X117231975Y-108625581D01*
X117248898Y-108464565D01*
X117248898Y-108451435D01*
X117231975Y-108290419D01*
X117229245Y-108277576D01*
X117222189Y-108255862D01*
X117220160Y-108184895D01*
X117256821Y-108124096D01*
X117320533Y-108092770D01*
X117391067Y-108100862D01*
X117411013Y-108111491D01*
X117472389Y-108151654D01*
X117626628Y-108209015D01*
X117633609Y-108209946D01*
X117633611Y-108209947D01*
X117782761Y-108229848D01*
X117782765Y-108229848D01*
X117789742Y-108230779D01*
X117796753Y-108230141D01*
X117796757Y-108230141D01*
X117946603Y-108216504D01*
X117946604Y-108216504D01*
X117953624Y-108215865D01*
X118024407Y-108192866D01*
X118103430Y-108167190D01*
X118103433Y-108167189D01*
X118110129Y-108165013D01*
X118251479Y-108080751D01*
X118370649Y-107967268D01*
X118386658Y-107943173D01*
X118457814Y-107836075D01*
X118457815Y-107836073D01*
X118461715Y-107830203D01*
X118520151Y-107676368D01*
X118531888Y-107592854D01*
X118535241Y-107569000D01*
X130912496Y-107569000D01*
X130913186Y-107575565D01*
X130923222Y-107671048D01*
X130932458Y-107758928D01*
X130991473Y-107940556D01*
X130994776Y-107946278D01*
X130994777Y-107946279D01*
X131028686Y-108005010D01*
X131086960Y-108105944D01*
X131091378Y-108110851D01*
X131091379Y-108110852D01*
X131198787Y-108230141D01*
X131214747Y-108247866D01*
X131225753Y-108255862D01*
X131349946Y-108346094D01*
X131369248Y-108360118D01*
X131375276Y-108362802D01*
X131375278Y-108362803D01*
X131537681Y-108435109D01*
X131543712Y-108437794D01*
X131607888Y-108451435D01*
X131724056Y-108476128D01*
X131724061Y-108476128D01*
X131730513Y-108477500D01*
X131921487Y-108477500D01*
X131927939Y-108476128D01*
X131927944Y-108476128D01*
X132044112Y-108451435D01*
X132108288Y-108437794D01*
X132114319Y-108435109D01*
X132276722Y-108362803D01*
X132276724Y-108362802D01*
X132282752Y-108360118D01*
X132302055Y-108346094D01*
X149426731Y-108346094D01*
X149442789Y-108509868D01*
X149494732Y-108666015D01*
X149498381Y-108672040D01*
X149571276Y-108792402D01*
X149579979Y-108806773D01*
X149584870Y-108811838D01*
X149584871Y-108811839D01*
X149606287Y-108834016D01*
X149694291Y-108925147D01*
X149831989Y-109015254D01*
X149986228Y-109072615D01*
X149993209Y-109073546D01*
X149993211Y-109073547D01*
X150142361Y-109093448D01*
X150142365Y-109093448D01*
X150149342Y-109094379D01*
X150156353Y-109093741D01*
X150156357Y-109093741D01*
X150306203Y-109080104D01*
X150306204Y-109080104D01*
X150313224Y-109079465D01*
X150355228Y-109065817D01*
X150463030Y-109030790D01*
X150463033Y-109030789D01*
X150469729Y-109028613D01*
X150611079Y-108944351D01*
X150730249Y-108830868D01*
X150734150Y-108824997D01*
X150817414Y-108699675D01*
X150817415Y-108699673D01*
X150821315Y-108693803D01*
X150879751Y-108539968D01*
X150893590Y-108441500D01*
X150902102Y-108380934D01*
X150902103Y-108380927D01*
X150902653Y-108377010D01*
X150902941Y-108356400D01*
X150884598Y-108192866D01*
X150878798Y-108176209D01*
X150849741Y-108092770D01*
X150830480Y-108037460D01*
X150743276Y-107897905D01*
X150669501Y-107823613D01*
X150632286Y-107786137D01*
X150632282Y-107786134D01*
X150627322Y-107781139D01*
X150488380Y-107692963D01*
X150429450Y-107671979D01*
X150339989Y-107640123D01*
X150339987Y-107640122D01*
X150333355Y-107637761D01*
X150326369Y-107636928D01*
X150326365Y-107636927D01*
X150211871Y-107623275D01*
X150169953Y-107618277D01*
X150162950Y-107619013D01*
X150162949Y-107619013D01*
X150119735Y-107623555D01*
X150006295Y-107635478D01*
X149999627Y-107637748D01*
X149857182Y-107686240D01*
X149857179Y-107686241D01*
X149850515Y-107688510D01*
X149710355Y-107774737D01*
X149592782Y-107889873D01*
X149503638Y-108028197D01*
X149501227Y-108034820D01*
X149501226Y-108034823D01*
X149449766Y-108176209D01*
X149449765Y-108176214D01*
X149447356Y-108182832D01*
X149426731Y-108346094D01*
X132302055Y-108346094D01*
X132426247Y-108255862D01*
X132437253Y-108247866D01*
X132453213Y-108230141D01*
X132560621Y-108110852D01*
X132560622Y-108110851D01*
X132565040Y-108105944D01*
X132623314Y-108005010D01*
X132657223Y-107946279D01*
X132657224Y-107946278D01*
X132660527Y-107940556D01*
X132719542Y-107758928D01*
X132728779Y-107671048D01*
X132738814Y-107575565D01*
X132739504Y-107569000D01*
X132719542Y-107379072D01*
X132660527Y-107197444D01*
X132647193Y-107174348D01*
X132610383Y-107110593D01*
X132565040Y-107032056D01*
X132524147Y-106986639D01*
X132467471Y-106923694D01*
X139088931Y-106923694D01*
X139104989Y-107087468D01*
X139156932Y-107243615D01*
X139242179Y-107384373D01*
X139356491Y-107502747D01*
X139494189Y-107592854D01*
X139648428Y-107650215D01*
X139655409Y-107651146D01*
X139655411Y-107651147D01*
X139804561Y-107671048D01*
X139804565Y-107671048D01*
X139811542Y-107671979D01*
X139818553Y-107671341D01*
X139818557Y-107671341D01*
X139968403Y-107657704D01*
X139968404Y-107657704D01*
X139975424Y-107657065D01*
X140037402Y-107636927D01*
X140125230Y-107608390D01*
X140125233Y-107608389D01*
X140131929Y-107606213D01*
X140273279Y-107521951D01*
X140392449Y-107408468D01*
X140405092Y-107389439D01*
X140479614Y-107277275D01*
X140479615Y-107277273D01*
X140483515Y-107271403D01*
X140541951Y-107117568D01*
X140553165Y-107037774D01*
X140564302Y-106958534D01*
X140564303Y-106958527D01*
X140564853Y-106954610D01*
X140565141Y-106934000D01*
X140546798Y-106770466D01*
X140540998Y-106753809D01*
X140521853Y-106698834D01*
X140492680Y-106615060D01*
X140488797Y-106608845D01*
X140409209Y-106481479D01*
X140405476Y-106475505D01*
X140326524Y-106396000D01*
X140294486Y-106363737D01*
X140294482Y-106363734D01*
X140289522Y-106358739D01*
X140150580Y-106270563D01*
X140101447Y-106253068D01*
X140002189Y-106217723D01*
X140002187Y-106217722D01*
X139995555Y-106215361D01*
X139988569Y-106214528D01*
X139988565Y-106214527D01*
X139874071Y-106200875D01*
X139832153Y-106195877D01*
X139825150Y-106196613D01*
X139825149Y-106196613D01*
X139781935Y-106201155D01*
X139668495Y-106213078D01*
X139661827Y-106215348D01*
X139519382Y-106263840D01*
X139519379Y-106263841D01*
X139512715Y-106266110D01*
X139372555Y-106352337D01*
X139254982Y-106467473D01*
X139165838Y-106605797D01*
X139163427Y-106612420D01*
X139163426Y-106612423D01*
X139111966Y-106753809D01*
X139111965Y-106753814D01*
X139109556Y-106760432D01*
X139088931Y-106923694D01*
X132467471Y-106923694D01*
X132441675Y-106895045D01*
X132441674Y-106895044D01*
X132437253Y-106890134D01*
X132338157Y-106818136D01*
X132288094Y-106781763D01*
X132288093Y-106781762D01*
X132282752Y-106777882D01*
X132276724Y-106775198D01*
X132276722Y-106775197D01*
X132114319Y-106702891D01*
X132114318Y-106702891D01*
X132108288Y-106700206D01*
X132014887Y-106680353D01*
X131927944Y-106661872D01*
X131927939Y-106661872D01*
X131921487Y-106660500D01*
X131730513Y-106660500D01*
X131724061Y-106661872D01*
X131724056Y-106661872D01*
X131637113Y-106680353D01*
X131543712Y-106700206D01*
X131537682Y-106702891D01*
X131537681Y-106702891D01*
X131375278Y-106775197D01*
X131375276Y-106775198D01*
X131369248Y-106777882D01*
X131363907Y-106781762D01*
X131363906Y-106781763D01*
X131313843Y-106818136D01*
X131214747Y-106890134D01*
X131210326Y-106895044D01*
X131210325Y-106895045D01*
X131127854Y-106986639D01*
X131086960Y-107032056D01*
X131041617Y-107110593D01*
X131004808Y-107174348D01*
X130991473Y-107197444D01*
X130932458Y-107379072D01*
X130912496Y-107569000D01*
X118535241Y-107569000D01*
X118542502Y-107517334D01*
X118542503Y-107517327D01*
X118543053Y-107513410D01*
X118543341Y-107492800D01*
X118524998Y-107329266D01*
X118470880Y-107173860D01*
X118464825Y-107164169D01*
X118387409Y-107040279D01*
X118383676Y-107034305D01*
X118308432Y-106958534D01*
X118272686Y-106922537D01*
X118272682Y-106922534D01*
X118267722Y-106917539D01*
X118128780Y-106829363D01*
X118038723Y-106797295D01*
X117980389Y-106776523D01*
X117980387Y-106776522D01*
X117973755Y-106774161D01*
X117966769Y-106773328D01*
X117966765Y-106773327D01*
X117838221Y-106758000D01*
X117810353Y-106754677D01*
X117803350Y-106755413D01*
X117803349Y-106755413D01*
X117778736Y-106758000D01*
X117646695Y-106771878D01*
X117640027Y-106774148D01*
X117497582Y-106822640D01*
X117497579Y-106822641D01*
X117490915Y-106824910D01*
X117463058Y-106842048D01*
X117441424Y-106855357D01*
X117372923Y-106874016D01*
X117305209Y-106852678D01*
X117259780Y-106798118D01*
X117251436Y-106757859D01*
X117250091Y-106758000D01*
X117232468Y-106590321D01*
X117232467Y-106590317D01*
X117231777Y-106583751D01*
X117198611Y-106481679D01*
X117179674Y-106423395D01*
X117179672Y-106423391D01*
X117177634Y-106417118D01*
X117174336Y-106411405D01*
X117174333Y-106411399D01*
X117165442Y-106396000D01*
X117148704Y-106327004D01*
X117165442Y-106270000D01*
X117174333Y-106254601D01*
X117174336Y-106254595D01*
X117177634Y-106248882D01*
X117180554Y-106239897D01*
X117215611Y-106132002D01*
X117231777Y-106082249D01*
X117232911Y-106071468D01*
X117249401Y-105914565D01*
X117250091Y-105908000D01*
X117250059Y-105907694D01*
X126922331Y-105907694D01*
X126938389Y-106071468D01*
X126990332Y-106227615D01*
X127007161Y-106255403D01*
X127067459Y-106354965D01*
X127075579Y-106368373D01*
X127080470Y-106373438D01*
X127080471Y-106373439D01*
X127135054Y-106429961D01*
X127189891Y-106486747D01*
X127327589Y-106576854D01*
X127481828Y-106634215D01*
X127488809Y-106635146D01*
X127488811Y-106635147D01*
X127637961Y-106655048D01*
X127637965Y-106655048D01*
X127644942Y-106655979D01*
X127651953Y-106655341D01*
X127651957Y-106655341D01*
X127801803Y-106641704D01*
X127801804Y-106641704D01*
X127808824Y-106641065D01*
X127837462Y-106631760D01*
X127958630Y-106592390D01*
X127958633Y-106592389D01*
X127965329Y-106590213D01*
X128106679Y-106505951D01*
X128201828Y-106415343D01*
X128903775Y-106415343D01*
X128920381Y-106584699D01*
X128922605Y-106591384D01*
X128922605Y-106591385D01*
X128930481Y-106615060D01*
X128974094Y-106746167D01*
X128977741Y-106752189D01*
X128977742Y-106752191D01*
X129032726Y-106842979D01*
X129062246Y-106891723D01*
X129180455Y-107014132D01*
X129200346Y-107027148D01*
X129309967Y-107098882D01*
X129322846Y-107107310D01*
X129329450Y-107109766D01*
X129329452Y-107109767D01*
X129365844Y-107123301D01*
X129482341Y-107166626D01*
X129651015Y-107189132D01*
X129658026Y-107188494D01*
X129658030Y-107188494D01*
X129813462Y-107174348D01*
X129820483Y-107173709D01*
X129827185Y-107171531D01*
X129827187Y-107171531D01*
X129975623Y-107123301D01*
X129975626Y-107123300D01*
X129982322Y-107121124D01*
X130128490Y-107033990D01*
X130133584Y-107029139D01*
X130133588Y-107029136D01*
X130216007Y-106950649D01*
X130251721Y-106916639D01*
X130345891Y-106774902D01*
X130406319Y-106615825D01*
X130430001Y-106447313D01*
X130430299Y-106426000D01*
X130411331Y-106256892D01*
X130355368Y-106096189D01*
X130350584Y-106088532D01*
X130286222Y-105985534D01*
X130265192Y-105951879D01*
X130252016Y-105938610D01*
X130169239Y-105855253D01*
X130145286Y-105831132D01*
X130129039Y-105820821D01*
X130072806Y-105785135D01*
X130001608Y-105739951D01*
X129841300Y-105682868D01*
X129672329Y-105662720D01*
X129665326Y-105663456D01*
X129665325Y-105663456D01*
X129510101Y-105679770D01*
X129510097Y-105679771D01*
X129503093Y-105680507D01*
X129496422Y-105682778D01*
X129348673Y-105733075D01*
X129348670Y-105733076D01*
X129342003Y-105735346D01*
X129336005Y-105739036D01*
X129336003Y-105739037D01*
X129203065Y-105820821D01*
X129203063Y-105820823D01*
X129197066Y-105824512D01*
X129170848Y-105850187D01*
X129084493Y-105934753D01*
X129075486Y-105943573D01*
X129071675Y-105949487D01*
X129071673Y-105949489D01*
X128989574Y-106076881D01*
X128983304Y-106086610D01*
X128965199Y-106136354D01*
X128945084Y-106191620D01*
X128925103Y-106246516D01*
X128903775Y-106415343D01*
X128201828Y-106415343D01*
X128225849Y-106392468D01*
X128231920Y-106383331D01*
X128313014Y-106261275D01*
X128313015Y-106261273D01*
X128316915Y-106255403D01*
X128375351Y-106101568D01*
X128388942Y-106004862D01*
X128397702Y-105942534D01*
X128397703Y-105942527D01*
X128398253Y-105938610D01*
X128398541Y-105918000D01*
X128380198Y-105754466D01*
X128374398Y-105737809D01*
X128352659Y-105675386D01*
X128326080Y-105599060D01*
X128306121Y-105567118D01*
X128242609Y-105465479D01*
X128238876Y-105459505D01*
X128169366Y-105389508D01*
X131499007Y-105389508D01*
X131515065Y-105553282D01*
X131567008Y-105709429D01*
X131570657Y-105715454D01*
X131640715Y-105831132D01*
X131652255Y-105850187D01*
X131766567Y-105968561D01*
X131904265Y-106058668D01*
X132058504Y-106116029D01*
X132065485Y-106116960D01*
X132065487Y-106116961D01*
X132214638Y-106136862D01*
X132214641Y-106136862D01*
X132221618Y-106137793D01*
X132222294Y-106137731D01*
X132287581Y-106158398D01*
X132325024Y-106197668D01*
X132354146Y-106245753D01*
X132359037Y-106250818D01*
X132359038Y-106250819D01*
X132371745Y-106263977D01*
X132468458Y-106364127D01*
X132606156Y-106454234D01*
X132760395Y-106511595D01*
X132767376Y-106512526D01*
X132767378Y-106512527D01*
X132916528Y-106532428D01*
X132916532Y-106532428D01*
X132923509Y-106533359D01*
X132930520Y-106532721D01*
X132930524Y-106532721D01*
X133080370Y-106519084D01*
X133080371Y-106519084D01*
X133087391Y-106518445D01*
X133125843Y-106505951D01*
X133237197Y-106469770D01*
X133237200Y-106469769D01*
X133243896Y-106467593D01*
X133385246Y-106383331D01*
X133504416Y-106269848D01*
X133513024Y-106256892D01*
X133591581Y-106138655D01*
X133591582Y-106138653D01*
X133595482Y-106132783D01*
X133653918Y-105978948D01*
X133672014Y-105850187D01*
X133676269Y-105819914D01*
X133676270Y-105819907D01*
X133676820Y-105815990D01*
X133677108Y-105795380D01*
X133676617Y-105791000D01*
X142240000Y-105791000D01*
X144399000Y-105791000D01*
X144399000Y-105777453D01*
X144401879Y-105764217D01*
X144406289Y-105765176D01*
X144419002Y-105721879D01*
X144472658Y-105675386D01*
X144525000Y-105664000D01*
X146378810Y-105664000D01*
X146446931Y-105684002D01*
X146467905Y-105700905D01*
X147320000Y-106553000D01*
X153283403Y-106553000D01*
X153351524Y-106573002D01*
X153374040Y-106591473D01*
X153416216Y-106635147D01*
X153453491Y-106673747D01*
X153591189Y-106763854D01*
X153745428Y-106821215D01*
X153752409Y-106822146D01*
X153752411Y-106822147D01*
X153901561Y-106842048D01*
X153901565Y-106842048D01*
X153908542Y-106842979D01*
X153915553Y-106842341D01*
X153915557Y-106842341D01*
X154065403Y-106828704D01*
X154065404Y-106828704D01*
X154072424Y-106828065D01*
X154101062Y-106818760D01*
X154222230Y-106779390D01*
X154222233Y-106779389D01*
X154228929Y-106777213D01*
X154370279Y-106692951D01*
X154468025Y-106599870D01*
X154480748Y-106587754D01*
X154543874Y-106555262D01*
X154567640Y-106553000D01*
X155067000Y-106553000D01*
X155078159Y-106548536D01*
X155078161Y-106548536D01*
X155685180Y-106305728D01*
X155702000Y-106299000D01*
X155702000Y-105148604D01*
X158936987Y-105148604D01*
X158946767Y-105359899D01*
X158948171Y-105365724D01*
X158948171Y-105365725D01*
X158969568Y-105454507D01*
X158996325Y-105565534D01*
X158998807Y-105570992D01*
X158998808Y-105570996D01*
X159040513Y-105662720D01*
X159083874Y-105758087D01*
X159152799Y-105855253D01*
X159194519Y-105914067D01*
X159206254Y-105930611D01*
X159359050Y-106076881D01*
X159536748Y-106191620D01*
X159551765Y-106197672D01*
X159727368Y-106268442D01*
X159727371Y-106268443D01*
X159732937Y-106270686D01*
X159940537Y-106311228D01*
X159946099Y-106311500D01*
X160102046Y-106311500D01*
X160259766Y-106296452D01*
X160462734Y-106236908D01*
X160469079Y-106233640D01*
X160645449Y-106142804D01*
X160645452Y-106142802D01*
X160650780Y-106140058D01*
X160817120Y-106009396D01*
X160821052Y-106004865D01*
X160821055Y-106004862D01*
X160904866Y-105908278D01*
X163887200Y-105908278D01*
X163887466Y-105914067D01*
X163901234Y-106063908D01*
X163903332Y-106075229D01*
X163958162Y-106269643D01*
X163962287Y-106280390D01*
X164051634Y-106461565D01*
X164057646Y-106471374D01*
X164178504Y-106633225D01*
X164186211Y-106641785D01*
X164334549Y-106778907D01*
X164343674Y-106785908D01*
X164514520Y-106893704D01*
X164524764Y-106898924D01*
X164712397Y-106973782D01*
X164723426Y-106977049D01*
X164777432Y-106987791D01*
X164790306Y-106986639D01*
X164794274Y-106974353D01*
X165303200Y-106974353D01*
X165307006Y-106987315D01*
X165321922Y-106989251D01*
X165345539Y-106985193D01*
X165356659Y-106982213D01*
X165546181Y-106912295D01*
X165556559Y-106907345D01*
X165730167Y-106804059D01*
X165739476Y-106797295D01*
X165891357Y-106664100D01*
X165899267Y-106655765D01*
X166024332Y-106497121D01*
X166030603Y-106487464D01*
X166124654Y-106308702D01*
X166129062Y-106298059D01*
X166188965Y-106105143D01*
X166191355Y-106093899D01*
X166210764Y-105929915D01*
X166211200Y-105922512D01*
X166211200Y-105475115D01*
X166206725Y-105459876D01*
X166205335Y-105458671D01*
X166197652Y-105457000D01*
X165321315Y-105457000D01*
X165306076Y-105461475D01*
X165304871Y-105462865D01*
X165303200Y-105470548D01*
X165303200Y-106974353D01*
X164794274Y-106974353D01*
X164795200Y-106971484D01*
X164795200Y-105475115D01*
X164790725Y-105459876D01*
X164789335Y-105458671D01*
X164781652Y-105457000D01*
X163905315Y-105457000D01*
X163890076Y-105461475D01*
X163888871Y-105462865D01*
X163887200Y-105470548D01*
X163887200Y-105908278D01*
X160904866Y-105908278D01*
X160951821Y-105854167D01*
X160955752Y-105849637D01*
X160958752Y-105844451D01*
X160958755Y-105844447D01*
X161058667Y-105671742D01*
X161061673Y-105666546D01*
X161131061Y-105466729D01*
X161132109Y-105459505D01*
X161154242Y-105306854D01*
X161157984Y-105281043D01*
X161187554Y-105216498D01*
X161247326Y-105178186D01*
X161318322Y-105178270D01*
X161367326Y-105207964D01*
X161367968Y-105207188D01*
X161373234Y-105211544D01*
X161373311Y-105211591D01*
X161373393Y-105211676D01*
X161373398Y-105211680D01*
X161378291Y-105216747D01*
X161515989Y-105306854D01*
X161670228Y-105364215D01*
X161677209Y-105365146D01*
X161677211Y-105365147D01*
X161826361Y-105385048D01*
X161826365Y-105385048D01*
X161833342Y-105385979D01*
X161840353Y-105385341D01*
X161840357Y-105385341D01*
X161990203Y-105371704D01*
X161990204Y-105371704D01*
X161997224Y-105371065D01*
X162031589Y-105359899D01*
X162147030Y-105322390D01*
X162147033Y-105322389D01*
X162153729Y-105320213D01*
X162295079Y-105235951D01*
X162414249Y-105122468D01*
X162447205Y-105072866D01*
X162501414Y-104991275D01*
X162501415Y-104991273D01*
X162505315Y-104985403D01*
X162526024Y-104930885D01*
X163887200Y-104930885D01*
X163891675Y-104946124D01*
X163893065Y-104947329D01*
X163900748Y-104949000D01*
X164777085Y-104949000D01*
X164792324Y-104944525D01*
X164793529Y-104943135D01*
X164795200Y-104935452D01*
X164795200Y-104930885D01*
X165303200Y-104930885D01*
X165307675Y-104946124D01*
X165309065Y-104947329D01*
X165316748Y-104949000D01*
X166193085Y-104949000D01*
X166208324Y-104944525D01*
X166209529Y-104943135D01*
X166211200Y-104935452D01*
X166211200Y-104497722D01*
X166210934Y-104491933D01*
X166197166Y-104342092D01*
X166195068Y-104330771D01*
X166140238Y-104136357D01*
X166136113Y-104125610D01*
X166046766Y-103944435D01*
X166040754Y-103934626D01*
X165919896Y-103772775D01*
X165912189Y-103764215D01*
X165763851Y-103627093D01*
X165754726Y-103620092D01*
X165583880Y-103512296D01*
X165573636Y-103507076D01*
X165386003Y-103432218D01*
X165374974Y-103428951D01*
X165320968Y-103418209D01*
X165308094Y-103419361D01*
X165303200Y-103434516D01*
X165303200Y-104930885D01*
X164795200Y-104930885D01*
X164795200Y-103431647D01*
X164791394Y-103418685D01*
X164776478Y-103416749D01*
X164752861Y-103420807D01*
X164741741Y-103423787D01*
X164552219Y-103493705D01*
X164541841Y-103498655D01*
X164368233Y-103601941D01*
X164358924Y-103608705D01*
X164207043Y-103741900D01*
X164199133Y-103750235D01*
X164074068Y-103908879D01*
X164067797Y-103918536D01*
X163973746Y-104097298D01*
X163969338Y-104107941D01*
X163909435Y-104300857D01*
X163907045Y-104312101D01*
X163887636Y-104476085D01*
X163887200Y-104483488D01*
X163887200Y-104930885D01*
X162526024Y-104930885D01*
X162563751Y-104831568D01*
X162577427Y-104734258D01*
X162586102Y-104672534D01*
X162586103Y-104672527D01*
X162586653Y-104668610D01*
X162586941Y-104648000D01*
X162568598Y-104484466D01*
X162565680Y-104476085D01*
X162521912Y-104350403D01*
X162514480Y-104329060D01*
X162480202Y-104274203D01*
X162431009Y-104195479D01*
X162427276Y-104189505D01*
X162358620Y-104120368D01*
X162316286Y-104077737D01*
X162316282Y-104077734D01*
X162311322Y-104072739D01*
X162172380Y-103984563D01*
X162108454Y-103961800D01*
X162023989Y-103931723D01*
X162023987Y-103931722D01*
X162017355Y-103929361D01*
X162010369Y-103928528D01*
X162010365Y-103928527D01*
X161895871Y-103914875D01*
X161853953Y-103909877D01*
X161846950Y-103910613D01*
X161846949Y-103910613D01*
X161804088Y-103915118D01*
X161690295Y-103927078D01*
X161683627Y-103929348D01*
X161541182Y-103977840D01*
X161541179Y-103977841D01*
X161534515Y-103980110D01*
X161394355Y-104066337D01*
X161350229Y-104109548D01*
X161292105Y-104166468D01*
X161276782Y-104181473D01*
X161187638Y-104319797D01*
X161185227Y-104326420D01*
X161185226Y-104326423D01*
X161132178Y-104472173D01*
X161090084Y-104529345D01*
X161023763Y-104554683D01*
X160954271Y-104540142D01*
X160911006Y-104501977D01*
X160895614Y-104480277D01*
X160895610Y-104480272D01*
X160892146Y-104475389D01*
X160739350Y-104329119D01*
X160561652Y-104214380D01*
X160479999Y-104181473D01*
X160371032Y-104137558D01*
X160371029Y-104137557D01*
X160365463Y-104135314D01*
X160157863Y-104094772D01*
X160152301Y-104094500D01*
X159996354Y-104094500D01*
X159838634Y-104109548D01*
X159635666Y-104169092D01*
X159630339Y-104171836D01*
X159630338Y-104171836D01*
X159452951Y-104263196D01*
X159452948Y-104263198D01*
X159447620Y-104265942D01*
X159281280Y-104396604D01*
X159277348Y-104401135D01*
X159277345Y-104401138D01*
X159166952Y-104528355D01*
X159142648Y-104556363D01*
X159139648Y-104561549D01*
X159139645Y-104561553D01*
X159072189Y-104678156D01*
X159036727Y-104739454D01*
X158967339Y-104939271D01*
X158966478Y-104945206D01*
X158966478Y-104945208D01*
X158939403Y-105131943D01*
X158936987Y-105148604D01*
X155702000Y-105148604D01*
X155702000Y-102489000D01*
X155693994Y-102482595D01*
X155693993Y-102482594D01*
X155321766Y-102184813D01*
X155067000Y-101981000D01*
X147447000Y-101981000D01*
X147431479Y-101991347D01*
X147431477Y-101991348D01*
X146954019Y-102309654D01*
X146685000Y-102489000D01*
X146685000Y-103452810D01*
X146664998Y-103520931D01*
X146648095Y-103541905D01*
X146340905Y-103849095D01*
X146278593Y-103883121D01*
X146251810Y-103886000D01*
X144399000Y-103886000D01*
X144399000Y-104649000D01*
X144378998Y-104717121D01*
X144325342Y-104763614D01*
X144273000Y-104775000D01*
X142240000Y-104775000D01*
X142240000Y-105791000D01*
X133676617Y-105791000D01*
X133658765Y-105631846D01*
X133646430Y-105596423D01*
X133606965Y-105483097D01*
X133604647Y-105476440D01*
X133596165Y-105462865D01*
X133521176Y-105342859D01*
X133517443Y-105336885D01*
X133438507Y-105257396D01*
X133406453Y-105225117D01*
X133406449Y-105225114D01*
X133401489Y-105220119D01*
X133262547Y-105131943D01*
X133168272Y-105098373D01*
X133114156Y-105079103D01*
X133114154Y-105079102D01*
X133107522Y-105076741D01*
X133100536Y-105075908D01*
X133100532Y-105075907D01*
X132944120Y-105057257D01*
X132944481Y-105054227D01*
X132889454Y-105037606D01*
X132851538Y-104998908D01*
X132838981Y-104978813D01*
X132815552Y-104941319D01*
X132752145Y-104877468D01*
X132704562Y-104829551D01*
X132704558Y-104829548D01*
X132699598Y-104824553D01*
X132560656Y-104736377D01*
X132423085Y-104687390D01*
X132412265Y-104683537D01*
X132412263Y-104683536D01*
X132405631Y-104681175D01*
X132398645Y-104680342D01*
X132398641Y-104680341D01*
X132267036Y-104664649D01*
X132242229Y-104661691D01*
X132235226Y-104662427D01*
X132235225Y-104662427D01*
X132214085Y-104664649D01*
X132078571Y-104678892D01*
X132071903Y-104681162D01*
X131929458Y-104729654D01*
X131929455Y-104729655D01*
X131922791Y-104731924D01*
X131782631Y-104818151D01*
X131776053Y-104824593D01*
X131673290Y-104925226D01*
X131665058Y-104933287D01*
X131575914Y-105071611D01*
X131573503Y-105078234D01*
X131573502Y-105078237D01*
X131522042Y-105219623D01*
X131522041Y-105219628D01*
X131519632Y-105226246D01*
X131499007Y-105389508D01*
X128169366Y-105389508D01*
X128127886Y-105347737D01*
X128127882Y-105347734D01*
X128122922Y-105342739D01*
X127983980Y-105254563D01*
X127904457Y-105226246D01*
X127835589Y-105201723D01*
X127835587Y-105201722D01*
X127828955Y-105199361D01*
X127821969Y-105198528D01*
X127821965Y-105198527D01*
X127707471Y-105184875D01*
X127665553Y-105179877D01*
X127658550Y-105180613D01*
X127658549Y-105180613D01*
X127615688Y-105185118D01*
X127501895Y-105197078D01*
X127495227Y-105199348D01*
X127352782Y-105247840D01*
X127352779Y-105247841D01*
X127346115Y-105250110D01*
X127260956Y-105302500D01*
X127228626Y-105322390D01*
X127205955Y-105336337D01*
X127088382Y-105451473D01*
X126999238Y-105589797D01*
X126996827Y-105596420D01*
X126996826Y-105596423D01*
X126945366Y-105737809D01*
X126945365Y-105737814D01*
X126942956Y-105744432D01*
X126922331Y-105907694D01*
X117250059Y-105907694D01*
X117243957Y-105849637D01*
X117232468Y-105740321D01*
X117232467Y-105740317D01*
X117231777Y-105733751D01*
X117185003Y-105589797D01*
X117179674Y-105573395D01*
X117179672Y-105573391D01*
X117177634Y-105567118D01*
X117174336Y-105561405D01*
X117174333Y-105561399D01*
X117165442Y-105546000D01*
X117148704Y-105477004D01*
X117165442Y-105420000D01*
X117174333Y-105404601D01*
X117174336Y-105404595D01*
X117177634Y-105398882D01*
X117181827Y-105385979D01*
X117208951Y-105302500D01*
X117231777Y-105232249D01*
X117233407Y-105216747D01*
X117249401Y-105064565D01*
X117250091Y-105058000D01*
X117241768Y-104978813D01*
X117232468Y-104890321D01*
X117232467Y-104890317D01*
X117231777Y-104883751D01*
X117207686Y-104809607D01*
X117205658Y-104738640D01*
X117242320Y-104677842D01*
X117306032Y-104646517D01*
X117358558Y-104651377D01*
X117359187Y-104648855D01*
X117366029Y-104650561D01*
X117372628Y-104653015D01*
X117379609Y-104653946D01*
X117379611Y-104653947D01*
X117528761Y-104673848D01*
X117528765Y-104673848D01*
X117535742Y-104674779D01*
X117542753Y-104674141D01*
X117542757Y-104674141D01*
X117692603Y-104660504D01*
X117692604Y-104660504D01*
X117699624Y-104659865D01*
X117733509Y-104648855D01*
X117849430Y-104611190D01*
X117849433Y-104611189D01*
X117856129Y-104609013D01*
X117997479Y-104524751D01*
X118116649Y-104411268D01*
X118120550Y-104405397D01*
X118203814Y-104280075D01*
X118203815Y-104280073D01*
X118207715Y-104274203D01*
X118266151Y-104120368D01*
X118274707Y-104059489D01*
X118288502Y-103961334D01*
X118288503Y-103961327D01*
X118289053Y-103957410D01*
X118289341Y-103936800D01*
X118270998Y-103773266D01*
X118216880Y-103617860D01*
X118211160Y-103608705D01*
X118133409Y-103484279D01*
X118129676Y-103478305D01*
X118068548Y-103416749D01*
X118018686Y-103366537D01*
X118018682Y-103366534D01*
X118013722Y-103361539D01*
X117874780Y-103273363D01*
X117735718Y-103223845D01*
X117726389Y-103220523D01*
X117726387Y-103220522D01*
X117719755Y-103218161D01*
X117712769Y-103217328D01*
X117712765Y-103217327D01*
X117598271Y-103203675D01*
X117556353Y-103198677D01*
X117549350Y-103199413D01*
X117549349Y-103199413D01*
X117506135Y-103203955D01*
X117392695Y-103215878D01*
X117386026Y-103218148D01*
X117386023Y-103218149D01*
X117378159Y-103220826D01*
X117307227Y-103223845D01*
X117245922Y-103188036D01*
X117217719Y-103140485D01*
X117212363Y-103124000D01*
X129515496Y-103124000D01*
X129516186Y-103130565D01*
X129526088Y-103224773D01*
X129535458Y-103313928D01*
X129594473Y-103495556D01*
X129597776Y-103501278D01*
X129597777Y-103501279D01*
X129601124Y-103507076D01*
X129689960Y-103660944D01*
X129694378Y-103665851D01*
X129694379Y-103665852D01*
X129785104Y-103766612D01*
X129817747Y-103802866D01*
X129972248Y-103915118D01*
X130000509Y-103927701D01*
X130054603Y-103973678D01*
X130074658Y-104030510D01*
X130087989Y-104166468D01*
X130139932Y-104322615D01*
X130225179Y-104463373D01*
X130230070Y-104468438D01*
X130230071Y-104468439D01*
X130241503Y-104480277D01*
X130339491Y-104581747D01*
X130477189Y-104671854D01*
X130631428Y-104729215D01*
X130638409Y-104730146D01*
X130638411Y-104730147D01*
X130787561Y-104750048D01*
X130787565Y-104750048D01*
X130794542Y-104750979D01*
X130801553Y-104750341D01*
X130801557Y-104750341D01*
X130951403Y-104736704D01*
X130951404Y-104736704D01*
X130958424Y-104736065D01*
X131016727Y-104717121D01*
X131108230Y-104687390D01*
X131108233Y-104687389D01*
X131114929Y-104685213D01*
X131256279Y-104600951D01*
X131375449Y-104487468D01*
X131380227Y-104480277D01*
X131437549Y-104394000D01*
X138024496Y-104394000D01*
X138044458Y-104583928D01*
X138103473Y-104765556D01*
X138106776Y-104771278D01*
X138106777Y-104771279D01*
X138111509Y-104779475D01*
X138198960Y-104930944D01*
X138203378Y-104935851D01*
X138203379Y-104935852D01*
X138317676Y-105062792D01*
X138326747Y-105072866D01*
X138395018Y-105122468D01*
X138471823Y-105178270D01*
X138481248Y-105185118D01*
X138487276Y-105187802D01*
X138487278Y-105187803D01*
X138645708Y-105258340D01*
X138655712Y-105262794D01*
X138741571Y-105281044D01*
X138836056Y-105301128D01*
X138836061Y-105301128D01*
X138842513Y-105302500D01*
X139033487Y-105302500D01*
X139039939Y-105301128D01*
X139039944Y-105301128D01*
X139134429Y-105281044D01*
X139220288Y-105262794D01*
X139230292Y-105258340D01*
X139388722Y-105187803D01*
X139388724Y-105187802D01*
X139394752Y-105185118D01*
X139404178Y-105178270D01*
X139480982Y-105122468D01*
X139549253Y-105072866D01*
X139558324Y-105062792D01*
X139672621Y-104935852D01*
X139672622Y-104935851D01*
X139677040Y-104930944D01*
X139764491Y-104779475D01*
X139769223Y-104771279D01*
X139769224Y-104771278D01*
X139772527Y-104765556D01*
X139831542Y-104583928D01*
X139851504Y-104394000D01*
X139845378Y-104335717D01*
X139832232Y-104210635D01*
X139832232Y-104210633D01*
X139831542Y-104204072D01*
X139772527Y-104022444D01*
X139767075Y-104013000D01*
X139717042Y-103926342D01*
X139677040Y-103857056D01*
X139672620Y-103852148D01*
X139668741Y-103846808D01*
X139670556Y-103845490D01*
X139644326Y-103790826D01*
X139653093Y-103720373D01*
X139698559Y-103665844D01*
X139729741Y-103650698D01*
X139750929Y-103643813D01*
X139892279Y-103559551D01*
X140011449Y-103446068D01*
X140015350Y-103440197D01*
X140098614Y-103314875D01*
X140098615Y-103314873D01*
X140102515Y-103309003D01*
X140160951Y-103155168D01*
X140169507Y-103094289D01*
X140183302Y-102996134D01*
X140183303Y-102996127D01*
X140183853Y-102992210D01*
X140184141Y-102971600D01*
X140171550Y-102859343D01*
X144397775Y-102859343D01*
X144414381Y-103028699D01*
X144468094Y-103190167D01*
X144471741Y-103196189D01*
X144471742Y-103196191D01*
X144548592Y-103323084D01*
X144556246Y-103335723D01*
X144674455Y-103458132D01*
X144728816Y-103493705D01*
X144802474Y-103541905D01*
X144816846Y-103551310D01*
X144823450Y-103553766D01*
X144823452Y-103553767D01*
X144859844Y-103567301D01*
X144976341Y-103610626D01*
X145145015Y-103633132D01*
X145152026Y-103632494D01*
X145152030Y-103632494D01*
X145307462Y-103618348D01*
X145314483Y-103617709D01*
X145321185Y-103615531D01*
X145321187Y-103615531D01*
X145469623Y-103567301D01*
X145469626Y-103567300D01*
X145476322Y-103565124D01*
X145622490Y-103477990D01*
X145627584Y-103473139D01*
X145627588Y-103473136D01*
X145713089Y-103391714D01*
X145745721Y-103360639D01*
X145839891Y-103218902D01*
X145900319Y-103059825D01*
X145924001Y-102891313D01*
X145924299Y-102870000D01*
X145905331Y-102700892D01*
X145900989Y-102688422D01*
X145851686Y-102546846D01*
X145849368Y-102540189D01*
X145843383Y-102530610D01*
X145821299Y-102495269D01*
X145759192Y-102395879D01*
X145753292Y-102389937D01*
X145693907Y-102330136D01*
X145639286Y-102275132D01*
X145623039Y-102264821D01*
X145551698Y-102219547D01*
X145495608Y-102183951D01*
X145335300Y-102126868D01*
X145166329Y-102106720D01*
X145159326Y-102107456D01*
X145159325Y-102107456D01*
X145004101Y-102123770D01*
X145004097Y-102123771D01*
X144997093Y-102124507D01*
X144990422Y-102126778D01*
X144842673Y-102177075D01*
X144842670Y-102177076D01*
X144836003Y-102179346D01*
X144830005Y-102183036D01*
X144830003Y-102183037D01*
X144697065Y-102264821D01*
X144697063Y-102264823D01*
X144691066Y-102268512D01*
X144628138Y-102330136D01*
X144583415Y-102373933D01*
X144569486Y-102387573D01*
X144565675Y-102393487D01*
X144565673Y-102393489D01*
X144481242Y-102524500D01*
X144477304Y-102530610D01*
X144460396Y-102577065D01*
X144430459Y-102659317D01*
X144419103Y-102690516D01*
X144397775Y-102859343D01*
X140171550Y-102859343D01*
X140165798Y-102808066D01*
X140159998Y-102791409D01*
X140124863Y-102690516D01*
X140111680Y-102652660D01*
X140102192Y-102637475D01*
X140028209Y-102519079D01*
X140024476Y-102513105D01*
X139936290Y-102424301D01*
X139913486Y-102401337D01*
X139913482Y-102401334D01*
X139908522Y-102396339D01*
X139769580Y-102308163D01*
X139720447Y-102290668D01*
X139621189Y-102255323D01*
X139621187Y-102255322D01*
X139614555Y-102252961D01*
X139607569Y-102252128D01*
X139607565Y-102252127D01*
X139574745Y-102248214D01*
X139509472Y-102220287D01*
X139469659Y-102161504D01*
X139467947Y-102090528D01*
X139484714Y-102053375D01*
X139528015Y-101988203D01*
X139582908Y-101843694D01*
X140612931Y-101843694D01*
X140628989Y-102007468D01*
X140680932Y-102163615D01*
X140684581Y-102169640D01*
X140747446Y-102273441D01*
X140766179Y-102304373D01*
X140771070Y-102309438D01*
X140771071Y-102309439D01*
X140824301Y-102364560D01*
X140880491Y-102422747D01*
X141018189Y-102512854D01*
X141172428Y-102570215D01*
X141179409Y-102571146D01*
X141179411Y-102571147D01*
X141328561Y-102591048D01*
X141328565Y-102591048D01*
X141335542Y-102591979D01*
X141342553Y-102591341D01*
X141342557Y-102591341D01*
X141492403Y-102577704D01*
X141492404Y-102577704D01*
X141499424Y-102577065D01*
X141612916Y-102540189D01*
X141649230Y-102528390D01*
X141649233Y-102528389D01*
X141655929Y-102526213D01*
X141797279Y-102441951D01*
X141916449Y-102328468D01*
X141924741Y-102315988D01*
X142003614Y-102197275D01*
X142003615Y-102197273D01*
X142007515Y-102191403D01*
X142065951Y-102037568D01*
X142081994Y-101923414D01*
X142088302Y-101878534D01*
X142088303Y-101878527D01*
X142088853Y-101874610D01*
X142089141Y-101854000D01*
X142070798Y-101690466D01*
X142065529Y-101675334D01*
X142023350Y-101554215D01*
X142016680Y-101535060D01*
X141991189Y-101494265D01*
X141933209Y-101401479D01*
X141929476Y-101395505D01*
X141851842Y-101317327D01*
X141818486Y-101283737D01*
X141818482Y-101283734D01*
X141813522Y-101278739D01*
X141674580Y-101190563D01*
X141583602Y-101158167D01*
X141526189Y-101137723D01*
X141526187Y-101137722D01*
X141519555Y-101135361D01*
X141512569Y-101134528D01*
X141512565Y-101134527D01*
X141398071Y-101120875D01*
X141356153Y-101115877D01*
X141349150Y-101116613D01*
X141349149Y-101116613D01*
X141305935Y-101121155D01*
X141192495Y-101133078D01*
X141185827Y-101135348D01*
X141043382Y-101183840D01*
X141043379Y-101183841D01*
X141036715Y-101186110D01*
X140949752Y-101239610D01*
X140928184Y-101252879D01*
X140896555Y-101272337D01*
X140856563Y-101311500D01*
X140788080Y-101378564D01*
X140778982Y-101387473D01*
X140689838Y-101525797D01*
X140687427Y-101532420D01*
X140687426Y-101532423D01*
X140635966Y-101673809D01*
X140635965Y-101673814D01*
X140633556Y-101680432D01*
X140612931Y-101843694D01*
X139582908Y-101843694D01*
X139586451Y-101834368D01*
X139600984Y-101730961D01*
X139608802Y-101675334D01*
X139608803Y-101675327D01*
X139609353Y-101671410D01*
X139609641Y-101650800D01*
X139591298Y-101487266D01*
X139585498Y-101470609D01*
X139561803Y-101402568D01*
X139537180Y-101331860D01*
X139525063Y-101312468D01*
X139453709Y-101198279D01*
X139449976Y-101192305D01*
X139386473Y-101128357D01*
X139338986Y-101080537D01*
X139338982Y-101080534D01*
X139334022Y-101075539D01*
X139195080Y-100987363D01*
X139071396Y-100943321D01*
X139046689Y-100934523D01*
X139046687Y-100934522D01*
X139040055Y-100932161D01*
X139033069Y-100931328D01*
X139033065Y-100931327D01*
X138918571Y-100917675D01*
X138876653Y-100912677D01*
X138869650Y-100913413D01*
X138869649Y-100913413D01*
X138826435Y-100917955D01*
X138712995Y-100929878D01*
X138706327Y-100932148D01*
X138563882Y-100980640D01*
X138563879Y-100980641D01*
X138557215Y-100982910D01*
X138470356Y-101036346D01*
X138442577Y-101053436D01*
X138417055Y-101069137D01*
X138405414Y-101080537D01*
X138308540Y-101175403D01*
X138299482Y-101184273D01*
X138210338Y-101322597D01*
X138207927Y-101329220D01*
X138207926Y-101329223D01*
X138156466Y-101470609D01*
X138156465Y-101470614D01*
X138154056Y-101477232D01*
X138133431Y-101640494D01*
X138149489Y-101804268D01*
X138201432Y-101960415D01*
X138286679Y-102101173D01*
X138291570Y-102106238D01*
X138291571Y-102106239D01*
X138309212Y-102124507D01*
X138400991Y-102219547D01*
X138538689Y-102309654D01*
X138692928Y-102367015D01*
X138735724Y-102372725D01*
X138744775Y-102373933D01*
X138809652Y-102402769D01*
X138848640Y-102462103D01*
X138849360Y-102533095D01*
X138834024Y-102567076D01*
X138784838Y-102643397D01*
X138782427Y-102650020D01*
X138782426Y-102650023D01*
X138730966Y-102791409D01*
X138730965Y-102791414D01*
X138728556Y-102798032D01*
X138707931Y-102961294D01*
X138723989Y-103125068D01*
X138775932Y-103281215D01*
X138779581Y-103287240D01*
X138801289Y-103323084D01*
X138819468Y-103391714D01*
X138797658Y-103459277D01*
X138742782Y-103504324D01*
X138719713Y-103511602D01*
X138655712Y-103525206D01*
X138649682Y-103527891D01*
X138649681Y-103527891D01*
X138487278Y-103600197D01*
X138487276Y-103600198D01*
X138481248Y-103602882D01*
X138475907Y-103606762D01*
X138475906Y-103606763D01*
X138440895Y-103632200D01*
X138326747Y-103715134D01*
X138322326Y-103720044D01*
X138322325Y-103720045D01*
X138244257Y-103806749D01*
X138198960Y-103857056D01*
X138158958Y-103926342D01*
X138108926Y-104013000D01*
X138103473Y-104022444D01*
X138044458Y-104204072D01*
X138043768Y-104210633D01*
X138043768Y-104210635D01*
X138030622Y-104335717D01*
X138024496Y-104394000D01*
X131437549Y-104394000D01*
X131462614Y-104356275D01*
X131462615Y-104356273D01*
X131466515Y-104350403D01*
X131524951Y-104196568D01*
X131537407Y-104107941D01*
X131547302Y-104037534D01*
X131547303Y-104037527D01*
X131547853Y-104033610D01*
X131548141Y-104013000D01*
X131529798Y-103849466D01*
X131475680Y-103694060D01*
X131448583Y-103650695D01*
X131392209Y-103560479D01*
X131388476Y-103554505D01*
X131334093Y-103499742D01*
X131300286Y-103437312D01*
X131303666Y-103372021D01*
X131320501Y-103320211D01*
X131320502Y-103320206D01*
X131322542Y-103313928D01*
X131323753Y-103302413D01*
X131341814Y-103130565D01*
X131342504Y-103124000D01*
X131331751Y-103021690D01*
X131323232Y-102940635D01*
X131323232Y-102940633D01*
X131322542Y-102934072D01*
X131263527Y-102752444D01*
X131168040Y-102587056D01*
X131159620Y-102577704D01*
X131044675Y-102450045D01*
X131044674Y-102450044D01*
X131040253Y-102445134D01*
X130885752Y-102332882D01*
X130879724Y-102330198D01*
X130879722Y-102330197D01*
X130717319Y-102257891D01*
X130717318Y-102257891D01*
X130711288Y-102255206D01*
X130609062Y-102233477D01*
X130530944Y-102216872D01*
X130530939Y-102216872D01*
X130524487Y-102215500D01*
X130333513Y-102215500D01*
X130327061Y-102216872D01*
X130327056Y-102216872D01*
X130248938Y-102233477D01*
X130146712Y-102255206D01*
X130140682Y-102257891D01*
X130140681Y-102257891D01*
X129978278Y-102330197D01*
X129978276Y-102330198D01*
X129972248Y-102332882D01*
X129817747Y-102445134D01*
X129813326Y-102450044D01*
X129813325Y-102450045D01*
X129698381Y-102577704D01*
X129689960Y-102587056D01*
X129594473Y-102752444D01*
X129535458Y-102934072D01*
X129534768Y-102940633D01*
X129534768Y-102940635D01*
X129526249Y-103021690D01*
X129515496Y-103124000D01*
X117212363Y-103124000D01*
X117179676Y-103023402D01*
X117179675Y-103023401D01*
X117177634Y-103017118D01*
X117165152Y-102995498D01*
X117148415Y-102926504D01*
X117165154Y-102869498D01*
X117173872Y-102854399D01*
X117179217Y-102842393D01*
X117229245Y-102688422D01*
X117231975Y-102675581D01*
X117248898Y-102514565D01*
X117248898Y-102501435D01*
X117231975Y-102340419D01*
X117229245Y-102327578D01*
X117179214Y-102173598D01*
X117173876Y-102161609D01*
X117162335Y-102141619D01*
X117152131Y-102131889D01*
X117144110Y-102135100D01*
X116758366Y-102520844D01*
X116696054Y-102554870D01*
X116643076Y-102554996D01*
X116573415Y-102540189D01*
X116506061Y-102525872D01*
X116506057Y-102525872D01*
X116499604Y-102524500D01*
X116340480Y-102524500D01*
X116272359Y-102504498D01*
X116225866Y-102450842D01*
X116215762Y-102380568D01*
X116245256Y-102315988D01*
X116251385Y-102309405D01*
X116428346Y-102132444D01*
X116458288Y-102110287D01*
X116463613Y-102107456D01*
X116576824Y-102047261D01*
X116585134Y-102040484D01*
X116657316Y-101981613D01*
X116738296Y-101915567D01*
X116871115Y-101755017D01*
X116892026Y-101716343D01*
X136142775Y-101716343D01*
X136159381Y-101885699D01*
X136213094Y-102047167D01*
X136216741Y-102053189D01*
X136216742Y-102053191D01*
X136296456Y-102184813D01*
X136301246Y-102192723D01*
X136419455Y-102315132D01*
X136439835Y-102328468D01*
X136530157Y-102387573D01*
X136561846Y-102408310D01*
X136568450Y-102410766D01*
X136568452Y-102410767D01*
X136604844Y-102424301D01*
X136721341Y-102467626D01*
X136890015Y-102490132D01*
X136897026Y-102489494D01*
X136897030Y-102489494D01*
X137052462Y-102475348D01*
X137059483Y-102474709D01*
X137066185Y-102472531D01*
X137066187Y-102472531D01*
X137214623Y-102424301D01*
X137214626Y-102424300D01*
X137221322Y-102422124D01*
X137367490Y-102334990D01*
X137372584Y-102330139D01*
X137372588Y-102330136D01*
X137484666Y-102223405D01*
X137490721Y-102217639D01*
X137584891Y-102075902D01*
X137645319Y-101916825D01*
X137669001Y-101748313D01*
X137669299Y-101727000D01*
X137650331Y-101557892D01*
X137634486Y-101512390D01*
X137619936Y-101470609D01*
X137594368Y-101397189D01*
X137588383Y-101387610D01*
X137561736Y-101344968D01*
X137504192Y-101252879D01*
X137491016Y-101239610D01*
X137440129Y-101188367D01*
X137384286Y-101132132D01*
X137368039Y-101121821D01*
X137302347Y-101080132D01*
X137240608Y-101040951D01*
X137080300Y-100983868D01*
X136911329Y-100963720D01*
X136904326Y-100964456D01*
X136904325Y-100964456D01*
X136749101Y-100980770D01*
X136749097Y-100980771D01*
X136742093Y-100981507D01*
X136731838Y-100984998D01*
X136587673Y-101034075D01*
X136587670Y-101034076D01*
X136581003Y-101036346D01*
X136575005Y-101040036D01*
X136575003Y-101040037D01*
X136442065Y-101121821D01*
X136442063Y-101121823D01*
X136436066Y-101125512D01*
X136314486Y-101244573D01*
X136310675Y-101250487D01*
X136310673Y-101250489D01*
X136250888Y-101343256D01*
X136222304Y-101387610D01*
X136164103Y-101547516D01*
X136142775Y-101716343D01*
X116892026Y-101716343D01*
X116970219Y-101571728D01*
X117031835Y-101372679D01*
X117032590Y-101365500D01*
X117052971Y-101171582D01*
X117052971Y-101171580D01*
X117053615Y-101165453D01*
X117039000Y-101004862D01*
X117035289Y-100964085D01*
X117035289Y-100964084D01*
X117034730Y-100957944D01*
X117027905Y-100934753D01*
X116996292Y-100827343D01*
X144397775Y-100827343D01*
X144414381Y-100996699D01*
X144416605Y-101003384D01*
X144416605Y-101003385D01*
X144422654Y-101021568D01*
X144468094Y-101158167D01*
X144471741Y-101164189D01*
X144471742Y-101164191D01*
X144552188Y-101297022D01*
X144556246Y-101303723D01*
X144674455Y-101426132D01*
X144680351Y-101429990D01*
X144797434Y-101506607D01*
X144816846Y-101519310D01*
X144823450Y-101521766D01*
X144823452Y-101521767D01*
X144859196Y-101535060D01*
X144976341Y-101578626D01*
X145145015Y-101601132D01*
X145152026Y-101600494D01*
X145152030Y-101600494D01*
X145307462Y-101586348D01*
X145314483Y-101585709D01*
X145321185Y-101583531D01*
X145321187Y-101583531D01*
X145409202Y-101554933D01*
X145480170Y-101552906D01*
X145540967Y-101589568D01*
X145555913Y-101609493D01*
X145583330Y-101654762D01*
X145592179Y-101669373D01*
X145597070Y-101674438D01*
X145597071Y-101674439D01*
X145651654Y-101730961D01*
X145706491Y-101787747D01*
X145844189Y-101877854D01*
X145998428Y-101935215D01*
X146005409Y-101936146D01*
X146005411Y-101936147D01*
X146154561Y-101956048D01*
X146154565Y-101956048D01*
X146161542Y-101956979D01*
X146168553Y-101956341D01*
X146168557Y-101956341D01*
X146318403Y-101942704D01*
X146318404Y-101942704D01*
X146325424Y-101942065D01*
X146354062Y-101932760D01*
X146475230Y-101893390D01*
X146475233Y-101893389D01*
X146481929Y-101891213D01*
X146623279Y-101806951D01*
X146742449Y-101693468D01*
X146746465Y-101687424D01*
X146829614Y-101562275D01*
X146829615Y-101562273D01*
X146833515Y-101556403D01*
X146891951Y-101402568D01*
X146906689Y-101297700D01*
X146914302Y-101243534D01*
X146914303Y-101243527D01*
X146914853Y-101239610D01*
X146915141Y-101219000D01*
X146896798Y-101055466D01*
X146884994Y-101021568D01*
X146844998Y-100906717D01*
X146842680Y-100900060D01*
X146835912Y-100889228D01*
X146797461Y-100827694D01*
X152776931Y-100827694D01*
X152792989Y-100991468D01*
X152844932Y-101147615D01*
X152848581Y-101153640D01*
X152926084Y-101281611D01*
X152930179Y-101288373D01*
X152935070Y-101293438D01*
X152935071Y-101293439D01*
X152952237Y-101311215D01*
X153044491Y-101406747D01*
X153182189Y-101496854D01*
X153336428Y-101554215D01*
X153343409Y-101555146D01*
X153343411Y-101555147D01*
X153492561Y-101575048D01*
X153492565Y-101575048D01*
X153499542Y-101575979D01*
X153506553Y-101575341D01*
X153506557Y-101575341D01*
X153656403Y-101561704D01*
X153656404Y-101561704D01*
X153663424Y-101561065D01*
X153722971Y-101541717D01*
X153813230Y-101512390D01*
X153813233Y-101512389D01*
X153819929Y-101510213D01*
X153961279Y-101425951D01*
X154080449Y-101312468D01*
X154090261Y-101297700D01*
X154167614Y-101181275D01*
X154167615Y-101181273D01*
X154171515Y-101175403D01*
X154229951Y-101021568D01*
X154242184Y-100934523D01*
X154252302Y-100862534D01*
X154252303Y-100862527D01*
X154252853Y-100858610D01*
X154253141Y-100838000D01*
X154234798Y-100674466D01*
X154228998Y-100657809D01*
X154197930Y-100568596D01*
X154180680Y-100519060D01*
X154170472Y-100502723D01*
X154097209Y-100385479D01*
X154093476Y-100379505D01*
X154012780Y-100298244D01*
X154009160Y-100294599D01*
X158231319Y-100294599D01*
X158232298Y-100300296D01*
X158232298Y-100300297D01*
X158263327Y-100480877D01*
X158267501Y-100505166D01*
X158341450Y-100705613D01*
X158344402Y-100710574D01*
X158344402Y-100710575D01*
X158434808Y-100862534D01*
X158450689Y-100889228D01*
X158454495Y-100893568D01*
X158454498Y-100893572D01*
X158566748Y-101021568D01*
X158591560Y-101049860D01*
X158759345Y-101182131D01*
X158764456Y-101184820D01*
X158764459Y-101184822D01*
X158782550Y-101194340D01*
X158948425Y-101281611D01*
X158953946Y-101283325D01*
X158953950Y-101283327D01*
X159146952Y-101343256D01*
X159146957Y-101343257D01*
X159152467Y-101344968D01*
X159182918Y-101348572D01*
X159322255Y-101365064D01*
X159322261Y-101365064D01*
X159325942Y-101365500D01*
X160757396Y-101365500D01*
X160867340Y-101355397D01*
X160910201Y-101351459D01*
X160910203Y-101351459D01*
X160915956Y-101350930D01*
X161073149Y-101306597D01*
X161116028Y-101294504D01*
X161116030Y-101294503D01*
X161121587Y-101292936D01*
X161126763Y-101290384D01*
X161126767Y-101290382D01*
X161308026Y-101200995D01*
X161313207Y-101198440D01*
X161319337Y-101193863D01*
X161479773Y-101074060D01*
X161479774Y-101074059D01*
X161484397Y-101070607D01*
X161489169Y-101065445D01*
X161625505Y-100917957D01*
X161625507Y-100917954D01*
X161629424Y-100913717D01*
X161743432Y-100733025D01*
X161822603Y-100534582D01*
X161823728Y-100528925D01*
X161823730Y-100528919D01*
X161863157Y-100330703D01*
X161863157Y-100330699D01*
X161864284Y-100325035D01*
X161864683Y-100294599D01*
X161866187Y-100179662D01*
X161866594Y-100148604D01*
X163936987Y-100148604D01*
X163946767Y-100359899D01*
X163948171Y-100365724D01*
X163948171Y-100365725D01*
X163988866Y-100534582D01*
X163996325Y-100565534D01*
X163998807Y-100570992D01*
X163998808Y-100570996D01*
X164044615Y-100671742D01*
X164083874Y-100758087D01*
X164152370Y-100854649D01*
X164200281Y-100922190D01*
X164206254Y-100930611D01*
X164359050Y-101076881D01*
X164536748Y-101191620D01*
X164574660Y-101206899D01*
X164727368Y-101268442D01*
X164727371Y-101268443D01*
X164732937Y-101270686D01*
X164940537Y-101311228D01*
X164946099Y-101311500D01*
X165102046Y-101311500D01*
X165259766Y-101296452D01*
X165462734Y-101236908D01*
X165521000Y-101206899D01*
X165645449Y-101142804D01*
X165645452Y-101142802D01*
X165650780Y-101140058D01*
X165817120Y-101009396D01*
X165821052Y-101004865D01*
X165821055Y-101004862D01*
X165951821Y-100854167D01*
X165955752Y-100849637D01*
X165958752Y-100844451D01*
X165958755Y-100844447D01*
X166058667Y-100671742D01*
X166061673Y-100666546D01*
X166131061Y-100466729D01*
X166140674Y-100400433D01*
X166160552Y-100263336D01*
X166160552Y-100263333D01*
X166161413Y-100257396D01*
X166151633Y-100046101D01*
X166110899Y-99877081D01*
X166103481Y-99846299D01*
X166103480Y-99846297D01*
X166102075Y-99840466D01*
X166058725Y-99745122D01*
X166038385Y-99700387D01*
X166014526Y-99647913D01*
X165892146Y-99475389D01*
X165739350Y-99329119D01*
X165561652Y-99214380D01*
X165474066Y-99179082D01*
X165371032Y-99137558D01*
X165371029Y-99137557D01*
X165365463Y-99135314D01*
X165157863Y-99094772D01*
X165152301Y-99094500D01*
X164996354Y-99094500D01*
X164838634Y-99109548D01*
X164635666Y-99169092D01*
X164630339Y-99171836D01*
X164630338Y-99171836D01*
X164452951Y-99263196D01*
X164452948Y-99263198D01*
X164447620Y-99265942D01*
X164281280Y-99396604D01*
X164277348Y-99401135D01*
X164277345Y-99401138D01*
X164208674Y-99480275D01*
X164142648Y-99556363D01*
X164139648Y-99561549D01*
X164139645Y-99561553D01*
X164092512Y-99643026D01*
X164036727Y-99739454D01*
X163967339Y-99939271D01*
X163966478Y-99945206D01*
X163966478Y-99945208D01*
X163940885Y-100121723D01*
X163936987Y-100148604D01*
X161866594Y-100148604D01*
X161867081Y-100111401D01*
X161864647Y-100097233D01*
X161831878Y-99906531D01*
X161831878Y-99906530D01*
X161830899Y-99900834D01*
X161756950Y-99700387D01*
X161728977Y-99653368D01*
X161650667Y-99521740D01*
X161650665Y-99521737D01*
X161647711Y-99516772D01*
X161643905Y-99512432D01*
X161643902Y-99512428D01*
X161510647Y-99360481D01*
X161506840Y-99356140D01*
X161339055Y-99223869D01*
X161333944Y-99221180D01*
X161333941Y-99221178D01*
X161230643Y-99166830D01*
X161149975Y-99124389D01*
X161144454Y-99122675D01*
X161144450Y-99122673D01*
X160951448Y-99062744D01*
X160951443Y-99062743D01*
X160945933Y-99061032D01*
X160895560Y-99055070D01*
X160776145Y-99040936D01*
X160776139Y-99040936D01*
X160772458Y-99040500D01*
X159341004Y-99040500D01*
X159231060Y-99050603D01*
X159188199Y-99054541D01*
X159188197Y-99054541D01*
X159182444Y-99055070D01*
X159100687Y-99078128D01*
X158982372Y-99111496D01*
X158982370Y-99111497D01*
X158976813Y-99113064D01*
X158971637Y-99115616D01*
X158971633Y-99115618D01*
X158842941Y-99179082D01*
X158785193Y-99207560D01*
X158780567Y-99211014D01*
X158780566Y-99211015D01*
X158622405Y-99329119D01*
X158614003Y-99335393D01*
X158610089Y-99339627D01*
X158610087Y-99339629D01*
X158484593Y-99475389D01*
X158468976Y-99492283D01*
X158354968Y-99672975D01*
X158275797Y-99871418D01*
X158274672Y-99877075D01*
X158274670Y-99877081D01*
X158239859Y-100052091D01*
X158234116Y-100080965D01*
X158234040Y-100086740D01*
X158234040Y-100086744D01*
X158232900Y-100173809D01*
X158231319Y-100294599D01*
X154009160Y-100294599D01*
X153982486Y-100267737D01*
X153982482Y-100267734D01*
X153977522Y-100262739D01*
X153838580Y-100174563D01*
X153775078Y-100151951D01*
X153690189Y-100121723D01*
X153690187Y-100121722D01*
X153683555Y-100119361D01*
X153676569Y-100118528D01*
X153676565Y-100118527D01*
X153562071Y-100104875D01*
X153520153Y-100099877D01*
X153513150Y-100100613D01*
X153513149Y-100100613D01*
X153469935Y-100105155D01*
X153356495Y-100117078D01*
X153349827Y-100119348D01*
X153207382Y-100167840D01*
X153207379Y-100167841D01*
X153200715Y-100170110D01*
X153145878Y-100203846D01*
X153068582Y-100251399D01*
X153060555Y-100256337D01*
X153043913Y-100272634D01*
X152948852Y-100365725D01*
X152942982Y-100371473D01*
X152853838Y-100509797D01*
X152851427Y-100516420D01*
X152851426Y-100516423D01*
X152799966Y-100657809D01*
X152799965Y-100657814D01*
X152797556Y-100664432D01*
X152776931Y-100827694D01*
X146797461Y-100827694D01*
X146759209Y-100766479D01*
X146755476Y-100760505D01*
X146676986Y-100681465D01*
X146644486Y-100648737D01*
X146644482Y-100648734D01*
X146639522Y-100643739D01*
X146500580Y-100555563D01*
X146395549Y-100518163D01*
X146352189Y-100502723D01*
X146352187Y-100502722D01*
X146345555Y-100500361D01*
X146338569Y-100499528D01*
X146338565Y-100499527D01*
X146224071Y-100485875D01*
X146182153Y-100480877D01*
X146175150Y-100481613D01*
X146175149Y-100481613D01*
X146025503Y-100497341D01*
X146025499Y-100497342D01*
X146018495Y-100498078D01*
X145968361Y-100515145D01*
X145897431Y-100518163D01*
X145836127Y-100482353D01*
X145820906Y-100462641D01*
X145759192Y-100363879D01*
X145749292Y-100353909D01*
X145694014Y-100298244D01*
X145639286Y-100243132D01*
X145623039Y-100232821D01*
X145531659Y-100174830D01*
X145495608Y-100151951D01*
X145335300Y-100094868D01*
X145166329Y-100074720D01*
X145159326Y-100075456D01*
X145159325Y-100075456D01*
X145004101Y-100091770D01*
X145004097Y-100091771D01*
X144997093Y-100092507D01*
X144990422Y-100094778D01*
X144842673Y-100145075D01*
X144842670Y-100145076D01*
X144836003Y-100147346D01*
X144830005Y-100151036D01*
X144830003Y-100151037D01*
X144697065Y-100232821D01*
X144697063Y-100232823D01*
X144691066Y-100236512D01*
X144569486Y-100355573D01*
X144565675Y-100361487D01*
X144565673Y-100361489D01*
X144536313Y-100407047D01*
X144477304Y-100498610D01*
X144419103Y-100658516D01*
X144397775Y-100827343D01*
X116996292Y-100827343D01*
X116977641Y-100763974D01*
X116975899Y-100758055D01*
X116965861Y-100738854D01*
X116882218Y-100578858D01*
X116882217Y-100578857D01*
X116879364Y-100573399D01*
X116748800Y-100411011D01*
X116694831Y-100365725D01*
X116610066Y-100294599D01*
X116589182Y-100277075D01*
X116406589Y-100176693D01*
X116207975Y-100113690D01*
X116201858Y-100113004D01*
X116201854Y-100113003D01*
X116125623Y-100104452D01*
X116045812Y-100095500D01*
X114825568Y-100095500D01*
X114670627Y-100110692D01*
X114471154Y-100170917D01*
X114287176Y-100268739D01*
X114125704Y-100400433D01*
X113992885Y-100560983D01*
X113893781Y-100744272D01*
X113889505Y-100758087D01*
X113862411Y-100845612D01*
X113823160Y-100904772D01*
X113758155Y-100933319D01*
X113688036Y-100922190D01*
X113635065Y-100874919D01*
X113621173Y-100843928D01*
X113597641Y-100763974D01*
X113595899Y-100758055D01*
X113585861Y-100738854D01*
X113502218Y-100578858D01*
X113502217Y-100578857D01*
X113499364Y-100573399D01*
X113368800Y-100411011D01*
X113314831Y-100365725D01*
X113230066Y-100294599D01*
X113209182Y-100277075D01*
X113026589Y-100176693D01*
X112827975Y-100113690D01*
X112821858Y-100113004D01*
X112821854Y-100113003D01*
X112745623Y-100104452D01*
X112665812Y-100095500D01*
X111445568Y-100095500D01*
X111290627Y-100110692D01*
X111091154Y-100170917D01*
X111085718Y-100173807D01*
X111085714Y-100173809D01*
X111056153Y-100189527D01*
X110986615Y-100203846D01*
X110920375Y-100178298D01*
X110878462Y-100120993D01*
X110871000Y-100078275D01*
X110871000Y-98171000D01*
X130658496Y-98171000D01*
X130659186Y-98177565D01*
X130664742Y-98230423D01*
X130678458Y-98360928D01*
X130737473Y-98542556D01*
X130740776Y-98548278D01*
X130740777Y-98548279D01*
X130745213Y-98555962D01*
X130832960Y-98707944D01*
X130960747Y-98849866D01*
X131115248Y-98962118D01*
X131121276Y-98964802D01*
X131121278Y-98964803D01*
X131283681Y-99037109D01*
X131289712Y-99039794D01*
X131359091Y-99054541D01*
X131470056Y-99078128D01*
X131470061Y-99078128D01*
X131476513Y-99079500D01*
X131667487Y-99079500D01*
X131673939Y-99078128D01*
X131673944Y-99078128D01*
X131784909Y-99054541D01*
X131854288Y-99039794D01*
X131860319Y-99037109D01*
X132022722Y-98964803D01*
X132022724Y-98964802D01*
X132028752Y-98962118D01*
X132183253Y-98849866D01*
X132311040Y-98707944D01*
X132398787Y-98555962D01*
X132403223Y-98548279D01*
X132403224Y-98548278D01*
X132406527Y-98542556D01*
X132406807Y-98541694D01*
X136421931Y-98541694D01*
X136437989Y-98705468D01*
X136489932Y-98861615D01*
X136493581Y-98867640D01*
X136552426Y-98964803D01*
X136575179Y-99002373D01*
X136580070Y-99007438D01*
X136580071Y-99007439D01*
X136612419Y-99040936D01*
X136689491Y-99120747D01*
X136827189Y-99210854D01*
X136981428Y-99268215D01*
X136988409Y-99269146D01*
X136988411Y-99269147D01*
X137137561Y-99289048D01*
X137137565Y-99289048D01*
X137144542Y-99289979D01*
X137151553Y-99289341D01*
X137151557Y-99289341D01*
X137301403Y-99275704D01*
X137301404Y-99275704D01*
X137308424Y-99275065D01*
X137331455Y-99267582D01*
X137458230Y-99226390D01*
X137458233Y-99226389D01*
X137464929Y-99224213D01*
X137475354Y-99217998D01*
X137544109Y-99200297D01*
X137588853Y-99211758D01*
X137589189Y-99210854D01*
X137743428Y-99268215D01*
X137750409Y-99269146D01*
X137750411Y-99269147D01*
X137899561Y-99289048D01*
X137899565Y-99289048D01*
X137906542Y-99289979D01*
X137913553Y-99289341D01*
X137913557Y-99289341D01*
X138063403Y-99275704D01*
X138063404Y-99275704D01*
X138070424Y-99275065D01*
X138093455Y-99267582D01*
X138220230Y-99226390D01*
X138220233Y-99226389D01*
X138226929Y-99224213D01*
X138368279Y-99139951D01*
X138487449Y-99026468D01*
X138503458Y-99002373D01*
X138574614Y-98895275D01*
X138574615Y-98895273D01*
X138578515Y-98889403D01*
X138636951Y-98735568D01*
X138659853Y-98572610D01*
X138660141Y-98552000D01*
X138658985Y-98541694D01*
X148994931Y-98541694D01*
X149010989Y-98705468D01*
X149062932Y-98861615D01*
X149066581Y-98867640D01*
X149125426Y-98964803D01*
X149148179Y-99002373D01*
X149153070Y-99007438D01*
X149153071Y-99007439D01*
X149185419Y-99040936D01*
X149262491Y-99120747D01*
X149400189Y-99210854D01*
X149554428Y-99268215D01*
X149561409Y-99269146D01*
X149561411Y-99269147D01*
X149710561Y-99289048D01*
X149710565Y-99289048D01*
X149717542Y-99289979D01*
X149724553Y-99289341D01*
X149724557Y-99289341D01*
X149874403Y-99275704D01*
X149874404Y-99275704D01*
X149881424Y-99275065D01*
X149904455Y-99267582D01*
X150031230Y-99226390D01*
X150031233Y-99226389D01*
X150037929Y-99224213D01*
X150179279Y-99139951D01*
X150298449Y-99026468D01*
X150314458Y-99002373D01*
X150385614Y-98895275D01*
X150385615Y-98895273D01*
X150389515Y-98889403D01*
X150447951Y-98735568D01*
X150470853Y-98572610D01*
X150471141Y-98552000D01*
X150452798Y-98388466D01*
X150446998Y-98371809D01*
X150400998Y-98239717D01*
X150398680Y-98233060D01*
X150359901Y-98171000D01*
X150315209Y-98099479D01*
X150311476Y-98093505D01*
X150253499Y-98035122D01*
X150200486Y-97981737D01*
X150200482Y-97981734D01*
X150195522Y-97976739D01*
X150056580Y-97888563D01*
X150007447Y-97871068D01*
X149908189Y-97835723D01*
X149908187Y-97835722D01*
X149901555Y-97833361D01*
X149894569Y-97832528D01*
X149894565Y-97832527D01*
X149780071Y-97818875D01*
X149738153Y-97813877D01*
X149731150Y-97814613D01*
X149731149Y-97814613D01*
X149687935Y-97819155D01*
X149574495Y-97831078D01*
X149567827Y-97833348D01*
X149425382Y-97881840D01*
X149425379Y-97881841D01*
X149418715Y-97884110D01*
X149278555Y-97970337D01*
X149160982Y-98085473D01*
X149071838Y-98223797D01*
X149069427Y-98230420D01*
X149069426Y-98230423D01*
X149017966Y-98371809D01*
X149017965Y-98371814D01*
X149015556Y-98378432D01*
X148994931Y-98541694D01*
X138658985Y-98541694D01*
X138641798Y-98388466D01*
X138635998Y-98371809D01*
X138589998Y-98239717D01*
X138587680Y-98233060D01*
X138548901Y-98171000D01*
X138504209Y-98099479D01*
X138500476Y-98093505D01*
X138442499Y-98035122D01*
X138389486Y-97981737D01*
X138389482Y-97981734D01*
X138384522Y-97976739D01*
X138245580Y-97888563D01*
X138196447Y-97871068D01*
X138097189Y-97835723D01*
X138097187Y-97835722D01*
X138090555Y-97833361D01*
X138083569Y-97832528D01*
X138083565Y-97832527D01*
X137969071Y-97818875D01*
X137927153Y-97813877D01*
X137920150Y-97814613D01*
X137920149Y-97814613D01*
X137876935Y-97819155D01*
X137763495Y-97831078D01*
X137756827Y-97833348D01*
X137614382Y-97881840D01*
X137614379Y-97881841D01*
X137607715Y-97884110D01*
X137601717Y-97887800D01*
X137595342Y-97890800D01*
X137594058Y-97888071D01*
X137538534Y-97903216D01*
X137487150Y-97890829D01*
X137483580Y-97888563D01*
X137476941Y-97886199D01*
X137476937Y-97886197D01*
X137335189Y-97835723D01*
X137335187Y-97835722D01*
X137328555Y-97833361D01*
X137321569Y-97832528D01*
X137321565Y-97832527D01*
X137207071Y-97818875D01*
X137165153Y-97813877D01*
X137158150Y-97814613D01*
X137158149Y-97814613D01*
X137114935Y-97819155D01*
X137001495Y-97831078D01*
X136994827Y-97833348D01*
X136852382Y-97881840D01*
X136852379Y-97881841D01*
X136845715Y-97884110D01*
X136705555Y-97970337D01*
X136587982Y-98085473D01*
X136498838Y-98223797D01*
X136496427Y-98230420D01*
X136496426Y-98230423D01*
X136444966Y-98371809D01*
X136444965Y-98371814D01*
X136442556Y-98378432D01*
X136421931Y-98541694D01*
X132406807Y-98541694D01*
X132465542Y-98360928D01*
X132479259Y-98230423D01*
X132484814Y-98177565D01*
X132485504Y-98171000D01*
X132465542Y-97981072D01*
X132406527Y-97799444D01*
X132311040Y-97634056D01*
X132183253Y-97492134D01*
X132042907Y-97390166D01*
X132034094Y-97383763D01*
X132034093Y-97383762D01*
X132028752Y-97379882D01*
X132022724Y-97377198D01*
X132022722Y-97377197D01*
X131860319Y-97304891D01*
X131860318Y-97304891D01*
X131854288Y-97302206D01*
X131760888Y-97282353D01*
X131673944Y-97263872D01*
X131673939Y-97263872D01*
X131667487Y-97262500D01*
X131476513Y-97262500D01*
X131470061Y-97263872D01*
X131470056Y-97263872D01*
X131383113Y-97282353D01*
X131289712Y-97302206D01*
X131283682Y-97304891D01*
X131283681Y-97304891D01*
X131121278Y-97377197D01*
X131121276Y-97377198D01*
X131115248Y-97379882D01*
X131109907Y-97383762D01*
X131109906Y-97383763D01*
X131101093Y-97390166D01*
X130960747Y-97492134D01*
X130832960Y-97634056D01*
X130737473Y-97799444D01*
X130678458Y-97981072D01*
X130658496Y-98171000D01*
X110871000Y-98171000D01*
X110871000Y-97058836D01*
X110891002Y-96990715D01*
X110944658Y-96944222D01*
X111014932Y-96934118D01*
X111057511Y-96948317D01*
X111078344Y-96959723D01*
X111198794Y-97004878D01*
X111214049Y-97008505D01*
X111264914Y-97014031D01*
X111271728Y-97014400D01*
X111894285Y-97014400D01*
X111909524Y-97009925D01*
X111910729Y-97008535D01*
X111912400Y-97000852D01*
X111912400Y-96996284D01*
X112420400Y-96996284D01*
X112424875Y-97011523D01*
X112426265Y-97012728D01*
X112433948Y-97014399D01*
X113061069Y-97014399D01*
X113067890Y-97014029D01*
X113118752Y-97008505D01*
X113134004Y-97004879D01*
X113254454Y-96959724D01*
X113270049Y-96951186D01*
X113372124Y-96874685D01*
X113384685Y-96862124D01*
X113461186Y-96760049D01*
X113469724Y-96744454D01*
X113514878Y-96624006D01*
X113518505Y-96608751D01*
X113524031Y-96557886D01*
X113524400Y-96551072D01*
X113524400Y-96520000D01*
X147422496Y-96520000D01*
X147423186Y-96526565D01*
X147441578Y-96701551D01*
X147442458Y-96709928D01*
X147501473Y-96891556D01*
X147596960Y-97056944D01*
X147724747Y-97198866D01*
X147812331Y-97262500D01*
X147866982Y-97302206D01*
X147879248Y-97311118D01*
X147885276Y-97313802D01*
X147885278Y-97313803D01*
X148033695Y-97379882D01*
X148053712Y-97388794D01*
X148147112Y-97408647D01*
X148234056Y-97427128D01*
X148234061Y-97427128D01*
X148240513Y-97428500D01*
X148431487Y-97428500D01*
X148437939Y-97427128D01*
X148437944Y-97427128D01*
X148524888Y-97408647D01*
X148618288Y-97388794D01*
X148638305Y-97379882D01*
X148786722Y-97313803D01*
X148786724Y-97313802D01*
X148792752Y-97311118D01*
X148805019Y-97302206D01*
X148859669Y-97262500D01*
X148947253Y-97198866D01*
X149075040Y-97056944D01*
X149170527Y-96891556D01*
X149229542Y-96709928D01*
X149230423Y-96701551D01*
X149248814Y-96526565D01*
X149249504Y-96520000D01*
X149229542Y-96330072D01*
X149170527Y-96148444D01*
X149144460Y-96103294D01*
X155370331Y-96103294D01*
X155386389Y-96267068D01*
X155438332Y-96423215D01*
X155441981Y-96429240D01*
X155519893Y-96557886D01*
X155523579Y-96563973D01*
X155637891Y-96682347D01*
X155775589Y-96772454D01*
X155929828Y-96829815D01*
X155936809Y-96830746D01*
X155936811Y-96830747D01*
X156085961Y-96850648D01*
X156085965Y-96850648D01*
X156092942Y-96851579D01*
X156099953Y-96850941D01*
X156099957Y-96850941D01*
X156249803Y-96837304D01*
X156249804Y-96837304D01*
X156256824Y-96836665D01*
X156285462Y-96827360D01*
X156406630Y-96787990D01*
X156406633Y-96787989D01*
X156413329Y-96785813D01*
X156554679Y-96701551D01*
X156673849Y-96588068D01*
X156689858Y-96563973D01*
X156761014Y-96456875D01*
X156761015Y-96456873D01*
X156764915Y-96451003D01*
X156823351Y-96297168D01*
X156831907Y-96236289D01*
X156845702Y-96138134D01*
X156845703Y-96138127D01*
X156846253Y-96134210D01*
X156846541Y-96113600D01*
X156828198Y-95950066D01*
X156822398Y-95933409D01*
X156776398Y-95801317D01*
X156774080Y-95794660D01*
X156753288Y-95761386D01*
X162286759Y-95761386D01*
X162294216Y-95771753D01*
X162533935Y-95965874D01*
X162539272Y-95969751D01*
X162859685Y-96177830D01*
X162865394Y-96181127D01*
X163205811Y-96354578D01*
X163211836Y-96357260D01*
X163568502Y-96494171D01*
X163574784Y-96496212D01*
X163943816Y-96595094D01*
X163950266Y-96596465D01*
X164327629Y-96656234D01*
X164334167Y-96656920D01*
X164715699Y-96676916D01*
X164722301Y-96676916D01*
X165103833Y-96656920D01*
X165110371Y-96656234D01*
X165487734Y-96596465D01*
X165494184Y-96595094D01*
X165863216Y-96496212D01*
X165869498Y-96494171D01*
X166226164Y-96357260D01*
X166232189Y-96354578D01*
X166572606Y-96181127D01*
X166578315Y-96177830D01*
X166898728Y-95969751D01*
X166904065Y-95965874D01*
X167142835Y-95772522D01*
X167151300Y-95760267D01*
X167144966Y-95749176D01*
X164731812Y-93336022D01*
X164717868Y-93328408D01*
X164716035Y-93328539D01*
X164709420Y-93332790D01*
X162293900Y-95748310D01*
X162286759Y-95761386D01*
X156753288Y-95761386D01*
X156736547Y-95734594D01*
X156690609Y-95661079D01*
X156686876Y-95655105D01*
X156614975Y-95582700D01*
X156575886Y-95543337D01*
X156575882Y-95543334D01*
X156570922Y-95538339D01*
X156431980Y-95450163D01*
X156300402Y-95403310D01*
X156283589Y-95397323D01*
X156283587Y-95397322D01*
X156276955Y-95394961D01*
X156269969Y-95394128D01*
X156269965Y-95394127D01*
X156155471Y-95380475D01*
X156113553Y-95375477D01*
X156106550Y-95376213D01*
X156106549Y-95376213D01*
X156063335Y-95380755D01*
X155949895Y-95392678D01*
X155938565Y-95396535D01*
X155800782Y-95443440D01*
X155800779Y-95443441D01*
X155794115Y-95445710D01*
X155653955Y-95531937D01*
X155536382Y-95647073D01*
X155447238Y-95785397D01*
X155444827Y-95792020D01*
X155444826Y-95792023D01*
X155393366Y-95933409D01*
X155393365Y-95933414D01*
X155390956Y-95940032D01*
X155370331Y-96103294D01*
X149144460Y-96103294D01*
X149075040Y-95983056D01*
X149039345Y-95943412D01*
X148951675Y-95846045D01*
X148951674Y-95846044D01*
X148947253Y-95841134D01*
X148792752Y-95728882D01*
X148786724Y-95726198D01*
X148786722Y-95726197D01*
X148624319Y-95653891D01*
X148624318Y-95653891D01*
X148618288Y-95651206D01*
X148524888Y-95631353D01*
X148437944Y-95612872D01*
X148437939Y-95612872D01*
X148431487Y-95611500D01*
X148240513Y-95611500D01*
X148234061Y-95612872D01*
X148234056Y-95612872D01*
X148147112Y-95631353D01*
X148053712Y-95651206D01*
X148047682Y-95653891D01*
X148047681Y-95653891D01*
X147885278Y-95726197D01*
X147885276Y-95726198D01*
X147879248Y-95728882D01*
X147724747Y-95841134D01*
X147720326Y-95846044D01*
X147720325Y-95846045D01*
X147632656Y-95943412D01*
X147596960Y-95983056D01*
X147501473Y-96148444D01*
X147442458Y-96330072D01*
X147422496Y-96520000D01*
X113524400Y-96520000D01*
X113524400Y-95928515D01*
X113519925Y-95913276D01*
X113518535Y-95912071D01*
X113510852Y-95910400D01*
X112438515Y-95910400D01*
X112423276Y-95914875D01*
X112422071Y-95916265D01*
X112420400Y-95923948D01*
X112420400Y-96996284D01*
X111912400Y-96996284D01*
X111912400Y-95528400D01*
X111932402Y-95460279D01*
X111986058Y-95413786D01*
X112038400Y-95402400D01*
X113506284Y-95402400D01*
X113521523Y-95397925D01*
X113522728Y-95396535D01*
X113524399Y-95388852D01*
X113524399Y-95112343D01*
X133729775Y-95112343D01*
X133746381Y-95281699D01*
X133800094Y-95443167D01*
X133803741Y-95449189D01*
X133803742Y-95449191D01*
X133855447Y-95534565D01*
X133888246Y-95588723D01*
X134006455Y-95711132D01*
X134148846Y-95804310D01*
X134155450Y-95806766D01*
X134155452Y-95806767D01*
X134191844Y-95820301D01*
X134308341Y-95863626D01*
X134477015Y-95886132D01*
X134484026Y-95885494D01*
X134484030Y-95885494D01*
X134639462Y-95871348D01*
X134646483Y-95870709D01*
X134653185Y-95868531D01*
X134653187Y-95868531D01*
X134801623Y-95820301D01*
X134801626Y-95820300D01*
X134808322Y-95818124D01*
X134954490Y-95730990D01*
X134959584Y-95726139D01*
X134959588Y-95726136D01*
X135042612Y-95647073D01*
X135077721Y-95613639D01*
X135171891Y-95471902D01*
X135232319Y-95312825D01*
X135256001Y-95144313D01*
X135256299Y-95123000D01*
X135237331Y-94953892D01*
X135227468Y-94925568D01*
X135189870Y-94817603D01*
X135181368Y-94793189D01*
X135175383Y-94783610D01*
X135116135Y-94688796D01*
X135091192Y-94648879D01*
X135078016Y-94635610D01*
X135047315Y-94604694D01*
X136421931Y-94604694D01*
X136437989Y-94768468D01*
X136489932Y-94924615D01*
X136493581Y-94930640D01*
X136570496Y-95057640D01*
X136575179Y-95065373D01*
X136580070Y-95070438D01*
X136580071Y-95070439D01*
X136634654Y-95126961D01*
X136689491Y-95183747D01*
X136827189Y-95273854D01*
X136981428Y-95331215D01*
X136988409Y-95332146D01*
X136988411Y-95332147D01*
X137137561Y-95352048D01*
X137137565Y-95352048D01*
X137144542Y-95352979D01*
X137151553Y-95352341D01*
X137151557Y-95352341D01*
X137301403Y-95338704D01*
X137301404Y-95338704D01*
X137308424Y-95338065D01*
X137348338Y-95325096D01*
X137458230Y-95289390D01*
X137458233Y-95289389D01*
X137464929Y-95287213D01*
X137606279Y-95202951D01*
X137725449Y-95089468D01*
X137732136Y-95079403D01*
X137812614Y-94958275D01*
X137812615Y-94958273D01*
X137816515Y-94952403D01*
X137874951Y-94798568D01*
X137881907Y-94749075D01*
X137911196Y-94684401D01*
X137970800Y-94645828D01*
X138041796Y-94645603D01*
X138080742Y-94664675D01*
X138221906Y-94767237D01*
X138227248Y-94771118D01*
X138233276Y-94773802D01*
X138233278Y-94773803D01*
X138344480Y-94823313D01*
X138401712Y-94848794D01*
X138495113Y-94868647D01*
X138582056Y-94887128D01*
X138582061Y-94887128D01*
X138588513Y-94888500D01*
X138779487Y-94888500D01*
X138785939Y-94887128D01*
X138785944Y-94887128D01*
X138872888Y-94868647D01*
X138966288Y-94848794D01*
X139023520Y-94823313D01*
X139134722Y-94773803D01*
X139134724Y-94773802D01*
X139140752Y-94771118D01*
X139147062Y-94766534D01*
X139195015Y-94731694D01*
X157351531Y-94731694D01*
X157367589Y-94895468D01*
X157419532Y-95051615D01*
X157423181Y-95057640D01*
X157496486Y-95178679D01*
X157504779Y-95192373D01*
X157509670Y-95197438D01*
X157509671Y-95197439D01*
X157514994Y-95202951D01*
X157619091Y-95310747D01*
X157756789Y-95400854D01*
X157911028Y-95458215D01*
X157918009Y-95459146D01*
X157918011Y-95459147D01*
X158067161Y-95479048D01*
X158067165Y-95479048D01*
X158074142Y-95479979D01*
X158081153Y-95479341D01*
X158081157Y-95479341D01*
X158231003Y-95465704D01*
X158231004Y-95465704D01*
X158238024Y-95465065D01*
X158283887Y-95450163D01*
X158387830Y-95416390D01*
X158387833Y-95416389D01*
X158394529Y-95414213D01*
X158535879Y-95329951D01*
X158655049Y-95216468D01*
X158658950Y-95210597D01*
X158742214Y-95085275D01*
X158742215Y-95085273D01*
X158746115Y-95079403D01*
X158804551Y-94925568D01*
X158818922Y-94823313D01*
X158826902Y-94766534D01*
X158826903Y-94766527D01*
X158827453Y-94762610D01*
X158827741Y-94742000D01*
X158809398Y-94578466D01*
X158803598Y-94561809D01*
X158774130Y-94477189D01*
X158755280Y-94423060D01*
X158729769Y-94382233D01*
X158671809Y-94289479D01*
X158668076Y-94283505D01*
X158587679Y-94202545D01*
X158557086Y-94171737D01*
X158557082Y-94171734D01*
X158552122Y-94166739D01*
X158413180Y-94078563D01*
X158364047Y-94061068D01*
X158264789Y-94025723D01*
X158264787Y-94025722D01*
X158258155Y-94023361D01*
X158251169Y-94022528D01*
X158251165Y-94022527D01*
X158136671Y-94008875D01*
X158094753Y-94003877D01*
X158087750Y-94004613D01*
X158087749Y-94004613D01*
X158044535Y-94009155D01*
X157931095Y-94021078D01*
X157924427Y-94023348D01*
X157781982Y-94071840D01*
X157781979Y-94071841D01*
X157775315Y-94074110D01*
X157709665Y-94114498D01*
X157654440Y-94148473D01*
X157635155Y-94160337D01*
X157625361Y-94169928D01*
X157524084Y-94269106D01*
X157517582Y-94275473D01*
X157428438Y-94413797D01*
X157426027Y-94420420D01*
X157426026Y-94420423D01*
X157374566Y-94561809D01*
X157374565Y-94561814D01*
X157372156Y-94568432D01*
X157351531Y-94731694D01*
X139195015Y-94731694D01*
X139204641Y-94724700D01*
X139295253Y-94658866D01*
X139306397Y-94646489D01*
X139418621Y-94521852D01*
X139418622Y-94521851D01*
X139423040Y-94516944D01*
X139518527Y-94351556D01*
X139577542Y-94169928D01*
X139578916Y-94156860D01*
X139596814Y-93986565D01*
X139597504Y-93980000D01*
X139586743Y-93877613D01*
X139578232Y-93796635D01*
X139578232Y-93796633D01*
X139577542Y-93790072D01*
X139518527Y-93608444D01*
X139423040Y-93443056D01*
X139295253Y-93301134D01*
X139140752Y-93188882D01*
X139134724Y-93186198D01*
X139134722Y-93186197D01*
X138972319Y-93113891D01*
X138972318Y-93113891D01*
X138966288Y-93111206D01*
X138872887Y-93091353D01*
X138785944Y-93072872D01*
X138785939Y-93072872D01*
X138779487Y-93071500D01*
X138588513Y-93071500D01*
X138582061Y-93072872D01*
X138582056Y-93072872D01*
X138495113Y-93091353D01*
X138401712Y-93111206D01*
X138395682Y-93113891D01*
X138395681Y-93113891D01*
X138233278Y-93186197D01*
X138233276Y-93186198D01*
X138227248Y-93188882D01*
X138072747Y-93301134D01*
X137944960Y-93443056D01*
X137849473Y-93608444D01*
X137790458Y-93790072D01*
X137789768Y-93796633D01*
X137789768Y-93796635D01*
X137776599Y-93921934D01*
X137749586Y-93987591D01*
X137691364Y-94028221D01*
X137620419Y-94030924D01*
X137583776Y-94015150D01*
X137483580Y-93951563D01*
X137433881Y-93933866D01*
X137335189Y-93898723D01*
X137335187Y-93898722D01*
X137328555Y-93896361D01*
X137321569Y-93895528D01*
X137321565Y-93895527D01*
X137207071Y-93881875D01*
X137165153Y-93876877D01*
X137158150Y-93877613D01*
X137158149Y-93877613D01*
X137114935Y-93882155D01*
X137001495Y-93894078D01*
X136994827Y-93896348D01*
X136852382Y-93944840D01*
X136852379Y-93944841D01*
X136845715Y-93947110D01*
X136705555Y-94033337D01*
X136587982Y-94148473D01*
X136498838Y-94286797D01*
X136496427Y-94293420D01*
X136496426Y-94293423D01*
X136444966Y-94434809D01*
X136444965Y-94434814D01*
X136442556Y-94441432D01*
X136421931Y-94604694D01*
X135047315Y-94604694D01*
X135004728Y-94561809D01*
X134971286Y-94528132D01*
X134961391Y-94521852D01*
X134881519Y-94471164D01*
X134827608Y-94436951D01*
X134667300Y-94379868D01*
X134498329Y-94359720D01*
X134491326Y-94360456D01*
X134491325Y-94360456D01*
X134336101Y-94376770D01*
X134336097Y-94376771D01*
X134329093Y-94377507D01*
X134322422Y-94379778D01*
X134174673Y-94430075D01*
X134174670Y-94430076D01*
X134168003Y-94432346D01*
X134162005Y-94436036D01*
X134162003Y-94436037D01*
X134029065Y-94517821D01*
X134029063Y-94517823D01*
X134023066Y-94521512D01*
X133901486Y-94640573D01*
X133897675Y-94646487D01*
X133897673Y-94646489D01*
X133815624Y-94773803D01*
X133809304Y-94783610D01*
X133805818Y-94793189D01*
X133757636Y-94925568D01*
X133751103Y-94943516D01*
X133729775Y-95112343D01*
X113524399Y-95112343D01*
X113524399Y-94761731D01*
X113524029Y-94754910D01*
X113518505Y-94704048D01*
X113514879Y-94688796D01*
X113469724Y-94568346D01*
X113461186Y-94552751D01*
X113384685Y-94450676D01*
X113372124Y-94438115D01*
X113270049Y-94361614D01*
X113254454Y-94353076D01*
X113144213Y-94311748D01*
X113087449Y-94269106D01*
X113062749Y-94202545D01*
X113077957Y-94133196D01*
X113099504Y-94104515D01*
X113200830Y-94003544D01*
X113200840Y-94003532D01*
X113204496Y-93999889D01*
X113244053Y-93944840D01*
X113331835Y-93822677D01*
X113334853Y-93818477D01*
X113347967Y-93791944D01*
X113431536Y-93622853D01*
X113431537Y-93622851D01*
X113433830Y-93618211D01*
X113498770Y-93404469D01*
X113518448Y-93255000D01*
X128245496Y-93255000D01*
X128246186Y-93261565D01*
X128261206Y-93404469D01*
X128265458Y-93444928D01*
X128324473Y-93626556D01*
X128419960Y-93791944D01*
X128424378Y-93796851D01*
X128424379Y-93796852D01*
X128534554Y-93919214D01*
X128547747Y-93933866D01*
X128645256Y-94004711D01*
X128691441Y-94038266D01*
X128702248Y-94046118D01*
X128708276Y-94048802D01*
X128708278Y-94048803D01*
X128870681Y-94121109D01*
X128876712Y-94123794D01*
X128969637Y-94143546D01*
X129057056Y-94162128D01*
X129057061Y-94162128D01*
X129063513Y-94163500D01*
X129254487Y-94163500D01*
X129260939Y-94162128D01*
X129260944Y-94162128D01*
X129348363Y-94143546D01*
X129441288Y-94123794D01*
X129447319Y-94121109D01*
X129609722Y-94048803D01*
X129609724Y-94048802D01*
X129615752Y-94046118D01*
X129626560Y-94038266D01*
X129672744Y-94004711D01*
X129770253Y-93933866D01*
X129783446Y-93919214D01*
X129893621Y-93796852D01*
X129893622Y-93796851D01*
X129898040Y-93791944D01*
X129993527Y-93626556D01*
X130052542Y-93444928D01*
X130056795Y-93404469D01*
X130071814Y-93261565D01*
X130072504Y-93255000D01*
X130064936Y-93182990D01*
X130053232Y-93071635D01*
X130053232Y-93071633D01*
X130052542Y-93065072D01*
X130020774Y-92967301D01*
X161006084Y-92967301D01*
X161026080Y-93348833D01*
X161026766Y-93355371D01*
X161086535Y-93732734D01*
X161087906Y-93739184D01*
X161186788Y-94108216D01*
X161188829Y-94114498D01*
X161325740Y-94471164D01*
X161328422Y-94477189D01*
X161501872Y-94817603D01*
X161505169Y-94823313D01*
X161713253Y-95143735D01*
X161717123Y-95149061D01*
X161910478Y-95387835D01*
X161922733Y-95396300D01*
X161933824Y-95389966D01*
X164346978Y-92976812D01*
X164354592Y-92962868D01*
X164354461Y-92961035D01*
X164350210Y-92954420D01*
X161934690Y-90538900D01*
X161921614Y-90531759D01*
X161911247Y-90539216D01*
X161717123Y-90778939D01*
X161713253Y-90784265D01*
X161505169Y-91104687D01*
X161501872Y-91110397D01*
X161328422Y-91450811D01*
X161325740Y-91456836D01*
X161188829Y-91813502D01*
X161186788Y-91819784D01*
X161087906Y-92188816D01*
X161086535Y-92195266D01*
X161026766Y-92572629D01*
X161026080Y-92579167D01*
X161006084Y-92960699D01*
X161006084Y-92967301D01*
X130020774Y-92967301D01*
X129993527Y-92883444D01*
X129989843Y-92877062D01*
X129910809Y-92740173D01*
X129898040Y-92718056D01*
X129812071Y-92622577D01*
X129774675Y-92581045D01*
X129774674Y-92581044D01*
X129770253Y-92576134D01*
X129622089Y-92468486D01*
X129621094Y-92467763D01*
X129621093Y-92467762D01*
X129615752Y-92463882D01*
X129609724Y-92461198D01*
X129609722Y-92461197D01*
X129447319Y-92388891D01*
X129447318Y-92388891D01*
X129441288Y-92386206D01*
X129347888Y-92366353D01*
X129260944Y-92347872D01*
X129260939Y-92347872D01*
X129254487Y-92346500D01*
X129063513Y-92346500D01*
X129057061Y-92347872D01*
X129057056Y-92347872D01*
X128970113Y-92366353D01*
X128876712Y-92386206D01*
X128870682Y-92388891D01*
X128870681Y-92388891D01*
X128708278Y-92461197D01*
X128708276Y-92461198D01*
X128702248Y-92463882D01*
X128696907Y-92467762D01*
X128696906Y-92467763D01*
X128695911Y-92468486D01*
X128547747Y-92576134D01*
X128543326Y-92581044D01*
X128543325Y-92581045D01*
X128505930Y-92622577D01*
X128419960Y-92718056D01*
X128407191Y-92740173D01*
X128328158Y-92877062D01*
X128324473Y-92883444D01*
X128265458Y-93065072D01*
X128264768Y-93071633D01*
X128264768Y-93071635D01*
X128253064Y-93182990D01*
X128245496Y-93255000D01*
X113518448Y-93255000D01*
X113527929Y-93182990D01*
X113529556Y-93116400D01*
X113511252Y-92893761D01*
X113456831Y-92677102D01*
X113367754Y-92472240D01*
X113312096Y-92386206D01*
X113249222Y-92289017D01*
X113249220Y-92289014D01*
X113246414Y-92284677D01*
X113096070Y-92119451D01*
X113092019Y-92116252D01*
X113092015Y-92116248D01*
X113046964Y-92080669D01*
X132500001Y-92080669D01*
X132500371Y-92087490D01*
X132505895Y-92138352D01*
X132509521Y-92153604D01*
X132554676Y-92274054D01*
X132563214Y-92289649D01*
X132639715Y-92391724D01*
X132652276Y-92404285D01*
X132754351Y-92480786D01*
X132769946Y-92489324D01*
X132890394Y-92534478D01*
X132905649Y-92538105D01*
X132956514Y-92543631D01*
X132963328Y-92544000D01*
X133585885Y-92544000D01*
X133601124Y-92539525D01*
X133602329Y-92538135D01*
X133604000Y-92530452D01*
X133604000Y-91458115D01*
X133599525Y-91442876D01*
X133598135Y-91441671D01*
X133590452Y-91440000D01*
X132518116Y-91440000D01*
X132502877Y-91444475D01*
X132501672Y-91445865D01*
X132500001Y-91453548D01*
X132500001Y-92080669D01*
X113046964Y-92080669D01*
X112924814Y-91984200D01*
X112924810Y-91984198D01*
X112920759Y-91980998D01*
X112725189Y-91873038D01*
X112720320Y-91871314D01*
X112720316Y-91871312D01*
X112519487Y-91800195D01*
X112519483Y-91800194D01*
X112514612Y-91798469D01*
X112509519Y-91797562D01*
X112509516Y-91797561D01*
X112299773Y-91760200D01*
X112299767Y-91760199D01*
X112294684Y-91759294D01*
X112220852Y-91758392D01*
X112076481Y-91756628D01*
X112076479Y-91756628D01*
X112071311Y-91756565D01*
X111850491Y-91790355D01*
X111638156Y-91859757D01*
X111440007Y-91962907D01*
X111435874Y-91966010D01*
X111435871Y-91966012D01*
X111265500Y-92093930D01*
X111261365Y-92097035D01*
X111257793Y-92100773D01*
X111125989Y-92238697D01*
X111064464Y-92274127D01*
X110993552Y-92270670D01*
X110935766Y-92229424D01*
X110909452Y-92163483D01*
X110910675Y-92130540D01*
X110911331Y-92126684D01*
X110938630Y-91966012D01*
X110943051Y-91939993D01*
X110946195Y-91926218D01*
X111032959Y-91625053D01*
X111037626Y-91611716D01*
X111135380Y-91375715D01*
X111157564Y-91322159D01*
X111163693Y-91309432D01*
X111315299Y-91035123D01*
X111322806Y-91023175D01*
X111504183Y-90767549D01*
X111512982Y-90756516D01*
X111721827Y-90522816D01*
X111731817Y-90512826D01*
X111965516Y-90303982D01*
X111976551Y-90295181D01*
X112232175Y-90113806D01*
X112244123Y-90106299D01*
X112518436Y-89954691D01*
X112531159Y-89948564D01*
X112642598Y-89902404D01*
X112820716Y-89828626D01*
X112834053Y-89823959D01*
X113135218Y-89737195D01*
X113148993Y-89734051D01*
X113303484Y-89707802D01*
X113457981Y-89681551D01*
X113472013Y-89679970D01*
X113749627Y-89664379D01*
X113776068Y-89665681D01*
X113785730Y-89667186D01*
X113817252Y-89663064D01*
X113833589Y-89662000D01*
X132681973Y-89662000D01*
X132750094Y-89682002D01*
G37*
G04 #@! TD.AperFunction*
G04 #@! TA.AperFunction,Conductor*
G36*
X165969356Y-118509248D02*
G01*
X166014419Y-118538209D01*
X167176903Y-119700693D01*
X167210929Y-119763005D01*
X167205864Y-119833820D01*
X167176903Y-119878883D01*
X166995883Y-120059903D01*
X166933571Y-120093929D01*
X166862756Y-120088864D01*
X166817693Y-120059903D01*
X165655209Y-118897419D01*
X165621183Y-118835107D01*
X165626248Y-118764292D01*
X165655209Y-118719229D01*
X165836229Y-118538209D01*
X165898541Y-118504183D01*
X165969356Y-118509248D01*
G37*
G04 #@! TD.AperFunction*
G04 #@! TA.AperFunction,Conductor*
G36*
X113010708Y-118509248D02*
G01*
X113055771Y-118538209D01*
X113236791Y-118719229D01*
X113270817Y-118781541D01*
X113265752Y-118852356D01*
X113236791Y-118897419D01*
X112074307Y-120059903D01*
X112011995Y-120093929D01*
X111941180Y-120088864D01*
X111896117Y-120059903D01*
X111715097Y-119878883D01*
X111681071Y-119816571D01*
X111686136Y-119745756D01*
X111715097Y-119700693D01*
X112877581Y-118538209D01*
X112939893Y-118504183D01*
X113010708Y-118509248D01*
G37*
G04 #@! TD.AperFunction*
G04 #@! TA.AperFunction,Conductor*
G36*
X166950820Y-90477136D02*
G01*
X166995883Y-90506097D01*
X167176903Y-90687117D01*
X167210929Y-90749429D01*
X167205864Y-90820244D01*
X167176903Y-90865307D01*
X166014419Y-92027791D01*
X165952107Y-92061817D01*
X165881292Y-92056752D01*
X165836229Y-92027791D01*
X165655209Y-91846771D01*
X165621183Y-91784459D01*
X165626248Y-91713644D01*
X165655209Y-91668581D01*
X166817693Y-90506097D01*
X166880005Y-90472071D01*
X166950820Y-90477136D01*
G37*
G04 #@! TD.AperFunction*
G04 #@! TD*
M02*
