G04 #@! TF.GenerationSoftware,KiCad,Pcbnew,(6.0.2-0)*
G04 #@! TF.CreationDate,2022-02-13T15:07:21-08:00*
G04 #@! TF.ProjectId,TimTime,54696d54-696d-4652-9e6b-696361645f70,rev?*
G04 #@! TF.SameCoordinates,Original*
G04 #@! TF.FileFunction,Copper,L1,Top*
G04 #@! TF.FilePolarity,Positive*
%FSLAX46Y46*%
G04 Gerber Fmt 4.6, Leading zero omitted, Abs format (unit mm)*
G04 Created by KiCad (PCBNEW (6.0.2-0)) date 2022-02-13 15:07:21*
%MOMM*%
%LPD*%
G01*
G04 APERTURE LIST*
G04 Aperture macros list*
%AMRoundRect*
0 Rectangle with rounded corners*
0 $1 Rounding radius*
0 $2 $3 $4 $5 $6 $7 $8 $9 X,Y pos of 4 corners*
0 Add a 4 corners polygon primitive as box body*
4,1,4,$2,$3,$4,$5,$6,$7,$8,$9,$2,$3,0*
0 Add four circle primitives for the rounded corners*
1,1,$1+$1,$2,$3*
1,1,$1+$1,$4,$5*
1,1,$1+$1,$6,$7*
1,1,$1+$1,$8,$9*
0 Add four rect primitives between the rounded corners*
20,1,$1+$1,$2,$3,$4,$5,0*
20,1,$1+$1,$4,$5,$6,$7,0*
20,1,$1+$1,$6,$7,$8,$9,0*
20,1,$1+$1,$8,$9,$2,$3,0*%
G04 Aperture macros list end*
G04 #@! TA.AperFunction,SMDPad,CuDef*
%ADD10R,1.200000X1.000000*%
G04 #@! TD*
G04 #@! TA.AperFunction,SMDPad,CuDef*
%ADD11RoundRect,0.237500X0.237500X-0.300000X0.237500X0.300000X-0.237500X0.300000X-0.237500X-0.300000X0*%
G04 #@! TD*
G04 #@! TA.AperFunction,SMDPad,CuDef*
%ADD12RoundRect,0.237500X0.300000X0.237500X-0.300000X0.237500X-0.300000X-0.237500X0.300000X-0.237500X0*%
G04 #@! TD*
G04 #@! TA.AperFunction,SMDPad,CuDef*
%ADD13RoundRect,0.237500X-0.237500X0.300000X-0.237500X-0.300000X0.237500X-0.300000X0.237500X0.300000X0*%
G04 #@! TD*
G04 #@! TA.AperFunction,SMDPad,CuDef*
%ADD14RoundRect,0.237500X-0.300000X-0.237500X0.300000X-0.237500X0.300000X0.237500X-0.300000X0.237500X0*%
G04 #@! TD*
G04 #@! TA.AperFunction,SMDPad,CuDef*
%ADD15R,1.050000X0.550000*%
G04 #@! TD*
G04 #@! TA.AperFunction,SMDPad,CuDef*
%ADD16RoundRect,0.237500X0.250000X0.237500X-0.250000X0.237500X-0.250000X-0.237500X0.250000X-0.237500X0*%
G04 #@! TD*
G04 #@! TA.AperFunction,SMDPad,CuDef*
%ADD17RoundRect,0.237500X-0.250000X-0.237500X0.250000X-0.237500X0.250000X0.237500X-0.250000X0.237500X0*%
G04 #@! TD*
G04 #@! TA.AperFunction,SMDPad,CuDef*
%ADD18RoundRect,0.237500X-0.237500X0.250000X-0.237500X-0.250000X0.237500X-0.250000X0.237500X0.250000X0*%
G04 #@! TD*
G04 #@! TA.AperFunction,SMDPad,CuDef*
%ADD19RoundRect,0.237500X0.237500X-0.250000X0.237500X0.250000X-0.237500X0.250000X-0.237500X-0.250000X0*%
G04 #@! TD*
G04 #@! TA.AperFunction,SMDPad,CuDef*
%ADD20R,2.000000X2.000000*%
G04 #@! TD*
G04 #@! TA.AperFunction,SMDPad,CuDef*
%ADD21R,1.700000X3.700000*%
G04 #@! TD*
G04 #@! TA.AperFunction,ComponentPad*
%ADD22O,2.616000X1.308000*%
G04 #@! TD*
G04 #@! TA.AperFunction,ComponentPad*
%ADD23O,1.308000X2.616000*%
G04 #@! TD*
G04 #@! TA.AperFunction,SMDPad,CuDef*
%ADD24RoundRect,0.250001X-0.462499X-0.624999X0.462499X-0.624999X0.462499X0.624999X-0.462499X0.624999X0*%
G04 #@! TD*
G04 #@! TA.AperFunction,SMDPad,CuDef*
%ADD25R,0.800000X0.300000*%
G04 #@! TD*
G04 #@! TA.AperFunction,SMDPad,CuDef*
%ADD26R,1.750000X2.480000*%
G04 #@! TD*
G04 #@! TA.AperFunction,ComponentPad*
%ADD27C,0.650000*%
G04 #@! TD*
G04 #@! TA.AperFunction,ComponentPad*
%ADD28O,2.216000X1.108000*%
G04 #@! TD*
G04 #@! TA.AperFunction,ComponentPad*
%ADD29R,1.700000X1.700000*%
G04 #@! TD*
G04 #@! TA.AperFunction,ComponentPad*
%ADD30O,1.700000X1.700000*%
G04 #@! TD*
G04 #@! TA.AperFunction,SMDPad,CuDef*
%ADD31RoundRect,0.237500X0.237500X-0.287500X0.237500X0.287500X-0.237500X0.287500X-0.237500X-0.287500X0*%
G04 #@! TD*
G04 #@! TA.AperFunction,SMDPad,CuDef*
%ADD32RoundRect,0.075000X0.662500X0.075000X-0.662500X0.075000X-0.662500X-0.075000X0.662500X-0.075000X0*%
G04 #@! TD*
G04 #@! TA.AperFunction,SMDPad,CuDef*
%ADD33RoundRect,0.075000X0.075000X0.662500X-0.075000X0.662500X-0.075000X-0.662500X0.075000X-0.662500X0*%
G04 #@! TD*
G04 #@! TA.AperFunction,SMDPad,CuDef*
%ADD34R,0.590000X1.210000*%
G04 #@! TD*
G04 #@! TA.AperFunction,ComponentPad*
%ADD35C,0.800000*%
G04 #@! TD*
G04 #@! TA.AperFunction,ComponentPad*
%ADD36C,6.400000*%
G04 #@! TD*
G04 #@! TA.AperFunction,ViaPad*
%ADD37C,0.450000*%
G04 #@! TD*
G04 #@! TA.AperFunction,ViaPad*
%ADD38C,0.800000*%
G04 #@! TD*
G04 #@! TA.AperFunction,ViaPad*
%ADD39C,0.500000*%
G04 #@! TD*
G04 #@! TA.AperFunction,Conductor*
%ADD40C,0.200000*%
G04 #@! TD*
G04 #@! TA.AperFunction,Conductor*
%ADD41C,0.500000*%
G04 #@! TD*
G04 #@! TA.AperFunction,Conductor*
%ADD42C,0.300000*%
G04 #@! TD*
G04 #@! TA.AperFunction,Conductor*
%ADD43C,0.250000*%
G04 #@! TD*
G04 #@! TA.AperFunction,Conductor*
%ADD44C,0.127000*%
G04 #@! TD*
G04 APERTURE END LIST*
D10*
G04 #@! TO.P,Y1,1,AFC_OR_GND*
G04 #@! TO.N,Net-(C3-Pad1)*
X152273000Y-102937000D03*
G04 #@! TO.P,Y1,3,GND*
G04 #@! TO.N,GND*
X148113000Y-102937000D03*
G04 #@! TO.P,Y1,4,OUTPUT*
G04 #@! TO.N,TCXO*
X148113000Y-105537000D03*
G04 #@! TO.P,Y1,6,VCC*
G04 #@! TO.N,+2V8*
X152273000Y-105537000D03*
G04 #@! TD*
D11*
G04 #@! TO.P,C1,1*
G04 #@! TO.N,+2V8*
X154813000Y-105270500D03*
G04 #@! TO.P,C1,2*
G04 #@! TO.N,GND*
X154813000Y-103545500D03*
G04 #@! TD*
D12*
G04 #@! TO.P,C3,1*
G04 #@! TO.N,Net-(C3-Pad1)*
X152740500Y-100076000D03*
G04 #@! TO.P,C3,2*
G04 #@! TO.N,GND*
X151015500Y-100076000D03*
G04 #@! TD*
D11*
G04 #@! TO.P,C4,1*
G04 #@! TO.N,+2V8*
X134950200Y-98892500D03*
G04 #@! TO.P,C4,2*
G04 #@! TO.N,GND*
X134950200Y-97167500D03*
G04 #@! TD*
D12*
G04 #@! TO.P,C5,1*
G04 #@! TO.N,+3V3*
X133591500Y-109347000D03*
G04 #@! TO.P,C5,2*
G04 #@! TO.N,GND*
X131866500Y-109347000D03*
G04 #@! TD*
D11*
G04 #@! TO.P,C6,1*
G04 #@! TO.N,+2V8*
X133350000Y-98892500D03*
G04 #@! TO.P,C6,2*
G04 #@! TO.N,GND*
X133350000Y-97167500D03*
G04 #@! TD*
D13*
G04 #@! TO.P,C7,1*
G04 #@! TO.N,+2V8*
X143383000Y-110375500D03*
G04 #@! TO.P,C7,2*
G04 #@! TO.N,GND*
X143383000Y-112100500D03*
G04 #@! TD*
D14*
G04 #@! TO.P,C8,1*
G04 #@! TO.N,+2V8*
X144919500Y-108839000D03*
G04 #@! TO.P,C8,2*
G04 #@! TO.N,GND*
X146644500Y-108839000D03*
G04 #@! TD*
D11*
G04 #@! TO.P,C9,1*
G04 #@! TO.N,VAA*
X146544000Y-99414500D03*
G04 #@! TO.P,C9,2*
G04 #@! TO.N,GND*
X146544000Y-97689500D03*
G04 #@! TD*
G04 #@! TO.P,C10,1*
G04 #@! TO.N,VAA*
X144780000Y-99428500D03*
G04 #@! TO.P,C10,2*
G04 #@! TO.N,GND*
X144780000Y-97703500D03*
G04 #@! TD*
D13*
G04 #@! TO.P,C11,1*
G04 #@! TO.N,+2V8*
X134239000Y-112308500D03*
G04 #@! TO.P,C11,2*
G04 #@! TO.N,GND*
X134239000Y-114033500D03*
G04 #@! TD*
D11*
G04 #@! TO.P,C12,1*
G04 #@! TO.N,+BATT*
X124841000Y-101587500D03*
G04 #@! TO.P,C12,2*
G04 #@! TO.N,GND*
X124841000Y-99862500D03*
G04 #@! TD*
G04 #@! TO.P,C13,1*
G04 #@! TO.N,VBUS*
X118999000Y-101841500D03*
G04 #@! TO.P,C13,2*
G04 #@! TO.N,GND*
X118999000Y-100116500D03*
G04 #@! TD*
D14*
G04 #@! TO.P,C14,1*
G04 #@! TO.N,+3V3*
X128422400Y-109372400D03*
G04 #@! TO.P,C14,2*
G04 #@! TO.N,GND*
X130147400Y-109372400D03*
G04 #@! TD*
D11*
G04 #@! TO.P,C15,1*
G04 #@! TO.N,+2V8*
X129667000Y-101460500D03*
G04 #@! TO.P,C15,2*
G04 #@! TO.N,GND*
X129667000Y-99735500D03*
G04 #@! TD*
G04 #@! TO.P,C16,1*
G04 #@! TO.N,+BATT*
X127254000Y-101559500D03*
G04 #@! TO.P,C16,2*
G04 #@! TO.N,GND*
X127254000Y-99834500D03*
G04 #@! TD*
D14*
G04 #@! TO.P,C19,1*
G04 #@! TO.N,NRST*
X139600600Y-114350800D03*
G04 #@! TO.P,C19,2*
G04 #@! TO.N,GND*
X141325600Y-114350800D03*
G04 #@! TD*
D15*
G04 #@! TO.P,IC3,1,IN*
G04 #@! TO.N,+BATT*
X125192000Y-111699000D03*
G04 #@! TO.P,IC3,2,GND*
G04 #@! TO.N,GND*
X125192000Y-112649000D03*
G04 #@! TO.P,IC3,3,~{SHDN}*
G04 #@! TO.N,+BATT*
X125192000Y-113599000D03*
G04 #@! TO.P,IC3,4,BYP*
G04 #@! TO.N,Net-(C18-Pad2)*
X127792000Y-113599000D03*
G04 #@! TO.P,IC3,5,OUT*
G04 #@! TO.N,+3V3*
X127792000Y-111699000D03*
G04 #@! TD*
D16*
G04 #@! TO.P,R7,1*
G04 #@! TO.N,Net-(C3-Pad1)*
X152818500Y-98044000D03*
G04 #@! TO.P,R7,2*
G04 #@! TO.N,TCVC*
X150993500Y-98044000D03*
G04 #@! TD*
D17*
G04 #@! TO.P,R6,1*
G04 #@! TO.N,CC2*
X114544500Y-99060000D03*
G04 #@! TO.P,R6,2*
G04 #@! TO.N,GND*
X116369500Y-99060000D03*
G04 #@! TD*
D16*
G04 #@! TO.P,R5,1*
G04 #@! TO.N,CC1*
X116595500Y-111887000D03*
G04 #@! TO.P,R5,2*
G04 #@! TO.N,GND*
X114770500Y-111887000D03*
G04 #@! TD*
D18*
G04 #@! TO.P,R1,1*
G04 #@! TO.N,+BATT*
X140222000Y-94224500D03*
G04 #@! TO.P,R1,2*
G04 #@! TO.N,BATT_CHECK*
X140222000Y-96049500D03*
G04 #@! TD*
D17*
G04 #@! TO.P,R2,1*
G04 #@! TO.N,BATT_CHECK*
X140198500Y-97536000D03*
G04 #@! TO.P,R2,2*
G04 #@! TO.N,Net-(R2-Pad2)*
X142023500Y-97536000D03*
G04 #@! TD*
D19*
G04 #@! TO.P,R3,1*
G04 #@! TO.N,Net-(R2-Pad2)*
X141986000Y-96049500D03*
G04 #@! TO.P,R3,2*
G04 #@! TO.N,GND*
X141986000Y-94224500D03*
G04 #@! TD*
D18*
G04 #@! TO.P,R4,1*
G04 #@! TO.N,BTN_C*
X162560000Y-110646200D03*
G04 #@! TO.P,R4,2*
G04 #@! TO.N,GND*
X162560000Y-112471200D03*
G04 #@! TD*
D17*
G04 #@! TO.P,R9,1*
G04 #@! TO.N,TC_CON*
X154648500Y-109220000D03*
G04 #@! TO.P,R9,2*
G04 #@! TO.N,Net-(J2-Pad2)*
X156473500Y-109220000D03*
G04 #@! TD*
D16*
G04 #@! TO.P,R10,1*
G04 #@! TO.N,TC_CON*
X152790500Y-109220000D03*
G04 #@! TO.P,R10,2*
G04 #@! TO.N,TC_OUT*
X150965500Y-109220000D03*
G04 #@! TD*
D17*
G04 #@! TO.P,R11,1*
G04 #@! TO.N,TC_IN*
X150965500Y-111125000D03*
G04 #@! TO.P,R11,2*
G04 #@! TO.N,TC_CON*
X152790500Y-111125000D03*
G04 #@! TD*
D19*
G04 #@! TO.P,R12,1*
G04 #@! TO.N,+2V8*
X130556000Y-107606500D03*
G04 #@! TO.P,R12,2*
G04 #@! TO.N,STAT2*
X130556000Y-105781500D03*
G04 #@! TD*
D18*
G04 #@! TO.P,R13,1*
G04 #@! TO.N,+2V8*
X131826000Y-101689500D03*
G04 #@! TO.P,R13,2*
G04 #@! TO.N,STAT1*
X131826000Y-103514500D03*
G04 #@! TD*
D16*
G04 #@! TO.P,R14,1*
G04 #@! TO.N,BTN_A*
X151942800Y-96113600D03*
G04 #@! TO.P,R14,2*
G04 #@! TO.N,GND*
X150117800Y-96113600D03*
G04 #@! TD*
D18*
G04 #@! TO.P,R15,1*
G04 #@! TO.N,BTN_B*
X151028400Y-114761000D03*
G04 #@! TO.P,R15,2*
G04 #@! TO.N,GND*
X151028400Y-116586000D03*
G04 #@! TD*
D16*
G04 #@! TO.P,R16,1*
G04 #@! TO.N,Net-(IC1-Pad6)*
X121802500Y-107315000D03*
G04 #@! TO.P,R16,2*
G04 #@! TO.N,Net-(R16-Pad2)*
X119977500Y-107315000D03*
G04 #@! TD*
D18*
G04 #@! TO.P,R17,1*
G04 #@! TO.N,+BATT*
X124206000Y-103594500D03*
G04 #@! TO.P,R17,2*
G04 #@! TO.N,Net-(IC1-Pad7)*
X124206000Y-105419500D03*
G04 #@! TD*
G04 #@! TO.P,R18,1*
G04 #@! TO.N,Net-(IC1-Pad8)*
X124333000Y-107277500D03*
G04 #@! TO.P,R18,2*
G04 #@! TO.N,GND*
X124333000Y-109102500D03*
G04 #@! TD*
D16*
G04 #@! TO.P,R19,1*
G04 #@! TO.N,BTN_PWR*
X132752500Y-95123000D03*
G04 #@! TO.P,R19,2*
G04 #@! TO.N,GND*
X130927500Y-95123000D03*
G04 #@! TD*
D17*
G04 #@! TO.P,R20,1*
G04 #@! TO.N,Net-(R16-Pad2)*
X120005500Y-108966000D03*
G04 #@! TO.P,R20,2*
G04 #@! TO.N,GND*
X121830500Y-108966000D03*
G04 #@! TD*
D18*
G04 #@! TO.P,R8,1*
G04 #@! TO.N,Net-(D1-Pad1)*
X123063000Y-94478500D03*
G04 #@! TO.P,R8,2*
G04 #@! TO.N,GND*
X123063000Y-96303500D03*
G04 #@! TD*
D20*
G04 #@! TO.P,S2,1,COM*
G04 #@! TO.N,BTN_A*
X154178000Y-96012000D03*
G04 #@! TO.P,S2,2,NO*
G04 #@! TO.N,+2V8*
X160178000Y-96012000D03*
G04 #@! TD*
G04 #@! TO.P,S1,1,COM*
G04 #@! TO.N,BTN_C*
X160477200Y-108204000D03*
G04 #@! TO.P,S1,2,NO*
G04 #@! TO.N,+2V8*
X160477200Y-102204000D03*
G04 #@! TD*
G04 #@! TO.P,S4,1,COM*
G04 #@! TO.N,BTN_B*
X154223200Y-114503200D03*
G04 #@! TO.P,S4,2,NO*
G04 #@! TO.N,+2V8*
X160223200Y-114503200D03*
G04 #@! TD*
D21*
G04 #@! TO.P,S3,1,COM*
G04 #@! TO.N,BTN_PWR*
X130937000Y-91440000D03*
G04 #@! TO.P,S3,2,N.O.*
G04 #@! TO.N,+2V8*
X125037000Y-91440000D03*
G04 #@! TD*
D22*
G04 #@! TO.P,J2,3*
G04 #@! TO.N,unconnected-(J2-Pad3)*
X160049200Y-100203000D03*
G04 #@! TO.P,J2,2*
G04 #@! TO.N,Net-(J2-Pad2)*
X160049200Y-110203000D03*
D23*
G04 #@! TO.P,J2,1*
G04 #@! TO.N,GND*
X165049200Y-105203000D03*
G04 #@! TD*
D24*
G04 #@! TO.P,D1,1,K*
G04 #@! TO.N,Net-(D1-Pad1)*
X119634000Y-90551000D03*
G04 #@! TO.P,D1,2,A*
G04 #@! TO.N,LED_STATUS*
X122609000Y-90551000D03*
G04 #@! TD*
D25*
G04 #@! TO.P,IC1,1,VDD_1*
G04 #@! TO.N,VBUS*
X119404000Y-103648000D03*
G04 #@! TO.P,IC1,2,VDD_2*
X119404000Y-104148000D03*
G04 #@! TO.P,IC1,3,STAT1*
G04 #@! TO.N,STAT1*
X119404000Y-104648000D03*
G04 #@! TO.P,IC1,4,STAT2*
G04 #@! TO.N,STAT2*
X119404000Y-105148000D03*
G04 #@! TO.P,IC1,5,VSS*
G04 #@! TO.N,GND*
X119404000Y-105648000D03*
G04 #@! TO.P,IC1,6,PROG*
G04 #@! TO.N,Net-(IC1-Pad6)*
X122404000Y-105648000D03*
G04 #@! TO.P,IC1,7,~{PG(TE})*
G04 #@! TO.N,Net-(IC1-Pad7)*
X122404000Y-105148000D03*
G04 #@! TO.P,IC1,8,THERM*
G04 #@! TO.N,Net-(IC1-Pad8)*
X122404000Y-104648000D03*
G04 #@! TO.P,IC1,9,VBAT_1*
G04 #@! TO.N,+BATT*
X122404000Y-104148000D03*
G04 #@! TO.P,IC1,10,VBAT_2*
X122404000Y-103648000D03*
D26*
G04 #@! TO.P,IC1,11,GND*
G04 #@! TO.N,GND*
X120904000Y-104648000D03*
G04 #@! TD*
D15*
G04 #@! TO.P,IC2,1,IN*
G04 #@! TO.N,+BATT*
X126111000Y-103759000D03*
G04 #@! TO.P,IC2,2,GND*
G04 #@! TO.N,GND*
X126111000Y-104709000D03*
G04 #@! TO.P,IC2,3,~{SHDN}*
G04 #@! TO.N,+BATT*
X126111000Y-105659000D03*
G04 #@! TO.P,IC2,4,BYP*
G04 #@! TO.N,unconnected-(IC2-Pad4)*
X128711000Y-105659000D03*
G04 #@! TO.P,IC2,5,OUT*
G04 #@! TO.N,+2V8*
X128711000Y-103759000D03*
G04 #@! TD*
D27*
G04 #@! TO.P,J1,A1,GND*
G04 #@! TO.N,GND*
X116412000Y-108458000D03*
G04 #@! TO.P,J1,A4,VBUS*
G04 #@! TO.N,VBUS*
X116412000Y-107608000D03*
G04 #@! TO.P,J1,A5,CC1*
G04 #@! TO.N,CC1*
X116412000Y-106758000D03*
G04 #@! TO.P,J1,A6,DP1*
G04 #@! TO.N,USB_D+*
X116412000Y-105908000D03*
G04 #@! TO.P,J1,A7,DN1*
G04 #@! TO.N,USB_D-*
X116412000Y-105058000D03*
G04 #@! TO.P,J1,A8,SBU1*
G04 #@! TO.N,unconnected-(J1-PadA8)*
X116412000Y-104208000D03*
G04 #@! TO.P,J1,A9,VBUS*
G04 #@! TO.N,VBUS*
X116412000Y-103358000D03*
G04 #@! TO.P,J1,A12,GND*
G04 #@! TO.N,GND*
X116412000Y-102508000D03*
G04 #@! TO.P,J1,B1,GND*
X115062000Y-102508000D03*
G04 #@! TO.P,J1,B4,VBUS*
G04 #@! TO.N,VBUS*
X115062000Y-103358000D03*
G04 #@! TO.P,J1,B5,CC2*
G04 #@! TO.N,CC2*
X115062000Y-104208000D03*
G04 #@! TO.P,J1,B6,DP2*
G04 #@! TO.N,USB_D+*
X115062000Y-105058000D03*
G04 #@! TO.P,J1,B7,DN2*
G04 #@! TO.N,USB_D-*
X115062000Y-105908000D03*
G04 #@! TO.P,J1,B8,SBU2*
G04 #@! TO.N,unconnected-(J1-PadB8)*
X115062000Y-106758000D03*
G04 #@! TO.P,J1,B9,VBUS*
G04 #@! TO.N,VBUS*
X115062000Y-107608000D03*
G04 #@! TO.P,J1,B12,GND*
G04 #@! TO.N,GND*
X115062000Y-108458000D03*
D28*
G04 #@! TO.P,J1,P1,SHELL*
G04 #@! TO.N,Net-(J1-PadP1)*
X115432000Y-109808000D03*
G04 #@! TO.P,J1,P2,SHELL*
X115432000Y-101158000D03*
G04 #@! TO.P,J1,P3,SHELL*
X112052000Y-101158000D03*
G04 #@! TO.P,J1,P4,SHELL*
X112052000Y-109808000D03*
G04 #@! TD*
D29*
G04 #@! TO.P,J3,1,Pin_1*
G04 #@! TO.N,GND*
X133858000Y-91186000D03*
D30*
G04 #@! TO.P,J3,2,Pin_2*
G04 #@! TO.N,+2V8*
X136398000Y-91186000D03*
G04 #@! TO.P,J3,3,Pin_3*
G04 #@! TO.N,MON_SCL*
X138938000Y-91186000D03*
G04 #@! TO.P,J3,4,Pin_4*
G04 #@! TO.N,MON_SDA*
X141478000Y-91186000D03*
G04 #@! TD*
D29*
G04 #@! TO.P,J4,1,Pin_1*
G04 #@! TO.N,+2V8*
X149733000Y-119634000D03*
D30*
G04 #@! TO.P,J4,2,Pin_2*
G04 #@! TO.N,SWCLK*
X147193000Y-119634000D03*
G04 #@! TO.P,J4,3,Pin_3*
G04 #@! TO.N,GND*
X144653000Y-119634000D03*
G04 #@! TO.P,J4,4,Pin_4*
G04 #@! TO.N,SWDIO*
X142113000Y-119634000D03*
G04 #@! TO.P,J4,5,Pin_5*
G04 #@! TO.N,NRST*
X139573000Y-119634000D03*
G04 #@! TO.P,J4,6,Pin_6*
G04 #@! TO.N,SWO*
X137033000Y-119634000D03*
G04 #@! TD*
G04 #@! TO.P,J5,2,Pin_2*
G04 #@! TO.N,+BATT*
X112166400Y-93116400D03*
D29*
G04 #@! TO.P,J5,1,Pin_1*
G04 #@! TO.N,GND*
X112166400Y-95656400D03*
G04 #@! TD*
D30*
G04 #@! TO.P,J6,2,Pin_2*
G04 #@! TO.N,OSC*
X155067000Y-91567000D03*
D29*
G04 #@! TO.P,J6,1,Pin_1*
G04 #@! TO.N,GND*
X157607000Y-91567000D03*
G04 #@! TD*
D31*
G04 #@! TO.P,L1,1*
G04 #@! TO.N,VAA*
X148336000Y-99441000D03*
G04 #@! TO.P,L1,2*
G04 #@! TO.N,+2V8*
X148336000Y-97691000D03*
G04 #@! TD*
D32*
G04 #@! TO.P,U1,1,VBAT*
G04 #@! TO.N,+2V8*
X143326000Y-107172500D03*
G04 #@! TO.P,U1,2,PC13*
G04 #@! TO.N,BTN_C*
X143326000Y-106672500D03*
G04 #@! TO.P,U1,3,PC14*
G04 #@! TO.N,unconnected-(U1-Pad3)*
X143326000Y-106172500D03*
G04 #@! TO.P,U1,4,PC15*
G04 #@! TO.N,unconnected-(U1-Pad4)*
X143326000Y-105672500D03*
G04 #@! TO.P,U1,5,PH0*
G04 #@! TO.N,TCXO*
X143326000Y-105172500D03*
G04 #@! TO.P,U1,6,PH1*
G04 #@! TO.N,unconnected-(U1-Pad6)*
X143326000Y-104672500D03*
G04 #@! TO.P,U1,7,NRST*
G04 #@! TO.N,NRST*
X143326000Y-104172500D03*
G04 #@! TO.P,U1,8,VSSA*
G04 #@! TO.N,GND*
X143326000Y-103672500D03*
G04 #@! TO.P,U1,9,VDDA*
G04 #@! TO.N,VAA*
X143326000Y-103172500D03*
G04 #@! TO.P,U1,10,PA0*
G04 #@! TO.N,BTN_PWR*
X143326000Y-102672500D03*
G04 #@! TO.P,U1,11,PA1*
G04 #@! TO.N,unconnected-(U1-Pad11)*
X143326000Y-102172500D03*
G04 #@! TO.P,U1,12,PA2*
G04 #@! TO.N,TC_IN*
X143326000Y-101672500D03*
D33*
G04 #@! TO.P,U1,13,PA3*
G04 #@! TO.N,BATT_CHECK*
X141913500Y-100260000D03*
G04 #@! TO.P,U1,14,PA4*
G04 #@! TO.N,unconnected-(U1-Pad14)*
X141413500Y-100260000D03*
G04 #@! TO.P,U1,15,PA5*
G04 #@! TO.N,TCVC*
X140913500Y-100260000D03*
G04 #@! TO.P,U1,16,PA6*
G04 #@! TO.N,unconnected-(U1-Pad16)*
X140413500Y-100260000D03*
G04 #@! TO.P,U1,17,PA7*
G04 #@! TO.N,unconnected-(U1-Pad17)*
X139913500Y-100260000D03*
G04 #@! TO.P,U1,18,PB0*
G04 #@! TO.N,unconnected-(U1-Pad18)*
X139413500Y-100260000D03*
G04 #@! TO.P,U1,19,PB1*
G04 #@! TO.N,TC_OUT*
X138913500Y-100260000D03*
G04 #@! TO.P,U1,20,PB2*
G04 #@! TO.N,unconnected-(U1-Pad20)*
X138413500Y-100260000D03*
G04 #@! TO.P,U1,21,PB10*
G04 #@! TO.N,MON_SCL*
X137913500Y-100260000D03*
G04 #@! TO.P,U1,22,PB11*
G04 #@! TO.N,MON_SDA*
X137413500Y-100260000D03*
G04 #@! TO.P,U1,23,VSS*
G04 #@! TO.N,GND*
X136913500Y-100260000D03*
G04 #@! TO.P,U1,24,VDD*
G04 #@! TO.N,+2V8*
X136413500Y-100260000D03*
D32*
G04 #@! TO.P,U1,25,PB12*
G04 #@! TO.N,LED_STATUS*
X135001000Y-101672500D03*
G04 #@! TO.P,U1,26,PB13*
G04 #@! TO.N,unconnected-(U1-Pad26)*
X135001000Y-102172500D03*
G04 #@! TO.P,U1,27,PB14*
G04 #@! TO.N,unconnected-(U1-Pad27)*
X135001000Y-102672500D03*
G04 #@! TO.P,U1,28,PB15*
G04 #@! TO.N,unconnected-(U1-Pad28)*
X135001000Y-103172500D03*
G04 #@! TO.P,U1,29,PA8*
G04 #@! TO.N,OSC*
X135001000Y-103672500D03*
G04 #@! TO.P,U1,30,PA9*
G04 #@! TO.N,STAT1*
X135001000Y-104172500D03*
G04 #@! TO.P,U1,31,PA10*
G04 #@! TO.N,STAT2*
X135001000Y-104672500D03*
G04 #@! TO.P,U1,32,PA11*
G04 #@! TO.N,USB_D-*
X135001000Y-105172500D03*
G04 #@! TO.P,U1,33,PA12*
G04 #@! TO.N,USB_D+*
X135001000Y-105672500D03*
G04 #@! TO.P,U1,34,PA13*
G04 #@! TO.N,SWDIO*
X135001000Y-106172500D03*
G04 #@! TO.P,U1,35,VSS*
G04 #@! TO.N,GND*
X135001000Y-106672500D03*
G04 #@! TO.P,U1,36,VDDUSB*
G04 #@! TO.N,+3V3*
X135001000Y-107172500D03*
D33*
G04 #@! TO.P,U1,37,PA14*
G04 #@! TO.N,SWCLK*
X136413500Y-108585000D03*
G04 #@! TO.P,U1,38,PA15*
G04 #@! TO.N,unconnected-(U1-Pad38)*
X136913500Y-108585000D03*
G04 #@! TO.P,U1,39,PB3*
G04 #@! TO.N,SWO*
X137413500Y-108585000D03*
G04 #@! TO.P,U1,40,PB4*
G04 #@! TO.N,unconnected-(U1-Pad40)*
X137913500Y-108585000D03*
G04 #@! TO.P,U1,41,PB5*
G04 #@! TO.N,unconnected-(U1-Pad41)*
X138413500Y-108585000D03*
G04 #@! TO.P,U1,42,PB6*
G04 #@! TO.N,MEM_SCL*
X138913500Y-108585000D03*
G04 #@! TO.P,U1,43,PB7*
G04 #@! TO.N,MEM_SDA*
X139413500Y-108585000D03*
G04 #@! TO.P,U1,44,PH3*
G04 #@! TO.N,GND*
X139913500Y-108585000D03*
G04 #@! TO.P,U1,45,PB8*
G04 #@! TO.N,BTN_A*
X140413500Y-108585000D03*
G04 #@! TO.P,U1,46,PB9*
G04 #@! TO.N,BTN_B*
X140913500Y-108585000D03*
G04 #@! TO.P,U1,47,VSS*
G04 #@! TO.N,GND*
X141413500Y-108585000D03*
G04 #@! TO.P,U1,48,VDD*
G04 #@! TO.N,+2V8*
X141913500Y-108585000D03*
G04 #@! TD*
D34*
G04 #@! TO.P,U2,1,SCL*
G04 #@! TO.N,MEM_SCL*
X135956000Y-114681000D03*
G04 #@! TO.P,U2,2,VSS*
G04 #@! TO.N,GND*
X136906000Y-114681000D03*
G04 #@! TO.P,U2,3,SDA*
G04 #@! TO.N,MEM_SDA*
X137856000Y-114681000D03*
G04 #@! TO.P,U2,4,NC*
G04 #@! TO.N,unconnected-(U2-Pad4)*
X137856000Y-112171000D03*
G04 #@! TO.P,U2,5,VCC*
G04 #@! TO.N,+2V8*
X135956000Y-112171000D03*
G04 #@! TD*
D13*
G04 #@! TO.P,C2,1*
G04 #@! TO.N,+BATT*
X123317000Y-111278500D03*
G04 #@! TO.P,C2,2*
G04 #@! TO.N,GND*
X123317000Y-113003500D03*
G04 #@! TD*
G04 #@! TO.P,C17,2*
G04 #@! TO.N,GND*
X130175000Y-113411000D03*
G04 #@! TO.P,C17,1*
G04 #@! TO.N,+3V3*
X130175000Y-111686000D03*
G04 #@! TD*
D14*
G04 #@! TO.P,C18,1*
G04 #@! TO.N,GND*
X126037000Y-115062000D03*
G04 #@! TO.P,C18,2*
G04 #@! TO.N,Net-(C18-Pad2)*
X127762000Y-115062000D03*
G04 #@! TD*
D35*
G04 #@! TO.P,H2,1,1*
G04 #@! TO.N,GND*
X166416056Y-91266944D03*
X164719000Y-90564000D03*
X163021944Y-91266944D03*
X162319000Y-92964000D03*
X163021944Y-94661056D03*
X164719000Y-95364000D03*
X166416056Y-94661056D03*
X167119000Y-92964000D03*
D36*
X164719000Y-92964000D03*
G04 #@! TD*
G04 #@! TO.P,H3,1,1*
G04 #@! TO.N,GND*
X164719000Y-117602000D03*
D35*
X167119000Y-117602000D03*
X166416056Y-119299056D03*
X164719000Y-120002000D03*
X163021944Y-119299056D03*
X162319000Y-117602000D03*
X163021944Y-115904944D03*
X164719000Y-115202000D03*
X166416056Y-115904944D03*
G04 #@! TD*
G04 #@! TO.P,H4,1,1*
G04 #@! TO.N,GND*
X115870056Y-115904944D03*
X114173000Y-115202000D03*
X112475944Y-115904944D03*
X111773000Y-117602000D03*
X112475944Y-119299056D03*
X114173000Y-120002000D03*
X115870056Y-119299056D03*
X116573000Y-117602000D03*
D36*
X114173000Y-117602000D03*
G04 #@! TD*
D37*
G04 #@! TO.N,GND*
X149656800Y-97383600D03*
X119380000Y-106121200D03*
G04 #@! TO.N,OSC*
X139446000Y-102971600D03*
G04 #@! TO.N,TC_OUT*
X138871500Y-101650800D03*
X150164800Y-108356400D03*
G04 #@! TO.N,STAT2*
X117805200Y-107492800D03*
G04 #@! TO.N,STAT1*
X117551200Y-103936800D03*
G04 #@! TO.N,GND*
X160985200Y-112522000D03*
G04 #@! TO.N,+2V8*
X161848800Y-104648000D03*
X158089600Y-94742000D03*
G04 #@! TO.N,BTN_A*
X156108400Y-96113600D03*
G04 #@! TO.N,GND*
X152958800Y-117144800D03*
G04 #@! TO.N,+2V8*
X158089600Y-114757200D03*
G04 #@! TO.N,GND*
X143560800Y-114249200D03*
X130149600Y-110388400D03*
G04 #@! TO.N,USB_D-*
X132237076Y-105399814D03*
G04 #@! TO.N,USB_D+*
X132938967Y-105795380D03*
G04 #@! TO.N,GND*
X131114800Y-110439200D03*
G04 #@! TO.N,+3V3*
X127660400Y-105918000D03*
D38*
G04 #@! TO.N,+2V8*
X131572000Y-98171000D03*
X148336000Y-96520000D03*
X134239000Y-110998000D03*
X130429000Y-103124000D03*
X131826000Y-107569000D03*
X144907000Y-110363000D03*
D37*
X153924000Y-106105000D03*
D38*
X129159000Y-93255000D03*
G04 #@! TO.N,GND*
X147955000Y-108839000D03*
X144653000Y-112141000D03*
X136906000Y-115951000D03*
X134239000Y-115189000D03*
X123063000Y-108966000D03*
X116332000Y-97917000D03*
X114808000Y-113030000D03*
X124841000Y-98679000D03*
X127254000Y-98679000D03*
X129667000Y-98552000D03*
X130937000Y-96266000D03*
X132207000Y-97155000D03*
X146558000Y-96520000D03*
X144780000Y-96520000D03*
X149860000Y-100076000D03*
X117729000Y-102489000D03*
D37*
X125222000Y-104394000D03*
D38*
X141478000Y-110236000D03*
X136144000Y-97282000D03*
D37*
X146494500Y-103441500D03*
X147066000Y-102108000D03*
X148590000Y-101727000D03*
X150495000Y-101727000D03*
X152527000Y-101727000D03*
X154432000Y-101727000D03*
X155829000Y-102997000D03*
X155829000Y-104394000D03*
X155829000Y-105664000D03*
X154432000Y-106680000D03*
X153035000Y-106680000D03*
X151257000Y-106680000D03*
X149352000Y-106680000D03*
X147828000Y-106680000D03*
X145796000Y-105791000D03*
X146685000Y-106172000D03*
X145161000Y-103672500D03*
X144780000Y-105791000D03*
D38*
X120523000Y-100076000D03*
D37*
X133731000Y-106680000D03*
X143129000Y-94234000D03*
D38*
X121539000Y-102743000D03*
X120142000Y-102743000D03*
X117983000Y-110109000D03*
D39*
X131064000Y-114173000D03*
X125603000Y-116078000D03*
X122047000Y-113538000D03*
X122301000Y-97155000D03*
D37*
G04 #@! TO.N,MON_SCL*
X137922000Y-98552000D03*
G04 #@! TO.N,MON_SDA*
X137160000Y-98552000D03*
X137160000Y-94615000D03*
G04 #@! TO.N,Net-(C3-Pad1)*
X153670000Y-102870000D03*
X153515000Y-100838000D03*
D39*
G04 #@! TO.N,VAA*
X145161000Y-102870000D03*
X145161000Y-100838000D03*
D38*
G04 #@! TO.N,+BATT*
X138684000Y-93980000D03*
D37*
G04 #@! TO.N,STAT1*
X130810000Y-104013000D03*
D39*
G04 #@! TO.N,STAT2*
X129667000Y-106426000D03*
G04 #@! TO.N,SWCLK*
X136779000Y-117348000D03*
D37*
X136413500Y-109966500D03*
G04 #@! TO.N,SWDIO*
X139827000Y-106934000D03*
D38*
G04 #@! TO.N,NRST*
X138938000Y-104394000D03*
D37*
G04 #@! TO.N,SWO*
X137413500Y-109982500D03*
G04 #@! TO.N,TCVC*
X149733000Y-98552000D03*
X141351000Y-101854000D03*
G04 #@! TO.N,TC_IN*
X146177000Y-101219000D03*
X151892000Y-110236000D03*
G04 #@! TO.N,BTN_A*
X141224000Y-113030000D03*
D39*
G04 #@! TO.N,BTN_PWR*
X136906000Y-101727000D03*
X134493000Y-95123000D03*
G04 #@! TD*
D40*
G04 #@! TO.N,GND*
X149656800Y-97383600D02*
G75*
G03*
X150117800Y-96270648I-1112953J1112953D01*
G01*
X150117800Y-96113600D02*
X150117800Y-96270648D01*
G04 #@! TO.N,Net-(J2-Pad2)*
X160049200Y-110203000D02*
G75*
G03*
X157676029Y-109220000I-2373174J-2373176D01*
G01*
X156473500Y-109220000D02*
X157676029Y-109220000D01*
D41*
G04 #@! TO.N,+BATT*
X112166400Y-93116400D02*
X117855691Y-93116400D01*
X119634000Y-93853000D02*
G75*
G03*
X117855691Y-93116400I-1778308J-1778307D01*
G01*
D40*
G04 #@! TO.N,BTN_PWR*
X136906000Y-101727000D02*
X137626089Y-102447089D01*
X142333438Y-102447089D02*
X142558849Y-102672500D01*
X142558849Y-102672500D02*
X143326000Y-102672500D01*
X137626089Y-102447089D02*
X142333438Y-102447089D01*
D42*
G04 #@! TO.N,OSC*
X135001000Y-103672500D02*
X137753878Y-103672500D01*
X139446000Y-102971600D02*
G75*
G02*
X137753878Y-103672500I-1692122J1692121D01*
G01*
G04 #@! TO.N,TC_OUT*
X138871500Y-101650800D02*
G75*
G03*
X138913500Y-101549404I-101402J101399D01*
G01*
X138913500Y-100260000D02*
X138913500Y-101549404D01*
X150164800Y-108356400D02*
X150921022Y-109112622D01*
X150965500Y-109220000D02*
G75*
G03*
X150921022Y-109112622I-151858J-2D01*
G01*
D40*
X150663924Y-108918423D02*
X150965500Y-109220000D01*
G04 #@! TO.N,STAT2*
X117805200Y-106474247D02*
G75*
G02*
X117983000Y-106045000I607049J-1D01*
G01*
X117805200Y-106474247D02*
X117805200Y-107492800D01*
G04 #@! TO.N,STAT1*
X118100756Y-104486355D02*
X117551200Y-103936800D01*
X118100756Y-104486355D02*
G75*
G03*
X118491000Y-104648000I390243J390238D01*
G01*
G04 #@! TO.N,GND*
X160985200Y-112522000D02*
G75*
G02*
X161107842Y-112471200I122640J-122638D01*
G01*
X162560000Y-112471200D02*
X161107842Y-112471200D01*
G04 #@! TO.N,+2V8*
X161235501Y-104034702D02*
X161848800Y-104648000D01*
X161235501Y-104034702D02*
G75*
G02*
X160477200Y-102204000I1830703J1830701D01*
G01*
X158780904Y-95433304D02*
X158089600Y-94742000D01*
X158780904Y-95433304D02*
G75*
G03*
X160178000Y-96012000I1397095J1397094D01*
G01*
D43*
G04 #@! TO.N,BTN_C*
X159472680Y-111925010D02*
G75*
G03*
X162560000Y-110646200I0J4366129D01*
G01*
X148680001Y-110122511D02*
G75*
G03*
X150482500Y-111925010I1802500J1D01*
G01*
X148680001Y-110122511D02*
X148680001Y-108490999D01*
X147377002Y-107188000D02*
X145373729Y-107188000D01*
X147377002Y-107188000D02*
G75*
G02*
X148680001Y-108490999I-1J-1303000D01*
G01*
X144129202Y-106672500D02*
G75*
G03*
X145373729Y-107188000I1244527J1244527D01*
G01*
X159472680Y-111925010D02*
X150482500Y-111925010D01*
X144129202Y-106672500D02*
X143326000Y-106672500D01*
X162305866Y-110032666D02*
G75*
G02*
X162560000Y-110646200I-613532J-613533D01*
G01*
X162305866Y-110032666D02*
X160477200Y-108204000D01*
D40*
G04 #@! TO.N,BTN_A*
X154178000Y-96012000D02*
X152044400Y-96012000D01*
X151942800Y-96113600D02*
G75*
G02*
X152044400Y-96012000I101600J0D01*
G01*
X156108400Y-96113600D02*
X154279600Y-96113600D01*
X154178000Y-96012000D02*
G75*
G03*
X154279600Y-96113600I101600J0D01*
G01*
G04 #@! TO.N,GND*
X152958800Y-117144800D02*
G75*
G03*
X151609738Y-116586000I-1349065J-1349069D01*
G01*
X151028400Y-116586000D02*
X151609738Y-116586000D01*
G04 #@! TO.N,+2V8*
X159609990Y-114757200D02*
X158089600Y-114757200D01*
X159609990Y-114757200D02*
G75*
G03*
X160223200Y-114503200I2J867204D01*
G01*
G04 #@! TO.N,BTN_B*
X151028400Y-114761000D02*
X153600816Y-114761000D01*
X154223200Y-114503200D02*
G75*
G02*
X153600816Y-114761000I-622383J622382D01*
G01*
X140752999Y-110768155D02*
X143186222Y-113201378D01*
X143186222Y-113201378D02*
X143395844Y-113411000D01*
X151028400Y-114761000D02*
X146951482Y-114761000D01*
X143186222Y-113201378D02*
G75*
G03*
X146951482Y-114761000I3765262J3765264D01*
G01*
D43*
G04 #@! TO.N,NRST*
X139600600Y-114350800D02*
X137177911Y-116773489D01*
X137177911Y-116773489D02*
X136541029Y-116773489D01*
X138795233Y-118856233D02*
X139573000Y-119634000D01*
X136541029Y-116773489D02*
X136204489Y-117110029D01*
X136204489Y-117110029D02*
X136204489Y-117585971D01*
X136204489Y-117585971D02*
X136541029Y-117922511D01*
X138795233Y-118856233D02*
G75*
G03*
X136541029Y-117922511I-2254203J-2254201D01*
G01*
G04 #@! TO.N,GND*
X139913500Y-108585000D02*
X139913500Y-112496627D01*
X139913500Y-112496627D02*
X141013006Y-113596133D01*
X141325599Y-114350800D02*
G75*
G03*
X141013005Y-113596134I-1067263J-2D01*
G01*
X143560800Y-114249200D02*
G75*
G02*
X143315516Y-114350800I-245284J245283D01*
G01*
X141325600Y-114350800D02*
X143315516Y-114350800D01*
G04 #@! TO.N,+3V3*
X128819087Y-110330087D02*
G75*
G02*
X128422400Y-109372400I957694J957690D01*
G01*
X128819087Y-110330087D02*
X130175000Y-111686000D01*
G04 #@! TO.N,GND*
X130149600Y-110388400D02*
G75*
G02*
X130147400Y-110383089I5315J5313D01*
G01*
X130147400Y-109372400D02*
X130147400Y-110383089D01*
G04 #@! TO.N,+3V3*
X128422400Y-109372400D02*
X128422400Y-107757630D01*
X127660400Y-105918000D02*
G75*
G02*
X128422400Y-107757630I-1839623J-1839628D01*
G01*
D40*
G04 #@! TO.N,USB_D-*
X132725507Y-105197500D02*
G75*
G03*
X132237077Y-105399815I0J-690745D01*
G01*
X134976001Y-105197499D02*
X133188299Y-105197499D01*
X133188299Y-105197499D02*
X132795092Y-105197499D01*
X132725507Y-105197499D02*
X133188299Y-105197499D01*
D43*
G04 #@! TO.N,GND*
X131625730Y-109928270D02*
X131114800Y-110439200D01*
X131625730Y-109928270D02*
G75*
G03*
X131866500Y-109347000I-581269J581270D01*
G01*
D40*
G04 #@! TO.N,USB_D+*
X135001000Y-105672500D02*
X134976001Y-105647501D01*
X132981488Y-105647501D02*
X132886288Y-105742701D01*
X134976001Y-105647501D02*
X132981488Y-105647501D01*
X132886288Y-105742701D02*
X132886288Y-105919478D01*
G04 #@! TO.N,USB_D-*
X135001000Y-105172500D02*
X134976001Y-105197499D01*
D43*
G04 #@! TO.N,+2V8*
X152273000Y-105537000D02*
X154813000Y-105537000D01*
X143326000Y-107783000D02*
X143326000Y-107172500D01*
X144382000Y-108839000D02*
X143326000Y-107783000D01*
X144907000Y-108839000D02*
X144382000Y-108839000D01*
X143383000Y-110054500D02*
X141913500Y-108585000D01*
X143383000Y-110363000D02*
X143383000Y-110054500D01*
X136305200Y-100260000D02*
X134950200Y-98905000D01*
X133350000Y-98905000D02*
X134950200Y-98905000D01*
X132306000Y-98905000D02*
X131572000Y-98171000D01*
X133350000Y-98905000D02*
X132306000Y-98905000D01*
X148336000Y-97691000D02*
X148336000Y-96520000D01*
X134239000Y-112296000D02*
X134239000Y-110998000D01*
X135831000Y-112296000D02*
X135956000Y-112171000D01*
X134239000Y-112296000D02*
X135831000Y-112296000D01*
D41*
X129794000Y-103759000D02*
X130429000Y-103124000D01*
X128711000Y-103759000D02*
X129794000Y-103759000D01*
X129667000Y-102362000D02*
X130429000Y-103124000D01*
X129667000Y-101473000D02*
X129667000Y-102362000D01*
D43*
X130556000Y-107569000D02*
X131826000Y-107569000D01*
X144907000Y-108839000D02*
X144907000Y-110363000D01*
X143383000Y-110363000D02*
X144907000Y-110363000D01*
D40*
X154492000Y-105537000D02*
X153924000Y-106105000D01*
X154813000Y-105537000D02*
X154492000Y-105537000D01*
X131826000Y-101727000D02*
X130429000Y-103124000D01*
D43*
X127344000Y-91440000D02*
X129159000Y-93255000D01*
X125037000Y-91440000D02*
X127344000Y-91440000D01*
D40*
G04 #@! TO.N,GND*
X134239000Y-114046000D02*
X134239000Y-115189000D01*
X136906000Y-114681000D02*
X136906000Y-115951000D01*
X144625000Y-112113000D02*
X144653000Y-112141000D01*
X143383000Y-112113000D02*
X144625000Y-112113000D01*
X146657000Y-108839000D02*
X147955000Y-108839000D01*
X151003000Y-100076000D02*
X149860000Y-100076000D01*
X146544000Y-96534000D02*
X146558000Y-96520000D01*
X146544000Y-97677000D02*
X146544000Y-96534000D01*
X144780000Y-97691000D02*
X144780000Y-96520000D01*
X134950200Y-97155000D02*
X133350000Y-97155000D01*
X133350000Y-97155000D02*
X132207000Y-97155000D01*
X130965000Y-95123000D02*
X130965000Y-96238000D01*
X129667000Y-99723000D02*
X129667000Y-98552000D01*
X127254000Y-99822000D02*
X127254000Y-98679000D01*
X124841000Y-99850000D02*
X124841000Y-98679000D01*
X116332000Y-99060000D02*
X116332000Y-97917000D01*
X121793000Y-108966000D02*
X123063000Y-108966000D01*
X123162000Y-109065000D02*
X123063000Y-108966000D01*
X124333000Y-109065000D02*
X123162000Y-109065000D01*
X116431000Y-102489000D02*
X116412000Y-102508000D01*
X117729000Y-102489000D02*
X116431000Y-102489000D01*
X119904000Y-105648000D02*
X120904000Y-104648000D01*
X119404000Y-105648000D02*
X119904000Y-105648000D01*
X125537000Y-104709000D02*
X125222000Y-104394000D01*
X126111000Y-104709000D02*
X125537000Y-104709000D01*
D43*
X141413500Y-110171500D02*
X141478000Y-110236000D01*
X141413500Y-108585000D02*
X141413500Y-110171500D01*
X136913500Y-100260000D02*
X136913500Y-99194500D01*
X136144000Y-98425000D02*
X136144000Y-97282000D01*
X136913500Y-99194500D02*
X136144000Y-98425000D01*
D42*
X143326000Y-103672500D02*
X145374500Y-103672500D01*
X146263500Y-103672500D02*
X146494500Y-103441500D01*
X146685000Y-103251000D02*
X146685000Y-102489000D01*
X146685000Y-102489000D02*
X147002500Y-102171500D01*
X147447000Y-101727000D02*
X147574000Y-101727000D01*
X155067000Y-101727000D02*
X155829000Y-102489000D01*
X155829000Y-102489000D02*
X155829000Y-102997000D01*
X155829000Y-106045000D02*
X155194000Y-106680000D01*
X155194000Y-106680000D02*
X154432000Y-106680000D01*
X147193000Y-106680000D02*
X146685000Y-106172000D01*
X146431000Y-105918000D02*
X146304000Y-105791000D01*
X146304000Y-105791000D02*
X145669000Y-105791000D01*
X145374500Y-103672500D02*
X145501500Y-103672500D01*
X147574000Y-101727000D02*
X148971000Y-101727000D01*
X146494500Y-103441500D02*
X146685000Y-103251000D01*
X147002500Y-102171500D02*
X147447000Y-101727000D01*
X148971000Y-101727000D02*
X150495000Y-101727000D01*
X150495000Y-101727000D02*
X152527000Y-101727000D01*
X152527000Y-101727000D02*
X154432000Y-101727000D01*
X154432000Y-101727000D02*
X155067000Y-101727000D01*
X155829000Y-102997000D02*
X155829000Y-103886000D01*
X155829000Y-103886000D02*
X155829000Y-105156000D01*
X155829000Y-105156000D02*
X155829000Y-106045000D01*
X154432000Y-106680000D02*
X153035000Y-106680000D01*
X153035000Y-106680000D02*
X151257000Y-106680000D01*
X151257000Y-106680000D02*
X149352000Y-106680000D01*
X149352000Y-106680000D02*
X147828000Y-106680000D01*
X147828000Y-106680000D02*
X147193000Y-106680000D01*
X145669000Y-105791000D02*
X144780000Y-105791000D01*
X146685000Y-106172000D02*
X146431000Y-105918000D01*
X145501500Y-103672500D02*
X146263500Y-103672500D01*
X144780000Y-105791000D02*
X144780000Y-105791000D01*
D40*
X148113000Y-102204000D02*
X148590000Y-101727000D01*
X148113000Y-102937000D02*
X148113000Y-102204000D01*
X155293000Y-103533000D02*
X155829000Y-102997000D01*
X154813000Y-103533000D02*
X155293000Y-103533000D01*
X141986000Y-94262000D02*
X142847000Y-94262000D01*
D41*
X120495000Y-100104000D02*
X120523000Y-100076000D01*
X118999000Y-100104000D02*
X120495000Y-100104000D01*
D40*
X133738500Y-106672500D02*
X133731000Y-106680000D01*
X135001000Y-106672500D02*
X133738500Y-106672500D01*
D42*
X142847000Y-94262000D02*
X143101000Y-94262000D01*
X143101000Y-94262000D02*
X143129000Y-94234000D01*
X141986000Y-94262000D02*
X143101000Y-94262000D01*
X120904000Y-103378000D02*
X121539000Y-102743000D01*
X120904000Y-104648000D02*
X120904000Y-103378000D01*
X120904000Y-103505000D02*
X120142000Y-102743000D01*
X120904000Y-104648000D02*
X120904000Y-103505000D01*
D40*
X114808000Y-111887000D02*
X114808000Y-113030000D01*
D43*
X130302000Y-113411000D02*
X131064000Y-114173000D01*
X130175000Y-113411000D02*
X130302000Y-113411000D01*
X126037000Y-115644000D02*
X125603000Y-116078000D01*
X126037000Y-115062000D02*
X126037000Y-115644000D01*
X123671500Y-112649000D02*
X123317000Y-113003500D01*
X125192000Y-112649000D02*
X123671500Y-112649000D01*
X122581500Y-113003500D02*
X122047000Y-113538000D01*
X123317000Y-113003500D02*
X122581500Y-113003500D01*
X123063000Y-96393000D02*
X122301000Y-97155000D01*
X123063000Y-96266000D02*
X123063000Y-96393000D01*
D40*
G04 #@! TO.N,MON_SCL*
X137913500Y-98560500D02*
X137922000Y-98552000D01*
X137913500Y-100260000D02*
X137913500Y-98560500D01*
G04 #@! TO.N,MON_SDA*
X137413500Y-98805500D02*
X137160000Y-98552000D01*
X137413500Y-100260000D02*
X137413500Y-98805500D01*
X140177990Y-92486010D02*
X141478000Y-91186000D01*
X138970792Y-92486010D02*
X140177990Y-92486010D01*
X137160000Y-94296802D02*
X138970792Y-92486010D01*
X137160000Y-94615000D02*
X137160000Y-94296802D01*
D43*
G04 #@! TO.N,Net-(C3-Pad1)*
X152781000Y-100048000D02*
X152753000Y-100076000D01*
X152781000Y-98044000D02*
X152781000Y-100048000D01*
D40*
X153603000Y-102937000D02*
X153670000Y-102870000D01*
X152273000Y-102937000D02*
X153603000Y-102937000D01*
X153515000Y-100838000D02*
X152753000Y-100076000D01*
X153543000Y-100838000D02*
X153515000Y-100838000D01*
G04 #@! TO.N,VAA*
X143326000Y-103181000D02*
X143284510Y-103222490D01*
X143326000Y-103172500D02*
X143326000Y-103181000D01*
X146530000Y-99441000D02*
X146544000Y-99427000D01*
X144780000Y-99441000D02*
X146530000Y-99441000D01*
X148322000Y-99427000D02*
X148336000Y-99441000D01*
X146544000Y-99427000D02*
X148322000Y-99427000D01*
D44*
X144341272Y-99441000D02*
X144780000Y-99441000D01*
D40*
X144858500Y-103172500D02*
X145161000Y-102870000D01*
X143326000Y-103172500D02*
X144858500Y-103172500D01*
X145161000Y-99822000D02*
X144780000Y-99441000D01*
X145161000Y-100838000D02*
X145161000Y-99822000D01*
D42*
G04 #@! TO.N,+BATT*
X122404000Y-104148000D02*
X122404000Y-103648000D01*
X126000000Y-103648000D02*
X126111000Y-103759000D01*
X126936000Y-103759000D02*
X127381000Y-104204000D01*
X126111000Y-103759000D02*
X126936000Y-103759000D01*
X126936000Y-105659000D02*
X126111000Y-105659000D01*
X127381000Y-105214000D02*
X126936000Y-105659000D01*
X127381000Y-104204000D02*
X127381000Y-105214000D01*
X126111000Y-102715000D02*
X127254000Y-101572000D01*
X126111000Y-103759000D02*
X126111000Y-102715000D01*
X126111000Y-103759000D02*
X126111000Y-102870000D01*
X124190000Y-103648000D02*
X124206000Y-103632000D01*
X122404000Y-103648000D02*
X124190000Y-103648000D01*
X125984000Y-103632000D02*
X126111000Y-103759000D01*
X124206000Y-103632000D02*
X125984000Y-103632000D01*
X126111000Y-102870000D02*
X124841000Y-101600000D01*
D43*
X138698000Y-93994000D02*
X138684000Y-93980000D01*
X138966000Y-94262000D02*
X138684000Y-93980000D01*
X140222000Y-94262000D02*
X138966000Y-94262000D01*
D41*
X124869000Y-101572000D02*
X124841000Y-101600000D01*
X127254000Y-101572000D02*
X124869000Y-101572000D01*
D43*
X125967000Y-113599000D02*
X126492000Y-113074000D01*
X125192000Y-113599000D02*
X125967000Y-113599000D01*
X125967000Y-111699000D02*
X125192000Y-111699000D01*
X126492000Y-112224000D02*
X125967000Y-111699000D01*
X126492000Y-113074000D02*
X126492000Y-112224000D01*
X123737500Y-111699000D02*
X123317000Y-111278500D01*
X125192000Y-111699000D02*
X123737500Y-111699000D01*
X126111000Y-110780000D02*
X125192000Y-111699000D01*
X126111000Y-105659000D02*
X126111000Y-110780000D01*
D41*
X121600999Y-95819999D02*
X119634000Y-93853000D01*
X121600999Y-98359999D02*
X121600999Y-95819999D01*
X124841000Y-101600000D02*
X121600999Y-98359999D01*
D43*
G04 #@! TO.N,VBUS*
X115062000Y-103358000D02*
X116412000Y-103358000D01*
X119114000Y-103358000D02*
X119404000Y-103648000D01*
X116412000Y-103358000D02*
X119114000Y-103358000D01*
X119404000Y-103648000D02*
X119404000Y-104148000D01*
X119507000Y-103545000D02*
X119404000Y-103648000D01*
X119404000Y-103402000D02*
X119404000Y-103648000D01*
X119380000Y-103378000D02*
X119404000Y-103402000D01*
D41*
X118999000Y-103243000D02*
X119404000Y-103648000D01*
X118999000Y-101854000D02*
X118999000Y-103243000D01*
D43*
G04 #@! TO.N,unconnected-(IC2-Pad4)*
X128778000Y-105726000D02*
X128711000Y-105659000D01*
G04 #@! TO.N,Net-(D1-Pad1)*
X120142000Y-90551000D02*
X123063000Y-93472000D01*
X123063000Y-93472000D02*
X123063000Y-94516000D01*
X119634000Y-90551000D02*
X120142000Y-90551000D01*
G04 #@! TO.N,LED_STATUS*
X134000498Y-101672500D02*
X135001000Y-101672500D01*
X130154997Y-97826999D02*
X134000498Y-101672500D01*
X128138997Y-97826999D02*
X130154997Y-97826999D01*
X122609000Y-92297002D02*
X128138997Y-97826999D01*
X122609000Y-90551000D02*
X122609000Y-92297002D01*
D40*
G04 #@! TO.N,STAT1*
X119404000Y-104648000D02*
X118491000Y-104648000D01*
D43*
X131346000Y-103477000D02*
X130810000Y-104013000D01*
X131826000Y-103477000D02*
X131346000Y-103477000D01*
X132546490Y-104197490D02*
X131826000Y-103477000D01*
X134881510Y-104197490D02*
X132546490Y-104197490D01*
X134906500Y-104172500D02*
X134881510Y-104197490D01*
X135001000Y-104172500D02*
X134906500Y-104172500D01*
D40*
G04 #@! TO.N,STAT2*
X118880000Y-105148000D02*
X117983000Y-106045000D01*
X119404000Y-105148000D02*
X118880000Y-105148000D01*
D43*
X133987510Y-104772490D02*
X131602510Y-104772490D01*
X131602510Y-104772490D02*
X130556000Y-105819000D01*
X134087500Y-104672500D02*
X133987510Y-104772490D01*
X135001000Y-104672500D02*
X134087500Y-104672500D01*
X129949000Y-106426000D02*
X130556000Y-105819000D01*
X129667000Y-106426000D02*
X129949000Y-106426000D01*
D40*
G04 #@! TO.N,Net-(IC1-Pad6)*
X122404000Y-106676000D02*
X121765000Y-107315000D01*
X122404000Y-105648000D02*
X122404000Y-106676000D01*
G04 #@! TO.N,Net-(IC1-Pad7)*
X124071000Y-105148000D02*
X124206000Y-105283000D01*
X123972000Y-105148000D02*
X122404000Y-105148000D01*
X124206000Y-105382000D02*
X123972000Y-105148000D01*
D44*
G04 #@! TO.N,Net-(IC1-Pad8)*
X124944510Y-104886972D02*
X124944510Y-106703490D01*
X124651028Y-104593490D02*
X124944510Y-104886972D01*
X124944510Y-106703490D02*
X124333000Y-107315000D01*
X123760972Y-104593490D02*
X124651028Y-104593490D01*
X123706462Y-104648000D02*
X123760972Y-104593490D01*
X122404000Y-104648000D02*
X123706462Y-104648000D01*
D40*
G04 #@! TO.N,CC1*
X116871619Y-106758000D02*
X116412000Y-106758000D01*
X117037001Y-106923382D02*
X116871619Y-106758000D01*
X117037001Y-111407999D02*
X117037001Y-106923382D01*
X116558000Y-111887000D02*
X117037001Y-111407999D01*
G04 #@! TO.N,USB_D+*
X134976000Y-105647500D02*
X135001000Y-105672500D01*
G04 #@! TO.N,USB_D-*
X115137002Y-105908000D02*
X115062000Y-105908000D01*
X115987002Y-105058000D02*
X115137002Y-105908000D01*
X116412000Y-105058000D02*
X115987002Y-105058000D01*
X134976000Y-105197500D02*
X135001000Y-105172500D01*
G04 #@! TO.N,CC2*
X114602381Y-104208000D02*
X115062000Y-104208000D01*
X114023990Y-103629609D02*
X114602381Y-104208000D01*
X114023990Y-99618010D02*
X114023990Y-103629609D01*
X114582000Y-99060000D02*
X114023990Y-99618010D01*
G04 #@! TO.N,Net-(J1-PadP1)*
X115432000Y-109808000D02*
X112052000Y-109808000D01*
X112052000Y-109808000D02*
X112052000Y-101158000D01*
D43*
G04 #@! TO.N,SWCLK*
X136413500Y-108585000D02*
X136413500Y-109966500D01*
X136779000Y-117348000D02*
X146177000Y-117348000D01*
X147193000Y-118364000D02*
X147193000Y-119634000D01*
X146177000Y-117348000D02*
X147193000Y-118364000D01*
D40*
G04 #@! TO.N,SWDIO*
X139065500Y-106172500D02*
X139827000Y-106934000D01*
X135001000Y-106172500D02*
X139065500Y-106172500D01*
D43*
G04 #@! TO.N,NRST*
X139159500Y-104172500D02*
X138938000Y-104394000D01*
X143326000Y-104172500D02*
X139159500Y-104172500D01*
X139700000Y-119380000D02*
X139954000Y-119634000D01*
G04 #@! TO.N,SWO*
X137413500Y-108585000D02*
X137413500Y-109982500D01*
G04 #@! TO.N,BATT_CHECK*
X140262500Y-97562500D02*
X140236000Y-97536000D01*
X140236000Y-95758000D02*
X140222000Y-95744000D01*
D40*
X140222000Y-97522000D02*
X140236000Y-97536000D01*
X140222000Y-96012000D02*
X140222000Y-97522000D01*
D43*
X141913500Y-99213500D02*
X141913500Y-100260000D01*
X140236000Y-97536000D02*
X141913500Y-99213500D01*
D40*
G04 #@! TO.N,Net-(R2-Pad2)*
X141986000Y-96012000D02*
X141986000Y-97536000D01*
D42*
G04 #@! TO.N,TCVC*
X150523000Y-98552000D02*
X151031000Y-98044000D01*
X149733000Y-98552000D02*
X150523000Y-98552000D01*
X140913500Y-101416500D02*
X141351000Y-101854000D01*
X140913500Y-100260000D02*
X140913500Y-101416500D01*
D43*
G04 #@! TO.N,TC_CON*
X154686000Y-109220000D02*
X152753000Y-109220000D01*
X152753000Y-109220000D02*
X152753000Y-111125000D01*
D42*
G04 #@! TO.N,TC_IN*
X145723500Y-101672500D02*
X146177000Y-101219000D01*
X151892000Y-110236000D02*
X151003000Y-111125000D01*
X143326000Y-101672500D02*
X145723500Y-101672500D01*
D40*
G04 #@! TO.N,BTN_A*
X140352989Y-109383011D02*
X140463490Y-109272510D01*
X140352989Y-112158989D02*
X140352989Y-109383011D01*
X141224000Y-113030000D02*
X140352989Y-112158989D01*
G04 #@! TO.N,BTN_B*
X140752999Y-109924999D02*
X140752999Y-110768155D01*
X140913500Y-109764498D02*
X140752999Y-109924999D01*
X140913500Y-108585000D02*
X140913500Y-109764498D01*
D43*
G04 #@! TO.N,BTN_PWR*
X132715000Y-93218000D02*
X130937000Y-91440000D01*
X132715000Y-95123000D02*
X132715000Y-93218000D01*
D40*
X132715000Y-95123000D02*
X134493000Y-95123000D01*
D43*
G04 #@! TO.N,TCXO*
X147748500Y-105172500D02*
X148113000Y-105537000D01*
X143326000Y-105172500D02*
X147748500Y-105172500D01*
G04 #@! TO.N,MEM_SCL*
X136576001Y-113205999D02*
X135956000Y-113826000D01*
X136576001Y-111965997D02*
X136576001Y-113205999D01*
X135956000Y-113826000D02*
X135956000Y-114681000D01*
X138913500Y-109628498D02*
X136576001Y-111965997D01*
X138913500Y-108585000D02*
X138913500Y-109628498D01*
G04 #@! TO.N,MEM_SDA*
X137856000Y-113934490D02*
X137856000Y-114681000D01*
X139413500Y-112376990D02*
X137856000Y-113934490D01*
X139413500Y-108585000D02*
X139413500Y-112376990D01*
D40*
G04 #@! TO.N,Net-(R16-Pad2)*
X120015000Y-108938000D02*
X120043000Y-108966000D01*
X120015000Y-107315000D02*
X120015000Y-108938000D01*
G04 #@! TO.N,unconnected-(U1-Pad18)*
X139413500Y-100260000D02*
X139410990Y-100257490D01*
D43*
G04 #@! TO.N,+3V3*
X133604000Y-108569500D02*
X135001000Y-107172500D01*
X133604000Y-109347000D02*
X133604000Y-108569500D01*
X131265000Y-111686000D02*
X130175000Y-111686000D01*
X133604000Y-109347000D02*
X131265000Y-111686000D01*
X130162000Y-111699000D02*
X130175000Y-111686000D01*
X127792000Y-111699000D02*
X130162000Y-111699000D01*
G04 #@! TO.N,Net-(C18-Pad2)*
X127792000Y-115032000D02*
X127762000Y-115062000D01*
X127792000Y-113599000D02*
X127792000Y-115032000D01*
G04 #@! TD*
M02*
